<svg width="92" height="75" viewBox="0 0 92 75" fill="none" xmlns="http://www.w3.org/2000/svg">
<path fill-rule="evenodd" clip-rule="evenodd" d="M82.894 41.6997C83.0449 40.7997 83.0449 39.8997 83.0449 38.8497C83.0449 18.4497 66.436 1.94971 45.9014 1.94971C25.3667 1.94971 8.75781 18.4497 8.75781 38.8497V41.6997H82.894Z" fill="#999999"/>
<path fill-rule="evenodd" clip-rule="evenodd" d="M45.9009 7.35059C28.386 7.35059 14.042 21.4506 14.042 38.8506C14.042 39.7506 14.193 40.8006 14.193 41.8506L14.344 42.4506H77.3068L77.4578 41.8506C77.6088 40.8006 77.6088 39.7506 77.6088 38.8506C77.6088 21.4506 63.2648 7.35059 45.9009 7.35059Z" fill="#D9D9D9"/>
<path fill-rule="evenodd" clip-rule="evenodd" d="M45.9013 12.6006C31.2553 12.6006 19.478 24.4506 19.478 38.8506C19.478 39.7506 19.478 40.8006 19.629 41.8506L19.78 43.0506H71.8716L72.0226 41.8506C72.1736 40.8006 72.1736 39.7506 72.1736 38.8506C72.1736 24.4506 60.3963 12.6006 45.9013 12.6006Z" fill="#BABABA"/>
<path fill-rule="evenodd" clip-rule="evenodd" d="M45.75 16.0503C39.5594 16.0503 35.3317 18.7503 33.2178 23.4003C32.4629 25.5003 33.2178 26.8503 35.6336 27.3003C36.6906 27.4503 38.3515 27.6003 40.4653 27.6003C39.8614 30.1503 39.2574 33.4503 38.9554 34.9503V37.3503C38.9554 39.6003 40.6163 39.0003 43.6361 39.6003H47.8638C50.7327 39.0003 52.3935 39.7503 52.3935 37.3503C52.3935 37.3503 52.5445 36.3003 52.3935 34.9503C52.2426 33.6003 51.6386 30.1503 51.0346 27.6003C53.1485 27.6003 54.8094 27.4503 55.8663 27.3003C58.2822 26.8503 59.0371 25.5003 58.4332 23.4003C56.1683 18.7503 51.9406 16.0503 45.75 16.0503Z" fill="white"/>
<path fill-rule="evenodd" clip-rule="evenodd" d="M61.4526 26.7003C57.9798 26.5503 55.564 28.2003 54.2051 31.0503C53.9031 32.4003 54.2051 33.1503 55.715 33.4503C56.168 33.6003 57.2249 33.6003 58.4328 33.6003C57.9798 35.2503 57.6779 36.7503 57.5269 38.1003V38.2503C57.5269 39.7503 58.5838 40.6503 60.2447 40.9503H62.6605C64.3214 40.6503 65.2274 39.7503 65.2274 38.2503V38.1003C65.0764 36.7503 64.7744 35.2503 64.4724 33.6003C65.6803 33.6003 66.5863 33.6003 67.1902 33.4503C68.5491 33.1503 69.0021 32.4003 68.7001 31.0503C67.3412 28.2003 64.9254 26.7003 61.4526 26.7003ZM30.0467 26.7003C26.5739 26.5503 24.1581 28.2003 22.9501 31.0503C22.4972 32.4003 22.9501 33.1503 24.309 33.4503C24.913 33.6003 25.8189 33.6003 27.0269 33.6003C26.7249 35.2503 26.4229 36.7503 26.2719 38.1003V38.2503C26.2719 39.7503 27.1779 40.6503 28.8388 40.9503H31.2546C32.9155 40.6503 33.9724 39.7503 33.9724 38.2503V38.1003C33.6704 36.7503 33.5194 35.2503 33.0665 33.6003C34.2744 33.6003 35.3313 33.6003 35.7843 33.4503C37.2942 33.1503 37.7472 32.4003 37.2942 31.0503C36.0863 28.2003 33.6704 26.7003 30.0467 26.7003Z" fill="white"/>
<path fill-rule="evenodd" clip-rule="evenodd" d="M89.5373 39.0006C89.2353 39.4506 89.2353 39.7506 89.0843 40.3506C88.9333 39.7506 88.3293 37.5006 88.3293 37.5006C88.3293 37.5006 88.1784 39.7506 87.5744 40.3506V39.3006C87.5744 39.3006 86.8194 40.0506 86.5175 40.5006C86.0645 39.6006 86.6685 38.2506 86.6685 38.2506C86.6685 38.2506 85.1586 39.3006 84.4036 40.2006C84.1016 39.1506 84.7056 38.1006 84.8566 37.2006C83.7996 37.6506 82.5917 40.2006 82.5917 40.2006C82.5917 40.2006 83.6487 37.6506 83.3467 35.7006C82.5917 38.8506 81.5348 39.6006 81.5348 39.6006L81.3838 37.5006L80.7798 38.4006L80.6289 35.7006L79.2699 39.4506L79.119 37.3506C79.119 37.3506 78.666 38.4006 78.515 39.1506C78.213 38.8506 78.213 37.6506 78.213 37.6506L77.6091 39.1506L77.3071 35.8506L76.5521 37.2006V35.1006C76.0991 36.3006 75.6462 37.5006 75.3442 38.8506C75.3442 37.2006 75.0422 33.3006 75.0422 33.3006L74.4383 38.8506C74.4383 38.8506 74.1363 33.7506 73.2303 32.7006C73.5323 36.3006 72.4754 38.8506 72.4754 38.8506L72.0224 37.2006C72.0224 37.2006 71.5694 39.1506 70.8145 39.7506C70.5125 38.5506 71.1165 37.0506 70.9655 35.5506C70.5125 36.6006 70.3615 37.9506 70.0595 39.1506C69.6066 38.1006 70.2105 35.8506 70.2105 35.8506C70.2105 35.8506 69.3046 37.2006 68.3987 39.0006C68.3987 37.3506 68.3986 36.3006 68.8516 34.5006C67.7947 34.9506 66.8887 38.7006 66.8887 38.7006C66.8887 38.7006 66.7378 36.7506 66.7378 35.8506C66.2848 36.4506 66.1338 38.7006 66.1338 38.7006L65.6808 38.1006C65.6808 38.1006 65.6808 39.0006 65.3788 39.1506C65.3788 37.0506 64.6239 36.6006 64.3219 34.8006C64.3219 36.1506 64.4729 38.5506 64.3219 38.8506C63.8689 38.1006 63.8689 37.0506 63.718 36.0006C63.114 36.7506 63.265 38.5506 62.963 38.8506C62.661 38.5506 62.661 37.3506 62.661 37.3506C62.661 37.3506 62.359 37.8006 62.359 38.1006C61.7551 36.7506 61.7551 34.9506 61.1511 33.6006C60.6982 34.2006 61.4531 39.3006 60.6982 39.3006C60.8491 37.9506 60.6982 36.6006 60.3962 35.4006C60.0942 36.4506 59.7922 39.4506 59.3392 39.4506C59.6412 34.0506 59.0373 28.3506 59.0373 28.3506C59.0373 31.9506 58.7353 34.9506 58.1313 38.1006C57.8293 37.5006 57.5274 35.5506 57.5274 35.5506C57.5274 35.5506 57.3764 37.5006 57.2254 38.2506C56.7724 36.4506 57.5274 34.5006 57.8293 32.8506C56.6214 33.6006 55.5645 35.8506 55.4135 38.1006C55.2625 37.5006 55.1115 36.4506 54.9605 35.5506C54.8095 36.0006 54.9605 38.7006 54.9605 39.3006C54.2056 37.5006 54.3566 34.8006 53.9036 32.8506C53.7526 34.2006 53.6016 37.6506 53.6016 37.6506L53.2996 36.1506C53.2996 36.1506 52.9977 37.5006 52.5447 37.6506C52.3937 35.5506 51.7897 34.2006 51.0348 32.4006C51.1858 35.4006 49.9779 38.5506 49.9779 38.5506C49.9779 38.5506 49.9779 36.1506 50.1288 34.8006C49.3739 36.0006 48.9209 37.3506 48.6189 38.8506C48.166 37.2006 48.468 32.8506 48.468 32.8506C48.468 32.8506 47.411 36.1506 46.9581 37.8006C46.5051 36.7506 46.8071 34.6506 46.3541 33.6006C45.9011 35.1006 45.7501 36.9006 45.1462 38.2506C44.8442 37.5006 44.8442 36.4506 44.8442 35.1006C44.2402 35.7006 44.0892 36.9006 43.7873 37.8006C43.4853 37.0506 43.7873 35.4006 43.6363 34.3506C43.0323 35.2506 42.8813 36.7506 42.5793 38.1006C41.9754 37.0506 42.2774 34.9506 42.1264 33.3006C41.8244 34.6506 40.3145 38.1006 40.3145 38.1006L38.9556 34.6506L37.5967 38.1006C37.5967 38.1006 38.0496 34.6506 37.8986 33.3006C37.7477 33.9006 37.5967 35.5506 37.5967 36.0006C37.1437 34.2006 36.6907 32.5506 36.0868 31.0506C36.0868 31.6506 36.3887 33.6006 36.2378 34.9506C36.2378 35.8506 36.0868 36.3006 36.0868 34.8006C35.6338 30.4506 33.067 28.3506 33.067 28.3506C33.218 28.5006 33.3689 28.8006 33.5199 28.9506C35.1808 31.2006 36.3887 34.6506 35.4828 37.2006C35.0298 36.6006 34.5769 35.5506 35.3318 33.3006C33.9729 33.9006 33.6709 35.4006 33.3689 36.9006C32.916 36.3006 32.765 34.0506 32.765 34.0506C32.765 34.0506 32.463 35.5506 32.161 36.1506C31.859 34.6506 31.859 32.8506 30.9531 32.1006C31.4061 33.7506 31.4061 35.4006 30.9531 36.1506C30.6511 35.2506 30.3491 33.0006 30.3491 33.0006C30.3491 33.0006 29.7452 35.1006 29.5942 36.1506C29.1412 34.9506 29.2922 33.3006 28.6883 32.2506C28.5373 33.7506 28.3863 35.4006 28.0843 36.7506C27.7823 36.1506 28.0843 35.1006 28.2353 34.5006C27.9333 34.6506 26.8764 36.6006 26.2724 37.2006C26.2724 35.7006 27.3293 34.2006 27.3293 34.2006C27.3293 34.2006 25.9704 34.3506 24.9135 37.2006C24.4605 36.7506 24.1585 35.7006 24.1585 34.8006C23.5546 35.5506 23.2526 36.3006 22.9506 37.2006C22.7996 36.0006 22.7996 34.3506 22.6486 32.5506C22.0447 33.7506 21.7427 37.9506 21.2897 38.1006C21.2897 36.4506 20.0818 34.2006 19.9308 34.0506C19.7798 36.7506 19.0249 37.5006 19.0249 37.5006V35.4006C19.0249 35.4006 17.666 38.4006 17.364 38.7006C17.213 37.9506 17.062 36.3006 16.911 34.9506C16.3071 35.7006 16.4581 36.9006 16.0051 37.6506C15.7031 37.2006 16.0051 36.3006 15.8541 35.7006C15.2501 36.4506 14.9482 37.3506 14.6462 38.1006C14.0422 37.0506 14.1932 35.2506 13.4383 34.6506C13.2873 35.4006 13.4383 37.2006 13.2873 38.2506C12.8343 37.5006 12.8343 36.4506 12.5323 35.8506C12.0793 36.3006 12.5323 38.8506 12.0793 39.0006C11.7774 38.4006 11.3244 37.8006 11.3244 37.0506C10.8714 37.5006 10.8714 38.1006 10.7204 38.7006C10.1165 37.6506 10.8714 36.1506 11.3244 35.1006C10.4184 35.5506 9.51251 36.7506 9.21053 38.1006C9.21053 37.6506 8.90855 36.9006 8.90855 36.6006C8.60657 37.5006 8.60657 37.8006 8.30459 38.4006C8.1536 37.8006 8.45558 36.7506 8.1536 36.1506C8.00261 36.6006 6.94568 38.4006 6.94568 38.4006C6.94568 38.4006 7.09667 36.9006 6.79469 36.1506C6.6437 37.0506 5.88874 39.0006 5.88874 39.1506C5.43577 38.7006 5.43577 38.1006 5.28478 37.3506C5.13379 37.8006 5.13379 38.2506 5.13379 38.7006C4.68082 37.9506 4.68082 36.4506 4.22785 35.5506C3.92587 36.4506 3.62389 37.8006 3.62389 38.8506C3.17092 38.2506 3.01993 36.3006 3.01993 36.3006C3.01993 36.3006 1.81201 38.2506 1.81201 40.3506V68.8506C1.81201 71.5506 3.92587 73.6506 6.6437 73.6506H85.3095C87.8764 73.6506 90.1412 71.5506 90.1412 68.8506V44.5506C90.1412 39.9006 89.5373 39.6006 89.5373 39.0006Z" fill="#777777"/>
<path fill-rule="evenodd" clip-rule="evenodd" d="M20.5343 59.5497C19.6283 59.5497 18.7224 59.3997 18.1184 59.2497V64.6497H16.9105C15.8536 64.6497 15.0986 64.1997 15.0986 62.9997V51.1497C16.0046 50.8497 17.9674 50.5497 19.0244 50.5497H20.5343C23.5541 50.5497 25.8189 52.1997 25.8189 54.8997C25.8189 57.7497 23.5541 59.5497 20.5343 59.5497ZM20.0813 52.7997H19.4773C19.1754 52.7997 18.4204 52.7997 18.1184 52.9497V57.1497C18.7224 57.2997 19.4773 57.4497 20.2323 57.4497C21.5912 57.4497 22.6481 56.5497 22.6481 55.1997C22.6481 53.2497 21.5912 52.7997 20.0813 52.7997ZM31.8585 64.9497C28.9897 64.9497 26.7249 63.8997 26.7249 61.3497C26.7249 59.3997 28.3858 57.8997 32.4625 57.8997H33.2174V57.4497C33.2174 55.9497 32.4625 55.4997 30.9526 55.4997C28.9897 55.4997 27.9328 56.0997 27.3288 56.8497H27.1778V55.7997C27.1778 54.7497 28.3858 53.3997 31.4056 53.3997C34.2744 53.3997 36.2372 54.5997 36.2372 57.8997V60.8997C36.2372 63.4497 34.5764 64.9497 31.8585 64.9497ZM33.2174 59.8497H32.4625C30.3486 59.8497 29.7447 60.2997 29.7447 61.3497C29.7447 62.2497 30.3486 62.8497 31.7075 62.8497C32.7645 62.8497 33.2174 62.3997 33.2174 60.8997V59.8497ZM53.6011 68.2497C52.2422 68.2497 51.4872 67.7997 51.4872 66.8997V66.1497H52.6952C53.6011 66.1497 54.2051 65.8497 54.96 63.8997C53.1481 61.4997 51.1853 56.3997 50.8833 53.6997H52.5442C53.2991 53.6997 54.2051 54.1497 54.3561 54.8997C54.658 56.6997 55.413 59.3997 56.4699 61.1997C57.3759 59.2497 58.4328 55.9497 58.5838 53.6997H60.0937C60.8486 53.6997 61.4526 53.9997 61.4526 54.5997C61.4526 55.9497 60.5467 59.0997 58.8858 62.3997C56.7719 66.7497 55.564 68.2497 53.6011 68.2497ZM69.757 56.0997C69.3041 55.9497 68.7001 55.7997 68.0962 55.7997C66.8882 55.7997 66.2843 56.3997 66.2843 58.0497V64.6497H65.3783C64.0194 64.6497 63.1135 64.0497 63.1135 62.9997V57.8997C63.1135 55.3497 64.4724 53.5497 67.4922 53.5497C69.3041 53.5497 69.908 54.1497 69.908 55.1997L69.757 56.0997ZM75.9476 64.9497C73.0788 64.9497 70.814 63.8997 70.814 61.3497C70.814 59.3997 72.4749 57.8997 76.4006 57.8997H77.3066V57.4497C77.3066 55.9497 76.5516 55.4997 75.0417 55.4997C73.0788 55.4997 72.0219 56.0997 71.4179 56.8497H71.2669V55.7997C71.2669 54.7497 72.4749 53.3997 75.4947 53.3997C78.3635 53.3997 80.3264 54.5997 80.3264 57.8997V60.8997C80.3264 63.4497 78.6655 64.9497 75.9476 64.9497ZM77.3066 59.8497H76.4006C74.4377 59.8497 73.8338 60.2997 73.8338 61.3497C73.8338 62.2497 74.4377 62.8497 75.7967 62.8497C76.8536 62.8497 77.3066 62.3997 77.3066 60.8997V59.8497ZM43.6358 67.9497C41.0689 67.9497 39.257 67.0497 39.257 65.6997V64.6497H39.408C40.163 65.3997 41.6729 65.6997 43.3338 65.6997C44.8437 65.6997 45.9006 65.2497 45.9006 63.4497V61.9497C45.4476 62.8497 44.3907 63.4497 43.1828 63.4497C40.465 63.4497 38.5021 61.6497 38.5021 58.7997C38.5021 55.9497 40.465 53.3997 44.3907 53.3997C46.9575 53.3997 48.7694 54.7497 48.7694 57.7497V61.3497C48.7694 62.0997 48.9204 62.8497 48.9204 63.5997C48.9204 66.1497 46.8066 67.9497 43.6358 67.9497ZM41.6729 58.3497C41.6729 60.2997 42.4278 61.3497 43.7868 61.3497C44.9947 61.3497 45.9006 60.2997 45.9006 58.3497C45.9006 55.9497 45.1457 55.4997 43.7868 55.4997C42.7298 55.4997 41.6729 56.6997 41.6729 58.3497ZM29.7447 42.8997H32.1605C32.4625 42.8997 32.6135 42.8997 32.6135 43.1997C32.6135 43.4997 32.4625 43.4997 32.1605 43.4997H30.1976V47.8497C30.1976 47.9997 30.0467 48.2997 29.7447 48.2997C29.5937 48.2997 29.2917 47.9997 29.2917 47.8497V43.1997C29.2917 43.0497 29.5937 42.8997 29.7447 42.8997ZM33.3684 43.1997C33.3684 42.8997 33.5194 42.7497 33.8214 42.7497C34.1234 42.7497 34.2744 42.8997 34.2744 43.1997V43.4997C34.5764 43.0497 35.0293 42.7497 35.7843 42.7497C37.2942 42.7497 38.0491 44.0997 38.0491 45.4497C38.0491 46.9497 37.2942 48.2997 35.7843 48.2997C35.0293 48.2997 34.4254 47.8497 34.2744 47.5497V49.7997C34.2744 50.0997 34.1234 50.3997 33.8214 50.3997C33.5194 50.3997 33.3684 50.0997 33.3684 49.7997V43.1997ZM35.6333 47.5497C36.6902 47.5497 37.1432 46.3497 37.1432 45.4497C37.1432 44.5497 36.6902 43.4997 35.6333 43.4997C34.5764 43.4997 34.1234 44.5497 34.1234 45.4497C34.1234 46.3497 34.5764 47.5497 35.6333 47.5497ZM42.7298 48.2997C42.4278 48.2997 42.2768 47.9997 42.2768 47.8497V44.3997L39.861 47.9997C39.71 48.1497 39.559 48.2997 39.408 48.2997C39.1061 48.2997 38.9551 47.9997 38.9551 47.8497V43.1997C38.9551 42.8997 39.1061 42.7497 39.408 42.7497C39.559 42.7497 39.861 42.8997 39.861 43.1997V46.6497L42.2768 43.0497C42.4278 42.8997 42.4278 42.7497 42.7298 42.7497C43.0318 42.7497 43.1828 42.8997 43.1828 43.1997V47.8497C43.1828 47.9997 43.0318 48.2997 42.7298 48.2997ZM44.9947 43.6497C45.1457 43.0497 45.9006 42.7497 46.5046 42.7497C48.0145 42.7497 48.9204 44.0997 48.9204 45.4497C48.9204 46.9497 48.0145 48.2997 46.5046 48.2997C45.5986 48.2997 44.8437 47.8497 44.5417 47.0997C44.0887 46.3497 44.0887 45.2997 44.0887 44.6997C44.0887 43.4997 44.3907 42.5997 44.8437 42.1497C45.2967 41.6997 45.7496 41.3997 47.4105 41.2497C47.7125 41.2497 47.7125 40.9497 48.0145 40.9497C48.3165 40.9497 48.4674 41.2497 48.4674 41.3997C48.4674 41.6997 48.1655 41.9997 47.5615 41.9997C46.8066 41.9997 45.9006 42.1497 45.4476 42.4497C44.9947 42.7497 44.9947 43.1997 44.8437 43.6497H44.9947ZM46.5046 43.4997C45.4476 43.4997 44.9947 44.5497 44.9947 45.4497C44.9947 46.3497 45.4476 47.5497 46.5046 47.5497C47.5615 47.5497 48.0145 46.3497 48.0145 45.4497C48.0145 44.5497 47.5615 43.4997 46.5046 43.4997ZM50.5813 47.8497C50.5813 47.9997 50.4303 48.2997 50.1283 48.2997C49.9773 48.2997 49.8264 47.9997 49.8264 47.8497V43.1997C49.8264 42.8997 49.9773 42.7497 50.1283 42.7497C50.4303 42.7497 50.5813 42.8997 50.5813 43.1997V44.9997H53.1481V43.1997C53.1481 42.8997 53.2991 42.7497 53.6011 42.7497C53.9031 42.7497 54.0541 42.8997 54.0541 43.1997V47.8497C54.0541 47.9997 53.9031 48.2997 53.6011 48.2997C53.2991 48.2997 53.1481 47.9997 53.1481 47.8497V45.7497H50.5813V47.8497ZM58.7348 48.2997C58.4328 48.2997 58.2818 47.9997 58.2818 47.8497V47.5497C57.8288 47.9997 57.3759 48.2997 56.7719 48.2997C55.866 48.2997 54.96 47.8497 54.96 46.6497C54.96 44.9997 56.7719 44.8497 58.1308 44.8497H58.2818V44.2497C58.2818 43.7997 57.9798 43.4997 57.3759 43.4997C56.4699 43.4997 56.3189 44.0997 56.0169 44.0997C55.715 44.0997 55.564 43.9497 55.564 43.6497C55.564 43.1997 56.6209 42.7497 57.3759 42.7497C58.5838 42.7497 59.1877 43.3497 59.1877 44.2497V47.8497C59.1877 47.9997 59.0368 48.2997 58.7348 48.2997ZM58.2818 45.5997H58.1308C56.9229 45.5997 55.866 45.5997 55.866 46.6497C55.866 47.2497 56.3189 47.5497 56.9229 47.5497C57.6778 47.5497 58.2818 46.9497 58.2818 46.0497V45.5997ZM63.5665 48.2997C63.2645 48.2997 63.1135 47.9997 63.1135 47.8497V45.7497L60.8486 47.9997C60.6976 48.1497 60.5467 48.2997 60.3957 48.2997C60.2447 48.2997 60.0937 47.9997 60.0937 47.8497V47.5497L61.9056 45.7497H61.6036C60.8486 45.7497 60.0937 45.2997 60.0937 44.2497C60.0937 43.3497 60.9996 42.8997 61.7546 42.8997H63.5665C63.8684 42.8997 64.0194 43.0497 64.0194 43.1997V47.8497C64.0194 47.9997 63.8684 48.2997 63.5665 48.2997ZM63.1135 43.4997H61.9056C61.3016 43.4997 60.9996 43.7997 60.9996 44.2497C60.9996 44.8497 61.3016 45.1497 61.9056 45.1497H63.1135V43.4997Z" fill="white"/>
</svg>
