<svg width="1400" height="820" viewBox="0 0 1400 820" fill="none" xmlns="http://www.w3.org/2000/svg">
  <defs>
    <linearGradient id="bg" x1="0" y1="0" x2="1400" y2="820" gradientUnits="userSpaceOnUse">
      <stop stop-color="#7E0D14"/>
      <stop offset=".54" stop-color="#C91B28"/>
      <stop offset="1" stop-color="#F6B15D"/>
    </linearGradient>
    <linearGradient id="card" x1="227" y1="97" x2="1133" y2="736" gradientUnits="userSpaceOnUse">
      <stop stop-color="#FFF7EF"/>
      <stop offset="1" stop-color="#FFE0D2"/>
    </linearGradient>
    <filter id="shadow" x="-20%" y="-20%" width="140%" height="150%">
      <feDropShadow dx="0" dy="24" stdDeviation="24" flood-color="#4A070A" flood-opacity=".26"/>
    </filter>
  </defs>
  <rect width="1400" height="820" rx="34" fill="url(#bg)"/>
  <circle cx="234" cy="142" r="124" fill="#FFFFFF" opacity=".12"/>
  <circle cx="1198" cy="644" r="164" fill="#FFFFFF" opacity=".12"/>
  <path d="M0 156C146 101 266 108 438 152C631 202 788 227 970 154C1132 89 1259 87 1400 128V0H0V156Z" fill="#FFF7EF" opacity=".12"/>

  <g filter="url(#shadow)">
    <rect x="156" y="104" width="1088" height="612" rx="38" fill="url(#card)"/>
    <rect x="220" y="164" width="410" height="250" rx="28" fill="#FFFFFF"/>
    <rect x="678" y="164" width="410" height="250" rx="28" fill="#FFFFFF"/>
    <rect x="220" y="461" width="868" height="164" rx="28" fill="#FFFFFF"/>
  </g>

  <g filter="url(#shadow)">
    <rect x="281" y="213" width="284" height="152" rx="18" fill="#F4D1D2"/>
    <circle cx="362" cy="292" r="42" fill="#FFF7EF" stroke="#B71922" stroke-width="8"/>
    <circle cx="430" cy="304" r="36" fill="#FBE8E9" stroke="#E86335" stroke-width="8"/>
    <path d="M497 247L532 292L497 337H462L498 292L462 247H497Z" fill="#B71922"/>
  </g>

  <g>
    <rect x="726" y="220" width="312" height="28" rx="14" fill="#B71922"/>
    <rect x="726" y="278" width="250" height="24" rx="12" fill="#E86335" opacity=".8"/>
    <rect x="726" y="330" width="182" height="24" rx="12" fill="#8C0F18" opacity=".34"/>
    <circle cx="1015" cy="329" r="41" fill="#FFF0CE" stroke="#B71922" stroke-width="8"/>
  </g>

  <g>
    <rect x="283" y="510" width="150" height="48" rx="24" fill="#B71922"/>
    <rect x="467" y="510" width="150" height="48" rx="24" fill="#E86335"/>
    <rect x="651" y="510" width="150" height="48" rx="24" fill="#B71922" opacity=".78"/>
    <rect x="835" y="510" width="150" height="48" rx="24" fill="#8C0F18" opacity=".72"/>
    <path d="M315 599H969" stroke="#B71922" stroke-width="12" stroke-linecap="round" opacity=".2"/>
    <circle cx="315" cy="599" r="22" fill="#B71922"/>
    <circle cx="532" cy="599" r="22" fill="#E86335"/>
    <circle cx="751" cy="599" r="22" fill="#B71922"/>
    <circle cx="969" cy="599" r="22" fill="#8C0F18"/>
  </g>

  <g opacity=".92">
    <path d="M1133 243C1143 221 1165 221 1175 243C1198 235 1214 253 1204 274C1224 289 1216 314 1192 317C1185 340 1158 340 1151 317C1127 314 1119 289 1139 274C1129 253 1145 235 1168 243" fill="#FFFFFF"/>
    <circle cx="1168" cy="280" r="12" fill="#F4C14D"/>
    <path d="M160 575C170 553 192 553 202 575C225 567 241 585 231 606C251 621 243 646 219 649C212 672 185 672 178 649C154 646 146 621 166 606C156 585 172 567 195 575" fill="#FFFFFF"/>
    <circle cx="195" cy="612" r="12" fill="#F4C14D"/>
  </g>
</svg>
