<svg width="1600" height="900" viewBox="0 0 1600 900" fill="none" xmlns="http://www.w3.org/2000/svg">
  <defs>
    <linearGradient id="bg" x1="0" y1="0" x2="1600" y2="900" gradientUnits="userSpaceOnUse">
      <stop stop-color="#FFF8EF"/>
      <stop offset=".55" stop-color="#F8D8D4"/>
      <stop offset="1" stop-color="#B71922"/>
    </linearGradient>
    <linearGradient id="ribbon" x1="235" y1="104" x2="1082" y2="720" gradientUnits="userSpaceOnUse">
      <stop stop-color="#8C0F18"/>
      <stop offset=".46" stop-color="#D72835"/>
      <stop offset="1" stop-color="#F5A44E"/>
    </linearGradient>
    <linearGradient id="tea" x1="950" y1="321" x2="1168" y2="664" gradientUnits="userSpaceOnUse">
      <stop stop-color="#FFF8F0" stop-opacity=".82"/>
      <stop offset=".48" stop-color="#E8B778" stop-opacity=".5"/>
      <stop offset="1" stop-color="#9C2C22" stop-opacity=".58"/>
    </linearGradient>
    <radialGradient id="glow" cx="0" cy="0" r="1" gradientUnits="userSpaceOnUse" gradientTransform="translate(1009 467) rotate(90) scale(394 536)">
      <stop stop-color="#FFFFFF" stop-opacity=".92"/>
      <stop offset=".58" stop-color="#FFF8EF" stop-opacity=".22"/>
      <stop offset="1" stop-color="#FFF8EF" stop-opacity="0"/>
    </radialGradient>
    <filter id="shadow" x="-20%" y="-20%" width="140%" height="150%" color-interpolation-filters="sRGB">
      <feDropShadow dx="0" dy="28" stdDeviation="28" flood-color="#6B080E" flood-opacity=".22"/>
    </filter>
    <filter id="soft" x="-20%" y="-20%" width="140%" height="140%" color-interpolation-filters="sRGB">
      <feGaussianBlur stdDeviation="18"/>
    </filter>
  </defs>

  <rect width="1600" height="900" rx="42" fill="url(#bg)"/>
  <circle cx="1010" cy="468" r="520" fill="url(#glow)"/>
  <path d="M132 0H511L336 193H0L132 0Z" fill="url(#ribbon)" opacity=".95"/>
  <path d="M501 0H804L616 210H326L501 0Z" fill="#8C0F18" opacity=".78"/>
  <path d="M0 729C186 671 311 670 483 714C676 763 839 801 1024 730C1238 648 1368 640 1600 709V900H0V729Z" fill="#6F0C12" opacity=".13"/>

  <g opacity=".34" filter="url(#soft)">
    <circle cx="1320" cy="135" r="92" fill="#FFFFFF"/>
    <circle cx="111" cy="630" r="84" fill="#FFFFFF"/>
    <circle cx="1470" cy="583" r="110" fill="#FFFFFF"/>
  </g>

  <g filter="url(#shadow)">
    <ellipse cx="1016" cy="696" rx="438" ry="46" fill="#761015" opacity=".18"/>
    <rect x="794" y="319" width="392" height="346" rx="174" fill="url(#tea)" stroke="#FFFFFF" stroke-width="16"/>
    <ellipse cx="990" cy="326" rx="185" ry="42" fill="#FFF9F0" stroke="#FFFFFF" stroke-width="13"/>
    <ellipse cx="990" cy="330" rx="141" ry="24" fill="#B73B2F" opacity=".28"/>
    <path d="M1164 404C1249 406 1300 455 1295 525C1290 598 1219 636 1161 607" stroke="#FFF9F0" stroke-width="33" stroke-linecap="round"/>
    <path d="M1167 447C1220 452 1247 481 1245 523C1243 564 1206 588 1165 573" stroke="#B61C25" stroke-width="14" stroke-linecap="round" opacity=".24"/>
    <path d="M870 286C922 225 1024 211 1096 274" stroke="#FFF9F0" stroke-width="12" stroke-linecap="round" opacity=".76"/>
  </g>

  <g filter="url(#shadow)">
    <rect x="420" y="575" width="315" height="96" rx="18" fill="#FFF7EF"/>
    <rect x="445" y="552" width="270" height="54" rx="12" fill="#C41623"/>
    <path d="M445 552H715L676 512H484L445 552Z" fill="#E86335"/>
    <rect x="472" y="588" width="210" height="42" rx="21" fill="#F4D3BC"/>
    <circle cx="532" cy="604" r="38" fill="#F9F1E7" stroke="#9B1D20" stroke-width="8"/>
    <circle cx="602" cy="609" r="31" fill="#F9F1E7" stroke="#B71922" stroke-width="7"/>
    <circle cx="662" cy="604" r="39" fill="#F9F1E7" stroke="#8C0F18" stroke-width="8"/>
  </g>

  <g>
    <circle cx="304" cy="455" r="36" fill="#FFE9EC" stroke="#B71922" stroke-width="8"/>
    <circle cx="356" cy="488" r="30" fill="#FFF7EF" stroke="#E86335" stroke-width="7"/>
    <circle cx="261" cy="517" r="27" fill="#F8C4C8" stroke="#B71922" stroke-width="7"/>
    <rect x="240" y="560" width="190" height="12" rx="6" fill="#B71922"/>
    <circle cx="1355" cy="395" r="34" fill="#FFF7EF" stroke="#E86335" stroke-width="8"/>
    <circle cx="1410" cy="427" r="25" fill="#F8C4C8" stroke="#B71922" stroke-width="7"/>
    <circle cx="1330" cy="455" r="22" fill="#FFE9EC" stroke="#B71922" stroke-width="6"/>
    <rect x="1304" y="494" width="155" height="10" rx="5" fill="#8C0F18"/>
  </g>

  <g opacity=".9">
    <path d="M248 260C258 238 279 238 289 260C312 252 328 269 318 290C337 305 330 329 306 332C299 354 273 354 266 332C242 329 235 305 254 290C244 269 260 252 283 260" fill="#FFFFFF"/>
    <circle cx="283" cy="296" r="12" fill="#F6C74D"/>
    <path d="M1390 198C1400 176 1421 176 1431 198C1454 190 1470 207 1460 228C1479 243 1472 267 1448 270C1441 292 1415 292 1408 270C1384 267 1377 243 1396 228C1386 207 1402 190 1425 198" fill="#FFFFFF"/>
    <circle cx="1425" cy="234" r="12" fill="#F6C74D"/>
    <path d="M1250 705C1260 683 1281 683 1291 705C1314 697 1330 714 1320 735C1339 750 1332 774 1308 777C1301 799 1275 799 1268 777C1244 774 1237 750 1256 735C1246 714 1262 697 1285 705" fill="#FFFFFF"/>
    <circle cx="1285" cy="741" r="12" fill="#F6C74D"/>
  </g>

  <g transform="translate(120 226)">
    <rect x="0" y="0" width="520" height="296" rx="28" fill="#FFF7EF" opacity=".82"/>
    <path d="M46 67H344" stroke="#B71922" stroke-width="18" stroke-linecap="round"/>
    <path d="M46 122H272" stroke="#8C0F18" stroke-width="18" stroke-linecap="round" opacity=".42"/>
    <path d="M46 178H400" stroke="#D72835" stroke-width="18" stroke-linecap="round" opacity=".22"/>
    <path d="M46 232H235" stroke="#E86335" stroke-width="18" stroke-linecap="round" opacity=".32"/>
  </g>
</svg>
