<svg width="1400" height="820" viewBox="0 0 1400 820" fill="none" xmlns="http://www.w3.org/2000/svg">
  <defs>
    <linearGradient id="bg" x1="0" y1="0" x2="1400" y2="820" gradientUnits="userSpaceOnUse">
      <stop stop-color="#FFF7F0"/>
      <stop offset=".52" stop-color="#F7D7D7"/>
      <stop offset="1" stop-color="#FFE8C8"/>
    </linearGradient>
    <filter id="shadow" x="-20%" y="-20%" width="140%" height="150%">
      <feDropShadow dx="0" dy="22" stdDeviation="22" flood-color="#7A0C11" flood-opacity=".18"/>
    </filter>
  </defs>
  <rect width="1400" height="820" rx="34" fill="url(#bg)"/>
  <path d="M0 582C172 514 320 538 496 586C681 637 839 666 1021 592C1169 532 1272 528 1400 562V820H0V582Z" fill="#B71922" opacity=".1"/>
  <path d="M115 0H395L272 145H0L115 0Z" fill="#B71922" opacity=".94"/>
  <path d="M393 0H596L460 154H263L393 0Z" fill="#E86335" opacity=".82"/>

  <g filter="url(#shadow)">
    <rect x="191" y="169" width="1018" height="472" rx="38" fill="#FFFDF8"/>
    <rect x="245" y="220" width="274" height="174" rx="24" fill="#FBE5E6"/>
    <rect x="563" y="220" width="274" height="174" rx="24" fill="#FFF0CE"/>
    <rect x="881" y="220" width="274" height="174" rx="24" fill="#FBE5E6"/>
    <rect x="245" y="436" width="274" height="154" rx="24" fill="#FFF0CE"/>
    <rect x="563" y="436" width="274" height="154" rx="24" fill="#FBE5E6"/>
    <rect x="881" y="436" width="274" height="154" rx="24" fill="#FFF0CE"/>
  </g>

  <g filter="url(#shadow)">
    <ellipse cx="701" cy="392" rx="210" ry="42" fill="#D9A97B" opacity=".18"/>
    <rect x="524" y="250" width="305" height="285" rx="142" fill="#FFFFFF" stroke="#F4D7C9" stroke-width="14"/>
    <ellipse cx="676" cy="250" rx="136" ry="30" fill="#FFF7F0" stroke="#F4D7C9" stroke-width="10"/>
    <ellipse cx="676" cy="253" rx="102" ry="16" fill="#AD3B2B" opacity=".24"/>
    <path d="M810 319C884 320 929 362 925 421C921 482 860 515 811 491" stroke="#FFF7F0" stroke-width="28" stroke-linecap="round"/>
    <path d="M613 220C651 171 727 164 775 215" stroke="#FFFFFF" stroke-width="10" stroke-linecap="round"/>
  </g>

  <g>
    <circle cx="362" cy="313" r="43" fill="#FFF7F0" stroke="#B71922" stroke-width="9"/>
    <circle cx="420" cy="343" r="32" fill="#F9D8D9" stroke="#E86335" stroke-width="8"/>
    <rect x="311" y="390" width="170" height="13" rx="7" fill="#B71922"/>
    <circle cx="1010" cy="314" r="38" fill="#FFF7F0" stroke="#B71922" stroke-width="9"/>
    <circle cx="1066" cy="344" r="31" fill="#F9D8D9" stroke="#E86335" stroke-width="8"/>
    <rect x="963" y="390" width="170" height="13" rx="7" fill="#B71922"/>
    <circle cx="380" cy="514" r="31" fill="#FFF7F0" stroke="#E86335" stroke-width="8"/>
    <circle cx="1034" cy="510" r="31" fill="#FFF7F0" stroke="#E86335" stroke-width="8"/>
  </g>

  <g opacity=".86">
    <path d="M302 666C313 642 337 642 348 666C374 657 392 677 380 701C402 718 394 745 366 748C358 773 329 773 321 748C293 745 285 718 307 701C295 677 313 657 339 666" fill="#FFFFFF"/>
    <circle cx="339" cy="707" r="13" fill="#F4C14D"/>
    <path d="M1040 665C1051 641 1075 641 1086 665C1112 656 1130 676 1118 700C1140 717 1132 744 1104 747C1096 772 1067 772 1059 747C1031 744 1023 717 1045 700C1033 676 1051 656 1077 665" fill="#FFFFFF"/>
    <circle cx="1077" cy="706" r="13" fill="#F4C14D"/>
  </g>

  <g>
    <rect x="124" y="676" width="304" height="44" rx="22" fill="#B71922" opacity=".88"/>
    <rect x="485" y="676" width="430" height="44" rx="22" fill="#E86335" opacity=".78"/>
    <rect x="972" y="676" width="304" height="44" rx="22" fill="#8C0F18" opacity=".82"/>
  </g>
</svg>
