<svg width="180" height="62" viewBox="0 0 180 62" fill="none" xmlns="http://www.w3.org/2000/svg">
<g clip-path="url(#clip0_4031_3040)">
<path fill-rule="evenodd" clip-rule="evenodd" d="M21.9289 0.271853C19.8205 0.669488 16.0985 2.32511 13.914 3.83708C9.76756 6.70729 8.90762 9.91826 11.3696 13.3374C12.1601 14.4354 12.8068 15.5078 12.8068 15.7213C12.8068 15.9344 11.2196 17.2188 9.27987 18.5752C3.98081 22.2816 0.637818 26.9256 0.07155 31.3666C-0.128225 32.9349 0.0705912 33.9177 0.919036 35.5497C2.53688 38.6628 4.4345 39.5313 9.21376 39.3467C14.828 39.1297 19.0526 36.9942 24.6974 31.5197C27.0382 29.2492 29.0935 27.3917 29.264 27.3917C29.4346 27.3917 29.5745 27.7092 29.5745 28.0976C29.5745 28.4857 29.9917 29.0284 30.5015 29.3027C31.6154 29.9028 33.3037 29.3529 35.9309 27.5342C36.924 26.847 37.8352 26.3842 37.9569 26.5062C38.078 26.6287 37.5895 28.4231 36.8703 30.4946C35.6257 34.0791 35.3784 34.4165 31.7304 37.5022C23.7288 44.2692 19.1962 50.2337 18.2635 55.2228C17.3249 60.244 20.9421 61.6067 25.2839 57.8673C28.3658 55.2135 30.5359 51.433 33.6792 43.2445L36.5212 35.8394L40.8222 31.5829C43.1874 29.2425 45.201 27.5623 45.2964 27.8501C46.0236 30.0445 49.0476 30.4132 51.4151 28.5966C52.2788 27.9339 53.2101 27.3917 53.4851 27.3917C53.7602 27.3917 54.3384 27.9339 54.7701 28.5966C55.6037 29.8768 56.8338 30.1191 58.3506 29.3027C58.8603 29.0279 59.2772 28.8974 59.2772 29.0115C59.2772 29.1258 58.5154 30.8326 57.5851 32.8042C55.9453 36.279 55.7891 37.9953 57.1141 37.9953C58.1264 37.9953 58.6175 37.0476 60.9224 30.645C64.7108 20.1189 67.2193 15.2895 68.129 16.7697C68.3015 17.0506 68.084 18.9028 67.6451 20.8863C66.6483 25.3942 66.5098 29.0752 67.307 29.8781C68.3356 30.9149 69.8873 28.7773 71.9727 23.4499C74.7882 16.2578 75.9265 16.5725 74.348 24.1068C73.545 27.9392 73.6926 29.5301 74.8941 29.9938C75.9677 30.4084 79.0793 29.4969 80.4308 28.3724L81.5541 27.4373L79.7615 27.718C76.7606 28.1873 76.4511 27.5689 76.8195 21.8402C77.1596 16.5465 76.8838 14.3781 75.8705 14.3781C74.7556 14.3781 73.6916 16.0298 71.8299 20.651C68.9982 27.6813 68.2014 26.9506 69.5658 18.5747C70.3213 13.9375 69.9634 11.6235 68.5732 12.16C68.1601 12.3195 67.7496 12.4501 67.6609 12.4501C67.2625 12.4501 65.0836 16.4862 63.0019 21.0796C60.4283 26.7582 59.6063 27.8737 57.9951 27.8737C56.1291 27.8737 55.5342 25.8676 56.5862 23.126C58.2381 18.8205 58.5596 17.3191 57.9587 16.7148C57.0916 15.8423 56.1776 16.9008 54.9531 20.1952C54.3615 21.7871 53.2485 23.9627 52.4805 25.0294C51.3567 26.5911 50.8321 26.9394 49.7909 26.819C47.7866 26.5863 47.7339 24.0428 49.6775 21.32C51.1668 19.2341 52.57 16.3248 52.57 15.3242C52.57 15.0321 52.0848 14.8624 51.4923 14.9468C50.1748 15.1353 47.6399 18.8041 46.4628 22.2262C45.8569 23.9884 44.6051 25.7486 41.9581 28.5594C39.9421 30.7005 38.1725 32.3343 38.0249 32.1903C37.8773 32.046 38.5806 29.6603 39.5876 26.8884C41.9596 20.3595 42.7855 16.8729 42.1196 16.2028C41.1523 15.2297 40.1141 16.1942 40.1141 18.0667C40.1141 20.3523 38.5327 23.6486 36.6863 25.2116C34.4567 27.0991 31.9699 26.7067 31.9699 24.4665C31.9699 24.2269 33.6156 22.1694 35.6266 19.8953C39.4852 15.5324 39.7218 14.5145 36.6806 15.3594C34.6536 15.9223 31.5128 19.1444 30.5892 21.6078C29.2846 25.0888 28.7897 25.7982 25.0184 29.6006C18.5486 36.1236 11.5143 38.6874 7.53699 35.9718C4.05364 33.5938 4.04022 29.0372 7.50154 23.6494C10.5758 18.8643 14.0783 16.586 20.5919 15.1353C22.019 14.8171 22.306 13.8633 21.2414 12.9745C20.7278 12.546 20.1736 12.6092 18.8422 13.2478C17.1722 14.0489 17.0639 14.044 15.7972 13.1047C13.7568 11.5922 12.4978 8.94562 13.0612 7.35411C13.7156 5.50619 16.6787 3.25581 19.3583 2.57139C23.2057 1.58862 24.364 2.56176 22.3745 5.10663C21.6923 5.97902 21.5533 6.501 21.9088 6.85863C23.0168 7.97346 26.2209 4.23471 26.2209 1.82673C26.2209 0.0400187 25.1732 -0.339784 21.9289 0.271853ZM110.443 1.88746C104.827 2.1699 103.352 2.63551 103.352 4.12676C103.352 4.67141 103.667 4.75911 104.67 4.49306C108.153 3.56717 108.291 4.18701 105.51 8.27277C102.699 12.4039 98.4814 20.4313 95.8723 26.6176C94.7423 29.2964 93.43 31.7478 92.9557 32.0645C92.4819 32.3816 90.7252 32.8612 89.0517 33.1302C87.3789 33.3991 85.7246 33.8573 85.3758 34.1486C84.4651 34.9091 80.3566 44.9623 80.3566 46.4304C80.3566 47.8769 81.5925 48.5405 82.4989 47.5804C82.8463 47.2127 83.493 45.0684 83.9361 42.8152C84.3798 40.5619 85.0677 38.3553 85.4653 37.9113C86.7306 36.4992 96.0731 35.4731 113.68 34.8123C124.063 34.4228 124.707 34.5977 124.227 37.6795C124.056 38.7809 123.277 41.062 122.497 42.7486C121.717 44.4355 121.078 46.1031 121.078 46.4556C121.078 47.3119 121.706 47.656 122.437 47.2016C123.233 46.7066 127.785 35.446 127.785 33.9727C127.785 32.4341 126.699 31.6008 124.27 31.2745L122.276 31.0064L122.122 28.3555C121.924 24.9493 122.693 18.3192 124.281 9.74235C124.974 5.99926 125.399 2.56609 125.226 2.11254C124.888 1.22569 123.901 1.21076 110.443 1.88746ZM113.448 3.84335C112.483 4.1282 110.704 5.47005 109.136 7.09578C104.299 12.1089 96.992 25.8338 96.9182 30.0426L96.8846 31.9704L99.28 31.943C106.348 31.8619 117.29 31.0464 117.653 30.5737C118.166 29.9047 121.225 6.28315 121.002 4.70224C120.851 3.62502 120.613 3.52669 117.964 3.4462C116.383 3.398 114.351 3.57682 113.448 3.84335ZM149.064 16.2231C146.429 19.1766 142.077 20.6024 140.72 18.9569C140.392 18.5593 139.827 18.234 139.464 18.234C139.101 18.234 138.804 18.0407 138.804 17.804C138.804 16.9962 136.418 16.7711 134.855 17.4314C131.525 18.8394 128.74 23.2528 128.745 27.1158C128.746 27.9305 129.174 29.3017 129.696 30.163C130.511 31.5077 130.915 31.7295 132.552 31.7295C133.994 31.7295 134.864 31.3714 136.12 30.2618C137.819 28.7614 140.241 24.4911 140.241 22.9963C140.241 22.458 140.875 21.9625 142.037 21.5924C143.026 21.2776 144.562 20.6014 145.451 20.0896C146.341 19.5777 147.142 19.2326 147.232 19.3222C147.321 19.4124 145.057 24.2471 142.2 30.0662C138.259 38.0917 137.111 40.85 137.442 41.4896C137.683 41.9538 138.162 42.3332 138.507 42.3332C139.654 42.3332 140.544 40.6909 141.885 36.0991C143.364 31.0334 146.073 24.5281 148.205 20.921C150.981 16.2241 151.564 18.0407 149.589 25.226C148.227 30.1803 148.142 31.2109 149 32.3912C150.131 33.9475 151.81 31.9025 153.849 26.4855C155.577 21.8956 156.659 20.1315 157.332 20.8083C157.496 20.9741 157.311 23.0692 156.921 25.4647C155.859 31.9773 156.946 33.4068 161.159 31.0374C163.363 29.7986 163.383 29.7967 164.053 30.7597C164.97 32.0765 166.572 31.9781 168.78 30.47L170.625 29.2102L172.569 30.2777C174.27 31.2128 174.753 31.2798 176.462 30.8167C177.536 30.5254 178.827 29.8242 179.329 29.2574C180.231 28.2414 180.231 28.2313 179.286 28.5098C176.641 29.2882 175.873 29.3181 175 28.6767C174.143 28.0443 174.105 27.6904 174.522 24.1585C174.77 22.0508 174.902 19.9522 174.815 19.4944C174.5 17.8624 173.533 19.0789 173.179 21.5495C172.711 24.8236 171.695 26.7314 169.8 27.8928C168.957 28.4106 168.121 28.8346 167.942 28.8356C167.084 28.8404 166.111 27.1506 166.111 25.6546C166.111 22.3578 168.016 19.5045 170.699 18.7824C172.536 18.2884 172.78 17.2695 171.061 17.2719C167.734 17.2762 164.519 20.9866 163.617 25.8627C163.113 28.595 162.952 28.8573 161.486 29.3441C158.924 30.1949 158.755 29.8039 159.111 23.8173C159.375 19.3795 159.303 18.2893 158.694 17.5003C157.973 16.5672 157.929 16.5798 156.645 18.0913C155.923 18.9405 154.598 21.3823 153.7 23.517C150.98 29.9861 149.618 30.1466 151.197 23.811C152.401 18.9781 152.516 15.7088 151.509 14.8682C150.924 14.379 150.5 14.6137 149.064 16.2231ZM134.433 19.3421C132.274 20.9956 130.991 25.1885 131.908 27.5931C132.719 29.7166 136.486 27.6427 138.294 24.0784C139.216 22.2609 139.215 22.2459 138.247 21.4116C137.653 20.8998 137.367 20.2115 137.515 19.6442C137.709 18.8975 137.507 18.7187 136.483 18.7314C135.783 18.7394 134.861 19.0148 134.433 19.3421ZM28.0443 43.6933C23.2224 48.7145 20.9512 52.0999 20.9512 54.2656C20.9512 57.5198 25.4224 55.2228 28.4448 50.4154C29.4001 48.8959 33.8862 39.2008 33.8862 38.656C33.8862 37.8824 32.3651 39.1939 28.0443 43.6933Z" fill="#777777"/>
</g>
<defs>
<clipPath id="clip0_4031_3040">
<rect width="180" height="61.5" fill="white"/>
</clipPath>
</defs>
</svg>
