<svg width="150" height="38" viewBox="0 0 150 38" fill="none" xmlns="http://www.w3.org/2000/svg">
<path d="M18.8818 14.1751C23.045 11.8389 27.5446 9.97774 32.1283 8.43343C36.7119 6.92866 41.4638 5.70112 46.2158 4.79039C51.0098 3.84003 55.8457 3.20645 60.6817 2.73128C65.5598 2.2957 70.4376 2.0977 75.3158 2.05811C80.194 2.0977 85.0717 2.2957 89.9499 2.73128C94.7859 3.20645 99.664 3.84003 104.416 4.79039C109.21 5.70112 113.92 6.9287 118.503 8.47301C123.087 10.0173 127.587 11.8785 131.75 14.2543C127.376 12.2348 122.835 10.6113 118.209 9.30457C113.583 7.99781 108.873 6.96829 104.122 6.17632C99.3698 5.38435 94.5757 4.79039 89.7817 4.43399C84.9876 4.03801 80.1517 3.84003 75.3158 3.84003C70.4799 3.84003 65.644 4.03801 60.8499 4.3944C56.0558 4.75076 51.2618 5.34476 46.4681 6.13673C41.7162 6.92866 37.0063 7.95823 32.3806 9.26498C27.7969 10.5717 23.2553 12.1556 18.8818 14.1751Z" fill="#777777"/>
<path fill-rule="evenodd" clip-rule="evenodd" d="M62.6995 3.88063C62.6995 6.0189 60.8491 7.76123 58.5785 7.76123C56.3074 7.76123 54.457 6.0189 54.457 3.88063C54.457 1.74232 56.3074 0 58.5785 0C60.8491 0 62.6995 1.74232 62.6995 3.88063Z" fill="#777777"/>
<path fill-rule="evenodd" clip-rule="evenodd" d="M56.3494 24.9071H44.3646V27.9165L45.8785 27.9562C48.7381 28.0749 49.6212 30.2132 48.5698 32.0744C48.0232 33.0643 46.9299 33.8563 44.8694 34.0543C42.6825 34.2523 40.8744 33.3811 39.4446 31.9951C37.7205 30.332 36.9215 27.9562 37.0897 24.9071C37.2158 22.6896 37.8466 21.1057 38.94 20.1157C39.781 19.3237 41.1687 18.7694 43.0613 18.4922C43.4815 18.4526 43.944 18.413 44.4488 18.413C46.8458 18.413 49.5793 18.7298 52.5649 20.1949V16.1559C52.0601 15.8391 51.1769 15.5619 49.9154 15.3244C48.2337 14.968 46.4674 14.8096 44.5329 14.8096C42.0098 14.8096 39.6969 15.0868 37.5943 15.6807C34.3142 16.6311 31.8752 18.1358 30.2773 20.1949C28.9736 21.9372 28.3008 23.9171 28.3008 26.1346C28.3008 27.9957 28.7213 29.6985 29.5623 31.2032C31.7491 35.1234 36.8374 38.2516 44.743 37.3409C58.1579 35.7966 56.3494 24.9071 56.3494 24.9071Z" fill="#777777"/>
<path fill-rule="evenodd" clip-rule="evenodd" d="M103.197 26.0545L97.8138 15.561H87.2588V36.7064H91.6745V20.9068L99.7483 36.7064H102.355C105.425 30.7271 110.472 20.9068 110.472 20.9068V36.7064H119.428V15.561H109.042L103.197 26.0545Z" fill="#777777"/>
<path fill-rule="evenodd" clip-rule="evenodd" d="M150 36.7064L140.454 15.561H131.539C129.941 19.3625 121.657 36.7064 121.657 36.7064H126.157L128.68 31.0043H137.763L140.076 36.6668V36.7064H150ZM130.152 27.7176L133.431 20.2732L136.417 27.7176H130.152Z" fill="#777777"/>
<path fill-rule="evenodd" clip-rule="evenodd" d="M84.7772 36.7064L75.1895 15.561H66.2745C64.6764 19.3625 56.3921 36.7064 56.3921 36.7064H60.8915L63.4149 31.0043H72.4979L74.8108 36.6668V36.7064H84.7772ZM64.9288 27.7176L68.2086 20.2732L71.1945 27.7176H64.9288Z" fill="#777777"/>
<path fill-rule="evenodd" clip-rule="evenodd" d="M28.3431 36.7064L18.7973 15.561H9.88227C8.28429 19.3625 0 36.7064 0 36.7064H4.49956L7.0227 31.0043H16.106L18.4188 36.6668V36.7064H28.3431ZM8.49453 27.7176L11.7746 20.2732L14.8024 27.7176H8.49453Z" fill="#777777"/>
</svg>
