<svg width="100" height="25" viewBox="0 0 100 25" fill="none" xmlns="http://www.w3.org/2000/svg">
<path d="M12.5879 9.4501C15.3633 7.89258 18.3631 6.65183 21.4189 5.62228C24.4746 4.61911 27.6426 3.80075 30.8105 3.19359C34.0065 2.56002 37.2305 2.13764 40.4544 1.82085C43.7066 1.53046 46.9584 1.39847 50.2105 1.37207C53.4627 1.39847 56.7145 1.53046 59.9666 1.82085C63.1906 2.13764 66.4427 2.56002 69.6106 3.19359C72.8066 3.80075 75.9466 4.61913 79.0022 5.64868C82.0579 6.67822 85.0578 7.91897 87.8331 9.50288C84.9174 8.15657 81.8899 7.07422 78.8061 6.20305C75.7222 5.33188 72.5823 4.64552 69.4144 4.11754C66.2465 3.58956 63.0505 3.19359 59.8545 2.95599C56.6584 2.692 53.4345 2.56002 50.2105 2.56002C46.9866 2.56002 43.7626 2.692 40.5666 2.9296C37.3706 3.16717 34.1745 3.56317 30.9788 4.09115C27.8108 4.61911 24.6709 5.30549 21.5871 6.17665C18.5313 7.0478 15.5035 8.10376 12.5879 9.4501Z" fill="#777777"/>
<path fill-rule="evenodd" clip-rule="evenodd" d="M41.7997 2.58709C41.7997 4.0126 40.5661 5.17415 39.0523 5.17415C37.5383 5.17415 36.3047 4.0126 36.3047 2.58709C36.3047 1.16155 37.5383 0 39.0523 0C40.5661 0 41.7997 1.16155 41.7997 2.58709Z" fill="#777777"/>
<path fill-rule="evenodd" clip-rule="evenodd" d="M37.5662 16.6047H29.5764V18.611L30.5857 18.6374C32.492 18.7166 33.0808 20.1422 32.3799 21.3829C32.0155 22.0429 31.2866 22.5708 29.9129 22.7029C28.455 22.8348 27.2496 22.2541 26.2964 21.3301C25.147 20.2214 24.6143 18.6374 24.7265 16.6047C24.8106 15.1264 25.2311 14.0704 25.96 13.4105C26.5207 12.8825 27.4458 12.5129 28.7075 12.3281C28.9877 12.3017 29.296 12.2753 29.6325 12.2753C31.2305 12.2753 33.0529 12.4865 35.0432 13.4633V10.7706C34.7067 10.5594 34.118 10.3746 33.277 10.2162C32.1558 9.97864 30.9783 9.87305 29.6886 9.87305C28.0065 9.87305 26.4646 10.0578 25.0629 10.4538C22.8762 11.0874 21.2502 12.0905 20.1848 13.4633C19.3157 14.6248 18.8672 15.9448 18.8672 17.4231C18.8672 18.6638 19.1475 19.799 19.7082 20.8021C21.1661 23.4156 24.5583 25.5011 29.8287 24.8939C38.772 23.8644 37.5662 16.6047 37.5662 16.6047Z" fill="#777777"/>
<path fill-rule="evenodd" clip-rule="evenodd" d="M68.7976 17.3697L65.209 10.374H58.1724V24.4709H61.1162V13.9378L66.4987 24.4709H68.2368C70.2835 20.4847 73.6475 13.9378 73.6475 13.9378V24.4709H79.6188V10.374H72.6943L68.7976 17.3697Z" fill="#777777"/>
<path fill-rule="evenodd" clip-rule="evenodd" d="M100 24.4709L93.6361 10.374H87.6927C86.6274 12.9083 81.1045 24.4709 81.1045 24.4709H84.1044L85.7864 20.6695H91.8419L93.3839 24.4446V24.4709H100ZM86.7677 18.4784L88.9542 13.5155L90.9449 18.4784H86.7677Z" fill="#777777"/>
<path fill-rule="evenodd" clip-rule="evenodd" d="M56.5182 24.4709L50.1264 10.374H44.183C43.1176 12.9083 37.5947 24.4709 37.5947 24.4709H40.5943L42.2766 20.6695H48.3319L49.8738 24.4446V24.4709H56.5182ZM43.2859 18.4784L45.4724 13.5155L47.463 18.4784H43.2859Z" fill="#777777"/>
<path fill-rule="evenodd" clip-rule="evenodd" d="M18.8954 24.4709L12.5315 10.374H6.58818C5.52286 12.9083 0 24.4709 0 24.4709H2.99971L4.6818 20.6695H10.7373L12.2792 24.4446V24.4709H18.8954ZM5.66302 18.4784L7.84974 13.5155L9.86824 18.4784H5.66302Z" fill="#777777"/>
</svg>
