<svg width="70" height="20" viewBox="0 0 70 20" fill="none" xmlns="http://www.w3.org/2000/svg">
<g clip-path="url(#clip0_4030_1982)">
<path d="M21.045 3.58854C21.1507 3.58854 21.2563 3.57746 21.3592 3.55808C21.4621 3.5387 21.8986 3.45286 22.0126 3.42517C22.7689 3.23411 23.3305 2.55296 23.3305 1.73889C23.3305 0.77807 22.5492 0 21.5817 0C21.4899 0 21.3954 0.0083068 21.3064 0.0221515C21.1924 0.041534 20.7753 0.127371 20.678 0.146753C19.8884 0.315658 19.2961 1.01066 19.2961 1.84688C19.2961 2.8077 20.0774 3.58854 21.0423 3.58854H21.045Z" fill="#777777"/>
<path d="M51.4656 3.58854C51.574 3.58854 51.6769 3.57746 51.7798 3.55808C51.8827 3.5387 52.3192 3.45286 52.4332 3.42517C53.1894 3.23411 53.7511 2.55296 53.7511 1.73889C53.7511 0.77807 52.9698 0 52.005 0C51.9105 0 51.8187 0.0083068 51.7269 0.0221515C51.6102 0.041534 51.1959 0.127371 51.1014 0.146753C50.3117 0.315658 49.7195 1.01066 49.7195 1.84688C49.7195 2.8077 50.5008 3.58854 51.4656 3.58854Z" fill="#777777"/>
<path d="M32.5088 5.05566C28.3382 5.05566 25.4604 8.54729 25.4604 12.529C25.4604 16.5107 28.3382 19.9996 32.5088 19.9996C36.6795 19.9996 39.5572 16.5107 39.5572 12.529C39.5572 8.54729 36.6822 5.05566 32.5088 5.05566ZM32.5088 19.7365C29.6672 19.7365 29.1751 15.525 29.1751 12.529C29.1751 9.53303 29.6672 5.32148 32.5088 5.32148C35.3504 5.32148 35.8425 9.53303 35.8425 12.529C35.8425 15.525 35.3504 19.7365 32.5088 19.7365Z" fill="#777777"/>
<path d="M62.9488 5.05566C58.7781 5.05566 55.9004 8.54729 55.9004 12.529C55.9004 16.5107 58.7781 19.9996 62.9488 19.9996C67.1194 19.9996 69.9971 16.5107 69.9971 12.529C69.9971 8.54729 67.1194 5.05566 62.9488 5.05566ZM62.9488 19.7365C60.1072 19.7365 59.615 15.525 59.615 12.529C59.615 9.53303 60.1072 5.32148 62.9488 5.32148C65.7904 5.32148 66.2825 9.53303 66.2825 12.529C66.2825 15.525 65.7904 19.7365 62.9488 19.7365Z" fill="#777777"/>
<path d="M11.0383 9.89922V9.83277C13.8966 9.13223 15.9791 7.76438 15.9791 4.94837C15.9791 2.13237 13.9522 0.274414 8.98082 0.274414H0.00561523V0.606686H1.96025V19.3274H0.00561523V19.6597H7.99933C14.8614 19.6597 16.7688 17.2064 16.7688 14.4513C16.7688 11.6963 14.5305 9.97398 11.0383 9.89922ZM7.99933 0.606686C11.4387 0.606686 11.7501 3.74942 11.7501 4.99268C11.7501 6.23593 11.7724 9.73586 8.38581 9.73586H6.02801V0.606686H7.99655H7.99933ZM7.99933 19.3274H6.03079V10.0764C6.70644 10.0737 7.70183 10.0681 8.7278 10.0681C11.4693 10.0681 12.5787 11.8652 12.5787 14.4818C12.5787 17.0984 11.803 19.3274 7.99933 19.3274Z" fill="#777777"/>
<path d="M23.1472 7.09425C23.1472 6.2165 22.4354 5.50488 21.5512 5.50488H17.2026V5.86484H18.0479C18.9293 5.86484 19.6438 6.2165 19.6438 7.09425V19.3274H17.6809V19.6597H25.1602V19.3274H23.1472V7.09425Z" fill="#777777"/>
<path d="M53.6984 7.09425C53.6984 6.2165 52.9838 5.50488 52.1052 5.50488H47.7566V5.86484H48.6018C49.4832 5.86484 50.195 6.2165 50.195 7.09425V19.3274H48.232V19.6597H55.7114V19.3274H53.6984V7.09425Z" fill="#777777"/>
<path d="M44.8315 16.2924V1.58937C44.8315 0.711616 44.1169 0 43.2355 0H38.887V0.359961H39.735C40.6136 0.359961 41.3282 0.711616 41.3282 1.58937V15.722C41.3282 18.2583 42.7045 19.6594 47.2727 19.6594V19.2995C45.4293 19.2995 44.8315 17.7018 44.8315 16.2924Z" fill="#777777"/>
</g>
<defs>
<clipPath id="clip0_4030_1982">
<rect width="70" height="20" fill="white"/>
</clipPath>
</defs>
</svg>
