<svg width="105" height="30" viewBox="0 0 105 30" fill="none" xmlns="http://www.w3.org/2000/svg">
<g clip-path="url(#clip0_4031_3263)">
<path d="M31.5675 5.3828C31.726 5.3828 31.8845 5.36619 32.0388 5.33712C32.1931 5.30804 32.8479 5.17929 33.0189 5.13775C34.1533 4.85117 34.9958 3.82943 34.9958 2.60833C34.9958 1.16711 33.8239 0 32.3725 0C32.2348 0 32.093 0.0124602 31.9596 0.0332272C31.7886 0.062301 31.163 0.191056 31.017 0.22013C29.8326 0.473487 28.9442 1.51599 28.9442 2.77032C28.9442 4.21155 30.1162 5.3828 31.5634 5.3828H31.5675Z" fill="#777777"/>
<path d="M77.1984 5.3828C77.361 5.3828 77.5154 5.36619 77.6697 5.33712C77.824 5.30804 78.4788 5.17929 78.6498 5.13775C79.7842 4.85117 80.6266 3.82943 80.6266 2.60833C80.6266 1.16711 79.4547 0 78.0075 0C77.8657 0 77.7281 0.0124602 77.5904 0.0332272C77.4153 0.062301 76.7938 0.191056 76.652 0.22013C75.4676 0.473487 74.5792 1.51599 74.5792 2.77032C74.5792 4.21155 75.7512 5.3828 77.1984 5.3828Z" fill="#777777"/>
<path d="M48.7632 7.58398C42.5073 7.58398 38.1907 12.8214 38.1907 18.794C38.1907 24.7666 42.5073 29.9999 48.7632 29.9999C55.0192 29.9999 59.3358 24.7666 59.3358 18.794C59.3358 12.8214 55.0234 7.58398 48.7632 7.58398ZM48.7632 29.6053C44.5008 29.6053 43.7626 23.288 43.7626 18.794C43.7626 14.3 44.5008 7.98271 48.7632 7.98271C53.0256 7.98271 53.7638 14.3 53.7638 18.794C53.7638 23.288 53.0256 29.6053 48.7632 29.6053Z" fill="#777777"/>
<path d="M94.4231 7.58398C88.1672 7.58398 83.8506 12.8214 83.8506 18.794C83.8506 24.7666 88.1672 29.9999 94.4231 29.9999C100.679 29.9999 104.996 24.7666 104.996 18.794C104.996 12.8214 100.679 7.58398 94.4231 7.58398ZM94.4231 29.6053C90.1608 29.6053 89.4226 23.288 89.4226 18.794C89.4226 14.3 90.1608 7.98271 94.4231 7.98271C98.6855 7.98271 99.4237 14.3 99.4237 18.794C99.4237 23.288 98.6855 29.6053 94.4231 29.6053Z" fill="#777777"/>
<path d="M16.5575 14.8488V14.7492C20.8449 13.6983 23.9687 11.6466 23.9687 7.42256C23.9687 3.19855 20.9283 0.411621 13.4712 0.411621H0.00842285V0.910029H2.94038V28.9912H0.00842285V29.4896H11.999C22.2921 29.4896 25.1532 25.8097 25.1532 21.677C25.1532 17.5444 21.7958 14.961 16.5575 14.8488ZM11.999 0.910029C17.1581 0.910029 17.6252 5.62414 17.6252 7.48901C17.6252 9.35389 17.6586 14.6038 12.5787 14.6038H9.04202V0.910029H11.9948H11.999ZM11.999 28.9912H9.04619V15.1147C10.0597 15.1105 11.5527 15.1022 13.0917 15.1022C17.204 15.1022 18.868 17.7977 18.868 21.7227C18.868 25.6477 17.7044 28.9912 11.999 28.9912Z" fill="#777777"/>
<path d="M34.7208 10.6409C34.7208 9.32426 33.6531 8.25684 32.3268 8.25684H25.804V8.79678H27.0718C28.3939 8.79678 29.4658 9.32426 29.4658 10.6409V28.9906H26.5213V29.489H37.7403V28.9906H34.7208V10.6409Z" fill="#777777"/>
<path d="M80.5475 10.6409C80.5475 9.32426 79.4757 8.25684 78.1578 8.25684H71.6349V8.79678H72.9028C74.2248 8.79678 75.2925 9.32426 75.2925 10.6409V28.9906H72.3481V29.489H83.5671V28.9906H80.5475V10.6409Z" fill="#777777"/>
<path d="M67.2473 24.4386V2.38405C67.2473 1.06742 66.1754 0 64.8533 0H58.3304V0.539942H59.6025C60.9204 0.539942 61.9923 1.06742 61.9923 2.38405V23.583C61.9923 27.3875 64.0567 29.4891 70.9091 29.4891V28.9492C68.144 28.9492 67.2473 26.5527 67.2473 24.4386Z" fill="#777777"/>
</g>
<defs>
<clipPath id="clip0_4031_3263">
<rect width="105" height="30" fill="white"/>
</clipPath>
</defs>
</svg>
