<svg width="80" height="20" viewBox="0 0 80 20" fill="none" xmlns="http://www.w3.org/2000/svg">
<g clip-path="url(#clip0_4028_1175)">
<path d="M66.4281 16.6514C64.382 16.6514 63.1886 15.2098 63.1886 12.6422C63.1886 10.0747 64.3485 8.66189 66.4281 8.66189C68.4421 8.66189 69.6346 10.1027 69.6346 12.6128C69.6346 15.2098 68.4751 16.6514 66.4281 16.6514ZM69.6346 5.69567V6.44676C68.4542 5.64327 66.9916 5.31631 66.2019 5.31631C61.7865 5.31631 58.746 8.28651 58.746 12.6422C58.746 16.9416 61.7865 20 66.1155 20C67.662 20 69.0254 19.4142 70.1595 18.7634C70.9089 19.608 71.9928 19.9668 73.9692 20V19.6162L73.9718 5.69567H69.6346ZM56.1016 5.68174V0.381016C54.0319 0.415668 52.9331 0.800995 52.1822 1.73297C51.6277 2.44427 51.4685 3.10665 51.4529 5.0172V5.68174H47.3519V0.381016C45.2839 0.415668 44.1867 0.800995 43.4343 1.73297C42.8815 2.44377 42.7205 3.11229 42.7054 5.0172L42.7046 5.68174L39.7508 5.6834C39.7765 7.20514 40.0595 8.01244 40.7463 8.56605C41.2077 8.92568 41.6413 9.05965 42.7039 9.0938V15.0372C42.7039 17.2009 42.8498 17.8926 43.4343 18.6434C44.1867 19.5747 45.2839 19.9599 47.3519 19.9942V9.09496H51.451V15.0373C51.451 17.2009 51.5975 17.8926 52.1822 18.6432C52.9332 19.5747 54.0319 19.9597 56.1016 19.9942V9.0938C57.1626 9.05965 57.5952 8.92568 58.0576 8.56605C58.7445 8.01244 59.0276 7.20514 59.0531 5.68357L56.1016 5.68174ZM77.7086 3.17098H77.0772V2.37447H77.8023C78.2128 2.37447 78.3733 2.48754 78.3733 2.76609C78.3733 3.06454 78.1999 3.17098 77.7086 3.17098ZM78.7503 4.10744C78.7107 3.56991 78.6658 3.4633 78.4058 3.33728C78.6658 3.21111 78.7851 3.01828 78.7851 2.7331C78.7851 2.47362 78.6658 2.26885 78.4454 2.14201C78.3056 2.06193 78.1609 2.02926 77.9077 2.02926H76.6658V4.57202H77.0772V3.49646H77.7492C78.2471 3.49646 78.3196 3.58251 78.3521 4.24655C78.3604 4.39992 78.3864 4.50603 78.4401 4.57202H78.9302L78.8442 4.48597C78.7982 4.41965 78.7717 4.32033 78.7503 4.10744ZM77.6893 5.28962C76.6141 5.28962 75.7307 4.39992 75.7307 3.30429C75.7307 2.1886 76.6061 1.3125 77.7147 1.3125C78.7717 1.3125 79.6467 2.21563 79.6467 3.29799C79.6467 4.39992 78.7717 5.28962 77.6893 5.28962ZM77.7218 0.987026C76.4131 0.987026 75.3779 2.00953 75.3779 3.30429C75.3779 4.57898 76.4131 5.61426 77.6893 5.61426C78.9629 5.61426 80 4.57898 80 3.30429C80 2.0354 78.9629 0.987026 77.7218 0.987026ZM9.09537 15.6722H5.08771V11.2288H8.97748C11.0247 11.2288 11.9606 11.9209 11.9606 13.4506C11.9606 14.9785 11.0548 15.6722 9.09537 15.6722ZM5.08771 4.21886H8.59779C10.4395 4.21886 11.2586 4.79619 11.2586 6.09442C11.2586 7.30678 10.3517 7.94147 8.71518 7.94147H5.08771V4.21886ZM9.97231 19.6225C11.9888 19.6225 13.3642 19.3046 14.5331 18.6127C16.2294 17.6018 17.1362 15.93 17.1362 13.8548C17.1362 12.1515 16.5218 10.823 15.3236 9.93177C14.8257 9.5559 14.6511 9.47018 13.6568 9.09496C15.3527 8.22931 16.2022 6.93107 16.2022 5.19959C16.2022 3.44124 15.2341 1.85368 13.6853 1.10359C12.6617 0.613472 11.3752 0.382839 9.35684 0.382839H0V14.6626C0 16.8257 0.146737 17.5178 0.730369 18.2684C1.52126 19.2478 2.69266 19.6225 4.97181 19.6225H9.97231ZM23.4055 5.69036H18.757V14.6626C18.757 16.8257 18.9029 17.8926 19.4875 18.6432C20.2398 19.5747 21.3357 19.9597 23.4028 19.9942L23.4055 5.69036ZM32.5952 16.6516C30.8401 16.6516 29.8168 15.2098 29.8168 12.642C29.8168 10.0749 30.8119 8.66189 32.5952 8.66189C34.319 8.66189 35.3429 10.1027 35.3429 12.6131C35.3429 15.2098 34.3487 16.6516 32.5952 16.6516ZM32.5645 5.31631C28.1495 5.31631 25.1094 8.28701 25.1094 12.642C25.1094 16.9413 28.1495 19.9997 32.4773 19.9997C37.0396 19.9997 40.0511 17.0276 40.0511 12.585C40.0511 8.25816 37.0396 5.31631 32.5645 5.31631ZM21.1013 4.66703C19.6936 4.66703 18.5512 3.62114 18.5512 2.33418C18.5512 1.04423 19.6936 0 21.1013 0C22.5083 0 23.6513 1.04406 23.6513 2.33434C23.6513 3.62114 22.5083 4.66703 21.1013 4.66703Z" fill="#777777"/>
</g>
<defs>
<clipPath id="clip0_4028_1175">
<rect width="80" height="20" fill="white"/>
</clipPath>
</defs>
</svg>
