<svg width="100" height="21" viewBox="0 0 100 21" fill="none" xmlns="http://www.w3.org/2000/svg">
<g clip-path="url(#clip0_4015_378)">
<mask id="mask0_4015_378" style="mask-type:luminance" maskUnits="userSpaceOnUse" x="-17" y="-26" width="391" height="421">
<path d="M373.958 -25.2002V394.8H-16.6665V-25.2002H373.958Z" fill="white"/>
</mask>
<g mask="url(#mask0_4015_378)">
<mask id="mask1_4015_378" style="mask-type:luminance" maskUnits="userSpaceOnUse" x="0" y="14" width="21" height="7">
<path d="M20.8531 14.3301V20.9997H0V14.3301H20.8531Z" fill="white"/>
</mask>
<g mask="url(#mask1_4015_378)">
<mask id="mask2_4015_378" style="mask-type:luminance" maskUnits="userSpaceOnUse" x="14" y="14" width="7" height="8">
<path d="M17.5509 14.3301C19.3489 14.3301 20.853 15.8452 20.853 17.6922C20.85 18.5737 20.501 19.4182 19.8823 20.0413C19.2636 20.6644 18.4255 21.0153 17.5509 21.0175C15.7166 21.0175 14.2124 19.5391 14.2124 17.6922C14.216 16.8011 14.569 15.9475 15.1944 15.3177C15.8198 14.6879 16.6669 14.3328 17.5509 14.3301Z" fill="white"/>
</mask>
<g mask="url(#mask2_4015_378)">
<path d="M14.2124 14.3301H20.853V20.9997H14.2124V14.3301Z" fill="#BABABA"/>
</g>
<mask id="mask3_4015_378" style="mask-type:luminance" maskUnits="userSpaceOnUse" x="7" y="14" width="7" height="8">
<path d="M10.424 14.3301C12.2584 14.3301 13.7261 15.8452 13.7261 17.6922C13.7277 18.1296 13.6434 18.563 13.478 18.9674C13.3126 19.3718 13.0694 19.7392 12.7624 20.0484C12.4554 20.3576 12.0907 20.6024 11.6894 20.7687C11.288 20.935 10.8579 21.0196 10.424 21.0175C8.59066 21.0175 7.08545 19.5391 7.08545 17.6922C7.08902 16.8011 7.442 15.9475 8.06742 15.3177C8.69283 14.6879 9.53994 14.3328 10.424 14.3301Z" fill="white"/>
</mask>
<g mask="url(#mask3_4015_378)">
<path d="M7.08545 14.3301H13.7261V20.9997H7.08545V14.3301Z" fill="#BABABA"/>
</g>
<mask id="mask4_4015_378" style="mask-type:luminance" maskUnits="userSpaceOnUse" x="-1" y="14" width="8" height="8">
<path d="M3.24805 14.3301C5.11888 14.3301 6.62305 15.8452 6.62305 17.6922C6.62305 19.5402 5.11888 21.0175 3.24805 21.0175C1.41263 21.0175 -0.0175781 19.5391 -0.0175781 17.6922C-0.0175781 15.8442 1.41263 14.3301 3.24805 14.3301Z" fill="white"/>
</mask>
<g mask="url(#mask4_4015_378)">
<path d="M0 14.3301H6.62292V20.9997H0V14.3301Z" fill="#BABABA"/>
</g>
</g>
<mask id="mask5_4015_378" style="mask-type:luminance" maskUnits="userSpaceOnUse" x="14" y="0" width="7" height="7">
<path d="M17.5509 0C19.3489 0 20.853 1.47 20.853 3.3075C20.853 5.18175 19.3489 6.6885 17.5509 6.6885C16.6636 6.686 15.8135 6.32848 15.1875 5.69451C14.5615 5.06054 14.2107 4.20198 14.2124 3.3075C14.2124 1.47 15.7166 0 17.5509 0Z" fill="white"/>
</mask>
<g mask="url(#mask5_4015_378)">
<path d="M14.2124 0H20.853V6.6885H14.2124V0Z" fill="#777777"/>
</g>
<mask id="mask6_4015_378" style="mask-type:luminance" maskUnits="userSpaceOnUse" x="0" y="0" width="14" height="7">
<path d="M13.7375 0V6.6885H0V0H13.7375Z" fill="white"/>
</mask>
<g mask="url(#mask6_4015_378)">
<mask id="mask7_4015_378" style="mask-type:luminance" maskUnits="userSpaceOnUse" x="7" y="0" width="7" height="7">
<path d="M10.4357 0C12.2701 0 13.7378 1.47 13.7378 3.3075C13.7378 5.1807 12.2701 6.68745 10.4357 6.68745C9.54833 6.68495 8.69824 6.32743 8.07223 5.69346C7.44622 5.05949 7.09551 4.20093 7.09717 3.30645C7.09717 1.47 8.60134 0 10.4357 0Z" fill="white"/>
</mask>
<g mask="url(#mask7_4015_378)">
<path d="M7.09717 0H13.7378V6.68745H7.09717V0Z" fill="#777777"/>
</g>
<mask id="mask8_4015_378" style="mask-type:luminance" maskUnits="userSpaceOnUse" x="-1" y="0" width="8" height="7">
<path d="M3.24805 0C5.11888 0 6.62305 1.47 6.62305 3.3075C6.62292 3.75323 6.53538 4.19454 6.36547 4.60606C6.19555 5.01757 5.94662 5.39117 5.63297 5.70537C5.31933 6.01958 4.94716 6.26818 4.53787 6.43691C4.12858 6.60563 3.69023 6.69113 3.24805 6.6885C1.41263 6.6885 -0.0175781 5.18175 -0.0175781 3.3075C-0.0175781 1.47 1.41263 0 3.24805 0Z" fill="white"/>
</mask>
<g mask="url(#mask8_4015_378)">
<path d="M0 0H6.62292V6.6885H0V0Z" fill="#777777"/>
</g>
</g>
<mask id="mask9_4015_378" style="mask-type:luminance" maskUnits="userSpaceOnUse" x="14" y="7" width="7" height="7">
<path d="M17.5509 7.16504C19.3489 7.16504 20.853 8.63504 20.853 10.4725C20.853 12.3468 19.3489 13.8535 17.5509 13.8535C16.6636 13.851 15.8135 13.4935 15.1875 12.8595C14.5615 12.2256 14.2107 11.367 14.2124 10.4725C14.2124 8.63504 15.7166 7.16504 17.5509 7.16504Z" fill="white"/>
</mask>
<g mask="url(#mask9_4015_378)">
<path d="M14.2124 7.16504H20.853V13.8535H14.2124V7.16504Z" fill="#999999"/>
</g>
<mask id="mask10_4015_378" style="mask-type:luminance" maskUnits="userSpaceOnUse" x="0" y="7" width="14" height="7">
<path d="M13.7375 7.16504V13.8535H0V7.16504H13.7375Z" fill="white"/>
</mask>
<g mask="url(#mask10_4015_378)">
<mask id="mask11_4015_378" style="mask-type:luminance" maskUnits="userSpaceOnUse" x="7" y="7" width="7" height="7">
<path d="M10.4357 7.16504C12.2701 7.16504 13.7378 8.63504 13.7378 10.4725C13.7378 12.3457 12.2701 13.8525 10.4357 13.8525C9.54833 13.85 8.69824 13.4925 8.07223 12.8585C7.44622 12.2245 7.09551 11.366 7.09717 10.4715C7.09717 8.63504 8.60134 7.16504 10.4357 7.16504Z" fill="white"/>
</mask>
<g mask="url(#mask11_4015_378)">
<path d="M7.09717 7.16504H13.7378V13.8525H7.09717V7.16504Z" fill="#999999"/>
</g>
<mask id="mask12_4015_378" style="mask-type:luminance" maskUnits="userSpaceOnUse" x="-1" y="7" width="8" height="7">
<path d="M3.24805 7.16504C5.11888 7.16504 6.62305 8.63504 6.62305 10.4725C6.62292 10.9183 6.53538 11.3596 6.36547 11.7711C6.19555 12.1826 5.94662 12.5562 5.63297 12.8704C5.31933 13.1846 4.94716 13.4332 4.53787 13.6019C4.12858 13.7707 3.69023 13.8562 3.24805 13.8535C1.41263 13.8535 -0.0175781 12.3468 -0.0175781 10.4725C-0.0175781 8.63504 1.41263 7.16504 3.24805 7.16504Z" fill="white"/>
</mask>
<g mask="url(#mask12_4015_378)">
<path d="M0 7.16504H6.62292V13.8535H0V7.16504Z" fill="#999999"/>
</g>
</g>
<mask id="mask13_4015_378" style="mask-type:luminance" maskUnits="userSpaceOnUse" x="25" y="0" width="75" height="21">
<path d="M90.6385 0.323242L97.2114 16.6339C98.1562 19.0111 98.5916 19.4868 99.826 19.6338L99.4999 20.6943H92.1645L92.4906 19.597C93.4354 19.5603 93.7978 19.1938 93.7978 18.6825C93.7978 18.4263 93.6166 17.8414 93.3624 17.2566L92.0187 13.9281H85.6999L84.5374 17.0361C84.3197 17.5852 84.102 18.1701 84.102 18.5355C84.102 19.2673 84.6104 19.5603 85.7364 19.6338L85.4093 20.6943H79.7083L80.0354 19.6338C81.3791 19.4868 81.8874 18.5733 82.6499 16.5615L88.7874 0.323242H90.6385ZM32.5708 0.323242C36.5291 0.323242 39.2895 1.89614 39.2895 5.47979C39.2895 7.45484 37.9822 8.99099 36.4926 9.79529C38.6718 10.3444 40.8145 12.1368 40.8145 14.5864C40.8145 18.3171 37.6916 20.6943 33.0072 20.6943H25.4895L25.8166 19.6338C26.7968 19.5603 27.3051 18.8284 27.3051 17.8047V3.24854C27.3051 1.85939 26.5791 1.42154 25.2354 1.38374L25.5624 0.323242H32.5708ZM49.3124 0.323242C53.3437 0.323242 56.3572 2.11559 56.3572 5.55224C56.3572 8.29589 54.0333 9.97799 52.1447 10.5271C52.3989 10.7466 52.7989 11.1855 53.2343 11.9898L54.8322 14.9518C56.5749 18.2068 57.6656 19.4878 58.9718 19.6338L58.6458 20.6943H54.4687L54.3958 20.6575C53.3437 19.7797 52.5437 18.9744 51.1645 16.342L49.0583 12.2827C48.8041 11.8071 48.477 11.4406 47.4958 11.4406H47.2426V17.7679C47.2426 19.1581 47.9687 19.597 49.3124 19.6338L48.9853 20.6932H41.7593L42.0854 19.6327C43.0666 19.5592 43.5749 18.8274 43.5749 17.8036V3.24854C43.5749 1.85939 42.8479 1.42154 41.5041 1.38374L41.8312 0.323242H49.3124ZM66.9978 0.323242L66.6708 1.38374C65.6541 1.45724 65.1458 2.18804 65.1458 3.21284V17.7679C65.1458 19.1581 65.8718 19.597 67.2156 19.6338L66.8885 20.6943H59.6624L59.9885 19.6338C60.9697 19.5603 61.4781 18.8284 61.4781 17.8047V3.24854C61.4781 1.85939 60.751 1.42154 59.4083 1.38374L59.7343 0.323242H66.9978ZM83.9562 0.323242L83.2666 2.84639H82.4312C82.2135 2.33504 82.0322 2.22479 80.9426 2.22479H77.1301V17.7679C77.1301 19.1581 77.7468 19.597 78.9093 19.6338L78.5822 20.6943H71.3551L71.6822 19.6338C72.8447 19.5603 73.4624 18.8284 73.4624 17.8047V2.22374H70.1208C69.2489 2.22374 68.7406 2.33399 68.2687 2.84534H67.3614L68.1239 0.323242H83.9562ZM32.7541 10.819H30.9729V17.329C30.9729 18.4998 31.6624 19.0846 32.7156 19.0846H32.8249C35.1135 19.0846 36.6374 17.4393 36.6374 14.7691C36.6374 12.1725 35.1854 10.819 32.752 10.819H32.7541ZM88.7874 5.55329L86.3541 12.0633H91.2562L88.7874 5.55329ZM48.6208 1.85939C47.6041 1.85939 47.2416 2.22479 47.2416 3.17609V9.94124H48.4395C50.4728 9.94124 52.2885 8.22134 52.2885 5.88089C52.2885 3.46799 50.9093 1.85834 48.6218 1.85834L48.6208 1.85939ZM32.352 1.85939C31.3354 1.85939 30.9718 2.22479 30.9718 3.21284V9.28289H32.4249C34.277 9.28289 35.5479 7.85699 35.5479 5.62574C35.5479 3.35879 34.4583 1.85939 32.352 1.85939Z" fill="white"/>
</mask>
<g mask="url(#mask13_4015_378)">
<path d="M25.2354 0.323242H99.827V20.6932H25.2354V0.323242Z" fill="#777777"/>
</g>
</g>
</g>
<defs>
<clipPath id="clip0_4015_378">
<rect width="100" height="21" fill="white"/>
</clipPath>
</defs>
</svg>
