<svg width="60" height="39" viewBox="0 0 60 39" fill="none" xmlns="http://www.w3.org/2000/svg">
<path d="M29.9995 1.02441C39.5826 1.02441 48.3963 3.70775 51.9702 5.51562C55.2105 7.15289 58.7955 8.88119 59.1059 13.5654C59.4506 18.6934 59.2327 24.038 57.7963 26.2324C56.5209 28.1881 54.8889 31.0533 46.811 34.9873C38.7855 38.9013 30.0548 38.7864 29.9887 38.7627C29.9715 38.7859 21.2251 38.9124 13.1655 34.9873C5.09904 31.0532 3.4556 28.1881 2.18012 26.2324C0.755261 24.0379 0.525822 18.6934 0.870548 13.5654C1.19247 8.88118 4.77766 7.1529 8.01801 5.51562C11.6033 3.70778 20.4164 1.02449 29.9995 1.02441ZM30.0004 8.56152C20.417 8.56152 9.98247 10.0735 7.1557 11.3242C4.42095 12.5408 4.12247 13.849 3.97309 15.8047C3.81223 18.0105 4.03016 21.183 4.5932 22.1494C5.0988 23.0136 5.74278 24.8096 10.8676 27.2314C14.0391 28.7323 17.3024 29.5168 19.5317 29.9375C19.6351 29.9602 19.7045 30.0402 19.7045 30.1426V30.3467C19.7045 34.1329 24.3233 37.2034 30.0112 37.2148C35.7107 37.2035 40.3188 34.133 40.3188 30.3467V30.1426C40.3188 30.0403 40.3991 29.9496 40.5024 29.9268C42.7201 29.5061 45.9725 28.7216 49.144 27.2207C54.2573 24.7989 54.9118 23.0132 55.4174 22.1377C55.969 21.1712 56.1992 18.0102 56.0268 15.793C55.8774 13.8375 55.5786 12.5414 52.8442 11.3135C50.0175 10.0628 39.5952 8.56157 30.0004 8.56152Z" fill="#777777"/>
<path d="M23.4272 12.7471C20.9912 12.7471 20.0489 14.5039 19.888 16.8084C19.8651 17.0594 19.8651 17.3218 19.8651 17.5842C19.8651 18.3143 19.934 18.9988 20.0719 19.6149H22.1288C22.0139 19.0444 22.0024 18.3485 22.0024 17.5842C22.0024 17.3104 22.0024 17.0594 22.0139 16.8084C22.0713 15.3025 22.3356 14.1845 23.4272 14.1845C24.4384 14.1845 24.7717 15.3025 24.8406 16.8084C24.8521 17.0594 24.8521 17.3218 24.8521 17.5842C24.8521 18.3485 24.8062 19.0444 24.6798 19.6149C24.4959 20.4477 24.1167 20.9953 23.4158 20.9953C22.6344 20.9953 22.2782 20.4591 22.1173 19.6149H20.0604C20.4511 21.2691 21.4393 22.4099 23.4158 22.4099C25.3692 22.4099 26.3689 21.2691 26.7711 19.6149C26.9205 18.9988 26.9894 18.3143 26.9894 17.5842C26.9894 17.3218 26.9779 17.0594 26.955 16.8084C26.8056 14.5039 25.8518 12.7471 23.4272 12.7471ZM38.1471 12.9638V16.8084V19.6149V22.1703H39.9856V20.094L40.3534 19.6149L40.6406 19.2498L40.836 19.6149L42.1689 22.1703H44.1913L42.7894 19.6149L41.8242 17.8694L42.6056 16.8084L43.8926 15.063H41.8702L40.6406 16.8084L39.9971 17.7211V16.8084V12.9638H38.1471ZM7.07568 13.0095V16.8084V19.6149V22.1703H10.2702C12.2696 22.1703 13.2003 21.3603 13.5451 19.6149H11.3963C11.1779 20.3108 10.7528 20.5846 9.93692 20.5846H9.05212V19.6149V16.8084V14.4925H9.89096C11.2239 14.4925 11.5227 15.2797 11.5801 16.8084H13.6944C13.6025 14.4811 12.9705 13.0095 10.3851 13.0095H7.07568ZM13.7059 16.8084H11.5916C11.6031 17.0138 11.6031 17.2305 11.6031 17.4587C11.6031 18.4284 11.5571 19.1243 11.4078 19.6035H13.5566C13.6715 18.9988 13.7289 18.2915 13.7289 17.4587C13.7174 17.2419 13.7174 17.0252 13.7059 16.8084ZM34.7113 13.5799V14.9831H33.7806V16.2266H34.7113V16.8084V19.6149V20.288C34.7113 21.7254 34.9756 22.1703 36.412 22.1703C36.8371 22.1703 37.2048 22.1247 37.607 22.0905V20.8241C37.4806 20.8355 37.3427 20.847 37.1934 20.847C36.6648 20.847 36.5384 20.6188 36.5384 20.0712V19.6149V16.8084V16.2266H37.607V14.9831H36.5384V13.5799H34.7113ZM30.5861 14.6637C30.115 14.6637 29.6898 14.7549 29.2991 14.9375C28.9199 15.12 28.5867 15.3824 28.3109 15.7246C28.0696 16.0213 27.8742 16.3863 27.7363 16.8084C27.7134 16.8655 27.7019 16.9339 27.6789 16.991C27.5295 17.4815 27.4606 18.0177 27.4606 18.6109C27.4606 18.9646 27.4835 19.2954 27.541 19.6149C27.6099 19.9913 27.7019 20.3222 27.8398 20.6302C28.0926 21.2006 28.4603 21.6341 28.9429 21.9536C29.4255 22.2616 29.9886 22.4213 30.6435 22.4213C31.2066 22.4213 31.7007 22.3186 32.1374 22.1019C32.574 21.8851 32.9187 21.5885 33.183 21.2006C33.4588 20.8127 33.6197 20.3678 33.6656 19.8658H31.7352C31.6547 20.1853 31.5168 20.4363 31.31 20.6188C31.1032 20.8013 30.8734 20.8926 30.5976 20.8926C30.2299 20.8926 29.9311 20.7329 29.7013 20.4249C29.5404 20.2081 29.437 19.9457 29.3795 19.6263C29.3566 19.4894 29.3451 19.3411 29.3451 19.1928V19.1129H33.7231V18.8163C33.7231 18.1318 33.6542 17.5386 33.5278 17.048C33.5048 16.9681 33.4818 16.8997 33.4588 16.8198C33.3324 16.4205 33.1371 16.0669 32.9072 15.7475C32.7349 15.5193 32.528 15.3253 32.2752 15.1656C32.0339 15.0059 31.7582 14.8804 31.4709 14.8006C31.1951 14.7093 30.8963 14.6637 30.5861 14.6637ZM46.9032 14.6637C46.432 14.6637 45.9954 14.7549 45.6162 14.9375C45.237 15.12 44.9152 15.3824 44.628 15.7246C44.3867 16.0213 44.1913 16.3863 44.0534 16.8084C44.0304 16.8655 44.019 16.9339 43.996 16.991C43.8466 17.4815 43.7776 18.0177 43.7776 18.6109C43.7776 18.9646 43.8006 19.2954 43.8581 19.6149C43.9155 19.9913 44.019 20.3222 44.1568 20.6302C44.4096 21.2006 44.7774 21.6341 45.2485 21.9536C45.7311 22.2616 46.3056 22.4213 46.9491 22.4213C47.5122 22.4213 48.0063 22.3186 48.443 22.1019C48.8796 21.8851 49.2358 21.5885 49.5001 21.2006C49.7759 20.8127 49.9253 20.3678 49.9712 19.8658H48.0523C47.9718 20.1853 47.8339 20.4363 47.6271 20.6188C47.4203 20.8013 47.179 20.8926 46.9147 20.8926C46.547 20.8926 46.2482 20.7329 46.0184 20.4249C45.8575 20.2081 45.7426 19.9457 45.6966 19.6263C45.6736 19.4894 45.6622 19.3411 45.6622 19.1928V19.1129H50.0402V18.8163C50.0402 18.1318 49.9712 17.5386 49.8448 17.048C49.8219 16.9681 49.7989 16.8997 49.7759 16.8198C49.6495 16.4205 49.4542 16.0669 49.2128 15.7475C49.0405 15.5193 48.8336 15.3253 48.5808 15.1656C48.3395 15.0059 48.0638 14.8804 47.7765 14.8006C47.5122 14.7093 47.2134 14.6637 46.9032 14.6637ZM17.9231 14.8804C17.1647 14.8804 16.6476 15.3253 16.2799 16.0098H16.2454V15.063H14.4873V16.8084H16.9119C17.1417 16.6829 17.4175 16.6259 17.6818 16.6259C17.8656 16.6259 18.061 16.6373 18.2563 16.6487V14.9032C18.1529 14.8918 18.0265 14.8804 17.9231 14.8804ZM14.4873 16.8084V19.6149V22.1703H16.3259V19.6149V17.9036C16.3259 17.3446 16.5787 16.991 16.9234 16.8084H14.4873ZM54.1195 14.8804C53.3611 14.8804 52.844 15.3253 52.4763 16.0098H52.4418V15.063H50.6837V16.8084H53.1083C53.3381 16.6829 53.6139 16.6259 53.8782 16.6259C54.062 16.6259 54.2574 16.6373 54.4527 16.6487V14.9032C54.3378 14.8918 54.2229 14.8804 54.1195 14.8804ZM50.6837 16.8084V19.6149V22.1703H52.5222V19.6149V17.9036C52.5222 17.3446 52.775 16.991 53.1083 16.8084H50.6837ZM30.6091 16.1353C30.9423 16.1353 31.2066 16.2608 31.3904 16.5118C31.4594 16.5917 31.5168 16.6943 31.5628 16.8084C31.6662 17.0366 31.7352 17.3104 31.7811 17.6526H29.368C29.4025 17.3218 29.483 17.0366 29.5979 16.8084C29.6438 16.7057 29.7128 16.6145 29.7817 16.5232C29.9886 16.2608 30.2758 16.1353 30.6091 16.1353ZM46.9262 16.1353C47.2594 16.1353 47.5237 16.2608 47.7075 16.5118C47.7765 16.5917 47.8339 16.6943 47.8799 16.8084C47.9833 17.0366 48.0523 17.3104 48.0982 17.6526H45.6851C45.7196 17.3218 45.7886 17.0366 45.9035 16.8084C45.9494 16.7057 46.0184 16.6145 46.0873 16.5232C46.3171 16.2608 46.5929 16.1353 46.9262 16.1353ZM16.9464 20.6074V22.1703H18.5206V20.6074H16.9464Z" fill="#454545"/>
<path d="M29.8508 26.5346C29.6899 26.546 29.5061 26.5802 29.3912 26.5574C29.2877 26.546 29.1728 26.5574 29.0694 26.5346C28.989 26.5232 28.9085 26.5232 28.8281 26.546C28.7017 26.5574 28.5983 26.603 28.5064 26.6601C28.4144 26.7285 28.1616 27.0594 28.1042 27.105C28.0582 27.1506 27.8859 27.2875 27.8054 27.3674C27.7135 27.4587 27.6331 27.6526 27.6101 27.7553C27.5986 27.858 27.5986 28.0633 27.6101 28.1204C27.6216 28.166 27.6101 28.2458 27.5986 28.3029C27.5871 28.3599 27.5411 28.5539 27.5296 28.5767C27.5067 28.5995 27.4952 28.7364 27.4952 28.9303C27.4952 29.1243 27.5067 29.2384 27.4837 29.3639C27.4607 29.4893 27.4492 29.6262 27.2079 29.8886C26.9666 30.151 26.9781 30.1967 26.9551 30.2537C26.9321 30.3107 26.9206 30.3564 26.9781 30.4476C27.047 30.5389 27.0815 30.5389 27.1389 30.5845C27.1849 30.6302 27.3688 30.6644 27.3113 30.8697C27.2424 31.0865 27.3688 31.0979 27.3688 31.1778C27.3688 31.2576 27.3458 31.2804 27.3573 31.3489C27.3688 31.4173 27.4262 31.5086 27.4262 31.5657C27.4262 31.6683 27.4377 31.7368 27.4032 31.9992C27.4032 31.9992 27.3688 32.3186 27.8169 32.4327C28.2651 32.5468 28.5753 32.6837 28.6787 32.8434C28.7821 33.0031 28.7936 33.2199 28.7362 33.4138C28.6787 33.6077 28.5523 33.8131 28.2421 34.0184C27.9203 34.2466 27.3688 34.4291 26.7023 34.7942C26.0358 35.1593 25.9209 35.3418 25.8175 35.4787C25.7371 35.5814 25.6221 35.7981 25.5992 35.935C25.5877 36.0491 25.5532 36.2316 25.76 36.3229C25.9899 36.4256 26.1392 36.3914 26.1392 36.3914H34.1139C34.1139 36.3914 34.4472 36.437 34.6195 36.2316C34.7919 36.0149 34.6425 35.6042 34.608 35.5129C34.5621 35.3988 34.3897 35.1935 34.2173 35.0566C34.0335 34.8969 33.436 34.5318 33.1142 34.3607C32.8499 34.2238 31.9766 33.7332 31.6319 33.3225C31.3216 32.9575 31.1952 32.5125 31.2872 32.2616C31.3906 32.0106 31.5859 31.9878 31.7238 31.9992C31.8387 32.0106 32.1375 32.079 32.2524 32.0562C32.3903 32.022 32.5167 31.9764 32.6431 31.7596C32.7695 31.5428 33.1257 31.4744 33.2061 31.4173C33.2866 31.3717 33.6773 31.1207 33.7003 30.7443C33.7347 30.2423 33.5394 30.2423 33.4704 29.7175C33.413 29.1927 33.3096 29.1129 33.1142 28.8847C32.9533 28.7022 32.8269 28.2915 32.758 28.1318C32.6316 27.8237 32.3558 27.6526 32.2294 27.6184C32.103 27.5842 31.7353 27.413 31.5744 27.2305C31.4365 27.0822 31.2067 26.854 30.9999 26.8084C30.8045 26.7628 30.4483 26.7514 30.3334 26.6943C30.207 26.6259 30.0002 26.5574 29.9657 26.5688C29.9427 26.5574 30.0117 26.5346 29.8508 26.5346ZM20.4053 31.9764C20.4053 28.5196 24.7029 25.7246 30.0117 25.7246C35.3205 25.7246 39.6181 28.531 39.6181 31.9764C39.6181 35.4331 35.3205 38.2281 30.0117 38.2281C24.7029 38.2281 20.4053 35.4331 20.4053 31.9764Z" fill="#777777"/>
</svg>
