<svg width="120" height="41" viewBox="0 0 120 41" fill="none" xmlns="http://www.w3.org/2000/svg">
<g clip-path="url(#clip0_4024_953)">
<path fill-rule="evenodd" clip-rule="evenodd" d="M14.6193 0.181235C13.2137 0.446326 10.7324 1.55007 9.27598 2.55806C6.5117 4.47152 5.93841 6.61217 7.57973 8.89163C8.10672 9.6236 8.53788 10.3385 8.53788 10.4809C8.53788 10.6229 7.47977 11.4792 6.18658 12.3835C2.65387 14.8544 0.425212 17.9504 0.0477 20.9111C-0.085483 21.9566 0.0470608 22.6118 0.612691 23.6998C1.69126 25.7752 2.95633 26.3542 6.14251 26.2311C9.88536 26.0865 12.7017 24.6628 16.4649 21.0131C18.0254 19.4994 19.3957 18.2611 19.5093 18.2611C19.6231 18.2611 19.7163 18.4728 19.7163 18.7318C19.7163 18.9905 19.9945 19.3523 20.3344 19.5352C21.0769 19.9352 22.2025 19.5686 23.9539 18.3561C24.616 17.898 25.2235 17.5895 25.3046 17.6708C25.3853 17.7525 25.0596 18.9487 24.5802 20.3298C23.7505 22.7194 23.5856 22.9443 21.1536 25.0015C15.8192 29.5128 12.7975 33.4891 12.1757 36.8152C11.5499 40.1627 13.9614 41.0711 16.8559 38.5782C18.9105 36.809 20.3573 34.2887 22.4528 28.8296L24.3474 23.8929L27.2148 21.0552C28.7916 19.495 30.134 18.3748 30.1976 18.5667C30.6824 20.0296 32.6984 20.2755 34.2768 19.0644C34.8525 18.6226 35.4734 18.2611 35.6567 18.2611C35.8401 18.2611 36.2256 18.6226 36.5134 19.0644C37.0691 19.9179 37.8892 20.0794 38.9004 19.5352C39.2402 19.352 39.5181 19.2649 39.5181 19.341C39.5181 19.4172 39.0103 20.555 38.3901 21.8695C37.2968 24.186 37.1927 25.3302 38.0761 25.3302C38.7509 25.3302 39.0783 24.6984 40.6149 20.43C43.1406 13.4126 44.8129 10.193 45.4193 11.1798C45.5344 11.3671 45.3893 12.6019 45.0968 13.9242C44.4322 16.9295 44.3399 19.3834 44.8713 19.9188C45.557 20.6099 46.5915 19.1848 47.9818 15.6333C49.8588 10.8385 50.6176 11.0484 49.5653 16.0712C49.03 18.6261 49.1284 19.6867 49.9294 19.9959C50.6451 20.2723 52.7196 19.6646 53.6206 18.915L54.3694 18.2916L53.1744 18.4786C51.1737 18.7915 50.9674 18.3793 51.213 14.5601C51.4397 11.031 51.2558 9.58537 50.5803 9.58537C49.837 9.58537 49.1277 10.6865 47.8866 13.7673C45.9988 18.4542 45.4676 17.967 46.3772 12.3831C46.8809 9.29169 46.6423 7.74901 45.7155 8.10664C45.4401 8.213 45.1664 8.30008 45.1073 8.30008C44.8416 8.30008 43.389 10.9908 42.0013 14.0531C40.2855 17.8388 39.7375 18.5824 38.6634 18.5824C37.4194 18.5824 37.0228 17.2451 37.7241 15.4174C38.8254 12.547 39.0397 11.5461 38.6391 11.1432C38.0611 10.5616 37.4517 11.2672 36.6354 13.4635C36.241 14.5248 35.499 15.9752 34.987 16.6863C34.2378 17.7274 33.8881 17.9596 33.194 17.8793C31.8577 17.7242 31.8226 16.0285 33.1183 14.2134C34.1112 12.8227 35.0467 10.8832 35.0467 10.2161C35.0467 10.0214 34.7232 9.9083 34.3282 9.96454C33.4499 10.0902 31.7599 12.5361 30.9752 14.8175C30.5713 15.9923 29.7367 17.1657 27.9721 19.0396C26.6281 20.467 25.4483 21.5562 25.3499 21.4602C25.2515 21.364 25.7204 19.7736 26.3917 17.9256C27.9731 13.573 28.5237 11.2486 28.0797 10.8019C27.4349 10.1531 26.7427 10.7961 26.7427 12.0444C26.7427 13.5682 25.6885 15.7657 24.4575 16.8078C22.9711 18.0661 21.3133 17.8045 21.3133 16.311C21.3133 16.1513 22.4104 14.7796 23.7511 13.2635C26.3235 10.3549 26.4812 9.67631 24.4538 10.2396C23.1024 10.6149 21.0085 12.763 20.3928 14.4052C19.5231 16.7258 19.1931 17.1988 16.6789 19.7337C12.3657 24.0824 7.67619 25.7916 5.02466 23.9812C2.70242 22.3959 2.69348 19.3581 5.00103 15.7663C7.05051 12.5762 9.38553 11.0574 13.7279 10.0902C14.6793 9.87809 14.8706 9.2422 14.1609 8.64968C13.8185 8.36403 13.4491 8.40612 12.5615 8.83187C11.4481 9.36591 11.3759 9.36269 10.5315 8.73644C9.17123 7.72813 8.33188 5.96375 8.70747 4.90274C9.14375 3.67079 11.1191 2.17054 12.9055 1.71426C15.4705 1.05908 16.2427 1.70784 14.9163 3.40442C14.4615 3.98601 14.3689 4.334 14.6059 4.57242C15.3446 5.31564 17.4806 2.82314 17.4806 1.21782C17.4806 0.0266791 16.7821 -0.226523 14.6193 0.181235ZM73.6289 1.2583C69.8845 1.4466 68.9014 1.757 68.9014 2.75118C68.9014 3.11427 69.1115 3.17274 69.7798 2.99538C72.102 2.37811 72.194 2.79134 70.3399 5.51518C68.4658 8.26924 65.6543 13.6209 63.9148 17.7451C63.1615 19.5309 62.2866 21.1652 61.9705 21.3763C61.6546 21.5877 60.4835 21.9075 59.3678 22.0868C58.2526 22.2661 57.1497 22.5716 56.9172 22.7657C56.31 23.2727 53.5711 29.9749 53.5711 30.9536C53.5711 31.918 54.395 32.3603 54.9993 31.7203C55.2309 31.4751 55.662 30.0456 55.9574 28.5434C56.2532 27.0413 56.7118 25.5702 56.9769 25.2742C57.8204 24.3328 64.0488 23.6487 75.7864 23.2082C82.7084 22.9486 83.1382 23.0651 82.8183 25.1196C82.704 25.8539 82.1847 27.3747 81.6643 28.4991C81.1444 29.6237 80.7187 30.7354 80.7187 30.9704C80.7187 31.5413 81.137 31.7707 81.6247 31.4677C82.1552 31.1377 85.19 23.6307 85.19 22.6484C85.19 21.6227 84.4663 21.0672 82.8467 20.8497L81.5171 20.6709L81.4146 18.9037C81.2826 16.6329 81.7953 12.2128 82.854 6.4949C83.3159 3.99951 83.5991 1.71073 83.4839 1.40836C83.2584 0.81713 82.6004 0.807172 73.6289 1.2583ZM75.6318 2.56223C74.9889 2.75213 73.8027 3.6467 72.7574 4.73052C69.5329 8.07259 64.6613 17.2225 64.6122 20.0284L64.5897 21.3136L66.1866 21.2954C70.8989 21.2413 78.1936 20.6976 78.4354 20.3825C78.7775 19.9364 80.8164 4.18877 80.6681 3.13483C80.5676 2.41668 80.4086 2.35112 78.6426 2.29747C77.5887 2.26533 76.2338 2.38455 75.6318 2.56223ZM99.3762 10.8154C97.6192 12.7844 94.7182 13.735 93.8133 12.6379C93.5946 12.3728 93.2177 12.156 92.9759 12.156C92.7339 12.156 92.5359 12.0271 92.5359 11.8693C92.5359 11.3308 90.9456 11.1807 89.9035 11.6209C87.6831 12.5596 85.8269 15.5019 85.83 18.0772C85.8307 18.6203 86.116 19.5345 86.4641 20.1087C87.0073 21.0052 87.2769 21.153 88.3682 21.153C89.3292 21.153 89.9092 20.9142 90.7466 20.1745C91.8793 19.1742 93.4941 16.3274 93.4941 15.3309C93.4941 14.972 93.9169 14.6417 94.6916 14.395C95.3506 14.1851 96.3745 13.7343 96.9676 13.3931C97.5608 13.0518 98.0947 12.8217 98.1545 12.8815C98.2142 12.9416 96.7044 16.1647 94.7997 20.0441C92.1727 25.3944 91.4072 27.2334 91.6281 27.6597C91.7885 27.9692 92.1079 28.2221 92.3378 28.2221C93.1027 28.2221 93.6959 27.1273 94.5898 24.0661C95.576 20.689 97.3822 16.352 98.8035 13.9473C100.654 10.816 101.043 12.0271 99.7258 16.8173C98.8178 20.1202 98.7613 20.8073 99.3337 21.5941C100.087 22.6317 101.207 21.2683 102.566 17.657C103.718 14.5971 104.439 13.421 104.888 13.8722C104.998 13.9827 104.874 15.3795 104.614 16.9765C103.906 21.3182 104.631 22.2712 107.44 20.6916C108.908 19.8657 108.922 19.8645 109.369 20.5065C109.98 21.3843 111.048 21.3187 112.52 20.3133L113.75 19.4734L115.046 20.1851C116.18 20.8085 116.502 20.8532 117.642 20.5444C118.358 20.3503 119.218 19.8828 119.552 19.5049C120.154 18.8276 120.154 18.8208 119.524 19.0066C117.761 19.5255 117.249 19.5454 116.667 19.1178C116.095 18.6962 116.07 18.4603 116.348 16.1057C116.513 14.7005 116.601 13.3015 116.543 12.9962C116.333 11.9082 115.688 12.7193 115.452 14.3663C115.141 16.549 114.463 17.8209 113.2 18.5952C112.638 18.9404 112.081 19.2231 111.961 19.2237C111.389 19.2269 110.741 18.1004 110.741 17.1031C110.741 14.9052 112.011 13.003 113.799 12.5216C115.024 12.1923 115.187 11.513 114.041 11.5146C111.823 11.5174 109.679 13.991 109.078 17.2418C108.742 19.0634 108.634 19.2382 107.658 19.5628C105.949 20.1299 105.837 19.8693 106.074 15.8782C106.25 12.9197 106.202 12.1928 105.796 11.6669C105.315 11.0448 105.286 11.0532 104.43 12.0609C103.948 12.627 103.065 14.2549 102.467 15.678C100.654 19.9907 99.745 20.0977 100.798 15.874C101.601 12.6521 101.677 10.4725 101.006 9.91216C100.616 9.58602 100.334 9.7425 99.3762 10.8154ZM89.6221 12.8947C88.1827 13.9971 87.3273 16.7924 87.9389 18.3954C88.4791 19.8111 90.991 18.4284 92.196 16.0523C92.8105 14.8406 92.8103 14.8306 92.1647 14.2744C91.7684 13.9332 91.578 13.4743 91.6764 13.0962C91.8057 12.5984 91.6713 12.4792 90.9888 12.4876C90.5222 12.493 89.907 12.6765 89.6221 12.8947ZM18.6962 29.1288C15.4816 32.4763 13.9675 34.7333 13.9675 36.1771C13.9675 38.3466 16.9483 36.8152 18.9632 33.6103C19.6 32.5972 22.5908 26.1338 22.5908 25.7706C22.5908 25.2549 21.5767 26.1293 18.6962 29.1288Z" fill="#777777"/>
</g>
<defs>
<clipPath id="clip0_4024_953">
<rect width="120" height="41" fill="white"/>
</clipPath>
</defs>
</svg>
