<svg width="83" height="54" viewBox="0 0 83 54" fill="none" xmlns="http://www.w3.org/2000/svg">
<g clip-path="url(#clip0_4031_3067)">
<mask id="mask0_4031_3067" style="mask-type:luminance" maskUnits="userSpaceOnUse" x="0" y="0" width="83" height="54">
<path d="M0 0H82.5V54H0V0Z" fill="white"/>
</mask>
<g mask="url(#mask0_4031_3067)">
<path d="M14.4167 5.7636H5.37429V11.0493H12.4067V15.705H5.37429V24.822H0V0.774H14.4167V5.7636ZM21.9106 0.7749H16.5354V24.8229H21.9096V0.774L21.9106 0.7749ZM38.8548 21.1608C38.465 22.0116 37.8984 22.771 37.1921 23.3892C36.468 24.0127 35.6325 24.4956 34.7289 24.813C33.7461 25.1549 32.7114 25.326 31.67 25.3188C30.9547 25.3159 30.2427 25.2221 29.5513 25.0398C28.8444 24.8521 28.1618 24.584 27.5169 24.2406C26.8617 23.8934 26.2526 23.4665 25.7037 22.9698C25.1608 22.4797 24.6825 21.9232 24.2804 21.3138L24.0891 21.0258L27.38 17.7678L27.671 18.1926C28.1211 18.8661 28.7059 19.4405 29.389 19.8801C30.0391 20.2923 30.7308 20.4921 31.5032 20.4921C32.2557 20.4921 32.8686 20.2941 33.3772 19.89C33.8558 19.5048 34.0879 18.9747 34.0879 18.2637C34.0879 17.8497 34.0081 17.4771 33.8486 17.1612C33.6772 16.8256 33.4427 16.5256 33.1578 16.2774C32.8468 15.9984 32.4796 15.7374 32.0717 15.498C31.6374 15.246 31.1859 14.9877 30.7208 14.724C30.0825 14.3486 29.4546 13.9561 28.8378 13.5468C28.1706 13.1078 27.5667 12.5807 27.0428 11.9799C26.4978 11.3463 26.0564 10.6317 25.7346 9.8622C25.3901 9.0504 25.216 8.0856 25.216 6.9975C25.216 4.9644 25.856 3.3165 27.1198 2.1015C28.3809 0.891 30.137 0.2772 32.34 0.2772C33.8359 0.2772 35.1677 0.5931 36.2991 1.2096C37.4233 1.8243 38.348 2.6316 39.0533 3.6036L39.2709 3.9042L35.7606 7.1766L35.4913 6.7149C35.2792 6.3549 34.893 5.9868 34.3372 5.6295C33.7956 5.27673 33.16 5.09275 32.5123 5.1012C31.9538 5.1012 31.5059 5.2785 31.1415 5.6412C30.7752 6.0039 30.5975 6.4485 30.5975 6.9984C30.5975 7.4358 30.6773 7.8102 30.8351 8.1144C31.0019 8.4348 31.2285 8.7282 31.5177 8.9919C31.8196 9.2709 32.1759 9.5373 32.5748 9.7893C32.9982 10.0557 33.4424 10.3293 33.9111 10.6155C34.5185 10.9935 35.1423 11.3958 35.7805 11.8179C36.4389 12.2528 37.043 12.7637 37.5801 13.3398C38.1241 13.9248 38.5774 14.6232 38.9291 15.4125C39.2854 16.2144 39.4676 17.1747 39.4676 18.2673C39.4631 19.3158 39.2582 20.2905 38.8548 21.1617V21.1608ZM58.7754 24.8229H53.4002V15.0444H47.3895V24.822H42.0152V0.774H47.3904V10.0539H53.4011V0.7749H58.7754V24.8229ZM82.2806 8.451V8.4267C82.1265 6.336 81.8092 4.7052 81.8092 4.7052C81.8092 4.7052 81.7249 5.7942 81.1193 7.3512C80.3949 9.20362 79.2896 10.8858 77.8737 12.2904C76.8915 13.259 75.7993 14.111 74.619 14.8293L77.7631 14.7105C77.6688 16.3296 77.3569 18.4815 76.0405 19.7721C75.0215 20.7684 73.4749 21.2625 71.3263 21.2814C71.0345 21.2785 70.7428 21.2704 70.4514 21.2571C69.9881 21.2148 69.5892 21.1221 69.2674 20.9781C68.8114 20.7738 68.4397 20.5191 68.1659 20.2212C67.9037 19.9457 67.7045 19.6172 67.582 19.2582C67.4651 18.9325 67.4012 18.5904 67.3925 18.2448C67.3925 17.6526 67.4778 17.1369 67.65 16.7094C67.8078 16.2993 68.0333 15.9182 68.3173 15.5817C68.5897 15.2688 68.9045 14.995 69.2529 14.7681C70.8458 13.7286 73.2383 13.1364 75.0913 11.7747C75.6929 11.3299 76.2405 10.8174 76.7232 10.2474C77.2175 9.67073 77.6173 9.02049 77.9081 8.3205C78.2073 7.5915 78.3587 6.7779 78.3587 5.8923C78.3615 5.1199 78.2179 4.35387 77.9353 3.6342L77.9253 3.6126C77.6389 2.88453 77.1908 2.22992 76.6144 1.6974C76.0505 1.1772 75.3551 0.7623 74.5474 0.459C73.745 0.1557 72.8357 0 71.833 0C71.5549 0.000752709 71.2769 0.0139661 70.9999 0.0396C70.3603 0.0948459 69.7309 0.233437 69.1278 0.4518C68.3203 0.739826 67.5795 1.18607 66.9492 1.764C66.321 2.35254 65.8257 3.06665 65.4959 3.8592C65.1496 4.671 64.9719 5.5908 64.9719 6.5907C64.9719 8.2539 65.6247 9.8793 66.9193 11.4264C66.5947 11.6118 66.2738 11.8134 65.9647 12.024C65.3032 12.4706 64.7068 13.0054 64.1923 13.6134C63.6722 14.2315 63.2556 14.9286 62.9584 15.678C62.6492 16.4556 62.4942 17.3385 62.4942 18.3105C62.4942 19.0881 62.6338 19.9026 62.9058 20.7387C63.1923 21.6099 63.6782 22.4163 64.3591 23.1417C65.0145 23.8401 65.9003 24.435 66.9864 24.9093C67.9794 25.3304 69.0438 25.5606 70.1232 25.5879C70.3471 25.5924 71.5058 25.5951 71.5556 25.5951L71.8348 25.5924V25.5879C72.7804 25.5627 73.9762 25.4889 75.2228 25.1919C77.0904 24.7482 78.6207 23.9022 79.7775 22.6737C80.8601 21.5262 81.6171 20.1146 81.9715 18.5823C82.7094 15.4359 82.5381 11.2788 82.2806 8.451ZM71.7251 4.0347C72.8792 4.0347 73.8448 4.9599 73.8148 6.102C73.7605 8.343 71.2691 9.5094 71.2691 9.5094C71.2691 9.5094 69.6391 8.2215 69.6391 6.102C69.6392 5.83025 69.6933 5.56118 69.7982 5.31019C69.9031 5.05919 70.0568 4.83118 70.2506 4.63919C70.4443 4.4472 70.6742 4.29499 70.9273 4.19127C71.1803 4.08755 71.4514 4.03434 71.7251 4.0347Z" fill="#777777"/>
<path d="M16.4637 29.0032H20.9477V53.053H15.5735V39.3766L10.4748 47.6422L5.37701 39.3766V53.053H0V29.0032H4.55201L10.5083 38.6782L16.4637 29.0032ZM44.88 41.029C44.88 42.8083 44.6307 44.4814 44.1393 45.997C43.6434 47.5234 42.9335 48.859 42.0224 49.9642C41.1178 51.0685 39.9835 51.9656 38.697 52.594C37.406 53.2312 35.96 53.5516 34.4043 53.5516C32.8241 53.5516 31.3763 53.2312 30.0916 52.594C28.8133 51.963 27.6869 51.0661 26.7889 49.9642C25.876 48.8563 25.1634 47.5234 24.6675 45.9961C24.1779 44.4841 23.9268 42.8083 23.9268 41.029C23.9268 39.2452 24.1788 37.5802 24.6675 36.0745C25.1634 34.5625 25.876 33.2269 26.7835 32.11C27.6813 31.0002 28.8101 30.0961 30.0926 29.4595C31.3754 28.8277 32.8241 28.5073 34.4043 28.5073C35.96 28.5073 37.4033 28.8277 38.697 29.4595C39.9864 30.0925 41.1213 30.997 42.0224 32.11C42.9354 33.2269 43.6434 34.5625 44.1393 36.0745C44.6307 37.5802 44.88 39.2479 44.88 41.029ZM39.5048 41.029C39.5048 39.9238 39.3752 38.8825 39.1286 37.9348C38.8865 37.0078 38.5302 36.2032 38.0688 35.5543C37.6441 34.9371 37.0899 34.4186 36.4441 34.0342C35.8253 33.6744 35.1196 33.4884 34.4025 33.496C33.6346 33.496 32.9465 33.676 32.3427 34.0342C31.7244 34.4014 31.1859 34.9126 30.7353 35.5543C30.2712 36.2023 29.9176 37.0051 29.6782 37.9348C29.4262 38.8798 29.302 39.9211 29.302 41.029C29.302 42.1594 29.4235 43.2061 29.6782 44.1358C29.9176 45.0511 30.2739 45.8512 30.7353 46.5028C31.1859 47.1463 31.7244 47.6593 32.3427 48.022C32.9465 48.3775 33.6319 48.5602 34.4025 48.5602C35.1477 48.5602 35.8331 48.3748 36.4432 48.0202C37.067 47.6602 37.6155 47.1463 38.0688 46.5019C38.5329 45.8512 38.8865 45.0511 39.1286 44.1358C39.3779 43.2034 39.5048 42.1549 39.5048 41.029ZM64.534 53.0557H58.8452L55.3276 45.0979H53.256V53.0557H47.879V29.0032H55.6068C56.7954 29.0032 57.9005 29.203 58.8796 29.5972C59.8696 29.995 60.7291 30.5503 61.4326 31.2487C62.1452 31.9489 62.6964 32.8084 63.0753 33.802C63.447 34.7866 63.6338 35.8801 63.6338 37.0519C63.6338 38.6179 63.3101 40.0075 62.6637 41.1829C62.0835 42.2413 61.3174 43.0801 60.3973 43.6822L64.534 53.0557ZM58.2595 37.0492C58.2595 35.9881 58.0102 35.1745 57.5288 34.6282C57.0501 34.0882 56.3892 33.8272 55.5071 33.8272H53.2533V40.2748H55.5071C56.3892 40.2748 57.0501 40.0129 57.5288 39.4702C58.012 38.9248 58.2595 38.1076 58.2595 37.0492ZM72.2936 48.0616V43.1071H79.3269V38.4487H72.2945V33.9919H81.3359V29.0005H66.9157V53.0512H81.6714V48.0589H72.2945L72.2936 48.0616Z" fill="#999999"/>
</g>
</g>
<defs>
<clipPath id="clip0_4031_3067">
<rect width="82.5" height="54" fill="white"/>
</clipPath>
</defs>
</svg>
