<svg width="55" height="36" viewBox="0 0 55 36" fill="none" xmlns="http://www.w3.org/2000/svg">
<g clip-path="url(#clip0_4025_1110)">
<mask id="mask0_4025_1110" style="mask-type:luminance" maskUnits="userSpaceOnUse" x="0" y="0" width="55" height="36">
<path d="M0 0H55V36H0V0Z" fill="white"/>
</mask>
<g mask="url(#mask0_4025_1110)">
<path d="M9.6111 3.8424H3.58286V7.3662H8.27116V10.47H3.58286V16.548H0V0.516H9.6111V3.8424ZM14.607 0.5166H11.0236V16.5486H14.6064V0.516L14.607 0.5166ZM25.9032 14.1072C25.6433 14.6744 25.2656 15.1807 24.7947 15.5928C24.312 16.0085 23.755 16.3304 23.1526 16.542C22.4974 16.77 21.8076 16.884 21.1134 16.8792C20.6365 16.8773 20.1618 16.8148 19.7009 16.6932C19.2296 16.5681 18.7745 16.3893 18.3446 16.1604C17.9078 15.9289 17.5018 15.6443 17.1358 15.3132C16.7738 14.9864 16.455 14.6155 16.1869 14.2092L16.0594 14.0172L18.2534 11.8452L18.4474 12.1284C18.7474 12.5774 19.1373 12.9603 19.5927 13.2534C20.026 13.5282 20.4872 13.6614 21.0021 13.6614C21.5038 13.6614 21.9124 13.5294 22.2514 13.26C22.5706 13.0032 22.7253 12.6498 22.7253 12.1758C22.7253 11.8998 22.6721 11.6514 22.5657 11.4408C22.4515 11.217 22.2951 11.017 22.1052 10.8516C21.8979 10.6656 21.6531 10.4916 21.3811 10.332C21.0916 10.164 20.7906 9.9918 20.4806 9.816C20.055 9.56575 19.6364 9.30405 19.2252 9.0312C18.7804 8.73855 18.3778 8.38712 18.0285 7.9866C17.6652 7.56418 17.3709 7.08779 17.1564 6.5748C16.9267 6.0336 16.8107 5.3904 16.8107 4.665C16.8107 3.3096 17.2374 2.211 18.0799 1.401C18.9206 0.594 20.0913 0.1848 21.56 0.1848C22.5573 0.1848 23.4451 0.3954 24.1994 0.8064C24.9489 1.2162 25.5653 1.7544 26.0356 2.4024L26.1806 2.6028L23.8404 4.7844L23.6609 4.4766C23.5195 4.2366 23.262 3.9912 22.8915 3.753C22.5304 3.51782 22.1067 3.39517 21.6748 3.4008C21.3025 3.4008 21.004 3.519 20.761 3.7608C20.5168 4.0026 20.3984 4.299 20.3984 4.6656C20.3984 4.9572 20.4515 5.2068 20.5567 5.4096C20.6679 5.6232 20.819 5.8188 21.0118 5.9946C21.2131 6.1806 21.4506 6.3582 21.7165 6.5262C21.9988 6.7038 22.2949 6.8862 22.6074 7.077C23.0124 7.329 23.4282 7.5972 23.8537 7.8786C24.2926 8.16853 24.6953 8.50911 25.0534 8.8932C25.416 9.2832 25.7182 9.7488 25.9527 10.275C26.1903 10.8096 26.3118 11.4498 26.3118 12.1782C26.3087 12.8772 26.1721 13.527 25.9032 14.1078V14.1072ZM39.1836 16.5486H35.6001V10.0296H31.593V16.548H28.0101V0.516H31.5936V6.7026H35.6007V0.5166H39.1836V16.5486ZM54.8537 5.634V5.6178C54.751 4.224 54.5395 3.1368 54.5395 3.1368C54.5395 3.1368 54.4832 3.8628 54.0795 4.9008C53.5966 6.13575 52.8597 7.2572 51.9158 8.1936C51.261 8.83934 50.5329 9.40735 49.746 9.8862L51.842 9.807C51.7792 10.8864 51.5713 12.321 50.6937 13.1814C50.0143 13.8456 48.9833 14.175 47.5508 14.1876C47.3563 14.1857 47.1619 14.1803 46.9676 14.1714C46.6587 14.1432 46.3928 14.0814 46.1782 13.9854C45.8742 13.8492 45.6264 13.6794 45.4439 13.4808C45.2691 13.2971 45.1364 13.0781 45.0547 12.8388C44.9768 12.6217 44.9341 12.3936 44.9284 12.1632C44.9284 11.7684 44.9852 11.4246 45.1 11.1396C45.2052 10.8662 45.3555 10.6121 45.5448 10.3878C45.7264 10.1792 45.9364 9.99664 46.1686 9.8454C47.2305 9.1524 48.8255 8.7576 50.0609 7.8498C50.4619 7.55328 50.827 7.2116 51.1488 6.8316C51.4783 6.44715 51.7449 6.01366 51.9387 5.547C52.1382 5.061 52.2391 4.5186 52.2391 3.9282C52.241 3.41326 52.1453 2.90258 51.9569 2.4228L51.9502 2.4084C51.7592 1.92302 51.4605 1.48661 51.0763 1.1316C50.7003 0.7848 50.2368 0.5082 49.6982 0.306C49.1634 0.1038 48.5572 0 47.8887 0C47.7032 0.000501806 47.5179 0.00931077 47.3332 0.0264C46.9069 0.0632306 46.4872 0.155624 46.0852 0.3012C45.5469 0.493218 45.053 0.790712 44.6328 1.176C44.214 1.56836 43.8838 2.04444 43.664 2.5728C43.4331 3.114 43.3146 3.7272 43.3146 4.3938C43.3146 5.5026 43.7498 6.5862 44.6129 7.6176C44.3965 7.7412 44.1825 7.8756 43.9764 8.016C43.5355 8.31372 43.1379 8.67026 42.7948 9.0756C42.4481 9.48768 42.1704 9.95241 41.9723 10.452C41.7662 10.9704 41.6628 11.559 41.6628 12.207C41.6628 12.7254 41.7559 13.2684 41.9372 13.8258C42.1282 14.4066 42.4521 14.9442 42.906 15.4278C43.343 15.8934 43.9335 16.29 44.6576 16.6062C45.3196 16.8869 46.0292 17.0404 46.7488 17.0586C46.8981 17.0616 47.6705 17.0634 47.7037 17.0634L47.8899 17.0616V17.0586C48.5203 17.0418 49.3175 16.9926 50.1485 16.7946C51.3936 16.4988 52.4138 15.9348 53.185 15.1158C53.9067 14.3508 54.4114 13.4097 54.6476 12.3882C55.1396 10.2906 55.0254 7.5192 54.8537 5.634ZM47.8168 2.6898C48.5862 2.6898 49.2298 3.3066 49.2099 4.068C49.1736 5.562 47.5128 6.3396 47.5128 6.3396C47.5128 6.3396 46.4261 5.481 46.4261 4.068C46.4261 3.88683 46.4622 3.70746 46.5321 3.54012C46.6021 3.37279 46.7045 3.22079 46.8337 3.09279C46.9629 2.9648 47.1162 2.86333 47.2848 2.79418C47.4535 2.72503 47.6343 2.68956 47.8168 2.6898Z" fill="#777777"/>
<path d="M10.9758 19.3355H13.9652V35.3687H10.3823V26.2511L6.98319 31.7615L3.58467 26.2511V35.3687H0V19.3355H3.03467L7.00555 25.7855L10.9758 19.3355ZM29.92 27.3527C29.92 28.5389 29.7538 29.6543 29.4262 30.6647C29.0956 31.6823 28.6224 32.5727 28.0149 33.3095C27.4119 34.0457 26.6556 34.6437 25.798 35.0627C24.9374 35.4875 23.9734 35.7011 22.9362 35.7011C21.8827 35.7011 20.9175 35.4875 20.0611 35.0627C19.2089 34.642 18.4579 34.044 17.8593 33.3095C17.2507 32.5709 16.7756 31.6823 16.445 30.6641C16.1186 29.6561 15.9512 28.5389 15.9512 27.3527C15.9512 26.1635 16.1192 25.0535 16.445 24.0497C16.7756 23.0417 17.2507 22.1513 17.8557 21.4067C18.4542 20.6668 19.2067 20.064 20.0617 19.6397C20.9169 19.2185 21.8827 19.0049 22.9362 19.0049C23.9734 19.0049 24.9355 19.2185 25.798 19.6397C26.6576 20.0616 27.4142 20.6647 28.0149 21.4067C28.6236 22.1513 29.0956 23.0417 29.4262 24.0497C29.7538 25.0535 29.92 26.1653 29.92 27.3527ZM26.3365 27.3527C26.3365 26.6159 26.2501 25.9217 26.0857 25.2899C25.9243 24.6719 25.6868 24.1355 25.3792 23.7029C25.0961 23.2914 24.7266 22.9457 24.2961 22.6895C23.8835 22.4496 23.4131 22.3256 22.935 22.3307C22.4231 22.3307 21.9643 22.4507 21.5618 22.6895C21.1496 22.9343 20.7906 23.2751 20.4902 23.7029C20.1808 24.1349 19.9451 24.6701 19.7855 25.2899C19.6175 25.9199 19.5347 26.6141 19.5347 27.3527C19.5347 28.1063 19.6157 28.8041 19.7855 29.4239C19.9451 30.0341 20.1826 30.5675 20.4902 31.0019C20.7906 31.4309 21.1496 31.7729 21.5618 32.0147C21.9643 32.2517 22.4213 32.3735 22.935 32.3735C23.4318 32.3735 23.8887 32.2499 24.2955 32.0135C24.7113 31.7735 25.077 31.4309 25.3792 31.0013C25.6886 30.5675 25.9243 30.0341 26.0857 29.4239C26.2519 28.8023 26.3365 28.1033 26.3365 27.3527ZM43.0227 35.3705H39.2301L36.8851 30.0653H35.504V35.3705H31.9193V19.3355H37.0712C37.8636 19.3355 38.6003 19.4687 39.2531 19.7315C39.9131 19.9967 40.486 20.3669 40.9551 20.8325C41.4301 21.2993 41.7976 21.8723 42.0502 22.5347C42.298 23.1911 42.4225 23.9201 42.4225 24.7013C42.4225 25.7453 42.2068 26.6717 41.7758 27.4553C41.389 28.1609 40.8783 28.7201 40.2648 29.1215L43.0227 35.3705ZM38.8397 24.6995C38.8397 23.9921 38.6735 23.4497 38.3525 23.0855C38.0334 22.7255 37.5928 22.5515 37.0047 22.5515H35.5022V26.8499H37.0047C37.5928 26.8499 38.0334 26.6753 38.3525 26.3135C38.6747 25.9499 38.8397 25.4051 38.8397 24.6995ZM48.1957 32.0411V28.7381H52.8846V25.6325H48.1963V22.6613H54.224V19.3337H44.6104V35.3675H54.4476V32.0393H48.1963L48.1957 32.0411Z" fill="#999999"/>
</g>
</g>
<defs>
<clipPath id="clip0_4025_1110">
<rect width="55" height="36" fill="white"/>
</clipPath>
</defs>
</svg>
