<svg width="61" height="50" viewBox="0 0 61 50" fill="none" xmlns="http://www.w3.org/2000/svg">
<path fill-rule="evenodd" clip-rule="evenodd" d="M55.2625 27.7998C55.3631 27.1998 55.3631 26.5998 55.3631 25.8998C55.3631 12.2998 44.2905 1.2998 30.6008 1.2998C16.911 1.2998 5.83838 12.2998 5.83838 25.8998V27.7998H55.2625Z" fill="#999999"/>
<path fill-rule="evenodd" clip-rule="evenodd" d="M30.6006 4.90039C18.924 4.90039 9.36133 14.3004 9.36133 25.9004C9.36133 26.5004 9.46199 27.2004 9.46199 27.9004L9.56265 28.3004H51.5379L51.6386 27.9004C51.7392 27.2004 51.7392 26.5004 51.7392 25.9004C51.7392 14.3004 42.1765 4.90039 30.6006 4.90039Z" fill="#D9D9D9"/>
<path fill-rule="evenodd" clip-rule="evenodd" d="M30.6009 8.40039C20.8368 8.40039 12.9854 16.3004 12.9854 25.9004C12.9854 26.5004 12.9854 27.2004 13.086 27.9004L13.1867 28.7004H47.9144L48.0151 27.9004C48.1157 27.2004 48.1157 26.5004 48.1157 25.9004C48.1157 16.3004 40.2642 8.40039 30.6009 8.40039Z" fill="#BABABA"/>
<path fill-rule="evenodd" clip-rule="evenodd" d="M30.5 10.7002C26.3729 10.7002 23.5544 12.5002 22.1452 15.6002C21.6419 17.0002 22.1452 17.9002 23.7558 18.2002C24.4604 18.3002 25.5676 18.4002 26.9769 18.4002C26.5742 20.1002 26.1716 22.3002 25.9703 23.3002V24.9002C25.9703 26.4002 27.0775 26.0002 29.0907 26.4002H31.9092C33.8218 26.0002 34.929 26.5002 34.929 24.9002C34.929 24.9002 35.0297 24.2002 34.929 23.3002C34.8284 22.4002 34.4257 20.1002 34.0231 18.4002C35.4323 18.4002 36.5396 18.3002 37.2442 18.2002C38.8548 17.9002 39.3581 17.0002 38.9554 15.6002C37.4455 12.5002 34.6271 10.7002 30.5 10.7002Z" fill="white"/>
<path fill-rule="evenodd" clip-rule="evenodd" d="M40.9686 17.8002C38.6534 17.7002 37.0428 18.8002 36.1369 20.7002C35.9356 21.6002 36.1369 22.1002 37.1435 22.3002C37.4455 22.4002 38.1501 22.4002 38.9554 22.4002C38.6534 23.5002 38.4521 24.5002 38.3514 25.4002V25.5002C38.3514 26.5002 39.056 27.1002 40.1633 27.3002H41.7739C42.8811 27.1002 43.4851 26.5002 43.4851 25.5002V25.4002C43.3844 24.5002 43.1831 23.5002 42.9818 22.4002C43.7871 22.4002 44.391 22.4002 44.7937 22.3002C45.6996 22.1002 46.0016 21.6002 45.8003 20.7002C44.8943 18.8002 43.2838 17.8002 40.9686 17.8002ZM20.0313 17.8002C17.7161 17.7002 16.1055 18.8002 15.3003 20.7002C14.9983 21.6002 15.3003 22.1002 16.2062 22.3002C16.6088 22.4002 17.2128 22.4002 18.0181 22.4002C17.8168 23.5002 17.6154 24.5002 17.5148 25.4002V25.5002C17.5148 26.5002 18.1187 27.1002 19.226 27.3002H20.8366C21.9438 27.1002 22.6484 26.5002 22.6484 25.5002V25.4002C22.4471 24.5002 22.3465 23.5002 22.0445 22.4002C22.8498 22.4002 23.5544 22.4002 23.8564 22.3002C24.863 22.1002 25.1649 21.6002 24.863 20.7002C24.0577 18.8002 22.4471 17.8002 20.0313 17.8002Z" fill="white"/>
<path fill-rule="evenodd" clip-rule="evenodd" d="M59.6915 26.0004C59.4902 26.3004 59.4902 26.5004 59.3895 26.9004C59.2889 26.5004 58.8862 25.0004 58.8862 25.0004C58.8862 25.0004 58.7856 26.5004 58.3829 26.9004V26.2004C58.3829 26.2004 57.8796 26.7004 57.6783 27.0004C57.3763 26.4004 57.779 25.5004 57.779 25.5004C57.779 25.5004 56.7724 26.2004 56.2691 26.8004C56.0677 26.1004 56.4704 25.4004 56.571 24.8004C55.8664 25.1004 55.0611 26.8004 55.0611 26.8004C55.0611 26.8004 55.7658 25.1004 55.5644 23.8004C55.0611 25.9004 54.3565 26.4004 54.3565 26.4004L54.2559 25.0004L53.8532 25.6004L53.7526 23.8004L52.8466 26.3004L52.746 24.9004C52.746 24.9004 52.444 25.6004 52.3433 26.1004C52.142 25.9004 52.142 25.1004 52.142 25.1004L51.7394 26.1004L51.538 23.9004L51.0347 24.8004V23.4004C50.7328 24.2004 50.4308 25.0004 50.2295 25.9004C50.2295 24.8004 50.0281 22.2004 50.0281 22.2004L49.6255 25.9004C49.6255 25.9004 49.4242 22.5004 48.8202 21.8004C49.0215 24.2004 48.3169 25.9004 48.3169 25.9004L48.0149 24.8004C48.0149 24.8004 47.713 26.1004 47.2097 26.5004C47.0083 25.7004 47.411 24.7004 47.3103 23.7004C47.0083 24.4004 46.9077 25.3004 46.7064 26.1004C46.4044 25.4004 46.807 23.9004 46.807 23.9004C46.807 23.9004 46.2031 24.8004 45.5991 26.0004C45.5991 24.9004 45.5991 24.2004 45.9011 23.0004C45.1965 23.3004 44.5925 25.8004 44.5925 25.8004C44.5925 25.8004 44.4918 24.5004 44.4918 23.9004C44.1899 24.3004 44.0892 25.8004 44.0892 25.8004L43.7872 25.4004C43.7872 25.4004 43.7872 26.0004 43.5859 26.1004C43.5859 24.7004 43.0826 24.4004 42.8813 23.2004C42.8813 24.1004 42.9819 25.7004 42.8813 25.9004C42.5793 25.4004 42.5793 24.7004 42.4786 24.0004C42.076 24.5004 42.1767 25.7004 41.9753 25.9004C41.774 25.7004 41.774 24.9004 41.774 24.9004C41.774 24.9004 41.5727 25.2004 41.5727 25.4004C41.1701 24.5004 41.1701 23.3004 40.7674 22.4004C40.4654 22.8004 40.9687 26.2004 40.4654 26.2004C40.5661 25.3004 40.4654 24.4004 40.2641 23.6004C40.0628 24.3004 39.8615 26.3004 39.5595 26.3004C39.7608 22.7004 39.3582 18.9004 39.3582 18.9004C39.3582 21.3004 39.1569 23.3004 38.7542 25.4004C38.5529 25.0004 38.3516 23.7004 38.3516 23.7004C38.3516 23.7004 38.2509 25.0004 38.1503 25.5004C37.8483 24.3004 38.3516 23.0004 38.5529 21.9004C37.7476 22.4004 37.043 23.9004 36.9423 25.4004C36.8417 25.0004 36.741 24.3004 36.6404 23.7004C36.5397 24.0004 36.6404 25.8004 36.6404 26.2004C36.1371 25.0004 36.2377 23.2004 35.9357 21.9004C35.8351 22.8004 35.7344 25.1004 35.7344 25.1004L35.5331 24.1004C35.5331 24.1004 35.3318 25.0004 35.0298 25.1004C34.9291 23.7004 34.5265 22.8004 34.0232 21.6004C34.1239 23.6004 33.3186 25.7004 33.3186 25.7004C33.3186 25.7004 33.3186 24.1004 33.4192 23.2004C32.9159 24.0004 32.614 24.9004 32.4126 25.9004C32.1107 24.8004 32.312 21.9004 32.312 21.9004C32.312 21.9004 31.6073 24.1004 31.3054 25.2004C31.0034 24.5004 31.2047 23.1004 30.9027 22.4004C30.6007 23.4004 30.5001 24.6004 30.0974 25.5004C29.8961 25.0004 29.8961 24.3004 29.8961 23.4004C29.4935 23.8004 29.3928 24.6004 29.1915 25.2004C28.9902 24.7004 29.1915 23.6004 29.0908 22.9004C28.6882 23.5004 28.5875 24.5004 28.3862 25.4004C27.9836 24.7004 28.1849 23.3004 28.0842 22.2004C27.8829 23.1004 26.8763 25.4004 26.8763 25.4004L25.9704 23.1004L25.0644 25.4004C25.0644 25.4004 25.3664 23.1004 25.2658 22.2004C25.1651 22.6004 25.0644 23.7004 25.0644 24.0004C24.7625 22.8004 24.4605 21.7004 24.0578 20.7004C24.0578 21.1004 24.2592 22.4004 24.1585 23.3004C24.1585 23.9004 24.0578 24.2004 24.0578 23.2004C23.7559 20.3004 22.0446 18.9004 22.0446 18.9004C22.1453 19.0004 22.246 19.2004 22.3466 19.3004C23.4539 20.8004 24.2592 23.1004 23.6552 24.8004C23.3532 24.4004 23.0512 23.7004 23.5545 22.2004C22.6486 22.6004 22.4473 23.6004 22.246 24.6004C21.944 24.2004 21.8433 22.7004 21.8433 22.7004C21.8433 22.7004 21.642 23.7004 21.4407 24.1004C21.2394 23.1004 21.2394 21.9004 20.6354 21.4004C20.9374 22.5004 20.9374 23.6004 20.6354 24.1004C20.4341 23.5004 20.2328 22.0004 20.2328 22.0004C20.2328 22.0004 19.8301 23.4004 19.7295 24.1004C19.4275 23.3004 19.5281 22.2004 19.1255 21.5004C19.0248 22.5004 18.9242 23.6004 18.7229 24.5004C18.5215 24.1004 18.7229 23.4004 18.8235 23.0004C18.6222 23.1004 17.9176 24.4004 17.5149 24.8004C17.5149 23.8004 18.2196 22.8004 18.2196 22.8004C18.2196 22.8004 17.3136 22.9004 16.609 24.8004C16.307 24.5004 16.1057 23.8004 16.1057 23.2004C15.7031 23.7004 15.5017 24.2004 15.3004 24.8004C15.1998 24.0004 15.1998 22.9004 15.0991 21.7004C14.6965 22.5004 14.4951 25.3004 14.1932 25.4004C14.1932 24.3004 13.3879 22.8004 13.2872 22.7004C13.1866 24.5004 12.6833 25.0004 12.6833 25.0004V23.6004C12.6833 23.6004 11.7773 25.6004 11.576 25.8004C11.4753 25.3004 11.3747 24.2004 11.274 23.3004C10.8714 23.8004 10.972 24.6004 10.6701 25.1004C10.4687 24.8004 10.6701 24.2004 10.5694 23.8004C10.1668 24.3004 9.96543 24.9004 9.76411 25.4004C9.36147 24.7004 9.46213 23.5004 8.95883 23.1004C8.85817 23.6004 8.95883 24.8004 8.85817 25.5004C8.55619 25.0004 8.55619 24.3004 8.35487 23.9004C8.05289 24.2004 8.35487 25.9004 8.05289 26.0004C7.85157 25.6004 7.54959 25.2004 7.54959 24.7004C7.24761 25.0004 7.24761 25.4004 7.14695 25.8004C6.74431 25.1004 7.24761 24.1004 7.54959 23.4004C6.94563 23.7004 6.34167 24.5004 6.14035 25.4004C6.14035 25.1004 5.93903 24.6004 5.93903 24.4004C5.73771 25.0004 5.73771 25.2004 5.53639 25.6004C5.43573 25.2004 5.63705 24.5004 5.43573 24.1004C5.33507 24.4004 4.63045 25.6004 4.63045 25.6004C4.63045 25.6004 4.73111 24.6004 4.52979 24.1004C4.42913 24.7004 3.92583 26.0004 3.92583 26.1004C3.62385 25.8004 3.62385 25.4004 3.52319 24.9004C3.42253 25.2004 3.42253 25.5004 3.42253 25.8004C3.12055 25.3004 3.12055 24.3004 2.81857 23.7004C2.61725 24.3004 2.41593 25.2004 2.41593 25.9004C2.11395 25.5004 2.01329 24.2004 2.01329 24.2004C2.01329 24.2004 1.20801 25.5004 1.20801 26.9004V45.9004C1.20801 47.7004 2.61725 49.1004 4.42913 49.1004H56.873C58.5842 49.1004 60.0942 47.7004 60.0942 45.9004V29.7004C60.0942 26.6004 59.6915 26.4004 59.6915 26.0004Z" fill="#777777"/>
<path fill-rule="evenodd" clip-rule="evenodd" d="M13.6897 39.6998C13.0857 39.6998 12.4818 39.5998 12.0791 39.4998V43.0998H11.2738C10.5692 43.0998 10.0659 42.7998 10.0659 41.9998V34.0998C10.6699 33.8998 11.9785 33.6998 12.6831 33.6998H13.6897C15.7029 33.6998 17.2128 34.7998 17.2128 36.5998C17.2128 38.4998 15.7029 39.6998 13.6897 39.6998ZM13.3877 35.1998H12.9851C12.7837 35.1998 12.2804 35.1998 12.0791 35.2998V38.0998C12.4818 38.1998 12.9851 38.2998 13.4884 38.2998C14.3943 38.2998 15.0989 37.6998 15.0989 36.7998C15.0989 35.4998 14.3943 35.1998 13.3877 35.1998ZM21.2392 43.2998C19.3266 43.2998 17.8167 42.5998 17.8167 40.8998C17.8167 39.5998 18.924 38.5998 21.6418 38.5998H22.1451V38.2998C22.1451 37.2998 21.6418 36.9998 20.6352 36.9998C19.3266 36.9998 18.622 37.3998 18.2194 37.8998H18.1187V37.1998C18.1187 36.4998 18.924 35.5998 20.9372 35.5998C22.8497 35.5998 24.1583 36.3998 24.1583 38.5998V40.5998C24.1583 42.2998 23.0511 43.2998 21.2392 43.2998ZM22.1451 39.8998H21.6418C20.2326 39.8998 19.8299 40.1998 19.8299 40.8998C19.8299 41.4998 20.2326 41.8998 21.1385 41.8998C21.8431 41.8998 22.1451 41.5998 22.1451 40.5998V39.8998ZM35.7342 45.4998C34.8283 45.4998 34.325 45.1998 34.325 44.5998V44.0998H35.1303C35.7342 44.0998 36.1369 43.8998 36.6402 42.5998C35.4323 40.9998 34.1237 37.5998 33.9224 35.7998H35.0296C35.5329 35.7998 36.1369 36.0998 36.2375 36.5998C36.4389 37.7998 36.9422 39.5998 37.6468 40.7998C38.2507 39.4998 38.9554 37.2998 39.056 35.7998H40.0626C40.5659 35.7998 40.9686 35.9998 40.9686 36.3998C40.9686 37.2998 40.3646 39.3998 39.2573 41.5998C37.8481 44.4998 37.0428 45.4998 35.7342 45.4998ZM46.5049 37.3998C46.2029 37.2998 45.8002 37.1998 45.3976 37.1998C44.5923 37.1998 44.1897 37.5998 44.1897 38.6998V43.0998H43.5857C42.6798 43.0998 42.0758 42.6998 42.0758 41.9998V38.5998C42.0758 36.8998 42.9818 35.6998 44.995 35.6998C46.2029 35.6998 46.6055 36.0998 46.6055 36.7998L46.5049 37.3998ZM50.6319 43.2998C48.7194 43.2998 47.2095 42.5998 47.2095 40.8998C47.2095 39.5998 48.3167 38.5998 50.9339 38.5998H51.5379V38.2998C51.5379 37.2998 51.0346 36.9998 50.028 36.9998C48.7194 36.9998 48.0148 37.3998 47.6121 37.8998H47.5115V37.1998C47.5115 36.4998 48.3167 35.5998 50.3299 35.5998C52.2425 35.5998 53.5511 36.3998 53.5511 38.5998V40.5998C53.5511 42.2998 52.4438 43.2998 50.6319 43.2998ZM51.5379 39.8998H50.9339C49.6253 39.8998 49.2227 40.1998 49.2227 40.8998C49.2227 41.4998 49.6253 41.8998 50.5313 41.8998C51.2359 41.8998 51.5379 41.5998 51.5379 40.5998V39.8998ZM29.0907 45.2998C27.3794 45.2998 26.1715 44.6998 26.1715 43.7998V43.0998H26.2722C26.7755 43.5998 27.7821 43.7998 28.8894 43.7998C29.896 43.7998 30.6006 43.4998 30.6006 42.2998V41.2998C30.2986 41.8998 29.594 42.2998 28.7887 42.2998C26.9768 42.2998 25.6682 41.0998 25.6682 39.1998C25.6682 37.2998 26.9768 35.5998 29.594 35.5998C31.3052 35.5998 32.5131 36.4998 32.5131 38.4998V40.8998C32.5131 41.3998 32.6138 41.8998 32.6138 42.3998C32.6138 44.0998 31.2045 45.2998 29.0907 45.2998ZM27.7821 38.8998C27.7821 40.1998 28.2854 40.8998 29.1913 40.8998C29.9966 40.8998 30.6006 40.1998 30.6006 38.8998C30.6006 37.2998 30.0973 36.9998 29.1913 36.9998C28.4867 36.9998 27.7821 37.7998 27.7821 38.8998ZM19.8299 28.5998H21.4405C21.6418 28.5998 21.7425 28.5998 21.7425 28.7998C21.7425 28.9998 21.6418 28.9998 21.4405 28.9998H20.1319V31.8998C20.1319 31.9998 20.0313 32.1998 19.8299 32.1998C19.7293 32.1998 19.528 31.9998 19.528 31.8998V28.7998C19.528 28.6998 19.7293 28.5998 19.8299 28.5998ZM22.2458 28.7998C22.2458 28.5998 22.3464 28.4998 22.5478 28.4998C22.7491 28.4998 22.8497 28.5998 22.8497 28.7998V28.9998C23.0511 28.6998 23.353 28.4998 23.8563 28.4998C24.8629 28.4998 25.3662 29.3998 25.3662 30.2998C25.3662 31.2998 24.8629 32.1998 23.8563 32.1998C23.353 32.1998 22.9504 31.8998 22.8497 31.6998V33.1998C22.8497 33.3998 22.7491 33.5998 22.5478 33.5998C22.3464 33.5998 22.2458 33.3998 22.2458 33.1998V28.7998ZM23.7557 31.6998C24.4603 31.6998 24.7623 30.8998 24.7623 30.2998C24.7623 29.6998 24.4603 28.9998 23.7557 28.9998C23.0511 28.9998 22.7491 29.6998 22.7491 30.2998C22.7491 30.8998 23.0511 31.6998 23.7557 31.6998ZM28.4867 32.1998C28.2854 32.1998 28.1847 31.9998 28.1847 31.8998V29.5998L26.5742 31.9998C26.4735 32.0998 26.3728 32.1998 26.2722 32.1998C26.0709 32.1998 25.9702 31.9998 25.9702 31.8998V28.7998C25.9702 28.5998 26.0709 28.4998 26.2722 28.4998C26.3728 28.4998 26.5742 28.5998 26.5742 28.7998V31.0998L28.1847 28.6998C28.2854 28.5998 28.2854 28.4998 28.4867 28.4998C28.688 28.4998 28.7887 28.5998 28.7887 28.7998V31.8998C28.7887 31.9998 28.688 32.1998 28.4867 32.1998ZM29.9966 29.0998C30.0973 28.6998 30.6006 28.4998 31.0032 28.4998C32.0098 28.4998 32.6138 29.3998 32.6138 30.2998C32.6138 31.2998 32.0098 32.1998 31.0032 32.1998C30.3992 32.1998 29.896 31.8998 29.6946 31.3998C29.3926 30.8998 29.3927 30.1998 29.3927 29.7998C29.3927 28.9998 29.594 28.3998 29.896 28.0998C30.1979 27.7998 30.4999 27.5998 31.6072 27.4998C31.8085 27.4998 31.8085 27.2998 32.0098 27.2998C32.2111 27.2998 32.3118 27.4998 32.3118 27.5998C32.3118 27.7998 32.1105 27.9998 31.7078 27.9998C31.2045 27.9998 30.6006 28.0998 30.2986 28.2998C29.9966 28.4998 29.9966 28.7998 29.896 29.0998H29.9966ZM31.0032 28.9998C30.2986 28.9998 29.9966 29.6998 29.9966 30.2998C29.9966 30.8998 30.2986 31.6998 31.0032 31.6998C31.7078 31.6998 32.0098 30.8998 32.0098 30.2998C32.0098 29.6998 31.7078 28.9998 31.0032 28.9998ZM33.721 31.8998C33.721 31.9998 33.6204 32.1998 33.4191 32.1998C33.3184 32.1998 33.2177 31.9998 33.2177 31.8998V28.7998C33.2177 28.5998 33.3184 28.4998 33.4191 28.4998C33.6204 28.4998 33.721 28.5998 33.721 28.7998V29.9998H35.4323V28.7998C35.4323 28.5998 35.5329 28.4998 35.7342 28.4998C35.9356 28.4998 36.0362 28.5998 36.0362 28.7998V31.8998C36.0362 31.9998 35.9356 32.1998 35.7342 32.1998C35.5329 32.1998 35.4323 31.9998 35.4323 31.8998V30.4998H33.721V31.8998ZM39.1567 32.1998C38.9554 32.1998 38.8547 31.9998 38.8547 31.8998V31.6998C38.5527 31.9998 38.2507 32.1998 37.8481 32.1998C37.2441 32.1998 36.6402 31.8998 36.6402 31.0998C36.6402 29.9998 37.8481 29.8998 38.754 29.8998H38.8547V29.4998C38.8547 29.1998 38.6534 28.9998 38.2507 28.9998C37.6468 28.9998 37.5461 29.3998 37.3448 29.3998C37.1435 29.3998 37.0428 29.2998 37.0428 29.0998C37.0428 28.7998 37.7474 28.4998 38.2507 28.4998C39.056 28.4998 39.4587 28.8998 39.4587 29.4998V31.8998C39.4587 31.9998 39.358 32.1998 39.1567 32.1998ZM38.8547 30.3998H38.754C37.9488 30.3998 37.2441 30.3998 37.2441 31.0998C37.2441 31.4998 37.5461 31.6998 37.9488 31.6998C38.4521 31.6998 38.8547 31.2998 38.8547 30.6998V30.3998ZM42.3778 32.1998C42.1765 32.1998 42.0758 31.9998 42.0758 31.8998V30.4998L40.5659 31.9998C40.4653 32.0998 40.3646 32.1998 40.2639 32.1998C40.1633 32.1998 40.0626 31.9998 40.0626 31.8998V31.6998L41.2705 30.4998H41.0692C40.5659 30.4998 40.0626 30.1998 40.0626 29.4998C40.0626 28.8998 40.6666 28.5998 41.1699 28.5998H42.3778C42.5791 28.5998 42.6798 28.6998 42.6798 28.7998V31.8998C42.6798 31.9998 42.5791 32.1998 42.3778 32.1998ZM42.0758 28.9998H41.2705C40.8679 28.9998 40.6666 29.1998 40.6666 29.4998C40.6666 29.8998 40.8679 30.0998 41.2705 30.0998H42.0758V28.9998Z" fill="white"/>
</svg>
