<svg width="75" height="42" viewBox="0 0 75 42" fill="none" xmlns="http://www.w3.org/2000/svg">
<g clip-path="url(#clip0_4031_3275)">
<path fill-rule="evenodd" clip-rule="evenodd" d="M48.4064 -2.82422C48.9984 -2.82499 49.5762 -2.64233 50.0601 -2.30135C50.5441 -1.96038 50.9106 -1.47784 51.1091 -0.920097L54.0396 6.09985L57.1895 -1.18522L57.1973 -1.182C57.4296 -1.67379 57.797 -2.08934 58.2567 -2.38012C58.7164 -2.67091 59.2492 -2.82493 59.7931 -2.82422C60.5518 -2.82541 61.2799 -2.52522 61.8173 -1.98966C62.3546 -1.4541 62.6573 -0.727033 62.6587 0.0316411C62.6592 0.484548 62.5511 0.930972 62.3433 1.33344L62.3485 1.33602L54.0396 17.0497L45.9116 1.43512C45.6681 1.00748 45.5403 0.523738 45.5409 0.0316411C45.5423 -0.727033 45.8449 -1.4541 46.3823 -1.98966C46.9196 -2.52522 47.6477 -2.82541 48.4064 -2.82422Z" fill="#999999"/>
<path fill-rule="evenodd" clip-rule="evenodd" d="M21.4453 4.58781C22.095 4.96419 22.5685 5.5832 22.7619 6.3087C22.9552 7.0342 22.8524 7.80678 22.4762 8.45653C22.0969 9.10865 21.4748 9.58402 20.7459 9.77865C20.0171 9.97329 19.2408 9.87135 18.5869 9.49514L18.5026 9.44366C14.6989 7.31882 9.84815 8.63864 7.66218 12.4115C5.45883 16.2139 6.77415 21.1052 10.5901 23.3008C13.5406 24.9977 17.1442 24.5981 19.6461 22.5736L13.4363 19.0009L13.4376 18.9977C12.8067 18.6146 12.351 17.9995 12.1683 17.2844C11.9855 16.5692 12.0903 15.8109 12.4601 15.1721C12.8319 14.5326 13.4382 14.0632 14.1503 13.8632C14.8625 13.6633 15.6245 13.7487 16.2748 14.1013L16.2767 14.0981L23.8996 18.4829C24.3462 14.9977 27.4711 11.9115 31.1487 11.9115C33.7574 11.9115 35.6442 12.9437 36.8604 14.1489C38.5515 12.7033 40.7037 11.9097 42.9286 11.9115C48.0811 11.9115 52.2832 16.0981 52.2832 21.232C52.2832 22.2281 52.1249 23.1882 51.8327 24.0891H51.9067L54.0399 29.1901L56.1731 24.0891H56.2497C55.9494 23.1665 55.7967 22.2022 55.7973 21.232C55.7973 16.0981 59.9994 11.9115 65.1519 11.9115C70.3044 11.9115 74.5065 16.0981 74.5065 21.232C74.5065 26.3658 70.3044 30.5524 65.1519 30.5524C63.4041 30.5524 61.7664 30.0698 60.3649 29.2332L54.0399 41.0981L47.7162 29.2332C46.2691 30.098 44.6144 30.554 42.9286 30.5524C37.7761 30.5524 33.574 26.3658 33.574 21.232C33.574 20.2989 33.7137 19.3967 33.9723 18.5453L33.9067 18.5839C33.5129 17.7281 32.6886 17.2641 31.7574 17.2641C30.6474 17.2641 29.5727 18.12 29.5727 19.5112V27.6966C29.5727 29.2699 28.2857 30.5524 26.7072 30.5524C25.13 30.5524 23.8424 29.2699 23.8424 27.6966L23.843 27.6818V26.47C19.5489 30.3761 13.0303 31.2686 7.73811 28.2242C1.20014 24.463 -1.05404 16.0833 2.72074 9.56915C6.49551 3.05499 14.9061 0.809815 21.4447 4.57043L21.4524 4.57558L21.4453 4.58845V4.58781ZM42.9286 17.3549C45.0714 17.3549 46.8198 19.0968 46.8198 21.232C46.8198 23.3671 45.0721 25.1084 42.9286 25.1084C40.7857 25.1084 39.038 23.3671 39.038 21.232C39.038 19.0968 40.7857 17.3549 42.9286 17.3549ZM65.1519 17.3549C67.2947 17.3549 69.0425 19.0968 69.0425 21.232C69.0425 23.3671 67.2947 25.1084 65.1519 25.1084C63.0084 25.1084 61.2606 23.3671 61.2606 21.232C61.2606 19.0968 63.0084 17.3549 65.1519 17.3549Z" fill="#777777"/>
</g>
<defs>
<clipPath id="clip0_4031_3275">
<rect width="75" height="42" fill="white"/>
</clipPath>
</defs>
</svg>
