<svg width="50" height="28" viewBox="0 0 50 28" fill="none" xmlns="http://www.w3.org/2000/svg">
<g clip-path="url(#clip0_4030_2015)">
<path fill-rule="evenodd" clip-rule="evenodd" d="M32.2709 -1.88281C32.6656 -1.88332 33.0508 -1.76155 33.3734 -1.53424C33.6961 -1.30692 33.9404 -0.985228 34.0727 -0.613398L36.0264 4.06657L38.1264 -0.790146L38.1315 -0.788001C38.2864 -1.11586 38.5314 -1.39289 38.8378 -1.58675C39.1442 -1.78061 39.4995 -1.88329 39.8621 -1.88281C40.3679 -1.88361 40.8533 -1.68348 41.2115 -1.32644C41.5698 -0.969401 41.7715 -0.484689 41.7724 0.0210939C41.7728 0.323032 41.7007 0.620648 41.5622 0.888961L41.5657 0.890678L36.0264 11.3664L30.6077 0.956744C30.4454 0.671655 30.3602 0.349159 30.3606 0.0210939C30.3615 -0.484689 30.5633 -0.969401 30.9215 -1.32644C31.2798 -1.68348 31.7652 -1.88361 32.2709 -1.88281Z" fill="#999999"/>
<path fill-rule="evenodd" clip-rule="evenodd" d="M14.2969 3.05919C14.73 3.31011 15.0457 3.72279 15.1746 4.20645C15.3035 4.69012 15.235 5.20517 14.9841 5.63834C14.7313 6.07308 14.3165 6.38999 13.8306 6.51975C13.3447 6.64951 12.8272 6.58155 12.3913 6.33075L12.3351 6.29643C9.79924 4.87987 6.56543 5.75975 5.10812 8.27498C3.63922 10.8099 4.5161 14.0708 7.06007 15.5345C9.02704 16.6658 11.4294 16.3994 13.0974 15.0498L8.95754 12.6679L8.9584 12.6658C8.53778 12.4104 8.234 12.0003 8.11218 11.5236C7.99036 11.0468 8.06021 10.5413 8.30675 10.1154C8.5546 9.68907 8.95878 9.37609 9.43356 9.24281C9.90834 9.10954 10.4164 9.16647 10.8499 9.40153L10.8511 9.39939L15.9331 12.3226C16.2308 9.99913 18.314 7.94164 20.7658 7.94164C22.5049 7.94164 23.7628 8.62976 24.5736 9.43328C25.701 8.46951 27.1358 7.94047 28.6191 7.94164C32.0541 7.94164 34.8554 10.7327 34.8554 14.1553C34.8554 14.8194 34.7499 15.4594 34.5551 16.06H34.6045L36.0266 19.4607L37.4487 16.06H37.4998C37.2996 15.445 37.1978 14.8021 37.1982 14.1553C37.1982 10.7327 39.9996 7.94164 43.4346 7.94164C46.8696 7.94164 49.671 10.7327 49.671 14.1553C49.671 17.5779 46.8696 20.3689 43.4346 20.3689C42.2694 20.3689 41.1776 20.0472 40.2433 19.4895L36.0266 27.3994L31.8108 19.4895C30.8461 20.066 29.743 20.37 28.6191 20.3689C25.1841 20.3689 22.3827 17.5779 22.3827 14.1553C22.3827 13.5332 22.4758 12.9318 22.6482 12.3642L22.6045 12.3899C22.3419 11.8194 21.7924 11.5101 21.1716 11.5101C20.4316 11.5101 19.7152 12.0806 19.7152 13.0081V18.465C19.7152 19.5139 18.8572 20.3689 17.8048 20.3689C16.7533 20.3689 15.8949 19.5139 15.8949 18.465L15.8953 18.4552V17.6473C13.0326 20.2514 8.68684 20.8464 5.15874 18.8168C0.800096 16.3093 -0.702693 10.7229 1.81382 6.38008C4.33034 2.03731 9.93738 0.540528 14.2964 3.04761L14.3016 3.05104L14.2969 3.05962V3.05919ZM28.6191 11.5706C30.0476 11.5706 31.2132 12.7319 31.2132 14.1553C31.2132 15.5787 30.0481 16.7396 28.6191 16.7396C27.1905 16.7396 26.0253 15.5787 26.0253 14.1553C26.0253 12.7319 27.1905 11.5706 28.6191 11.5706ZM43.4346 11.5706C44.8632 11.5706 46.0283 12.7319 46.0283 14.1553C46.0283 15.5787 44.8632 16.7396 43.4346 16.7396C42.0056 16.7396 40.8404 15.5787 40.8404 14.1553C40.8404 12.7319 42.0056 11.5706 43.4346 11.5706Z" fill="#777777"/>
</g>
<defs>
<clipPath id="clip0_4030_2015">
<rect width="50" height="28" fill="white"/>
</clipPath>
</defs>
</svg>
