<svg width="100" height="38" viewBox="0 0 100 38" fill="none" xmlns="http://www.w3.org/2000/svg">
<path fill-rule="evenodd" clip-rule="evenodd" d="M50.0881 0.0253906L52.4279 0.763672C53.6357 1.14109 55.7245 1.64378 56.5549 1.81152C58.4589 2.20575 65.3952 3.4807 74.5705 3.50586C75.4617 3.50584 88.7277 3.42188 88.7277 3.42188C92.7365 3.43865 95.2692 4.84773 96.6867 6.03027C98.8422 7.82512 100.008 10.3837 99.9914 13.2354H100V24.4229C100.017 27.2829 98.8426 29.8331 96.6955 31.6279C95.2781 32.8189 92.7453 34.2278 88.7365 34.2363C88.7365 34.2363 75.4589 34.1523 74.5783 34.1523C65.4113 34.1859 58.4665 35.4609 56.5627 35.8467C55.7321 36.0145 53.6443 36.5088 52.4367 36.8945C52.4367 36.8945 50.2011 37.6065 50.0969 37.6328C50.0381 37.6496 49.9706 37.6496 49.9035 37.6328C49.8073 37.5981 47.5637 36.8945 47.5637 36.8945C46.3561 36.5172 44.2683 36.0145 43.4377 35.8467C41.5338 35.4525 34.5974 34.1775 25.4221 34.1523C24.533 34.1523 11.2639 34.2363 11.2639 34.2363C7.25508 34.2195 4.72225 32.8105 3.30487 31.6279C1.14938 29.8331 -0.0165957 27.2745 0.000178525 24.4229V13.2354C-0.0165952 10.3838 1.14911 7.82511 3.29608 6.03027C4.7135 4.8393 7.24699 3.43026 11.256 3.42188C11.3099 3.42222 24.5338 3.50586 25.4133 3.50586C34.5804 3.47231 41.525 2.20572 43.4289 1.81152C44.2591 1.6438 46.3471 1.14945 47.5549 0.763672L49.8869 0.0253906L49.9875 0L50.0881 0.0253906ZM48.8215 4.79883C47.3957 5.26008 45.1568 5.78032 44.2678 5.96484C42.2632 6.37581 34.9746 7.718 25.4133 7.74316C19.3288 7.76827 11.2902 7.65964 11.256 7.65918C8.51345 7.66757 6.8779 8.54807 5.99725 9.28613C4.82306 10.2674 4.21054 11.618 4.21893 13.2031V24.458C4.20215 26.0432 4.82305 27.4025 5.99725 28.3838C6.88632 29.1218 8.5136 30.0024 11.256 30.0107L25.4133 29.9268C34.9824 29.9519 42.2621 31.294 44.2756 31.7051C45.1646 31.8812 47.3961 32.4094 48.8303 32.8623L49.9963 33.2061L51.0109 32.8711C52.4533 32.4267 54.7256 31.9061 55.5646 31.7383C57.5356 31.3441 64.7074 30.0781 74.1262 30.0781C74.206 30.0792 87.0373 30.2455 88.6017 30.2539H88.6525C91.8983 30.2538 95.6893 28.811 95.7228 24.7686V12.9092C95.6892 8.85 91.8899 7.4073 88.6525 7.40723H88.6105C87.0254 7.41561 74.1174 7.58301 74.1174 7.58301C64.6986 7.583 57.5274 6.31705 55.548 5.92285C54.7092 5.75506 52.4368 5.23546 50.9943 4.79102L49.9875 4.45508L48.8215 4.79883Z" fill="#999999"/>
<path d="M8.34521 11.1797H12.1697L12.1781 16.1113H15.013V11.1797H18.8375V25.4881H15.013V19.9358H12.1781V25.4797L8.34521 25.4881V11.1797ZM53.795 11.1797H57.435V25.4881H53.6273V11.1797M25.4214 22.4436C26.2433 22.4436 27.493 21.9655 27.4846 19.9526C27.4678 17.9397 26.2098 17.4784 25.3962 17.4784C24.5743 17.4868 23.3246 17.9481 23.3414 19.9694C23.3414 21.9823 24.5995 22.452 25.4214 22.4436ZM20.0369 20.0029C20.0369 15.6081 23.2911 14.3249 25.4046 14.3081C27.5182 14.2997 30.7724 15.5662 30.7724 19.961C30.7724 24.3726 27.5601 25.7817 25.4466 25.7817C23.3246 25.7984 20.0369 24.3978 20.0369 20.0029ZM68.2712 17.7384C68.2712 14.8784 65.9983 14.2829 64.0357 14.2829C62.4925 14.2913 61.1002 14.4674 59.926 15.4907L59.6912 18.2333C61.1337 17.4868 62.0312 16.9416 63.4234 16.9333C64.0441 16.9249 64.7151 17.0087 64.7402 17.772C64.7905 19.3152 58.8525 18.4681 58.8776 22.6029C58.886 24.901 60.2447 25.7984 62.4841 25.7817C63.868 25.7817 64.6983 24.8171 64.8828 24.6326V25.4797H68.2712V17.7384ZM64.4299 22.9049C64.1447 23.1146 63.7841 23.2236 63.348 23.232C62.9454 23.232 62.2828 22.9552 62.2744 22.3094C62.2744 21.4036 63.2054 21.1436 63.5912 21.001C64.4383 20.7158 65.2099 20.6404 65.1931 20.3804C65.2183 20.7662 65.2099 21.11 65.1763 21.412C65.1176 22.1417 64.866 22.6449 64.4299 22.9049ZM86.4209 22.5862C87.1422 22.5862 88.2577 22.0829 88.2493 19.9694C88.2325 17.8558 87.1087 17.3694 86.3958 17.3694C85.6661 17.3778 84.4416 17.8726 84.4583 19.9862C84.4667 22.0997 85.6996 22.5862 86.4209 22.5862ZM88.308 24.6242C87.7209 25.3204 86.79 25.7901 85.4396 25.7901C82.5209 25.7984 81.288 22.6533 81.2796 19.6591C81.2628 17.3191 82.4119 14.3081 85.5403 14.2913C86.7061 14.2829 87.8971 14.5933 88.199 15.1887H88.2242V11.1881H92.0319V25.4965H88.308V24.6242ZM69.806 14.6184H73.639L73.6473 15.65H73.6306C74.3435 14.5345 75.2912 14.2662 76.8177 14.2578C78.6041 14.2494 80.2899 15.3649 80.3067 17.8978V25.4881H76.4822L76.499 19.5081C76.4906 18.141 76.1383 17.6462 75.0983 17.6462C74.2177 17.6546 73.6306 18.1326 73.639 19.4662V25.4797H69.806V14.6184ZM48.2008 25.4881V19.6087C48.1924 18.2416 47.8402 17.7468 46.8002 17.7552C45.9195 17.7552 45.3744 18.2584 45.3827 19.6004V25.4881H41.5834V11.1797H45.3576L45.366 15.7507H45.3576C46.0621 14.6352 47.0098 14.3584 48.5279 14.3584C50.3144 14.3584 51.975 15.4655 51.9834 17.9984V25.4881H48.2008ZM40.0318 22.2339C39.7047 22.4436 38.564 22.7204 37.4401 22.7288C36.0311 22.7288 35.4524 21.6468 35.444 20.3133C35.444 18.6862 36.3666 18.0404 37.5156 17.8558C37.9434 17.7887 39.5034 17.8894 40.0318 18.3591V14.9287C39.4111 14.4423 37.9434 14.3165 36.8446 14.3165C33.3304 14.3165 31.6446 16.6733 31.653 20.0868C31.6782 23.0978 32.8775 25.7984 36.5427 25.7901C37.2388 25.7817 39.3776 25.6894 40.0318 25.4043V22.2339Z" fill="#777777"/>
</svg>
