<svg width="57" height="51" viewBox="0 0 57 51" fill="none" xmlns="http://www.w3.org/2000/svg">
<path d="M15 16.9449C15 9.15728 21.2803 2.82129 28.9999 2.82129C36.7195 2.82129 42.9998 9.15672 42.9998 16.9449C42.9998 24.7326 36.7195 31.0686 28.9999 31.0686C21.2803 31.0686 15 24.7326 15 16.9449Z" fill="#777777"/>
<path d="M41.1583 16.9448C41.1583 23.6409 35.7777 29.0693 29.1398 29.0693C22.5025 29.0693 17.1218 23.6409 17.1218 16.9448C17.1218 10.2487 22.5025 4.82031 29.1404 4.82031C35.7782 4.82031 41.1583 10.2487 41.1583 16.9448Z" fill="#BBBBBB"/>
<mask id="mask0_4031_2623" style="mask-type:luminance" maskUnits="userSpaceOnUse" x="17" y="0" width="25" height="30">
<path d="M17.1218 0V16.9454C17.1218 23.6409 22.5025 29.0688 29.1404 29.0688C35.7777 29.0688 41.1583 23.6409 41.1583 16.9449V0H17.1224H17.1218Z" fill="white"/>
</mask>
<g mask="url(#mask0_4031_2623)">
<path d="M24.9133 23.6526C24.9263 23.6238 24.932 23.5922 24.9301 23.5606C24.9281 23.529 24.9185 23.4984 24.9021 23.4714C24.8149 23.5711 24.8172 23.6158 24.9133 23.6526ZM25.0364 22.5967C24.9813 22.6125 24.9746 22.6454 24.9932 22.6861C24.996 22.6924 25.0213 22.6963 25.0286 22.6912C25.0623 22.6669 25.0646 22.6357 25.0364 22.5967ZM24.9442 22.9862C24.9409 23.0015 24.9358 23.0179 24.9352 23.0338C24.9352 23.0468 24.9409 23.0592 24.9645 23.0728L24.9718 22.9873L24.9437 22.9856L24.9442 22.9862ZM26.5905 23.074L26.5899 23.0723V23.0734L26.5905 23.074Z" fill="#454545"/>
<path fill-rule="evenodd" clip-rule="evenodd" d="M11.2042 24.0453L14.8751 22.9163C14.8751 22.9163 20.0235 21.3809 21.053 20.9291C22.083 20.4773 23.3633 18.6672 24.0436 18.6689C24.5648 18.6701 27.0269 19.3602 28.1491 19.6824C29.2708 19.3602 31.7328 18.6701 32.254 18.6689C32.9349 18.6672 34.2152 20.4773 35.2452 20.9291C36.2741 21.3809 41.6913 22.6899 41.6913 22.6899L44.6909 25.3101L44.8258 29.5099H11.4718L11.2042 24.0453Z" fill="white"/>
<path fill-rule="evenodd" clip-rule="evenodd" d="M34.2603 20.2522C34.2603 20.2522 36.1405 27.7936 36.2743 28.4713C36.4092 29.149 36.8118 29.3743 36.9012 29.149C36.9911 28.9225 35.3702 21.3098 35.1104 20.9735C34.7973 20.567 34.2603 20.2511 34.2603 20.2511V20.2522ZM21.9972 20.2975C21.9972 20.2975 20.1395 27.8842 20.0052 28.5613C19.8702 29.239 19.4677 29.4649 19.3783 29.239C19.2889 29.0131 20.9329 21.4179 21.169 21.0641C21.5007 20.5676 21.9972 20.2964 21.9972 20.2964V20.2975ZM32.2452 18.6709C32.8721 18.9874 33.2303 21.607 31.5289 25.175C29.8276 28.7425 29.962 28.7878 29.6488 28.8778C29.3356 28.9684 31.0814 25.7616 30.9926 25.3104C30.9026 24.8586 29.8276 23.2325 29.6038 23.5937C29.38 23.955 29.2142 24.3394 28.9842 24.486C28.7537 24.6332 28.3281 25.0805 28.2049 24.5857C28.0818 24.0908 28.1262 22.2389 28.1262 22.2389C28.1262 22.2389 30.0069 23.0972 30.6788 21.9683C31.3501 20.8388 32.2452 18.6709 32.2452 18.6709ZM23.7396 18.7615C23.2021 19.168 22.6157 21.607 24.317 25.1745C26.0178 28.7425 25.884 28.7878 26.1972 28.8784C26.5109 28.9689 24.859 25.9422 24.9479 25.491C25.0378 25.0392 26.336 23.3678 26.5598 23.7296C26.7836 24.0908 26.6318 24.3394 26.8623 24.486C27.0928 24.6332 27.5179 25.0805 27.641 24.5857C27.7647 24.0908 27.7197 22.2389 27.7197 22.2389C27.7197 22.2389 25.839 23.0972 25.1671 21.9683C24.4964 20.8388 23.7396 18.7615 23.7396 18.7615Z" fill="#BBBBBB"/>
<path fill-rule="evenodd" clip-rule="evenodd" d="M32.1192 18.5345C32.1558 18.4897 33.499 19.6192 31.2157 25.1745L28.843 21.7418C28.843 21.7418 30.2351 20.824 32.1192 18.5345Z" fill="white"/>
<path fill-rule="evenodd" clip-rule="evenodd" d="M28.8423 21.7417C28.4847 21.6964 27.0072 21.8323 27.0072 21.8323L26.2464 23.0965L27.2759 24.3608C27.2759 24.3608 26.4702 25.3997 26.2464 29.1483C26.0221 32.8975 30.0067 31.2714 29.8279 28.9224C29.648 26.5739 28.9323 24.316 28.9323 24.316L29.783 23.0965L28.8423 21.7417Z" fill="#454545"/>
<path fill-rule="evenodd" clip-rule="evenodd" d="M28.3956 24.5875C27.8131 24.5875 27.903 24.5422 27.7242 24.6328C27.5443 24.7228 26.8286 29.3297 27.1417 29.5551C27.4549 29.7815 28.1718 29.7815 28.3056 29.6909C28.4405 29.6004 28.3956 24.5875 28.3956 24.5875Z" fill="#2A2A2A"/>
<path fill-rule="evenodd" clip-rule="evenodd" d="M23.874 18.6262C23.8369 18.5809 22.4408 19.8451 24.7241 25.4004L27.0383 21.8777C27.0383 21.8777 25.7575 20.9152 23.8734 18.6262H23.874Z" fill="white"/>
<path fill-rule="evenodd" clip-rule="evenodd" d="M32.7377 9.77344C33.0959 10.1375 32.6927 10.3232 32.7377 11.3547C32.7827 12.3852 32.4245 15.3559 32.022 16.0228C31.6188 16.6898 30.9076 17.1993 30.5888 17.2259C30.0519 17.2712 25.3509 17.4178 24.9928 17.1144C24.6346 16.8115 23.4258 15.4317 23.3364 13.6126C23.2465 11.793 22.8889 10.2434 23.2914 9.81873C23.6946 9.3941 28.9324 9.41222 29.7831 9.41222C30.6338 9.41222 32.7377 9.77344 32.7377 9.77344Z" fill="#D6D6D6"/>
<path fill-rule="evenodd" clip-rule="evenodd" d="M22.0383 11.9415C22.0833 12.4839 22.0833 12.8451 22.2177 13.2511C22.3515 13.6576 22.3515 13.7029 22.4414 14.1094C22.5286 14.5063 22.5758 14.8324 22.7096 14.9224C22.844 15.013 22.9317 15.0515 23.0233 15.1036C23.1144 15.1545 23.2471 14.1547 23.1572 13.4776C23.0678 12.7999 23.1077 12.2076 22.8862 11.5781C22.6652 10.9479 22.5752 10.5873 22.3964 10.5873C22.2177 10.5873 21.9213 10.5284 22.0383 11.9415Z" fill="#ACACAC"/>
<path fill-rule="evenodd" clip-rule="evenodd" d="M22.9052 12.332C22.6651 12.3926 22.6201 12.4379 22.6201 12.6638C22.6201 12.8897 22.6651 13.3415 22.8889 13.5216C23.1126 13.7027 23.3364 13.8828 23.292 13.6574C23.247 13.4315 22.9057 12.3326 22.9057 12.3326L22.9052 12.332Z" fill="#909090"/>
<path fill-rule="evenodd" clip-rule="evenodd" d="M22.9255 12.0841C22.8873 12.2522 22.6202 12.1667 22.5308 12.3473C22.4409 12.5285 22.3959 12.7991 22.4409 12.9798C22.4859 13.1609 22.844 13.5216 22.844 13.8381C22.844 14.154 22.7546 14.064 22.844 14.244C22.934 14.4252 23.3365 14.7411 23.1577 14.9217C22.9778 15.1023 22.844 15.1929 22.7546 14.7858C22.6646 14.3799 22.6202 13.9281 22.4859 13.6575C22.3515 13.3857 22.3071 13.2057 22.3071 12.8439C22.3071 12.4827 22.2171 11.9408 22.352 11.7149C22.4859 11.489 22.6652 11.5343 22.6652 11.3537C22.6652 11.1731 22.5752 10.9478 22.4409 11.1731C22.3071 11.3996 22.3071 11.8508 22.2621 11.6702C22.2171 11.489 22.1721 10.7666 22.4859 10.7666C22.7996 10.7666 22.9784 11.8508 22.9255 12.0841Z" fill="#909090"/>
<path fill-rule="evenodd" clip-rule="evenodd" d="M34.0392 11.9415C33.9943 12.4839 33.9943 12.8451 33.8599 13.2511C33.7261 13.6576 33.7261 13.7029 33.6367 14.1094C33.549 14.5063 33.5017 14.8324 33.3679 14.9224C33.2335 15.013 33.1458 15.0515 33.0542 15.1036C32.9631 15.1545 32.831 14.1547 32.9198 13.4776C33.0098 12.7999 32.9704 12.2076 33.1914 11.5781C33.4123 10.9479 33.5023 10.5873 33.6811 10.5873C33.8604 10.5873 34.1562 10.5284 34.0392 11.9415Z" fill="#ACACAC"/>
<path fill-rule="evenodd" clip-rule="evenodd" d="M33.2189 12.332C33.4601 12.3926 33.5045 12.4379 33.5045 12.6638C33.5045 12.8897 33.4595 13.3415 33.2358 13.5216C33.012 13.7027 32.7882 13.8828 32.8332 13.6574C32.8782 13.4315 33.2189 12.3326 33.2189 12.3326V12.332Z" fill="#909090"/>
<path fill-rule="evenodd" clip-rule="evenodd" d="M33.1627 12.0841C33.201 12.2522 33.468 12.1667 33.5574 12.3473C33.6474 12.5285 33.6918 12.7991 33.6474 12.9798C33.6024 13.1609 33.2442 13.5216 33.2442 13.8381C33.2442 14.154 33.3336 14.064 33.2442 14.244C33.1543 14.4252 32.7517 14.7411 32.9305 14.9217C33.1099 15.1023 33.2442 15.1929 33.3336 14.7858C33.423 14.3799 33.468 13.9281 33.6024 13.6575C33.7368 13.3857 33.7812 13.2057 33.7812 12.8439C33.7812 12.4827 33.8571 12.1214 33.7227 11.8961C33.5883 11.6696 33.423 11.5343 33.423 11.3537C33.423 11.1731 33.513 10.9478 33.6468 11.1731C33.7812 11.3996 33.7812 11.8508 33.8256 11.6702C33.8706 11.489 33.9156 10.7666 33.6024 10.7666C33.2887 10.7666 33.1099 11.8508 33.1627 12.0841Z" fill="#909090"/>
<path fill-rule="evenodd" clip-rule="evenodd" d="M23.9548 17.8529C24.1251 18.1026 24.3349 18.3081 24.6795 18.581C25.3058 19.0781 25.5746 19.5746 25.9333 19.8911C26.2909 20.207 26.2465 20.207 26.6046 20.4329C26.9622 20.6582 27.6341 20.7035 28.3504 20.6135C29.0667 20.5229 29.2208 20.2829 29.5142 20.0711C29.828 19.8458 29.9624 19.6199 30.5887 19.2134C31.1785 18.8312 31.7975 18.0391 32.0663 17.8132C32.1017 17.7832 32.1309 17.7532 32.1557 17.7227L32.1107 18.7163C32.1107 18.7163 32.4211 19.6108 31.2651 20.5801C30.7782 20.9894 30.0298 21.4124 28.8879 21.7877C26.0992 22.7038 23.8738 19.8458 23.8288 19.3487C23.7839 18.8522 23.9548 17.8529 23.9548 17.8529Z" fill="#ACACAC"/>
<mask id="mask1_4031_2623" style="mask-type:luminance" maskUnits="userSpaceOnUse" x="24" y="18" width="4" height="3">
<path d="M24.158 18.0684H27.9081V20.9071H24.158V18.0684Z" fill="white"/>
</mask>
<g mask="url(#mask1_4031_2623)">
<path opacity="0.62" fill-rule="evenodd" clip-rule="evenodd" d="M27.9031 20.6587C27.455 21.3364 26.1568 20.4334 25.7987 20.2522C25.5721 20.1379 25.5091 21.0318 25.251 20.8003C24.9924 20.5682 24.4448 20.3513 24.316 19.8503C24.1867 19.3492 24.0057 17.9728 24.3874 18.0736C24.7692 18.1744 28.0521 20.4334 27.9031 20.6587Z" fill="#909090"/>
</g>
<mask id="mask2_4031_2623" style="mask-type:luminance" maskUnits="userSpaceOnUse" x="28" y="18" width="4" height="3">
<path d="M28.526 18.2031H31.8876V20.987H28.5254L28.526 18.2031Z" fill="white"/>
</mask>
<g mask="url(#mask2_4031_2623)">
<path opacity="0.62" fill-rule="evenodd" clip-rule="evenodd" d="M28.5293 19.9799C28.7531 20.4317 30.067 20.2064 30.2464 20.3864C30.4252 20.5676 30.5359 21.1666 30.794 20.9345C31.0526 20.7029 31.6003 20.4855 31.729 19.9845C31.8583 19.4834 32.0394 18.1076 31.6576 18.2084C31.2758 18.3092 28.4095 19.7376 28.5293 19.9799Z" fill="#909090"/>
</g>
<path d="M19.7723 6.38719C19.8842 5.60135 20.1428 4.86533 20.5353 4.17913C21.1206 3.15777 21.9212 2.34701 22.8984 1.71517C24.2107 0.865916 25.6534 0.426003 27.2007 0.356364C27.8477 0.324602 28.496 0.328193 29.1427 0.367121C29.4463 0.386371 29.7471 0.426003 30.0462 0.479223C30.7726 0.609442 31.4749 0.822887 32.1479 1.13202C33.2679 1.6461 34.2366 2.36456 35.008 3.34404C35.7339 4.26576 36.1949 5.30638 36.3473 6.48288C36.4597 7.35308 36.3771 8.20516 36.1201 9.04083C36.1123 9.06517 35.9796 9.37826 35.965 9.4128C35.8233 9.67833 35.5236 10.5927 34.0753 12.195C33.9319 12.3535 34.3817 10.4964 33.6648 10.578C33.5333 10.5927 33.4804 10.8769 33.4399 10.8707C33.4399 10.8254 32.84 10.0899 32.7821 10.0899C32.7669 10.0639 32.9305 7.81394 32.917 7.78676C32.754 7.46971 32.1524 6.01126 31.0369 5.1671C30.857 5.03178 29.7252 4.89647 29.7252 4.89647C29.7792 4.67 29.8011 4.43787 29.791 4.20178C29.7651 3.58692 29.57 3.04 29.1343 2.59443C28.9289 2.38172 28.6698 2.2296 28.3848 2.15452C28.176 2.09832 27.9572 2.09058 27.7449 2.13187C27.2187 2.23548 26.8459 2.5514 26.5699 3.00037C26.4012 3.27553 26.3056 3.57786 26.2533 3.89492C26.2308 4.02797 26.2308 4.16498 26.2246 4.25444C26.2263 4.3705 26.2415 4.4826 26.2454 4.59244C26.246 4.62528 26.2505 4.71983 26.246 4.71586C26.2055 4.72719 26.1054 4.7504 26.0672 4.76116C25.9098 4.80475 25.3785 4.91968 25.2171 4.98706C24.9489 5.09746 24.751 5.27637 24.5452 5.48359C24.3957 5.63362 23.1818 7.78053 23.1126 7.92264C23.0974 7.95321 22.8315 8.04267 22.7989 8.05796C22.5223 8.18818 22.1354 8.59978 22.1276 8.59978C22.0404 8.95986 22.1433 9.04988 22.3069 9.45809C22.3575 9.58605 22.2754 10.4942 22.3069 10.587C22.3069 10.587 22.1276 10.7229 22.0831 10.8135C21.9117 11.1583 22.0691 12.1525 22.0382 12.1225C21.8003 11.8949 21.5794 11.7035 21.3663 11.4499C21.1734 11.2211 20.9699 11.002 20.8097 10.7461C20.7101 10.5865 20.5904 10.4381 20.5049 10.2705C20.3706 10.0088 20.2489 9.74065 20.14 9.46715C19.7477 8.49168 19.6208 7.42851 19.7723 6.38719Z" fill="white"/>
<path d="M22.1574 9.10653C22.1653 9.25996 22.2294 9.38112 22.3221 9.59739C22.323 9.55032 22.3179 9.50333 22.3069 9.45755C22.2462 9.30695 22.1945 9.19994 22.1574 9.10653ZM19.8308 6.63124C19.9433 5.84539 20.2019 5.10937 20.5944 4.42318C21.1791 3.40181 21.9803 2.59106 22.9569 1.95921C24.2692 1.10996 25.7119 0.670046 27.2598 0.600408C27.9068 0.568648 28.5551 0.572239 29.2018 0.611165C29.5054 0.630415 29.8062 0.670046 30.1053 0.723266C30.8317 0.853485 31.5334 1.06693 32.2069 1.37606C33.3269 1.89014 34.2957 2.60861 35.0671 3.58808C35.6085 4.27541 36.0021 5.02954 36.2309 5.85672C36.0156 4.93386 35.6023 4.0982 35.0081 3.3435C34.2367 2.36402 33.2679 1.64499 32.1485 1.13147C31.4777 0.82542 30.7712 0.60608 30.0457 0.478682C29.7468 0.424058 29.4452 0.386443 29.1422 0.366014C28.4957 0.327262 27.8476 0.323671 27.2007 0.355257C25.6534 0.426028 24.2107 0.865375 22.8984 1.71406C21.9213 2.34647 21.1206 3.15666 20.5353 4.17916C20.1427 4.8589 19.8837 5.60835 19.7724 6.38665C19.6543 7.21496 19.7111 8.02288 19.9264 8.80985C19.76 8.09599 19.7276 7.35709 19.8308 6.63124Z" fill="#BBBBBB"/>
<path d="M29.8223 4.9077C29.8436 4.75483 29.856 4.6014 29.8498 4.44514C29.8392 4.23502 29.8047 4.02682 29.7469 3.82462C29.8158 4.17896 29.8084 4.54407 29.725 4.89524L29.8223 4.9077ZM32.9753 8.03012C32.9541 7.98777 32.9335 7.94512 32.9135 7.90217C32.891 8.36586 32.769 10.0661 32.7825 10.0887C32.7915 10.0887 32.8162 10.1114 32.8477 10.1414C32.877 9.59501 32.9866 8.0522 32.9753 8.03012ZM34.0655 11.0523C34.1347 11.5658 33.9829 12.2956 34.0751 12.1937C34.0908 12.1767 34.1021 12.1615 34.1178 12.1445C34.1426 11.828 34.1797 11.3405 34.0655 11.0523ZM26.157 3.05859C26.157 3.05859 26.0221 3.63042 25.3507 4.08223C24.6794 4.53403 23.2018 6.3854 22.8881 6.70189C22.5755 7.01781 22.4855 6.8372 22.6649 6.16007C22.8437 5.48236 23.2912 4.93997 22.8887 5.16644C22.4855 5.39177 21.9036 7.01781 21.8586 8.05673C21.8137 9.09565 22.1274 10.5405 22.1724 10.5858C22.2174 10.6311 21.9486 11.1729 22.6199 9.36628C23.2912 7.5602 24.3899 5.32214 25.3181 4.95016C26.2458 4.57876 25.9602 5.27288 26.238 4.42929C26.5146 3.5857 26.157 3.05859 26.157 3.05859Z" fill="#BBBBBB"/>
<path d="M29.7853 3.05859C29.7853 3.05859 29.9203 3.63042 30.5916 4.08223C31.2635 4.53403 32.7405 6.3854 33.0542 6.70189C33.3674 7.01781 33.4568 6.8372 33.278 6.16007C33.0986 5.48236 32.6511 4.93997 33.0542 5.16644C33.4568 5.39178 34.0393 7.01781 34.0837 8.05673C34.1287 9.09565 33.8149 10.5405 33.7705 10.5858C33.7255 10.6311 33.9943 11.1729 33.3224 9.36628C32.6511 7.5602 31.553 5.32214 30.6248 4.95016C29.6965 4.57876 29.9821 5.27288 29.7049 4.42929C29.4277 3.5857 29.7853 3.05859 29.7853 3.05859Z" fill="#BBBBBB"/>
<path fill-rule="evenodd" clip-rule="evenodd" d="M28.6191 12.5738C28.6641 12.8898 28.6191 13.0256 28.8429 13.2515C29.0667 13.4769 29.0779 13.4916 29.1561 13.7028C29.291 14.0646 29.0217 14.4705 28.9323 14.5158C28.7805 14.5922 28.7479 14.5028 28.6692 14.4688C28.6219 14.4484 28.5573 14.4484 28.4398 14.5158C28.1266 14.6964 28.2188 14.6964 27.8134 14.6964C27.4553 14.6964 27.3209 14.3352 27.1415 14.4258C26.9628 14.5164 26.8284 14.5617 26.694 14.3352C26.5596 14.1093 26.595 14.0125 26.649 13.7934C26.739 13.4322 26.9065 13.4763 27.0072 13.2063C27.1415 12.8445 27.2309 12.0767 27.3209 12.122C27.4103 12.1673 27.5441 12.6644 27.4997 13.0256C27.4547 13.3869 27.2613 13.8132 27.4997 13.974C27.7684 14.1551 27.7684 14.1993 28.1716 14.1099C28.3897 14.0606 28.5292 13.9287 28.4847 13.5222C28.4398 13.1157 28.3504 12.438 28.4847 12.438C28.6191 12.438 28.6191 12.5738 28.6191 12.5738Z" fill="#ACACAC"/>
<path fill-rule="evenodd" clip-rule="evenodd" d="M28.7086 14.2451C28.6186 14.2451 28.5742 14.2451 28.4848 14.3357C28.3707 14.4501 28.3274 14.4903 28.216 14.6063C28.1368 14.689 28.5028 14.4671 28.5742 14.4705C28.6462 14.4744 28.6192 14.5157 28.7086 14.4705C28.8221 14.4138 28.7654 14.2451 28.7086 14.2451ZM27.1062 14.2904C27.1961 14.2904 27.2411 14.2904 27.3299 14.3804C27.4446 14.4954 27.4874 14.535 27.5987 14.6511C27.6785 14.7343 27.312 14.5123 27.2406 14.5157C27.1686 14.5191 27.1956 14.561 27.1062 14.5157C26.9932 14.4591 27.05 14.2904 27.1062 14.2904Z" fill="#909090"/>
<path fill-rule="evenodd" clip-rule="evenodd" d="M31.6632 10.2251C31.0363 9.86384 30.4994 9.81855 30.0518 9.77326C29.6043 9.72796 28.4848 9.90914 27.813 9.95443C27.1416 9.99972 26.3882 9.86384 25.8434 9.86384C25.2615 9.86384 24.3658 9.95443 24.187 10.1345C24.092 10.2307 23.5157 9.77326 23.7839 9.72796C24.0527 9.68267 27.321 9.18614 28.2161 9.23143C29.1112 9.27673 29.8725 9.41204 30.5888 9.54735C31.3051 9.68324 31.6632 10.2251 31.6632 10.2251Z" fill="#ACACAC"/>
<path fill-rule="evenodd" clip-rule="evenodd" d="M32.7828 10.09L33.4401 10.8707C33.4401 10.8707 33.2754 11.4001 33.2304 11.7613C33.1854 12.1231 33.1854 12.3937 33.1854 12.9808C33.1854 13.568 32.8273 13.7033 32.8722 14.0198C32.9172 14.3357 33.1354 14.5899 33.096 15.1034C33.0427 15.7111 32.8916 16.306 32.6485 16.8648C32.4247 17.3619 32.3353 17.5878 32.0665 17.8131C31.7978 18.0396 31.1782 18.8316 30.589 19.2132C29.9621 19.6197 29.8282 19.8456 29.5151 20.0715C29.221 20.2833 29.067 20.5233 28.3512 20.6134C27.6344 20.704 26.9625 20.6587 26.6049 20.4328C26.2462 20.2074 26.2912 20.2074 25.933 19.8909C25.5749 19.5744 25.3067 19.0779 24.6792 18.5808C24.0529 18.0843 23.8741 17.8137 23.5603 17.0907C23.2472 16.3682 23.2472 16.413 23.0678 15.4199C22.889 14.4263 23.2472 13.658 23.1578 13.4779C23.0678 13.2968 22.889 12.8455 22.889 12.5743C22.889 12.3031 23.0234 11.7613 22.7991 11.3548C22.5759 10.9483 22.3065 10.6324 22.3065 10.5418C22.3065 10.4512 22.1277 9.32283 22.6203 9.36756C23.1128 9.41285 23.4709 9.23224 23.426 9.54873C23.381 9.86465 23.0678 14.6069 24.8591 15.2387C25.4135 15.4352 26.2625 14.7207 27.1418 14.7422C28.1589 14.7677 29.6045 14.5163 30.4102 15.2393C31.077 15.8372 31.3053 15.194 31.619 14.6969C32.4191 13.4287 32.4697 12.1673 32.7828 10.09Z" fill="#4F4F4F"/>
<path d="M33.3194 9.45709C33.23 9.63769 33.0602 9.72771 32.6037 9.72771C31.9318 9.72771 29.3804 9.18589 28.4847 9.23119C27.5896 9.27648 26.6046 9.23119 25.8877 9.36707C25.172 9.50181 24.0081 9.72771 23.4256 9.72771C22.8437 9.72771 22.6778 9.60372 22.5592 9.53069C22.4411 9.45709 22.2039 9.38405 22.1656 9.12701C22.1274 8.86997 21.9492 8.67464 22.3737 8.36608C22.7987 8.05695 22.9781 8.05695 23.1569 7.78576C23.3362 7.51456 23.9856 6.36298 24.1757 6.03573C24.3657 5.70792 24.9926 4.80488 25.9777 4.71429C26.9627 4.62427 30.0517 4.19512 31.2155 5.33538C32.3794 6.47621 32.6481 7.74046 32.7825 7.83105C32.9169 7.92164 33.4094 8.19963 33.4313 8.3089C33.4538 8.41817 33.5438 8.68936 33.4538 8.9147C33.3644 9.14116 33.3194 9.45709 33.3194 9.45709Z" fill="#454545"/>
<path d="M27.8249 8.36621C27.6995 8.36961 27.3942 8.51851 27.3751 8.57173C27.3245 8.70874 27.275 8.84519 27.2261 8.98277C27.2064 9.03649 27.1891 9.09109 27.1744 9.14639C27.1609 9.19735 27.1277 9.2183 27.0805 9.22282C26.9641 9.23302 26.5165 9.26812 26.4052 9.27661C26.3102 8.99692 26.2613 8.70931 26.092 8.4517C26.0178 8.46869 25.9346 8.48001 25.857 8.50662C25.6209 8.58702 25.6248 8.59155 25.5107 8.81971C25.4516 8.93691 25.2492 9.27831 25.22 9.33832C25.1896 9.4006 25.134 9.42325 25.0738 9.43231C24.9209 9.45722 24.7679 9.47647 24.6156 9.50081C24.5296 9.5144 24.0921 9.57951 23.9578 9.58121C23.6446 9.58517 23.3314 9.58234 23.0177 9.58234C22.9913 9.58234 22.9637 9.58121 22.9373 9.58347C22.8501 9.59027 22.8338 9.61008 22.8383 9.71879C22.8766 9.72728 22.9182 9.73804 22.9598 9.74483C23.1588 9.77597 23.3573 9.82013 23.558 9.83202C23.7587 9.84448 23.9611 9.82862 24.163 9.81674C24.2422 9.81221 25.211 9.65934 25.2627 9.65594C25.3866 9.65127 25.5099 9.63535 25.631 9.60839C25.8032 9.56247 25.9788 9.53103 26.1561 9.5144C26.4474 9.49175 26.7369 9.44589 27.0276 9.42381C27.2491 9.4074 27.4723 9.41249 27.6944 9.41079C27.9368 9.40909 28.1796 9.41306 28.422 9.41079C28.7485 9.40784 29.0748 9.42543 29.3992 9.46345C29.6229 9.48949 29.8473 9.511 30.0705 9.53931C30.3167 9.57045 30.5636 9.60159 30.8081 9.64122C30.9836 9.6701 31.1562 9.71822 31.331 9.74766C31.5666 9.78729 32.3442 9.83655 32.496 9.84051C32.5219 9.84108 32.7473 9.8207 32.7827 9.81843C32.7867 9.76295 32.7827 9.63726 32.5972 9.65934C32.5432 9.65934 32.4971 9.65708 32.4516 9.65934C32.3481 9.665 31.6869 9.6333 31.462 9.59593C31.3698 9.58064 30.4669 9.39324 30.3898 9.38418C30.2302 9.36493 30.0727 9.32643 29.9142 9.29869C29.8158 9.28114 29.7163 9.26698 29.6162 9.2534C29.4869 9.23585 29.0073 9.18263 28.8976 9.1696C28.8015 9.15828 28.1217 9.12318 27.9306 9.12318C27.9148 8.86387 27.8912 8.61249 27.8249 8.36621Z" fill="white"/>
<path d="M25.9019 4.2336C25.9019 5.5924 26.8453 6.69416 28.0091 6.69416C29.1724 6.69416 30.1153 5.5924 30.1153 4.2336C30.1153 2.87423 29.1724 1.77246 28.0091 1.77246C26.8453 1.77246 25.9024 2.87423 25.9024 4.2336H25.9019Z" fill="#D1D1D1"/>
<path d="M27.0545 4.77042C27.0713 4.79306 27.0882 4.81005 27.0972 4.82986C27.1905 5.03935 27.3581 5.17126 27.5515 5.27601C27.7022 5.35753 27.854 5.43623 28.0097 5.51833C28.1964 5.41472 28.3921 5.31111 28.5832 5.19901C28.7294 5.11408 28.8385 4.99066 28.9105 4.83439C28.92 4.81401 28.9352 4.79589 28.9526 4.76985L29.1005 4.85308C29.1955 4.66284 29.1803 4.47884 29.0977 4.27275C29.012 4.43003 28.8867 4.56184 28.7345 4.65492L28.8272 4.70191C28.8666 4.72173 28.8722 4.7489 28.8458 4.784C28.7002 4.97707 28.4871 5.07105 28.2521 5.0201C28.2119 5.01191 28.176 4.98957 28.1507 4.95708C28.1255 4.92459 28.1126 4.8841 28.1143 4.84289C28.1126 4.52357 28.1126 4.20425 28.1143 3.88436C28.1143 3.80114 28.1244 3.79151 28.2088 3.79151C28.2914 3.79208 28.3746 3.77736 28.4522 3.83114C28.5068 3.86851 28.5596 3.84926 28.6023 3.79717C28.6468 3.74169 28.6456 3.67714 28.5984 3.62053C28.559 3.5724 28.4933 3.55089 28.4466 3.58939C28.3611 3.65959 28.2667 3.62619 28.175 3.63185C28.1329 3.63468 28.1177 3.60694 28.1143 3.56731C28.1096 3.53577 28.1129 3.50354 28.1239 3.47364C28.1349 3.44374 28.1533 3.41714 28.1773 3.39633C28.3291 3.25478 28.2852 3.02096 28.1048 2.92924C27.9659 2.85847 27.7899 2.96434 27.7562 3.10588C27.7337 3.20326 27.7337 3.31197 27.8191 3.37991C27.9057 3.44898 27.8922 3.52881 27.8832 3.62676C27.7736 3.62562 27.6696 3.66582 27.5695 3.59109C27.5178 3.55259 27.4464 3.57297 27.4081 3.62336C27.3916 3.64886 27.3828 3.67862 27.3827 3.70905C27.3826 3.73948 27.3912 3.7693 27.4076 3.79491C27.4475 3.84926 27.5088 3.86738 27.5667 3.82831C27.6651 3.76207 27.7674 3.80283 27.8782 3.79151C27.8827 3.8368 27.8889 3.87304 27.8889 3.90927C27.89 4.2218 27.89 4.53432 27.8889 4.84742C27.8889 4.9414 27.8416 5.00198 27.7522 5.02123C27.6377 5.04482 27.5188 5.03244 27.4115 4.98576C27.3042 4.93908 27.2137 4.86036 27.1523 4.76023C27.1495 4.75456 27.1495 4.7472 27.1456 4.72965L27.2732 4.65435C27.1281 4.55697 27.0033 4.44657 26.919 4.27389C26.8234 4.47657 26.8211 4.65888 26.9094 4.85478L27.0545 4.77042ZM26.2533 3.80963C26.305 3.49257 26.4012 3.18967 26.5704 2.91508C26.8459 2.46611 27.2187 2.15019 27.7455 2.04658C27.9575 2.00536 28.1761 2.0131 28.3848 2.06923C28.6732 2.14509 28.9245 2.29456 29.1342 2.50914C29.57 2.95471 29.7651 3.50163 29.7909 4.11649C29.8069 4.47016 29.7485 4.82324 29.6194 5.15258C29.4856 5.49398 29.2933 5.79235 29.0077 6.02165C28.5174 6.41514 27.9788 6.51535 27.3935 6.26227C27.1335 6.14644 26.9067 5.96652 26.734 5.73913C26.3837 5.29299 26.233 4.77834 26.2246 4.16915C26.2314 4.07969 26.2319 3.94268 26.2533 3.80963Z" fill="#454545"/>
<path d="M27.9857 6.81763C27.5808 6.82159 26.137 6.8816 25.8238 6.95294C25.5033 7.02654 24.66 7.22527 24.5582 7.24621C24.3069 7.29717 23.7621 7.58365 23.7475 7.6448C23.7306 7.71727 23.7047 7.78804 23.6912 7.86164C23.68 7.92448 23.6969 7.9443 23.7598 7.9426C23.7992 7.94147 24.1967 7.77728 24.3614 7.7201C24.6109 7.65277 24.8617 7.59047 25.1137 7.53326C25.2908 7.49363 26.0678 7.37587 26.2719 7.32265C26.6222 7.23263 27.6298 7.23376 27.7776 7.23546C27.9963 7.23772 28.5816 7.23319 28.6547 7.23433C28.8571 7.23716 29.5706 7.30906 29.7252 7.33963C29.9097 7.377 30.8525 7.55478 31.1404 7.60573C31.4125 7.65499 32.0861 7.93694 32.1187 7.94147C32.2182 7.95676 32.3796 7.60517 31.9635 7.47608C31.7876 7.39115 30.7907 7.09222 30.4696 7.03447C30.3341 7.01012 29.615 6.87368 29.3879 6.85103C28.9212 6.80574 28.4529 6.808 27.9857 6.81763Z" fill="#D1D1D1"/>
<path d="M24.1539 8.33291C24.3911 8.23383 25.2587 8.02152 25.4431 7.97C25.6803 7.90319 27.6516 7.80468 27.8197 7.79732C28.1666 7.78373 28.5112 7.8126 28.8576 7.83299C28.9543 7.83865 29.0527 7.83751 29.15 7.83072C29.2911 7.81996 30.347 7.93999 30.5556 7.99208C30.7344 8.03737 30.9109 8.09399 31.0908 8.13362C31.3208 8.18571 31.5485 8.24119 31.7666 8.33348C31.7936 8.34593 32.2007 8.55428 32.163 8.42407C32.2097 8.35839 32.2148 8.2695 32.2299 8.18344C32.2372 8.14098 31.9319 7.99208 31.8082 7.93829C31.542 7.82474 31.2646 7.73973 30.9806 7.68465C30.6573 7.61897 29.7465 7.49725 29.6172 7.4763C29.5441 7.46498 29.0201 7.43044 28.8323 7.42648C28.6169 7.42195 27.9822 7.40723 27.8793 7.40723C27.7584 7.40723 27.2428 7.43157 27.1051 7.42874C26.9098 7.42635 26.7146 7.43504 26.5203 7.45478C26.3438 7.47177 26.1689 7.50744 25.993 7.53405C25.8766 7.55103 25.0782 7.65577 24.7982 7.71466C24.4322 7.79109 24.0943 7.93886 23.7608 8.10135C23.6804 8.13985 23.6776 8.14834 23.6962 8.2361C23.7108 8.30404 23.7839 8.4184 24.1539 8.33291ZM23.6163 8.60241C23.4657 8.30857 23.3909 8.0102 23.5185 7.69201C23.4831 7.63653 23.4331 7.63143 23.3853 7.65634C23.3223 7.68974 23.2633 7.7373 23.2503 7.81147C23.1975 8.10135 23.1789 8.3901 23.3184 8.66469C23.3628 8.75244 23.3825 8.76094 23.4629 8.70941C23.5135 8.67714 23.5612 8.64147 23.6163 8.60241ZM22.7128 8.87757C22.7004 8.75697 22.6796 8.63751 22.6077 8.5339C22.5458 8.44501 22.439 8.41501 22.3457 8.46653C22.3054 8.48661 22.27 8.51522 22.2417 8.55041C22.2135 8.58559 22.1931 8.6265 22.1821 8.67035C22.1621 8.74731 22.1605 8.82792 22.1773 8.90564C22.1941 8.98336 22.2288 9.05598 22.2788 9.11762C22.367 9.23199 22.4784 9.23652 22.5813 9.13461C22.6094 9.1063 22.6347 9.07573 22.6605 9.04628C22.7021 8.99816 22.7336 8.94664 22.7128 8.87757ZM22.8624 8.57863C22.9164 8.52937 22.9636 8.48691 23.0097 8.44275C23.0226 8.43037 23.0306 8.41366 23.0322 8.39576C23.0339 8.28139 23.0333 8.16646 23.0333 8.05266C22.9872 8.02378 22.9574 8.05039 22.9253 8.07361C22.8596 8.12286 22.7938 8.17269 22.7263 8.21911C22.6352 8.28252 22.6319 8.3148 22.7066 8.39689C22.7589 8.45464 22.8078 8.51522 22.8624 8.57863ZM23.2048 8.87587L23.0738 8.62675C23.0316 8.65676 22.9917 8.68054 22.9574 8.71055C22.909 8.75188 22.8815 8.8034 22.8933 8.87247C22.9017 8.92229 22.9006 8.97325 22.9068 9.02364C22.9141 9.08422 22.9332 9.09498 22.9939 9.07686C23.0755 9.05195 23.1429 8.9891 23.2048 8.87587ZM32.2794 8.60241C32.4301 8.30857 32.5049 8.0102 32.3772 7.69201C32.4127 7.63653 32.4627 7.63143 32.5105 7.65634C32.5735 7.68974 32.6325 7.7373 32.646 7.81147C32.6983 8.10135 32.7168 8.3901 32.5774 8.66469C32.533 8.75244 32.5133 8.76094 32.4329 8.70941C32.3823 8.67714 32.3345 8.64147 32.2794 8.60241ZM33.0339 8.57863C32.98 8.52937 32.9316 8.48691 32.8861 8.44275C32.8731 8.43037 32.8651 8.41366 32.8636 8.39576C32.8619 8.28139 32.8625 8.16646 32.8625 8.05266C32.9086 8.02378 32.9384 8.05039 32.9704 8.07361C33.0362 8.12286 33.102 8.17269 33.1694 8.21911C33.2605 8.28252 33.2639 8.3148 33.1891 8.39689C33.1368 8.45464 33.0879 8.51522 33.0339 8.57863ZM32.691 8.87587L32.822 8.62675C32.8641 8.65676 32.9041 8.68054 32.9384 8.71055C32.9867 8.75188 33.0143 8.8034 33.0025 8.87247C32.994 8.92229 32.9951 8.97325 32.9895 9.02364C32.9822 9.08422 32.9625 9.09498 32.9018 9.07686C32.8203 9.05195 32.7528 8.9891 32.691 8.87587Z" fill="#D1D1D1"/>
<path fill-rule="evenodd" clip-rule="evenodd" d="M32.335 11.6254C32.0522 12.0421 31.7081 11.6254 31.6187 11.716C31.5288 11.8066 31.26 12.0772 30.9024 12.122C30.5443 12.1673 29.6486 12.0314 29.4249 11.9414C29.2168 11.8576 28.798 11.7155 28.6636 11.9414C28.5292 12.1678 28.5292 12.1678 28.4848 11.8508C28.4398 11.5348 28.3054 10.8124 28.4848 10.5865C28.6636 10.3606 29.5143 9.9541 30.0962 9.9541C30.6787 9.9541 31.332 10.0702 31.5738 10.2253C32.0663 10.5412 32.5667 11.284 32.335 11.6254ZM23.4836 11.6254C23.7664 12.0421 24.11 11.6254 24.1994 11.716C24.2893 11.8066 24.5581 12.0772 24.9162 12.122C25.2738 12.1673 26.1565 12.0314 26.3809 12.0314C26.6046 12.0314 27.0201 11.716 27.1545 11.9414C27.2883 12.1678 27.2883 12.1678 27.3339 11.8508C27.3783 11.5348 27.5127 10.8124 27.3339 10.5865C27.154 10.3606 26.3038 9.95467 25.7219 9.95467C25.14 9.95467 24.4861 10.0702 24.2443 10.2253C23.7518 10.5412 23.2514 11.284 23.4836 11.6254Z" fill="#ACACAC"/>
<mask id="mask3_4031_2623" style="mask-type:luminance" maskUnits="userSpaceOnUse" x="29" y="10" width="3" height="2">
<path d="M29.4739 10.9473H31.0819V11.4625H29.4739V10.9473Z" fill="white"/>
</mask>
<g mask="url(#mask3_4031_2623)">
<path fill-rule="evenodd" clip-rule="evenodd" d="M31.0813 11.3085C31.0296 11.3436 30.798 11.42 30.5444 11.4444C30.1396 11.4829 29.6594 11.4546 29.6043 11.3991C29.5144 11.3085 29.4075 11.2694 29.5278 11.2439C29.6487 11.2185 29.8281 11.0379 30.0963 10.9926C30.365 10.9473 30.6338 10.902 30.8576 11.0379C31.0813 11.1732 31.0813 11.3085 31.0813 11.3085Z" fill="white"/>
</g>
<mask id="mask4_4031_2623" style="mask-type:luminance" maskUnits="userSpaceOnUse" x="24" y="10" width="3" height="2">
<path d="M24.9033 10.9658H26.4703V11.4629H24.9033V10.9658Z" fill="white"/>
</mask>
<g mask="url(#mask4_4031_2623)">
<path fill-rule="evenodd" clip-rule="evenodd" d="M24.9033 11.3088C24.955 11.3439 25.1462 11.4204 25.3998 11.4447C25.8046 11.4832 26.2853 11.4549 26.3404 11.3994C26.4298 11.3088 26.5372 11.2698 26.4163 11.2443C26.2954 11.2188 26.1161 11.0382 25.8479 10.9929C25.5791 10.9476 25.3509 10.9476 25.1271 11.0835C24.9033 11.2188 24.9033 11.3088 24.9033 11.3088Z" fill="white"/>
</g>
<path fill-rule="evenodd" clip-rule="evenodd" d="M29.8726 11.1909C29.8726 11.3755 30.0733 11.5249 30.3201 11.5249C30.5675 11.5249 30.7682 11.3755 30.7682 11.1909C30.7682 11.0069 30.5675 10.8574 30.3201 10.8574C30.0727 10.8574 29.8726 11.0063 29.8726 11.1909Z" fill="#404040"/>
<mask id="mask5_4031_2623" style="mask-type:luminance" maskUnits="userSpaceOnUse" x="29" y="10" width="2" height="2">
<path d="M29.9175 10.8574H30.7232V11.4898H29.9175V10.8574Z" fill="white"/>
</mask>
<g mask="url(#mask5_4031_2623)">
<path opacity="0.51" fill-rule="evenodd" clip-rule="evenodd" d="M29.9175 11.1733C29.9175 11.3483 30.0974 11.4898 30.32 11.4898C30.5427 11.4898 30.7232 11.3483 30.7232 11.1733C30.7232 10.999 30.5427 10.8574 30.32 10.8574C30.098 10.8574 29.9175 10.999 29.9175 11.1733Z" fill="#4F4F4F"/>
</g>
<path fill-rule="evenodd" clip-rule="evenodd" d="M25.1721 11.2015C25.1721 11.3855 25.3723 11.5344 25.6197 11.5344C25.8671 11.5344 26.0672 11.3855 26.0672 11.2015C26.0672 11.018 25.8665 10.8691 25.6197 10.8691C25.3723 10.8691 25.1721 11.018 25.1721 11.2015Z" fill="#404040"/>
<mask id="mask6_4031_2623" style="mask-type:luminance" maskUnits="userSpaceOnUse" x="25" y="10" width="2" height="2">
<path d="M25.2164 10.8574H26.0226V11.4898H25.2158L25.2164 10.8574Z" fill="white"/>
</mask>
<g mask="url(#mask6_4031_2623)">
<path opacity="0.51" fill-rule="evenodd" clip-rule="evenodd" d="M25.2166 11.1733C25.2166 11.3483 25.397 11.4898 25.6197 11.4898C25.8418 11.4898 26.0222 11.3483 26.0222 11.1733C26.0222 10.999 25.8423 10.8574 25.6197 10.8574C25.397 10.8574 25.2166 10.999 25.2166 11.1733Z" fill="#4F4F4F"/>
</g>
<mask id="mask7_4031_2623" style="mask-type:luminance" maskUnits="userSpaceOnUse" x="30" y="10" width="1" height="2">
<path d="M30.2087 10.9727H30.4544V11.0836H30.2093V10.9732L30.2087 10.9727Z" fill="white"/>
</mask>
<g mask="url(#mask7_4031_2623)">
<path opacity="0.89" fill-rule="evenodd" clip-rule="evenodd" d="M30.4544 10.9928C30.4544 11.0381 30.32 11.0834 30.2756 11.0834C30.2306 11.0834 30.1609 11.0341 30.2587 10.9928C30.365 10.9475 30.4544 10.9928 30.4544 10.9928Z" fill="white"/>
</g>
<mask id="mask8_4031_2623" style="mask-type:luminance" maskUnits="userSpaceOnUse" x="29" y="11" width="2" height="1">
<path d="M29.9951 11.1738H30.2313V11.3663H29.9951V11.1738Z" fill="white"/>
</mask>
<g mask="url(#mask8_4031_2623)">
<path opacity="0.89" fill-rule="evenodd" clip-rule="evenodd" d="M30.0961 11.1738C30.1861 11.1738 30.231 11.2191 30.231 11.2644C30.231 11.3097 30.231 11.3997 30.1411 11.355C30.0511 11.3097 29.9617 11.2644 30.0061 11.2191C30.0511 11.1738 30.0961 11.1738 30.0961 11.1738Z" fill="white"/>
</g>
<mask id="mask9_4031_2623" style="mask-type:luminance" maskUnits="userSpaceOnUse" x="25" y="10" width="1" height="2">
<path d="M25.5535 10.9727H25.7986V11.0836H25.5535V10.9732V10.9727Z" fill="white"/>
</mask>
<g mask="url(#mask9_4031_2623)">
<path opacity="0.89" fill-rule="evenodd" clip-rule="evenodd" d="M25.7986 10.9928C25.7986 11.0381 25.6643 11.0834 25.6199 11.0834C25.5749 11.0834 25.5052 11.0341 25.603 10.9928C25.7098 10.9475 25.7986 10.9928 25.7986 10.9928Z" fill="white"/>
</g>
<mask id="mask10_4031_2623" style="mask-type:luminance" maskUnits="userSpaceOnUse" x="25" y="11" width="1" height="1">
<path d="M25.2945 11.2188H25.5301V11.4112H25.2939L25.2945 11.2188Z" fill="white"/>
</mask>
<g mask="url(#mask10_4031_2623)">
<path opacity="0.89" fill-rule="evenodd" clip-rule="evenodd" d="M25.3957 11.2188C25.4856 11.2188 25.53 11.264 25.53 11.3093C25.53 11.3546 25.53 11.4447 25.4401 11.3999C25.3507 11.3546 25.2613 11.3093 25.3057 11.264C25.3507 11.2187 25.3957 11.2188 25.3957 11.2188Z" fill="white"/>
</g>
<path fill-rule="evenodd" clip-rule="evenodd" d="M30.1864 11.1738C30.1864 11.2361 30.246 11.287 30.3207 11.287C30.3944 11.287 30.4545 11.2361 30.4545 11.1738C30.4545 11.1115 30.3944 11.0605 30.3207 11.0605C30.246 11.0605 30.1864 11.1115 30.1864 11.1738Z" fill="#404040"/>
<mask id="mask11_4031_2623" style="mask-type:luminance" maskUnits="userSpaceOnUse" x="29" y="12" width="3" height="2">
<path d="M29.8118 12.9473H31.5986V13.9307H29.8118V12.9473Z" fill="white"/>
</mask>
<g mask="url(#mask11_4031_2623)">
<path fill-rule="evenodd" clip-rule="evenodd" d="M31.5739 13.0254C31.6638 13.3413 31.5289 13.9737 30.902 13.9284C30.2757 13.8831 29.6038 13.7031 29.8731 13.5672C30.1413 13.4313 30.8767 13.3985 31.0369 13.116C31.2157 12.7995 31.5739 13.0254 31.5739 13.0254Z" fill="#D6D6D6"/>
</g>
<mask id="mask12_4031_2623" style="mask-type:luminance" maskUnits="userSpaceOnUse" x="24" y="12" width="3" height="2">
<path d="M24.395 12.9473H26.1818V13.9307H24.395V12.9473Z" fill="white"/>
</mask>
<g mask="url(#mask12_4031_2623)">
<path fill-rule="evenodd" clip-rule="evenodd" d="M24.4199 13.0254C24.33 13.3413 24.4649 13.9737 25.0913 13.9284C25.7182 13.8831 26.39 13.7031 26.1213 13.5672C25.8525 13.4313 25.1171 13.3985 24.9574 13.116C24.7775 12.7995 24.4199 13.0254 24.4199 13.0254Z" fill="#D6D6D6"/>
</g>
<mask id="mask13_4031_2623" style="mask-type:luminance" maskUnits="userSpaceOnUse" x="27" y="12" width="2" height="3">
<path d="M27.6343 12.7457H28.2179V14.019H27.6343V12.7457Z" fill="white"/>
</mask>
<g mask="url(#mask13_4031_2623)">
<path fill-rule="evenodd" clip-rule="evenodd" d="M28.216 13.6838C28.1767 14.0235 27.9923 14.0654 27.8135 13.9805C27.6335 13.8956 27.5891 13.5576 27.6785 13.1341C27.7685 12.7111 27.9029 12.6687 27.9478 12.8374C27.9928 13.0073 28.2413 13.4642 28.216 13.6838Z" fill="#D6D6D6"/>
</g>
<mask id="mask14_4031_2623" style="mask-type:luminance" maskUnits="userSpaceOnUse" x="28" y="11" width="4" height="2">
<path d="M28.7534 11.3096H31.6186V12.2573H28.7534V11.3096Z" fill="white"/>
</mask>
<g mask="url(#mask14_4031_2623)">
<path opacity="0.38" fill-rule="evenodd" clip-rule="evenodd" d="M31.6188 11.7643C31.4451 11.5124 31.4192 11.462 31.2809 11.5124C31.142 11.5633 30.9256 11.8147 30.6658 11.7643C30.4061 11.7134 29.8427 11.7643 29.6262 11.6131C29.4098 11.462 29.1163 11.325 29.0033 11.3182C28.8902 11.3114 28.7165 11.261 28.7604 11.5124C28.8037 11.7643 28.7604 11.8651 28.9335 11.8651C29.1067 11.8651 29.281 11.8934 29.6054 12.0553C29.9298 12.2172 30.7957 12.318 31.0554 12.2172C31.3152 12.1165 31.6188 11.7643 31.6188 11.7643Z" fill="#D6D6D6"/>
</g>
<mask id="mask15_4031_2623" style="mask-type:luminance" maskUnits="userSpaceOnUse" x="24" y="11" width="4" height="2">
<path d="M24.2769 11.3096H27.1415V12.2534H24.2769V11.3096Z" fill="white"/>
</mask>
<g mask="url(#mask15_4031_2623)">
<path opacity="0.38" fill-rule="evenodd" clip-rule="evenodd" d="M24.2769 11.7643C24.4501 11.5124 24.476 11.462 24.6143 11.5124C24.7526 11.5633 24.9696 11.8147 25.2294 11.7643C25.4891 11.7139 26.0519 11.7643 26.2684 11.6137C26.4854 11.462 26.7789 11.325 26.8919 11.3182C27.0044 11.3114 27.1787 11.261 27.1348 11.5124C27.0915 11.7643 27.1348 11.8651 26.9616 11.8651C26.7885 11.8651 26.9735 11.8702 26.649 12.0321C26.3252 12.194 25.0995 12.3186 24.8397 12.2178C24.5794 12.1165 24.2764 11.7649 24.2764 11.7649L24.2769 11.7643Z" fill="#D6D6D6"/>
</g>
<mask id="mask16_4031_2623" style="mask-type:luminance" maskUnits="userSpaceOnUse" x="28" y="13" width="2" height="2">
<path d="M28.5771 13.3838H29.091V14.2512H28.5771V13.3838Z" fill="white"/>
</mask>
<g mask="url(#mask16_4031_2623)">
<path fill-rule="evenodd" clip-rule="evenodd" d="M28.8424 13.4767C28.9773 13.522 29.1561 13.6579 29.0667 13.8832C28.9767 14.1097 28.9323 14.2897 28.8429 14.2444C28.753 14.1991 28.753 14.1538 28.6636 14.0644C28.442 13.8407 28.7086 13.3414 28.7535 13.3867L28.8429 13.4773L28.8424 13.4767Z" fill="#D6D6D6"/>
</g>
<mask id="mask17_4031_2623" style="mask-type:luminance" maskUnits="userSpaceOnUse" x="26" y="13" width="2" height="2">
<path d="M26.7412 13.3838H27.2551V14.2512H26.7412V13.3838Z" fill="white"/>
</mask>
<g mask="url(#mask17_4031_2623)">
<path fill-rule="evenodd" clip-rule="evenodd" d="M26.9893 13.4767C26.8549 13.522 26.6761 13.6579 26.7655 13.8832C26.8555 14.1097 26.8999 14.2897 26.9893 14.2444C27.0792 14.1991 27.0792 14.1538 27.1686 14.0644C27.3902 13.8407 27.1237 13.3414 27.0787 13.3867L26.9893 13.4773V13.4767Z" fill="#D6D6D6"/>
</g>
<path fill-rule="evenodd" clip-rule="evenodd" d="M29.7831 16.2327C29.8287 16.2576 30.1806 16.1608 30.1862 16.2327C30.1986 16.4054 29.7044 16.9178 29.5144 17.0452C29.2456 17.2264 29.1112 17.4064 28.843 17.3169C28.5743 17.2264 28.2898 16.9908 28.4326 16.8374C28.5743 16.6845 29.7831 16.2327 29.7831 16.2327ZM26.0886 16.1648C26.0431 16.1897 25.6911 16.0929 25.686 16.1648C25.6731 16.338 26.1673 16.8499 26.3574 16.9778C26.6261 17.1584 26.7605 17.339 27.0287 17.249C27.2974 17.1584 27.5819 16.9229 27.4397 16.77C27.2974 16.6166 26.0886 16.1648 26.0886 16.1648Z" fill="#D6D6D6"/>
<path fill-rule="evenodd" clip-rule="evenodd" d="M25.709 16.1873C25.6134 16.0769 27.1866 15.6455 27.7949 15.8216C28.0485 15.8952 28.2981 15.8001 28.5298 15.7808C29.0875 15.735 30.3391 16.1562 30.1862 16.2326C30.0332 16.3085 25.709 16.1873 25.709 16.1873Z" fill="#D6D6D6"/>
<path fill-rule="evenodd" clip-rule="evenodd" d="M29.6938 16.2778C29.4701 16.4131 28.8881 16.7743 28.6188 16.8196C28.3506 16.8649 27.8626 16.8196 27.6349 16.8196C27.41 16.8196 27.1418 16.7743 27.0074 16.729C26.8731 16.6837 26.1568 16.2778 26.1568 16.1872C26.1568 16.0966 26.0274 16.2461 26.3361 16.1872C26.6448 16.1289 27.9475 16.1872 28.3057 16.1872C28.6638 16.1872 29.5595 16.2325 29.7832 16.2325C30.007 16.2325 29.6933 16.2778 29.6933 16.2778H29.6938Z" fill="#ACACAC"/>
<path fill-rule="evenodd" clip-rule="evenodd" d="M30.1863 16.2321C30.1863 16.2701 30.1357 16.287 30.0598 16.291C29.8698 16.3012 29.5212 16.2321 29.425 16.2321C29.2906 16.2321 28.7981 16.2321 28.5743 16.2774C28.3506 16.3227 28.2612 16.4127 28.0374 16.3674C27.8131 16.3222 27.6343 16.3222 27.3655 16.2769C27.0973 16.2316 26.6048 16.1863 26.4254 16.2316C26.2466 16.2769 25.9054 16.2191 25.8435 16.2316C25.6197 16.2769 25.6197 16.1863 25.7091 16.1863C25.7991 16.1863 26.6942 15.8709 27.0973 15.8709C27.4999 15.8709 27.6343 15.9162 27.903 15.9615C28.1712 16.0062 28.2612 15.8709 28.6193 15.8709C28.9775 15.8709 30.1863 16.1868 30.1863 16.2321ZM27.0523 10.7669C27.1867 10.8575 27.3205 11.1734 27.2317 11.3093C27.1417 11.444 26.8286 11.3546 26.6492 11.3546C26.4704 11.3546 26.3512 11.204 26.1567 11.0828C25.9357 10.9458 25.3066 10.9028 25.0828 11.0828C24.8843 11.2425 24.9479 11.3546 24.7241 11.4446C24.5003 11.5352 24.5897 11.4446 24.5453 11.3993C24.5003 11.354 24.5903 11.0834 25.0373 10.9481C25.2605 10.8801 25.6653 10.8009 25.9779 10.8575C26.2928 10.9141 26.5148 11.0834 26.6492 11.1281C26.8241 11.1876 26.9624 11.1734 26.918 10.9475C26.873 10.7216 26.6942 10.5863 26.873 10.6769L27.0523 10.7669Z" fill="#909090"/>
<path fill-rule="evenodd" clip-rule="evenodd" d="M24.6797 11.462C24.7505 11.4892 24.7505 11.534 24.8371 11.4439C24.9248 11.3533 24.9316 11.239 25.0586 11.1382C25.1377 11.0702 25.23 11.0196 25.3297 10.9899C25.4293 10.9601 25.5341 10.9518 25.6372 10.9655C25.9262 10.9921 26.0746 11.0663 26.2017 11.1274C26.3585 11.2027 26.5373 11.3743 26.5154 11.3539C26.4772 11.3177 26.2242 11.0453 26.0319 11.0187C25.839 10.9921 25.7086 10.9021 25.4472 10.9468C25.1857 10.9921 24.9243 11.128 24.881 11.218C24.8377 11.3086 24.6797 11.462 24.6797 11.462Z" fill="#404040"/>
<path fill-rule="evenodd" clip-rule="evenodd" d="M31.5289 11.399C31.5738 11.4896 31.6188 11.5349 31.4395 11.4896C31.2607 11.4443 31.0813 11.0831 30.8575 11.0378C30.6338 10.9925 30.4994 10.8566 30.1862 10.9925C29.8725 11.1284 29.6037 11.2184 29.4699 11.2637C29.335 11.309 29.38 11.4443 29.2012 11.3995C29.0224 11.3543 28.843 11.309 28.7536 11.2184C28.6637 11.1278 28.5743 11.1731 28.6187 10.9472C28.6637 10.7213 28.6637 10.5412 28.7986 10.586C28.9324 10.6313 28.7986 10.7218 28.888 10.9025C28.9774 11.0831 28.933 11.1731 29.2012 11.0378C29.4699 10.9019 29.6037 10.8566 29.9175 10.8566C30.2306 10.8566 30.8131 10.8113 31.0813 10.9472C31.3501 11.0831 31.5289 11.399 31.5289 11.399Z" fill="#909090"/>
<path fill-rule="evenodd" clip-rule="evenodd" d="M31.3782 11.462C31.3051 11.4892 31.3051 11.534 31.2157 11.4439C31.1258 11.3533 31.119 11.239 30.9886 11.1382C30.8576 11.0374 30.6912 10.9383 30.3937 10.9655C30.0963 10.9921 29.9327 11.1127 29.7905 11.1427C29.6488 11.1727 29.375 11.3114 29.4222 11.2871C29.47 11.2633 29.7905 11.0453 29.9884 11.0187C30.1857 10.9921 30.3201 10.9021 30.5888 10.9468C30.8576 10.9921 31.1264 11.128 31.1708 11.218C31.2157 11.3086 31.3777 11.4615 31.3777 11.4615L31.3782 11.462ZM25.4854 11.1954C25.4854 11.2577 25.5455 11.3086 25.6197 11.3086C25.6939 11.3086 25.7535 11.2577 25.7535 11.1954C25.7535 11.1331 25.6939 11.0821 25.6197 11.0821C25.5455 11.0821 25.4854 11.1331 25.4854 11.1954Z" fill="#404040"/>
<mask id="mask18_4031_2623" style="mask-type:luminance" maskUnits="userSpaceOnUse" x="27" y="15" width="2" height="2">
<path d="M27.7927 15.9404H28.3617V16.3254H27.7927V15.9404Z" fill="white"/>
</mask>
<g mask="url(#mask18_4031_2623)">
<path opacity="0.38" fill-rule="evenodd" clip-rule="evenodd" d="M28.3503 15.9606C28.3953 16.0964 28.3053 16.2765 28.1265 16.3218C27.9472 16.3671 27.7234 16.0059 27.8128 16.0059C27.9028 16.0059 28.171 16.0059 28.2609 15.9606C28.3503 15.9153 28.3503 15.9606 28.3503 15.9606Z" fill="#D6D6D6"/>
</g>
<path fill-rule="evenodd" clip-rule="evenodd" d="M28.3506 22.2388C28.6637 22.5095 29.0219 23.0513 28.7531 23.4131C28.485 23.7743 28.3056 24.0449 27.9924 23.8643C27.6793 23.6837 27.1867 22.5995 27.4999 22.5095C27.8131 22.4189 28.3506 22.2388 28.3506 22.2388Z" fill="#2A2A2A"/>
<path fill-rule="evenodd" clip-rule="evenodd" d="M21.098 21.1551C20.8585 21.0662 20.3671 21.0345 20.073 21.0628L14.7019 22.6888L14.8312 24.0907L20.3823 22.3293C20.7623 21.9817 20.9749 21.582 21.0986 21.1551H21.098Z" fill="#454545"/>
<path d="M20.1582 21.5613L19.217 22.5549L18.2325 22.4643L18.0531 22.6455V22.9614L17.5162 23.0973L17.4262 22.735L17.7844 22.329L17.3368 22.2837L17.2918 21.9225L17.7844 21.7866L17.8816 21.9967L18.1875 22.0125L18.725 21.4707L20.1582 21.5613ZM17.1142 21.9672L17.293 23.1868L16.7555 23.3679L16.5767 22.1484L17.1142 21.9672Z" fill="#D1D1D1"/>
<path d="M19.3068 21.832L19.0386 22.1485H18.5911L18.9042 21.832H19.3068Z" fill="#454545"/>
<path fill-rule="evenodd" clip-rule="evenodd" d="M35.1604 21.1551C35.3999 21.0662 35.8913 21.0345 36.1848 21.0628L41.5571 22.6888L41.4277 24.0907L35.8767 22.3293C35.4966 21.9817 35.2841 21.582 35.1604 21.1551Z" fill="#454545"/>
<path d="M36.1011 21.5613L37.0412 22.5549L38.0257 22.4643L38.2051 22.6455V22.9614L38.742 23.0973L38.832 22.735L38.4733 22.329L38.9214 22.2837L38.9663 21.9225L38.4733 21.7866L38.3766 21.9967L38.0707 22.0125L37.5332 21.4707L36.1011 21.5613ZM39.1451 21.9672L38.9658 23.1868L39.5033 23.3679L39.6821 22.1484L39.1451 21.9672ZM39.8614 22.1937L39.6377 23.4127L40.264 23.5938L40.4434 22.3743L39.8614 22.1937ZM40.5777 22.419L40.3984 23.6386L40.9803 23.8197L41.1152 22.6002L40.5777 22.419Z" fill="#D1D1D1"/>
<path d="M36.9512 21.832L37.2199 22.1485H37.6675L37.3543 21.832H36.9512Z" fill="#454545"/>
<path fill-rule="evenodd" clip-rule="evenodd" d="M32.8271 13.7479C32.1934 14.3877 33.007 15.1028 32.5589 15.6899C32.1114 16.277 32.0214 17.3612 31.3951 17.6318C30.7682 17.9036 30.365 18.4454 30.0963 18.8519C29.8281 19.2579 28.9324 19.8903 28.5743 19.755C28.2161 19.6191 28.2611 19.4385 28.1711 19.2579C28.0818 19.0773 28.1711 18.1742 27.9479 18.0842C27.7236 17.9936 27.6786 17.6318 27.5448 18.0842C27.4099 18.5354 27.4998 19.1679 27.0523 19.3485C26.6047 19.5291 26.5148 19.8903 26.291 19.3938C26.0672 18.8967 26.246 18.7161 25.7091 18.4454C25.1721 18.1737 24.5452 18.0842 24.3659 17.4065C24.1871 16.7288 23.6496 16.3676 23.5602 15.6899C23.4708 15.0127 23.5152 13.612 23.3364 13.7479C23.1571 13.8838 22.9783 14.9222 23.1571 15.7352C23.3364 16.5482 23.4663 17.1506 23.784 17.6318C24.1421 18.1742 25.2615 19.032 25.3065 19.2131C25.3515 19.3938 25.6647 19.755 26.1122 20.0709C26.5598 20.3868 26.8729 20.568 27.321 20.658C27.7686 20.7486 28.6637 20.658 29.1562 20.3868C29.6487 20.1162 30.6968 19.195 31.2157 18.6713C31.7976 18.0842 32.0214 17.9936 32.2896 17.5418C32.5589 17.0906 33.0958 15.6904 33.0958 15.1934C33.0958 14.6963 32.9615 13.6126 32.8271 13.7479Z" fill="#404040"/>
<path fill-rule="evenodd" clip-rule="evenodd" d="M28.6192 16.9093C28.6192 16.7281 27.3204 16.7281 27.1866 16.864C27.0522 16.9999 27.5448 17.3611 27.9029 17.3611C28.2611 17.3611 28.6192 17.1397 28.6192 16.9093ZM30.0068 15.8709C29.5143 15.4191 28.7086 15.4644 28.3954 15.4191C28.0817 15.3738 28.1267 14.832 27.8579 14.922C27.5892 15.0126 27.6786 15.2833 27.276 15.4191C26.8729 15.555 26.3804 15.6003 26.1122 15.7804C25.8434 15.9615 25.4403 16.0963 25.709 16.0963C25.9778 16.0963 26.7835 15.8256 27.231 15.7804C27.6786 15.7351 28.2611 15.7804 28.5298 15.7804C28.798 15.7804 29.4693 15.8709 29.7386 15.9162C30.0068 15.9615 30.0068 15.8709 30.0068 15.8709ZM32.2232 11.3314C32.1557 11.4899 31.8426 11.2187 31.7532 11.1287C31.6632 11.0381 31.7532 10.8122 31.4844 10.6769C31.2157 10.541 31.3056 10.4051 30.8131 10.4504C30.3206 10.4957 29.4693 10.541 29.2011 10.6316C28.9324 10.7222 28.798 10.7675 28.7536 10.5863C28.7086 10.4051 28.6636 10.3157 28.843 10.1798C29.0223 10.0439 30.2756 9.86389 30.7231 9.95448C31.1712 10.0445 31.3815 10.1289 31.7088 10.3225C32.1557 10.5863 32.2232 11.3314 32.2232 11.3314ZM23.6096 11.3314C23.6771 11.4899 23.9633 11.1281 24.0527 11.0381C24.1426 10.9475 24.0976 10.7669 24.3664 10.6316C24.6346 10.4957 24.6346 10.4504 25.0197 10.4504C25.5145 10.4504 26.3629 10.541 26.6317 10.6316C26.9004 10.7222 27.0342 10.7675 27.0792 10.5863C27.1242 10.4051 27.1692 10.3151 26.9893 10.1798C26.8105 10.0439 25.5572 9.86389 25.1091 9.95391C24.6616 10.0445 24.4513 10.1283 24.1241 10.3219C23.6765 10.5863 23.6096 11.3314 23.6096 11.3314Z" fill="#404040"/>
</g>
<path d="M42.2527 4.51802L41.9952 4.11717H42.2212L42.4787 4.51802H42.2527ZM41.8113 4.02206H42.0053C42.0795 4.02206 42.1358 4.00507 42.1762 3.9728C42.1963 3.95643 42.2122 3.93556 42.2227 3.91186C42.2333 3.88816 42.2381 3.8623 42.237 3.83635C42.2384 3.81046 42.2336 3.78461 42.223 3.76096C42.2125 3.73732 42.1964 3.71657 42.1762 3.70047C42.126 3.66609 42.0659 3.64955 42.0053 3.65348H41.8113V4.02206ZM41.5876 4.51802V3.47287H42.0188C42.1554 3.47287 42.2623 3.50515 42.3393 3.57082C42.3775 3.60322 42.4077 3.64401 42.4278 3.69004C42.4479 3.73607 42.4572 3.78612 42.4551 3.83635C42.4551 3.95129 42.4169 4.04017 42.3393 4.10415C42.2623 4.16756 42.1554 4.19927 42.0188 4.19927H41.8136V4.51802H41.5876ZM41.9716 4.78582C42.0752 4.7869 42.178 4.76718 42.2739 4.72781C42.3699 4.68844 42.4571 4.63021 42.5304 4.55652C42.6013 4.48462 42.6558 4.40026 42.6941 4.30288C42.7334 4.2055 42.752 4.10132 42.752 3.99035C42.752 3.87882 42.7329 3.77521 42.6941 3.67953C42.6572 3.58662 42.6024 3.50206 42.5327 3.4308C42.463 3.35953 42.3798 3.303 42.2881 3.26452C42.1901 3.22385 42.0849 3.20344 41.9789 3.20451C41.867 3.20451 41.763 3.22489 41.668 3.26452C41.5724 3.30416 41.4897 3.36077 41.4206 3.43324C41.2758 3.58356 41.1959 3.78548 41.1985 3.99488C41.1985 4.10698 41.2176 4.21003 41.2564 4.30571C41.2946 4.40082 41.3492 4.48518 41.4195 4.55765C41.4892 4.63012 41.5718 4.68617 41.6668 4.7258C41.7613 4.76544 41.8625 4.78582 41.9716 4.78582ZM41.9744 4.93189C41.8423 4.93189 41.7208 4.90754 41.6089 4.85999C41.4987 4.8135 41.3986 4.74556 41.3145 4.66006C41.2304 4.57457 41.1638 4.4732 41.1187 4.36176C41.0712 4.24539 41.0473 4.12066 41.0484 3.99488C41.0475 3.87186 41.0707 3.74987 41.1167 3.6359C41.1627 3.52194 41.2307 3.41824 41.3166 3.33077C41.4009 3.24584 41.4993 3.1779 41.6123 3.13034C41.7259 3.08278 41.8479 3.05957 41.9794 3.05957C42.1105 3.05957 42.2325 3.08222 42.346 3.12921C42.4585 3.1762 42.5569 3.24244 42.6401 3.32737C42.7257 3.4145 42.7932 3.51798 42.8386 3.63173C42.884 3.74548 42.9063 3.86722 42.9043 3.98979C42.9043 4.12284 42.8813 4.24569 42.8335 4.36006C42.7411 4.58606 42.5633 4.76587 42.3393 4.85999C42.2268 4.90754 42.106 4.93189 41.9744 4.93189Z" fill="#777777"/>
<path d="M14.38 36.6041L13.2202 35.0512L13.8328 34.6683L15.2644 36.6041H14.38ZM13.9053 35.0753L13.2012 34.9902L14.3807 33.3643H15.1862L13.9053 35.0753ZM12.6061 34.6747H13.6948V35.3058H12.6054L12.6061 34.6747ZM12.0773 33.3643H12.8286V36.6048H12.0773V33.3643ZM18.8846 36.6041V35.9489L18.8424 35.8092V34.6626C18.8424 34.44 18.7769 34.2677 18.6452 34.1443C18.5121 34.0209 18.3114 33.9585 18.0431 33.9585C17.8628 33.9585 17.6847 33.9869 17.5108 34.0436C17.3498 34.0931 17.1998 34.1735 17.0692 34.2804L16.7742 33.7288C16.9584 33.5891 17.168 33.487 17.391 33.4281C17.629 33.3615 17.8769 33.3281 18.1332 33.3281C18.598 33.3281 18.9585 33.4402 19.2128 33.6649C19.467 33.889 19.5944 34.2358 19.5944 34.7052V36.6041H18.8846ZM17.8748 36.6467C17.634 36.6467 17.4241 36.6055 17.2432 36.5226C17.0742 36.4491 16.9293 36.3291 16.8249 36.1765C16.7267 36.0285 16.6754 35.8539 16.6777 35.6759C16.6777 35.4937 16.7207 35.3299 16.8073 35.1845C16.8932 35.0392 17.0347 34.9236 17.2312 34.8385C17.4277 34.7534 17.6882 34.7109 18.0128 34.7109H18.9452V35.2143H18.0671C17.8107 35.2143 17.6375 35.2561 17.5502 35.3391C17.5075 35.3776 17.4735 35.4249 17.4506 35.4777C17.4276 35.5306 17.4162 35.5878 17.4171 35.6454C17.4171 35.783 17.4713 35.8922 17.5798 35.973C17.6882 36.0539 17.8382 36.0943 18.0304 36.0943C18.2156 36.0943 18.3811 36.0517 18.5276 35.9667C18.6734 35.8816 18.779 35.7568 18.8424 35.5908L18.9691 36.0461C18.8971 36.2357 18.7596 36.3928 18.5818 36.4885C18.3952 36.5942 18.1593 36.6467 17.8748 36.6467ZM21.7295 36.6041V33.3643H24.8082V36.6048H24.0632V33.8316L24.2371 34.0074H22.3069L22.4809 33.8316V36.6041H21.7295ZM27.0271 36.6041V33.3643H27.7791V35.5001L29.5537 33.3643H30.2388V36.6048H29.4868V34.4683L27.7193 36.6041H27.0271ZM33.1196 36.6041V33.8259L33.2943 34.0074H31.9894V33.3643H34.9963V34.0074H33.6971L33.871 33.8259V36.6041H33.1196ZM38.6947 36.6041V35.9489L38.6517 35.8092V34.6626C38.6517 34.44 38.5862 34.2677 38.4538 34.1443C38.3214 34.0209 38.1207 33.9585 37.8525 33.9585C37.6722 33.9585 37.494 33.9869 37.3201 34.0436C37.1462 34.1003 36.9983 34.1797 36.8786 34.2804L36.5835 33.7288C36.7677 33.5894 36.9769 33.4873 37.1997 33.4281C37.4384 33.3615 37.6856 33.3281 37.9426 33.3281C38.4073 33.3281 38.7679 33.4402 39.0221 33.6649C39.2763 33.889 39.4038 34.2358 39.4038 34.7052V36.6041H38.6947ZM37.6841 36.6467C37.4433 36.6467 37.2328 36.6055 37.0525 36.5226C36.8837 36.4489 36.7387 36.329 36.6342 36.1765C36.5361 36.0284 36.4848 35.8539 36.487 35.6759C36.487 35.4937 36.53 35.3299 36.6166 35.1845C36.7025 35.0392 36.8441 34.9236 37.0405 34.8385C37.237 34.7534 37.4975 34.7109 37.8222 34.7109H38.7545V35.2143H37.8764C37.6201 35.2143 37.4475 35.2561 37.3595 35.3391C37.3168 35.3775 37.2828 35.4248 37.2598 35.4776C37.2368 35.5305 37.2254 35.5877 37.2264 35.6454C37.2264 35.783 37.2807 35.8922 37.3891 35.973C37.4975 36.0539 37.6475 36.0943 37.8398 36.0943C38.025 36.0943 38.1905 36.0517 38.3369 35.9667C38.4827 35.8816 38.5883 35.7568 38.6517 35.5908L38.7784 36.0461C38.7062 36.2358 38.5685 36.3929 38.3904 36.4885C38.2045 36.5942 37.9686 36.6467 37.6841 36.6467ZM41.5388 36.6041V33.3643H42.2902V34.6811H43.9084V33.3643H44.6598V36.6048H43.9084V35.3242H42.2902V36.6041H41.5388ZM2.70744 47.4405H5.15236C5.665 47.4405 6.05371 47.3327 6.31989 47.1171C6.58537 46.9015 6.71846 46.5683 6.71846 46.1173C6.71846 45.6862 6.58466 45.3657 6.31989 45.1543C6.05441 44.9445 5.665 44.8388 5.15236 44.8388H2.70744V47.4405ZM2.70744 43.1774H4.78125C5.26714 43.1774 5.63331 43.0725 5.87978 42.8611C6.12765 42.6513 6.25088 42.34 6.25088 41.928C6.25088 41.5167 6.12765 41.2047 5.88049 40.9948C5.63261 40.7842 5.26644 40.6786 4.78196 40.6786H2.70744V43.1774ZM0.496309 49.2047V38.9143H4.9735C6.09103 38.9143 6.9607 39.1448 7.5839 39.6057C8.2064 40.0666 8.51764 40.7225 8.51764 41.5749C8.51764 42.4187 8.2247 43.0725 7.63882 43.5376C7.05224 44.0035 6.27412 44.2361 5.30376 44.2361L5.5643 43.6192C6.64452 43.6192 7.4832 43.8489 8.07823 44.3098C8.67327 44.7707 8.97114 45.4366 8.97114 46.3087C8.97114 47.2107 8.65214 47.9184 8.01627 48.4332C7.37969 48.9473 6.45298 49.2047 5.23475 49.2047H0.496309ZM16.1108 49.2047L13.1159 44.251L14.9158 43.0895L18.6381 49.2047H16.1101H16.1108ZM15.1215 44.324L13.0751 44.0595L16.1932 38.9143H18.5417L15.1215 44.324ZM11.4266 43.0746H14.7785V45.0593H11.4266V43.0746ZM9.86123 38.9143H12.0724V49.2047H9.86123V38.9143Z" fill="#777777"/>
<path d="M19.904 47.2644C20.435 47.4317 20.8814 47.4778 21.2434 47.4041C21.6053 47.331 21.9279 47.0588 22.2116 46.5886L22.6785 45.8391L22.8848 45.5888L26.0713 38.9148H28.2556L24.1622 47.0588C23.7961 47.7934 23.363 48.3571 22.8644 48.7492C22.3644 49.1414 21.818 49.364 21.223 49.4186C20.6279 49.4725 20.009 49.3569 19.3682 49.0726L19.904 47.2644ZM22.8433 47.5736L18.5034 38.9156H20.8793L24.0665 45.8242L22.8433 47.5736ZM32.3075 49.3817C31.5997 49.3881 30.8975 49.2556 30.24 48.9917C29.6178 48.7417 29.0542 48.3637 28.5852 47.882C28.1141 47.3963 27.7427 46.8219 27.4923 46.1915C27.2318 45.5448 27.1015 44.8343 27.1015 44.06C27.1015 43.2857 27.2318 42.5752 27.4923 41.9285C27.7435 41.2971 28.1172 40.7224 28.5915 40.238C29.0626 39.7585 29.626 39.3809 30.2471 39.1283C30.8787 38.8688 31.5702 38.7383 32.3209 38.7383C33.1539 38.7383 33.9074 38.8929 34.5806 39.202C35.2489 39.507 35.8318 39.974 36.277 40.5614L34.8482 41.9724C34.5186 41.5711 34.1524 41.2697 33.7497 41.0691C33.3394 40.8664 32.8877 40.7632 32.4307 40.7677C31.9822 40.7677 31.5702 40.8457 31.1949 41.0024C30.8255 41.1547 30.4929 41.3852 30.2196 41.6782C29.9397 41.98 29.7226 42.3351 29.5809 42.7227C29.4251 43.1508 29.3483 43.604 29.3542 44.06C29.3542 44.55 29.4295 44.996 29.5809 45.3974C29.7316 45.7994 29.9443 46.1476 30.2196 46.4418C30.4942 46.7354 30.8189 46.9609 31.1949 47.1176C31.5873 47.2775 32.0074 47.3573 32.4307 47.3523C32.9075 47.3523 33.3462 47.253 33.7497 47.0517C34.1524 46.851 34.5186 46.5447 34.8482 46.1327L36.277 47.5438C35.8308 48.1321 35.2484 48.6014 34.5806 48.9109C33.9074 49.2243 33.1497 49.3817 32.3075 49.3817ZM41.7724 47.353C42.2019 47.353 42.5984 47.2743 42.9604 47.1183C43.3223 46.9616 43.6399 46.7354 43.9152 46.4411C44.1899 46.1476 44.4025 45.7994 44.5532 45.3974C44.7091 44.9692 44.786 44.516 44.78 44.06C44.7859 43.604 44.709 43.1508 44.5532 42.7227C44.4119 42.3368 44.1973 41.9823 43.9216 41.6789C43.655 41.3875 43.3297 41.1569 42.9674 41.0024C42.589 40.8433 42.1824 40.7632 41.7724 40.767C41.3414 40.767 40.9457 40.8457 40.5837 41.0024C40.2218 41.1598 39.9042 41.3853 39.6296 41.6789C39.3497 41.9805 39.1326 42.3353 38.9909 42.7227C38.8351 43.1508 38.7582 43.604 38.7641 44.06C38.7641 44.5401 38.8395 44.984 38.9909 45.391C39.1416 45.7973 39.3521 46.1476 39.6225 46.4411C39.8887 46.7331 40.2141 46.9641 40.5767 47.1183C40.9429 47.2743 41.3414 47.353 41.7724 47.353ZM41.7858 49.3817C41.0253 49.3817 40.3232 49.2491 39.6775 48.9846C39.0488 48.7315 38.4784 48.3511 38.0015 47.8671C37.527 47.3831 37.1535 46.8083 36.903 46.1766C36.6417 45.53 36.5115 44.8244 36.5115 44.06C36.5115 43.2956 36.6417 42.5901 36.903 41.9434C37.1546 41.3106 37.5306 40.7356 38.0086 40.2529C38.4871 39.7711 39.0571 39.3913 39.6845 39.1361C40.3253 38.8709 41.021 38.739 41.7724 38.739C42.5322 38.739 43.2301 38.8709 43.8666 39.1361C44.4899 39.3917 45.0555 39.7715 45.5292 40.2529C46.0024 40.7363 46.3776 41.3078 46.6341 41.9356C46.9002 42.578 47.0326 43.2857 47.0326 44.06C47.0326 44.8244 46.9002 45.5328 46.6341 46.1844C46.3686 46.8361 46.0003 47.3998 45.5292 47.8749C45.0539 48.3525 44.4886 48.7298 43.8666 48.9846C43.2301 49.2491 42.5364 49.3817 41.7858 49.3817ZM50.086 47.441H52.5309C53.0435 47.441 53.4329 47.3332 53.6984 47.1176C53.9639 46.902 54.097 46.5688 54.097 46.1178C54.097 45.6867 53.9639 45.3662 53.6984 45.1548C53.4329 44.945 53.0435 44.8393 52.5309 44.8393H50.086V47.441ZM50.086 43.1779H52.1598C52.645 43.1779 53.0118 43.073 53.259 42.8616C53.5062 42.6518 53.6301 42.3405 53.6301 41.9285C53.6301 41.5172 53.5062 41.2052 53.259 40.9953C53.0118 40.7847 52.645 40.6791 52.1598 40.6791H50.086V43.1779ZM47.8741 49.2052V38.9148H52.3527C53.4696 38.9148 54.3392 39.1453 54.9624 39.6062C55.5849 40.0671 55.8962 40.723 55.8962 41.5754C55.8962 42.4192 55.6032 43.073 55.0174 43.5381C54.4308 44.004 53.6527 44.2366 52.6823 44.2366L52.9435 43.6197C54.0238 43.6197 54.8617 43.8494 55.4568 44.3103C56.0518 44.7712 56.3497 45.4371 56.3497 46.3092C56.3497 47.2112 56.0314 47.9189 55.3948 48.4337C54.7582 48.9478 53.8308 49.2052 52.6133 49.2052H47.8741Z" fill="#777777"/>
</svg>
