<svg width="150" height="36" viewBox="0 0 150 36" fill="none" xmlns="http://www.w3.org/2000/svg">
<g clip-path="url(#clip0_4031_2797)">
<mask id="mask0_4031_2797" style="mask-type:luminance" maskUnits="userSpaceOnUse" x="0" y="0" width="150" height="36">
<path d="M150 0H0V36H150V0Z" fill="white"/>
</mask>
<g mask="url(#mask0_4031_2797)">
<path d="M3.8066 5.78174H0.773926V27.7565H3.8066V5.78174Z" fill="#777777"/>
<path d="M13.5051 5.78174H17.071L7.43966 16.0412L17.7709 27.7565H14.0383L3.80713 16.1089L13.5051 5.78174Z" fill="#777777"/>
<path d="M19.7373 5.78174H34.7007V8.35502H22.7699V15.1269H34.0009V17.7003H22.7699V25.1833H35.1673V27.7565H19.7373V5.78174Z" fill="#777777"/>
<path d="M38.3994 5.78174H41.8321L53.4297 23.4902V5.78174H56.4622V27.7565H52.9963L41.3988 10.048V27.7565H38.3994V5.78174Z" fill="#777777"/>
<path d="M130.348 5.78174H138.579C141.845 5.78174 144.245 7.03454 145.844 9.06602C147.443 11.0638 148.209 13.8064 148.209 16.786C148.209 19.7318 147.443 22.4745 145.844 24.506C144.245 26.5037 141.845 27.7904 138.579 27.7904H130.348V5.78174ZM133.38 25.1833H138.412C140.412 25.1833 142.111 24.3367 143.311 22.8469C144.51 21.3571 145.211 19.2578 145.211 16.786C145.211 14.3143 144.51 12.1811 143.311 10.7251C142.111 9.23534 140.412 8.38886 138.412 8.38886H133.38V25.1833Z" fill="#777777"/>
<path d="M76.2577 22.5422L82.8896 5.78174H85.9556L76.3911 29.2463L72.1253 19.5286L67.8595 29.2463L58.2949 5.78174H61.3609L67.9928 22.5422L72.1253 13.6033L76.2577 22.5422Z" fill="#777777"/>
<path d="M68.5269 5.78174H75.7253L72.126 13.6033L68.5269 5.78174Z" fill="#999999"/>
<path d="M117.683 28.4003C114.75 28.4003 112.284 27.1814 110.517 25.1159C108.751 23.0505 107.751 20.1386 107.751 16.7526C107.751 13.3667 108.785 10.4548 110.517 8.38938C112.284 6.32394 114.75 5.10498 117.683 5.10498C120.616 5.10498 123.082 6.32394 124.848 8.38938C126.615 10.4548 127.614 13.3667 127.614 16.7526C127.614 20.1386 126.581 23.0505 124.848 25.1159C123.115 27.2152 120.616 28.4003 117.683 28.4003ZM123.015 22.915C124.182 21.222 124.714 18.9534 124.714 16.7526C124.714 14.5517 124.182 12.2831 123.015 10.5902C121.849 8.89722 120.115 7.74606 117.683 7.74606C115.25 7.74606 113.517 8.89722 112.35 10.5902C111.184 12.2831 110.651 14.5517 110.651 16.7526C110.651 18.9534 111.184 21.1882 112.35 22.915C113.517 24.608 115.25 25.7592 117.683 25.7592C120.115 25.7592 121.882 24.608 123.015 22.915Z" fill="#777777"/>
<path d="M95.4874 28.4003C92.5546 28.4003 90.0885 27.1814 88.3223 25.1159C86.5559 23.0505 85.5562 20.1386 85.5562 16.7526C85.5562 13.3667 86.5893 10.4548 88.3223 8.38938C90.0885 6.32394 92.5546 5.10498 95.4874 5.10498C98.3868 5.10498 100.886 6.32394 102.652 8.38938C104.419 10.4548 105.419 13.3667 105.419 16.7526C105.419 20.1386 104.386 23.0505 102.652 25.1159C100.886 27.2152 98.4201 28.4003 95.4874 28.4003ZM100.82 22.915C101.986 21.222 102.519 18.9534 102.519 16.7526C102.519 14.5517 101.986 12.2831 100.82 10.5902C99.6532 8.89722 97.9202 7.74606 95.4874 7.74606C93.0546 7.74606 91.3216 8.89722 90.1552 10.5902C88.9888 12.2831 88.4555 14.5517 88.4555 16.7526C88.4555 18.9534 88.9888 21.1882 90.1552 22.915C91.3216 24.608 93.0546 25.7592 95.4874 25.7592C97.9202 25.7592 99.6865 24.608 100.82 22.915Z" fill="#777777"/>
</g>
</g>
<defs>
<clipPath id="clip0_4031_2797">
<rect width="150" height="36" fill="white"/>
</clipPath>
</defs>
</svg>
