<svg width="100" height="24" viewBox="0 0 100 24" fill="none" xmlns="http://www.w3.org/2000/svg">
<g clip-path="url(#clip0_4014_320)">
<mask id="mask0_4014_320" style="mask-type:luminance" maskUnits="userSpaceOnUse" x="0" y="0" width="100" height="24">
<path d="M100 0H0V24H100V0Z" fill="white"/>
</mask>
<g mask="url(#mask0_4014_320)">
<path d="M2.5379 3.85449H0.516113V18.5044H2.5379V3.85449Z" fill="#777777"/>
<path d="M9.00342 3.85449H11.3807L4.95977 10.6941L11.8473 18.5044H9.35885L2.53809 10.7392L9.00342 3.85449Z" fill="#777777"/>
<path d="M13.1582 3.85449H23.1338V5.57001H15.1799V10.0846H22.6673V11.8002H15.1799V16.7888H23.4449V18.5044H13.1582V3.85449Z" fill="#777777"/>
<path d="M25.5996 3.85449H27.888L35.6198 15.6601V3.85449H37.6415V18.5044H35.3309L27.5992 6.69865V18.5044H25.5996V3.85449Z" fill="#777777"/>
<path d="M86.8984 3.85449H92.3858C94.563 3.85449 96.163 4.68969 97.2291 6.04401C98.2953 7.37585 98.8063 9.20428 98.8063 11.1907C98.8063 13.1545 98.2953 14.983 97.2291 16.3373C96.163 17.6692 94.563 18.5269 92.3858 18.5269H86.8984V3.85449ZM88.9197 16.7888H92.2748C93.6079 16.7888 94.741 16.2244 95.541 15.2312C96.3402 14.238 96.8071 12.8385 96.8071 11.1907C96.8071 9.54284 96.3402 8.12076 95.541 7.15009C94.741 6.15689 93.6079 5.59257 92.2748 5.59257H88.9197V16.7888Z" fill="#777777"/>
<path d="M50.8385 15.0281L55.2597 3.85449H57.3038L50.9274 19.4976L48.0835 13.0191L45.2397 19.4976L38.8633 3.85449H40.9073L45.3286 15.0281L48.0835 9.06884L50.8385 15.0281Z" fill="#777777"/>
<path d="M45.6846 3.85449H50.4835L48.084 9.06884L45.6846 3.85449Z" fill="#999999"/>
<path d="M78.4556 18.9336C76.5005 18.9336 74.856 18.1209 73.6785 16.744C72.501 15.367 71.8345 13.4257 71.8345 11.1684C71.8345 8.91115 72.5232 6.96988 73.6785 5.59292C74.856 4.21596 76.5005 3.40332 78.4556 3.40332C80.4108 3.40332 82.0549 4.21596 83.2321 5.59292C84.4101 6.96988 85.0762 8.91115 85.0762 11.1684C85.0762 13.4257 84.3872 15.367 83.2321 16.744C82.077 18.1435 80.4108 18.9336 78.4556 18.9336ZM82.0101 15.2767C82.788 14.148 83.1431 12.6356 83.1431 11.1684C83.1431 9.70115 82.788 8.18875 82.0101 7.06012C81.2329 5.93148 80.077 5.16404 78.4556 5.16404C76.8335 5.16404 75.6784 5.93148 74.9005 7.06012C74.1229 8.18875 73.7674 9.70115 73.7674 11.1684C73.7674 12.6356 74.1229 14.1255 74.9005 15.2767C75.6784 16.4053 76.8335 17.1728 78.4556 17.1728C80.077 17.1728 81.2549 16.4053 82.0101 15.2767Z" fill="#777777"/>
<path d="M63.6585 18.9336C61.7033 18.9336 60.0592 18.1209 58.8817 16.744C57.7041 15.367 57.0376 13.4257 57.0376 11.1684C57.0376 8.91115 57.7263 6.96988 58.8817 5.59292C60.0592 4.21596 61.7033 3.40332 63.6585 3.40332C65.5914 3.40332 67.2577 4.21596 68.4352 5.59292C69.6127 6.96988 70.2792 8.91115 70.2792 11.1684C70.2792 13.4257 69.5905 15.367 68.4352 16.744C67.2577 18.1435 65.6136 18.9336 63.6585 18.9336ZM67.2132 15.2767C67.9908 14.148 68.3463 12.6356 68.3463 11.1684C68.3463 9.70115 67.9908 8.18875 67.2132 7.06012C66.4356 5.93148 65.2803 5.16404 63.6585 5.16404C62.0366 5.16404 60.8812 5.93148 60.1037 7.06012C59.326 8.18875 58.9705 9.70115 58.9705 11.1684C58.9705 12.6356 59.326 14.1255 60.1037 15.2767C60.8812 16.4053 62.0366 17.1728 63.6585 17.1728C65.2803 17.1728 66.4578 16.4053 67.2132 15.2767Z" fill="#777777"/>
</g>
</g>
<defs>
<clipPath id="clip0_4014_320">
<rect width="100" height="24" fill="white"/>
</clipPath>
</defs>
</svg>
