<svg width="150" height="29" viewBox="0 0 150 29" fill="none" xmlns="http://www.w3.org/2000/svg">
<g clip-path="url(#clip0_4031_2774)">
<path d="M24.1901 8.03703V19.9303C24.1901 21.052 24.3256 21.897 24.5967 22.4652C25.0752 23.4663 26.0154 23.9669 27.4172 23.9669C29.2116 23.9669 30.4406 23.2544 31.1042 21.8294C31.4845 20.8542 31.6599 19.8141 31.62 18.7711V8.03703H36.9724V27.7678H31.8415V24.9836C31.7929 25.0439 31.6696 25.2266 31.4714 25.5316C31.2786 25.8293 31.0425 26.098 30.7705 26.3291C30.0742 26.9672 29.257 27.4662 28.3649 27.7979C27.4925 28.0788 26.5777 28.2132 25.6593 28.1953C22.6799 28.1953 20.6733 27.1457 19.6397 25.0466C19.0602 23.8883 18.7705 22.1802 18.7705 19.9221V8.02881L24.1901 8.03703Z" fill="#777777"/>
<path d="M65.0128 8.11167C65.9394 8.49582 66.7494 9.10637 67.3651 9.8847C67.9569 10.6237 68.3519 11.4947 68.5146 12.4196C68.6592 13.3848 68.7211 14.3601 68.6997 15.3353L68.6632 27.7712H63.2548V15.2065C63.2786 14.5712 63.152 13.9391 62.8847 13.3595C62.4156 12.446 61.5511 11.9893 60.2913 11.9893C58.8333 11.9893 57.8268 12.5803 57.2716 13.7623C56.9699 14.4796 56.8247 15.2506 56.8455 16.0259V27.7712H51.5184V16.0149C51.5184 14.8439 51.395 13.9934 51.1483 13.4636C50.7034 12.51 49.8333 12.0332 48.538 12.0332C47.0314 12.0332 46.0193 12.51 45.5015 13.4636C45.2174 14.0117 45.0754 14.8201 45.0754 15.8889V27.7712H39.7314V8.06782H44.8623V10.9452C45.3464 10.1157 45.9734 9.37405 46.7156 8.75292C47.7399 7.98013 49.067 7.59374 50.6969 7.59374C52.2408 7.59374 53.4875 7.92532 54.4371 8.5885C55.2148 9.22057 55.8141 10.0366 56.1782 10.9589C56.7772 9.89146 57.6684 9.00805 58.752 8.40763C59.8772 7.8527 61.1226 7.57071 62.3828 7.58552C63.2859 7.5942 64.1788 7.77284 65.0128 8.11167Z" fill="#777777"/>
<path d="M71.3525 8.0376H76.7049V27.7684H71.3525V8.0376Z" fill="#777777"/>
<path d="M95.821 9.16446C97.1425 10.2332 97.8033 12.0044 97.8033 14.4781V27.7717H92.3949V15.7688C92.3949 14.7311 92.2537 13.9346 91.9715 13.3792C91.4556 12.3652 90.4752 11.8583 89.0304 11.8583C87.2528 11.8583 86.0379 12.6009 85.3855 14.0862C85.0091 15.0472 84.8337 16.0722 84.8696 17.1006V27.7881H79.5762V8.06831H84.6874V10.9457C85.1981 10.1162 85.8461 9.37538 86.6051 8.7534C87.6874 7.95686 89.0584 7.55859 90.7182 7.55859C92.7967 7.5659 94.4977 8.10119 95.821 9.16446Z" fill="#777777"/>
<path d="M130.47 7.57707L130.924 7.60447V12.8907C130.591 12.8541 130.295 12.8304 130.035 12.8194C129.775 12.8085 129.565 12.8021 129.404 12.8002C127.281 12.8002 125.855 13.4762 125.126 14.8281C124.718 15.5881 124.515 16.7592 124.515 18.3413V27.771H119.207V8.04019H124.254V11.4794C125.069 10.164 125.779 9.26515 126.385 8.78284C127.372 7.97534 128.656 7.57067 130.237 7.56885C130.325 7.56885 130.402 7.57159 130.47 7.57707Z" fill="#777777"/>
<path d="M144.521 14.7819C144.432 14.0687 144.171 13.3862 143.761 12.7896C143.167 11.9931 142.245 11.5948 140.994 11.5948C139.211 11.5948 137.996 12.458 137.349 14.1845C137.003 15.0979 136.83 16.3138 136.83 17.8319C136.83 19.277 137.003 20.4389 137.349 21.3177C137.981 22.9619 139.169 23.784 140.913 23.784C142.15 23.784 143.029 23.4579 143.548 22.8057C144.103 22.0652 144.431 21.1863 144.496 20.2709H149.885C149.743 21.8859 149.138 23.4292 148.141 24.724C146.485 26.9802 144.031 28.1084 140.781 28.1084C137.53 28.1084 135.139 27.1666 133.606 25.283C132.073 23.3995 131.307 20.9587 131.307 17.9607C131.307 14.5754 132.154 11.9419 133.847 10.0602C135.541 8.17847 137.877 7.23669 140.857 7.23486C143.391 7.23486 145.464 7.79025 147.075 8.90102C148.687 10.0118 149.642 11.973 149.941 14.7846L144.521 14.7819Z" fill="#777777"/>
<path d="M74.0271 5.91923C75.6994 5.91923 77.0551 4.59417 77.0551 2.95962C77.0551 1.32507 75.6994 0 74.0271 0C72.3547 0 70.999 1.32507 70.999 2.95962C70.999 4.59417 72.3547 5.91923 74.0271 5.91923Z" fill="#999999"/>
<path d="M114.35 8.85487C112.511 7.97238 110.483 7.53175 108.434 7.56963C105.023 7.56963 102.618 8.43834 101.218 10.1757C100.337 11.2865 99.8409 12.7042 99.7287 14.4288H104.823C104.904 13.7705 105.164 13.1453 105.575 12.6174C106.1 12.0145 106.995 11.7131 108.26 11.7131C109.382 11.7131 110.236 11.8666 110.823 12.1735C111.41 12.4804 111.701 13.0385 111.695 13.8479C111.695 14.511 111.316 14.9997 110.557 15.314C109.877 15.5532 109.168 15.7052 108.448 15.7661L106.637 15.9826C104.581 16.2366 103.026 16.6586 101.972 17.2487C100.045 18.3357 99.0811 20.0914 99.0811 22.5157C99.0811 24.3865 99.6801 25.8316 100.878 26.851C102.076 27.8704 103.595 28.3801 105.434 28.3801C106.79 28.4014 108.127 28.0704 109.309 27.421C110.246 26.8895 111.096 26.2245 111.832 25.4479V27.7663H116.921V17.6597V13.7054C116.931 11.3285 116.074 9.7117 114.35 8.85487ZM111.675 20.0905C111.638 21.8169 111.133 23.0044 110.161 23.653C109.228 24.2932 108.114 24.635 106.974 24.6313C106.305 24.6502 105.65 24.442 105.12 24.0421C104.612 23.6493 104.358 23.0099 104.358 22.1238C104.308 21.2194 104.793 20.3673 105.605 19.9315C106.097 19.6538 106.905 19.4181 108.031 19.2245L109.233 19.008C109.716 18.9295 110.19 18.8113 110.652 18.6545C111.009 18.5213 111.352 18.3543 111.675 18.1557V20.0905Z" fill="#777777"/>
<path d="M0 0H5.70561V22.9726H17.5766V27.7711H0V0Z" fill="#777777"/>
</g>
<defs>
<clipPath id="clip0_4031_2774">
<rect width="150" height="28.5" fill="white"/>
</clipPath>
</defs>
</svg>
