<svg width="100" height="19" viewBox="0 0 100 19" fill="none" xmlns="http://www.w3.org/2000/svg">
<g clip-path="url(#clip0_4023_933)">
<path d="M16.1268 5.35802V13.2869C16.1268 14.0347 16.2171 14.598 16.3978 14.9768C16.7168 15.6442 17.3436 15.9779 18.2782 15.9779C19.4744 15.9779 20.2937 15.5029 20.7361 14.5529C20.9896 13.9028 21.1066 13.2094 21.08 12.5141V5.35802H24.6483V18.5119H21.2277V16.6557C21.1953 16.6959 21.113 16.8177 20.981 17.0211C20.8524 17.2195 20.695 17.3986 20.5137 17.5527C20.0495 17.9781 19.5047 18.3108 18.9099 18.532C18.3283 18.7192 17.7184 18.8088 17.1062 18.7969C15.1199 18.7969 13.7822 18.0972 13.0931 16.6977C12.7068 15.9256 12.5137 14.7868 12.5137 13.2814V5.35254L16.1268 5.35802Z" fill="#777777"/>
<path d="M43.342 5.40778C43.9598 5.66388 44.4998 6.07091 44.9102 6.5898C45.3048 7.08247 45.5681 7.66311 45.6766 8.2797C45.7729 8.92317 45.8142 9.57337 45.7999 10.2235L45.7756 18.5141H42.17V10.1377C42.1859 9.71414 42.1015 9.29273 41.9233 8.90634C41.6105 8.29736 41.0342 7.99288 40.1943 7.99288C39.2224 7.99288 38.5513 8.38688 38.1813 9.17489C37.9801 9.65308 37.8833 10.1671 37.8971 10.6839V18.5141H34.3457V10.6766C34.3457 9.89592 34.2635 9.32897 34.099 8.97576C33.8024 8.33999 33.2224 8.02211 32.3588 8.02211C31.3545 8.02211 30.6797 8.33999 30.3345 8.97576C30.1451 9.34114 30.0504 9.88009 30.0504 10.5926V18.5141H26.4878V5.37855H29.9084V7.29682C30.2311 6.7438 30.6491 6.24936 31.1439 5.83528C31.8267 5.32009 32.7115 5.06249 33.7981 5.06249C34.8274 5.06249 35.6585 5.28355 36.2915 5.72566C36.81 6.14705 37.2096 6.69105 37.4523 7.30595C37.8516 6.59431 38.4458 6.00537 39.1682 5.60509C39.9183 5.23513 40.7486 5.04714 41.5887 5.05701C42.1908 5.0628 42.786 5.1819 43.342 5.40778Z" fill="#777777"/>
<path d="M47.5684 5.3584H51.1366V18.5122H47.5684V5.3584Z" fill="#777777"/>
<path d="M63.8807 6.10964C64.7617 6.82214 65.2022 8.00294 65.2022 9.65204V18.5144H61.5966V10.5125C61.5966 9.82073 61.5025 9.2897 61.3143 8.91945C60.9704 8.24349 60.3168 7.9055 59.3536 7.9055C58.1685 7.9055 57.3586 8.4006 56.9237 9.39079C56.6728 10.0315 56.5558 10.7148 56.5798 11.4004V18.5254H53.0508V5.37887H56.4583V7.29714C56.7987 6.74415 57.2308 6.25025 57.7368 5.8356C58.4583 5.30458 59.3723 5.03906 60.4788 5.03906C61.8645 5.04393 62.9984 5.40079 63.8807 6.10964Z" fill="#777777"/>
<path d="M86.9796 5.05138L87.2824 5.06965V8.59378C87.0606 8.56942 86.8631 8.55359 86.6899 8.54628C86.5167 8.53897 86.3765 8.53471 86.2693 8.53349C84.8537 8.53349 83.903 8.98414 83.417 9.88542C83.1453 10.3921 83.0095 11.1728 83.0095 12.2275V18.514H79.4712V5.36013H82.8357V7.65292C83.379 6.77599 83.8525 6.17676 84.2562 5.85522C84.9142 5.31689 85.7703 5.04712 86.8245 5.0459C86.883 5.0459 86.9347 5.04773 86.9796 5.05138Z" fill="#777777"/>
<path d="M96.3474 9.85459C96.2877 9.37912 96.1141 8.9241 95.8409 8.52641C95.4446 7.99539 94.8297 7.72988 93.996 7.72988C92.8072 7.72988 91.9973 8.30536 91.5661 9.45632C91.3356 10.0653 91.2203 10.8758 91.2203 11.888C91.2203 12.8514 91.3356 13.626 91.5661 14.2118C91.9873 15.308 92.7792 15.856 93.9418 15.856C94.7667 15.856 95.3524 15.6386 95.6988 15.2038C96.0685 14.7101 96.2875 14.1242 96.3306 13.5139H99.9231C99.8286 14.5906 99.4256 15.6194 98.7605 16.4827C97.6565 17.9868 96.021 18.7389 93.854 18.7389C91.687 18.7389 90.0926 18.1111 89.0708 16.8554C88.049 15.5997 87.5381 13.9725 87.5381 11.9738C87.5381 9.71696 88.1026 7.96129 89.2315 6.7068C90.3605 5.45231 91.9182 4.82446 93.9044 4.82324C95.5942 4.82324 96.9761 5.1935 98.0502 5.93401C99.1244 6.67452 99.7611 7.98199 99.9605 9.85642L96.3474 9.85459Z" fill="#777777"/>
<path d="M49.3512 3.94615C50.4661 3.94615 51.3699 3.06278 51.3699 1.97308C51.3699 0.883377 50.4661 0 49.3512 0C48.2363 0 47.3325 0.883377 47.3325 1.97308C47.3325 3.06278 48.2363 3.94615 49.3512 3.94615Z" fill="#999999"/>
<path d="M76.2336 5.90325C75.0075 5.31492 73.6554 5.02117 72.2897 5.04642C70.0156 5.04642 68.4118 5.62556 67.4785 6.78383C66.8916 7.52434 66.5607 8.46947 66.486 9.61921H69.8822C69.9365 9.18033 70.1094 8.76351 70.3832 8.41162C70.7333 8.00969 71.3302 7.80873 72.1738 7.80873C72.9215 7.80873 73.491 7.91104 73.8822 8.11565C74.2735 8.32027 74.4673 8.69235 74.4635 9.2319C74.4635 9.67402 74.2106 9.99982 73.7047 10.2093C73.2515 10.3688 72.779 10.4702 72.2991 10.5107L71.0916 10.6551C69.7209 10.8244 68.6841 11.1057 67.9813 11.4991C66.6966 12.2238 66.0542 13.3942 66.0542 15.0105C66.0542 16.2576 66.4536 17.221 67.2523 17.9007C68.0511 18.5803 69.0635 18.9201 70.2897 18.9201C71.1935 18.9342 72.0849 18.7136 72.8729 18.2807C73.4974 17.9263 74.0644 17.483 74.5551 16.9653V18.5108H77.9477V11.7732V9.1369C77.9539 7.55235 77.3825 6.47447 76.2336 5.90325ZM74.4505 13.3936C74.4255 14.5446 74.0891 15.3363 73.4411 15.7686C72.8187 16.1955 72.0762 16.4233 71.3159 16.4208C70.87 16.4335 70.4333 16.2947 70.0804 16.0281C69.7414 15.7662 69.572 15.3399 69.572 14.7492C69.5389 14.1463 69.8622 13.5782 70.4037 13.2877C70.7315 13.1025 71.2704 12.9454 72.0206 12.8163L72.8224 12.672C73.1439 12.6197 73.4603 12.5408 73.7682 12.4363C74.0062 12.3476 74.2347 12.2362 74.4505 12.1038V13.3936Z" fill="#777777"/>
<path d="M0 0H3.80374V15.3151H11.7178V18.514H0V0Z" fill="#777777"/>
</g>
<defs>
<clipPath id="clip0_4023_933">
<rect width="100" height="19" fill="white"/>
</clipPath>
</defs>
</svg>
