<svg width="100" height="33" viewBox="0 0 100 33" fill="none" xmlns="http://www.w3.org/2000/svg">
<g clip-path="url(#clip0_4024_1014)">
<path d="M31.385 1.79622C30.5106 3.54496 28.3477 8.56106 27.6574 15.1878C27.3813 17.4428 27.7035 18.7774 26.8291 19.2836L26.9211 19.5597C28.3477 19.0075 29.7743 18.5933 31.2009 18.1791L31.1549 17.857C30.5567 17.8109 30.6947 15.464 30.6947 14.4055C30.6947 13.255 30.8328 11.7364 32.7196 10.9081C33.0417 10.77 33.4099 10.6319 33.824 10.5859V15.556C33.824 16.6144 33.732 17.0286 33.1798 17.3508L33.2718 17.7189C34.6984 17.3968 36.125 17.0746 37.5976 16.7985L37.5516 16.4304C36.9534 16.4304 36.9073 15.8321 36.9073 14.9578C36.9073 11.5063 36.9073 8.10087 36.9073 4.64942C36.9534 2.39447 36.5852 0.967875 38.3339 0.553702V0.185547C35.6648 0.185547 32.9957 0.185547 30.3726 0.185547V0.553702C31.0629 0.599721 31.5691 1.10593 31.385 1.79622ZM33.778 3.45292C33.778 5.01758 33.778 6.49019 33.778 8.05485C33.1798 8.14689 32.1213 8.46903 31.5691 8.79116C32.0753 6.99641 32.8116 5.01758 33.778 3.45292Z" fill="#777777"/>
<path d="M59.9632 2.2104V14.4515C59.9632 14.9117 59.8252 15.7861 59.319 15.9242L59.2729 16.2923C62.4023 16.7065 65.2555 17.2127 68.1087 17.995L68.2007 17.6729C68.1547 16.9826 67.9246 16.2463 67.7865 15.51C67.5104 15.9242 66.4059 15.9702 65.5776 15.7401C63.5988 15.1878 63.0925 14.7737 62.9085 13.8073C62.9085 11.1842 62.9085 8.33097 62.9085 5.70787C63.6908 5.24767 64.7953 5.24767 66.636 6.30612C66.636 5.38573 66.636 4.51136 66.636 3.59098H62.9085V2.2104C63.9669 1.79622 65.6236 1.93428 67.2803 2.48651C67.5104 1.79622 67.8786 1.24399 68.1087 0.553702V0.185547C65.0254 0.185547 61.9881 0.185547 58.9048 0.185547V0.553702C59.7792 0.875837 59.9172 1.29001 59.9632 2.2104Z" fill="#777777"/>
<path d="M50.4373 2.2104V13.8533C50.4373 14.6816 50.3453 15.1878 49.8851 15.3719V15.7401C52.7843 15.7401 55.7296 15.8781 58.6288 16.2003L58.6748 15.8321L58.0305 13.8073C57.0181 14.9578 53.3826 14.4055 53.3366 12.6568C53.3366 10.0337 53.3366 8.28495 53.3366 5.66185C54.1189 5.20165 55.2234 5.20165 57.0641 6.2601C57.0641 5.33971 57.0641 4.46534 57.0641 3.54496H53.3826V2.16438C54.8092 1.70418 56.2818 2.02632 57.7544 2.44049C57.9845 1.7502 58.3527 1.19797 58.5828 0.507682V0.185547C55.4995 0.185547 52.4162 0.185547 49.3789 0.185547V0.553702C50.2993 0.875837 50.3913 1.29001 50.4373 2.2104Z" fill="#777777"/>
<path d="M69.4891 2.21086C69.4891 6.90483 69.4891 11.5988 69.4891 16.2928C69.4891 16.9831 69.3971 17.7654 68.6608 17.7654L68.5227 18.0875C71.4679 18.8699 74.5052 19.9743 77.2664 21.2629C78.0947 21.539 78.0947 19.9743 78.0027 19.238C77.4505 9.89609 75.7477 8.9757 73.999 6.44464C76.7602 3.63746 76.5761 1.24445 75.7477 0.462124C75.2875 0.0939691 74.6433 0.186008 73.953 0.186008C72.0662 0.186008 70.3635 0.186008 68.4307 0.186008V0.554162C69.4431 0.784259 69.4891 1.33649 69.4891 2.21086ZM72.4343 2.34892C72.5264 1.56659 74.091 1.47455 74.3672 2.34892C74.4592 3.95959 73.6308 5.43221 72.4343 6.30658C72.4343 5.01804 72.4343 3.68348 72.4343 2.34892ZM72.4343 7.87124C72.7565 7.68716 72.8485 7.50308 73.1246 7.319C75.0574 9.75803 75.3336 12.9334 75.4716 16.0627C75.5176 16.753 75.7477 17.9034 74.9194 18.0875C74.2751 18.0415 72.5264 17.7654 72.4343 17.1211C72.4343 14.0378 72.4343 10.9085 72.4343 7.87124Z" fill="#777777"/>
<path d="M78.8312 2.2104V19.5597C78.8312 20.7102 78.6471 21.3544 78.0029 21.2164L77.8648 21.5385C80.3498 22.735 83.065 24.2076 85.1819 26.0484C86.6085 26.8307 87.5749 25.4041 87.5749 22.689C87.5749 17.949 86.1023 14.3135 83.4792 10.4939C82.5588 9.15932 81.8225 8.23893 81.7764 7.73272C81.7764 4.05117 81.7764 5.20165 81.7764 2.25642C81.8685 1.24399 82.5127 0.783798 83.4792 0.553702C83.5252 0.553702 83.5252 0.553702 83.5712 0.553702C83.5712 0.415644 83.5712 0.323605 83.5712 0.185547C76.3462 0.185547 83.6632 0.185547 76.4382 0.185547C76.4382 0.691759 76.3462 0.277585 76.9444 2.48651C77.2665 2.07234 78.233 1.84224 78.8312 2.2104ZM81.7764 10.0337C82.4667 11.0921 83.019 12.1506 83.4792 13.209C85.2279 17.3968 85.1819 21.3544 85.1819 22.2288C85.1819 22.735 85.0438 22.8731 84.6757 22.9191C84.1234 22.9191 82.5128 22.0447 81.8225 21.0783C81.7764 17.7649 81.7764 12.8869 81.7764 10.0337Z" fill="#777777"/>
<path d="M38.0117 16.3383L38.1038 16.7065C39.7144 16.4304 41.3251 16.2003 43.0278 16.0622L42.9818 15.6941C42.4756 15.556 42.6137 14.7277 42.6137 14.2214C42.6137 11.0001 42.8898 8.8832 43.7641 6.76631C44.5004 8.83718 44.8226 10.9541 44.9146 14.0374C44.9146 14.5436 45.0067 15.3719 44.5004 15.602V15.9702C46.0191 15.8321 47.5837 15.7861 49.1484 15.7401V15.3719C48.5501 15.2799 48.5041 14.5436 48.274 13.8993C47.1696 9.20534 46.9395 6.90437 45.835 4.74146C47.8138 2.11836 46.8935 0.875837 48.9183 0.553702V0.185547C47.6298 0.185547 45.743 0.185547 44.4544 0.185547V0.553702C44.7305 0.553702 44.9146 0.691759 44.9606 1.15195C44.9146 2.44049 44.7305 3.03875 43.7641 3.91311C42.7977 3.03875 42.6137 2.44049 42.5676 1.15195C42.5676 0.691759 42.8437 0.64574 43.0738 0.553702V0.185547C41.7853 0.185547 39.8985 0.185547 38.564 0.185547V0.553702C39.2542 0.691759 39.8525 1.05991 40.1746 1.9803C40.4968 3.03875 41.049 3.95913 41.6472 4.74146C40.7269 6.72029 40.4047 9.29737 39.0241 14.6816C38.794 15.51 38.794 16.0162 38.0117 16.3383Z" fill="#777777"/>
<path d="M15.1864 28.9476C15.0943 28.6715 15.0483 28.3494 15.0483 28.0733C15.0483 26.1404 17.0272 24.8059 18.96 24.8059C20.1104 24.8059 21.2609 25.128 21.9972 26.0484C29.5444 21.9527 37.4137 19.1915 49.931 19.1915C58.4445 19.1915 66.9581 20.7562 73.6769 23.8855C80.6259 27.337 85.4579 32.123 91.3944 32.123C97.1008 32.123 99.954 27.7511 99.954 23.4253C99.908 18.4552 96.0884 15.0038 92.4068 15.0038C90.8882 15.0038 88.5872 15.7861 88.5872 17.2587C88.5872 18.9154 91.1183 21.1243 91.1183 22.4589C91.1183 23.1492 90.7961 23.6094 90.474 23.8855C90.0598 24.2997 89.4616 24.9439 89.4616 25.4962C89.4616 25.9104 89.8757 26.3245 90.3359 26.3245C90.6121 26.3245 90.9802 26.1865 91.2563 25.6803C91.8546 24.7138 92.0387 23.8855 92.0387 23.1952C92.0387 22.0907 91.5785 21.2624 91.5785 20.4801C91.5785 19.1455 93.0511 18.6393 94.0175 18.6393C96.7326 18.6393 97.699 22.643 97.699 23.9315C97.699 27.6131 94.3396 30.2362 90.566 30.2362C86.4703 30.2362 81.1321 25.2201 73.861 22.0447C66.728 18.9154 58.4906 17.4428 51.1735 17.4428C41.4634 17.4428 33.5481 18.7313 24.8504 22.643C23.792 23.0572 22.6415 23.3793 21.5831 23.3793C19.9264 23.3793 18.5458 22.597 18.2697 20.204C18.2697 18.8234 18.2697 17.0286 18.2697 15.0958C18.2697 12.2886 18.2697 9.25135 18.2237 7.2265C18.7299 8.97524 20.0644 13.3931 20.5706 15.1878C21.353 12.5187 21.9972 9.84961 23.0557 7.2265V17.3047C22.9176 19.0075 22.1813 20.5261 21.5831 21.5385L21.6751 21.8606C23.1477 21.0323 24.8504 20.296 26.6452 19.6057L26.5532 19.3296C26.185 19.1915 25.9549 19.0075 25.9549 17.6729C25.9549 15.7861 25.9549 4.00515 25.9549 2.16438C26.0009 1.15195 26.9213 0.737779 28.1638 0.461663V0.185547C26.0009 0.185547 24.1601 0.185547 21.9512 0.185547V0.553702C22.5955 0.737779 22.8256 1.01389 22.8256 1.33603C22.8256 1.56613 22.7335 1.88826 22.5955 2.2104C21.9052 4.14321 21.2609 6.07602 20.5706 8.00883C20.0644 6.07602 19.5582 4.18923 19.052 2.25642C18.96 1.88826 18.9139 1.61215 18.9139 1.38205C18.9139 0.967875 19.144 0.783798 19.6503 0.553702V0.185547H12.9775V0.553702C13.8978 0.783798 14.8642 1.24399 15.3705 1.88826C15.4625 2.02632 15.5545 2.2104 15.5545 2.39447C15.6006 2.90069 15.6006 3.54496 15.6006 4.28127C15.6006 11.7364 13.6217 30.4202 6.30465 30.4202C4.0497 30.4202 1.74873 28.4414 1.74873 25.5882C1.74873 22.5509 4.00368 20.5261 5.61436 20.204C6.39669 20.0199 7.133 20.6181 7.133 21.4005C7.133 22.5509 6.44271 24.3457 5.98251 26.3245C5.93649 26.5086 5.89047 26.7387 5.89047 26.9688C5.89047 27.8432 6.30465 28.6715 7.08698 28.6715C7.59319 28.6715 7.96134 28.4414 7.96134 27.8892C7.96134 27.429 7.68523 26.8768 7.133 26.5546C6.99494 26.2785 6.94892 26.0024 6.94892 25.7263C6.94892 24.8519 7.54717 23.9315 8.74367 22.8731C10.4464 21.5385 11.3208 19.7898 11.3208 18.5012C11.3208 17.4888 10.7685 16.7525 9.57202 16.7525C7.50115 16.7065 0 19.7898 0 25.9103C0 29.776 2.99126 32.5371 6.71882 32.5371C9.7561 32.5371 12.8394 30.8804 15.1864 28.9476Z" fill="#777777"/>
</g>
<defs>
<clipPath id="clip0_4024_1014">
<rect width="100" height="32.54" fill="white"/>
</clipPath>
</defs>
</svg>
