<svg width="150" height="49" viewBox="0 0 150 49" fill="none" xmlns="http://www.w3.org/2000/svg">
<g clip-path="url(#clip0_4031_3052)">
<path d="M47.0775 2.69433C45.766 5.31744 42.5216 12.8416 41.4862 22.7818C41.072 26.1642 41.5552 28.166 40.2437 28.9253L40.3817 29.3395C42.5216 28.5112 44.6615 27.8899 46.8014 27.2687L46.7324 26.7854C45.835 26.7164 46.0421 23.1959 46.0421 21.6083C46.0421 19.8826 46.2492 17.6046 49.0794 16.3621C49.5626 16.155 50.1148 15.9479 50.7361 15.8789V23.334C50.7361 24.9217 50.598 25.5429 49.7697 26.0261L49.9077 26.5784C52.0476 26.0952 54.1875 25.612 56.3964 25.1978L56.3274 24.6456C55.43 24.6456 55.361 23.7482 55.361 22.4366C55.361 17.2594 55.361 12.1513 55.361 6.97413C55.43 3.59171 54.8778 1.45181 57.5009 0.830552V0.27832C53.4972 0.27832 49.4935 0.27832 45.5589 0.27832V0.830552C46.5943 0.899581 47.3536 1.6589 47.0775 2.69433ZM50.667 5.17938C50.667 7.52636 50.667 9.73529 50.667 12.0823C49.7697 12.2203 48.182 12.7035 47.3536 13.1867C48.113 10.4946 49.2174 7.52636 50.667 5.17938Z" fill="#777777"/>
<path d="M89.9451 3.3156V21.6773C89.9451 22.3676 89.738 23.6791 88.9787 23.8862L88.9097 24.4385C93.6036 25.0597 97.8834 25.819 102.163 26.9925L102.301 26.5093C102.232 25.4739 101.887 24.3694 101.68 23.265C101.266 23.8862 99.6091 23.9553 98.3666 23.6101C95.3984 22.7818 94.6391 22.1605 94.3629 20.7109C94.3629 16.7762 94.3629 12.4965 94.3629 8.5618C95.5364 7.87151 97.1931 7.87151 99.9543 9.45918C99.9543 8.0786 99.9543 6.76705 99.9543 5.38647H94.3629V3.3156C95.9506 2.69434 98.4357 2.90142 100.921 3.72977C101.266 2.69434 101.818 1.86599 102.163 0.830552V0.27832C97.5383 0.27832 92.9824 0.27832 88.3574 0.27832V0.830552C89.669 1.31376 89.8761 1.93502 89.9451 3.3156Z" fill="#777777"/>
<path d="M75.656 3.3156V20.7799C75.656 22.0225 75.518 22.7818 74.8277 23.0579V23.6101C79.1765 23.6101 83.5944 23.8172 87.9432 24.3004L88.0122 23.7482L87.0458 20.7109C85.5272 22.4366 80.0739 21.6083 80.0049 18.9852C80.0049 15.0505 80.0049 12.4274 80.0049 8.49277C81.1783 7.80248 82.835 7.80248 85.5962 9.39015C85.5962 8.00957 85.5962 6.69802 85.5962 5.31744H80.0739V3.24657C82.2138 2.55628 84.4227 3.03948 86.6316 3.66074C86.9768 2.62531 87.529 1.79696 87.8742 0.761523V0.27832C83.2492 0.27832 78.6243 0.27832 74.0684 0.27832V0.830552C75.4489 1.31376 75.587 1.93502 75.656 3.3156Z" fill="#777777"/>
<path d="M104.234 3.31629C104.234 10.3572 104.234 17.3982 104.234 24.4392C104.234 25.4746 104.096 26.6481 102.991 26.6481L102.784 27.1313C107.202 28.3048 111.758 29.9615 115.9 31.8943C117.142 32.3085 117.142 29.9615 117.004 28.857C116.176 14.8441 113.622 13.4635 110.999 9.66695C115.14 5.45619 114.864 1.86668 113.622 0.693186C112.931 0.140954 111.965 0.279012 110.929 0.279012C108.099 0.279012 105.545 0.279012 102.646 0.279012V0.831244C104.165 1.17639 104.234 2.00474 104.234 3.31629ZM108.652 3.52337C108.79 2.34988 111.137 2.21182 111.551 3.52337C111.689 5.93939 110.446 8.14832 108.652 9.45987C108.652 7.52706 108.652 5.52522 108.652 3.52337ZM108.652 11.8069C109.135 11.5307 109.273 11.2546 109.687 10.9785C112.586 14.637 113 19.4 113.207 24.094C113.276 25.1295 113.622 26.8552 112.379 27.1313C111.413 27.0623 108.79 26.6481 108.652 25.6817C108.652 21.0567 108.652 16.3628 108.652 11.8069Z" fill="#777777"/>
<path d="M118.247 3.3156V29.3395C118.247 31.0653 117.97 32.0317 117.004 31.8246L116.797 32.3078C120.525 34.1025 124.597 36.3115 127.773 39.0726C129.912 40.2461 131.362 38.1062 131.362 34.0335C131.362 26.9235 129.153 21.4702 125.218 15.7408C123.838 13.739 122.733 12.3584 122.664 11.5991C122.664 6.07676 122.664 7.80248 122.664 3.38463C122.802 1.86599 123.769 1.1757 125.218 0.830552C125.288 0.830552 125.288 0.830552 125.357 0.830552C125.357 0.623465 125.357 0.485407 125.357 0.27832C114.519 0.27832 125.495 0.27832 114.657 0.27832C114.657 1.03764 114.519 0.416378 115.416 3.72977C115.9 3.10851 117.349 2.76336 118.247 3.3156ZM122.664 15.0505C123.7 16.6382 124.528 18.2259 125.218 19.8135C127.842 26.0952 127.773 32.0317 127.773 33.3432C127.773 34.1025 127.565 34.3096 127.013 34.3786C126.185 34.3786 123.769 33.0671 122.733 31.6175C122.664 26.6474 122.664 19.3303 122.664 15.0505Z" fill="#777777"/>
<path d="M57.0176 24.5075L57.1556 25.0597C59.5717 24.6456 61.9877 24.3004 64.5417 24.0933L64.4727 23.5411C63.7134 23.334 63.9205 22.0915 63.9205 21.3322C63.9205 16.5001 64.3347 13.3248 65.6462 10.1495C66.7507 13.2558 67.2339 16.4311 67.3719 21.056C67.3719 21.8154 67.51 23.0579 66.7507 23.403V23.9553C69.0286 23.7482 71.3756 23.6791 73.7226 23.6101V23.0579C72.8252 22.9198 72.7562 21.8154 72.411 20.849C70.7543 13.808 70.4092 10.3566 68.7525 7.11219C71.7208 3.17754 70.3402 1.31376 73.3775 0.830552V0.27832C71.4446 0.27832 68.6144 0.27832 66.6816 0.27832V0.830552C67.0958 0.830552 67.3719 1.03764 67.441 1.72793C67.3719 3.66074 67.0958 4.55812 65.6462 5.86967C64.1966 4.55812 63.9205 3.66074 63.8514 1.72793C63.8514 1.03764 64.2656 0.96861 64.6108 0.830552V0.27832C62.678 0.27832 59.8478 0.27832 57.8459 0.27832V0.830552C58.8814 1.03764 59.7787 1.58987 60.2619 2.97045C60.7451 4.55812 61.5735 5.9387 62.4709 7.11219C61.0903 10.0804 60.6071 13.9461 58.5362 22.0225C58.1911 23.265 58.1911 24.0243 57.0176 24.5075Z" fill="#777777"/>
<path d="M22.7796 43.4214C22.6415 43.0073 22.5725 42.5241 22.5725 42.1099C22.5725 39.2107 25.5407 37.2088 28.4399 37.2088C30.1657 37.2088 31.8914 37.692 32.9959 39.0726C44.3166 32.929 56.1206 28.7873 74.8965 28.7873C87.6668 28.7873 100.437 31.1343 110.515 35.8283C120.939 41.0054 128.187 48.1844 137.092 48.1844C145.651 48.1844 149.931 41.6267 149.931 35.138C149.862 27.6828 144.133 22.5057 138.61 22.5057C136.332 22.5057 132.881 23.6791 132.881 25.8881C132.881 28.3731 136.677 31.6865 136.677 33.6884C136.677 34.7238 136.194 35.4141 135.711 35.8283C135.09 36.4495 134.192 37.4159 134.192 38.2443C134.192 38.8655 134.814 39.4868 135.504 39.4868C135.918 39.4868 136.47 39.2797 136.884 38.5204C137.782 37.0708 138.058 35.8283 138.058 34.7928C138.058 33.1361 137.368 31.8936 137.368 30.7201C137.368 28.7183 139.577 27.9589 141.026 27.9589C145.099 27.9589 146.549 33.9645 146.549 35.8973C146.549 41.4196 141.509 45.3542 135.849 45.3542C129.705 45.3542 121.698 37.8301 110.792 33.0671C100.092 28.3731 87.7358 26.1642 76.7602 26.1642C62.1951 26.1642 50.3221 28.097 37.2757 33.9645C35.688 34.5857 33.9623 35.0689 32.3746 35.0689C29.8896 35.0689 27.8187 33.8954 27.4045 30.3059C27.4045 28.2351 27.4045 25.5429 27.4045 22.6437C27.4045 18.4329 27.4045 13.877 27.3355 10.8398C28.0948 13.4629 30.0966 20.0896 30.856 22.7818C32.0295 18.7781 32.9959 14.7744 34.5835 10.8398V25.9571C34.3764 28.5112 33.272 30.7891 32.3746 32.3078L32.5127 32.791C34.7216 31.5485 37.2757 30.444 39.9678 29.4086L39.8297 28.9944C39.2775 28.7873 38.9324 28.5112 38.9324 26.5093C38.9324 23.6791 38.9324 6.00773 38.9324 3.24657C39.0014 1.72793 40.382 1.10667 42.2457 0.692494V0.27832C39.0014 0.27832 36.2402 0.27832 32.9268 0.27832V0.830552C33.8932 1.10667 34.2384 1.52084 34.2384 2.00405C34.2384 2.34919 34.1003 2.83239 33.8932 3.3156C32.8578 6.21481 31.8914 9.11403 30.856 12.0132C30.0966 9.11403 29.3373 6.28384 28.578 3.38462C28.4399 2.83239 28.3709 2.41822 28.3709 2.07307C28.3709 1.45181 28.7161 1.1757 29.4754 0.830552V0.27832H19.4662V0.830552C20.8468 1.1757 22.2964 1.86599 23.0557 2.83239C23.1937 3.03948 23.3318 3.3156 23.3318 3.59171C23.4008 4.35103 23.4008 5.31744 23.4008 6.4219C23.4008 17.6046 20.4326 45.6304 9.45697 45.6304C6.07455 45.6304 2.6231 42.6621 2.6231 38.3823C2.6231 33.8264 6.00552 30.7891 8.42154 30.3059C9.59503 30.0298 10.6995 30.9272 10.6995 32.1007C10.6995 33.8264 9.66406 36.5185 8.97377 39.4868C8.90474 39.7629 8.83571 40.108 8.83571 40.4532C8.83571 41.7647 9.45697 43.0073 10.6305 43.0073C11.3898 43.0073 11.942 42.6621 11.942 41.8338C11.942 41.1435 11.5278 40.3151 10.6995 39.8319C10.4924 39.4178 10.4234 39.0036 10.4234 38.5894C10.4234 37.2779 11.3208 35.8973 13.1155 34.3096C15.6696 32.3078 16.9811 29.6847 16.9811 27.7519C16.9811 26.2332 16.1528 25.1288 14.358 25.1288C11.2517 25.0597 0 29.6847 0 38.8655C0 44.664 4.48688 48.8057 10.0782 48.8057C14.6341 48.8057 19.2591 46.3207 22.7796 43.4214Z" fill="#777777"/>
</g>
<defs>
<clipPath id="clip0_4031_3052">
<rect width="150" height="48.81" fill="white"/>
</clipPath>
</defs>
</svg>
