<svg width="60" height="41" viewBox="0 0 60 41" fill="none" xmlns="http://www.w3.org/2000/svg">
<path fill-rule="evenodd" clip-rule="evenodd" d="M57.5463 26.3975C57.5463 26.3975 55.415 27.9614 51.4548 28.5098C50.4358 28.653 49.4096 28.7402 48.3809 28.7712C44.1182 28.5741 41.6798 27.353 38.1952 29.0069C35.1516 30.438 35.4543 34.1614 36.3621 35.4896C36.5255 35.8567 36.8088 36.1585 37.1663 36.3466C42.8168 31.9805 50.5685 38.279 55.9121 32.1476C57.8101 29.9881 57.5463 26.3975 57.5463 26.3975Z" fill="#BABABA"/>
<path d="M12.5494 15.1849C12.1517 16.1661 11.7626 17.1087 11.3778 18.0128C7.7765 26.4109 3.99793 26.308 2.57124 25.8324C0.409591 25.104 -0.684205 21.5906 0.461471 18.2356C2.00057 13.7367 5.59323 12.4213 7.28365 13.0425C9.08646 13.711 9.08646 16.5303 7.73759 18.5227C7.13233 19.4139 5.50244 19.0369 5.3641 18.7241C5.22575 18.4113 5.81805 18.2528 6.61353 16.7788C7.40902 15.3049 7.78515 14.0237 7.20583 13.6467C6.6265 13.2696 4.37839 13.6467 2.71824 18.1671C1.05809 22.6874 1.97463 24.9712 2.85226 25.224C3.55263 25.4254 5.44624 25.4639 7.93214 20.3994C10.418 15.3349 12.437 8.5393 13.185 6.50406C13.519 5.69391 14.0671 4.98791 14.7716 4.46025C15.5585 3.85182 16.5701 3.45762 16.7474 3.88181C16.7487 4.27088 16.6553 4.65452 16.475 5.00012C16.0427 6.79971 15.1002 10.7159 14.9316 12.8026C14.7111 15.5748 14.7975 16.9459 16.1724 15.1849C16.8425 14.328 17.9363 12.1856 19.0041 9.93612C19.6407 7.41487 20.4422 4.93735 21.4036 2.51927C21.7187 1.83709 22.2063 1.24711 22.8191 0.80648C23.4318 0.365845 24.149 0.0894783 24.9011 0.00413933C25.7658 -0.0815551 25.1778 1.17387 24.5466 2.78921C24.1143 3.9418 22.1947 8.30793 21.2393 11.5815C18.788 19.9624 19.3413 25.1255 19.5575 25.8967C19.8731 27.015 19.5575 27.105 19.056 26.4794C18.5545 25.8539 16.7041 23.3602 17.5861 16.9545C17.7288 15.9005 17.9103 14.8507 18.1178 13.8181C17.1797 15.5962 15.9821 17.5415 14.8624 18.2742C13.2628 19.3197 12.5105 17.5244 12.5494 15.1849ZM28.0874 6.98823C28.4711 7.18379 28.7943 7.47863 29.0226 7.84147C29.251 8.20431 29.376 8.62163 29.3844 9.04918C29.6596 9.25998 29.899 9.51313 30.0934 9.79901C30.3485 10.2275 29.6611 11.2173 29.0731 12.4941C28.1609 14.5122 27.521 16.0461 28.1133 16.0633C28.9261 16.089 29.9767 14.268 30.0761 14.2465C30.1755 14.2251 31.118 14.735 30.4479 15.7034C29.7778 16.6717 28.2171 16.7917 27.4562 16.5089C27.2564 16.4389 27.0777 16.3201 26.9364 16.1636C26.7951 16.0071 26.6958 15.8179 26.6477 15.6134C25.2081 17.4515 23.4355 18.7369 21.9613 18.7369C20.4135 18.7369 20.4438 17.1602 20.9583 15.8876C21.5592 14.3965 23.4615 15.1206 23.4615 15.1206C23.4615 15.1206 22.212 17.9143 23.1675 17.7472C23.5652 17.6786 25.2167 16.8902 26.8769 13.2739C26.9547 13.034 27.0195 12.884 27.0195 12.884C26.5316 13.6447 25.7989 14.22 24.94 14.5165C23.5004 15.0178 21.2609 13.9081 22.4974 10.4374C23.7338 6.96681 26.9071 6.28125 28.0874 6.98823ZM23.9284 13.1068C23.9975 13.8952 24.4688 14.3451 25.6188 13.5353C26.5094 12.8883 27.3481 11.6157 27.8453 10.8188L27.962 10.4717C28.684 8.23509 28.1739 7.63523 27.7156 7.47241C27.1363 7.25389 26.0857 7.86232 25.1216 9.37911C24.387 10.49 23.9743 11.7794 23.9284 13.1068ZM59.7729 8.32078C59.6507 8.19856 59.4942 8.11562 59.3238 8.08276C59.1534 8.0499 58.977 8.06864 58.8174 8.13654C58.731 8.21795 58.5321 9.54621 57.728 10.7074C56.9238 11.8685 56.15 11.7914 55.9511 11.4529C55.7522 11.1144 55.7263 10.3475 56.3834 8.70212C57.0406 7.05679 58.0565 4.99584 58.0565 4.68305C58.0565 4.37027 57.4729 4.49453 57.1919 4.5588C56.9379 4.60101 56.6983 4.70488 56.4947 4.86113C56.291 5.01739 56.1295 5.22117 56.0246 5.4543C55.3972 6.74277 54.8851 8.08332 54.4941 9.46052C54.4566 9.62727 54.4292 9.79611 54.412 9.96611C54.1894 10.4391 53.8733 10.8631 53.4825 11.213C52.553 11.86 52.2503 11.1701 52.4362 10.0775C52.676 9.02037 52.9895 7.98097 53.3744 6.96681C54.0445 5.03869 54.9049 3.96751 54.7319 3.72756C54.559 3.48762 53.5949 3.74898 53.0026 4.15603C52.4103 4.56308 51.7445 6.16128 51.0787 8.17082C50.9836 8.46646 50.9058 8.74497 50.8496 9.02776C50.5686 9.79901 49.9158 11.4143 49.2932 11.5772C48.1778 11.8728 49.2284 9.23771 49.8206 7.59238C50.508 5.68568 51.0096 5.11581 50.6853 4.97441C50.3611 4.83302 49.3537 5.1201 48.9819 5.50144C48.6101 5.88278 48.1173 7.17676 47.6547 8.63785C47.4684 9.19433 47.3423 9.76885 47.2785 10.3517C47.0491 10.943 46.6693 11.4655 46.1761 11.8685C45.2509 12.5155 44.9483 11.8257 45.1342 10.7331C45.3816 9.66715 45.7023 8.61923 46.094 7.59666C46.7684 5.66854 47.6287 4.59736 47.4558 4.35742C47.2829 4.11747 46.3188 4.37884 45.7265 4.78589C45.1342 5.19294 44.4684 6.79114 43.8026 8.80067C43.6758 9.17564 43.5776 9.55948 43.5086 9.94898C43.193 10.6088 42.4364 12.0442 41.5847 12.7169C40.9146 13.2482 40.197 13.0982 40.6077 11.6114C41.04 10.0432 41.2346 9.27199 40.906 8.91207C40.5774 8.55216 40.0846 8.81352 39.609 9.15202C39.8179 8.88965 40.0401 8.63796 40.2748 8.39791C40.9795 7.68236 41.8744 6.54262 42.3284 6.68402C42.7823 6.82541 42.0084 8.3165 42.0084 8.3165C42.5228 8.34105 43.0342 8.22546 43.487 7.98229C43.9842 7.62666 44.4295 5.62998 43.5432 5.38146C42.8904 5.19722 42.1641 5.42003 40.9017 6.72258C40.1323 7.51506 39.4377 8.37558 38.8265 9.29341C38.9519 8.94635 39.0902 8.59072 39.2588 8.23509C40.0413 6.34981 40.7331 5.41574 40.5558 5.20151C40.3785 4.98727 39.4188 5.20151 38.8265 5.62998C38.2342 6.05845 37.5987 7.6438 36.9026 9.64476C36.6692 10.3089 36.4703 10.9859 36.306 11.6072C35.6995 12.4544 35.0381 13.2616 34.3259 14.0237C32.9252 15.3777 32.1643 14.9707 32.8301 13.711C33.3661 12.7169 35.2208 11.1058 35.9342 9.07061C36.8637 6.42693 34.1054 5.38575 32.4366 6.25126C31.4466 6.76971 30.8586 7.57524 30.7895 8.24366C30.736 8.54322 30.8028 8.85164 30.9757 9.10302C31.1486 9.35441 31.4138 9.52884 31.7146 9.58906C31.8141 9.58906 33.1975 6.0456 34.447 6.66688C35.1949 7.03965 34.1573 8.88636 32.977 10.2232C31.0445 12.3998 30.1712 14.3365 31.8833 15.2792C33.1111 15.9562 34.7193 14.6407 35.8953 13.2911C35.8218 13.6296 35.7656 13.9081 35.731 14.0966C35.5926 14.795 35.9299 14.7179 36.2541 14.5508C36.5784 14.3837 37.3349 14.1609 37.4949 13.6553C37.6549 13.1497 37.897 12.1985 38.2299 11.0844C38.3293 10.9259 38.4374 10.7631 38.5498 10.5917C38.6622 10.4203 38.8654 10.3003 39.0167 10.1632C39.3539 9.91041 39.5701 9.8033 39.2113 11.1273C38.5671 13.4796 39.2891 13.9895 40.478 13.6981C41.7404 13.4025 42.8688 12.1856 43.5043 11.3715C43.7334 12.4941 44.5981 12.8969 45.5925 12.6569C46.3045 12.4184 46.926 11.9699 47.3737 11.3715C47.4391 11.6276 47.5849 11.8564 47.79 12.0251C47.9951 12.1937 48.249 12.2934 48.515 12.3099C49.4878 12.4427 50.3049 11.3844 50.7588 10.626C50.7712 10.8712 50.8408 11.1103 50.9621 11.3245C51.0834 11.5386 51.2531 11.722 51.4579 11.8603C51.6627 11.9985 51.8971 12.0878 52.1426 12.1212C52.3881 12.1546 52.6381 12.1312 52.8729 12.0528C53.5013 11.8655 54.0692 11.5183 54.5201 11.0459C54.6148 11.4448 54.8646 11.7906 55.2151 12.008C55.5657 12.2254 55.9886 12.297 56.3921 12.207C57.0425 12.1195 57.6662 11.8939 58.2205 11.5456C58.7749 11.1973 59.2469 10.7346 59.6043 10.1889C60.1706 9.22486 60.0366 8.57786 59.7729 8.32078ZM55.7306 3.38907C56.2494 3.72328 57.3778 3.58188 58.2035 3.07628C59.453 2.30932 59.7513 1.02819 59.6475 0.873937C59.5438 0.719688 58.7267 1.59377 57.4167 1.90227C57.0986 1.96274 56.7712 1.95583 56.4561 1.88198C56.1409 1.80813 55.845 1.66903 55.5879 1.4738C55.3588 1.56806 55.268 3.09342 55.7306 3.38907ZM51.6364 17.1559C51.6364 17.1559 52.3973 15.6391 51.9564 15.5191C51.5154 15.3991 50.6075 16.5346 49.9028 17.233C49.7644 17.3701 49.6261 17.5201 49.4921 17.6615C49.8206 17.5072 50.2227 17.3701 50.4432 17.4987C50.7891 17.6957 50.4173 18.2613 50.1406 19.731C49.8639 21.2007 50.5729 21.2049 51.2128 20.7379C52.0126 20.1595 52.3455 18.7327 52.4708 18.6512C52.5962 18.5698 53.6079 18.9297 53.3571 19.7653C53.0674 20.7165 51.4159 21.582 50.1406 21.7448C48.0481 22.0062 48.4545 19.701 48.7787 18.557C48.5237 18.9083 48.2815 19.264 48.0611 19.5896C47.7584 20.5922 47.5423 21.432 47.3909 21.9248C47.2396 22.4175 46.5263 22.6103 46.2366 22.7817C45.947 22.9531 45.6227 23.0088 45.7481 22.3532C45.7697 22.2376 45.8043 22.0833 45.8389 21.8991C45.4065 22.5332 44.7321 23.1845 43.8718 23.1459C43.6496 23.1463 43.4315 23.0872 43.2405 22.9748C43.0494 22.8625 42.8926 22.701 42.7866 22.5075C42.4594 22.8428 42.1114 23.1576 41.7447 23.4501C41.053 23.9986 39.609 24.6841 38.7487 23.9429C38.293 24.5882 37.6442 25.0754 36.894 25.3354C35.3678 25.6953 34.1443 24.5513 35.0652 21.5948C34.4052 21.978 33.7739 22.4076 33.1759 22.8803C32.7176 24.3199 32.4193 25.5711 32.2205 26.2352C32.0648 26.7451 31.3126 26.9765 30.9883 27.1436C30.6641 27.3107 30.3269 27.3921 30.4609 26.7151C30.7394 25.2013 31.1221 23.7081 31.6066 22.2461C32.2853 20.2409 32.9036 18.6255 33.4958 18.2185C34.0881 17.8114 35.0306 17.5672 35.2252 17.79C35.4197 18.0128 34.715 18.9426 33.9282 20.8322C33.8331 21.0721 33.7423 21.3121 33.6515 21.552C33.9282 21.3806 34.2567 21.1835 34.6286 20.9693C35.0004 20.755 35.2381 20.6265 35.4457 20.5408C36.0034 18.9769 36.5654 17.7857 37.0539 17.4472C37.6289 17.0188 38.593 16.8088 38.7832 17.0188C38.9735 17.2287 38.0656 18.3085 37.3955 20.2323C37.0111 21.2467 36.6977 22.286 36.4573 23.343C36.2714 24.4399 36.5784 25.1297 37.5035 24.4785C37.8659 24.1973 38.1612 23.8403 38.3682 23.433C38.2527 23.1826 38.174 22.9171 38.1348 22.6446C37.8062 20.6693 39.4923 17.1773 41.7447 16.3461C42.7737 15.969 43.6167 16.2047 44.049 16.7745C44.1123 16.6535 44.1892 16.54 44.2782 16.436C44.6543 16.0547 45.6314 15.7462 46.0075 15.909C46.3836 16.0718 45.8173 16.6203 45.1428 18.527C44.5505 20.1723 43.5 22.8117 44.6154 22.5161C45.2768 22.3404 46.202 20.1252 46.5393 19.2682C46.643 18.9297 46.7511 18.587 46.8678 18.2442C47.5163 16.3846 47.953 15.292 48.4891 14.9193C49.0252 14.5465 49.9201 14.3237 50.0844 14.5208C50.2487 14.7179 49.7731 15.1849 49.0468 16.9374C48.9214 17.2501 48.8003 17.5586 48.6879 17.8671C49.2486 17.053 49.8747 16.2849 50.5599 15.5705C51.8223 14.2851 52.5486 14.0452 53.2015 14.2294C54.0921 14.4779 53.6338 16.4746 53.1453 16.8302C52.6826 17.0756 52.1601 17.1884 51.6364 17.1559ZM42.5575 21.4834C42.5815 20.9563 42.6701 20.434 42.8212 19.9281C42.6203 19.9716 42.4103 19.9428 42.2289 19.8467C42.6272 19.0544 42.9361 18.221 43.1498 17.3615C43.3919 16.2004 42.4451 16.7188 42.0733 17.1773C41.189 18.242 40.5197 19.4654 40.1019 20.7807C39.2718 23.1631 40.2748 23.7801 41.1567 23.253C41.7714 22.789 42.2602 22.181 42.5791 21.4834H42.5575ZM30.3096 29.723C30.2188 34.2519 26.224 39.8049 20.1584 40.8332C13.7081 41.9258 12.5278 37.4055 14.5382 34.3805C16.5485 31.3554 18.7793 30.9013 19.4235 31.5397C19.8774 31.9939 20.206 32.9922 20.0763 33.1207C19.9466 33.2493 19.644 33.2321 19.056 33.455C17.4131 34.0677 14.3912 35.5459 14.7024 38.0267C15.1866 41.9258 22.4109 39.4964 25.381 35.1774C27.975 31.4283 28.3684 28.2833 27.2962 26.7579C26.6489 27.2021 25.9509 27.5688 25.2167 27.8505C21.5333 29.2602 21.049 27.2678 22.1904 26.1366C23.0551 25.2797 24.9227 24.7355 26.665 24.9926C27.0943 24.5293 27.4846 24.0321 27.8323 23.5058C30.0804 20.1166 30.1496 18.5827 29.3887 18.1628C28.524 17.6786 24.5034 20.3608 22.3849 23.9429C22.3849 23.9429 20.5908 22.3275 22.6141 20.228C24.6374 18.1285 29.1898 16.209 30.6554 17.94C31.8573 19.3497 31.2607 23.0816 28.5716 25.7039C29.6222 26.4237 30.3614 27.6877 30.3096 29.723ZM25.8349 25.8067C23.8592 25.2797 22.3763 26.518 22.2769 27.3621C22.1818 28.0219 23.9803 27.4692 25.8349 25.8067Z" fill="#777777"/>
</svg>
