<svg width="90" height="62" viewBox="0 0 90 62" fill="none" xmlns="http://www.w3.org/2000/svg">
<path fill-rule="evenodd" clip-rule="evenodd" d="M86.3195 39.5967C86.3195 39.5967 83.1224 41.9426 77.1822 42.7652C75.6537 42.98 74.1145 43.1108 72.5714 43.1573C66.1772 42.8616 62.5197 41.0299 57.2928 43.5108C52.7274 45.6574 53.1814 51.2426 54.5432 53.2349C54.7883 53.7855 55.2132 54.2382 55.7494 54.5204C64.2253 47.9712 75.8528 57.419 83.8682 48.2218C86.7151 44.9826 86.3195 39.5967 86.3195 39.5967Z" fill="#BABABA"/>
<path d="M18.8241 22.7774C18.2275 24.2492 17.6439 25.6631 17.0667 27.0192C11.6648 39.6163 5.9969 39.4621 3.85687 38.7486C0.614387 37.656 -1.02631 32.3858 0.692206 27.3534C3.00085 20.605 8.38985 18.6319 10.9255 19.5638C13.6297 20.5664 13.6297 24.7955 11.6064 27.7841C10.6985 29.1209 8.25367 28.5553 8.04615 28.0861C7.83863 27.6169 8.72707 27.3791 9.9203 25.1682C11.1135 22.9573 11.6777 21.0356 10.8087 20.47C9.93975 19.9044 6.56758 20.47 4.07735 27.2506C1.58713 34.0312 2.96194 37.4568 4.27839 37.836C5.32895 38.1381 8.16936 38.1959 11.8982 30.5991C15.6271 23.0023 18.6555 12.809 19.7774 9.75609C20.2785 8.54087 21.1006 7.48186 22.1574 6.69037C23.3377 5.77773 24.8552 5.18644 25.121 5.82272C25.1231 6.40632 24.9829 6.98178 24.7125 7.50019C24.064 10.1996 22.6503 16.0739 22.3974 19.2039C22.0666 23.3622 22.1963 25.4189 24.2585 22.7774C25.2637 21.4919 26.9044 18.2784 28.5062 14.9042C29.4611 11.1223 30.6634 7.40602 32.1053 3.77891C32.5781 2.75563 33.3095 1.87067 34.2286 1.20972C35.1477 0.548768 36.2235 0.134217 37.3517 0.006209C38.6487 -0.122333 37.7667 1.7608 36.8199 4.18381C36.1714 5.9127 33.2921 12.4619 31.8589 17.3722C28.1819 29.9435 29.012 37.6882 29.3363 38.8451C29.8097 40.5225 29.3363 40.6575 28.584 39.7191C27.8318 38.7808 25.0562 35.0402 26.3791 25.4317C26.5931 23.8507 26.8655 22.276 27.1768 20.7271C25.7695 23.3944 23.9732 26.3122 22.2936 27.4113C19.8942 28.9795 18.7658 26.2865 18.8241 22.7774ZM42.1311 10.4823C42.7067 10.7757 43.1914 11.2179 43.5339 11.7622C43.8764 12.3065 44.064 12.9325 44.0766 13.5738C44.4894 13.89 44.8485 14.2697 45.1401 14.6985C45.5227 15.3412 44.4916 16.8259 43.6097 18.7411C42.2413 21.7683 41.2816 24.0692 42.17 24.0949C43.3892 24.1335 44.965 21.402 45.1142 21.3698C45.2633 21.3377 46.677 22.1025 45.6719 23.555C44.6667 25.0076 42.3256 25.1875 41.1843 24.7633C40.8846 24.6583 40.6165 24.4802 40.4046 24.2454C40.1926 24.0107 40.0437 23.7268 39.9716 23.4201C37.8121 26.1773 35.1533 28.1054 32.9419 28.1054C30.6203 28.1054 30.6657 25.7402 31.4374 23.8314C32.3388 21.5948 35.1922 22.6809 35.1922 22.6809C35.1922 22.6809 33.318 26.8714 34.7512 26.6207C35.3478 26.5179 37.8251 25.3353 40.3153 19.9109C40.432 19.551 40.5293 19.326 40.5293 19.326C39.7975 20.4671 38.6984 21.3299 37.41 21.7747C35.2505 22.5267 31.8913 20.8621 33.746 15.6562C35.6007 10.4502 40.3607 9.42188 42.1311 10.4823ZM35.8926 19.6602C35.9963 20.8428 36.7032 21.5176 38.4282 20.3029C39.7641 19.3324 41.0222 17.4236 41.7679 16.2282L41.943 15.7076C43.026 12.3526 42.2608 11.4528 41.5734 11.2086C40.7044 10.8808 39.1285 11.7935 37.6824 14.0687C36.5805 15.735 35.9614 17.6691 35.8926 19.6602ZM89.6593 12.4812C89.476 12.2978 89.2413 12.1734 88.9857 12.1241C88.7301 12.0748 88.4654 12.103 88.2262 12.2048C88.0965 12.3269 87.7982 14.3193 86.592 16.0611C85.3858 17.8028 84.2249 17.6871 83.9266 17.1794C83.6283 16.6716 83.5894 15.5212 84.5751 13.0532C85.5608 10.5852 87.0848 7.49376 87.0848 7.02458C87.0848 6.5554 86.2093 6.74179 85.7878 6.8382C85.4068 6.90152 85.0475 7.05732 84.742 7.2917C84.4365 7.52608 84.1942 7.83175 84.0369 8.18146C83.0958 10.1142 82.3276 12.125 81.7412 14.1908C81.6849 14.4409 81.6438 14.6942 81.618 14.9492C81.2841 15.6587 80.81 16.2947 80.2237 16.8195C78.8295 17.7899 78.3755 16.7552 78.6544 15.1163C79.014 13.5305 79.4842 11.9715 80.0616 10.4502C81.0668 7.55803 82.3573 5.95126 82.0979 5.59134C81.8385 5.23143 80.3923 5.62348 79.5039 6.23405C78.6155 6.84462 77.6168 9.24192 76.6181 12.2562C76.4754 12.6997 76.3587 13.1175 76.2744 13.5416C75.8529 14.6985 74.8736 17.1215 73.9398 17.3658C72.2667 17.8092 73.8425 13.8566 74.731 11.3886C75.7621 8.52852 76.5143 7.67372 76.028 7.46162C75.5416 7.24953 74.0306 7.68014 73.4729 8.25215C72.9152 8.82416 72.1759 10.7651 71.482 12.9568C71.2026 13.7915 71.0134 14.6533 70.9178 15.5276C70.5736 16.4145 70.004 17.1983 69.2641 17.8028C67.8764 18.7733 67.4224 17.7385 67.7013 16.0996C68.0724 14.5007 68.5534 12.9289 69.1409 11.395C70.1526 8.50281 71.4431 6.89604 71.1837 6.53612C70.9243 6.17621 69.4782 6.56826 68.5897 7.17883C67.7013 7.7894 66.7026 10.1867 65.7039 13.201C65.5138 13.7635 65.3664 14.3392 65.2629 14.9235C64.7895 15.9132 63.6547 18.0663 62.3771 19.0754C61.372 19.8723 60.2955 19.6474 60.9115 17.4172C61.56 15.0649 61.8518 13.908 61.359 13.3681C60.8661 12.8282 60.1268 13.2203 59.4135 13.728C59.7269 13.3345 60.0602 12.9569 60.4122 12.5969C61.4692 11.5235 62.8116 9.81393 63.4925 10.026C64.1735 10.2381 63.0126 12.4747 63.0126 12.4747C63.7843 12.5116 64.5513 12.3382 65.2305 11.9734C65.9763 11.44 66.6442 8.44497 65.3148 8.0722C64.3356 7.79583 63.2461 8.13004 61.3525 10.0839C60.1985 11.2726 59.1566 12.5634 58.2397 13.9401C58.4278 13.4195 58.6353 12.8861 58.8882 12.3526C60.062 9.52472 61.0996 8.12361 60.8337 7.80226C60.5678 7.4809 59.1282 7.80226 58.2397 8.44497C57.3513 9.08767 56.398 11.4657 55.3539 14.4671C55.0037 15.4633 54.7054 16.4788 54.459 17.4107C53.5493 18.6815 52.5571 19.8924 51.4889 21.0356C49.3878 23.0666 48.2464 22.456 49.2451 20.5664C50.0492 19.0754 52.8313 16.6588 53.9013 13.6059C55.2956 9.6404 51.1581 8.07862 48.655 9.37689C47.1699 10.1546 46.2879 11.3629 46.1842 12.3655C46.104 12.8148 46.2042 13.2775 46.4635 13.6545C46.7228 14.0316 47.1206 14.2933 47.572 14.3836C47.7211 14.3836 49.7963 9.06839 51.6705 10.0003C52.7924 10.5595 51.236 13.3295 49.4656 15.3348C46.5668 18.5998 45.2568 21.5048 47.8249 22.9188C49.6666 23.9342 52.079 21.9611 53.8429 19.9366C53.7327 20.4443 53.6484 20.8621 53.5965 21.1449C53.389 22.1925 53.8948 22.0768 54.3812 21.8261C54.8675 21.5755 56.0024 21.2413 56.2424 20.4829C56.4823 19.7245 56.8455 18.2977 57.3448 16.6266C57.4939 16.3888 57.6561 16.1446 57.8247 15.8875C57.9933 15.6304 58.2981 15.4505 58.5251 15.2448C59.0309 14.8656 59.3551 14.7049 58.8169 16.6909C57.8506 20.2194 58.9336 20.9842 60.717 20.5472C62.6106 20.1037 64.3032 18.2784 65.2564 17.0573C65.6001 18.7411 66.8971 19.3453 68.3887 18.9854C69.4567 18.6275 70.3889 17.9548 71.0605 17.0573C71.1586 17.4413 71.3773 17.7846 71.685 18.0376C71.9927 18.2906 72.3735 18.4401 72.7725 18.4648C74.2316 18.664 75.4573 17.0765 76.1382 15.9389C76.1568 16.3069 76.2612 16.6655 76.4431 16.9867C76.6251 17.308 76.8797 17.5831 77.1869 17.7904C77.4941 17.9978 77.8457 18.1317 78.2139 18.1818C78.5822 18.2319 78.9571 18.1968 79.3093 18.0792C80.2519 17.7982 81.1037 17.2775 81.7801 16.5688C81.9222 17.1672 82.2969 17.6859 82.8227 18.012C83.3485 18.3381 83.9829 18.4454 84.5881 18.3105C85.5637 18.1793 86.4993 17.8409 87.3308 17.3184C88.1624 16.796 88.8704 16.1018 89.4064 15.2834C90.256 13.8373 90.0549 12.8668 89.6593 12.4812ZM83.5959 5.0836C84.3741 5.58492 86.0667 5.37282 87.3053 4.61443C89.1795 3.46398 89.6269 1.54228 89.4713 1.31091C89.3156 1.07953 88.09 2.39066 86.125 2.85341C85.6479 2.94411 85.1569 2.93374 84.6841 2.82297C84.2113 2.7122 83.7675 2.50354 83.3819 2.2107C83.0382 2.35209 82.902 4.64013 83.5959 5.0836ZM77.4546 25.7338C77.4546 25.7338 78.596 23.4586 77.9345 23.2787C77.2731 23.0987 75.9112 24.8019 74.8542 25.8495C74.6467 26.0552 74.4391 26.2801 74.2381 26.4922C74.731 26.2608 75.3341 26.0552 75.6648 26.248C76.1836 26.5436 75.6259 27.392 75.2109 29.5965C74.7958 31.801 75.8594 31.8074 76.8191 31.1069C78.0188 30.2392 78.5182 28.099 78.7062 27.9769C78.8943 27.8547 80.4118 28.3946 80.0357 29.6479C79.6012 31.0747 77.1239 32.373 75.2109 32.6172C72.0721 33.0093 72.6817 29.5515 73.1681 27.8355C72.7855 28.3625 72.4223 28.8959 72.0916 29.3844C71.6376 30.8883 71.3134 32.148 71.0864 32.8872C70.8594 33.6263 69.7894 33.9155 69.3549 34.1726C68.9204 34.4297 68.4341 34.5132 68.6221 33.5299C68.6546 33.3563 68.7064 33.125 68.7583 32.8486C68.1098 33.7998 67.0982 34.7767 65.8077 34.7189C65.4744 34.7195 65.1472 34.6308 64.8607 34.4623C64.5742 34.2937 64.339 34.0515 64.1799 33.7612C63.6891 34.2642 63.1671 34.7364 62.6171 35.1752C61.5795 35.9979 59.4135 37.0262 58.123 35.9143C57.4395 36.8824 56.4663 37.613 55.3409 38.0031C53.0518 38.543 51.2165 36.827 52.5978 32.3923C51.6079 32.967 50.6608 33.6114 49.7639 34.3204C49.0765 36.4799 48.629 38.3566 48.3307 39.3528C48.0972 40.1176 46.9689 40.4647 46.4825 40.7153C45.9961 40.966 45.4903 41.0881 45.6913 40.0726C46.109 37.8019 46.6832 35.5622 47.4098 33.3692C48.428 30.3613 49.3553 27.9383 50.2438 27.3277C51.1322 26.7172 52.5459 26.3508 52.8378 26.685C53.1296 27.0192 52.0725 28.4139 50.8923 31.2482C50.7496 31.6082 50.6134 31.9681 50.4772 32.328C50.8923 32.0709 51.3851 31.7753 51.9428 31.4539C52.5005 31.1326 52.8572 30.9397 53.1685 30.8112C54.005 28.4653 54.8481 26.6786 55.5809 26.1709C56.4434 25.5281 57.8895 25.2132 58.1749 25.5281C58.4602 25.8431 57.0984 27.4627 56.0932 30.3485C55.5167 31.87 55.0465 33.429 54.686 35.0145C54.4071 36.6598 54.8675 37.6946 56.2553 36.7177C56.7989 36.296 57.2417 35.7605 57.5523 35.1495C57.379 34.774 57.261 34.3757 57.2021 33.9669C56.7093 31.004 59.2384 25.7659 62.6171 24.5191C64.1605 23.9535 65.4251 24.307 66.0735 25.1618C66.1685 24.9803 66.2838 24.81 66.4172 24.6541C66.9814 24.0821 68.447 23.6193 69.0112 23.8635C69.5754 24.1078 68.7259 24.9304 67.7142 27.7905C66.8258 30.2585 65.25 34.2176 66.9231 33.7741C67.9153 33.5106 69.3031 30.1878 69.8089 28.9024C69.9645 28.3946 70.1266 27.8805 70.3017 27.3663C71.2745 24.5769 71.9295 22.938 72.7336 22.3789C73.5377 21.8197 74.8801 21.4855 75.1265 21.7812C75.373 22.0768 74.6596 22.7774 73.5702 25.406C73.3821 25.8752 73.2005 26.338 73.0319 26.8007C73.8729 25.5795 74.812 24.4274 75.8399 23.3558C77.7335 21.4277 78.823 21.0678 79.8022 21.3441C81.1381 21.7169 80.4507 24.7119 79.7179 25.2454C79.024 25.6135 78.2402 25.7826 77.4546 25.7338ZM63.8362 32.2252C63.8723 31.4345 64.0051 30.6511 64.2318 29.8921C63.9304 29.9574 63.6154 29.9141 63.3434 29.77C63.9409 28.5816 64.4041 27.3315 64.7247 26.0423C65.0878 24.3006 63.6676 25.0783 63.1099 25.7659C61.7835 27.363 60.7796 29.1981 60.1528 31.1711C58.9077 34.7446 60.4122 35.6701 61.7351 34.8795C62.6571 34.1835 63.3903 33.2714 63.8687 32.2252H63.8362ZM45.4644 44.5844C45.3282 51.3779 39.3361 59.7074 30.2377 61.2499C20.5621 62.8888 18.7917 56.1082 21.8072 51.5707C24.8227 47.0332 28.169 46.3519 29.1352 47.3095C29.8161 47.9908 30.309 49.4883 30.1145 49.6811C29.9199 49.8739 29.466 49.8482 28.584 50.1824C26.1197 51.1015 21.5867 53.3188 22.0537 57.0401C22.78 62.8888 33.6163 59.2446 38.0715 52.7661C41.9625 47.1424 42.5526 42.4249 40.9443 40.1369C39.9734 40.8031 38.9264 41.3533 37.8251 41.7758C32.2999 43.8903 31.5736 40.9017 33.2856 39.205C34.5826 37.9196 37.3841 37.1033 39.9975 37.4889C40.6414 36.794 41.227 36.0481 41.7485 35.2587C45.1206 30.1749 45.2244 27.874 44.0831 27.2442C42.7861 26.5179 36.7551 30.5413 33.5774 35.9143C33.5774 35.9143 30.8862 33.4913 33.9211 30.342C36.9561 27.1928 43.7848 24.3134 45.9832 26.91C47.786 29.0245 46.891 34.6225 42.8574 38.5558C44.4332 39.6356 45.5422 41.5316 45.4644 44.5844ZM38.7524 38.7101C35.7888 37.9196 33.5645 39.777 33.4153 41.0431C33.2726 42.0329 35.9704 41.2038 38.7524 38.7101Z" fill="#777777"/>
</svg>
