<svg width="101" height="16" viewBox="0 0 101 16" fill="none" xmlns="http://www.w3.org/2000/svg">
<g clip-path="url(#clip0_4014_307)">
<path d="M24.0815 14.485C24.0245 13.5954 23.9865 12.8493 23.9675 11.9598C23.9675 10.7928 23.9675 9.81716 23.9675 8.6502C23.9636 8.05319 23.8871 7.4589 23.7396 6.88064C23.6509 6.49804 23.4821 6.13891 23.2447 5.82718C23.0073 5.51544 22.7066 5.25827 22.3628 5.07281C21.9519 4.83735 21.5063 4.66945 21.0428 4.57542C19.5829 4.24095 18.0704 4.21165 16.5988 4.48933C16.185 4.55694 15.7803 4.67249 15.3929 4.83368C14.9394 5.01505 14.5328 5.29787 14.2038 5.66077C13.8748 6.02367 13.632 6.45715 13.4937 6.92846C13.3715 7.27138 13.3229 7.63654 13.3513 7.99977C13.357 8.06984 13.3764 8.1381 13.4082 8.20064L16.9976 8.28672C16.9858 8.06882 17.0181 7.85077 17.0926 7.64586C17.1455 7.4869 17.2337 7.34222 17.3505 7.22286C17.4674 7.1035 17.6098 7.01262 17.7668 6.95716C18.2304 6.79 18.7371 6.79 19.2007 6.95716C19.355 7.00305 19.4952 7.08769 19.6082 7.20314C19.7211 7.31858 19.8031 7.46105 19.8464 7.61716C19.878 7.71285 19.8867 7.8147 19.8718 7.91442C19.857 8.01414 19.819 8.10893 19.7609 8.19107C19.6622 8.34005 19.5193 8.45386 19.3526 8.51629L19.0392 8.62151C18.5455 8.75542 18.0897 8.84151 17.6054 8.93716C17.1211 9.03281 16.8647 9.06151 16.4659 9.13803C15.9491 9.24264 15.4387 9.37677 14.9371 9.53977C14.4807 9.68856 14.0625 9.93675 13.7121 10.2667C13.2401 10.6858 12.9362 11.264 12.8575 11.8928C12.7925 12.3096 12.8086 12.7352 12.905 13.1459C13.0157 13.6838 13.2721 14.1804 13.6459 14.5806C14.0197 14.9807 14.4962 15.2688 15.0225 15.4128C16.179 15.7658 17.4215 15.7015 18.536 15.2311C19.0831 15.025 19.5675 14.6788 19.9413 14.2267L19.685 12.3806C19.5204 12.654 19.2745 12.8682 18.9823 12.9928C18.7062 13.1173 18.4104 13.1918 18.1087 13.2128C17.8792 13.2318 17.6482 13.2124 17.425 13.1554C17.2293 13.1096 17.0531 13.0024 16.9217 12.8493C16.8058 12.7274 16.7268 12.5748 16.6938 12.4093C16.6642 12.2793 16.6707 12.1436 16.7126 12.0171C16.7545 11.8906 16.8301 11.7781 16.9312 11.6919C17.0632 11.5844 17.2104 11.4973 17.368 11.4337C17.7858 11.2806 18.1466 11.1563 18.5739 11.0415C19.0619 10.9047 19.5382 10.7288 19.9983 10.5154C20.0553 10.883 20.0553 11.2574 19.9983 11.625C19.9621 11.897 19.8682 12.158 19.7229 12.3902L19.9413 14.2363C20.0268 14.5041 20.0933 14.7241 20.1787 14.9824C20.2272 15.1168 20.3014 15.2403 20.3971 15.3459H24.3474C24.1852 15.0874 24.0935 14.7905 24.0815 14.485Z" fill="#777777"/>
<path d="M48.0107 14.485C47.9443 13.5954 47.9158 12.8493 47.8968 11.9598C47.8968 10.7928 47.8968 9.81716 47.8968 8.6502C47.8976 8.05287 47.821 7.45798 47.6689 6.88064C47.573 6.49974 47.4005 6.14274 47.162 5.83177C46.9235 5.52079 46.6242 5.26247 46.2825 5.07281C45.8723 4.83584 45.4265 4.66783 44.9626 4.57542C43.5027 4.24095 41.9902 4.21165 40.5186 4.48933C40.1078 4.55698 39.7063 4.67254 39.3221 4.83368C38.8675 5.01319 38.4599 5.2954 38.1306 5.65858C37.8014 6.02175 37.5593 6.4562 37.4229 6.92846C37.2975 7.27068 37.2457 7.63586 37.271 7.99977C37.2811 8.06896 37.3003 8.1365 37.328 8.20064L40.9174 8.28672C40.9055 8.06882 40.9378 7.85077 41.0123 7.64586C41.0772 7.50386 41.1706 7.37699 41.2866 7.27325C41.4027 7.16952 41.5389 7.0912 41.6865 7.04325C42.1501 6.87608 42.6569 6.87608 43.1204 7.04325C43.2747 7.08914 43.4149 7.17378 43.5279 7.28922C43.6408 7.40467 43.7228 7.54714 43.7661 7.70325C43.8001 7.79857 43.8101 7.90089 43.7952 8.00105C43.7803 8.10122 43.7409 8.19609 43.6807 8.27716C43.5819 8.42614 43.439 8.53995 43.2723 8.60238L42.959 8.70759C42.4652 8.84151 42.0094 8.92759 41.5251 9.02325C41.0408 9.1189 40.7844 9.1476 40.3856 9.22412C39.872 9.32872 39.3647 9.46285 38.8663 9.62586C38.4055 9.77098 37.9834 10.0195 37.6318 10.3528C37.1528 10.7688 36.842 11.3474 36.7582 11.9789C36.6776 12.3926 36.6776 12.8182 36.7582 13.2319C36.8845 13.7648 37.1543 14.2522 37.538 14.6403C37.9217 15.0285 38.4044 15.3025 38.9328 15.4319C40.086 15.785 41.3255 15.7207 42.4367 15.2502C42.9852 15.0422 43.4675 14.6885 43.8326 14.2267L43.5857 12.3806C43.4149 12.6522 43.1667 12.8656 42.8735 12.9928C42.6047 13.1094 42.3196 13.1836 42.0284 13.2128C41.7801 13.2415 41.5287 13.222 41.2877 13.1554C41.0951 13.0972 40.9213 12.9882 40.7844 12.8398C40.6648 12.7206 40.5851 12.5668 40.5565 12.3998C40.5277 12.2712 40.5347 12.1371 40.5765 12.0123C40.6184 11.8874 40.6936 11.7766 40.7939 11.6919C40.9256 11.5815 41.0728 11.4912 41.2307 11.4241C41.6486 11.2711 42.0094 11.1563 42.4367 11.0415C42.9249 10.9016 43.4013 10.7225 43.8611 10.5059C43.9086 10.8774 43.9086 11.2535 43.8611 11.625C43.8296 11.8997 43.7318 12.1624 43.5762 12.3902L43.8326 14.2363C43.9085 14.4946 43.9845 14.7146 44.07 14.9728C44.1184 15.1072 44.1926 15.2307 44.2884 15.3363H48.2386C48.0839 15.0801 48.0049 14.7848 48.0107 14.485Z" fill="#777777"/>
<path d="M66.6984 4.39404C65.8991 4.26969 65.0857 4.26969 64.2864 4.39404C63.1126 4.55991 62.0235 5.10344 61.1813 5.94361C60.2508 6.82192 59.6815 8.02008 59.586 9.301C59.5168 10.0776 59.5975 10.8604 59.8234 11.6062C60.1156 12.7649 60.7841 13.7919 61.7226 14.5236C62.3435 15.0005 63.0646 15.3278 63.8307 15.4801C64.9172 15.7097 66.0392 15.7097 67.1257 15.4801C67.8917 15.3278 68.6129 15.0005 69.2338 14.5236L66.9453 12.008C66.8581 12.2015 66.734 12.3759 66.5799 12.5211C66.4258 12.6663 66.2447 12.7794 66.0472 12.854C65.8496 12.9287 65.6394 12.9633 65.4285 12.956C65.2176 12.9487 65.0102 12.8996 64.8182 12.8114C64.4573 12.657 64.1686 12.3696 64.0111 12.008C63.8683 11.6774 63.7663 11.3305 63.7072 10.9749C63.5838 10.2597 63.5838 9.52839 63.7072 8.81317C63.7738 8.4404 63.9161 8.08547 64.125 7.77056C64.3533 7.42474 64.7084 7.18422 65.1125 7.10174C65.5166 7.01926 65.9366 7.10155 66.2806 7.33056C66.4554 7.44445 66.6043 7.59442 66.7174 7.77056C66.9361 8.08221 67.0851 8.43792 67.1542 8.81317C67.2872 9.52753 67.2872 10.2606 67.1542 10.9749C67.1029 11.3311 67.0039 11.6786 66.8598 12.008L69.1483 14.5236C70.0879 13.7929 70.7567 12.7655 71.0474 11.6062C71.2636 10.8585 71.3345 10.0758 71.2563 9.301C71.1609 8.02008 70.5916 6.82192 69.6611 5.94361C68.8572 5.12975 67.8217 4.58817 66.6984 4.39404Z" fill="#777777"/>
<path d="M7.26427 10.7068H4.52948V7.16766H6.2862C6.62805 7.16766 6.91292 7.16766 7.23578 7.16766C7.46022 7.15848 7.6796 7.09768 7.87711 6.98991C8.07463 6.88214 8.24503 6.73027 8.37527 6.54592C8.51542 6.35429 8.60672 6.13095 8.64116 5.89548C8.66015 5.69826 8.66015 5.49966 8.64116 5.30244C8.60575 4.92608 8.43247 4.5765 8.15509 4.32185C7.87771 4.0672 7.51612 3.92574 7.14082 3.92505H4.51049V15.3268H0V0.347656H7.4067C7.70107 0.347656 7.94796 0.347656 8.24233 0.347656C8.92651 0.38791 9.59609 0.563659 10.2128 0.864847C10.8295 1.16604 11.3811 1.58675 11.8362 2.10293C12.2913 2.6191 12.6409 3.2206 12.865 3.87301C13.0891 4.52542 13.1833 5.21593 13.1422 5.90505C13.1472 6.00382 13.1472 6.1028 13.1422 6.20157C13.046 7.24026 12.6199 8.22003 11.9271 8.99544C11.2343 9.77085 10.3117 10.3005 9.29636 10.5059C8.6288 10.6506 7.94702 10.718 7.26427 10.7068Z" fill="#777777"/>
<path d="M53.9168 11.3955C54.2071 11.4407 54.4931 11.5111 54.7714 11.6059C54.8888 11.6433 54.994 11.7119 55.0759 11.8045C55.1578 11.8971 55.2133 12.0102 55.2367 12.132C55.2655 12.2626 55.2614 12.3983 55.225 12.5269C55.1885 12.6556 55.1207 12.773 55.0278 12.8685C54.8373 13.0664 54.5866 13.1943 54.3156 13.232C53.959 13.2966 53.5917 13.2636 53.2521 13.1363C53.0901 13.0716 52.9394 12.9812 52.8058 12.8685C52.6312 12.7239 52.5025 12.5311 52.4354 12.3137C52.3776 12.1282 52.3519 11.9341 52.3595 11.7398H48.4282V11.9694C48.4217 12.3191 48.4829 12.6668 48.6086 12.9929C48.7944 13.492 49.0974 13.9383 49.4917 14.2937C49.9905 14.7805 50.6053 15.1296 51.2769 15.3076C52.6475 15.7161 54.092 15.8077 55.5026 15.5755C56.1665 15.4802 56.809 15.2698 57.4017 14.9537C57.6651 14.8194 57.9108 14.6523 58.1329 14.4563C58.6504 14.0381 59.0274 13.4693 59.2126 12.8275C59.3978 12.1857 59.3822 11.5019 59.1679 10.8694C59.0252 10.3948 58.748 9.97258 58.3703 9.6546C57.8609 9.21069 57.2613 8.88424 56.6136 8.69808L56.1768 8.5833C55.3855 8.35545 54.5796 8.18287 53.7648 8.06678C53.5443 8.03324 53.3257 7.98854 53.1096 7.93286C53.0105 7.91551 52.9144 7.88326 52.8248 7.83721C52.7103 7.78483 52.6206 7.68968 52.5745 7.57188C52.5284 7.45407 52.5296 7.32283 52.5779 7.20591C52.6369 7.09647 52.7182 7.00075 52.8163 6.92495C52.9145 6.84916 53.0274 6.79497 53.1476 6.7659C53.5728 6.62227 54.0329 6.62227 54.458 6.7659C54.6581 6.82905 54.8318 6.95712 54.9521 7.13015C55.0723 7.30318 55.1323 7.51144 55.1227 7.72243H58.921C58.9227 7.27858 58.8455 6.83802 58.6931 6.42156C58.5455 5.99943 58.278 5.63026 57.924 5.35982C57.6215 5.11255 57.2817 4.91557 56.9174 4.77634C56.565 4.63854 56.1989 4.53913 55.8254 4.47982C54.9521 4.3175 54.0625 4.26289 53.1761 4.31721C52.6606 4.3461 52.1488 4.42295 51.6473 4.54677C50.9544 4.68591 50.3038 4.98737 49.7481 5.42677C49.2757 5.78897 48.9219 6.28537 48.7321 6.85199C48.5079 7.54163 48.5416 8.29004 48.827 8.95634C48.969 9.33201 49.1878 9.67345 49.4691 9.95851C49.7505 10.2436 50.0882 10.4659 50.4603 10.6111C50.8349 10.7622 51.2228 10.8775 51.6188 10.9555L53.9168 11.3955Z" fill="#777777"/>
<path d="M28.8007 5.73311C29.2961 5.29348 29.8527 4.92933 30.4529 4.65224C31.437 4.17642 32.5637 4.09438 33.6055 4.42267C34.1666 4.57423 34.6796 4.86846 35.0953 5.27715C35.511 5.68584 35.8154 6.19528 35.9795 6.75659C36.1501 7.29134 36.2366 7.84968 36.2359 8.41137V15.3366H32.0007V9.10963C32.0064 8.9116 31.9774 8.71411 31.9153 8.52615C31.867 8.3533 31.7803 8.19375 31.6619 8.05954C31.5435 7.92532 31.3963 7.81995 31.2316 7.75137C30.8718 7.59604 30.4678 7.57941 30.0966 7.70464C29.7254 7.82987 29.4129 8.08821 29.2185 8.4305C29.0428 8.71759 28.9538 9.0499 28.9621 9.38702V15.3653H24.8789V4.59485H28.7247L28.8007 5.73311Z" fill="#777777"/>
<path d="M75.9661 5.73332C76.4634 5.29156 77.0235 4.92724 77.6278 4.65245C78.5922 4.19114 79.6928 4.10927 80.714 4.42289C81.275 4.57444 81.788 4.86868 82.2037 5.27737C82.6194 5.68606 82.9239 6.19549 83.0879 6.7568C83.263 7.29047 83.3496 7.84955 83.3443 8.41158V15.3368H79.1377V9.10984C79.1393 8.91207 79.1105 8.71524 79.0522 8.52637C79.0039 8.35351 78.9173 8.19397 78.7988 8.05975C78.6804 7.92554 78.5333 7.82017 78.3685 7.75158C78.007 7.59783 77.6023 7.58196 77.2301 7.70696C76.8578 7.83195 76.5435 8.08924 76.3459 8.43071C76.1775 8.72046 76.092 9.05154 76.099 9.38724V15.3655H72.0063V4.59506H75.8047L75.9661 5.73332Z" fill="#777777"/>
<path d="M88.1777 4.60449H84.1895V15.3462H88.1777V4.60449Z" fill="#777777"/>
<path d="M88.1777 0.30957H84.1895V3.15044H88.1777V0.30957Z" fill="#777777"/>
<path d="M98.8796 13.9397C98.124 14.7653 97.1256 15.3251 96.0308 15.5371C95.2941 15.6915 94.5377 15.727 93.7898 15.6423C92.7951 15.5569 91.8458 15.185 91.0551 14.571C90.3983 14.0955 89.8483 13.486 89.4408 12.7823C89.1218 12.2406 88.9061 11.6437 88.8046 11.0223C88.6535 10.1529 88.699 9.26032 88.9375 8.41101C89.1772 7.42632 89.6933 6.53198 90.4241 5.83484C91.1549 5.13771 92.0695 4.66726 93.0587 4.4797C94.1657 4.232 95.3159 4.25826 96.4107 4.55622C97.1999 4.74734 97.9242 5.14684 98.5092 5.71361C98.8969 6.05286 99.2189 6.46149 99.4588 6.91883C99.7442 7.45551 99.8757 8.06159 99.8387 8.66927H96.1923C96.1589 8.43346 96.0787 8.20686 95.9563 8.00305C95.8339 7.79925 95.6719 7.62242 95.4801 7.48318C95.2383 7.30084 94.9472 7.1968 94.6453 7.18485C94.3435 7.17289 94.0451 7.25358 93.7898 7.41622C93.4377 7.63594 93.175 7.97517 93.0492 8.37274C92.7501 9.33492 92.7501 10.3662 93.0492 11.3284C93.1548 11.7369 93.3758 12.1057 93.6854 12.3901C93.8556 12.5592 94.0629 12.6854 94.2906 12.7585C94.5183 12.8316 94.7599 12.8496 94.9958 12.811C95.2978 12.7714 95.5748 12.6217 95.7745 12.3901C95.9832 12.1565 96.1215 11.8679 96.1733 11.558C96.1733 11.3475 96.2303 11.1371 96.2493 10.9171H100.048C100.081 11.4759 99.9934 12.0354 99.7918 12.5571C99.5902 13.0788 99.279 13.5505 98.8796 13.9397Z" fill="#777777"/>
</g>
<defs>
<clipPath id="clip0_4014_307">
<rect width="101" height="16" fill="white"/>
</clipPath>
</defs>
</svg>
