<svg width="78" height="40" viewBox="0 0 78 40" fill="none" xmlns="http://www.w3.org/2000/svg">
<path fill-rule="evenodd" clip-rule="evenodd" d="M42.2715 20.5266C42.2715 22.6043 40.2282 24.2884 37.7104 24.2884C35.1918 24.2884 33.1504 22.6043 33.1504 20.5266C33.1504 18.4496 35.1918 16.7646 37.7104 16.7646C40.2291 16.7646 42.2715 18.4488 42.2715 20.5266Z" fill="#BABABA"/>
<path fill-rule="evenodd" clip-rule="evenodd" d="M39.9527 2.55016C39.1706 1.14703 38.6009 0 37.7143 0C36.8336 0 36.2553 1.14703 35.4715 2.55016C34.6859 3.95415 34.0356 5.6133 34.0356 6.63854H34.0451C34.0451 8.31021 35.6874 9.66525 37.7143 9.66525C39.7394 9.66525 41.3825 8.31021 41.3825 6.63854H41.3851C41.3851 5.6133 40.7367 3.95324 39.9527 2.55016Z" fill="#BABABA"/>
<path fill-rule="evenodd" clip-rule="evenodd" d="M20.0839 10.0441C18.2197 9.90158 16.7308 9.73495 16.2871 10.3681C15.8459 10.9981 16.7626 11.9843 17.8428 13.2465C18.924 14.5088 20.3409 15.8024 21.4177 16.3155L21.4229 16.3088C23.1765 17.1442 25.421 16.6486 26.4344 15.2016C27.4471 13.7537 26.8456 11.903 25.0912 11.0668C24.0152 10.5538 21.9489 10.1858 20.0839 10.0441Z" fill="#BABABA"/>
<path fill-rule="evenodd" clip-rule="evenodd" d="M57.58 13.2485C58.662 11.9888 59.5812 11.0075 59.1383 10.3743C58.6971 9.74444 57.2039 9.90607 55.3389 10.0461C53.4723 10.187 51.4051 10.5525 50.3291 11.0655L50.3342 11.073C48.5789 11.9084 47.9784 13.7583 48.9909 15.207C50.0027 16.6532 52.248 17.1496 54.0016 16.3142V16.3159C55.0793 15.802 56.498 14.5092 57.58 13.2485Z" fill="#BABABA"/>
<path fill-rule="evenodd" clip-rule="evenodd" d="M46.6544 15.062C47.4031 13.9903 47.9403 11.9333 48.1493 10.0777C48.3567 8.22126 48.6017 6.73935 47.6739 6.29847C46.753 5.85922 45.3104 6.77084 43.4642 7.84663C41.618 8.92232 39.7239 10.333 38.9744 11.4046L38.9846 11.4095C37.763 13.1558 38.4877 15.3894 40.6054 16.398C42.7223 17.4049 45.4302 16.8074 46.6527 15.062H46.6544ZM36.4446 11.4046C35.695 10.333 33.8043 8.92151 31.959 7.84409C30.1146 6.76839 28.6813 5.85251 27.7535 6.29429C26.8327 6.73354 27.0691 8.21871 27.2755 10.0761C27.4811 11.9325 28.0157 13.9903 28.7662 15.062L28.7764 15.0562C29.9989 16.8032 32.706 17.4017 34.8229 16.3939C36.9398 15.3852 37.6661 13.1516 36.4429 11.4054L36.4446 11.4046ZM27.5009 16.8688C26.0008 16.8688 23.5739 17.5136 21.5204 18.2942C19.4678 19.0724 17.7896 19.6394 17.7896 20.522C17.7896 21.3997 19.4678 21.9732 21.5204 22.7547C23.5739 23.5363 26.0008 24.1836 27.5009 24.1836V24.1728C29.9458 24.1728 31.9273 22.5385 31.9273 20.522C31.9273 18.5056 29.9458 16.8712 27.5009 16.8712V16.8688ZM47.9189 24.1836C49.4181 24.1836 51.8459 23.5388 53.8994 22.7581C55.952 21.979 57.6293 21.413 57.6293 20.5303C57.6293 19.6526 55.952 19.0782 53.8994 18.2976C51.8459 17.516 49.419 16.8688 47.9197 16.8688V16.8787C45.4748 16.8787 43.4925 18.513 43.4925 20.5303C43.4925 22.5467 45.474 24.1819 47.9189 24.1819V24.1836Z" fill="#999999"/>
<path fill-rule="evenodd" clip-rule="evenodd" d="M7.80349 31.4113C7.80349 29.8067 7.13273 28.1442 5.28397 28.1442C3.39329 28.1442 2.78425 29.7686 2.78425 31.4113C2.78425 33.0548 3.43532 34.6195 5.30376 34.6195C7.19353 34.6195 7.80349 33.0539 7.80349 31.4113ZM0 39.5482V26.7734C0 26.3225 0.469472 26.3242 0.469472 26.3242H2.2762C2.2762 26.3242 2.74395 26.325 2.74395 26.7734V27.5956C2.74395 27.6171 2.76364 27.6163 2.76364 27.6163C2.77907 27.6163 2.79368 27.6005 2.79877 27.5931C3.49095 26.5322 4.62183 26.0507 5.91372 26.0507C9.20591 26.0507 10.6888 28.6141 10.6888 31.4892C10.6888 34.1894 9.14511 36.713 6.07644 36.713C4.81714 36.713 3.63062 36.195 2.93925 35.198C2.93925 35.198 2.93417 35.1872 2.91702 35.1872H2.90586C2.90586 35.1872 2.88534 35.1847 2.88534 35.2096V39.5499C2.88534 39.9999 2.4176 39.9999 2.4176 39.9999H0.469472C0.469472 39.9999 0 40.0025 0 39.5482ZM17.9131 31.5091C17.9131 31.4858 17.8986 31.5024 17.8917 31.5082C17.3948 31.9011 16.3968 31.9226 15.5153 32.076C14.6209 32.2533 13.8088 32.5459 13.8088 33.5636C13.8088 34.5996 14.6415 34.854 15.5761 34.854C17.8318 34.854 17.9131 33.1326 17.9131 32.5259V31.5091ZM13.754 29.4354H11.7168C11.2525 29.4354 11.2765 29.1288 11.3031 28.9846C11.7031 26.7419 13.9716 26.0507 16.187 26.0507C18.2799 26.0507 20.8002 26.5007 20.8002 28.9266V34.1894C20.8002 34.8524 20.8533 35.5179 20.9818 35.9911C21.0314 36.1718 21.1643 36.4387 20.6974 36.4387H18.584C18.2378 36.4387 18.1487 36.1428 18.1145 35.9894C18.0758 35.8219 18.05 35.6518 18.0374 35.4806C18.0374 35.4582 18.0229 35.474 18.016 35.4806C17.1028 36.3856 15.7715 36.713 14.5001 36.713C12.5093 36.713 10.9244 35.7541 10.9244 33.6813C10.9244 31.3913 12.7123 30.8436 14.5001 30.609C16.2683 30.3546 17.914 30.4134 17.914 29.278C17.914 28.0854 17.0608 27.9089 16.0448 27.9089C15.1126 27.9089 14.4599 28.2196 14.2209 28.9846C14.1798 29.1205 14.1318 29.4354 13.754 29.4354ZM52.9599 31.5091C52.9599 31.4858 52.9453 31.5024 52.9385 31.5082C52.4424 31.9011 51.4427 31.9226 50.562 32.076C49.6685 32.2533 48.8546 32.5459 48.8546 33.5636C48.8546 34.5996 49.6882 34.854 50.6229 34.854C52.8785 34.854 52.9599 33.1326 52.9599 32.5259V31.5091ZM48.7998 29.4354H46.7618C46.2984 29.4354 46.3223 29.1288 46.348 28.9846C46.7481 26.7419 49.0175 26.0507 51.2319 26.0507C53.3256 26.0507 55.8452 26.5007 55.8452 28.9266V34.1894C55.8452 34.8524 55.8983 35.5179 56.0277 35.9911C56.0782 36.1718 56.211 36.4387 55.7432 36.4387H53.629C53.2845 36.4387 53.1938 36.1428 53.1604 35.9894C53.1215 35.8219 53.0958 35.6518 53.0832 35.4806C53.0832 35.4582 53.0678 35.474 53.0618 35.4806C52.1478 36.3856 50.8173 36.713 49.5452 36.713C47.5542 36.713 45.9694 35.7541 45.9694 33.6813C45.9694 31.3913 47.7573 30.8436 49.5452 30.609C51.3142 30.3546 52.9599 30.4134 52.9599 29.278C52.9599 28.0854 52.1057 27.9089 51.0906 27.9089C50.1585 27.9089 49.5057 28.2196 49.2668 28.9846C49.2239 29.1205 49.1776 29.4354 48.7998 29.4354ZM67.5851 31.5091C67.5851 31.4858 67.5705 31.5024 67.5637 31.5082C67.0668 31.9011 66.0688 31.9226 65.1881 32.076C64.2929 32.2533 63.4808 32.5459 63.4808 33.5636C63.4808 34.5996 64.3134 34.854 65.2481 34.854C67.5037 34.854 67.5851 33.1326 67.5851 32.5259V31.5091ZM63.425 29.4354H61.3879C60.9227 29.4354 60.9475 29.1288 60.9732 28.9846C61.3742 26.7419 63.6435 26.0507 65.8581 26.0507C67.9509 26.0507 70.4704 26.5007 70.4704 28.9266V34.1894C70.4704 34.8524 70.5235 35.5179 70.6529 35.9911C70.7025 36.1718 70.8362 36.4387 70.3685 36.4387H68.2541C67.9089 36.4387 67.8198 36.1428 67.7847 35.9894C67.7465 35.8219 67.721 35.6518 67.7084 35.4806C67.7084 35.4582 67.6939 35.474 67.687 35.4806C66.773 36.3856 65.4425 36.713 64.1712 36.713C62.1794 36.713 60.5946 35.7541 60.5946 33.6813C60.5946 31.3913 62.3824 30.8436 64.1712 30.609C65.9386 30.3546 67.5851 30.4134 67.5851 29.278C67.5851 28.0854 66.7318 27.9089 65.7149 27.9089C64.7837 27.9089 64.1301 28.2196 63.892 28.9846C63.8499 29.1205 63.8028 29.4354 63.425 29.4354ZM21.7674 35.9886V26.7759C21.7674 26.3233 22.2326 26.325 22.2326 26.325H24.0427C24.0427 26.325 24.5104 26.3233 24.5104 26.7759V28.1839C24.5104 28.2022 24.5302 28.2039 24.5302 28.2039C24.5447 28.2039 24.5576 28.1889 24.5601 28.1823C25.0956 26.9218 26.5099 26.0507 27.9038 26.0507C27.9552 26.0507 28.0083 26.0541 28.0623 26.0581C28.225 26.0722 28.5343 26.146 28.5343 26.5106V28.281C28.5343 28.7335 28.2413 28.6787 28.0648 28.6622C27.8764 28.6441 27.6871 28.6346 27.4977 28.634C25.3843 28.634 24.6535 30.1009 24.6535 31.882V35.9886C24.6535 36.4379 24.1849 36.4379 24.1849 36.4379H22.2351C22.2351 36.4379 21.7674 36.4379 21.7674 35.9886ZM29.3121 35.9886V26.7726C29.3121 26.3225 29.7816 26.325 29.7816 26.325H31.5669C31.5669 26.325 32.0355 26.3225 32.0355 26.7751V27.6751C32.0355 27.6933 32.0543 27.6933 32.0543 27.6933C32.0775 27.6933 32.0877 27.6776 32.0937 27.6701C32.8451 26.6474 33.9356 26.0499 35.2857 26.0499C36.6067 26.0499 37.7856 26.5198 38.3544 27.7323C38.9644 26.8521 40.0618 26.0499 41.5241 26.0499C43.76 26.0499 45.3646 27.0477 45.3646 29.6691V35.9894C45.3646 36.4403 44.8969 36.4387 44.8969 36.4387H42.9479C42.9479 36.4387 42.4793 36.4419 42.4793 35.9894V30.7068C42.4793 29.3558 42.3585 28.242 40.7119 28.242C39.086 28.242 38.781 29.5333 38.781 30.8054V35.9886C38.781 36.4419 38.3133 36.4379 38.3133 36.4379H36.3634C36.3634 36.4379 35.8957 36.4411 35.8957 35.9886V30.7648C35.8957 29.5904 35.9771 28.2412 34.148 28.2412C33.5793 28.2412 32.1983 28.5926 32.1983 30.57V35.9886C32.1983 36.4361 31.7297 36.4379 31.7297 36.4379H29.7808C29.7808 36.4379 29.3121 36.4411 29.3121 35.9886ZM56.9614 35.9886V23.735C56.9614 23.735 56.9614 23.2842 57.4292 23.2842H59.3789C59.8459 23.2842 59.8476 23.735 59.8476 23.735V35.9903C59.8476 36.4395 59.3789 36.4395 59.3789 36.4395H57.4292C57.4292 36.4395 56.9614 36.4411 56.9614 35.9903M75.2965 23.7368V25.8734C75.2965 25.8734 75.2965 26.3242 75.7639 26.3242H76.9409C77.4074 26.3242 77.4083 26.7734 77.4083 26.7734V27.7331C77.4083 28.1865 76.9409 28.1831 76.9409 28.1831H75.7639C75.7639 28.1831 75.2965 28.1839 75.2965 28.634V33.1923C75.2965 34.1296 75.5406 34.3659 76.5153 34.3659C76.6596 34.3659 76.8012 34.3609 76.9419 34.3493C77.3748 34.3153 77.4083 34.2929 77.4083 34.8001V36.0624C77.4083 36.0624 77.4111 36.4726 76.9419 36.5141C76.5516 36.5498 76.1223 36.5564 75.723 36.5564C73.9542 36.5564 72.4096 36.1651 72.4096 34.1512V28.634C72.4096 28.634 72.4114 28.1831 71.9422 28.1831H71.1291C71.1291 28.1831 70.6631 28.1865 70.6631 27.7331V26.7726C70.6631 26.7726 70.6631 26.3233 71.1291 26.3233H71.9431C72.4096 26.3233 72.4096 25.8726 72.4096 25.8726V23.736C72.4096 23.736 72.4105 23.2851 72.8788 23.2851H74.8282C75.2974 23.2851 75.2965 23.7368 75.2965 23.7368ZM69.6617 23.8884V25.0595H69.8724V24.597H70.0455C70.1274 24.5925 70.2094 24.6057 70.2853 24.636C70.3615 24.6791 70.401 24.7694 70.401 24.9045V24.999L70.4053 25.0354C70.4053 25.0396 70.4087 25.0437 70.4096 25.0487C70.4113 25.0511 70.4113 25.0561 70.4121 25.0595H70.6135L70.6066 25.0454C70.5985 25.027 70.5944 25.0073 70.5946 24.9873C70.5921 24.9542 70.5921 24.9235 70.5921 24.8987V24.8108C70.589 24.7452 70.5651 24.6821 70.5235 24.6301C70.4997 24.5978 70.4691 24.5707 70.4336 24.5507C70.3982 24.5307 70.3587 24.5182 70.3179 24.5142C70.3796 24.5072 70.4391 24.4871 70.4918 24.4553C70.5706 24.4089 70.6135 24.3343 70.6135 24.2266C70.6135 24.079 70.5466 23.9821 70.4224 23.929C70.3152 23.8969 70.203 23.8828 70.0908 23.8876H69.6626L69.6617 23.8884ZM70.4053 24.2464C70.4053 24.3343 70.3615 24.3973 70.2776 24.4263C70.21 24.4464 70.1393 24.4551 70.0686 24.452H69.8724V24.0351H70.0601C70.1799 24.0351 70.2673 24.0483 70.3222 24.0765C70.377 24.1072 70.4053 24.1628 70.4053 24.2464ZM71.2189 24.4785C71.2189 24.1835 71.1104 23.9315 70.8945 23.7226C70.7913 23.6229 70.6684 23.5442 70.5332 23.4912C70.3979 23.4383 70.253 23.4121 70.1072 23.4143C69.8021 23.4143 69.5435 23.518 69.3276 23.7226C69.1091 23.9315 69.0021 24.1835 69.0021 24.4777C69.0021 24.7735 69.1091 25.0255 69.3233 25.2352C69.5391 25.4448 69.8004 25.5501 70.1072 25.5501C70.4155 25.5501 70.6768 25.4448 70.8953 25.2352C71.1095 25.0238 71.218 24.7727 71.218 24.4777L71.2189 24.4785ZM70.1054 23.5602C70.371 23.5602 70.5946 23.6506 70.7831 23.8295C70.9672 24.0078 71.0624 24.224 71.0624 24.4809C71.0624 24.7354 70.9672 24.9526 70.7831 25.1333C70.6951 25.2203 70.5897 25.2892 70.4734 25.3357C70.357 25.3821 70.2321 25.4052 70.1063 25.4034C69.8407 25.4034 69.6145 25.3122 69.4295 25.1333C69.3403 25.0482 69.2698 24.9466 69.2224 24.8345C69.1749 24.7223 69.1516 24.6021 69.1537 24.4809C69.1537 24.224 69.2445 24.0078 69.4304 23.8295C69.6163 23.6506 69.8416 23.5602 70.1054 23.5602Z" fill="#777777"/>
</svg>
