<svg width="117" height="60" viewBox="0 0 117 60" fill="none" xmlns="http://www.w3.org/2000/svg">
<path fill-rule="evenodd" clip-rule="evenodd" d="M63.4072 30.7898C63.4072 33.9064 60.3423 36.4325 56.5656 36.4325C52.7877 36.4325 49.7256 33.9064 49.7256 30.7898C49.7256 27.6744 52.7877 25.147 56.5656 25.147C60.3437 25.147 63.4072 27.6731 63.4072 30.7898Z" fill="#BABABA"/>
<path fill-rule="evenodd" clip-rule="evenodd" d="M59.9288 3.82525C58.7557 1.72054 57.9012 0 56.5712 0C55.2501 0 54.3827 1.72054 53.207 3.82525C52.0286 5.93123 51.0532 8.41995 51.0532 9.95781H51.0674C51.0674 12.4653 53.5308 14.4979 56.5712 14.4979C59.6089 14.4979 62.0736 12.4653 62.0736 9.95781H62.0774C62.0774 8.41995 61.1047 5.92987 59.9288 3.82525Z" fill="#BABABA"/>
<path fill-rule="evenodd" clip-rule="evenodd" d="M30.1259 15.0661C27.3296 14.8524 25.0962 14.6024 24.4307 15.5522C23.7688 16.4971 25.1439 17.9764 26.7642 19.8697C28.386 21.7631 30.5114 23.7037 32.1266 24.4732L32.1344 24.4633C34.7648 25.7163 38.1315 24.9729 39.6516 22.8023C41.1706 20.6305 40.2685 17.8546 37.6368 16.6003C36.0228 15.8307 32.9234 15.2787 30.1259 15.0661Z" fill="#BABABA"/>
<path fill-rule="evenodd" clip-rule="evenodd" d="M86.37 19.8728C87.9929 17.9831 89.3718 16.5113 88.7075 15.5614C88.0456 14.6167 85.8058 14.8591 83.0083 15.0692C80.2084 15.2806 77.1076 15.8288 75.4936 16.5983L75.5013 16.6095C72.8684 17.8625 71.9676 20.6374 73.4864 22.8104C75.004 24.9798 78.372 25.7244 81.0025 24.4712V24.4738C82.619 23.7031 84.747 21.7637 86.37 19.8728Z" fill="#BABABA"/>
<path fill-rule="evenodd" clip-rule="evenodd" d="M69.9814 22.5929C71.1045 20.9855 71.9102 17.9 72.2238 15.1166C72.5348 12.3319 72.9022 10.109 71.5106 9.4477C70.1292 8.78883 67.9653 10.1563 65.196 11.7699C62.4268 13.3835 59.5856 15.4995 58.4613 17.1069L58.4767 17.1143C56.6442 19.7337 57.7314 23.0841 60.9079 24.597C64.0832 26.1074 68.1451 25.2111 69.9788 22.5929H69.9814ZM54.6667 17.1069C53.5422 15.4995 50.7062 13.3823 47.9382 11.7661C45.1716 10.1526 43.0217 8.77876 41.6301 9.44144C40.2487 10.1003 40.6034 12.3281 40.9131 15.1141C41.2214 17.8988 42.0233 20.9855 43.149 22.5929L43.1644 22.5842C44.9981 25.2049 49.0587 26.1025 52.2341 24.5908C55.4094 23.0778 56.499 19.7274 54.6641 17.1081L54.6667 17.1069ZM41.2511 25.3031C39.001 25.3031 35.3605 26.2703 32.2803 27.4413C29.2014 28.6086 26.6841 29.4591 26.6841 30.7831C26.6841 32.0996 29.2014 32.9598 32.2803 34.1321C35.3605 35.3045 39.001 36.2753 41.2511 36.2753V36.2591C44.9184 36.2591 47.8907 33.8077 47.8907 30.7831C47.8907 27.7584 44.9184 25.3068 41.2511 25.3068V25.3031ZM71.8781 36.2753C74.1269 36.2753 77.7686 35.3081 80.8489 34.1372C83.9278 32.9685 86.4437 32.1194 86.4437 30.7954C86.4437 29.4789 83.9278 28.6174 80.8489 27.4464C77.7686 26.274 74.1282 25.3031 71.8793 25.3031V25.318C68.212 25.318 65.2385 27.7695 65.2385 30.7954C65.2385 33.8201 68.2107 36.2729 71.8781 36.2729V36.2753Z" fill="#999999"/>
<path fill-rule="evenodd" clip-rule="evenodd" d="M11.7052 47.117C11.7052 44.7101 10.6991 42.2163 7.92596 42.2163C5.08994 42.2163 4.17637 44.6529 4.17637 47.117C4.17637 49.5821 5.15297 51.9293 7.95564 51.9293C10.7903 51.9293 11.7052 49.5809 11.7052 47.117ZM0 59.3224V40.1601C0 39.4838 0.704208 39.4863 0.704208 39.4863H3.41431C3.41431 39.4863 4.11593 39.4876 4.11593 40.1601V41.3934C4.11593 41.4257 4.14547 41.4244 4.14547 41.4244C4.16861 41.4244 4.19053 41.4007 4.19815 41.3896C5.23642 39.7984 6.93275 39.0761 8.87058 39.0761C13.8089 39.0761 16.0333 42.9212 16.0333 47.2338C16.0333 51.284 13.7177 55.0695 9.11466 55.0695C7.22571 55.0695 5.44593 54.2925 4.40888 52.797C4.40888 52.797 4.40126 52.7808 4.37553 52.7808H4.35878C4.35878 52.7808 4.32802 52.7771 4.32802 52.8144V59.3248C4.32802 59.9999 3.6264 59.9999 3.6264 59.9999H0.704208C0.704208 59.9999 0 60.0037 0 59.3224ZM26.8697 47.2636C26.8697 47.2287 26.8479 47.2536 26.8376 47.2624C26.0923 47.8517 24.5952 47.8839 23.273 48.114C21.9314 48.38 20.7132 48.8189 20.7132 50.3454C20.7132 51.8993 21.9623 52.2811 23.3642 52.2811C26.7477 52.2811 26.8697 49.6989 26.8697 48.7889V47.2636ZM20.6309 44.1531H17.5752C16.8788 44.1531 16.9147 43.6932 16.9546 43.4769C17.5547 40.1128 20.9574 39.0761 24.2805 39.0761C27.4198 39.0761 31.2003 39.7511 31.2003 43.3899V51.284C31.2003 52.2786 31.2799 53.2768 31.4727 53.9866C31.5472 54.2577 31.7465 54.658 31.0461 54.658H27.876C27.3568 54.658 27.2231 54.2142 27.1718 53.9842C27.1136 53.7329 27.075 53.4778 27.0561 53.2209C27.0561 53.1873 27.0343 53.211 27.0239 53.2209C25.6542 54.5784 23.6573 55.0695 21.7502 55.0695C18.7639 55.0695 16.3867 53.6312 16.3867 50.522C16.3867 47.087 19.0684 46.2653 21.7502 45.9134C24.4025 45.5319 26.8711 45.6201 26.8711 43.917C26.8711 42.1281 25.5912 41.8633 24.0672 41.8633C22.669 41.8633 21.6899 42.3294 21.3313 43.4769C21.2697 43.6808 21.1977 44.1531 20.6309 44.1531ZM79.4399 47.2636C79.4399 47.2287 79.418 47.2536 79.4077 47.2624C78.6636 47.8517 77.164 47.8839 75.843 48.114C74.5028 48.38 73.282 48.8189 73.282 50.3454C73.282 51.8993 74.5323 52.2811 75.9344 52.2811C79.3178 52.2811 79.4399 49.6989 79.4399 48.7889V47.2636ZM73.1998 44.1531H70.1427C69.4476 44.1531 69.4835 43.6932 69.522 43.4769C70.1221 40.1128 73.5262 39.0761 76.8479 39.0761C79.9885 39.0761 83.7677 39.7511 83.7677 43.3899V51.284C83.7677 52.2786 83.8474 53.2768 84.0415 53.9866C84.1173 54.2577 84.3165 54.658 83.6149 54.658H80.4434C79.9268 54.658 79.7907 54.2142 79.7406 53.9842C79.6823 53.7329 79.6437 53.4778 79.6249 53.2209C79.6249 53.1873 79.6017 53.211 79.5927 53.2209C78.2216 54.5784 76.226 55.0695 74.3178 55.0695C71.3314 55.0695 68.9541 53.6312 68.9541 50.522C68.9541 47.087 71.6359 46.2653 74.3178 45.9134C76.9713 45.5319 79.4399 45.6201 79.4399 43.917C79.4399 42.1281 78.1586 41.8633 76.636 41.8633C75.2378 41.8633 74.2586 42.3294 73.9002 43.4769C73.8359 43.6808 73.7665 44.1531 73.1998 44.1531ZM101.378 47.2636C101.378 47.2287 101.356 47.2536 101.346 47.2624C100.6 47.8517 99.1032 47.8839 97.7822 48.114C96.4394 48.38 95.2211 48.8189 95.2211 50.3454C95.2211 51.8993 96.4701 52.2811 97.8722 52.2811C101.256 52.2811 101.378 49.6989 101.378 48.7889V47.2636ZM95.1376 44.1531H92.0818C91.384 44.1531 91.4213 43.6932 91.4598 43.4769C92.0613 40.1128 95.4652 39.0761 98.7871 39.0761C101.926 39.0761 105.706 39.7511 105.706 43.3899V51.284C105.706 52.2786 105.785 53.2768 105.979 53.9866C106.054 54.2577 106.254 54.658 105.553 54.658H102.381C101.863 54.658 101.73 54.2142 101.677 53.9842C101.62 53.7329 101.581 53.4776 101.563 53.2209C101.563 53.1873 101.541 53.211 101.531 53.2209C100.159 54.5784 98.1638 55.0695 96.2568 55.0695C93.2692 55.0695 90.8919 53.6312 90.8919 50.522C90.8919 47.087 93.5737 46.2653 96.2568 45.9134C98.9078 45.5319 101.378 45.6201 101.378 43.917C101.378 42.1281 100.098 41.8633 98.5724 41.8633C97.1756 41.8633 96.1952 42.3294 95.8379 43.4769C95.7749 43.6808 95.7043 44.1531 95.1376 44.1531ZM32.6511 53.9829V40.1639C32.6511 39.485 33.3489 39.4876 33.3489 39.4876H36.064C36.064 39.4876 36.7656 39.485 36.7656 40.1639V42.2759C36.7656 42.3033 36.7953 42.3059 36.7953 42.3059C36.8171 42.3059 36.8364 42.2834 36.8402 42.2735C37.6434 40.3826 39.7649 39.0761 41.8557 39.0761C41.9327 39.0761 42.0124 39.0811 42.0934 39.0872C42.3375 39.1083 42.8014 39.219 42.8014 39.766V42.4214C42.8014 43.1002 42.362 43.0181 42.0972 42.9933C41.8146 42.9661 41.5306 42.9519 41.2465 42.951C38.0764 42.951 36.9803 45.1514 36.9803 47.8231V53.9829C36.9803 54.6568 36.2773 54.6568 36.2773 54.6568H33.3527C33.3527 54.6568 32.6511 54.6568 32.6511 53.9829ZM43.9682 53.9829V40.1588C43.9682 39.4838 44.6724 39.4876 44.6724 39.4876H47.3504C47.3504 39.4876 48.0532 39.4838 48.0532 40.1626V41.5126C48.0532 41.54 48.0815 41.54 48.0815 41.54C48.1162 41.54 48.1316 41.5165 48.1406 41.5052C49.2676 39.9711 50.9034 39.0748 52.9286 39.0748C54.9101 39.0748 56.6783 39.7797 57.5316 41.5984C58.4465 40.2782 60.0926 39.0748 62.2861 39.0748C65.64 39.0748 68.0469 40.5716 68.0469 44.5037V53.9842C68.0469 54.6605 67.3453 54.658 67.3453 54.658H64.4219C64.4219 54.658 63.7189 54.6629 63.7189 53.9842V46.0602C63.7189 44.0338 63.5377 42.363 61.0679 42.363C58.629 42.363 58.1716 44.2999 58.1716 46.2082V53.9829C58.1716 54.6629 57.4699 54.6568 57.4699 54.6568H54.5452C54.5452 54.6568 53.8435 54.6617 53.8435 53.9829V46.1472C53.8435 44.3857 53.9656 42.3618 51.2221 42.3618C50.3689 42.3618 48.2974 42.8889 48.2974 45.855V53.9829C48.2974 54.6542 47.5946 54.6568 47.5946 54.6568H44.6712C44.6712 54.6568 43.9682 54.6617 43.9682 53.9829ZM85.4422 53.9829V35.6026C85.4422 35.6026 85.4422 34.9263 86.1438 34.9263H89.0684C89.7688 34.9263 89.7714 35.6026 89.7714 35.6026V53.9854C89.7714 54.6592 89.0684 54.6592 89.0684 54.6592H86.1438C86.1438 54.6592 85.4422 54.6617 85.4422 53.9854M112.945 35.6052V38.8101C112.945 38.8101 112.945 39.4863 113.646 39.4863H115.411C116.111 39.4863 116.113 40.1601 116.113 40.1601V41.5996C116.113 42.2797 115.411 42.2747 115.411 42.2747H113.646C113.646 42.2747 112.945 42.2759 112.945 42.951V49.7885C112.945 51.1945 113.311 51.5488 114.773 51.5488C114.989 51.5488 115.202 51.5413 115.413 51.5239C116.062 51.473 116.113 51.4394 116.113 52.2002V54.0936C116.113 54.0936 116.117 54.7089 115.413 54.7711C114.827 54.8246 114.184 54.8346 113.585 54.8346C110.931 54.8346 108.614 54.2477 108.614 51.2269V42.951C108.614 42.951 108.617 42.2747 107.913 42.2747H106.694C106.694 42.2747 105.995 42.2797 105.995 41.5996V40.1588C105.995 40.1588 105.995 39.485 106.694 39.485H107.915C108.614 39.485 108.614 38.8088 108.614 38.8088V35.6039C108.614 35.6039 108.616 34.9276 109.318 34.9276H112.242C112.946 34.9276 112.945 35.6052 112.945 35.6052ZM104.492 35.8326V37.5892H104.809V36.8955H105.068C105.191 36.8887 105.314 36.9086 105.428 36.9539C105.542 37.0186 105.602 37.154 105.602 37.3567V37.4984L105.608 37.5532C105.608 37.5594 105.613 37.5656 105.614 37.573C105.617 37.5767 105.617 37.5842 105.618 37.5892H105.92L105.91 37.5681C105.898 37.5405 105.892 37.511 105.892 37.481C105.888 37.4313 105.888 37.3853 105.888 37.348V37.2162C105.883 37.1178 105.848 37.0232 105.785 36.9452C105.75 36.8967 105.704 36.856 105.65 36.8261C105.597 36.796 105.538 36.7774 105.477 36.7712C105.569 36.7608 105.659 36.7307 105.738 36.6829C105.856 36.6133 105.92 36.5014 105.92 36.3398C105.92 36.1185 105.82 35.9731 105.634 35.8935C105.473 35.8453 105.305 35.8242 105.136 35.8314H104.494L104.492 35.8326ZM105.608 36.3697C105.608 36.5014 105.542 36.5959 105.416 36.6395C105.315 36.6696 105.209 36.6826 105.103 36.678H104.809V36.0526H105.09C105.27 36.0526 105.401 36.0725 105.483 36.1148C105.565 36.1608 105.608 36.2441 105.608 36.3697ZM106.828 36.7177C106.828 36.2752 106.666 35.8973 106.342 35.5839C106.187 35.4343 106.003 35.3163 105.8 35.2368C105.597 35.1574 105.38 35.1182 105.161 35.1215C104.703 35.1215 104.315 35.2769 103.991 35.5839C103.664 35.8973 103.503 36.2752 103.503 36.7165C103.503 37.1603 103.664 37.5382 103.985 37.8528C104.309 38.1672 104.701 38.3252 105.161 38.3252C105.623 38.3252 106.015 38.1672 106.343 37.8528C106.664 37.5357 106.827 37.1591 106.827 36.7165L106.828 36.7177ZM105.158 35.3402C105.556 35.3402 105.892 35.4758 106.175 35.7443C106.451 36.0116 106.594 36.336 106.594 36.7214C106.594 37.1031 106.451 37.4289 106.175 37.6999C106.043 37.8305 105.885 37.9338 105.71 38.0035C105.536 38.0732 105.348 38.1078 105.159 38.1052C104.761 38.1052 104.422 37.9684 104.144 37.6999C104.01 37.5724 103.905 37.4199 103.834 37.2518C103.762 37.0835 103.727 36.9032 103.731 36.7214C103.731 36.336 103.867 36.0116 104.146 35.7443C104.424 35.4758 104.762 35.3402 105.158 35.3402Z" fill="#777777"/>
</svg>
