<svg width="100" height="50" viewBox="0 0 100 50" fill="none" xmlns="http://www.w3.org/2000/svg">
<path fill-rule="evenodd" clip-rule="evenodd" d="M26.3384 6.69888L56.2255 6.72298C65.735 6.72298 75.038 11.6938 75.041 23.69C75.041 30.6642 70.9721 34.7703 68.5886 36.6261C67.8078 37.2347 66.9648 37.0991 66.3958 36.2285C65.338 34.6167 62.3457 32.303 53.7437 32.303L23.8535 32.2789C14.3442 32.2789 5.04102 27.3081 5.04102 15.3119C5.04102 8.33475 9.1129 4.23156 11.4933 2.37278C12.2744 1.76423 13.1171 1.90281 13.6861 2.77346C14.744 4.3852 17.7333 6.69888 26.3384 6.69888ZM51.2557 21.9065C51.0558 22.2319 50.9543 22.5031 50.9543 22.7139C50.9543 22.9489 51.0435 23.1537 51.2219 23.3285C51.3972 23.5002 51.6063 23.5876 51.8493 23.5876C52.04 23.5876 52.206 23.5394 52.3506 23.446C52.4951 23.3526 52.6058 23.2411 52.6766 23.1206L54.4357 20.2857H54.488L56.2441 23.1206C56.3148 23.2441 56.4255 23.3526 56.57 23.446C56.7146 23.5424 56.8807 23.5876 57.0683 23.5876C57.3081 23.5876 57.5204 23.5002 57.6957 23.3285C57.871 23.1537 57.9602 22.9489 57.9602 22.7139C57.9602 22.5031 57.8586 22.2349 57.6588 21.9065L55.5582 18.68L57.4497 15.7156C57.6496 15.3872 57.7511 15.1191 57.7511 14.9083C57.7511 14.6702 57.6619 14.4654 57.4865 14.2937C57.3112 14.122 57.0991 14.0346 56.8591 14.0346C56.6685 14.0346 56.5024 14.0828 56.3579 14.1792C56.2133 14.2756 56.1026 14.384 56.0318 14.5076L54.4818 17.0653H54.4296L52.8734 14.5076C52.8026 14.384 52.695 14.2756 52.5505 14.1792C52.409 14.0828 52.2429 14.0346 52.0553 14.0346C51.8154 14.0346 51.6063 14.1189 51.4248 14.2937C51.2465 14.4684 51.1573 14.6702 51.1573 14.9083C51.1573 15.1161 51.2588 15.3872 51.4587 15.7156L53.3562 18.68L51.2557 21.9065ZM58.6582 22.6716C58.6582 22.533 58.7044 22.3071 58.7997 21.9998L61.0786 15.0075C61.174 14.7243 61.3339 14.4954 61.5584 14.3206C61.7829 14.1489 62.0597 14.0615 62.3857 14.0615C62.7147 14.0615 62.9885 14.1489 63.213 14.3206C63.4375 14.4954 63.5943 14.7243 63.6897 15.0075L66.0392 22.0239C66.1285 22.3161 66.1743 22.539 66.1743 22.6927C66.1743 22.9307 66.0856 23.1355 65.91 23.3072C65.7351 23.4789 65.5226 23.5693 65.2827 23.5693C64.8276 23.5693 64.5078 23.2771 64.3232 22.6927L63.8988 21.4032H60.8787L60.5189 22.6716C60.3374 23.253 60.0145 23.5452 59.5593 23.5452C59.3164 23.5452 59.1072 23.4578 58.9289 23.2862C58.7443 23.1144 58.6582 22.9096 58.6582 22.6716ZM63.416 19.7192H61.3493L62.3457 16.2818H62.4256L63.416 19.7192ZM66.2516 14.568C66.8266 14.568 67.208 14.1854 67.208 13.61C67.208 13.0346 66.8266 12.652 66.2516 12.652C65.6825 12.652 65.2981 13.0346 65.2981 13.61C65.2981 14.1854 65.6795 14.568 66.2516 14.568ZM65.4701 13.61C65.4701 14.083 65.7839 14.3993 66.2516 14.3993C66.7222 14.3993 67.036 14.083 67.036 13.61C67.036 13.137 66.7222 12.8207 66.2516 12.8207C65.7839 12.8207 65.4701 13.137 65.4701 13.61ZM66.3071 13.125C66.5189 13.125 66.639 13.2334 66.639 13.4112C66.639 13.5407 66.5557 13.6251 66.4513 13.6552C66.4296 13.6642 66.4296 13.6673 66.4483 13.6793C66.5189 13.7214 66.5557 13.7727 66.5834 13.842L66.6788 14.0558C66.6884 14.0769 66.6788 14.089 66.6577 14.089H66.5315C66.5159 14.089 66.5038 14.08 66.4941 14.0649L66.4296 13.9083C66.3747 13.7877 66.3191 13.7305 66.1653 13.7305H66.079V14.0619C66.079 14.08 66.0699 14.092 66.0482 14.092H65.9287C65.91 14.092 65.898 14.083 65.898 14.0619V13.1521C65.898 13.134 65.91 13.1219 65.9287 13.1219H66.3071V13.125ZM66.2485 13.5739H66.0826V13.2907H66.3101C66.4024 13.2907 66.47 13.3298 66.47 13.4233C66.47 13.5226 66.3837 13.5739 66.2485 13.5739ZM50.0901 14.2998C50.2715 14.4504 50.376 14.6432 50.3976 14.8722C50.416 15.0861 50.3607 15.3241 50.2377 15.5862L47.2883 21.9338C47.1007 22.3645 46.8424 22.7381 46.5163 23.0363C46.3073 23.2322 45.7598 23.5576 45.031 23.5576C44.7203 23.5576 43.7669 23.5576 43.5548 22.8767C43.487 22.6568 43.5117 22.4338 43.6286 22.229C43.7454 22.0272 43.9945 21.7831 44.5235 21.7831L44.9479 21.7952C45.1262 21.7891 45.2739 21.7469 45.3723 21.6717C45.4953 21.5783 45.603 21.4276 45.6891 21.2198L45.9658 20.5901L43.487 15.5862C43.3579 15.3241 43.3025 15.0861 43.321 14.8722C43.3425 14.6432 43.4471 14.4504 43.6316 14.2998C43.8131 14.1492 44.0252 14.0829 44.259 14.104C44.4958 14.1251 44.8249 14.2486 45.0432 14.7216L46.9223 18.6048L48.6753 14.7246C48.8937 14.2486 49.2228 14.1251 49.4595 14.104C49.6964 14.0829 49.9055 14.1492 50.0901 14.2998ZM36.2998 22.6656V14.9775C36.2998 14.7064 36.3797 14.4895 36.5427 14.3328C36.7027 14.1762 36.921 14.0978 37.1916 14.0978H39.3199C40.3409 14.0978 41.1805 14.4081 41.8417 15.0287C42.4999 15.6493 42.832 16.4145 42.832 17.3334C42.832 18.2492 42.4999 19.0174 41.8417 19.635C41.1805 20.2526 40.3409 20.5629 39.3199 20.5629H38.0866V22.6717C38.0866 22.9398 38.0066 23.1507 37.8436 23.3104C37.6837 23.467 37.4654 23.5454 37.1916 23.5454C36.921 23.5454 36.7027 23.467 36.5427 23.3104C36.3828 23.1447 36.2998 22.9338 36.2998 22.6656ZM39.3199 18.9451H38.0866V15.7096H39.3199C39.8396 15.7096 40.2425 15.8541 40.5347 16.1373C40.8268 16.4236 40.9714 16.8182 40.9714 17.3273C40.9714 17.8364 40.8268 18.2311 40.5347 18.5173C40.2456 18.8035 39.8396 18.9451 39.3199 18.9451ZM28.6604 14.9028C28.6604 15.1408 28.7373 15.3336 28.8911 15.4843C29.0448 15.6379 29.2416 15.7132 29.4846 15.7132H31.2038V22.6874C31.2038 22.9525 31.2837 23.1634 31.4437 23.3231C31.6005 23.4797 31.8189 23.5581 32.0957 23.5581C32.3724 23.5581 32.5908 23.4797 32.7507 23.3231C32.9106 23.1664 32.9906 22.9525 32.9906 22.6874V15.7132H34.7067C34.9497 15.7132 35.1465 15.6379 35.3002 15.4843C35.4571 15.3336 35.534 15.1378 35.534 14.9028C35.534 14.6678 35.4571 14.472 35.3002 14.3214C35.1465 14.1708 34.9497 14.0955 34.7067 14.0955H29.4846C29.2447 14.0955 29.0448 14.1708 28.8911 14.3214C28.7373 14.472 28.6604 14.6648 28.6604 14.9028ZM20.2399 14.3393C20.0799 14.1827 19.8616 14.1013 19.5848 14.1013H14.7041C14.4304 14.1013 14.2151 14.1797 14.0551 14.3393C13.8952 14.496 13.8121 14.7099 13.8121 14.975V22.6873C13.8121 22.9554 13.8952 23.1662 14.0551 23.3259C14.2151 23.4826 14.4334 23.5639 14.7041 23.5639C14.9778 23.5639 15.1961 23.4856 15.3561 23.3259C15.516 23.1662 15.5959 22.9554 15.5959 22.6873V15.7131H18.6898V22.6873C18.6898 22.9554 18.7698 23.1662 18.9266 23.3259C19.0865 23.4826 19.3018 23.5639 19.5817 23.5639C19.8585 23.5639 20.0768 23.4856 20.2368 23.3259C20.3967 23.1662 20.4766 22.9554 20.4766 22.6873V14.975C20.4766 14.7099 20.3967 14.496 20.2399 14.3393ZM22.085 14.9775V22.6476C22.085 22.9127 22.165 23.1266 22.3249 23.2803C22.4879 23.4399 22.7063 23.5182 22.9769 23.5182H27.2518C27.4947 23.5182 27.6916 23.4429 27.8454 23.2923C27.9991 23.1417 28.076 22.9459 28.076 22.7108C28.076 22.4729 27.9991 22.2801 27.8454 22.1294C27.6916 21.9788 27.4916 21.9035 27.2518 21.9035H23.8719V19.6169H26.4153C26.6582 19.6169 26.855 19.5416 27.0088 19.3909C27.1626 19.2403 27.2395 19.0475 27.2395 18.8095C27.2395 18.5745 27.1626 18.3787 27.0088 18.2281C26.855 18.0774 26.6582 18.0022 26.4153 18.0022H23.8719V15.7156H27.1164C27.3564 15.7156 27.5563 15.6403 27.71 15.4866C27.8638 15.336 27.9407 15.1401 27.9407 14.9052C27.9407 14.6702 27.8638 14.4744 27.71 14.3238C27.5563 14.1732 27.3564 14.0978 27.1164 14.0978H22.9769C22.7032 14.0978 22.4879 14.1762 22.3249 14.3328C22.165 14.4895 22.085 14.7064 22.085 14.9775Z" fill="#999999"/>
</svg>
