<svg width="150" height="75" viewBox="0 0 150 75" fill="none" xmlns="http://www.w3.org/2000/svg">
<path fill-rule="evenodd" clip-rule="evenodd" d="M39.5077 10.0483L84.3383 10.0845C98.6026 10.0845 112.557 17.5407 112.562 35.535C112.562 45.9963 106.458 52.1555 102.883 54.9392C101.712 55.852 100.447 55.6486 99.5937 54.3427C98.0071 51.9251 93.5185 48.4545 80.6155 48.4545L35.7802 48.4184C21.5163 48.4184 7.56152 40.9622 7.56152 22.9679C7.56152 12.5021 13.6693 6.34734 17.2399 3.55917C18.4116 2.64635 19.6756 2.85422 20.5291 4.16018C22.1161 6.5778 26.6 10.0483 39.5077 10.0483ZM76.8835 32.8598C76.5837 33.3478 76.4314 33.7546 76.4314 34.0709C76.4314 34.4233 76.5652 34.7306 76.8328 34.9927C77.0958 35.2503 77.4094 35.3814 77.7739 35.3814C78.0599 35.3814 78.309 35.3091 78.5258 35.169C78.7427 35.0288 78.9087 34.8617 79.0149 34.6809L81.6536 30.4286H81.732L84.3661 34.6809C84.4722 34.8662 84.6383 35.0288 84.8551 35.169C85.0719 35.3136 85.321 35.3814 85.6024 35.3814C85.9622 35.3814 86.2806 35.2503 86.5435 34.9927C86.8064 34.7306 86.9402 34.4233 86.9402 34.0709C86.9402 33.7546 86.788 33.3523 86.4882 32.8598L83.3373 28.02L86.1745 23.5735C86.4743 23.0808 86.6266 22.6787 86.6266 22.3624C86.6266 22.0054 86.4928 21.6981 86.2298 21.4406C85.9668 21.183 85.6486 21.0519 85.2887 21.0519C85.0027 21.0519 84.7536 21.1242 84.5368 21.2688C84.3199 21.4134 84.1538 21.5761 84.0478 21.7614L81.7228 25.5979H81.6444L79.3101 21.7614C79.2039 21.5761 79.0425 21.4134 78.8257 21.2688C78.6135 21.1242 78.3643 21.0519 78.0829 21.0519C77.7231 21.0519 77.4094 21.1784 77.1373 21.4406C76.8697 21.7026 76.7359 22.0054 76.7359 22.3624C76.7359 22.6742 76.8882 23.0808 77.188 23.5735L80.0343 28.02L76.8835 32.8598ZM87.9873 34.0073C87.9873 33.7995 88.0566 33.4606 88.1996 32.9996L91.6179 22.5112C91.7609 22.0865 92.0008 21.743 92.3376 21.481C92.6743 21.2234 93.0895 21.0923 93.5785 21.0923C94.0721 21.0923 94.4827 21.2234 94.8195 21.481C95.1562 21.743 95.3915 22.0865 95.5345 22.5112L99.0588 33.0358C99.1927 33.4741 99.2615 33.8085 99.2615 34.039C99.2615 34.396 99.1285 34.7033 98.8651 34.9608C98.6026 35.2184 98.284 35.354 97.9241 35.354C97.2413 35.354 96.7616 34.9157 96.4848 34.039L95.8482 32.1049H91.3181L90.7783 34.0073C90.5062 34.8795 90.0218 35.3178 89.339 35.3178C88.9746 35.3178 88.6609 35.1867 88.3933 34.9292C88.1165 34.6717 87.9873 34.3644 87.9873 34.0073ZM95.124 29.5788H92.0239L93.5185 24.4227H93.6385L95.124 29.5788ZM99.3773 21.852C100.24 21.852 100.812 21.2781 100.812 20.415C100.812 19.5519 100.24 18.978 99.3773 18.978C98.5238 18.978 97.9471 19.5519 97.9471 20.415C97.9471 21.2781 98.5193 21.852 99.3773 21.852ZM98.2052 20.415C98.2052 21.1245 98.6759 21.5989 99.3773 21.5989C100.083 21.5989 100.554 21.1245 100.554 20.415C100.554 19.7056 100.083 19.231 99.3773 19.231C98.6759 19.231 98.2052 19.7056 98.2052 20.415ZM99.4606 19.6875C99.7783 19.6875 99.9584 19.8501 99.9584 20.1168C99.9584 20.3111 99.8335 20.4376 99.6769 20.4828C99.6444 20.4963 99.6443 20.5009 99.6724 20.519C99.7783 20.5822 99.8335 20.659 99.8752 20.763L100.018 21.0838C100.033 21.1154 100.018 21.1335 99.9865 21.1335H99.7973C99.7738 21.1335 99.7557 21.12 99.7412 21.0973L99.6443 20.8624C99.562 20.6816 99.4787 20.5957 99.2479 20.5957H99.1185V21.0929C99.1185 21.12 99.1049 21.1381 99.0723 21.1381H98.8931C98.865 21.1381 98.8469 21.1245 98.8469 21.0929V19.7281C98.8469 19.701 98.865 19.6829 98.8931 19.6829H99.4606V19.6875ZM99.3728 20.3608H99.1239V19.936H99.4651C99.6036 19.936 99.705 19.9947 99.705 20.1349C99.705 20.2839 99.5756 20.3608 99.3728 20.3608ZM75.1351 21.4497C75.4073 21.6756 75.564 21.9648 75.5963 22.3083C75.624 22.6292 75.541 22.9861 75.3565 23.3793L70.9325 32.9007C70.6511 33.5468 70.2636 34.1071 69.7745 34.5545C69.4609 34.8482 68.6398 35.3364 67.5464 35.3364C67.0805 35.3364 65.6504 35.3364 65.3321 34.315C65.2306 33.9851 65.2675 33.6508 65.4428 33.3435C65.6181 33.0407 65.9918 32.6747 66.7852 32.6747L67.4218 32.6928C67.6894 32.6837 67.9109 32.6204 68.0585 32.5075C68.2429 32.3674 68.4044 32.1415 68.5336 31.8297L68.9488 30.8852L65.2306 23.3793C65.0369 22.9861 64.9538 22.6292 64.9815 22.3083C65.0138 21.9648 65.1706 21.6756 65.4474 21.4497C65.7196 21.2237 66.0379 21.1244 66.3885 21.1559C66.7437 21.1876 67.2373 21.3729 67.5648 22.0824L70.3835 27.9072L73.013 22.0868C73.3406 21.3729 73.8341 21.1876 74.1893 21.1559C74.5446 21.1244 74.8583 21.2237 75.1351 21.4497ZM54.4497 33.9985V22.4662C54.4497 22.0596 54.5696 21.7342 54.8141 21.4992C55.054 21.2642 55.3815 21.1467 55.7875 21.1467H58.9798C60.5114 21.1467 61.7708 21.6122 62.7626 22.5431C63.7498 23.474 64.248 24.6218 64.248 26.0001C64.248 27.3738 63.7498 28.5261 62.7626 29.4524C61.7708 30.3789 60.5114 30.8443 58.9798 30.8443H57.1299V34.0076C57.1299 34.4097 57.0099 34.726 56.7655 34.9655C56.5256 35.2005 56.198 35.3181 55.7875 35.3181C55.3815 35.3181 55.054 35.2005 54.8141 34.9655C54.5742 34.717 54.4497 34.4007 54.4497 33.9985ZM58.9798 28.4177H57.1299V23.5643H58.9798C59.7594 23.5643 60.3637 23.7812 60.802 24.206C61.2403 24.6353 61.457 25.2273 61.457 25.991C61.457 26.7547 61.2403 27.3467 60.802 27.7759C60.3684 28.2052 59.7594 28.4177 58.9798 28.4177ZM42.9906 22.3543C42.9906 22.7112 43.106 23.0004 43.3366 23.2264C43.5672 23.4568 43.8625 23.5698 44.2269 23.5698H46.8057V34.0311C46.8057 34.4288 46.9256 34.7451 47.1655 34.9846C47.4007 35.2196 47.7283 35.3371 48.1435 35.3371C48.5587 35.3371 48.8862 35.2196 49.1261 34.9846C49.366 34.7496 49.4859 34.4288 49.4859 34.0311V23.5698H52.0601C52.4245 23.5698 52.7197 23.4568 52.9504 23.2264C53.1857 23.0004 53.301 22.7067 53.301 22.3543C53.301 22.0017 53.1857 21.708 52.9504 21.4821C52.7197 21.2561 52.4245 21.1432 52.0601 21.1432H44.2269C43.8671 21.1432 43.5672 21.2561 43.3366 21.4821C43.106 21.708 42.9906 21.9972 42.9906 22.3543ZM30.3598 21.509C30.1198 21.274 29.7924 21.152 29.3772 21.152H22.0561C21.6455 21.152 21.3226 21.2695 21.0827 21.509C20.8429 21.7439 20.7182 22.0648 20.7182 22.4625V34.0309C20.7182 34.433 20.8429 34.7493 21.0827 34.9889C21.3226 35.2239 21.6501 35.3459 22.0561 35.3459C22.4667 35.3459 22.7941 35.2284 23.0341 34.9889C23.274 34.7493 23.3939 34.433 23.3939 34.0309V23.5696H28.0347V34.0309C28.0347 34.433 28.1547 34.7493 28.39 34.9889C28.6298 35.2239 28.9528 35.3459 29.3726 35.3459C29.7877 35.3459 30.1152 35.2284 30.3552 34.9889C30.595 34.7493 30.715 34.433 30.715 34.0309V22.4625C30.715 22.0648 30.595 21.7439 30.3598 21.509ZM33.1276 22.4662V33.9714C33.1276 34.3691 33.2475 34.6899 33.4874 34.9204C33.7319 35.1598 34.0594 35.2773 34.4654 35.2773H40.8777C41.2421 35.2773 41.5373 35.1644 41.7681 34.9385C41.9987 34.7125 42.114 34.4188 42.114 34.0663C42.114 33.7093 41.9987 33.4201 41.7681 33.1942C41.5373 32.9682 41.2375 32.8552 40.8777 32.8552H35.8078V29.4254H39.6229C39.9873 29.4254 40.2826 29.3124 40.5133 29.0864C40.7439 28.8605 40.8592 28.5712 40.8592 28.2143C40.8592 27.8618 40.7439 27.5681 40.5133 27.3421C40.2826 27.1162 39.9873 27.0032 39.6229 27.0032H35.8078V23.5733H40.6747C41.0345 23.5733 41.3344 23.4604 41.565 23.2299C41.7957 23.0039 41.911 22.7102 41.911 22.3578C41.911 22.0053 41.7957 21.7116 41.565 21.4857C41.3344 21.2597 41.0345 21.1467 40.6747 21.1467H34.4654C34.0548 21.1467 33.7319 21.2642 33.4874 21.4992C33.2475 21.7342 33.1276 22.0596 33.1276 22.4662Z" fill="#999999"/>
</svg>
