<svg width="71" height="40" viewBox="0 0 71 40" fill="none" xmlns="http://www.w3.org/2000/svg">
<path d="M70.9581 4.92188C70.9581 4.92188 70.6513 6.1342 70.5199 6.54318C70.3884 6.95216 70.0525 7.69708 69.2491 7.87236C68.4312 8.04764 65.7144 8.61729 65.7144 8.61729C65.7144 8.61729 66.0503 7.44878 66.2402 6.77688C66.4301 6.10499 67.0143 5.75444 67.7301 5.59377C68.0076 5.53534 70.9581 4.92188 70.9581 4.92188Z" fill="#999999"/>
<path d="M14.6356 20.1115C14.7963 20.5204 15.0154 20.8856 15.2783 21.1777C16.6221 22.6384 17.9367 22.9451 20.8434 22.0833C20.9164 22.0541 22.3771 21.4552 22.5523 21.353C21.6759 20.053 21.7636 18.607 21.7636 18.607C20.4782 19.6441 19.2513 18.9283 18.9445 18.0227C18.0974 15.5835 19.9816 12.8959 21.5883 12.6184C22.7276 12.4139 23.122 13.2465 23.122 13.2465L24.8309 10.3106C23.9545 9.60948 22.4939 9.56566 21.3108 9.74093C18.1266 10.1937 16.6075 11.9611 15.5412 13.8161C15.0446 14.6925 14.6941 15.5981 14.4896 16.4745C14.3143 16.0363 13.8177 15.043 11.9919 14.3858C10.1807 13.7139 9.62564 13.0566 9.49418 12.1948C9.37733 11.3768 9.7717 10.3252 10.8672 9.98924C13.8761 9.08365 13.9345 12.8959 17.9659 9.37577C16.5053 7.49155 12.5323 6.64438 8.73465 8.32412C6.10549 9.49263 3.4033 12.2094 3.89992 15.1745C4.38193 17.2924 6.41222 17.9059 7.46389 18.4609C8.55937 19.0452 9.50879 20.6081 8.01893 22.1856C7.0403 23.2226 4.83473 23.617 2.97971 21.9665L0 24.6832C0 24.6832 2.68758 26.1147 6.44144 25.7349C12.7222 25.0922 14.2705 21.0901 14.6356 20.1115Z" fill="#999999"/>
<path d="M23.3704 15.5409C22.4063 19.1195 22.6108 22.3475 27.6208 21.1644C28.5264 20.9891 30.6882 20.5071 32.6893 18.5645C34.5443 16.7533 35.2892 14.4893 35.6105 13.2623C35.9757 11.9186 36.1364 10.7208 35.9611 9.75681C35.6251 7.87259 34.1061 7.15688 31.4623 7.6681C30.6298 7.82877 28.4096 8.29618 26.3939 10.195C25.3276 11.2028 23.9984 13.1455 23.3557 15.5409H23.3704ZM28.0736 17.1915C28.1613 16.3589 28.4242 15.4095 28.6725 14.4893C28.9062 13.6421 29.3736 11.977 29.8702 11.2905C30.0455 11.086 30.2062 10.9253 30.4545 10.8669C30.6736 10.8231 30.9073 10.9837 30.8781 11.568C30.8488 12.2253 30.4691 13.7444 30.2792 14.4162C30.0601 15.1904 29.5343 16.9724 29.1399 17.5128C28.7601 18.0386 28.2781 18.0094 28.1321 17.7319C28.0444 17.5712 28.0444 17.3229 28.059 17.1915H28.0736Z" fill="#999999"/>
<path d="M35.9024 18.2297C36.5158 19.2667 38.3562 18.9892 39.0427 18.8578C40.3135 18.6094 41.0876 18.3027 41.4382 18.142L41.4966 18.1128L41.6719 18.0106L42.5775 14.7241C42.5775 14.7241 41.9202 15.0163 41.6427 15.0747C41.2045 15.1623 40.8539 14.7534 41.1169 13.8478C41.6135 12.1242 42.4753 9.05688 42.4753 9.05688L43.4247 8.867C44.5055 6.19403 46.4628 5.06934 46.4628 5.06934L43.4101 5.63899L44.0966 3.375L39.0573 4.39745L38.4147 6.61761L37.3338 6.83671L36.399 10.2546L37.5529 10.0063C37.5529 10.0063 36.545 13.6141 36.2529 14.7534C35.9608 15.8927 35.4203 17.4263 35.9024 18.2443V18.2297Z" fill="#999999"/>
<path d="M36.8083 22.6694C36.7206 23.0199 36.3555 24.5098 36.3555 24.5098L41.307 23.5165L42.052 20.7852C42.052 20.7852 39.1015 21.3694 38.1521 21.5593C37.188 21.7492 36.9105 22.3042 36.8229 22.6694H36.8083Z" fill="#999999"/>
<path d="M44.7982 7.93164C43.0308 10.59 42.5488 14.5045 43.9218 16.009C45.3094 17.4988 47.2228 17.3527 50.261 16.4325L51.1812 12.8978C49.4722 14.0225 48.2014 13.3798 47.8801 12.445C47.5003 11.2765 48.3475 8.96869 49.8082 7.88782C51.3126 6.79234 52.3497 7.58108 52.5834 7.88782L53.7081 3.82725C52.9924 3.73961 52.1452 3.68119 51.1812 3.82725C47.997 4.33847 45.9375 6.17887 44.7835 7.93164H44.7982Z" fill="#999999"/>
<path d="M59.2291 17.3369C58.5718 17.1909 57.7976 17.2201 56.9505 17.3807C53.8101 17.9942 50.7866 20.3604 49.1944 25.3412C48.7855 26.6412 48.2742 30.3804 51.5023 30.9647C56.6291 31.8849 60.1785 25.7794 60.0032 25.6626C59.9302 25.6187 59.8279 25.7064 59.8279 25.7064C56.6437 28.8175 52.7438 29.0074 53.8393 25.5603L60.1055 24.348C60.1055 24.348 60.5583 22.9166 60.6897 22.4199C61.2594 20.3604 61.6099 17.892 59.2145 17.3369H59.2291ZM56.892 23.0772L54.3067 23.5446C54.4382 23.1064 54.6719 22.493 54.9932 21.9233C55.4022 21.2076 55.8842 20.7402 56.4538 20.638C56.9943 20.5357 57.2134 20.7986 57.2134 21.3829C57.2134 21.8795 57.0527 22.5076 56.9066 23.0772H56.892Z" fill="#999999"/>
<path d="M65.5684 3.88529C65.6998 3.05273 65.6414 2.54151 65.3493 2.10332C64.8088 1.34379 63.7718 1.47524 63.2752 1.57749C61.8291 1.85501 60.4123 2.87745 59.5359 3.60777C59.7696 2.73139 60.5584 0 60.5584 0L55.3877 1.08087L51.3125 16.1839C51.3125 16.1839 51.7653 16.14 52.2327 16.0232C56.2057 15.1906 56.7461 13.5401 57.1259 12.5323C57.5056 11.5244 58.9809 5.90097 58.9809 5.90097C59.2584 5.63806 59.5505 5.40436 59.7842 5.34593C60.0179 5.30211 60.2809 5.43357 60.2078 5.78412C60.0471 6.60208 59.0685 10.2245 58.6011 12.0503C58.1921 13.5985 58.718 14.694 60.0179 14.3873C61.3179 14.0951 64.765 13.3648 64.765 13.3648C64.765 13.3648 63.1875 12.6053 63.5965 11.1447C64.356 8.38406 65.4953 4.33809 65.5684 3.87069V3.88529Z" fill="#999999"/>
<path d="M46.7697 27.7518C47.0473 26.7878 48.1281 22.9901 48.1281 22.9901C48.1281 22.9901 48.8292 22.8441 49.4573 22.698C50.3921 20.4048 52.1011 18.9149 52.1011 18.9149L49.0483 19.47L49.6618 17.5273L44.5495 18.6082L44.0383 20.4486L42.8552 20.6677L41.935 24.144L43.1912 23.8957C43.1912 23.8957 42.1833 27.5765 41.862 28.5844C41.5406 29.5922 41.0878 31.4326 41.5406 32.1775C42.1833 33.2 43.9653 32.8348 44.6518 32.7034C45.9226 32.4551 46.6967 32.1483 47.0472 31.9876L47.1057 31.9584L47.281 31.8562L48.1866 28.5698C48.1866 28.5698 47.6753 28.8327 47.2517 28.9057C46.8136 28.9787 46.4338 28.8181 46.7405 27.7518H46.7697Z" fill="#999999"/>
<path d="M33.6533 34.603C33.6533 34.603 35.0263 34.4131 35.0994 34.3985C37.8308 34.0188 38.7948 33.157 39.2476 31.3604L41.0296 24.5977L36.078 25.5909L33.6533 34.603Z" fill="#999999"/>
<path d="M23.9107 30.5272C23.5748 30.3665 23.195 30.2643 22.7714 30.2496C24.2613 29.4025 25.941 28.0733 26.2039 26.2037C26.4961 24.115 24.422 22.9026 21.8366 22.7566C20.0692 22.6543 18.6086 22.9173 17.5131 23.297C12.8683 24.8745 12.766 27.8688 13.0728 27.6643C15.2929 26.2475 16.9435 25.9116 17.776 25.7363C18.667 25.561 21.5883 25.079 20.858 27.9272C20.5659 29.0373 19.5142 30.0306 18.258 30.089L19.1928 26.7003C15.8042 26.7003 13.7008 28.4092 13.7008 28.4092L10.356 39.8606C11.7144 40.0505 13.9637 40.1236 16.7682 39.5685C20.1861 38.8966 22.9905 37.7865 24.5388 34.0181C25.0208 32.835 25.1377 31.1698 23.9253 30.5126L23.9107 30.5272ZM18.9445 34.763C18.3749 37.9034 15.8772 37.8304 15.8772 37.8304L17.2502 33.1563C18.4333 32.8934 19.1636 33.5361 18.9445 34.7484V34.763Z" fill="#999999"/>
<path d="M35.0118 26.7287L36.268 21.9816C36.268 21.9816 35.8444 21.8648 35.2894 21.9816C34.0624 22.2591 33.113 23.1063 32.4849 24.5231L33.0254 22.4344L30.5277 22.931C30.5277 22.931 28.0592 23.4715 27.6064 25.1074C27.1536 26.7433 24.5244 36.5588 24.5244 36.5588C24.5244 36.5588 25.8828 36.3835 25.9558 36.3689C28.6872 35.9891 29.6221 35.1127 30.1187 33.3162L31.2142 29.1387C31.4917 28.1309 31.7984 27.4152 32.5287 26.8601C33.7265 25.9546 35.0264 26.7141 35.0264 26.7141L35.0118 26.7287Z" fill="#999999"/>
</svg>
