<svg width="107" height="60" viewBox="0 0 107 60" fill="none" xmlns="http://www.w3.org/2000/svg">
<path d="M106.437 7.38281C106.437 7.38281 105.977 9.2013 105.78 9.81477C105.583 10.4282 105.079 11.5456 103.874 11.8085C102.647 12.0715 98.5718 12.9259 98.5718 12.9259C98.5718 12.9259 99.0757 11.1732 99.3605 10.1653C99.6454 9.15749 100.522 8.63166 101.595 8.39065C102.012 8.30301 106.437 7.38281 106.437 7.38281Z" fill="#999999"/>
<path d="M21.9535 30.1672C22.1945 30.7807 22.5231 31.3284 22.9175 31.7666C24.9332 33.9575 26.9051 34.4176 31.2651 33.125C31.3746 33.0812 33.5656 32.1829 33.8285 32.0295C32.5139 30.0795 32.6454 27.9105 32.6454 27.9105C30.7173 29.4661 28.8769 28.3925 28.4168 27.0341C27.1461 23.3752 29.9724 19.3439 32.3825 18.9276C34.0914 18.6208 34.683 19.8697 34.683 19.8697L37.2464 15.4659C35.9318 14.4142 33.7409 14.3485 31.9662 14.6114C27.1899 15.2906 24.9113 17.9417 23.3119 20.7242C22.5669 22.0387 22.0411 23.3971 21.7344 24.7117C21.4715 24.0544 20.7265 22.5646 17.9878 21.5786C15.271 20.5708 14.4385 19.5849 14.2413 18.2922C14.066 17.0653 14.6576 15.4878 16.3008 14.9839C20.8142 13.6255 20.9018 19.3439 26.9489 14.0637C24.7579 11.2373 18.7985 9.96658 13.102 12.4862C9.15824 14.2389 5.10495 18.3141 5.84988 22.7618C6.5729 25.9386 9.61834 26.8588 11.1958 27.6914C12.8391 28.5678 14.2632 30.9121 12.0284 33.2783C10.5605 34.8339 7.2521 35.4255 4.46957 32.9497L0 37.0249C0 37.0249 4.03138 39.172 9.66216 38.6024C19.0833 37.6383 21.4057 31.6351 21.9535 30.1672Z" fill="#999999"/>
<path d="M35.0555 23.3114C33.6095 28.6792 33.9162 33.5213 41.4312 31.7466C42.7896 31.4837 46.0323 30.7607 49.0339 27.8467C51.8164 25.1299 52.9338 21.7339 53.4158 19.8935C53.9636 17.8778 54.2046 16.0813 53.9416 14.6352C53.4377 11.8089 51.1591 10.7353 47.1935 11.5022C45.9446 11.7432 42.6144 12.4443 39.5908 15.2925C37.9914 16.8043 35.9976 19.7182 35.0336 23.3114H35.0555ZM42.1104 25.7872C42.2419 24.5383 42.6363 23.1142 43.0087 21.7339C43.3593 20.4632 44.0604 17.9655 44.8053 16.9357C45.0682 16.629 45.3092 16.388 45.6817 16.3003C46.0104 16.2346 46.3609 16.4756 46.3171 17.352C46.2733 18.3379 45.7036 20.6165 45.4188 21.6244C45.0901 22.7856 44.3014 25.4585 43.7098 26.2692C43.1402 27.0579 42.4172 27.0141 42.1981 26.5978C42.0666 26.3568 42.0666 25.9844 42.0885 25.7872H42.1104Z" fill="#999999"/>
<path d="M53.8535 27.3445C54.7737 28.9001 57.5344 28.4838 58.5641 28.2866C60.4703 27.9142 61.6315 27.4541 62.1573 27.2131L62.2449 27.1692L62.5078 27.0159L63.8663 22.0862C63.8663 22.0862 62.8803 22.5244 62.464 22.6121C61.8067 22.7435 61.2809 22.13 61.6753 20.7717C62.4202 18.1863 63.7129 13.5853 63.7129 13.5853L65.137 13.3005C66.7583 9.29104 69.6942 7.60401 69.6942 7.60401L65.1151 8.45848L66.1449 5.0625L58.586 6.59617L57.622 9.92642L56.0007 10.2551L54.5985 15.3819L56.3293 15.0094C56.3293 15.0094 54.8176 20.4211 54.3794 22.13C53.9412 23.839 53.1305 26.1395 53.8535 27.3664V27.3445Z" fill="#999999"/>
<path d="M55.2124 34.0041C55.0809 34.5299 54.5332 36.7647 54.5332 36.7647L61.9606 35.2748L63.078 31.1777C63.078 31.1777 58.6522 32.0541 57.2281 32.3389C55.7821 32.6238 55.3658 33.4563 55.2343 34.0041H55.2124Z" fill="#999999"/>
<path d="M67.1972 11.8975C64.5462 15.885 63.8231 21.7568 65.8826 24.0134C67.9641 26.2482 70.8342 26.0291 75.3914 24.6488L76.7717 19.3467C74.2083 21.0337 72.3022 20.0697 71.8202 18.6675C71.2505 16.9147 72.5213 13.453 74.7122 11.8317C76.9689 10.1885 78.5245 11.3716 78.8751 11.8317L80.5621 5.74087C79.4885 5.60942 78.2178 5.52178 76.7717 5.74087C71.9954 6.50771 68.9062 9.26831 67.1753 11.8975H67.1972Z" fill="#999999"/>
<path d="M88.8438 26.0054C87.8579 25.7863 86.6967 25.8301 85.4259 26.0711C80.7154 26.9913 76.1801 30.5407 73.7919 38.0118C73.1784 39.9618 72.4116 45.5706 77.2536 46.447C84.9439 47.8273 90.268 38.6691 90.0051 38.4938C89.8955 38.4281 89.7421 38.5596 89.7421 38.5596C84.9658 43.2263 79.116 43.5111 80.7592 38.3405L90.1584 36.522C90.1584 36.522 90.8376 34.3748 91.0348 33.6299C91.8893 30.5407 92.4151 26.8379 88.8219 26.0054H88.8438ZM85.3383 34.6158L81.4603 35.3169C81.6575 34.6597 82.008 33.7395 82.4901 32.885C83.1035 31.8114 83.8265 31.1103 84.681 30.9569C85.4917 30.8036 85.8203 31.198 85.8203 32.0743C85.8203 32.8193 85.5793 33.7614 85.3602 34.6158H85.3383Z" fill="#999999"/>
<path d="M98.3526 5.82794C98.5498 4.5791 98.4621 3.81226 98.0239 3.15498C97.2133 2.01568 95.6577 2.21286 94.9128 2.36623C92.7437 2.78251 90.6185 4.31618 89.3039 5.41166C89.6544 4.09709 90.8376 0 90.8376 0L83.0815 1.62131L76.9688 24.2758C76.9688 24.2758 77.648 24.2101 78.3491 24.0348C84.3085 22.7859 85.1191 20.3102 85.6888 18.7984C86.2584 17.2866 88.4713 8.85146 88.4713 8.85146C88.8876 8.45709 89.3258 8.10654 89.6763 8.0189C90.0269 7.95317 90.4213 8.15035 90.3117 8.67618C90.0707 9.90312 88.6028 15.3367 87.9017 18.0754C87.2882 20.3978 88.0769 22.041 90.0269 21.5809C91.9769 21.1427 97.1475 20.0472 97.1475 20.0472C97.1475 20.0472 94.7813 18.9079 95.3948 16.717C96.5341 12.5761 98.243 6.50714 98.3526 5.80603V5.82794Z" fill="#999999"/>
<path d="M70.1546 41.6277C70.5709 40.1817 72.1922 34.4852 72.1922 34.4852C72.1922 34.4852 73.2439 34.2661 74.186 34.047C75.5882 30.6072 78.1516 28.3724 78.1516 28.3724L73.5725 29.205L74.4927 26.291L66.8243 27.9123L66.0575 30.6729L64.2828 31.0016L62.9025 36.216L64.7867 35.8436C64.7867 35.8436 63.275 41.3648 62.7929 42.8765C62.3109 44.3883 61.6317 47.1489 62.3109 48.2663C63.275 49.8 65.9479 49.2522 66.9777 49.055C68.8838 48.6826 70.045 48.2225 70.5709 47.9815L70.6585 47.9377L70.9214 47.7843L72.2798 42.8546C72.2798 42.8546 71.513 43.249 70.8776 43.3586C70.2203 43.4681 69.6507 43.2271 70.1108 41.6277H70.1546Z" fill="#999999"/>
<path d="M50.48 51.9045C50.48 51.9045 52.5395 51.6197 52.649 51.5978C56.7461 51.0281 58.1922 49.7355 58.8714 47.0406L61.5444 36.8965L54.117 38.3863L50.48 51.9045Z" fill="#999999"/>
<path d="M35.8658 45.7908C35.3619 45.5497 34.7923 45.3964 34.1569 45.3745C36.3917 44.1037 38.9113 42.1099 39.3057 39.3055C39.7439 36.1725 36.6327 34.354 32.7547 34.1349C30.1036 33.9815 27.9126 34.3759 26.2694 34.9455C19.3022 37.3118 19.1488 41.8032 19.6089 41.4965C22.9392 39.3713 25.4149 38.8673 26.6638 38.6044C28.0003 38.3415 32.3822 37.6185 31.2867 41.8909C30.8485 43.556 29.271 45.0458 27.3868 45.1335L28.789 40.0504C23.706 40.0504 20.551 42.6139 20.551 42.6139L15.5337 59.791C17.5713 60.0758 20.9454 60.1853 25.152 59.3528C30.2789 58.3449 34.4855 56.6798 36.808 51.0271C37.531 49.2525 37.7063 46.7548 35.8878 45.7688L35.8658 45.7908ZM28.4166 52.1445C27.5621 56.8551 23.8155 56.7455 23.8155 56.7455L25.875 49.7345C27.6497 49.3401 28.7452 50.3041 28.4166 52.1226V52.1445Z" fill="#999999"/>
<path d="M52.5178 40.093L54.402 32.9724C54.402 32.9724 53.7666 32.7972 52.934 32.9724C51.0936 33.3887 49.6695 34.6595 48.7274 36.7847L49.538 33.6516L45.7915 34.3966C45.7915 34.3966 42.0888 35.2072 41.4096 37.6611C40.7304 40.1149 36.7866 54.8382 36.7866 54.8382C36.7866 54.8382 38.8242 54.5753 38.9338 54.5533C43.0309 53.9837 44.4331 52.6691 45.178 49.9742L46.8212 43.7081C47.2375 42.1964 47.6976 41.1228 48.7931 40.2902C50.5897 38.9318 52.5397 40.0711 52.5397 40.0711L52.5178 40.093Z" fill="#999999"/>
</svg>
