<svg width="126" height="68" viewBox="0 0 126 68" fill="none" xmlns="http://www.w3.org/2000/svg">
<g clip-path="url(#clip0_4031_3065)">
<path d="M37.6303 28.3896C40.4044 28.537 44.0072 26.6205 45.9888 24.0036C45.9888 24.8513 46.1329 25.6622 46.5292 26.3993C48.6188 30.2694 54.3833 29.0899 57.2295 25.5516C59.9676 22.1239 64.219 13.3519 59.4992 6.86494C56.9773 3.36353 52.4377 2.92123 49.1952 4.43238C47.7541 5.09581 46.6733 6.38579 46.277 7.34409C45.1601 9.92414 47.646 10.735 49.0511 10.1821C49.0511 10.1821 48.4386 9.33438 48.907 7.52841C49.2673 6.20153 50.5283 5.31696 51.9333 5.57496C54.5994 6.09097 57.3015 9.92414 56.617 16.3005C55.7523 24.1879 53.0862 26.8416 51.6091 26.8416C49.3393 26.8416 49.8437 16.153 56.5089 15.6001C54.8877 14.089 50.3121 15.0473 47.5739 19.5439C47.4659 19.6544 42.7823 26.8048 39.3956 26.5837C35.4326 26.3625 37.27 20.3548 38.3508 18.5856C39.7559 16.3373 41.0169 15.379 42.0977 15.4896C43.1065 15.6001 43.0344 18.6224 40.3684 20.0967C38.6391 21.055 37.5942 20.9076 37.5942 20.9076C37.8824 22.1976 41.8095 22.8979 44.6918 19.8756C47.2857 17.1481 45.4123 14.4576 42.9264 14.089C39.0714 13.5361 34.3157 15.8582 32.8025 21.2762C31.3253 26.6942 35.1444 28.1685 37.6303 28.2791V28.3896ZM73.9103 34.0657C70.5238 33.7339 67.1734 32.1122 65.1556 32.4071C63.1378 32.7388 62.5616 36.1297 62.5616 36.1297C62.7418 36.0928 64.7952 35.6505 66.4887 35.7242C68.1817 35.7979 72.4692 36.3508 75.4598 35.9085C78.4859 35.4662 79.4225 33.7708 79.3869 33.4759C79.0621 33.5497 77.2968 34.3236 73.9103 33.992V34.0657ZM78.234 27.6157C80.3235 28.6845 82.8813 28.537 85.2234 27.6157C86.9887 26.8785 89.9786 24.2985 91.0598 20.9445C92.7172 15.7844 89.3663 14.1258 86.1961 14.1258C83.0254 14.1258 78.4859 15.6001 76.6127 21.3868C75.4953 24.8145 76.6845 26.7679 78.234 27.6525V27.6157ZM85.0432 15.3422C88.754 15.2685 86.1961 26.5837 82.6294 26.7679C78.7378 26.989 81.2601 15.4159 85.0432 15.3422ZM58.1662 30.0851C57.4096 31.6331 56.3288 34.5817 57.95 35.8716C59.175 36.8668 60.3639 37.0511 60.9763 37.088C60.8683 32.0754 66.5605 20.9076 67.1372 19.6176C71.1722 10.7718 73.6222 18.475 70.5961 23.4139C68.3619 26.989 66.2007 27.2471 63.9309 27.6525C64.219 28.4265 72.3969 30.4536 75.9998 20.9445C77.477 17.0744 75.9642 14.605 73.0454 14.1996C70.6678 13.8679 68.9025 14.5681 67.8219 15.1947C67.209 13.6467 65.0115 13.573 63.9309 13.3519C63.9309 13.3519 64.1828 15.2684 63.1378 18.5487C62.1295 21.6816 59.5353 27.4313 58.2022 30.1588L58.1662 30.0851ZM103.381 23.0085C103.381 23.0085 101.94 26.8416 98.5175 26.6574C94.5542 26.4362 96.3919 20.4285 97.4725 18.6593C98.878 16.411 100.139 15.4527 101.219 15.5633C102.228 15.6738 102.156 18.6962 99.4903 20.1704C97.7612 21.1287 96.7161 20.9813 96.7161 20.9813C97.0042 22.2713 100.931 22.9716 103.813 19.9493C106.407 17.2218 104.534 14.5313 102.048 14.1627C98.1933 13.6098 93.4375 15.9319 91.9241 21.3499C90.4114 26.7679 94.23 28.3528 96.7523 28.3528C99.2739 28.3528 102.228 27.2102 103.813 25.441C105.435 23.6351 103.381 23.0085 103.381 23.0085ZM39.5037 52.6049C37.5582 49.3615 41.3051 41.2528 43.3587 35.8348C44.7998 32.0385 42.8183 30.0851 39.828 29.6797C39.936 30.8591 37.7744 36.4246 35.2164 39.5206C32.4062 42.9483 26.3175 52.2363 22.1383 52.9366C18.2473 53.6 16.626 51.7571 16.626 51.7571C16.626 51.7571 13.9239 54.5215 14.8606 55.7746C15.9775 57.2489 20.1207 57.7281 23.8315 54.5215C30.2806 48.8823 35.1083 41.2528 37.7023 38.3042C37.2339 39.4099 36.6575 40.6631 36.045 42.0268C32.082 50.7251 33.5591 55.7378 37.4501 56.8066C41.0889 57.8018 43.4308 54.632 43.4308 54.632C43.4308 54.632 41.161 55.3692 39.4677 52.568L39.5037 52.6049ZM22.2824 24.8513C22.9669 24.0405 23.6874 22.9716 24.3359 21.8659C23.9036 25.2936 24.7323 27.5788 26.7498 28.9425C29.7762 30.9328 33.7032 30.3062 34.9642 30.3431C35.5046 30.3431 34.9282 31.5962 31.2533 31.7437C27.3983 31.8911 24.1198 30.3431 21.1294 31.6331C18.9318 32.5545 20.0847 36.6088 20.1927 36.8668C22.3905 33.5497 28.2991 35.8348 32.19 34.2868C36.009 32.7757 38.1707 29.6797 34.5679 29.4216C29.8122 29.053 28.9475 24.6671 30.1725 20.5022C31.3974 16.3373 34.0274 11.9144 34.8201 6.68068C35.6127 1.41009 29.8122 1.7418 29.8122 1.7418C30.1725 6.01727 26.1734 15.0473 25.9572 15.6738C25.3087 17.2588 24.372 19.3228 23.5073 20.9076C21.85 23.893 19.5442 26.6574 18.2473 26.0676C17.0944 25.5516 19.7965 18.1801 20.8052 15.5633C21.814 12.9464 25.4168 4.94838 23.7956 2.58952C22.1382 0.230652 18.8957 1.15209 18.8957 1.15209C19.7244 4.06381 16.8061 12.025 14.1761 18.9173C12.735 22.1239 9.70863 27.0627 8.01531 26.2888C6.57422 25.6253 10.213 17.4799 13.0592 8.89215C15.9054 0.30437 10.7894 0.00950659 10.7894 0.00950659C5.24116 -0.248495 0.953833 4.80096 0.233274 8.33923C-0.415229 11.5458 0.917804 12.283 1.8185 12.4673C3.3677 12.7253 4.52059 11.1404 4.52059 11.1404C4.52059 11.1404 3.80005 10.5876 3.58388 9.11326C3.36771 7.63897 4.73677 1.37323 7.51092 2.73694C10.285 4.10067 5.92566 13.573 4.05224 18.3645C2.17878 23.1559 1.20603 29.1637 5.78157 29.1637C10.3571 29.1637 11.2578 26.2888 12.9151 23.893C12.5909 27.1365 13.7077 28.9793 15.1849 29.1637C17.7068 29.5322 19.9045 27.7262 22.2824 24.925V24.8513ZM87.8174 37.8988C85.5832 37.8988 80.1071 39.3731 78.234 45.1597C78.0538 45.7494 77.9097 46.2654 77.8736 46.7446C77.1527 48.44 75.8196 49.73 75.4236 49.8775C72.7212 50.9095 75.9998 45.7126 77.1889 43.2063C78.6661 40.0734 77.6572 38.5254 75.8196 38.3411C73.9826 38.1568 71.8569 39.1151 69.9831 40.7368C70.1272 39.152 69.1544 38.2674 67.8574 38.1568C66.0205 37.9726 64.1105 38.7465 61.9131 40.6631C61.8052 38.4148 59.6794 38.2674 58.4544 38.1937C58.4544 38.1937 58.6706 39.5943 57.914 41.5477C57.4816 42.6903 57.1574 43.4274 56.8692 44.054C55.8604 45.602 52.2576 50.6146 49.0151 50.4672C45.052 50.246 46.8894 44.2383 47.9703 42.4691C49.3754 40.2208 50.6363 39.2625 51.7171 39.3731C52.7259 39.4837 52.6539 42.506 49.9878 43.9803C48.2585 44.9386 47.2137 44.7911 47.2137 44.7911C47.5019 46.0811 51.4289 46.7815 54.3112 43.7591C56.9052 41.0317 55.0318 38.3411 52.5458 37.9726C48.6909 37.4196 43.9351 39.7417 42.422 45.1597C40.9448 50.5777 44.7277 52.1626 47.2497 52.1626C49.7717 52.1626 53.6987 50.0249 54.7436 48.6611C54.4192 49.8038 54.3472 50.9463 55.0678 51.5729C56.3648 52.6786 58.4544 51.9415 58.4544 51.9415C58.4544 51.9415 58.2742 50.5409 58.8147 48.8086C59.3191 47.2605 61.0121 43.9803 61.4448 43.0957C62.2374 41.4003 64.0026 40.3314 65.0833 40.5526C66.1283 40.7737 64.8313 43.3537 64.219 44.6437C63.6067 45.9337 60.9043 50.2829 62.5254 51.4255C64.1467 52.568 66.1645 52.052 66.1645 52.052C65.66 50.1723 68.11 45.4546 68.7223 44.0908C69.5148 42.3954 71.7484 40.4051 73.0816 40.7368C74.1266 40.9949 72.7212 43.538 72.145 44.828C71.5327 46.118 68.7946 50.504 70.4514 51.6097C73.2256 53.4158 77.081 50.2091 78.0176 49.3615C78.378 50.3198 79.0265 50.9832 79.7829 51.4255C81.8724 52.4943 84.4302 52.3469 86.7723 51.4255C88.5376 50.6883 91.5281 48.1083 92.6088 44.7543C94.2662 39.5943 90.9158 37.9356 87.745 37.9356L87.8174 37.8988ZM84.2506 50.6146C80.3597 50.8358 82.8813 39.2625 86.6644 39.1888C90.3752 39.1151 87.8174 50.4303 84.2506 50.6146Z" fill="#777777"/>
</g>
<defs>
<clipPath id="clip0_4031_3065">
<rect width="126" height="67.5" fill="white"/>
</clipPath>
</defs>
</svg>
