<svg width="84" height="45" viewBox="0 0 84 45" fill="none" xmlns="http://www.w3.org/2000/svg">
<path d="M25.0868 18.9264C26.9363 19.0247 29.3382 17.747 30.6592 16.0024C30.6592 16.5676 30.7552 17.1081 31.0195 17.5996C32.4125 20.1796 36.2555 19.3933 38.153 17.0344C39.9784 14.7492 42.8127 8.90125 39.6661 4.57663C37.9848 2.24235 34.9585 1.94749 32.7968 2.95492C31.8361 3.39721 31.1155 4.25719 30.8513 4.89606C30.1067 6.6161 31.764 7.15664 32.7007 6.78808C32.7007 6.78808 32.2924 6.22292 32.6047 5.01894C32.8448 4.13435 33.6855 3.54464 34.6222 3.71664C36.3996 4.06065 38.201 6.6161 37.7446 10.867C37.1682 16.1253 35.3908 17.8944 34.4061 17.8944C32.8929 17.8944 33.2292 10.7687 37.6726 10.4001C36.5918 9.39266 33.5414 10.0315 31.716 13.0292C31.6439 13.103 28.5215 17.8699 26.2637 17.7224C23.6217 17.575 24.8467 13.5698 25.5672 12.3904C26.5039 10.8915 27.3446 10.2527 28.0651 10.3264C28.7377 10.4001 28.6896 12.415 26.9122 13.3978C25.7594 14.0367 25.0628 13.9384 25.0628 13.9384C25.255 14.7984 27.873 15.2653 29.7945 13.2504C31.5238 11.4321 30.2749 9.63839 28.6176 9.39266C26.0476 9.02409 22.8771 10.5721 21.8684 14.1841C20.8836 17.7961 23.4296 18.779 25.0868 18.8527V18.9264ZM49.2735 22.7105C47.0158 22.4893 44.7823 21.4082 43.4371 21.6047C42.0918 21.8259 41.7077 24.0865 41.7077 24.0865C41.8279 24.0619 43.1968 23.767 44.3258 23.8162C45.4545 23.8653 48.3128 24.2339 50.3065 23.939C52.3239 23.6441 52.9483 22.5139 52.9246 22.3173C52.7081 22.3665 51.5312 22.8824 49.2735 22.6613V22.7105ZM52.156 18.4104C53.549 19.123 55.2542 19.0247 56.8156 18.4104C57.9924 17.919 59.9857 16.199 60.7066 13.963C61.8115 10.5229 59.5775 9.41723 57.4641 9.41723C55.3502 9.41723 52.3239 10.4001 51.0752 14.2578C50.3302 16.543 51.123 17.8453 52.156 18.435V18.4104ZM56.6955 10.2281C59.1693 10.179 57.4641 17.7224 55.0863 17.8453C52.4919 17.9927 54.1734 10.2772 56.6955 10.2281ZM38.7775 20.0567C38.2731 21.0887 37.5525 23.0545 38.6333 23.9144C39.45 24.5779 40.2426 24.7007 40.6509 24.7253C40.5789 21.3836 44.3736 13.9384 44.7582 13.0784C47.4482 7.18121 49.0815 12.3167 47.0641 15.6093C45.5746 17.9927 44.1338 18.1647 42.6206 18.435C42.8127 18.951 48.2646 20.3024 50.6665 13.963C51.6513 11.383 50.6428 9.73666 48.6969 9.46637C47.1119 9.24525 45.935 9.71209 45.2146 10.1298C44.806 9.0978 43.341 9.04866 42.6206 8.90125C42.6206 8.90125 42.7886 10.1789 42.0918 12.3658C41.4197 14.4544 39.6902 18.2876 38.8015 20.1059L38.7775 20.0567ZM68.9208 15.339C68.9208 15.339 67.9602 17.8944 65.6784 17.7716C63.0362 17.6241 64.2612 13.619 64.9816 12.4395C65.9186 10.9407 66.7592 10.3018 67.4796 10.3755C68.1522 10.4492 68.104 12.4641 66.3269 13.447C65.1741 14.0858 64.4774 13.9875 64.4774 13.9875C64.6695 14.8476 67.2875 15.3144 69.2089 13.2995C70.9382 11.4812 69.6895 9.68752 68.0321 9.4418C65.4622 9.07323 62.2916 10.6212 61.2827 14.2333C60.2742 17.8453 62.82 18.9018 64.5015 18.9018C66.1826 18.9018 68.1522 18.1401 69.2089 16.9607C70.2897 15.7567 68.9208 15.339 68.9208 15.339ZM26.3358 35.0699C25.0388 32.9076 27.5367 27.5019 28.9058 23.8899C29.8665 21.359 28.5455 20.0567 26.552 19.7864C26.624 20.5727 25.1829 24.283 23.4776 26.347C21.6041 28.6322 17.545 34.8242 14.7589 35.2911C12.1648 35.7333 11.084 34.5048 11.084 34.5048C11.084 34.5048 9.28261 36.3476 9.90707 37.1831C10.6516 38.1659 13.4138 38.4854 15.8877 36.3476C20.1871 32.5882 23.4055 27.5019 25.1349 25.5362C24.8226 26.2733 24.4384 27.1087 24.03 28.0179C21.388 33.8168 22.3727 37.1585 24.9668 37.8711C27.3926 38.5345 28.9538 36.4213 28.9538 36.4213C28.9538 36.4213 27.4407 36.9128 26.3118 35.0453L26.3358 35.0699ZM14.8549 16.5676C15.3113 16.027 15.7916 15.3144 16.224 14.5773C15.9358 16.8624 16.4882 18.3859 17.8332 19.295C19.8508 20.6218 22.4688 20.2041 23.3095 20.2287C23.6697 20.2287 23.2854 21.0642 20.8355 21.1624C18.2656 21.2607 16.0799 20.2287 14.0863 21.0887C12.6212 21.703 13.3898 24.4059 13.4618 24.5779C14.927 22.3665 18.866 23.8899 21.46 22.8579C24.006 21.8504 25.4471 19.7864 23.0453 19.6144C19.8748 19.3687 19.2984 16.4447 20.115 13.6681C20.9316 10.8915 22.685 7.94296 23.2134 4.45378C23.7418 0.940058 19.8748 1.1612 19.8748 1.1612C20.115 4.01151 17.4489 10.0315 17.3048 10.4492C16.8725 11.5058 16.248 12.8818 15.6715 13.9384C14.5667 15.9287 13.0295 17.7716 12.1648 17.3784C11.3962 17.0344 13.1976 12.1201 13.8701 10.3755C14.5427 8.63096 16.9445 3.29892 15.8637 1.72635C14.7588 0.153768 12.5972 0.768058 12.5972 0.768058C13.1496 2.70921 11.2041 8.01666 9.45072 12.6115C8.48999 14.7492 6.47242 18.0418 5.34354 17.5259C4.38281 17.0835 6.80868 11.6532 8.70615 5.9281C10.6036 0.202914 7.19296 0.00633772 7.19296 0.00633772C3.49411 -0.165663 0.635888 3.20064 0.155516 5.55949C-0.276819 7.69723 0.611869 8.18864 1.21233 8.31153C2.24513 8.4835 3.01373 7.42694 3.01373 7.42694C3.01373 7.42694 2.53336 7.05837 2.38925 6.07551C2.24514 5.09265 3.15784 0.915485 5.00728 1.82463C6.85669 2.73378 3.95044 9.04866 2.70149 12.243C1.45252 15.4372 0.804019 19.4424 3.85438 19.4424C6.90475 19.4424 7.50523 17.5258 8.61008 15.9287C8.39392 18.091 9.13848 19.3196 10.1232 19.4424C11.8045 19.6882 13.2697 18.4841 14.8549 16.6167V16.5676ZM58.5449 25.2659C57.0555 25.2659 53.4048 26.2487 52.156 30.1065C52.0358 30.4996 51.9398 30.8436 51.9157 31.163C51.4352 32.2933 50.5464 33.1533 50.2824 33.2516C48.4808 33.9396 50.6665 30.475 51.4593 28.8042C52.4441 26.7156 51.7715 25.6836 50.5464 25.5607C49.3217 25.4379 47.9046 26.0767 46.6554 27.1579C46.7515 26.1013 46.103 25.5116 45.2383 25.4379C44.0136 25.315 42.7403 25.831 41.2754 27.1087C41.2035 25.6099 39.7862 25.5116 38.9696 25.4624C38.9696 25.4624 39.1137 26.3962 38.6093 27.6985C38.3211 28.4602 38.1049 28.9516 37.9128 29.3693C37.2403 30.4013 34.8384 33.743 32.6767 33.6448C30.0347 33.4973 31.2596 29.4922 31.9802 28.3128C32.9169 26.8139 33.7576 26.175 34.4781 26.2487C35.1506 26.3225 35.1026 28.3373 33.3252 29.3202C32.1723 29.9591 31.4758 29.8607 31.4758 29.8607C31.668 30.7208 34.286 31.1876 36.2075 29.1727C37.9368 27.3545 36.6878 25.5607 35.0306 25.315C32.4606 24.9464 29.2901 26.4944 28.2813 30.1065C27.2966 33.7185 29.8185 34.775 31.4998 34.775C33.1811 34.775 35.7992 33.3499 36.4957 32.4408C36.2795 33.2025 36.2315 33.9642 36.7119 34.3819C37.5765 35.119 38.9696 34.6276 38.9696 34.6276C38.9696 34.6276 38.8495 33.6939 39.2098 32.5391C39.546 31.507 40.6747 29.3202 40.9632 28.7305C41.4916 27.6002 42.6684 26.8876 43.3888 27.035C44.0856 27.1824 43.2209 28.9025 42.8127 29.7625C42.4044 30.6225 40.6029 33.5219 41.6836 34.2836C42.7645 35.0453 44.1097 34.7013 44.1097 34.7013C43.7734 33.4482 45.4067 30.3031 45.8149 29.3939C46.3432 28.2636 47.8323 26.9368 48.721 27.1579C49.4178 27.3299 48.4808 29.0253 48.0967 29.8853C47.6884 30.7453 45.8631 33.6693 46.9676 34.4065C48.8171 35.6105 51.3874 33.4728 52.0117 32.9076C52.252 33.5465 52.6843 33.9888 53.1886 34.2836C54.5816 34.9962 56.2868 34.8979 57.8482 34.2836C59.0251 33.7922 61.0188 32.0722 61.7392 29.8362C62.8441 26.3962 60.6105 25.2904 58.4967 25.2904L58.5449 25.2659ZM56.1671 33.743C53.5731 33.8905 55.2542 26.175 57.7763 26.1259C60.2501 26.0767 58.5449 33.6202 56.1671 33.743Z" fill="#777777"/>
</svg>
