<svg width="120" height="35" viewBox="0 0 120 35" fill="none" xmlns="http://www.w3.org/2000/svg">
<g clip-path="url(#clip0_4049_321)">
<mask id="mask0_4049_321" style="mask-type:luminance" maskUnits="userSpaceOnUse" x="0" y="0" width="120" height="35">
<path d="M120 0H0V34.3957H120V0Z" fill="white"/>
</mask>
<g mask="url(#mask0_4049_321)">
<path d="M91.4646 0.485352C88.7655 0.485352 87.3769 1.95903 85.9929 4.1316C85.9929 4.1316 85.6572 4.72015 85.5676 4.93166C85.5354 5.00982 85.1538 6.13175 85.1147 6.67202C85.0089 8.16409 85.0618 8.16869 85.0595 8.25605C84.9032 12.8196 84.9583 25.1861 84.9583 25.1861C84.9537 25.7516 85.0342 26.3172 85.2089 26.8529C85.2411 26.9517 85.386 27.2 85.4089 27.2368C85.7952 27.8254 86.0987 28.1104 86.5516 28.5542C86.6826 28.6806 86.8136 28.8346 86.9217 28.9519C87.055 29.0921 87.124 29.2944 87.1309 29.4738C87.1424 29.7795 86.8366 30.037 86.3515 30.037C86.2274 30.037 86.0918 30.0002 85.9906 29.9474C85.7791 29.837 85.7469 29.7864 85.6113 29.6485C85.5768 29.614 85.5078 29.5266 85.4296 29.4347C85.3078 29.2944 85.2043 29.1013 84.9009 29.0002C84.8802 28.9933 84.8112 28.9818 84.8112 28.9818C84.2479 28.8967 83.864 29.1657 83.6088 29.5565C83.5881 29.5841 83.5766 29.6163 83.5628 29.6485C83.4502 29.8347 83.3927 30.0393 83.3789 30.2715V33.4626C83.5559 34.0511 83.7467 34.2902 84.2847 34.3822H85.3952C85.9308 34.396 86.4734 34.4535 87.0321 33.7063C87.2895 33.3637 87.6965 33.166 88.1241 33.166H95.1407C95.5385 33.166 95.9017 33.3591 96.1638 33.6603C96.7592 34.3477 97.3041 34.3914 98.2973 34.396C98.7433 34.3983 99.1732 34.4167 99.4905 34.3063C99.6652 34.2442 99.9664 33.9017 100.031 33.6396L100.061 30.5727C100.061 30.0186 99.9825 29.7267 99.8376 29.5129C99.6767 29.2738 99.1939 29.1542 99.0652 29.1542C98.9111 29.1542 98.5295 28.9864 98.5065 28.5909L98.4858 0.995735C98.4904 0.871588 98.4398 0.522136 98.0927 0.485352H91.4646ZM89.8323 8.52734V8.51354C89.8392 7.78475 90.1013 7.10424 90.4622 6.67202C91.099 5.89955 91.5336 6.08807 92.306 6.04669C92.3359 6.04439 92.3658 6.04439 92.3957 6.04439L92.9222 6.03059C93.6716 6.05128 93.8234 5.72942 93.7429 7.44219L93.7245 24.924C93.7245 26.0505 93.7245 27.1678 93.7176 28.2875C93.7176 28.3725 93.6923 28.4461 93.6579 28.5266C93.6188 28.6116 93.605 28.6254 93.5728 28.6921C93.4486 28.9036 93.2325 29.0553 92.89 29.0967C91.2508 29.3013 89.8323 27.3679 89.8392 26.0574V19.4109C89.8369 15.7831 89.8369 12.1552 89.8323 8.52734Z" fill="#777777"/>
<path d="M54.6457 11.6997C54.6733 12.0883 54.7837 12.2285 54.9607 12.2331C55.7309 12.2538 57.2252 12.2745 57.9977 12.2607C59.6116 12.2308 61.1842 12.9573 62.3521 14.0309C63.4832 15.0678 63.7499 16.2702 63.9683 17.7623L64.1108 27.1837C64.1384 29.1034 63.0395 30.6644 61.9129 31.8001C61.5336 32.1818 61.0577 32.4691 60.6048 32.7519C60.1128 33.0577 59.4806 33.2347 58.9196 33.2393L52.0524 33.2347C50.1005 33.2439 50.1281 33.2692 49.958 32.3335V1.21388C49.958 0.839138 50.3833 0.441406 50.7535 0.441406H60.5266C61.798 0.441406 61.5819 0.441406 61.9451 0.450602C62.0532 0.452901 62.667 0.501181 62.4923 1.18169C62.4072 1.51275 62.4578 1.28975 61.7474 3.12896C61.4784 3.82556 61.1796 4.4394 60.7083 4.75207C60.1174 5.14291 59.2323 5.07164 59.0966 5.08313H55.2343C54.6917 5.12222 54.6043 5.30154 54.5974 5.8786L54.6457 11.6997ZM55.3469 16.3576C54.5837 16.3369 54.5561 17.0473 54.5561 17.5462C54.5446 21.1372 54.5193 23.811 54.5308 27.4527C54.5331 28.0849 54.6986 29.1172 55.7355 29.3126C56.6735 29.4298 57.2735 29.354 58.1219 28.8804C58.9863 28.3976 59.3311 27.5147 59.3219 26.4894C59.299 23.8685 59.3036 21.1993 59.3219 18.5807C59.3265 17.6956 58.7495 16.4242 57.0965 16.3897C56.7309 16.3783 56.2367 16.3828 55.3469 16.3576Z" fill="#777777"/>
<path d="M47.6796 16.8749C48.029 3.34284 43.8218 0.301226 39.0743 0.501241C33.805 0.721948 31.3335 3.40951 30.9289 12.4424C30.6208 19.3073 31.9818 23.549 33.2877 26.7331C35.166 31.3105 37.7133 32.8072 39.3594 33.0945C41.5159 33.4739 45.1438 33.4762 46.7715 27.5148C47.5968 24.5008 47.5623 21.4661 47.6796 16.8749ZM36.4304 16.8726C36.4304 9.23754 37.3087 5.20275 39.1939 5.24413C40.1572 5.26482 41.7757 6.15915 41.9435 16.9784C42.0838 25.9952 40.7112 28.6344 39.1939 28.7126C36.7224 28.839 36.4304 23.3536 36.4304 16.8726Z" fill="#777777"/>
<path d="M35.5893 31.7932L35.4077 31.5978C34.5456 30.5495 33.5409 29.5931 32.6121 27.9102C32.2442 27.2435 32.1178 26.8365 31.8649 26.2066C31.6695 25.7169 31.5568 25.2226 31.4534 24.8778C31.3844 24.5743 31.2741 24.5582 31.1637 24.5789C31.0465 24.6019 30.966 24.7283 30.9223 24.9214L30.8993 25.1192L30.8855 25.3353L30.874 25.8618C30.8901 26.7147 31.0556 27.6389 31.3568 28.5539C31.8097 29.9287 32.5247 31.1288 33.3685 31.922C33.7317 32.2599 34.0996 32.5105 34.4582 32.6646L34.6996 32.7519C34.7456 32.7703 34.7985 32.7841 34.8421 32.7956C34.8812 32.8071 34.9272 32.814 34.9663 32.8209C35.0123 32.8278 35.0514 32.8393 35.0904 32.8393C35.2537 32.8623 35.4077 32.86 35.564 32.8301C35.6169 32.8232 35.6675 32.8094 35.7135 32.7933C35.9319 32.7174 35.9963 32.5404 35.9963 32.4232C35.9963 32.3013 35.925 32.1795 35.8514 32.1013L35.5893 31.7932Z" fill="#777777"/>
<path d="M82.3373 16.8749C82.6868 3.34284 78.4795 0.301226 73.732 0.501241C68.4627 0.721948 65.9912 3.40951 65.5866 12.4424C65.2785 19.3073 66.6395 23.549 67.9454 26.7331C69.8237 31.3105 72.371 32.8072 74.0171 33.0945C76.1736 33.4739 79.8015 33.4762 81.4292 27.5148C82.2522 24.5008 82.2177 21.4661 82.3373 16.8749ZM71.0859 16.8726C71.0859 9.23754 71.9641 5.20275 73.8493 5.24413C74.8126 5.26482 76.4311 6.15915 76.5989 16.9784C76.7392 25.9952 75.3666 28.6344 73.8493 28.7126C71.3778 28.839 71.0859 23.3536 71.0859 16.8726Z" fill="#777777"/>
<path d="M70.2446 31.7932L70.063 31.5978C69.2008 30.5495 68.1962 29.5931 67.2674 27.9102C66.8995 27.2435 66.7731 26.8365 66.5202 26.2066C66.3248 25.7169 66.2121 25.2226 66.1086 24.8778C66.0397 24.5743 65.9293 24.5582 65.819 24.5789C65.7017 24.6019 65.6213 24.7283 65.5776 24.9214L65.5546 25.1192L65.5408 25.3353L65.5293 25.8618C65.5454 26.7147 65.7109 27.6389 66.0121 28.5539C66.465 29.9287 67.18 31.1288 68.0237 31.922C68.387 32.2599 68.7548 32.5105 69.1135 32.6646L69.3549 32.7519C69.4009 32.7703 69.4537 32.7841 69.4974 32.7956C69.5365 32.8071 69.5825 32.814 69.6216 32.8209C69.6675 32.8278 69.7066 32.8393 69.7457 32.8393C69.9089 32.8623 70.063 32.86 70.2193 32.8301C70.2722 32.8232 70.3228 32.8094 70.3687 32.7933C70.5872 32.7174 70.6515 32.5404 70.6515 32.4232C70.6515 32.3013 70.5803 32.1795 70.5067 32.1013L70.2446 31.7932Z" fill="#777777"/>
<path d="M20.4314 32.1314C21.0061 24.5446 22.1671 19.289 22.5051 14.4288C22.5442 13.8702 22.7051 10.801 23.1741 11.2378C23.358 11.4102 23.535 12.2954 23.5649 12.6816C23.8385 16.2336 24.565 21.8363 25.2064 27.2942C25.372 28.7127 25.9812 30.8531 25.7996 32.2739C25.6938 33.1176 26.1169 33.3682 26.8801 33.4119L29.7723 33.5453C30.4045 33.4878 30.6827 33.159 30.6873 32.513C30.6988 31.2738 30.4229 30.0691 30.2712 28.8483C30.2712 28.8483 28.1515 14.0771 27.7055 8.97786C27.5882 7.63063 26.6732 4.94766 26.6157 1.56809C26.6042 0.908271 26.4295 0.551922 25.7927 0.524334L20.9234 0.459961C20.1417 0.489848 19.7187 0.65078 19.5003 1.41866L15.9184 32.4187C15.8678 32.8532 16.1046 33.2763 16.5276 33.3383C17.2472 33.4418 17.9714 33.4763 18.6956 33.543C19.5186 33.6165 20.3486 33.2119 20.4314 32.1314Z" fill="#777777"/>
<path d="M111.609 32.2739C111.645 33.1245 111.926 33.3682 112.689 33.4119L115.581 33.5453C116.214 33.4878 116.492 33.159 116.496 32.513C116.508 31.2738 116.232 30.0691 116.08 28.8483C116.08 28.8483 114.151 13.9231 113.515 8.97786C113.342 7.63752 112.482 4.94766 112.425 1.56809C112.413 0.908271 112.239 0.551922 111.602 0.524334L106.732 0.459961C105.951 0.489848 105.528 0.65078 105.309 1.41866L101.727 32.421C101.677 32.8555 101.914 33.2786 102.337 33.3406C103.056 33.4441 103.78 33.4786 104.505 33.5453C105.328 33.6211 106.16 33.2142 106.24 32.1337C106.303 31.329 106.192 30.5151 106.443 29.7978C106.728 28.9817 107.758 28.6046 108.974 28.5449C110.036 28.4989 111.101 28.4092 111.278 29.3771C111.404 30.0806 111.576 31.5405 111.609 32.2739ZM108.905 11.1711C109.156 11.1987 109.165 11.8241 109.307 13.3023C109.666 17.0336 109.797 17.3739 110.068 21.7466C110.195 23.7744 109.797 24.1399 108.864 24.1123C107.937 24.0871 107.454 23.556 107.461 22.7398C107.491 19.4154 108.142 16.4704 108.413 14.0058C108.719 11.2562 108.682 11.1481 108.905 11.1711Z" fill="#777777"/>
<path d="M4.713 31.7864L4.53138 31.591C3.66925 30.5426 2.69676 29.5541 1.82543 27.862C1.47598 27.1861 1.26217 26.5147 1.00927 25.8848C0.813855 25.3951 0.733389 25.2227 0.577056 24.8709C0.441413 24.5905 0.397732 24.5514 0.287378 24.5721C0.170128 24.5928 0.089662 24.7215 0.0459805 24.9146L0.0229903 25.1123L0.00919611 25.3284L0 25.8549C0.0160932 26.7079 0.181623 27.6321 0.482796 28.5471C0.935704 29.9219 1.6507 31.122 2.49444 31.9152C2.85769 32.2531 3.22553 32.5037 3.58418 32.6577L3.82558 32.7451C3.87156 32.7635 3.92444 32.7773 3.96812 32.7888C4.0072 32.8003 4.05318 32.8072 4.09227 32.8141C4.13825 32.821 4.17733 32.8325 4.21641 32.8325C4.37965 32.8555 4.53368 32.8532 4.69001 32.8233C4.74289 32.8164 4.79347 32.8026 4.83945 32.7865C5.05786 32.7106 5.09464 32.6118 5.12453 32.4462C5.14752 32.3267 5.05096 32.1726 4.97969 32.0945L4.713 31.7864Z" fill="#777777"/>
<path d="M5.58185 26.4133C5.72438 29.0503 7.85098 29.3745 8.47862 29.3676C8.80738 29.363 9.29707 29.2733 9.73389 28.8825C10.5202 28.1767 10.7707 26.6984 10.7179 25.5765C10.6857 24.896 10.5592 24.65 10.5316 23.9695C10.5041 23.2936 10.9777 22.7257 11.6582 22.7234L14.1319 22.9993C14.9642 23.128 15.2056 23.4476 15.2056 24.1925C15.2171 28.0663 14.9458 28.9055 14.325 30.3976C13.5227 32.3264 11.5547 33.3058 9.48789 33.3035C8.18204 33.3426 7.05322 32.8391 6.31523 32.3264C5.73358 31.9218 5.51058 31.7011 5.06686 31.2114C2.67817 28.7055 1.14933 23.8315 0.668832 19.5415C0.307885 16.339 0.41364 10.9064 0.813671 7.70846C1.67351 0.855063 4.7404 0.478024 6.27845 0.222831C8.36597 -0.124322 11.0374 0.188346 12.3364 1.4896C13.6537 2.80923 14.394 3.75643 14.4561 8.71543C14.463 9.258 13.9756 9.89253 13.1939 10.0443C12.4812 10.1822 11.7019 10.2397 11.1202 10.2259C10.5179 10.2098 10.127 9.83046 10.1477 9.21202C10.1753 8.41656 10.4903 7.09921 10.0581 5.83935C9.74998 4.94503 8.91773 4.5427 7.98433 4.43464C6.68538 4.28291 5.75427 5.08986 5.60024 7.22336L5.58185 26.4133Z" fill="#777777"/>
<path d="M117.432 0C116.016 0 114.864 1.16791 114.864 2.6002C114.864 4.03249 116.016 5.2004 117.432 5.2004C118.848 5.2004 120 4.03249 120 2.6002C120 1.16791 118.848 0 117.432 0ZM117.432 4.84405C116.211 4.84405 115.216 3.83708 115.216 2.6002C115.216 1.36332 116.209 0.356349 117.432 0.356349C118.655 0.356349 119.649 1.36332 119.649 2.6002C119.649 3.83708 118.655 4.84405 117.432 4.84405Z" fill="#777777"/>
<path d="M116.466 1.09869C116.659 1.05961 116.935 1.03662 117.197 1.03662C117.604 1.03662 117.869 1.11249 118.053 1.28032C118.202 1.41366 118.285 1.61828 118.285 1.84818C118.285 2.24361 118.039 2.5057 117.728 2.61145V2.62525C117.956 2.70571 118.092 2.91722 118.163 3.22989C118.26 3.64601 118.329 3.93569 118.391 4.05064H117.995C117.947 3.96558 117.88 3.70809 117.797 3.33565C117.71 2.92412 117.551 2.76779 117.207 2.75399H116.848V4.05064H116.466V1.09869ZM116.848 2.46202H117.239C117.646 2.46202 117.905 2.23671 117.905 1.89416C117.905 1.50792 117.63 1.34009 117.227 1.33549C117.043 1.33549 116.912 1.35389 116.85 1.37228V2.46202H116.848Z" fill="#777777"/>
</g>
</g>
<defs>
<clipPath id="clip0_4049_321">
<rect width="120" height="35" fill="white"/>
</clipPath>
</defs>
</svg>
