<svg width="150" height="32" viewBox="0 0 150 32" fill="none" xmlns="http://www.w3.org/2000/svg">
<g clip-path="url(#clip0_4031_3092)">
<path d="M97.7571 22.8901C97.7068 24.1955 97.6455 25.4824 97.587 26.7507L97.5769 26.9231L97.7461 26.9055C98.1604 26.8647 100.238 26.8647 100.663 26.9055L100.83 26.9231L100.822 26.7507C100.758 25.4833 100.699 24.1974 100.647 22.8901C100.603 21.531 100.576 20.2293 100.576 18.9174V13.6477C100.576 12.346 100.603 11.0109 100.647 9.67774C100.699 8.38254 100.758 7.06139 100.822 5.7143L100.83 5.53457L100.656 5.5568C100.545 5.57441 97.8568 5.57441 97.7498 5.5568L97.5769 5.53271L97.587 5.7143C97.6455 7.06139 97.7068 8.38254 97.7571 9.67774C97.801 10.9331 97.8284 12.2654 97.8284 13.6477V18.9174C97.8284 20.3118 97.8046 21.6116 97.7571 22.8901Z" fill="#777777"/>
<path d="M54.9706 5.66883L55.0191 5.47705L54.8261 5.48261C53.5017 5.52059 52.2093 5.55765 50.9572 5.58637C49.5724 5.61973 48.3084 5.63733 47.0919 5.63733C45.8636 5.63733 44.6005 5.61973 43.223 5.58637C41.9663 5.55673 40.6813 5.52059 39.366 5.48261L39.1758 5.47705L39.2206 5.6642C39.3111 6.05702 39.3111 7.25124 39.2206 7.60145L39.1685 7.82009L39.3861 7.78582C39.7675 7.72559 40.2285 7.67557 40.7919 7.6348C41.3206 7.59404 41.8666 7.55605 42.4364 7.52548C43.0026 7.4949 43.5797 7.48008 44.1404 7.46711C44.6572 7.45692 45.1538 7.45229 45.6313 7.45043C45.6871 9.4618 45.7136 11.488 45.7136 13.6485V18.922C45.7136 20.3376 45.6898 21.6366 45.6432 22.8891L45.6148 23.6081C45.5691 24.6744 45.5242 25.7186 45.4803 26.7572L45.4703 26.9276L45.6395 26.9109C45.8425 26.8924 48.3404 26.8924 48.5435 26.9109L48.7108 26.9276L48.6678 25.9595C48.6239 24.9515 48.5773 23.9323 48.5398 22.8919C48.4904 21.6643 48.4685 20.3645 48.4685 18.922V13.6485C48.4685 11.4463 48.4941 9.41733 48.5444 7.45043C49.0273 7.45229 49.5258 7.45785 50.0517 7.46711C50.606 7.48008 51.1794 7.4949 51.7474 7.52548C52.3136 7.55605 52.8651 7.59404 53.3956 7.6348C53.9499 7.67557 54.4127 7.72559 54.8041 7.78582L55.0291 7.82009L54.9697 7.59959C54.8709 7.24846 54.8709 6.05887 54.9706 5.66883Z" fill="#777777"/>
<path d="M68.9278 5.1123C61.0564 5.1123 57.4692 10.875 57.4692 16.2318C57.4692 21.5896 60.9695 27.355 68.6552 27.355C75.4162 27.355 80.1421 22.5753 80.1421 15.7315C80.143 9.17766 75.8433 5.1123 68.9278 5.1123ZM69.8104 25.6623C64.5631 25.6623 61.0391 21.8722 61.0391 16.2327C61.0391 9.71872 64.7159 6.74938 68.1302 6.74938C74.122 6.74938 76.8531 11.5263 76.8531 15.965C76.854 25.3965 69.879 25.6623 69.8104 25.6623Z" fill="#777777"/>
<path d="M138.765 5.1123C130.895 5.1123 127.311 10.875 127.311 16.2318C127.311 21.5896 130.808 27.355 138.496 27.355C145.255 27.355 149.98 22.5753 149.98 15.7315C149.98 9.17766 145.682 5.1123 138.765 5.1123ZM139.647 25.6623C134.401 25.6623 130.879 21.8722 130.879 16.2327C130.879 9.71872 134.554 6.74938 137.972 6.74938C143.961 6.74938 146.691 11.5263 146.691 15.965C146.691 25.3965 139.715 25.6623 139.647 25.6623Z" fill="#777777"/>
<path d="M83.9945 31.1539C84.4865 30.9204 85.232 30.5665 85.928 30.1088C87.8798 28.8247 88.4972 27.6222 88.8667 26.5076C89.2911 25.3041 89.3378 23.92 89.3378 22.9815C89.3378 22.1236 89.3496 17.859 89.3725 15.2834C89.3835 14.0447 89.4887 7.07027 89.5445 5.71299L89.5518 5.53418L89.3817 5.55734C89.2774 5.57494 86.592 5.57494 86.4832 5.55734L86.3112 5.53418L86.3204 5.71299C86.3432 6.33928 86.3835 8.16443 86.4246 10.0896C86.4722 12.2983 86.5189 14.5747 86.549 15.2677C86.5765 16.0042 86.603 21.1248 86.603 21.1749C86.603 25.2384 86.5042 27.8075 85.135 29.2222C84.7719 29.5946 84.2808 30.0152 83.635 30.5109C83.5289 30.5943 83.4219 30.6647 83.3277 30.7286C83.0945 30.8861 82.9875 30.9667 82.9326 31.0038C82.8246 31.0798 82.907 31.2067 83.0048 31.329C83.1393 31.493 83.207 31.5254 83.2975 31.4846C83.3835 31.4439 83.8783 31.2067 83.9945 31.1539Z" fill="#777777"/>
<path d="M126.015 26.6581C125.857 26.6562 125.186 26.5904 124.76 26.4663C124.313 26.3347 123.146 26.0003 122.168 24.832C121.163 23.6396 119.695 21.6801 118.149 19.6076C117.404 18.6172 116.649 17.6055 115.923 16.6531C116.52 16.5299 117.43 16.2251 118.294 15.8601C119.893 15.1819 121.044 13.3651 121.171 13.1603C121.608 12.4367 121.835 11.5612 121.835 10.5523C121.835 9.586 121.666 8.80869 121.323 8.18332C120.989 7.55147 120.519 7.03265 119.925 6.64445C119.349 6.25997 118.661 5.9811 117.883 5.81248C117.122 5.64294 116.305 5.5577 115.462 5.5577C115.169 5.5577 114.434 5.58735 113.73 5.61051C113.025 5.63738 112.297 5.66054 112.012 5.66054C111.453 5.66054 109.2 5.59476 108.632 5.55678L108.467 5.55029L108.476 5.71613C108.537 7.06137 108.592 8.38251 108.639 9.68235C108.69 11.0369 108.712 12.371 108.712 13.6476V18.9193C108.712 20.2089 108.69 21.5069 108.639 22.892C108.592 24.2029 108.537 25.4916 108.476 26.7563L108.467 26.9258L108.633 26.9101C109.073 26.8684 111.107 26.8684 111.542 26.9101L111.708 26.9258L111.647 25.5259C111.612 24.6606 111.568 23.7814 111.538 22.892C111.486 21.4772 111.463 20.1793 111.463 18.9193V13.6476C111.463 12.5933 111.483 11.5121 111.519 10.3439C111.544 9.66197 111.568 8.98472 111.597 8.29913L111.64 7.13085C112.153 7.09101 113.752 7.04469 114.39 7.05859C115.717 7.08638 116.999 7.48847 117.414 7.76548C117.854 8.05176 118.21 8.44366 118.499 8.95229C118.773 9.45722 118.912 10.0946 118.912 10.858C118.912 11.7345 118.732 12.4766 118.373 13.064C118.015 13.6476 117.559 14.1174 117.021 14.4565C116.492 14.7983 115.89 15.0466 115.23 15.181C114.573 15.3255 113.952 15.394 113.323 15.394C113.159 15.394 113.007 15.4005 112.855 15.3885C112.506 15.3561 112.447 15.7887 112.635 16.0898C112.971 16.6244 113.544 17.5286 114.143 18.3986L114.53 18.961C115.86 20.8852 117.368 23.0717 118.9 25.0886C119.363 25.7001 120.122 26.4774 120.775 26.8285C121.392 27.1704 121.987 27.2816 123.234 27.2816H125.956C126.13 27.2816 126.157 27.1936 126.166 26.9573C126.176 26.7581 126.183 26.6581 126.015 26.6581Z" fill="#777777"/>
<path d="M11.8289 10.9167C12.1802 11.2159 12.5314 11.3271 12.8369 11.1992C14.2875 10.5915 14.5994 6.98844 14.7905 5.55241C14.8088 5.41622 14.8838 5.34951 14.9359 5.34951H14.9378H14.9396C14.9908 5.34951 15.0667 5.41622 15.0841 5.55241C15.2762 6.98844 15.5881 10.5915 17.0378 11.1992C17.3423 11.3271 17.6963 11.2168 18.0466 10.9167C19.5969 9.59089 20.0177 9.09152 21.3265 7.84357C21.6567 7.52857 21.792 7.03013 21.4097 6.60117C19.8786 4.8835 18.5506 3.32332 16.4789 0.218716C16.425 0.142746 16.2878 -0.00363683 16.0353 6.90481e-05C16.0353 6.90481e-05 15.3594 0.0185985 14.9378 0.0185985H14.9359H14.9341C14.5125 0.0185985 13.8347 6.90481e-05 13.8347 6.90481e-05C13.5841 -0.00363683 13.446 0.142746 13.3948 0.218716C11.3241 3.32332 9.99418 4.8835 8.46491 6.60117C8.08442 7.03013 8.21796 7.52857 8.54723 7.84357C9.85698 9.09152 10.2795 9.59089 11.8289 10.9167Z" fill="#777777"/>
<path d="M10.9757 17.3931C10.3811 15.9116 6.85614 15.5929 5.45035 15.3965C5.31864 15.3789 5.25279 15.302 5.25279 15.2483V15.2464V15.2446C5.25279 15.1908 5.31864 15.1158 5.45035 15.0982C6.85614 14.9036 10.3821 14.5831 10.9757 13.1007C11.1 12.7894 10.9939 12.43 10.6994 12.0696C9.40065 10.4862 8.91498 10.0563 7.69303 8.71852C7.38388 8.37943 6.8973 8.24324 6.47565 8.63421C4.79547 10.1981 3.26986 11.5563 0.23236 13.6742C0.156445 13.727 0.0128477 13.8678 0.0192501 14.1236C0.0192501 14.1236 0.0357135 14.8147 0.0357135 15.2455V15.2474V15.2492C0.0357135 15.6828 0.0192501 16.3721 0.0192501 16.3721C0.0137623 16.6278 0.156445 16.7705 0.23236 16.8214C3.26986 18.9393 4.79547 20.2985 6.47565 21.8614C6.8973 22.2543 7.38388 22.1162 7.69303 21.779C8.91407 20.4412 9.39974 20.0094 10.6994 18.427C10.9939 18.0657 11.101 17.7053 10.9757 17.3931Z" fill="#777777"/>
<path d="M18.0457 19.5768C17.6936 19.2775 17.3415 19.1682 17.0369 19.2933C15.5863 19.9038 15.2753 23.5032 15.0832 24.941C15.0668 25.0772 14.9899 25.1439 14.9378 25.1439H14.936C14.8829 25.1439 14.8098 25.0772 14.7905 24.941C14.6003 23.5032 14.2875 19.9038 12.836 19.2933C12.5323 19.1682 12.1802 19.2766 11.8299 19.5768C10.2796 20.9026 9.85884 21.4028 8.54817 22.6508C8.2189 22.9677 8.08445 23.4615 8.46677 23.8923C9.99695 25.6099 11.3259 27.171 13.3966 30.2738C13.4488 30.3498 13.5869 30.498 13.8393 30.4924C13.8393 30.4924 14.5152 30.4748 14.9369 30.4748H14.9387C15.3622 30.4748 16.0381 30.4924 16.0381 30.4924C16.2905 30.498 16.4287 30.3498 16.478 30.2738C18.5497 27.171 19.8787 25.6099 21.4098 23.8923C21.7912 23.4615 21.6585 22.9677 21.3265 22.6508C20.0159 21.4019 19.5951 20.9026 18.0457 19.5768Z" fill="#777777"/>
<path d="M29.838 15.2468V15.245V15.2431C29.838 14.8114 29.8536 14.1202 29.8536 14.1202C29.86 13.8645 29.7155 13.7246 29.6414 13.6709C26.6021 11.553 25.0774 10.1957 23.3953 8.63089C22.9746 8.24085 22.4899 8.37611 22.1807 8.7152C20.9597 10.053 20.4703 10.4838 19.1734 12.0662C18.8789 12.4266 18.771 12.788 18.8953 13.0974C19.4908 14.5816 23.0149 14.8994 24.4188 15.0949C24.5533 15.1125 24.6182 15.1894 24.6182 15.2413V15.2431V15.245C24.6182 15.2987 24.5542 15.3765 24.4188 15.3932C23.0149 15.5896 19.4908 15.9092 18.8953 17.3907C18.771 17.701 18.8789 18.0624 19.1734 18.4218C20.4703 20.0042 20.9597 20.436 22.1807 21.7747C22.4899 22.111 22.9746 22.2491 23.3953 21.8563C25.0764 20.2933 26.6021 18.9351 29.6414 16.82C29.7146 16.7662 29.8591 16.6236 29.8536 16.3678C29.8536 16.3697 29.838 15.6804 29.838 15.2468Z" fill="#777777"/>
</g>
<defs>
<clipPath id="clip0_4031_3092">
<rect width="150" height="31.5" fill="white"/>
</clipPath>
</defs>
</svg>
