<svg width="100" height="21" viewBox="0 0 100 21" fill="none" xmlns="http://www.w3.org/2000/svg">
<g clip-path="url(#clip0_4028_1277)">
<path d="M65.1714 15.2601C65.1379 16.1304 65.097 16.9883 65.058 17.8338L65.0513 17.9487L65.1641 17.937C65.4403 17.9098 66.8257 17.9098 67.1086 17.937L67.2202 17.9487L67.2147 17.8338C67.172 16.9889 67.133 16.1316 67.0982 15.2601C67.069 14.354 67.0507 13.4862 67.0507 12.6116V9.09845C67.0507 8.23065 67.069 7.34062 67.0982 6.45183C67.133 5.58836 67.172 4.70759 67.2147 3.80954L67.2202 3.68971L67.1037 3.70454C67.0299 3.71627 65.2379 3.71627 65.1665 3.70454L65.0513 3.68848L65.058 3.80954C65.097 4.70759 65.1379 5.58836 65.1714 6.45183C65.2007 7.28874 65.219 8.17692 65.219 9.09845V12.6116C65.219 13.5412 65.2031 14.4077 65.1714 15.2601Z" fill="#777777"/>
<path d="M36.6471 3.77922L36.6794 3.65137L36.5507 3.65507C35.6678 3.6804 34.8062 3.7051 33.9715 3.72425C33.0483 3.74648 32.2056 3.75822 31.3946 3.75822C30.5757 3.75822 29.7336 3.74648 28.8154 3.72425C27.9775 3.70448 27.1208 3.6804 26.244 3.65507L26.1172 3.65137L26.1471 3.77613C26.2074 4.03801 26.2074 4.83416 26.1471 5.06763L26.1123 5.2134L26.2574 5.19054C26.5117 5.1504 26.819 5.11704 27.1946 5.08987C27.5471 5.06269 27.9111 5.03737 28.291 5.01698C28.6684 4.9966 29.0532 4.98672 29.4269 4.97807C29.7714 4.97128 30.1025 4.96819 30.4208 4.96696C30.458 6.30787 30.4757 7.65866 30.4757 9.09901V12.6147C30.4757 13.5584 30.4599 14.4244 30.4288 15.2594L30.4099 15.7387C30.3794 16.4496 30.3495 17.1457 30.3202 17.8381L30.3135 17.9517L30.4263 17.9406C30.5617 17.9283 32.2269 17.9283 32.3623 17.9406L32.4739 17.9517L32.4452 17.3063C32.416 16.6343 32.3849 15.9549 32.3599 15.2613C32.3269 14.4429 32.3123 13.5763 32.3123 12.6147V9.09901C32.3123 7.63087 32.3294 6.27822 32.3629 4.96696C32.6849 4.96819 33.0172 4.9719 33.3678 4.97807C33.7373 4.98672 34.1196 4.9966 34.4983 5.01698C34.8757 5.03737 35.2434 5.06269 35.5971 5.08987C35.9666 5.11704 36.2751 5.1504 36.5361 5.19054L36.6861 5.2134L36.6464 5.0664C36.5806 4.83231 36.5806 4.03925 36.6471 3.77922Z" fill="#777777"/>
<path d="M45.9518 3.4082C40.7042 3.4082 38.3127 7.24997 38.3127 10.8212C38.3127 14.3931 40.6463 18.2367 45.7701 18.2367C50.2774 18.2367 53.428 15.0502 53.428 10.4877C53.4286 6.11844 50.5621 3.4082 45.9518 3.4082ZM46.5402 17.1082C43.042 17.1082 40.6926 14.5814 40.6926 10.8218C40.6926 6.47914 43.1438 4.49959 45.4201 4.49959C49.4146 4.49959 51.2353 7.68417 51.2353 10.6433C51.2359 16.931 46.5859 17.1082 46.5402 17.1082Z" fill="#777777"/>
<path d="M92.5104 3.4082C87.2634 3.4082 84.8738 7.24997 84.8738 10.8212C84.8738 14.3931 87.2055 18.2367 92.3305 18.2367C96.8366 18.2367 99.9866 15.0502 99.9866 10.4877C99.9866 6.11844 97.1213 3.4082 92.5104 3.4082ZM93.0982 17.1082C89.6006 17.1082 87.2531 14.5814 87.2531 10.8218C87.2531 6.47914 89.7031 4.49959 91.9811 4.49959C95.9744 4.49959 97.7939 7.68417 97.7939 10.6433C97.7939 16.931 93.1433 17.1082 93.0982 17.1082Z" fill="#777777"/>
<path d="M55.9963 20.7692C56.3244 20.6136 56.8213 20.3777 57.2853 20.0725C58.5866 19.2165 58.9981 18.4148 59.2445 17.6717C59.5274 16.8694 59.5585 15.9467 59.5585 15.321C59.5585 14.749 59.5664 11.906 59.5817 10.189C59.589 9.36316 59.6591 4.71351 59.6963 3.80866L59.7012 3.68945L59.5878 3.70489C59.5183 3.71663 57.728 3.71663 57.6555 3.70489L57.5408 3.68945L57.5469 3.80866C57.5622 4.22619 57.589 5.44295 57.6164 6.72642C57.6481 8.19889 57.6792 9.71645 57.6994 10.1785C57.7177 10.6695 57.7353 14.0832 57.7353 14.1166C57.7353 16.8256 57.6695 18.5383 56.7567 19.4815C56.5146 19.7297 56.1872 20.0102 55.7567 20.3406C55.6859 20.3962 55.6146 20.4431 55.5518 20.4857C55.3963 20.5907 55.325 20.6445 55.2884 20.6692C55.2164 20.7198 55.2713 20.8045 55.3366 20.886C55.4262 20.9953 55.4713 21.0169 55.5317 20.9897C55.589 20.9626 55.9189 20.8045 55.9963 20.7692Z" fill="#777777"/>
<path d="M84.0097 17.772C83.9048 17.7708 83.4573 17.727 83.1731 17.6442C82.8756 17.5565 82.0975 17.3335 81.4451 16.5547C80.7756 15.7598 79.7969 14.4534 78.7658 13.0718C78.2694 12.4115 77.7658 11.737 77.2823 11.1021C77.6798 11.0199 78.2865 10.8167 78.8627 10.5734C79.9286 10.1213 80.6963 8.91005 80.7804 8.77355C81.0719 8.29117 81.2231 7.70749 81.2231 7.03487C81.2231 6.39067 81.1109 5.87246 80.8823 5.45555C80.6591 5.03431 80.3463 4.68843 79.9499 4.42964C79.5658 4.17331 79.1073 3.9874 78.589 3.87499C78.081 3.76196 77.5365 3.70514 76.9749 3.70514C76.7792 3.70514 76.2896 3.7249 75.8201 3.74034C75.3499 3.75825 74.8646 3.7737 74.6749 3.7737C74.3018 3.7737 72.7999 3.72984 72.4213 3.70452L72.3115 3.7002L72.3176 3.81075C72.3579 4.70758 72.3944 5.58834 72.4262 6.4549C72.4603 7.3579 72.4749 8.24731 72.4749 9.09843V12.6128C72.4749 13.4726 72.4603 14.3379 72.4262 15.2613C72.3944 16.1353 72.3579 16.9944 72.3176 17.8375L72.3115 17.9505L72.4219 17.94C72.7152 17.9123 74.0713 17.9123 74.3615 17.94L74.4719 17.9505L74.4316 17.0173C74.4079 16.4404 74.3786 15.8543 74.3585 15.2613C74.3243 14.3182 74.3085 13.4528 74.3085 12.6128V9.09843C74.3085 8.39555 74.3219 7.67475 74.3463 6.8959C74.3627 6.44131 74.3786 5.98981 74.3981 5.53275L74.4268 4.7539C74.7688 4.72734 75.8347 4.69646 76.2603 4.70572C77.1444 4.72425 77.9993 4.99231 78.2762 5.17699C78.5694 5.36784 78.8066 5.62911 78.9993 5.9682C79.1823 6.30481 79.2749 6.72975 79.2749 7.2387C79.2749 7.82299 79.1548 8.31772 78.9152 8.70931C78.6768 9.09843 78.3725 9.41158 78.014 9.63764C77.6615 9.86555 77.2603 10.0311 76.8201 10.1206C76.3823 10.217 75.9682 10.2627 75.5487 10.2627C75.4396 10.2627 75.3377 10.267 75.2365 10.259C75.0042 10.2374 74.9646 10.5258 75.0902 10.7265C75.314 11.0829 75.6963 11.6858 76.0951 12.2657L76.3536 12.6406C77.2402 13.9235 78.2451 15.3811 79.2664 16.7258C79.5755 17.1334 80.0816 17.6516 80.5164 17.8857C80.928 18.1136 81.3249 18.1877 82.156 18.1877H83.9707C84.0865 18.1877 84.1048 18.129 84.1109 17.9715C84.1176 17.8388 84.1219 17.772 84.0097 17.772Z" fill="#777777"/>
<path d="M7.88595 7.27778C8.1201 7.47728 8.35425 7.5514 8.55791 7.46616C9.52498 7.06099 9.73291 4.65896 9.86034 3.7016C9.87254 3.61081 9.92254 3.56634 9.9573 3.56634H9.95852H9.95974C9.99388 3.56634 10.0445 3.61081 10.0561 3.7016C10.1841 4.65896 10.3921 7.06099 11.3585 7.46616C11.5616 7.5514 11.7975 7.4779 12.0311 7.27778C13.0646 6.39393 13.3451 6.06102 14.2177 5.22905C14.4378 5.01905 14.528 4.68675 14.2732 4.40078C13.2524 3.25566 12.3671 2.21555 10.986 0.145811C10.95 0.0951637 10.8585 -0.00242456 10.6902 4.60321e-05C10.6902 4.60321e-05 10.2396 0.012399 9.95852 0.012399H9.9573H9.95608C9.67498 0.012399 9.22315 4.60321e-05 9.22315 4.60321e-05C9.05608 -0.00242456 8.964 0.0951637 8.92986 0.145811C7.54937 2.21555 6.66278 3.25566 5.64327 4.40078C5.38961 4.68675 5.47864 5.01905 5.69815 5.22905C6.57132 6.06102 6.85303 6.39393 7.88595 7.27778Z" fill="#777777"/>
<path d="M7.3171 11.5954C6.92076 10.6078 4.57076 10.3953 3.63357 10.2643C3.54576 10.2526 3.50186 10.2013 3.50186 10.1655V10.1643V10.1631C3.50186 10.1272 3.54576 10.0772 3.63357 10.0655C4.57076 9.93576 6.92137 9.72205 7.3171 8.73382C7.40003 8.52629 7.3293 8.28664 7.13296 8.04638C6.2671 6.99082 5.94332 6.70423 5.12869 5.81235C4.92259 5.58629 4.5982 5.49549 4.3171 5.75614C3.19698 6.79873 2.17991 7.7042 0.154907 9.11614C0.104297 9.15135 0.0085651 9.24523 0.0128334 9.4157C0.0128334 9.4157 0.023809 9.87647 0.023809 10.1637V10.1649V10.1661C0.023809 10.4552 0.0128334 10.9147 0.0128334 10.9147C0.00917486 11.0852 0.104297 11.1803 0.154907 11.2143C2.17991 12.6262 3.19698 13.5323 4.3171 14.5743C4.5982 14.8362 4.92259 14.7441 5.12869 14.5193C5.94271 13.6274 6.26649 13.3396 7.13296 12.2847C7.3293 12.0438 7.40064 11.8035 7.3171 11.5954Z" fill="#777777"/>
<path d="M12.0305 13.0512C11.7957 12.8517 11.561 12.7788 11.3579 12.8622C10.3909 13.2692 10.1835 15.6688 10.0555 16.6274C10.0445 16.7182 9.99329 16.7626 9.95854 16.7626H9.95732C9.92195 16.7626 9.87317 16.7182 9.86037 16.6274C9.73354 15.6688 9.525 13.2692 8.55732 12.8622C8.35488 12.7788 8.12012 12.8511 7.88658 13.0512C6.85305 13.935 6.57256 14.2686 5.69878 15.1005C5.47927 15.3118 5.38963 15.641 5.64451 15.9282C6.66463 17.0733 7.55061 18.114 8.9311 20.1825C8.96585 20.2332 9.05793 20.332 9.22622 20.3283C9.22622 20.3283 9.67683 20.3166 9.95793 20.3166H9.95915C10.2415 20.3166 10.6921 20.3283 10.6921 20.3283C10.8604 20.332 10.9524 20.2332 10.9854 20.1825C12.3665 18.114 13.2524 17.0733 14.2732 15.9282C14.5274 15.641 14.439 15.3118 14.2177 15.1005C13.3439 14.2679 13.0634 13.935 12.0305 13.0512Z" fill="#777777"/>
<path d="M19.892 10.1645V10.1633V10.1621C19.892 9.87425 19.9024 9.41349 19.9024 9.41349C19.9067 9.24302 19.8103 9.14975 19.7609 9.11393C17.7347 7.70199 16.7182 6.79713 15.5969 5.75393C15.3164 5.4939 14.9932 5.58408 14.7871 5.81013C13.9731 6.70202 13.6469 6.98922 12.7823 8.04416C12.5859 8.28443 12.514 8.52531 12.5969 8.73161C12.9939 9.72108 15.3432 9.93293 16.2792 10.0633C16.3689 10.075 16.4121 10.1263 16.4121 10.1608V10.1621V10.1633C16.4121 10.1991 16.3695 10.251 16.2792 10.2621C15.3432 10.3931 12.9939 10.6062 12.5969 11.5938C12.514 11.8007 12.5859 12.0416 12.7823 12.2812C13.6469 13.3362 13.9731 13.624 14.7871 14.5165C14.9932 14.7407 15.3164 14.8327 15.5969 14.5708C16.7176 13.5289 17.7347 12.6234 19.7609 11.2133C19.8097 11.1775 19.906 11.0824 19.9024 10.9119C19.9024 10.9131 19.892 10.4536 19.892 10.1645Z" fill="#777777"/>
</g>
<defs>
<clipPath id="clip0_4028_1277">
<rect width="100" height="21" fill="white"/>
</clipPath>
</defs>
</svg>
