<svg width="47" height="50" viewBox="0 0 47 50" fill="none" xmlns="http://www.w3.org/2000/svg">
<path d="M21.3559 0.302188C16.5693 1.85866 4.41291 8.89583 1.98009 11.6477C1.54468 12.1391 1.16859 12.7823 0.954591 13.4098C-0.254181 16.9532 -0.314833 31.2933 0.771812 35.9236C1.02198 36.9886 1.68324 38.1192 2.55243 38.9062C5.97688 42.008 17.2518 48.4411 21.5818 49.7533C22.6505 50.0774 23.9037 50.0774 24.9153 49.7816C29.233 48.5194 40.916 41.8448 44.1819 38.7749C44.9482 38.0557 45.5494 37.0255 45.7942 36.0322C46.8961 31.5741 46.8576 17.3103 45.6797 13.5358C45.4563 12.8222 45.014 12.0555 44.4514 11.4734C41.652 8.57525 29.6398 1.66203 25.07 0.248518C24.539 0.0845761 23.9384 0 23.324 0C22.6603 0 21.9807 0.0987236 21.3559 0.302188Z" fill="#777777"/>
<path d="M16.4887 14.8786C16.4887 14.8786 15.6024 15.7505 15.002 16.6584C13.471 18.9586 12.3769 20.3754 11.5095 21.2269C11.0692 21.6534 10.5698 21.4337 10.7299 20.5925C10.9491 19.4873 12.2206 15.3016 12.1738 15.0686C12.1339 14.8741 11.9915 14.7817 11.9282 14.7823C11.4879 14.78 10.418 15.0721 8.95252 15.5152C8.08431 15.7768 7.32281 16.1396 6.88885 16.418C6.73516 16.513 6.49537 16.654 6.51607 17.2922C6.54337 18.3104 6.36043 18.9103 6.82459 18.9061C6.89346 17.9275 9.37462 16.9214 11.0165 16.3227C10.2905 18.1299 8.96864 21.2166 8.84848 21.686C8.67409 22.397 8.60667 22.7971 8.96666 23.0227C9.24854 23.2023 9.77288 23.4014 10.1983 23.5004C10.778 23.6372 12.8674 21.0325 15.0908 17.7437C15.2256 17.8085 15.1768 17.8964 15.082 18.1125C14.1229 20.2846 12.1426 23.5673 10.6598 25.7649C9.7895 27.0549 9.46484 27.2787 8.92047 27.5102C8.51251 27.68 7.52924 27.9989 6.98618 27.4629C6.30157 27.6968 5.03116 29.5341 4.88965 30.1843C5.30123 30.3345 6.17207 30.6087 6.73516 30.5233C7.32952 30.437 7.96023 30.325 8.7883 29.4829C10.5737 27.6786 13.4763 23.4167 15.0567 20.7329C15.9905 19.1414 18.1846 16.2964 19.0401 14.432C17.9091 13.9343 16.4887 14.8786 16.4887 14.8786Z" fill="#454545"/>
<path d="M16.3446 20.2605C17.2139 19.7614 19.4866 18.808 20.0582 18.5944C20.6259 18.3815 20.7783 19.3687 20.7836 19.5289C20.795 19.6899 18.6844 23.5901 18.4507 24.0134C18.4906 24.0724 18.5789 24.2714 18.8359 24.1255C19.5855 23.699 20.5573 22.8465 21.0349 22.5489C21.6919 22.1417 21.7254 22.313 21.6693 22.5035C21.6139 22.6987 19.5286 24.6513 18.7899 25.1978C18.2028 25.6328 17.7412 25.4935 16.9171 24.6617C16.533 24.27 16.6606 23.9707 17.2643 23.2672C17.9872 22.4251 20.0056 19.8202 20.0056 19.8202C20.0056 19.8202 16.7944 21.1161 17.2222 21.8714C16.813 21.8358 16.557 21.6926 16.2471 21.2893C15.8724 20.805 15.8176 20.5686 16.3446 20.2605Z" fill="#454545"/>
<path d="M21.6822 22.4858C21.6475 22.2472 21.3902 22.1708 21.2266 22.2498C20.9261 22.3977 20.2955 23.3513 20.2166 23.7241C20.148 24.0521 20.7131 24.4579 21.2293 24.7957C21.4623 24.9429 21.7783 24.9234 21.978 24.7055C22.9303 23.6677 24.8192 20.9249 25.3813 20.1744C26.0042 19.3378 26.1279 19.1514 26.1279 19.1514L25.5832 19.2235C25.5832 19.2235 23.6559 21.5212 22.7753 22.3718C22.3212 22.8113 21.9431 23.2222 21.7148 23.3947C21.7043 23.0265 21.7048 22.6356 21.6822 22.4858Z" fill="#454545"/>
<path d="M25.1939 19.1087C25.2856 18.7091 26.4699 19.0355 26.6929 19.1903C27.1822 19.5485 26.7985 20.0247 26.7985 20.0247C26.7985 20.0247 26.0895 21.6701 25.8333 22.3632C25.7137 22.6834 25.6412 22.9406 25.5917 23.1352C25.4792 23.5403 25.8137 23.5377 25.9595 23.4548C26.3522 23.2337 27.4602 22.5575 28.2175 21.9682C29.3097 21.1241 30.1588 20.5708 30.2773 20.2639C30.3795 20.0109 29.86 19.5948 29.6412 19.6759C29.4252 19.7615 29.0679 20.4056 28.7136 21.4723C28.4949 22.1285 28.3906 22.8162 28.4068 23.0599C28.4219 23.3083 28.6958 23.5215 28.9933 23.3102C30.0664 22.5575 32.9545 20.1699 32.9545 20.1699L33.1052 20.5747C33.1052 20.5747 29.8045 23.6992 28.6185 24.3824C28.0125 24.7318 27.7661 24.4102 27.2353 23.8729C26.9433 23.5714 27.2702 22.0992 27.9672 21.0703C28.3872 20.4412 29.4948 18.9771 30.0146 18.5874C30.5426 18.2008 31.3231 18.2867 31.3795 18.4895C31.5006 18.9063 31.8845 19.5451 31.475 20.0802C31.0885 20.5774 26.9499 23.4567 25.926 24.1148C25.1787 24.5976 24.9389 24.8506 24.5843 24.6022C24.0468 24.2236 24.034 23.9494 24.2441 23.4949C24.6377 22.6425 25.7299 20.5374 25.6755 20.3419C25.5493 19.8711 24.9435 19.9567 24.9435 19.9567L25.1939 19.1087Z" fill="#454545"/>
<path d="M34.3602 16.61C34.7458 16.3714 35.3121 17.2517 35.4341 17.4841C35.6003 17.8236 34.5227 18.9801 33.6317 19.8899C33.6094 20.4338 33.635 20.4631 33.792 20.547C33.9956 20.6652 34.5645 20.6228 35.343 19.851C35.751 20.0103 35.9665 20.327 36.0787 20.5179C36.1886 20.7112 35.8997 21.8886 35.5875 22.5641C35.2798 23.2357 35.1311 23.6376 35.6408 23.3453C36.7746 22.6885 38.553 21.2162 38.9844 20.8598C39.4062 20.5013 39.5766 20.2364 39.1768 19.9133C38.9403 19.7221 38.6649 19.4995 38.3378 20.3612C38.0417 21.1385 37.8081 22.5471 37.8229 22.7449C37.8321 22.942 37.8124 23.3595 38.2829 23.3272C39.2229 23.2682 40.4426 22.0467 41.1915 21.3421C41.8617 21.2449 42.4441 21.3128 42.5938 21.5054C42.6573 21.7006 41.2602 22.822 40.492 23.3478C39.6447 23.9275 38.2977 24.448 37.8232 24.0862C37.4702 23.8217 36.62 22.7546 36.8437 21.8581C37.0628 20.9661 38.504 19.0235 38.9159 18.8371C39.3308 18.6517 40.4959 19.0757 40.9092 19.3104C41.3228 19.5425 41.1793 20.1706 40.6124 20.5904C39.5124 21.4016 35.9395 23.8573 34.8271 24.3643C34.5691 24.4863 34.3227 24.4194 33.9868 24.1179C33.7722 23.9308 33.6252 23.7161 33.6702 23.5663C33.9292 22.7423 34.9781 21.0386 35.2318 20.547C34.1898 21.4484 32.6763 21.6494 32.4877 20.3038C32.2557 18.6296 34.1243 16.7872 34.3602 16.61Z" fill="#454545"/>
<path d="M23.9869 27.6592C21.3795 27.8927 15.1199 28.8476 13.4447 29.3799C11.2493 30.0781 10.994 31.2566 10.9661 32.393C10.9186 34.2797 13.1054 33.5548 14.8053 32.8786C16.4202 32.2374 17.8175 31.3824 17.8175 31.3824C17.8175 31.3824 17.2692 31.993 16.549 33.1185C15.8304 34.2405 12.7319 39.1858 11.5312 40.7902C12.0854 41.6367 14.2288 40.8655 14.4124 40.4105C14.7718 39.5158 18.5475 32.1642 19.3191 31.0297C19.4859 30.7878 18.1387 30.2783 18.1387 30.2783C18.1387 30.2783 17.5776 31.0659 16.3082 31.5717C15.361 31.947 13.3979 32.8117 13.5114 31.6923C13.5931 30.8638 13.7687 30.3638 14.3904 30.1584C16.6346 29.4246 20.9313 28.9434 23.0038 28.7302C28.4112 28.1825 33.856 28.2906 39.2576 28.2149C39.9348 28.2077 40.6721 27.7689 41.1917 26.6395C39.0984 26.5456 28.7366 27.2399 23.9869 27.6592Z" fill="#454545"/>
<path d="M20.7678 30.5044C20.5028 30.883 18.229 36.6722 18.0314 37.0703C17.837 37.4685 18.104 38.4842 18.211 38.7997C18.3204 39.1304 18.6144 39.0856 18.8141 38.9372C19.0078 38.778 20.8499 33.6201 21.2032 32.7008C21.5551 31.7822 22.1236 30.6154 22.1236 30.6154C22.1236 30.6154 21.97 30.391 21.6339 30.334C21.2732 30.2711 20.7678 30.5044 20.7678 30.5044Z" fill="#454545"/>
<path d="M24.8215 33.9751C24.7245 34.19 24.9364 34.3752 25.0734 34.6651C25.2091 34.955 24.3881 36.8518 22.8912 37.3223C22.4551 37.4579 22.3882 36.2665 22.548 35.8029C22.7416 35.2199 23.5666 33.7537 24.265 33.9649C24.394 33.4158 24.5844 31.8704 24.0031 31.8088C23.4703 31.7523 22.7649 32.8227 22.4111 33.4431C22.0636 34.0597 21.6001 34.8362 21.5501 35.1149C21.3943 35.946 21.6069 37.1124 21.8246 37.5921C21.9728 37.8995 22.2299 38.2571 22.63 38.1495C23.1737 38.014 23.7382 37.752 24.4768 37.2529C25.2805 36.7041 26.5233 35.4199 26.5914 34.8964C26.6654 34.2742 26.2056 33.4638 25.7929 33.1486C25.5929 33.1378 25.0696 33.4069 24.8215 33.9751Z" fill="#454545"/>
<path d="M31.9029 30.2329C31.5167 30.2019 28.7791 30.48 27.6888 30.6459C26.9604 30.7581 25.6965 30.8714 25.3617 31.3602C25.1403 31.6856 25.6644 33.4425 25.6644 33.4425C25.6644 33.4425 25.8199 33.7258 25.8587 33.4906C25.8983 33.2533 25.7973 32.686 26.5161 32.3313C27.0304 32.074 28.557 31.4809 29.6774 31.1684C30.796 30.852 32.1025 30.6704 32.1025 30.6704C32.1025 30.6704 32.2968 30.2594 31.9029 30.2329Z" fill="#454545"/>
<path d="M30.7733 30.5424C30.1848 31.3508 27.9613 34.8807 27.4621 35.4325C27.0828 35.8573 26.9137 35.9198 26.7663 35.9873C26.6943 36.1623 27.4922 36.4782 27.6672 36.5502C28.097 36.7101 28.2796 36.3525 28.5621 35.8991C28.8497 35.4421 30.3698 32.5288 30.9709 31.056C31.0976 30.8278 31.2319 30.8835 31.287 30.8445C31.2795 31.076 31.1579 31.6666 31.0917 31.9064C31.0263 32.1417 30.5048 34.4579 30.5054 34.763C30.5054 35.0663 31.2674 35.4582 31.5963 35.6023C32.0128 35.7862 32.7842 35.3137 33.157 35.0176C33.6772 34.5988 35.9649 32.7181 36.5558 32.2631C37.1451 31.8137 37.4771 31.6128 37.7196 31.1875C37.9259 30.8405 37.4745 30.1016 37.051 29.7839C36.6509 29.4819 36.0814 29.6816 35.6263 30.127C35.1601 30.5716 34.3365 31.6749 34.0259 32.711C33.7726 33.5538 33.4672 34.6146 33.8081 34.9676C34.2875 35.4628 34.7705 35.9445 35.4128 35.7112C36.3926 35.3411 38.6264 33.8752 39.1282 33.4636C39.6135 33.0681 38.1463 32.4153 38.1463 32.4153C38.1463 32.4153 37.9193 32.8108 37.5745 33.1188C37.1691 33.4745 36.1031 34.3227 35.7096 34.5119C35.2976 34.7123 34.1181 34.6751 34.4175 33.4396C34.6544 32.4639 35.0798 31.2005 35.7277 30.8868C36.0958 30.7058 36.2258 31.1092 36.291 31.2802C36.4176 31.6089 35.3098 32.4374 34.3112 33.3791C33.5811 34.0684 32.82 34.5711 32.5324 34.7452C32.2671 34.913 31.9448 34.4724 31.9794 34.1793C32.0404 33.7558 32.5423 30.6766 32.5423 30.2811C32.5396 29.8417 30.7733 30.5424 30.7733 30.5424Z" fill="#454545"/>
<path d="M23.1909 10.5597C23.1656 11.6457 23.9284 13.6057 25.2829 13.3798C27.0014 13.0942 26.9152 10.7843 26.389 9.53411C25.7831 8.09326 24.1747 7.65253 23.0193 8.18434C21.9419 8.68074 21.495 9.85435 21.5112 10.9759C21.534 12.5141 21.9605 14.054 22.8195 15.3315C23.6843 16.6202 25.8205 15.913 26.8717 15.2884C27.7112 14.7888 31.2993 12.376 29.8533 10.9737C28.7914 9.94382 26.9514 10.8479 26.0611 11.6457C25.8628 11.8246 26.497 11.8893 26.6562 11.7467C28.3832 10.1984 29.4386 11.8569 28.3631 13.2894C27.6219 14.2761 25.1938 16.2238 24.076 15.1989C23.0615 14.2667 22.0956 10.5477 22.7963 9.12052C23.4274 7.83564 24.7811 8.69848 25.264 9.72636C25.7876 10.844 25.753 13.0916 25.0497 12.6958C24.347 12.302 24.0217 11.0745 24.04 10.3348C24.0434 10.1779 23.1968 10.2989 23.1909 10.5597Z" fill="#454545"/>
<path d="M16.1365 14.5304C16.1365 14.5304 15.2496 15.4013 14.6491 16.3093C13.1181 18.6107 12.0248 20.0268 11.1572 20.8781C10.7171 21.3046 10.2174 21.0861 10.3778 20.2443C10.5962 19.1387 11.8678 14.9537 11.8212 14.72C11.781 14.5255 11.6387 14.4331 11.5754 14.4341C11.1351 14.4318 10.0652 14.7236 8.60033 15.1674C7.73213 15.4285 6.97059 15.7914 6.53667 16.0695C6.38298 16.1648 6.14315 16.3053 6.16454 16.9444C6.19132 17.9618 6.00822 18.5611 6.47175 18.5579C6.54062 17.5789 9.02192 16.5732 10.6643 15.9751C9.93829 17.7813 8.61577 20.869 8.49626 21.3377C8.32188 22.0482 8.25383 22.4488 8.61379 22.6738C8.8957 22.8541 9.42136 23.0524 9.84541 23.1515C10.4258 23.2883 12.5151 20.6843 14.7385 17.3948C14.8741 17.4601 14.8241 17.5479 14.7299 17.7641C13.77 19.9358 11.7897 23.2191 10.3076 25.4167C9.43679 26.706 9.11283 26.9297 8.56829 27.162C8.16032 27.331 7.17706 27.6506 6.63347 27.1146C5.94873 27.3486 4.67829 29.1859 4.5376 29.836C4.94836 29.9863 5.81985 30.2599 6.38298 30.175C6.97602 30.0888 7.6072 29.9768 8.43612 29.1346C10.2215 27.3304 13.1236 23.0685 14.7039 20.3837C15.6383 18.7932 17.8316 15.9485 18.6886 14.0834C17.5574 13.5855 16.1365 14.5304 16.1365 14.5304Z" fill="white"/>
<path d="M15.9923 19.9123C16.8617 19.4128 19.1348 18.46 19.7059 18.2458C20.2735 18.0328 20.4259 19.0201 20.4325 19.18C20.4433 19.3414 18.332 23.2411 18.0981 23.6651C18.1375 23.7241 18.2263 23.9231 18.4836 23.7773C19.2336 23.3507 20.2055 22.4976 20.6829 22.1999C21.3395 21.7935 21.3743 21.9647 21.3176 22.1553C21.2621 22.351 19.1763 24.3031 18.4382 24.8489C17.851 25.2846 17.3895 25.1453 16.5654 24.3135C16.1818 23.9218 16.3081 23.6229 16.9125 22.919C17.6346 22.0768 19.6531 19.4719 19.6531 19.4719C19.6531 19.4719 16.4425 20.7679 16.8697 21.5232C16.4605 21.4875 16.2053 21.3444 15.8954 20.9411C15.5206 20.4571 15.4653 20.2204 15.9923 19.9123Z" fill="white"/>
<path d="M21.3301 22.1389C21.2949 21.9015 21.039 21.8238 20.874 21.9035C20.5735 22.0513 19.9429 23.005 19.864 23.3777C19.796 23.7058 20.3611 24.1116 20.8767 24.45C21.1104 24.5966 21.4263 24.5763 21.6254 24.36C22.5784 23.3208 24.4673 20.5785 25.0292 19.8281C25.6516 18.9905 25.775 18.8047 25.775 18.8047L25.2306 18.8771C25.2306 18.8771 23.3033 21.1743 22.4229 22.0253C21.9701 22.465 21.5914 22.8759 21.3629 23.0477C21.3517 22.6795 21.3531 22.2893 21.3301 22.1389Z" fill="white"/>
<path d="M24.842 18.7596C24.9337 18.3596 26.1171 18.6865 26.3411 18.8416C26.8305 19.1997 26.4466 19.6755 26.4466 19.6755C26.4466 19.6755 25.737 21.3209 25.4804 22.0138C25.3616 22.3343 25.2895 22.5915 25.2394 22.7861C25.127 23.1912 25.4612 23.188 25.6067 23.1057C26.001 22.8846 27.1068 22.2084 27.8656 21.6191C28.9572 20.7744 29.806 20.222 29.9254 19.9147C30.027 19.6623 29.5076 19.2451 29.2897 19.3266C29.0724 19.4121 28.7161 20.0568 28.3618 21.1232C28.1414 21.7793 28.0374 22.4665 28.0546 22.7101C28.0701 22.9592 28.3439 23.1724 28.6414 22.9611C29.7146 22.2084 32.6025 19.8205 32.6025 19.8205L32.7522 20.2253C32.7522 20.2253 29.4511 23.35 28.2674 24.0327C27.66 24.3827 27.4136 24.0605 26.8825 23.5232C26.5913 23.2223 26.9172 21.7501 27.6148 20.7207C28.0341 20.0914 29.1426 18.628 29.6625 18.2386C30.1895 17.8513 30.9696 17.9366 31.0274 18.14C31.1493 18.5572 31.532 19.1954 31.1217 19.7303C30.7366 20.2279 26.5972 23.1076 25.5732 23.7648C24.8266 24.2485 24.5868 24.5015 24.232 24.2531C23.6933 23.8745 23.6817 23.5996 23.892 23.1458C24.2858 22.2933 25.3778 20.1884 25.3236 19.9926C25.1971 19.5222 24.591 19.6069 24.591 19.6069L24.842 18.7596Z" fill="white"/>
<path d="M34.0084 16.2624C34.3937 16.0235 34.9613 16.9032 35.0817 17.1356C35.2482 17.475 34.1703 18.6323 33.28 19.5418C33.2576 20.0856 33.2832 20.1146 33.4402 20.1985C33.6422 20.3167 34.2127 20.2739 34.9909 19.5025C35.3986 19.6628 35.6151 19.9785 35.7269 20.1693C35.8365 20.3625 35.5483 21.5404 35.2357 22.2158C34.9284 22.8876 34.7793 23.2895 35.289 22.997C36.4222 22.3398 38.2009 20.8687 38.6316 20.5113C39.0541 20.1531 39.2248 19.8879 38.8241 19.5648C38.5882 19.3745 38.3137 19.1519 37.9854 20.0127C37.6899 20.791 37.4563 22.1991 37.4704 22.3967C37.4803 22.5945 37.4602 23.0107 37.9304 22.9783C38.8701 22.9199 40.0912 21.6979 40.84 20.9933C41.5099 20.8973 42.0913 20.9653 42.2427 21.1566C42.3045 21.3517 40.9081 22.474 40.1385 22.9997C39.2926 23.5786 37.9452 24.0991 37.4724 23.7381C37.119 23.473 36.2675 22.4065 36.4909 21.5093C36.7094 20.6179 38.1515 18.6753 38.5651 18.4896C38.9787 18.3035 40.1441 18.7276 40.5577 18.9628C40.9703 19.194 40.8272 19.8225 40.2599 20.2416C39.1607 21.0535 35.5874 23.5092 34.4746 24.0161C34.2173 24.1368 33.9719 24.0713 33.635 23.7699C33.4208 23.5825 33.2737 23.3678 33.3188 23.2174C33.5764 22.3942 34.6257 20.6898 34.8797 20.1985C33.838 21.1002 32.3254 21.3012 32.1357 19.9553C31.9034 18.2815 33.7725 16.4387 34.0084 16.2624Z" fill="white"/>
<path d="M23.6358 27.3113C21.0269 27.5434 14.7679 28.4996 13.0927 29.0313C10.8967 29.7301 10.6421 30.908 10.6135 32.045C10.5667 33.9317 12.7534 33.2062 14.4533 32.5293C16.067 31.8888 17.4649 31.0339 17.4649 31.0339C17.4649 31.0339 16.9172 31.6437 16.1972 32.7699C15.4785 33.8916 12.38 38.8372 11.1793 40.4422C11.7329 41.2881 13.8762 40.5162 14.0605 40.0619C14.4191 39.1666 18.1955 31.8155 18.9671 30.6817C19.1332 30.4392 17.7861 29.9297 17.7861 29.9297C17.7861 29.9297 17.2251 30.7173 15.9547 31.2231C15.0098 31.599 13.046 32.4626 13.1594 31.3431C13.2405 30.5152 13.4161 30.0154 14.038 29.8092C16.2827 29.0753 20.5796 28.5956 22.6512 28.3816C28.0595 27.8339 33.5034 27.9414 38.9063 27.8662C39.5818 27.8584 40.3198 27.4197 40.8397 26.2909C38.7468 26.1969 28.3838 26.8912 23.6358 27.3113Z" fill="white"/>
<path d="M20.4156 30.1562C20.1506 30.5349 17.8768 36.324 17.6799 36.7222C17.4842 37.1193 17.7526 38.136 17.8583 38.4515C17.9683 38.7815 18.2617 38.7381 18.4614 38.5894C18.655 38.4298 20.4971 33.2726 20.8505 32.3521C21.2031 31.434 21.7708 30.2672 21.7708 30.2672C21.7708 30.2672 21.6171 30.0428 21.2817 29.9852C20.9205 29.9229 20.4156 30.1562 20.4156 30.1562Z" fill="white"/>
<path d="M24.4692 33.6275C24.3723 33.8427 24.5835 34.0269 24.7206 34.3168C24.8562 34.6073 24.0358 36.5035 22.5377 36.9747C22.1023 37.1102 22.0361 35.9178 22.1952 35.4546C22.3895 34.8722 23.2151 33.4067 23.9137 33.6166C24.0421 33.0681 24.232 31.5227 23.6509 31.4611C23.1169 31.4046 22.4122 32.4743 22.0589 33.0961C21.7108 33.7111 21.248 34.4892 21.1979 34.7672C21.0415 35.599 21.254 36.7648 21.4725 37.2445C21.6214 37.5525 21.8778 37.9095 22.2772 37.8019C22.8216 37.6656 23.3859 37.4044 24.1239 36.9053C24.9282 36.3561 26.1713 35.0726 26.2395 34.5488C26.3135 33.9266 25.8526 33.1155 25.4405 32.8011C25.2409 32.79 24.7172 33.0583 24.4692 33.6275Z" fill="white"/>
<path d="M31.5507 29.8832C31.1638 29.8527 28.4268 30.1308 27.3369 30.2974C26.6081 30.4089 25.3446 30.5224 25.0098 31.0119C24.788 31.3373 25.3118 33.0941 25.3118 33.0941C25.3118 33.0941 25.4677 33.3774 25.5066 33.1411C25.5461 32.9042 25.4452 32.3376 26.1625 31.983C26.6781 31.7256 28.2052 31.133 29.3245 30.82C30.4439 30.5036 31.7502 30.3213 31.7502 30.3213C31.7502 30.3213 31.9449 29.9105 31.5507 29.8832Z" fill="white"/>
<path d="M30.4205 30.1959C29.8324 31.0037 27.6085 34.5342 27.1096 35.0867C26.7302 35.5104 26.5612 35.5736 26.4138 35.6401C26.3416 35.8164 27.141 36.131 27.3152 36.203C27.7441 36.3643 27.9279 36.006 28.2095 35.5526C28.4975 35.0949 30.0179 32.1822 30.6187 30.7087C30.7457 30.4818 30.8801 30.5369 30.9341 30.4981C30.9272 30.7294 30.8061 31.3208 30.7392 31.5591C30.6737 31.7952 30.1523 34.1121 30.1535 34.4164C30.1535 34.7198 30.9147 35.1113 31.244 35.2558C31.66 35.4407 32.4316 34.9672 32.8042 34.6704C33.3244 34.2522 35.6125 32.3715 36.2047 31.9158C36.793 31.4673 37.1243 31.2657 37.3675 30.8409C37.5741 30.4929 37.1214 29.7546 36.6992 29.4375C36.2991 29.1354 35.7289 29.3345 35.2749 29.7797C34.8073 30.2256 33.9844 31.3283 33.6738 32.3644C33.4208 33.2072 33.1155 34.2684 33.4557 34.6204C33.9357 35.1163 34.4178 35.5986 35.0597 35.364C36.0402 34.9945 38.2736 33.5287 38.7754 33.1164C39.2617 32.7209 37.7936 32.0689 37.7936 32.0689C37.7936 32.0689 37.5662 32.4636 37.2217 32.7721C36.8174 33.1283 35.752 33.9752 35.3575 34.1647C34.9455 34.3651 33.766 34.3289 34.065 33.0937C34.3023 32.1173 34.7274 30.8546 35.3759 30.5402C35.7431 30.3592 35.8724 30.7626 35.9379 30.933C36.0652 31.2624 34.9564 32.0902 33.9584 33.0335C33.2283 33.7205 32.4676 34.2243 32.1799 34.398C31.9152 34.5661 31.5926 34.1246 31.6267 33.8327C31.6866 33.4096 32.1898 30.3308 32.1898 29.9347C32.1878 29.4951 30.4205 30.1959 30.4205 30.1959Z" fill="white"/>
<path d="M22.8391 10.2122C22.8137 11.2977 23.5758 13.2575 24.9303 13.0319C26.6497 12.7453 26.5626 10.4358 26.0364 9.1856C25.4311 7.74508 23.8221 7.30333 22.6669 7.83616C21.5908 8.3322 21.1426 9.50551 21.1586 10.6274C21.1813 12.1665 21.6087 13.7054 22.4663 14.9836C23.332 16.2718 25.4692 15.5648 26.5207 14.9398C27.3593 14.4407 30.947 12.0274 29.501 10.6251C28.4397 9.59527 26.5986 10.4991 25.7084 11.2977C25.5108 11.4764 26.1447 11.5411 26.3036 11.3982C28.0315 9.84951 29.087 11.5091 28.0112 12.9414C27.2695 13.9275 24.8421 15.8756 23.7241 14.8507C22.7097 13.9191 21.7438 10.1995 22.4444 8.77201C23.0748 7.48778 24.4301 8.35026 24.9124 9.37847C25.4357 10.4958 25.4011 12.7433 24.6974 12.348C23.9943 11.9531 23.67 10.7256 23.6868 9.98629C23.6914 9.82931 22.8444 9.95065 22.8391 10.2122Z" fill="white"/>
<path d="M21.6822 22.4868C21.6475 22.2482 21.3902 22.1717 21.2266 22.2508C20.9261 22.3986 20.2955 23.3523 20.2166 23.725C20.148 24.053 20.7131 24.4589 21.2293 24.7966C21.4623 24.9439 21.7783 24.9243 21.978 24.7065C22.9303 23.6687 24.8192 20.9258 25.3813 20.1754C26.0042 19.3387 26.1279 19.1523 26.1279 19.1523L25.5832 19.2244C25.5832 19.2244 23.6559 21.5222 22.7753 22.3728C22.3212 22.8123 21.9431 23.2232 21.7148 23.3957C21.7043 23.0274 21.7048 22.6366 21.6822 22.4868Z" fill="#454545"/>
<path d="M16.1365 14.5313C16.1365 14.5313 15.2496 15.4023 14.6491 16.3103C13.1181 18.6117 12.0248 20.0278 11.1572 20.8791C10.7171 21.3055 10.2174 21.0871 10.3778 20.2453C10.5962 19.1397 11.8678 14.9547 11.8212 14.721C11.781 14.5265 11.6387 14.4341 11.5754 14.4351C11.1351 14.4328 10.0652 14.7245 8.60033 15.1683C7.73213 15.4295 6.97059 15.7924 6.53667 16.0705C6.38298 16.1657 6.14315 16.3063 6.16454 16.9453C6.19132 17.9628 6.00822 18.5621 6.47175 18.5589C6.54062 17.5799 9.02192 16.5741 10.6643 15.9761C9.93829 17.7823 8.61577 20.87 8.49626 21.3387C8.32188 22.0492 8.25383 22.4497 8.61379 22.6748C8.8957 22.8551 9.42136 23.0534 9.84541 23.1524C10.4258 23.2893 12.5151 20.6853 14.7385 17.3958C14.8741 17.4611 14.8241 17.5489 14.7299 17.765C13.77 19.9368 11.7897 23.22 10.3076 25.4176C9.43679 26.707 9.11283 26.9307 8.56829 27.163C8.16032 27.332 7.17706 27.6516 6.63347 27.1156C5.94873 27.3496 4.67829 29.1869 4.5376 29.837C4.94836 29.9873 5.81985 30.2609 6.38298 30.176C6.97602 30.0898 7.6072 29.9778 8.43612 29.1356C10.2215 27.3314 13.1236 23.0695 14.7039 20.3847C15.6383 18.7942 17.8316 15.9495 18.6886 14.0844C17.5574 13.5865 16.1365 14.5313 16.1365 14.5313Z" fill="white"/>
<path d="M15.9923 19.9133C16.8617 19.4137 19.1348 18.4609 19.7059 18.2467C20.2735 18.0338 20.4259 19.0211 20.4325 19.181C20.4433 19.3424 18.332 23.2421 18.0981 23.6661C18.1375 23.7251 18.2263 23.9241 18.4836 23.7782C19.2336 23.3517 20.2055 22.4985 20.6829 22.2009C21.3395 21.7945 21.3743 21.9657 21.3176 22.1563C21.2621 22.352 19.1763 24.3041 18.4382 24.8498C17.851 25.2855 17.3895 25.1463 16.5654 24.3144C16.1818 23.9228 16.3081 23.6239 16.9125 22.92C17.6346 22.0778 19.6531 19.4729 19.6531 19.4729C19.6531 19.4729 16.4425 20.7688 16.8697 21.5242C16.4605 21.4885 16.2053 21.3453 15.8954 20.942C15.5206 20.458 15.4653 20.2214 15.9923 19.9133Z" fill="white"/>
<path d="M21.3301 22.1389C21.2949 21.9015 21.039 21.8238 20.874 21.9035C20.5735 22.0513 19.9429 23.005 19.864 23.3777C19.796 23.7058 20.3611 24.1116 20.8767 24.45C21.1104 24.5966 21.4263 24.5763 21.6254 24.36C22.5784 23.3208 24.4673 20.5785 25.0292 19.8281C25.6516 18.9905 25.775 18.8047 25.775 18.8047L25.2306 18.8771C25.2306 18.8771 23.3033 21.1743 22.4229 22.0253C21.9701 22.465 21.5914 22.8759 21.3629 23.0477C21.3517 22.6795 21.3531 22.2893 21.3301 22.1389Z" fill="white"/>
<path d="M24.842 18.7586C24.9337 18.3587 26.1171 18.6855 26.3411 18.8406C26.8305 19.1987 26.4466 19.6746 26.4466 19.6746C26.4466 19.6746 25.737 21.32 25.4804 22.0128C25.3616 22.3333 25.2895 22.5905 25.2394 22.7851C25.127 23.1902 25.4612 23.187 25.6067 23.1047C26.001 22.8836 27.1068 22.2074 27.8656 21.6181C28.9572 20.7734 29.806 20.2211 29.9254 19.9138C30.027 19.6613 29.5076 19.2441 29.2897 19.3256C29.0724 19.4111 28.7161 20.0558 28.3618 21.1223C28.1414 21.7784 28.0374 22.4655 28.0546 22.7091C28.0701 22.9582 28.3439 23.1714 28.6414 22.9601C29.7146 22.2074 32.6025 19.8195 32.6025 19.8195L32.7522 20.2243C32.7522 20.2243 29.4511 23.349 28.2674 24.0318C27.66 24.3817 27.4136 24.0596 26.8825 23.5222C26.5913 23.2213 26.9172 21.7491 27.6148 20.7197C28.0341 20.0904 29.1426 18.627 29.6625 18.2376C30.1895 17.8503 30.9696 17.9356 31.0274 18.1391C31.1493 18.5563 31.532 19.1945 31.1217 19.7294C30.7366 20.2269 26.5972 23.1066 25.5732 23.7639C24.8266 24.2475 24.5868 24.5005 24.232 24.2522C23.6933 23.8735 23.6817 23.5986 23.892 23.1448C24.2858 22.2923 25.3778 20.1874 25.3236 19.9916C25.1971 19.5212 24.591 19.6059 24.591 19.6059L24.842 18.7586Z" fill="white"/>
<path d="M34.0084 16.2634C34.3937 16.0245 34.9613 16.9042 35.0817 17.1366C35.2482 17.476 34.1703 18.6332 33.28 19.5427C33.2576 20.0865 33.2832 20.1156 33.4402 20.1995C33.6422 20.3177 34.2127 20.2749 34.9909 19.5035C35.3986 19.6638 35.6151 19.9794 35.7269 20.1702C35.8365 20.3634 35.5483 21.5414 35.2357 22.2168C34.9284 22.8886 34.7793 23.2905 35.289 22.998C36.4222 22.3408 38.2009 20.8696 38.6316 20.5123C39.0541 20.1541 39.2248 19.8889 38.8241 19.5658C38.5882 19.3755 38.3137 19.1529 37.9854 20.0137C37.6899 20.792 37.4563 22.2001 37.4704 22.3977C37.4803 22.5954 37.4602 23.0117 37.9304 22.9793C38.8701 22.9209 40.0912 21.6989 40.84 20.9943C41.5099 20.8983 42.0913 20.9663 42.2427 21.1575C42.3045 21.3527 40.9081 22.4749 40.1385 23.0007C39.2926 23.5796 37.9452 24.1001 37.4724 23.739C37.119 23.474 36.2675 22.4075 36.4909 21.5103C36.7094 20.6189 38.1515 18.6763 38.5651 18.4905C38.9787 18.3045 40.1441 18.7285 40.5577 18.9638C40.9703 19.195 40.8272 19.8234 40.2599 20.2426C39.1607 21.0545 35.5874 23.5102 34.4746 24.0171C34.2173 24.1378 33.9719 24.0723 33.635 23.7709C33.4208 23.5835 33.2737 23.3688 33.3188 23.2184C33.5764 22.3952 34.6257 20.6908 34.8797 20.1995C33.838 21.1012 32.3254 21.3022 32.1357 19.9563C31.9034 18.2824 33.7725 16.4397 34.0084 16.2634Z" fill="white"/>
<path d="M23.6358 27.3123C21.0269 27.5443 14.7679 28.5005 13.0927 29.0323C10.8967 29.7311 10.6421 30.909 10.6135 32.0459C10.5667 33.9327 12.7534 33.2072 14.4533 32.5303C16.067 31.8898 17.4649 31.0348 17.4649 31.0348C17.4649 31.0348 16.9172 31.6447 16.1972 32.7709C15.4785 33.8926 12.38 38.8382 11.1793 40.4432C11.7329 41.2891 13.8762 40.5172 14.0605 40.0628C14.4191 39.1675 18.1955 31.8165 18.9671 30.6827C19.1332 30.4402 17.7861 29.9307 17.7861 29.9307C17.7861 29.9307 17.2251 30.7183 15.9547 31.224C15.0098 31.6 13.046 32.4636 13.1594 31.3441C13.2405 30.5162 13.4161 30.0164 14.038 29.8101C16.2827 29.0763 20.5796 28.5965 22.6512 28.3826C28.0595 27.8349 33.5034 27.9424 38.9063 27.8672C39.5818 27.8594 40.3198 27.4207 40.8397 26.2918C38.7468 26.1979 28.3838 26.8922 23.6358 27.3123Z" fill="white"/>
<path d="M20.4156 30.1562C20.1506 30.5349 17.8768 36.324 17.6799 36.7222C17.4842 37.1193 17.7526 38.136 17.8583 38.4515C17.9683 38.7815 18.2617 38.7381 18.4614 38.5894C18.655 38.4298 20.4971 33.2726 20.8505 32.3521C21.2031 31.434 21.7708 30.2672 21.7708 30.2672C21.7708 30.2672 21.6171 30.0428 21.2817 29.9852C20.9205 29.9229 20.4156 30.1562 20.4156 30.1562Z" fill="white"/>
<path d="M24.4692 33.6275C24.3723 33.8427 24.5835 34.0269 24.7206 34.3168C24.8562 34.6073 24.0358 36.5035 22.5377 36.9747C22.1023 37.1102 22.0361 35.9178 22.1952 35.4546C22.3895 34.8722 23.2151 33.4067 23.9137 33.6166C24.0421 33.0681 24.232 31.5227 23.6509 31.4611C23.1169 31.4046 22.4122 32.4743 22.0589 33.0961C21.7108 33.7111 21.248 34.4892 21.1979 34.7672C21.0415 35.599 21.254 36.7648 21.4725 37.2445C21.6214 37.5525 21.8778 37.9095 22.2772 37.8019C22.8216 37.6656 23.3859 37.4044 24.1239 36.9053C24.9282 36.3561 26.1713 35.0726 26.2395 34.5488C26.3135 33.9266 25.8526 33.1155 25.4405 32.8011C25.2409 32.79 24.7172 33.0583 24.4692 33.6275Z" fill="white"/>
<path d="M31.5507 29.8832C31.1638 29.8527 28.4268 30.1308 27.3369 30.2974C26.6081 30.4089 25.3446 30.5224 25.0098 31.0119C24.788 31.3373 25.3118 33.0941 25.3118 33.0941C25.3118 33.0941 25.4677 33.3774 25.5066 33.1411C25.5461 32.9042 25.4452 32.3376 26.1625 31.983C26.6781 31.7256 28.2052 31.133 29.3245 30.82C30.4439 30.5036 31.7502 30.3213 31.7502 30.3213C31.7502 30.3213 31.9449 29.9105 31.5507 29.8832Z" fill="white"/>
<path d="M30.4205 30.1959C29.8324 31.0037 27.6085 34.5342 27.1096 35.0867C26.7302 35.5104 26.5612 35.5736 26.4138 35.6401C26.3416 35.8164 27.141 36.131 27.3152 36.203C27.7441 36.3643 27.9279 36.006 28.2095 35.5526C28.4975 35.0949 30.0179 32.1822 30.6187 30.7087C30.7457 30.4818 30.8801 30.5369 30.9341 30.4981C30.9272 30.7294 30.8061 31.3208 30.7392 31.5591C30.6737 31.7952 30.1523 34.1121 30.1535 34.4164C30.1535 34.7198 30.9147 35.1113 31.244 35.2558C31.66 35.4407 32.4316 34.9672 32.8042 34.6704C33.3244 34.2522 35.6125 32.3715 36.2047 31.9158C36.793 31.4673 37.1243 31.2657 37.3675 30.8409C37.5741 30.4929 37.1214 29.7546 36.6992 29.4375C36.2991 29.1354 35.7289 29.3345 35.2749 29.7797C34.8073 30.2256 33.9844 31.3283 33.6738 32.3644C33.4208 33.2072 33.1155 34.2684 33.4557 34.6204C33.9357 35.1163 34.4178 35.5986 35.0597 35.364C36.0402 34.9945 38.2736 33.5287 38.7754 33.1164C39.2617 32.7209 37.7936 32.0689 37.7936 32.0689C37.7936 32.0689 37.5662 32.4636 37.2217 32.7721C36.8174 33.1283 35.752 33.9752 35.3575 34.1647C34.9455 34.3651 33.766 34.3289 34.065 33.0937C34.3023 32.1173 34.7274 30.8546 35.3759 30.5402C35.7431 30.3592 35.8724 30.7626 35.9379 30.933C36.0652 31.2624 34.9564 32.0902 33.9584 33.0335C33.2283 33.7205 32.4676 34.2243 32.1799 34.398C31.9152 34.5661 31.5926 34.1246 31.6267 33.8327C31.6866 33.4096 32.1898 30.3308 32.1898 29.9347C32.1878 29.4951 30.4205 30.1959 30.4205 30.1959Z" fill="white"/>
<path d="M22.8391 10.2131C22.8137 11.2986 23.5758 13.2585 24.9303 13.0329C26.6497 12.7463 26.5626 10.4368 26.0364 9.18657C25.4311 7.74606 23.8221 7.3043 22.6669 7.83713C21.5908 8.33317 21.1426 9.50649 21.1586 10.6284C21.1813 12.1675 21.6087 13.7064 22.4663 14.9846C23.332 16.2727 25.4692 15.5657 26.5207 14.9408C27.3593 14.4417 30.947 12.0284 29.501 10.6261C28.4397 9.59625 26.5986 10.5001 25.7084 11.2986C25.5108 11.4774 26.1447 11.5421 26.3036 11.3992C28.0315 9.85048 29.087 11.5101 28.0112 12.9424C27.2695 13.9285 24.8421 15.8765 23.7241 14.8516C22.7097 13.9201 21.7438 10.2005 22.4444 8.77299C23.0748 7.48876 24.4301 8.35124 24.9124 9.37945C25.4357 10.4968 25.4011 12.7443 24.6974 12.349C23.9943 11.9541 23.67 10.7266 23.6868 9.98726C23.6914 9.83028 22.8444 9.95163 22.8391 10.2131Z" fill="white"/>
</svg>
