<svg width="70" height="75" viewBox="0 0 70 75" fill="none" xmlns="http://www.w3.org/2000/svg">
<path d="M32.0339 0.453283C24.854 2.78799 6.61937 13.3437 2.97014 17.4716C2.31701 18.2086 1.75289 19.1735 1.43189 20.1147C-0.381271 25.4298 -0.472249 46.94 1.15772 53.8854C1.53297 55.483 2.52486 57.1788 3.82864 58.3593C8.96532 63.0119 25.8777 72.6617 32.3727 74.6299C33.9757 75.1161 35.8555 75.116 37.3729 74.6724C43.8494 72.7791 61.374 62.7671 66.2729 58.1624C67.4224 57.0835 68.3241 55.5382 68.6913 54.0482C70.3441 47.3611 70.2864 25.9654 68.5195 20.3037C68.1844 19.2333 67.5211 18.0832 66.6771 17.21C62.4781 12.8629 44.4596 2.49304 37.605 0.372777C36.8086 0.126864 35.9077 0 34.9861 0C33.9905 0 32.971 0.148085 32.0339 0.453283Z" fill="#777777"/>
<path d="M24.7331 22.3179C24.7331 22.3179 23.4035 23.6257 22.503 24.9876C20.2065 28.4379 18.5654 30.5631 17.2642 31.8404C16.6039 32.4801 15.8546 32.1505 16.0948 30.8888C16.4237 29.2309 18.3309 22.9524 18.2607 22.6029C18.2008 22.3111 17.9873 22.1726 17.8924 22.1735C17.2319 22.17 15.6271 22.6082 13.4288 23.2728C12.1265 23.6652 10.9842 24.2094 10.3333 24.6269C10.1027 24.7695 9.74305 24.981 9.7741 25.9383C9.81506 27.4656 9.54065 28.3654 10.2369 28.3592C10.3402 26.8912 14.0619 25.3821 16.5248 24.4841C15.4357 27.1948 13.453 31.8249 13.2727 32.5289C13.0111 33.5955 12.91 34.1956 13.45 34.5341C13.8728 34.8035 14.6593 35.1021 15.2974 35.2506C16.167 35.4557 19.301 31.5488 22.6361 26.6155C22.8384 26.7128 22.7652 26.8446 22.623 27.1688C21.1844 30.4269 18.2139 35.3509 15.9897 38.6473C14.6842 40.5824 14.1973 40.918 13.3807 41.2653C12.7688 41.52 11.2939 41.9983 10.4793 41.1943C9.45236 41.5452 7.54674 44.3011 7.33447 45.2764C7.95184 45.5018 9.2581 45.9131 10.1027 45.7849C10.9943 45.6555 11.9404 45.4875 13.1824 44.2243C15.8606 41.518 20.2145 35.1251 22.5851 31.0994C23.9857 28.7121 27.277 24.4445 28.5601 21.648C26.8637 20.9014 24.7331 22.3179 24.7331 22.3179Z" fill="#454545"/>
<path d="M24.5172 30.3908C25.8211 29.642 29.2301 28.212 30.0876 27.8916C30.9391 27.5723 31.1677 29.0531 31.1756 29.2933C31.1928 29.5349 28.0269 35.3851 27.6763 36.0201C27.7362 36.1086 27.8686 36.4071 28.2542 36.1882C29.3785 35.5486 30.8361 34.2698 31.5526 33.8233C32.5381 33.2126 32.5884 33.4695 32.5042 33.7553C32.421 34.048 29.2932 36.977 28.1852 37.7967C27.3044 38.4492 26.6121 38.2402 25.3759 36.9926C24.7998 36.405 24.9911 35.956 25.8967 34.9008C26.981 33.6376 30.0086 29.7302 30.0086 29.7302C30.0086 29.7302 25.1918 31.6742 25.8336 32.8071C25.2197 32.7537 24.8358 32.5388 24.3709 31.934C23.8088 31.2076 23.7267 30.853 24.5172 30.3908Z" fill="#454545"/>
<path d="M32.5232 33.7288C32.4713 33.3708 32.0854 33.2561 31.84 33.3747C31.3891 33.5965 30.4433 35.0269 30.3249 35.5861C30.2219 36.0781 31.0696 36.6868 31.844 37.1935C32.1935 37.4144 32.6674 37.3851 32.967 37.0583C34.3955 35.5016 37.2288 31.3873 38.072 30.2616C39.0063 29.0066 39.1918 28.7271 39.1918 28.7271L38.3749 28.8352C38.3749 28.8352 35.4839 32.2818 34.163 33.5577C33.4818 34.2169 32.9147 34.8333 32.5722 35.0921C32.5565 34.5397 32.5572 33.9535 32.5232 33.7288Z" fill="#454545"/>
<path d="M37.7911 28.6631C37.9286 28.0636 39.7051 28.5532 40.0396 28.7855C40.7735 29.3227 40.1979 30.037 40.1979 30.037C40.1979 30.037 39.1344 32.5051 38.7502 33.5447C38.5709 34.025 38.4621 34.4109 38.3878 34.7027C38.2191 35.3104 38.7208 35.3066 38.9395 35.1822C39.5285 34.8506 41.1905 33.8362 42.3265 32.9523C43.9648 31.6861 45.2385 30.8562 45.4162 30.3958C45.5695 30.0163 44.7903 29.3922 44.4621 29.5139C44.1381 29.6423 43.602 30.6084 43.0706 32.2085C42.7425 33.1927 42.5861 34.2243 42.6105 34.5899C42.6331 34.9624 43.0439 35.2822 43.4901 34.9653C45.0998 33.8362 49.432 30.2549 49.432 30.2549L49.6581 30.862C49.6581 30.862 44.7071 35.5488 42.928 36.5736C42.0189 37.0977 41.6493 36.6153 40.8532 35.8093C40.4152 35.3571 40.9056 33.1488 41.9511 31.6054C42.5811 30.6618 44.2424 28.4656 45.0221 27.881C45.8142 27.3012 46.9849 27.43 47.0695 27.7343C47.2511 28.3595 47.8269 29.3177 47.2127 30.1202C46.633 30.866 40.4251 35.1851 38.8892 36.1722C37.7683 36.8964 37.4086 37.2759 36.8766 36.9033C36.0704 36.3354 36.0512 35.9241 36.3665 35.2423C36.9567 33.9637 38.595 30.8062 38.5135 30.5129C38.3241 29.8066 37.4155 29.9351 37.4155 29.9351L37.7911 28.6631Z" fill="#454545"/>
<path d="M51.5403 24.915C52.1187 24.557 52.9681 25.8776 53.1512 26.2261C53.4005 26.7353 51.7841 28.4701 50.4476 29.8349C50.414 30.6507 50.4525 30.6947 50.688 30.8205C50.9935 30.9979 51.8468 30.9341 53.0145 29.7765C53.6265 30.0155 53.9498 30.4904 54.1181 30.7768C54.2829 31.0668 53.8496 32.8328 53.3812 33.8461C52.9198 34.8536 52.6967 35.4565 53.4612 35.0179C55.1619 34.0328 57.8295 31.8243 58.4765 31.2897C59.1093 30.7519 59.3649 30.3547 58.7653 29.87C58.4104 29.5831 57.9973 29.2492 57.5067 30.5419C57.0625 31.7078 56.7121 33.8207 56.7343 34.1173C56.7482 34.413 56.7185 35.0393 57.4243 34.9908C58.8344 34.9023 60.6639 33.07 61.7872 32.0131C62.7926 31.8673 63.6661 31.9692 63.8907 32.2582C63.9859 32.5509 61.8904 34.233 60.7379 35.0217C59.4671 35.8912 57.4465 36.6719 56.7348 36.1293C56.2053 35.7326 54.9299 34.1319 55.2656 32.7871C55.5943 31.4492 57.756 28.5352 58.3739 28.2556C58.9962 27.9775 60.7439 28.6135 61.3638 28.9655C61.9841 29.3137 61.769 30.2559 60.9186 30.8857C59.2687 32.1024 53.9093 35.786 52.2406 36.5464C51.8537 36.7294 51.484 36.6292 50.9801 36.1768C50.6583 35.8962 50.4377 35.5741 50.5053 35.3495C50.8938 34.1135 52.4672 31.5579 52.8477 30.8205C51.2846 32.1725 49.0145 32.474 48.7315 30.4557C48.3835 27.9444 51.1864 25.1808 51.5403 24.915Z" fill="#454545"/>
<path d="M35.9807 41.4889C32.0695 41.8391 22.6801 43.2713 20.1672 44.0699C16.8742 45.1172 16.4913 46.8849 16.4494 48.5895C16.3781 51.4195 19.6583 50.3323 22.2082 49.3178C24.6306 48.3562 26.7266 47.0735 26.7266 47.0735C26.7266 47.0735 25.9041 47.9895 24.8238 49.6778C23.7459 51.3608 19.0981 58.7787 17.297 61.1852C18.1284 62.4551 21.3435 61.2983 21.6188 60.6157C22.1579 59.2737 27.8215 48.2464 28.9788 46.5446C29.2291 46.1817 27.2083 45.4175 27.2083 45.4175C27.2083 45.4175 26.3667 46.5989 24.4625 47.3575C23.0418 47.9205 20.0972 49.2176 20.2673 47.5385C20.3899 46.2957 20.6532 45.5457 21.5859 45.2376C24.9521 44.1368 31.3972 43.4152 34.506 43.0954C42.6171 42.2738 50.7842 42.4359 58.8867 42.3223C59.9024 42.3115 61.0084 41.6534 61.7878 39.9592C58.6478 39.8183 43.1051 40.8598 35.9807 41.4889Z" fill="#454545"/>
<path d="M31.1514 45.7566C30.7539 46.3246 27.3433 55.0083 27.0469 55.6055C26.7553 56.2027 27.1558 57.7262 27.3163 58.1996C27.4803 58.6956 27.9214 58.6284 28.2209 58.4059C28.5114 58.167 31.2746 50.4302 31.8045 49.0512C32.3325 47.6733 33.1851 45.9231 33.1851 45.9231C33.1851 45.9231 32.9547 45.5865 32.4506 45.501C31.9096 45.4066 31.1514 45.7566 31.1514 45.7566Z" fill="#454545"/>
<path d="M37.2325 50.9627C37.0871 51.285 37.4049 51.5629 37.6104 51.9977C37.8139 52.4325 36.5824 55.2777 34.337 55.9835C33.6829 56.1868 33.5825 54.3997 33.8222 53.7043C34.1127 52.8298 35.3501 50.6306 36.3977 50.9474C36.5913 50.1237 36.8768 47.8056 36.0049 47.7132C35.2057 47.6285 34.1476 49.2341 33.6169 50.1646C33.0956 51.0895 32.4003 52.2543 32.3255 52.6723C32.0917 53.919 32.4105 55.6686 32.7371 56.3882C32.9595 56.8492 33.3451 57.3857 33.9453 57.2243C34.7608 57.0209 35.6075 56.6281 36.7155 55.8794C37.921 55.0561 39.7851 53.1298 39.8874 52.3446C39.9984 51.4113 39.3086 50.1957 38.6895 49.7229C38.3896 49.7066 37.6046 50.1104 37.2325 50.9627Z" fill="#454545"/>
<path d="M47.8546 45.3493C47.2752 45.3028 43.1688 45.72 41.5334 45.9688C40.4408 46.1372 38.545 46.3071 38.0428 47.0403C37.7106 47.5285 38.4969 50.1638 38.4969 50.1638C38.4969 50.1638 38.7301 50.5887 38.7883 50.2358C38.8477 49.88 38.6962 49.029 39.7743 48.4969C40.5458 48.111 42.8358 47.2213 44.5163 46.7527C46.1942 46.278 48.1539 46.0056 48.1539 46.0056C48.1539 46.0056 48.4454 45.3892 47.8546 45.3493Z" fill="#454545"/>
<path d="M46.1599 45.8136C45.2771 47.0262 41.942 52.3211 41.1931 53.1488C40.6241 53.786 40.3706 53.8797 40.1494 53.9809C40.0415 54.2435 41.2383 54.7173 41.5008 54.8253C42.1454 55.0652 42.4194 54.5287 42.8431 53.8486C43.2745 53.1631 45.5547 48.7931 46.4564 46.5839C46.6464 46.2416 46.8478 46.3252 46.9305 46.2667C46.9192 46.614 46.7368 47.4999 46.6375 47.8597C46.5394 48.2126 45.7572 51.6869 45.7581 52.1444C45.7581 52.5995 46.901 53.1873 47.3944 53.4035C48.0193 53.6793 49.1763 52.9706 49.7355 52.5264C50.5157 51.8982 53.9473 49.0771 54.8337 48.3947C55.7177 47.7206 56.2157 47.4192 56.5794 46.7812C56.8888 46.2608 56.2117 45.1524 55.5765 44.6759C54.9764 44.2229 54.1221 44.5224 53.4395 45.1904C52.7401 45.8574 51.5048 47.5123 51.0389 49.0665C50.6589 50.3307 50.2009 51.9218 50.7122 52.4514C51.4313 53.1942 52.1558 53.9167 53.1192 53.5668C54.5889 53.0116 57.9396 50.8129 58.6923 50.1954C59.4202 49.6022 57.2195 48.623 57.2195 48.623C57.2195 48.623 56.879 49.2162 56.3617 49.6782C55.7537 50.2117 54.1546 51.4841 53.5644 51.7679C52.9464 52.0684 51.1771 52.0127 51.6262 50.1594C51.9816 48.6958 52.6197 46.8008 53.5915 46.3302C54.1438 46.0587 54.3387 46.6637 54.4364 46.9202C54.6265 47.4134 52.9647 48.6561 51.4668 50.0686C50.3716 51.1026 49.2301 51.8567 48.7987 52.1178C48.4007 52.3695 47.9172 51.7086 47.9691 51.2689C48.0607 50.6337 48.8135 46.0149 48.8135 45.4217C48.8094 44.7625 46.1599 45.8136 46.1599 45.8136Z" fill="#454545"/>
<path d="M34.7864 15.8396C34.7485 17.4685 35.8925 20.4085 37.9244 20.0697C40.5021 19.6413 40.3729 16.1765 39.5834 14.3012C38.6746 12.1399 36.262 11.4788 34.529 12.2765C32.9128 13.0211 32.2425 14.7815 32.2667 16.4639C32.3009 18.7711 32.9407 21.0809 34.2292 22.9972C35.5264 24.9303 38.7308 23.8695 40.3076 22.9326C41.5668 22.1832 46.949 18.564 44.7799 16.4605C43.1871 14.9157 40.4271 16.2719 39.0916 17.4685C38.7942 17.7369 39.7454 17.834 39.9844 17.62C42.5748 15.2975 44.1579 17.7854 42.5447 19.9341C41.4328 21.4141 37.7907 24.3357 36.114 22.7983C34.5922 21.4001 33.1434 15.8216 34.1945 13.6808C35.141 11.7535 37.1716 13.0477 37.8959 14.5895C38.6815 16.2661 38.6295 19.6373 37.5745 19.0438C36.5205 18.4529 36.0325 16.6117 36.0601 15.5022C36.0651 15.2668 34.7953 15.4483 34.7864 15.8396Z" fill="#454545"/>
<path d="M24.2049 21.7955C24.2049 21.7955 22.8747 23.1019 21.9739 24.464C19.6775 27.9161 18.0374 30.0402 16.7361 31.3172C16.0758 31.9569 15.3263 31.6291 15.567 30.3665C15.8946 28.708 17.802 22.4306 17.732 22.0801C17.6718 21.7882 17.4583 21.6497 17.3633 21.6512C16.7028 21.6477 15.098 22.0853 12.9007 22.751C11.5984 23.1428 10.4561 23.6871 9.80525 24.1043C9.57472 24.2471 9.21498 24.4579 9.24706 25.4165C9.28723 26.9427 9.01257 27.8417 9.70788 27.8369C9.81117 26.3683 13.5331 24.8597 15.9967 23.9627C14.9077 26.6719 12.9239 31.3035 12.7446 32.0066C12.4831 33.0723 12.381 33.6732 12.9209 34.0107C13.3438 34.2811 14.1323 34.5787 14.7684 34.7272C15.639 34.9325 18.7729 31.0264 22.108 26.0923C22.3114 26.1901 22.2363 26.3219 22.095 26.6461C20.6553 29.9037 17.6848 34.8286 15.4617 38.125C14.1554 40.059 13.6695 40.3946 12.8527 40.743C12.2407 40.9966 10.7658 41.4759 9.95045 40.672C8.92334 41.0229 7.01768 43.7788 6.80664 44.754C7.42278 44.9795 8.73002 45.3899 9.57472 45.2625C10.4643 45.1332 11.411 44.9652 12.6544 43.702C15.3325 40.9956 19.6856 34.6028 22.056 30.5756C23.4577 28.1899 26.7477 23.9227 28.0331 21.1251C26.3363 20.3782 24.2049 21.7955 24.2049 21.7955Z" fill="white"/>
<path d="M23.9884 29.8684C25.2926 29.1191 28.7023 27.6899 29.5588 27.3687C30.4103 27.0492 30.6389 28.5302 30.6487 28.7701C30.6649 29.0121 27.4981 34.8617 27.1471 35.4977C27.2063 35.5861 27.3394 35.8847 27.7253 35.6659C28.8504 35.0261 30.3082 33.7463 31.0244 33.2999C32.0093 32.6902 32.0614 32.9471 31.9764 33.2329C31.8931 33.5266 28.7644 36.4547 27.6573 37.2733C26.7766 37.9268 26.0842 37.7179 24.848 36.4702C24.2728 35.8827 24.4621 35.4344 25.3688 34.3785C26.4519 33.1153 29.4796 29.2079 29.4796 29.2079C29.4796 29.2079 24.6637 31.1518 25.3046 32.2848C24.6907 32.2313 24.3079 32.0165 23.843 31.4116C23.2809 30.6856 23.1979 30.3306 23.9884 29.8684Z" fill="white"/>
<path d="M31.9952 33.2084C31.9423 32.8523 31.5584 32.7358 31.311 32.8553C30.8602 33.077 29.9143 34.5075 29.796 35.0666C29.6939 35.5586 30.5416 36.1674 31.3151 36.675C31.6657 36.8949 32.1394 36.8645 32.4381 36.5399C33.8677 34.9812 36.7009 30.8678 37.5438 29.7421C38.4774 28.4857 38.6625 28.207 38.6625 28.207L37.8459 28.3157C37.8459 28.3157 34.955 31.7614 33.6343 33.038C32.9551 33.6974 32.387 34.3139 32.0444 34.5715C32.0275 34.0193 32.0296 33.434 31.9952 33.2084Z" fill="white"/>
<path d="M37.2628 28.1394C37.4004 27.5394 39.1753 28.0298 39.5113 28.2623C40.2454 28.7996 39.6696 29.5133 39.6696 29.5133C39.6696 29.5133 38.6052 31.9814 38.2204 33.0207C38.0422 33.5014 37.934 33.8873 37.8589 34.1791C37.6903 34.7868 38.1916 34.782 38.4098 34.6585C39.0013 34.3269 40.66 33.3126 41.7982 32.4286C43.4356 31.1616 44.7087 30.333 44.8879 29.8721C45.0403 29.4934 44.2611 28.8676 43.9343 28.9899C43.6083 29.1181 43.0739 30.0851 42.5425 31.6849C42.2118 32.669 42.0558 33.6997 42.0817 34.0651C42.1049 34.4388 42.5157 34.7586 42.9618 34.4417C44.5717 33.3126 48.9035 29.7307 48.9035 29.7307L49.128 30.338C49.128 30.338 44.1764 35.025 42.4008 36.0491C41.4897 36.574 41.1201 36.0908 40.3235 35.2848C39.8867 34.8334 40.3756 32.6251 41.4219 31.0811C42.051 30.1371 43.7137 27.942 44.4935 27.3579C45.284 26.777 46.4542 26.9049 46.5409 27.2101C46.7238 27.8359 47.2977 28.7931 46.6823 29.5955C46.1047 30.3418 39.8956 34.6614 38.3595 35.6473C37.2397 36.3728 36.88 36.7522 36.3478 36.3797C35.5397 35.8118 35.5223 35.3993 35.8378 34.7187C36.4284 33.4399 38.0664 30.2826 37.9852 29.9889C37.7953 29.2833 36.8863 29.4103 36.8863 29.4103L37.2628 28.1394Z" fill="white"/>
<path d="M51.0129 24.3937C51.5908 24.0352 52.4422 25.3548 52.6228 25.7034C52.8725 26.2126 51.2557 27.9484 49.9202 29.3127C49.8866 30.1283 49.9251 30.1719 50.1605 30.2978C50.4636 30.4751 51.3194 30.4108 52.4866 29.2537C53.0981 29.4942 53.4228 29.9677 53.5906 30.2539C53.755 30.5437 53.3226 32.3106 52.8538 33.3238C52.3928 34.3314 52.1692 34.9343 52.9337 34.4955C54.6335 33.5097 57.3016 31.303 57.9476 30.7669C58.5813 30.2297 58.8375 29.8319 58.2363 29.3473C57.8825 29.0618 57.4709 28.7279 56.9783 30.0191C56.5351 31.1865 56.1847 33.2987 56.2059 33.5951C56.2207 33.8917 56.1906 34.516 56.8959 34.4675C58.3054 34.3799 60.137 32.5469 61.2603 31.49C62.2651 31.346 63.1372 31.448 63.3642 31.7349C63.457 32.0276 61.3624 33.7109 60.208 34.4995C58.9391 35.3679 56.9181 36.1486 56.2089 35.6071C55.6788 35.2095 54.4015 33.6097 54.7366 32.264C55.0644 30.9268 57.2275 28.013 57.8479 27.7344C58.4683 27.4553 60.2164 28.0913 60.8368 28.4443C61.4557 28.791 61.241 29.7337 60.3902 30.3624C58.7412 31.5802 53.3814 35.2638 51.7122 36.0242C51.3263 36.2052 50.9581 36.1069 50.4527 35.6548C50.1314 35.3738 49.9108 35.0518 49.9784 34.8262C50.3648 33.5913 51.9388 31.0348 52.3198 30.2978C50.7572 31.6503 48.4883 31.9518 48.2037 29.9329C47.8553 27.4222 50.659 24.6581 51.0129 24.3937Z" fill="white"/>
<path d="M35.4535 40.967C31.5401 41.3151 22.1516 42.7493 19.6388 43.5469C16.3448 44.5952 15.9629 46.362 15.9201 48.0674C15.8498 50.8976 19.1299 49.8094 21.6797 48.794C24.1003 47.8332 26.1972 46.5508 26.1972 46.5508C26.1972 46.5508 25.3756 47.4656 24.2955 49.1548C23.2175 50.8374 18.5698 58.2558 16.7687 60.6633C17.5991 61.9322 20.8141 60.7744 21.0905 60.0928C21.6285 58.7499 27.293 47.7232 28.4504 46.0226C28.6996 45.6588 26.6789 44.8945 26.6789 44.8945C26.6789 44.8945 25.8373 46.076 23.9318 46.8346C22.5144 47.3985 19.5687 48.6939 19.7388 47.0146C19.8605 45.7728 20.1238 45.0231 21.0567 44.7137C24.4238 43.613 30.8691 42.8934 33.9766 42.5724C42.089 41.7509 50.2548 41.9121 58.3593 41.7994C59.3725 41.7877 60.4795 41.1295 61.2593 39.4363C58.1199 39.2954 42.5755 40.3369 35.4535 40.967Z" fill="white"/>
<path d="M30.6234 45.2343C30.2258 45.8023 26.8153 54.4861 26.5199 55.0832C26.2263 55.6789 26.6288 57.204 26.7875 57.6773C26.9525 58.1723 27.3926 58.1072 27.6921 57.8841C27.9824 57.6447 30.7456 49.909 31.2758 48.5282C31.8046 47.1509 32.6562 45.4008 32.6562 45.4008C32.6562 45.4008 32.4256 45.0642 31.9226 44.9778C31.3808 44.8843 30.6234 45.2343 30.6234 45.2343Z" fill="white"/>
<path d="M36.7036 50.4412C36.5582 50.764 36.875 51.0404 37.0806 51.4752C37.284 51.911 36.0534 54.7553 33.8064 55.462C33.1532 55.6654 33.0539 53.8768 33.2926 53.1819C33.5841 52.3083 34.8225 50.1101 35.8703 50.4249C36.0629 49.6022 36.3478 47.2841 35.4761 47.1917C34.6751 47.107 33.6181 48.7115 33.0881 49.6442C32.5659 50.5666 31.8718 51.7338 31.7967 52.1509C31.562 53.3985 31.8808 55.1471 32.2085 55.8667C32.4318 56.3287 32.8165 56.8642 33.4156 56.7028C34.2322 56.4985 35.0786 56.1066 36.1856 55.3579C37.392 54.5342 39.2567 52.6089 39.359 51.8231C39.4699 50.8899 38.7787 49.6733 38.1605 49.2016C37.8611 49.185 37.0756 49.5874 36.7036 50.4412Z" fill="white"/>
<path d="M47.326 44.8248C46.7457 44.779 42.6402 45.1962 41.0054 45.4461C39.9121 45.6134 38.0169 45.7836 37.5147 46.5178C37.1821 47.006 37.9677 49.6411 37.9677 49.6411C37.9677 49.6411 38.2015 50.0661 38.2599 49.7117C38.3191 49.3564 38.1678 48.5063 39.2437 47.9744C40.0172 47.5884 42.3077 46.6995 43.9868 46.23C45.6658 45.7554 47.6253 45.482 47.6253 45.482C47.6253 45.482 47.9173 44.8658 47.326 44.8248Z" fill="white"/>
<path d="M45.6308 45.2938C44.7486 46.5056 41.4127 51.8013 40.6643 52.63C40.0953 53.2657 39.8418 53.3604 39.6207 53.4601C39.5125 53.7247 40.7115 54.1965 40.9728 54.3046C41.6161 54.5464 41.8918 54.0089 42.3143 53.3288C42.7463 52.6423 45.0269 48.2733 45.9281 46.063C46.1186 45.7227 46.3201 45.8054 46.4011 45.7472C46.3908 46.0942 46.2092 46.9812 46.1088 47.3387C46.0106 47.6927 45.2284 51.1681 45.2302 51.6246C45.2302 52.0797 46.3721 52.667 46.866 52.8837C47.4899 53.161 48.6473 52.4508 49.2063 52.0056C49.9866 51.3784 53.4187 48.5573 54.3071 47.8737C55.1895 47.2009 55.6865 46.8985 56.0512 46.2614C56.3612 45.7393 55.6821 44.6318 55.0489 44.1563C54.4487 43.703 53.5934 44.0017 52.9123 44.6695C52.211 45.3384 50.9766 46.9925 50.5107 48.5467C50.1312 49.8109 49.6732 51.4025 50.1835 51.9306C50.9036 52.6744 51.6266 53.3979 52.5895 53.046C54.0603 52.4918 57.4105 50.2931 58.1631 49.6747C58.8926 49.0813 56.6904 48.1034 56.6904 48.1034C56.6904 48.1034 56.3493 48.6954 55.8326 49.1582C55.226 49.6924 53.628 50.9628 53.0362 51.2471C52.4183 51.5476 50.6489 51.4934 51.0976 49.6406C51.4534 48.176 52.0911 46.2818 53.0638 45.8104C53.6146 45.5388 53.8086 46.1439 53.9068 46.3995C54.0978 46.8935 52.4346 48.1353 50.9377 49.5503C49.8425 50.5808 48.7013 51.3364 48.2699 51.597C47.8729 51.8492 47.3889 51.1869 47.44 50.7491C47.5299 50.1144 48.2847 45.4962 48.2847 44.9021C48.2817 44.2426 45.6308 45.2938 45.6308 45.2938Z" fill="white"/>
<path d="M34.2587 15.3182C34.2206 16.9465 35.3637 19.8862 37.3954 19.5479C39.9746 19.1179 39.8439 15.6537 39.0546 13.7784C38.1467 11.6176 35.7332 10.955 34.0004 11.7542C32.3862 12.4983 31.7139 14.2583 31.7379 15.9411C31.7719 18.2497 32.413 20.5581 33.6995 22.4754C34.998 24.4077 38.2039 23.3471 39.781 22.4097C41.039 21.661 46.4205 18.0411 44.2515 15.9377C42.6596 14.3929 39.8978 15.7486 38.5626 16.9465C38.2661 17.2146 39.217 17.3117 39.4553 17.0973C42.0473 14.7743 43.6305 17.2636 42.0168 19.4121C40.9043 20.8913 37.2632 23.8133 35.5862 22.276C34.0645 20.8787 32.6157 15.2992 33.6666 13.158C34.6122 11.2317 36.6452 12.5254 37.3686 14.0677C38.1535 15.7437 38.1016 19.115 37.0461 18.522C35.9915 17.9296 35.505 16.0885 35.5302 14.9794C35.5372 14.744 34.2666 14.926 34.2587 15.3182Z" fill="white"/>
<path d="M32.5232 33.7302C32.4713 33.3723 32.0854 33.2576 31.84 33.3761C31.3891 33.5979 30.4433 35.0284 30.3249 35.5876C30.2219 36.0796 31.0696 36.6883 31.844 37.195C32.1935 37.4158 32.6674 37.3865 32.967 37.0597C34.3955 35.503 37.2288 31.3888 38.072 30.2631C39.0063 29.0081 39.1918 28.7285 39.1918 28.7285L38.3749 28.8367C38.3749 28.8367 35.4839 32.2833 34.163 33.5592C33.4818 34.2184 32.9147 34.8348 32.5722 35.0935C32.5565 34.5412 32.5572 33.9549 32.5232 33.7302Z" fill="#454545"/>
<path d="M24.2049 21.797C24.2049 21.797 22.8747 23.1034 21.9739 24.4655C19.6775 27.9176 18.0374 30.0417 16.7361 31.3186C16.0758 31.9583 15.3263 31.6306 15.567 30.3679C15.8946 28.7095 17.802 22.4321 17.732 22.0815C17.6718 21.7897 17.4583 21.6512 17.3633 21.6526C16.7028 21.6492 15.098 22.0868 12.9007 22.7525C11.5984 23.1442 10.4561 23.6885 9.80525 24.1057C9.57472 24.2486 9.21498 24.4594 9.24706 25.418C9.28723 26.9442 9.01257 27.8431 9.70788 27.8383C9.81117 26.3698 13.5331 24.8612 15.9967 23.9641C14.9077 26.6734 12.9239 31.3049 12.7446 32.0081C12.4831 33.0737 12.381 33.6746 12.9209 34.0122C13.3438 34.2826 14.1323 34.5801 14.7684 34.7287C15.639 34.934 18.7729 31.0279 22.108 26.0937C22.3114 26.1916 22.2363 26.3234 22.095 26.6476C20.6553 29.9052 17.6848 34.83 15.4617 38.1265C14.1554 40.0605 13.6695 40.3961 12.8527 40.7445C12.2407 40.998 10.7658 41.4774 9.95045 40.6734C8.92334 41.0244 7.01768 43.7803 6.80664 44.7555C7.42278 44.981 8.73002 45.3913 9.57472 45.264C10.4643 45.1347 11.411 44.9667 12.6544 43.7034C15.3325 40.9971 19.6856 34.6043 22.056 30.5771C23.4577 28.1913 26.7477 23.9242 28.0331 21.1266C26.3363 20.3797 24.2049 21.797 24.2049 21.797Z" fill="white"/>
<path d="M23.9884 29.8699C25.2926 29.1206 28.7023 27.6914 29.5588 27.3701C30.4103 27.0506 30.6389 28.5316 30.6487 28.7715C30.6649 29.0136 27.4981 34.8632 27.1471 35.4992C27.2063 35.5876 27.3394 35.8862 27.7253 35.6673C28.8504 35.0275 30.3082 33.7478 31.0244 33.3014C32.0093 32.6917 32.0614 32.9486 31.9764 33.2344C31.8931 33.528 28.7644 36.4561 27.6573 37.2748C26.7766 37.9283 26.0842 37.7194 24.848 36.4717C24.2728 35.8842 24.4621 35.4359 25.3688 34.3799C26.4519 33.1167 29.4796 29.2093 29.4796 29.2093C29.4796 29.2093 24.6637 31.1533 25.3046 32.2862C24.6907 32.2328 24.3079 32.018 23.843 31.4131C23.2809 30.6871 23.1979 30.3321 23.9884 29.8699Z" fill="white"/>
<path d="M31.9952 33.2084C31.9423 32.8523 31.5584 32.7358 31.311 32.8553C30.8602 33.077 29.9143 34.5075 29.796 35.0666C29.6939 35.5586 30.5416 36.1674 31.3151 36.675C31.6657 36.8949 32.1394 36.8645 32.4381 36.5399C33.8677 34.9812 36.7009 30.8678 37.5438 29.7421C38.4774 28.4857 38.6625 28.207 38.6625 28.207L37.8459 28.3157C37.8459 28.3157 34.955 31.7614 33.6343 33.038C32.9551 33.6974 32.387 34.3139 32.0444 34.5715C32.0275 34.0193 32.0296 33.434 31.9952 33.2084Z" fill="white"/>
<path d="M37.2628 28.1379C37.4004 27.538 39.1753 28.0283 39.5113 28.2609C40.2454 28.7981 39.6696 29.5119 39.6696 29.5119C39.6696 29.5119 38.6052 31.98 38.2204 33.0193C38.0422 33.4999 37.934 33.8858 37.8589 34.1776C37.6903 34.7853 38.1916 34.7805 38.4098 34.657C39.0013 34.3255 40.66 33.3111 41.7982 32.4272C43.4356 31.1601 44.7087 30.3316 44.8879 29.8707C45.0403 29.4919 44.2611 28.8662 43.9343 28.9884C43.6083 29.1166 43.0739 30.0837 42.5425 31.6834C42.2118 32.6676 42.0558 33.6983 42.0817 34.0636C42.1049 34.4373 42.5157 34.7571 42.9618 34.4402C44.5717 33.3111 48.9035 29.7292 48.9035 29.7292L49.128 30.3365C49.128 30.3365 44.1764 35.0235 42.4008 36.0476C41.4897 36.5726 41.1201 36.0893 40.3235 35.2833C39.8867 34.8319 40.3756 32.6237 41.4219 31.0796C42.051 30.1356 43.7137 27.9405 44.4935 27.3565C45.284 26.7755 46.4542 26.9034 46.5409 27.2086C46.7238 27.8344 47.2977 28.7917 46.6823 29.594C46.1047 30.3404 39.8956 34.6599 38.3595 35.6458C37.2397 36.3713 36.88 36.7508 36.3478 36.3783C35.5397 35.8103 35.5223 35.3979 35.8378 34.7172C36.4284 33.4384 38.0664 30.2811 37.9852 29.9874C37.7953 29.2819 36.8863 29.4089 36.8863 29.4089L37.2628 28.1379Z" fill="white"/>
<path d="M51.0129 24.3951C51.5908 24.0367 52.4422 25.3563 52.6228 25.7048C52.8725 26.214 51.2557 27.9499 49.9202 29.3141C49.8866 30.1298 49.9251 30.1734 50.1605 30.2992C50.4636 30.4766 51.3194 30.4123 52.4866 29.2552C53.0981 29.4956 53.4228 29.9691 53.5906 30.2553C53.755 30.5452 53.3226 32.3121 52.8538 33.3252C52.3928 34.3328 52.1692 34.9358 52.9337 34.497C54.6335 33.5111 57.3016 31.3045 57.9476 30.7684C58.5813 30.2312 58.8375 29.8334 58.2363 29.3487C57.8825 29.0633 57.4709 28.7294 56.9783 30.0206C56.5351 31.1879 56.1847 33.3002 56.2059 33.5966C56.2207 33.8931 56.1906 34.5175 56.8959 34.469C58.3054 34.3814 60.137 32.5483 61.2603 31.4915C62.2651 31.3475 63.1372 31.4494 63.3642 31.7363C63.457 32.029 61.3624 33.7124 60.208 34.501C58.9391 35.3694 56.9181 36.1501 56.2089 35.6085C55.6788 35.211 54.4015 33.6112 54.7366 32.2654C55.0644 30.9283 57.2275 28.0145 57.8479 27.7358C58.4683 27.4568 60.2164 28.0928 60.8368 28.4457C61.4557 28.7925 61.241 29.7352 60.3902 30.3638C58.7412 31.5817 53.3814 35.2653 51.7122 36.0257C51.3263 36.2067 50.9581 36.1084 50.4527 35.6563C50.1314 35.3753 49.9108 35.0532 49.9784 34.8276C50.3648 33.5927 51.9388 31.0362 52.3198 30.2992C50.7572 31.6518 48.4883 31.9533 48.2037 29.9344C47.8553 27.4237 50.659 24.6595 51.0129 24.3951Z" fill="white"/>
<path d="M35.4535 40.9685C31.5401 41.3165 22.1516 42.7508 19.6388 43.5484C16.3448 44.5966 15.9629 46.3634 15.9201 48.0689C15.8498 50.8991 19.1299 49.8108 21.6797 48.7955C24.1003 47.8347 26.1972 46.5523 26.1972 46.5523C26.1972 46.5523 25.3756 47.4671 24.2955 49.1563C23.2175 50.8389 18.5698 58.2573 16.7687 60.6648C17.5991 61.9337 20.8141 60.7758 21.0905 60.0943C21.6285 58.7513 27.293 47.7247 28.4504 46.024C28.6996 45.6602 26.6789 44.896 26.6789 44.896C26.6789 44.896 25.8373 46.0774 23.9318 46.836C22.5144 47.4 19.5687 48.6954 19.7388 47.0161C19.8605 45.7742 20.1238 45.0246 21.0567 44.7152C24.4238 43.6145 30.8691 42.8948 33.9766 42.5739C42.089 41.7524 50.2548 41.9136 58.3593 41.8008C59.3725 41.7891 60.4795 41.131 61.2593 39.4378C58.1199 39.2969 42.5755 40.3383 35.4535 40.9685Z" fill="white"/>
<path d="M30.6234 45.2343C30.2258 45.8023 26.8153 54.4861 26.5199 55.0832C26.2263 55.6789 26.6288 57.204 26.7875 57.6773C26.9525 58.1723 27.3926 58.1072 27.6921 57.8841C27.9824 57.6447 30.7456 49.909 31.2758 48.5282C31.8046 47.1509 32.6562 45.4008 32.6562 45.4008C32.6562 45.4008 32.4256 45.0642 31.9226 44.9778C31.3808 44.8843 30.6234 45.2343 30.6234 45.2343Z" fill="white"/>
<path d="M36.7036 50.4412C36.5582 50.764 36.875 51.0404 37.0806 51.4752C37.284 51.911 36.0534 54.7553 33.8064 55.462C33.1532 55.6654 33.0539 53.8768 33.2926 53.1819C33.5841 52.3083 34.8225 50.1101 35.8703 50.4249C36.0629 49.6022 36.3478 47.2841 35.4761 47.1917C34.6751 47.107 33.6181 48.7115 33.0881 49.6442C32.5659 50.5666 31.8718 51.7338 31.7967 52.1509C31.562 53.3985 31.8808 55.1471 32.2085 55.8667C32.4318 56.3287 32.8165 56.8642 33.4156 56.7028C34.2322 56.4985 35.0786 56.1066 36.1856 55.3579C37.392 54.5342 39.2567 52.6089 39.359 51.8231C39.4699 50.8899 38.7787 49.6733 38.1605 49.2016C37.8611 49.185 37.0756 49.5874 36.7036 50.4412Z" fill="white"/>
<path d="M47.326 44.8248C46.7457 44.779 42.6402 45.1962 41.0054 45.4461C39.9121 45.6134 38.0169 45.7836 37.5147 46.5178C37.1821 47.006 37.9677 49.6411 37.9677 49.6411C37.9677 49.6411 38.2015 50.0661 38.2599 49.7117C38.3191 49.3564 38.1678 48.5063 39.2437 47.9744C40.0172 47.5884 42.3077 46.6995 43.9868 46.23C45.6658 45.7554 47.6253 45.482 47.6253 45.482C47.6253 45.482 47.9173 44.8658 47.326 44.8248Z" fill="white"/>
<path d="M45.6308 45.2938C44.7486 46.5056 41.4127 51.8013 40.6643 52.63C40.0953 53.2657 39.8418 53.3604 39.6207 53.4601C39.5125 53.7247 40.7115 54.1965 40.9728 54.3046C41.6161 54.5464 41.8918 54.0089 42.3143 53.3288C42.7463 52.6423 45.0269 48.2733 45.9281 46.063C46.1186 45.7227 46.3201 45.8054 46.4011 45.7472C46.3908 46.0942 46.2092 46.9812 46.1088 47.3387C46.0106 47.6927 45.2284 51.1681 45.2302 51.6246C45.2302 52.0797 46.3721 52.667 46.866 52.8837C47.4899 53.161 48.6473 52.4508 49.2063 52.0056C49.9866 51.3784 53.4187 48.5573 54.3071 47.8737C55.1895 47.2009 55.6865 46.8985 56.0512 46.2614C56.3612 45.7393 55.6821 44.6318 55.0489 44.1563C54.4487 43.703 53.5934 44.0017 52.9123 44.6695C52.211 45.3384 50.9766 46.9925 50.5107 48.5467C50.1312 49.8109 49.6732 51.4025 50.1835 51.9306C50.9036 52.6744 51.6266 53.3979 52.5895 53.046C54.0603 52.4918 57.4105 50.2931 58.1631 49.6747C58.8926 49.0813 56.6904 48.1034 56.6904 48.1034C56.6904 48.1034 56.3493 48.6954 55.8326 49.1582C55.226 49.6924 53.628 50.9628 53.0362 51.2471C52.4183 51.5476 50.6489 51.4934 51.0976 49.6406C51.4534 48.176 52.0911 46.2818 53.0638 45.8104C53.6146 45.5388 53.8086 46.1439 53.9068 46.3995C54.0978 46.8935 52.4346 48.1353 50.9377 49.5503C49.8425 50.5808 48.7013 51.3364 48.2699 51.597C47.8729 51.8492 47.3889 51.1869 47.44 50.7491C47.5299 50.1144 48.2847 45.4962 48.2847 44.9021C48.2817 44.2426 45.6308 45.2938 45.6308 45.2938Z" fill="white"/>
<path d="M34.2587 15.3197C34.2206 16.948 35.3637 19.8877 37.3954 19.5494C39.9746 19.1194 39.8439 15.6552 39.0546 13.7799C38.1467 11.6191 35.7332 10.9565 34.0004 11.7557C32.3862 12.4998 31.7139 14.2597 31.7379 15.9426C31.7719 18.2512 32.413 20.5595 33.6995 22.4769C34.998 24.4091 38.2039 23.3486 39.781 22.4112C41.039 21.6625 46.4205 18.0426 44.2515 15.9392C42.6596 14.3944 39.8978 15.7501 38.5626 16.948C38.2661 17.216 39.217 17.3132 39.4553 17.0987C42.0473 14.7757 43.6305 17.2651 42.0168 19.4136C40.9043 20.8927 37.2632 23.8148 35.5862 22.2775C34.0645 20.8801 32.6157 15.3007 33.6666 13.1595C34.6122 11.2331 36.6452 12.5269 37.3686 14.0692C38.1535 15.7452 38.1016 19.1165 37.0461 18.5234C35.9915 17.9311 35.505 16.0899 35.5302 14.9809C35.5372 14.7454 34.2666 14.9274 34.2587 15.3197Z" fill="white"/>
</svg>
