<svg width="105" height="56" viewBox="0 0 105 56" fill="none" xmlns="http://www.w3.org/2000/svg">
<g clip-path="url(#clip0_4031_2981)">
<path d="M53.7386 33.6389C54.293 33.6389 54.4778 33.8827 54.1698 34.4315C54.0465 34.6753 53.9234 34.8583 53.8618 35.1021C53.8002 35.346 53.7386 35.5289 53.6154 35.7727C53.4922 36.0166 53.4305 36.1995 53.369 36.3215C53.3074 36.4434 53.1842 36.6263 53.1226 36.8092C52.9994 36.9921 52.9378 37.114 52.8146 37.236C52.6914 37.3579 52.6298 37.4799 52.5066 37.6018C52.3834 37.7847 52.3218 37.9066 52.1986 38.0896C52.0754 38.2114 52.0138 38.3944 51.8906 38.6382C51.7674 38.8821 51.5826 39.126 51.4594 39.3699C51.3362 39.6747 51.1514 39.9186 51.0898 40.1015C51.0282 40.1624 50.9666 40.2844 50.9666 40.3453C50.905 40.4063 50.8434 40.4673 50.8434 40.5892C50.4122 41.077 50.0426 41.5038 49.673 41.9915C49.3034 42.4183 48.8722 42.906 48.5027 43.3937C48.3179 43.6376 48.133 43.8205 48.0098 44.0644C47.8867 44.3083 47.7018 44.5522 47.517 44.796C47.0859 45.4057 46.6547 45.9544 46.1619 46.4421C45.669 46.9299 45.1762 47.4786 44.6219 48.0273C44.3755 48.3321 44.0675 48.576 43.6979 48.8199C43.3283 49.0638 42.9587 49.2467 42.4659 49.3077C42.2811 49.3686 42.0963 49.4296 41.973 49.5515C41.8499 49.6734 41.7267 49.7345 41.5419 49.8563C41.1107 50.1612 40.6179 50.2831 40.1867 50.2831C40.0635 50.2222 39.8787 50.2222 39.7555 50.2222C39.6323 50.2222 39.4475 50.2222 39.3243 50.1612C39.1395 50.1002 38.9547 50.1002 38.7699 50.0393C38.5851 49.9783 38.4003 49.9783 38.0923 50.0393C37.6611 50.1002 37.2299 50.0393 36.7987 49.8563C36.3675 49.6734 35.8747 49.4296 35.4435 49.1857C35.0124 48.8809 34.5812 48.576 34.2115 48.2712C33.8419 47.9664 33.4724 47.6615 33.1644 47.4786C32.5484 46.9909 32.1172 46.4422 31.8092 45.8325C31.5012 45.2228 31.3164 44.5522 31.2547 43.8815C31.1316 42.967 31.07 41.9915 31.1316 41.138C31.1932 40.2235 31.3164 39.3089 31.5627 38.4553C31.994 36.9311 32.4867 35.4069 33.1027 33.9438C33.7187 32.4805 34.4579 31.0172 35.1972 29.615C35.7515 28.5176 36.3675 27.5421 37.0451 26.5666C37.7227 25.5911 38.4619 24.6156 39.2011 23.6401C40.2483 22.3598 41.3571 21.2624 42.6507 20.4088C42.8355 20.2868 43.0203 20.165 43.205 19.982C43.3283 19.8601 43.513 19.6772 43.7595 19.5553C44.6835 18.8846 45.669 18.3359 46.6547 17.9701C47.0242 17.8481 47.2707 17.7872 47.517 17.8481C47.9482 17.9091 48.441 17.9701 48.9338 17.9701C49.4266 17.9701 49.8578 18.0311 50.289 18.2749C50.5354 18.3969 50.7818 18.5188 51.0898 18.6408C51.3978 18.7626 51.5826 18.9456 51.829 19.2505C51.9522 19.4943 52.0754 19.6772 52.2602 19.8601C52.445 20.043 52.6298 20.2259 52.753 20.4698C52.8762 20.7136 52.9994 20.8965 53.061 21.1404C53.1226 21.3843 53.1842 21.5672 53.1842 21.8111C53.2458 22.055 53.2458 22.2989 53.2458 22.6037C53.2458 22.8475 53.2458 23.0914 53.369 23.3963C53.4305 23.6401 53.369 23.884 53.2458 24.1888C53.1226 24.4327 53.061 24.6156 53.061 24.7985C53.061 24.9814 52.9994 25.1643 52.8762 25.4082C52.8762 25.4691 52.8146 25.5911 52.753 25.652C52.3218 26.1398 52.0138 26.6885 51.7058 27.1762C51.3978 27.664 51.0898 28.2127 50.7202 28.7615L50.2274 28.7004C50.0426 28.9443 49.7962 29.1272 49.6114 29.3711C49.4267 29.615 49.2418 29.8589 49.1802 30.1637C49.1187 30.3466 49.057 30.4685 48.8722 30.5905C48.749 30.7124 48.5642 30.8343 48.5027 30.9563C48.0714 31.3831 47.7019 31.8099 47.3322 32.2366C46.9627 32.6634 46.5315 33.0902 46.1619 33.517C45.669 34.0047 45.1762 34.4315 44.6835 34.9192C44.2522 35.346 43.6979 35.8337 43.1435 36.2605C42.897 36.5044 42.589 36.6872 42.281 36.8092C41.973 36.9311 41.6651 37.114 41.3571 37.2969C40.9259 37.5408 40.4947 37.7847 40.0635 38.0286C39.6323 38.3334 39.2627 38.5773 38.8315 38.8821C38.7083 38.9431 38.7083 38.9431 38.7083 39.0041C38.7083 39.0041 38.6467 39.065 38.5851 39.065C37.7843 39.126 37.3531 39.4308 37.2915 40.1015C37.2299 40.5892 37.1684 41.016 37.0451 41.5038C36.9219 41.9305 36.9219 42.4183 37.0451 42.906C37.1067 43.1499 37.1067 43.3937 37.1067 43.6986C37.1067 43.9425 37.1067 44.1863 37.1067 44.4912C37.1067 44.857 37.1684 45.1618 37.3531 45.4667V45.5276C37.4763 45.5886 37.5995 45.7715 37.7843 46.0154C37.9075 46.0764 37.9075 46.1373 37.9075 46.1983C37.9691 46.1983 38.0307 46.1983 38.0307 46.2593V46.3202C38.4003 46.625 38.7699 46.625 39.2011 46.3812C39.9403 46.0154 40.7411 45.5886 41.4803 45.1619C42.2195 44.7351 42.9587 44.2473 43.5747 43.6376C43.821 43.3937 44.0675 43.2109 44.3139 42.9669C44.5602 42.7231 44.8067 42.4792 45.053 42.2963C45.4227 41.9306 45.7307 41.6257 46.1002 41.3209C46.4082 41.016 46.7779 40.6502 47.1474 40.3453C47.517 40.0405 47.825 39.7357 48.1947 39.4308C48.5027 39.126 48.8722 38.8211 49.1802 38.4553C49.6114 37.9676 50.1042 37.4799 50.5354 36.9921C50.9666 36.5044 51.4594 36.0166 51.8906 35.4679C52.0754 35.2241 52.2602 35.0412 52.445 34.7973C52.6298 34.5534 52.8146 34.3095 52.9378 34.1266C53.061 33.7608 53.369 33.6389 53.7386 33.6389ZM41.1723 30.0418C41.0491 30.3466 40.9259 30.6514 40.8027 30.9563C40.6795 31.2611 40.4947 31.566 40.3099 31.8708C40.7411 31.505 41.1107 31.2002 41.4803 30.8953C41.8499 30.5905 42.2195 30.2857 42.589 29.9198C43.3283 29.1882 44.0059 28.4566 44.6835 27.664C45.361 26.8714 45.8539 26.0788 46.285 25.2253C46.4699 24.8595 46.7162 24.4937 46.901 24.1278C47.0859 23.7621 47.2707 23.3963 47.4554 23.0304C47.5787 22.7866 47.6402 22.5427 47.7634 22.2378C47.8867 21.994 47.8867 21.7501 47.8867 21.4453H47.6402C47.3939 21.6282 47.1474 21.7501 46.901 21.933C46.6547 22.055 46.4699 22.2378 46.2235 22.4818C45.9155 22.7866 45.669 23.0914 45.4227 23.3963C45.1762 23.7011 44.9299 24.006 44.6835 24.3108C44.437 24.6766 44.1907 24.9814 43.9442 25.2863C43.6979 25.5911 43.3899 25.8959 43.0819 26.2617C42.6507 26.6276 42.4043 27.1153 42.2195 27.664C42.1579 27.9079 42.0963 28.0908 42.0963 28.2127C42.0347 28.3347 41.9731 28.5176 41.8499 28.7004C41.7267 28.9443 41.6035 29.1272 41.4803 29.3711C41.4187 29.615 41.2955 29.7979 41.1723 30.0418Z" fill="#777777"/>
<path d="M57.9893 47.5395C57.7429 47.4786 57.4965 47.4176 57.2501 47.2957C57.0038 47.1737 56.819 47.0518 56.5726 46.9298C56.2646 46.686 56.0181 46.5641 55.8333 46.5641C55.7101 46.5031 55.5253 46.3812 55.4021 46.3201C55.279 46.2592 55.1558 46.1373 55.0326 46.0153C54.7861 45.7715 54.6013 45.5276 54.4781 45.4056C54.355 45.2837 54.2318 45.1008 54.1086 44.9179C53.9854 44.735 53.9238 44.5521 53.8006 44.3082C53.6774 44.0644 53.5541 43.7595 53.431 43.3328C53.1846 42.7231 52.9381 42.1134 52.7534 41.4428C52.5686 40.7721 52.4454 40.1015 52.4454 39.3698C52.507 38.943 52.507 38.5162 52.507 38.0895C52.507 37.6627 52.4454 37.2359 52.3838 36.8091C52.3838 36.3214 52.3838 35.8946 52.4454 35.4069C52.4454 34.9192 52.507 34.4924 52.5686 34.0046C52.6918 33.334 52.7534 32.6633 52.8766 31.9927C52.9998 31.322 53.123 30.6514 53.2461 29.9808C53.3694 29.3101 53.5541 28.7004 53.6774 28.0907C53.8006 27.481 53.9854 26.8104 54.2318 26.2007C54.355 25.9568 54.4166 25.713 54.5398 25.4082C54.663 25.1643 54.7246 24.8594 54.8478 24.5546C54.971 24.1888 55.0941 23.884 55.2173 23.5791C55.3406 23.2743 55.5253 22.9694 55.587 22.6036C56.1413 21.0795 56.7573 19.6162 57.435 18.2139C57.8661 17.4214 58.2358 16.5678 58.667 15.7752C59.0981 14.9826 59.5909 14.1901 60.0838 13.3974C60.5149 12.7268 60.9461 12.1171 61.3773 11.4465C61.8085 10.7758 62.3013 10.1661 62.8557 9.55644C63.5333 8.76386 64.1493 8.03223 64.7036 7.23966C64.9501 6.87388 65.2581 6.56904 65.5661 6.32514C65.8741 6.0203 66.1821 5.77647 66.4285 5.47163C66.6749 5.16679 66.9213 4.86195 67.2293 4.61804C67.5373 4.37414 67.7836 4.13032 68.0301 3.82547C68.2765 3.33774 68.6461 3.09384 69.0156 3.09384C69.1388 3.09384 69.2004 3.09384 69.2621 3.0329C69.3236 2.97189 69.3853 2.97189 69.5084 2.91095C70.1861 2.54517 70.8636 2.30127 71.6027 2.30127C72.4039 2.30127 73.0196 2.54517 73.4505 2.97189C73.574 3.09384 73.6353 3.21579 73.7587 3.27673C73.8822 3.33774 73.9435 3.4597 74.067 3.58157C74.3744 4.0693 74.6213 4.55711 74.7448 5.04484C74.8674 5.53257 74.8674 6.08131 74.6827 6.69099C74.56 7.17872 74.3744 7.72739 74.2518 8.27614C74.1283 8.82488 73.9435 9.31261 73.7587 9.80034C73.574 10.2881 73.3892 10.7149 73.2044 11.0806C73.0196 11.4465 72.8348 11.8732 72.65 12.3C72.5266 12.5439 72.4653 12.7268 72.3418 12.9097C72.2191 13.0926 72.157 13.3365 72.0343 13.5194C71.8496 14.0071 71.6027 14.5558 71.2948 14.9826C70.9868 15.4704 70.6788 15.9581 70.3093 16.3849C70.186 16.5678 70.1244 16.6897 70.0013 16.8726C69.8781 16.9946 69.8164 17.1775 69.6933 17.4214C69.5701 17.6652 69.4468 17.7871 69.2621 17.7871C69.0773 17.7871 68.8925 17.9091 68.8308 18.1529C68.7693 18.5188 68.6461 18.8236 68.4613 19.0674C68.2764 19.3723 68.0301 19.6162 67.8453 19.921C67.4141 20.5916 67.1061 21.2623 66.7981 21.933C66.6133 22.3598 66.4285 22.7865 66.2436 23.1523C66.0589 23.5181 65.8741 23.884 65.5661 24.2497C65.3196 24.6156 65.0733 24.9204 64.8885 25.2862C64.7037 25.652 64.4573 25.9568 64.2725 26.3227C63.9645 26.8104 63.6565 27.2981 63.3485 27.7859C63.0405 28.2737 62.7325 28.8223 62.3629 29.3101C62.2397 29.493 62.1781 29.6759 62.0549 29.7978C61.9317 29.9808 61.8701 30.1026 61.7469 30.2246C61.3157 30.8343 60.9461 31.444 60.5765 31.9927C60.2069 32.5414 59.7758 33.0901 59.2213 33.6389C59.1598 33.6998 59.0981 33.8218 58.9133 33.9436C58.6053 34.1875 58.3589 34.3704 58.1741 34.6753C57.9893 34.9192 57.8661 35.224 57.743 35.5898C57.6198 36.0775 57.4966 36.6263 57.4966 37.114C57.4966 37.6017 57.435 38.1505 57.3733 38.6382C57.3733 38.8821 57.3733 39.065 57.3118 39.2479C57.3118 39.4308 57.3118 39.6137 57.3733 39.8576C57.6198 41.2598 58.1125 42.5402 58.8518 43.5766C59.0365 43.9424 59.4061 44.1863 59.8989 44.3082H60.1453C60.5765 44.4911 60.8845 44.5521 61.1925 44.4302C61.5005 44.3692 61.8085 44.1863 62.1165 44.0034C62.4861 43.8814 62.8557 43.6985 63.2869 43.3937C63.7181 43.0279 64.1493 42.6621 64.5805 42.2353C65.0116 41.8695 65.3196 41.4427 65.6276 41.016C65.9356 40.5892 66.2436 40.1624 66.6133 39.7356C66.8596 39.4308 67.1061 39.1259 67.2908 38.7601C67.4756 38.3944 67.7221 38.0895 67.9068 37.7237C68.0301 37.5408 68.0916 37.4188 68.2148 37.2359C68.3381 37.114 68.4613 36.992 68.5845 36.8702C68.8925 36.5043 69.1388 36.0775 69.2621 35.7117C69.3853 35.4069 69.5701 35.1021 69.6933 34.8582C69.8164 34.5533 70.0628 34.3095 70.3093 34.1266L70.4324 33.8827C70.6173 33.5169 70.8636 33.2121 71.1716 32.9072C71.48 32.6024 71.7261 32.2975 71.9722 31.9317C72.65 31.2611 73.3278 30.7123 74.067 30.2856C74.3744 30.0417 74.56 29.9808 74.6827 30.1026C74.8061 30.1637 74.8061 30.4075 74.8061 30.8343C74.6827 31.2001 74.4979 31.505 74.3131 31.7488C74.1283 32.0536 73.9435 32.3585 73.7587 32.6633C73.4505 33.273 73.143 33.8827 72.7735 34.4314C72.4039 35.0411 72.0957 35.5898 71.8496 36.1995C71.6648 36.6872 71.4179 37.175 71.2333 37.6627C71.0484 38.0895 70.802 38.5773 70.494 39.065V39.1259C70.3708 39.6137 70.1861 40.0404 69.9396 40.4672C69.6933 40.894 69.3853 41.2598 69.0773 41.6866C68.8924 41.9305 68.7076 42.1134 68.5228 42.3572C68.3381 42.6011 68.1533 42.845 67.9685 43.0279C67.8453 43.1499 67.7836 43.2717 67.6605 43.3328C67.5373 43.3937 67.4756 43.5156 67.3525 43.5766C67.1676 44.0034 66.9213 44.3692 66.6133 44.6741C66.3053 44.9789 65.9356 45.2838 65.5661 45.5886C65.2581 45.8324 64.9501 46.0153 64.7036 46.1983C64.3956 46.3812 64.0877 46.625 63.7181 46.808C62.7941 47.2957 61.8085 47.5395 60.8229 47.6005C60.3917 47.6615 60.0221 47.7224 59.5909 47.6615C58.9133 47.6615 58.4821 47.6005 57.9893 47.5395ZM69.5701 8.39809C69.0156 9.12972 68.4613 9.86128 68.0301 10.532C67.5373 11.2635 67.0445 11.9342 66.6133 12.6659C66.3053 13.1536 65.9973 13.6413 65.7509 14.129C65.4429 14.6168 65.1349 15.1046 64.7036 15.5313C63.9645 16.3239 63.4717 17.1775 63.1637 18.1529C63.0405 18.5797 62.9173 19.0065 62.7941 19.3723C62.6709 19.7381 62.4245 20.1649 62.1165 20.5307C61.8701 20.7746 61.6853 20.9575 61.6853 21.1404C61.5621 21.4452 61.3773 21.7501 61.2541 21.994C61.1309 22.2378 61.0693 22.5426 61.0693 22.9084C60.9461 23.3352 60.8845 23.7011 60.7613 24.0668C60.6381 24.3107 60.5765 24.5546 60.4533 24.8594C60.3301 25.1033 60.2685 25.3471 60.1453 25.652C60.1453 25.713 60.1453 25.835 60.0838 25.8959C60.0221 25.9568 60.0837 26.0788 60.1453 26.1398C60.3917 26.0178 60.5765 25.7739 60.7613 25.3471C60.8229 25.2862 60.8229 25.2253 60.8229 25.1643C60.8229 25.1033 60.8229 25.1033 60.8845 25.0423C61.0693 24.9204 61.2541 24.7375 61.3157 24.6156C61.3773 24.4326 61.5005 24.2497 61.5621 24.0059C61.5621 23.8229 61.6853 23.6401 61.8701 23.3352C62.3629 22.7255 62.7941 22.0549 63.1021 21.2013L63.3485 20.8355C63.9029 20.043 64.3957 19.1894 64.8885 18.2749C65.3196 17.4214 65.8125 16.5068 66.3669 15.5923C66.6133 15.1655 66.8596 14.7387 67.0445 14.3119C67.2293 13.8852 67.4756 13.4584 67.7221 12.9707C67.8453 12.8487 67.9068 12.7268 67.9685 12.6659C68.0301 12.6048 68.0916 12.4829 68.0916 12.422C68.2148 12.3 68.2765 12.1781 68.3381 12.0562C68.3996 11.9342 68.4613 11.7513 68.5228 11.6294C68.5845 11.3855 68.6461 11.2026 68.7693 11.0197C68.8924 10.8368 68.9541 10.6538 69.0773 10.471C69.2004 10.1052 69.3853 9.7394 69.5701 9.37355C69.7548 9.00777 69.8781 8.64191 70.0013 8.27614C69.8164 8.2152 69.6933 8.27614 69.5701 8.39809Z" fill="#777777"/>
<path d="M73.142 47.5395C72.8959 47.4786 72.6498 47.4176 72.4029 47.2957C72.1568 47.1737 71.972 47.0518 71.7251 46.9298C71.4176 46.686 71.171 46.5641 70.9862 46.5641C70.863 46.5031 70.6782 46.3812 70.555 46.3201C70.4318 46.2592 70.3086 46.1373 70.1854 46.0153C69.939 45.7715 69.7542 45.5276 69.631 45.4056C69.5078 45.2837 69.3846 45.1008 69.2614 44.9179C69.1382 44.735 69.0766 44.5521 68.9534 44.3082C68.8303 44.0644 68.707 43.7595 68.5838 43.3328C68.3374 42.7231 68.091 42.1134 67.9063 41.4428C67.7214 40.7721 67.5983 40.1015 67.5983 39.3698C67.6598 38.943 67.6598 38.5162 67.6598 38.0895C67.6598 37.6627 67.5983 37.2359 67.5366 36.8091C67.5366 36.3214 67.5366 35.8946 67.5983 35.4069C67.5983 34.9192 67.6598 34.4924 67.7214 34.0046C67.8446 33.334 67.9063 32.6633 68.0294 31.9927C68.1526 31.322 68.2758 30.6514 68.399 29.9808C68.5223 29.3101 68.707 28.7004 68.8303 28.0907C68.9534 27.481 69.1382 26.8104 69.3846 26.2007C69.5078 25.9568 69.5694 25.713 69.6926 25.4082C69.8158 25.1643 69.8774 24.8594 70.0006 24.5546C70.1238 24.1888 70.247 23.884 70.3702 23.5791C70.4934 23.2743 70.6782 22.9694 70.7398 22.6036C71.2942 21.0795 71.9099 19.6162 72.5877 18.2139C73.0193 17.4214 73.3889 16.5678 73.8198 15.7752C74.2507 14.9826 74.7437 14.1901 75.2367 13.3974C75.6676 12.7268 76.0993 12.1171 76.5302 11.4465C76.9611 10.7758 77.4541 10.1661 78.0085 9.55644C78.6863 8.76386 79.302 8.03223 79.8563 7.23966C80.1032 6.87388 80.4107 6.56904 80.7189 6.32514C81.0271 6.0203 81.3346 5.77647 81.5815 5.47163C81.8276 5.16679 82.0745 4.86195 82.382 4.61804C82.6902 4.37414 82.9363 4.13032 83.1832 3.82547C83.4293 3.33774 83.7989 3.09384 84.1685 3.09384C84.2919 3.09384 84.3532 3.09384 84.4146 3.0329C84.4767 2.97189 84.538 2.97189 84.6615 2.91095C85.3393 2.54517 86.0163 2.30127 86.7554 2.30127C87.5567 2.30127 88.1724 2.54517 88.604 2.97189C88.7267 3.09384 88.7888 3.21579 88.9115 3.27673C89.0349 3.33774 89.0963 3.4597 89.2197 3.58157C89.528 4.0693 89.7741 4.55711 89.8975 5.04484C90.0202 5.53257 90.0202 6.08131 89.8354 6.69099C89.7127 7.17872 89.528 7.72739 89.4045 8.27614C89.2811 8.82488 89.0963 9.31261 88.9115 9.80034C88.7267 10.2881 88.5419 10.7149 88.3571 11.0806C88.1724 11.4465 87.9876 11.8732 87.8028 12.3C87.6793 12.5439 87.618 12.7268 87.4946 12.9097C87.3719 13.0926 87.3098 13.3365 87.1871 13.5194C87.0023 14.0071 86.7554 14.5558 86.448 14.9826C86.1397 15.4704 85.8315 15.9581 85.4619 16.3849C85.3393 16.5678 85.2772 16.6897 85.1537 16.8726C85.031 16.9946 84.9689 17.1775 84.8463 17.4214C84.7228 17.6652 84.5994 17.7871 84.4146 17.7871C84.2298 17.7871 84.045 17.9091 83.9837 18.1529C83.9223 18.5188 83.7989 18.8236 83.6141 19.0674C83.4293 19.3723 83.1832 19.6162 82.9984 19.921C82.5667 20.5916 82.2593 21.2623 81.9511 21.933C81.7663 22.3598 81.5815 22.7865 81.3967 23.1523C81.2119 23.5181 81.0271 23.884 80.7189 24.2497C80.4728 24.6156 80.2259 24.9204 80.0411 25.2862C79.8563 25.652 79.6102 25.9568 79.4254 26.3227C79.1172 26.8104 78.809 27.2981 78.5015 27.7859C78.1933 28.2737 77.885 28.8223 77.5155 29.3101C77.3928 29.493 77.3307 29.6759 77.208 29.7978C77.0846 29.9808 77.0232 30.1026 76.8998 30.2246C76.4689 30.8343 76.0993 31.444 75.7297 31.9927C75.3594 32.6024 74.9285 33.0901 74.3742 33.6389C74.3128 33.6998 74.2507 33.8218 74.0659 33.9436C73.7585 34.1875 73.5116 34.3704 73.3268 34.6753C73.142 34.9192 73.0193 35.224 72.8959 35.5898C72.7724 36.0775 72.6498 36.6263 72.6498 37.114C72.6498 37.6017 72.5877 38.1505 72.5263 38.6382C72.5263 38.8821 72.5263 39.065 72.4642 39.2479C72.4642 39.4308 72.4642 39.6137 72.5263 39.8576C72.7724 41.2598 73.2655 42.5402 74.0046 43.5766C74.1894 43.9424 74.5589 44.1863 75.052 44.3082H75.2981C75.7297 44.4911 76.0372 44.5521 76.3454 44.4302C76.6537 44.3692 76.9611 44.1863 77.2694 44.0034C77.6389 43.8814 78.0085 43.6985 78.4394 43.3937C78.8711 43.0279 79.302 42.6621 79.7336 42.2353C80.1646 41.8695 80.4728 41.4427 80.7802 41.016C81.0885 40.5892 81.3967 40.1624 81.7663 39.7356C82.0124 39.4308 82.2593 39.1259 82.4441 38.7601C82.6289 38.3944 82.875 38.0895 83.0598 37.7237C83.1832 37.5408 83.2445 37.4188 83.368 37.2359C83.4907 37.114 83.6141 36.992 83.7376 36.8702C84.045 36.5043 84.2919 36.0775 84.4146 35.7117C84.538 35.4069 84.7228 35.1021 84.8463 34.8582C84.9689 34.5533 85.2158 34.3095 85.4619 34.1266L85.5854 33.8827C85.7702 33.5169 86.0163 33.2121 86.3245 32.9072C86.6328 32.6024 86.8789 32.2975 87.125 31.9317C87.8028 31.2611 88.4806 30.7123 89.2197 30.2856C89.528 30.0417 89.7127 29.9808 89.8354 30.1026C89.9589 30.1637 89.9589 30.4075 89.9589 30.8343C89.8354 31.2001 89.6506 31.505 89.4658 31.7488C89.2811 32.0536 89.0963 32.3585 88.9115 32.6633C88.604 33.273 88.2958 33.8827 87.9262 34.4314C87.5567 35.0411 87.2484 35.5898 87.0023 36.1995C86.8175 36.6872 86.5706 37.175 86.3859 37.6627C86.2011 38.0895 85.955 38.5773 85.6467 39.065V39.1259C85.5241 39.6137 85.3393 40.0404 85.0924 40.4672C84.8463 40.894 84.538 41.2598 84.2298 41.6866C84.045 41.9305 83.8602 42.1134 83.6755 42.3572C83.4907 42.6011 83.3059 42.845 83.1211 43.0279C82.9984 43.1499 82.9363 43.2717 82.8136 43.3328C82.6902 43.3937 82.6289 43.5156 82.5054 43.5766C82.3206 44.0034 82.0745 44.3692 81.7663 44.6741C81.458 44.9789 81.0885 45.2838 80.7189 45.5886C80.4107 45.8324 80.1032 46.0153 79.8563 46.1983C79.5489 46.3812 79.2406 46.625 78.8711 46.808C77.9472 47.2957 76.9611 47.5395 75.9759 47.6005C75.5442 47.6615 75.1746 47.7224 74.7437 47.6615C74.0659 47.6615 73.5737 47.6005 73.142 47.5395ZM84.6615 8.39809C84.1071 9.12972 83.5528 9.86128 83.1211 10.532C82.6288 11.2635 82.1358 11.9342 81.7042 12.6659C81.3967 13.1536 81.0885 13.6413 80.8423 14.129C80.5341 14.6168 80.2259 15.1046 79.795 15.5313C79.0559 16.3239 78.5628 17.1775 78.2546 18.1529C78.1319 18.5797 78.0085 19.0065 77.885 19.3723C77.7624 19.7381 77.5155 20.1649 77.208 20.5307C76.9611 20.7746 76.7763 20.9575 76.7763 21.1404C76.6537 21.4452 76.4689 21.7501 76.3454 21.994C76.222 22.2378 76.1607 22.5426 76.1607 22.9084C76.0372 23.3352 75.9759 23.7011 75.8524 24.0668C75.7297 24.3107 75.6676 24.5546 75.5442 24.8594C75.4215 25.1033 75.3594 25.3471 75.2367 25.652C75.2367 25.713 75.2367 25.835 75.1746 25.8959C75.1133 25.9568 75.1746 26.0788 75.2367 26.1398C75.4829 26.0178 75.6676 25.7739 75.8524 25.3471C75.9145 25.2862 75.9145 25.2253 75.9145 25.1643C75.9145 25.1033 75.9145 25.1033 75.9759 25.0423C76.1607 24.9204 76.3454 24.7375 76.4068 24.6156C76.4689 24.4326 76.5916 24.2497 76.6537 24.0059C76.6537 23.8229 76.7763 23.6401 76.9611 23.3352C77.4541 22.7255 77.885 22.0549 78.1933 21.2013L78.4394 20.8355C78.9945 20.043 79.4868 19.1894 79.9798 18.2749C80.4107 17.4214 80.9037 16.5068 81.458 15.5923C81.7042 15.1655 81.9511 14.7387 82.1358 14.3119C82.3206 13.8852 82.5667 13.4584 82.8136 12.9707C82.9363 12.8487 82.9984 12.7268 83.0598 12.6659C83.1211 12.6048 83.1832 12.4829 83.1832 12.422C83.3059 12.3 83.368 12.1781 83.4293 12.0562C83.4907 11.9342 83.5528 11.7513 83.6141 11.6294C83.6754 11.3855 83.7376 11.2026 83.8602 11.0197C83.9837 10.8368 84.045 10.6538 84.1685 10.471C84.2919 10.1052 84.4767 9.7394 84.6615 9.37355C84.8463 9.00777 84.9689 8.64191 85.0924 8.27614C84.9689 8.2152 84.8463 8.27614 84.6615 8.39809Z" fill="#777777"/>
<path d="M92.6707 48.3303C92.1785 48.0254 92.6707 47.7206 91.1925 47.5377C91.0698 47.5377 91.0077 47.4157 91.0698 47.2329C91.2546 46.7451 90.4533 46.989 89.2833 46.2573V46.1964C89.2212 46.1354 89.1599 46.1354 89.1599 46.1354C89.1599 46.0744 89.0985 46.0135 89.0364 45.9525C88.8516 45.7087 88.6668 45.5258 88.6055 45.4648V45.4038C88.4821 45.099 88.3594 44.7941 88.3594 44.4284V43.6357C88.3594 43.3919 88.3594 43.148 88.2973 42.8431C88.1746 42.3554 88.1746 41.9286 88.2973 41.4409C88.4207 41.0141 88.4821 40.5264 88.5442 40.0386C88.6055 39.3679 89.0364 39.0631 89.8376 39.0022C89.9603 39.0022 89.9603 39.0022 89.9603 38.9412C89.9603 38.9412 90.0224 38.8802 90.0838 38.8193C90.5147 38.5144 90.885 38.2096 91.3159 37.9657C91.7468 37.6608 92.1785 37.417 92.6094 37.2341C92.9176 37.0512 93.2251 36.9293 93.5333 36.7463C93.8415 36.6244 94.1498 36.4415 94.3959 36.1977C94.9502 35.7709 95.4433 35.3441 95.9355 34.8563C96.3672 34.4295 96.8594 33.9418 97.4145 33.4541C97.8454 33.0273 98.215 32.6005 98.5846 32.1738C98.9541 31.747 99.3851 31.3202 99.7546 30.8934C99.8781 30.7715 100.002 30.6496 100.125 30.5276C100.248 30.4057 100.371 30.2228 100.432 30.1008C100.556 29.796 100.679 29.5521 100.864 29.3083C101.049 29.0644 101.295 28.8815 101.48 28.6376L101.603 28.3937C101.973 27.845 102.28 27.2963 102.588 26.8085C102.897 26.3208 103.266 25.7721 103.636 25.2844C103.759 25.2234 103.759 25.1014 103.759 25.0405C103.882 24.7966 103.944 24.6137 103.944 24.4308C103.944 24.2479 104.005 24.065 104.129 23.8211C104.252 23.5163 104.314 23.2724 104.252 23.0286C104.129 22.7847 104.129 22.5408 104.129 22.236C104.129 21.9921 104.129 21.7482 104.067 21.4433C104.005 21.1995 103.944 21.0166 103.944 20.7727C103.882 20.5289 103.821 20.3459 103.636 20.1021C103.512 19.8582 103.328 19.6753 103.143 19.4924C102.958 19.3095 102.835 19.1266 102.712 18.8827C102.527 18.6388 102.28 18.4559 101.973 18.2731C101.665 18.1511 101.418 18.0292 101.172 17.9072C100.741 17.6634 100.31 17.6024 99.8167 17.6024C99.3237 17.6024 98.8307 17.6024 98.3998 17.4805C98.215 17.4195 97.9068 17.4805 97.5372 17.6024C96.4899 17.9682 95.5659 18.5169 94.642 19.1876C94.4572 19.3095 94.2725 19.4314 94.0877 19.6144C93.965 19.7362 93.7794 19.9192 93.5333 20.0411C92.2398 20.8947 91.1311 21.9921 90.0838 23.2724C89.3446 24.2479 88.6055 25.2234 87.9277 26.1989C87.2499 27.1744 86.6342 28.2108 86.0799 29.2472C85.3407 30.6496 84.6016 32.1128 83.9851 33.576C83.3695 35.0392 82.8151 36.5634 82.4455 38.0876C82.1994 39.0022 82.0146 39.9167 82.0146 40.7703C81.9525 41.6848 82.0146 42.5993 82.1373 43.5138C82.2607 44.1844 82.4455 44.8551 82.6917 45.4648C82.9999 46.0744 83.4308 46.6232 84.0472 47.1109C84.3555 47.3548 84.725 47.5986 85.0946 47.9035C85.4642 48.2083 85.8951 48.5132 86.326 48.818C86.7577 49.1228 87.2499 49.3057 87.6816 49.4887C88.1125 49.6716 88.5442 49.7325 88.9751 49.6716C89.2212 49.6106 89.4681 49.6106 89.6529 49.6716C89.8376 49.7325 90.0224 49.7325 90.2072 49.7935C90.3299 49.8545 90.5147 49.8545 90.6381 49.8545C90.7616 49.8545 90.9463 49.6716 91.1311 49.7325C91.5007 49.7325 91.8089 49.8545 92.1164 49.6716C94.0263 49.1228 93.2872 48.6351 92.6707 48.3303ZM92.055 30.9544C92.1785 30.6496 92.3012 30.3447 92.4246 30.0399C92.5481 29.796 92.6707 29.6131 92.7942 29.3692C92.9176 29.1254 93.1024 28.9424 93.1638 28.6986C93.2872 28.5157 93.3485 28.3937 93.4099 28.2109C93.472 28.0889 93.5333 27.906 93.5333 27.6621C93.6568 27.1134 93.965 26.6256 94.3959 26.2599C94.7041 25.8941 95.0116 25.5892 95.2585 25.2844C95.5046 24.9796 95.7507 24.6747 95.9976 24.3089C96.2437 24.004 96.4899 23.6992 96.7368 23.3943C96.9829 23.0895 97.2298 22.7847 97.5372 22.4798C97.722 22.236 97.9689 22.053 98.215 21.9311C98.4611 21.8092 98.708 21.6263 98.9542 21.4433H99.2003C99.2003 21.6872 99.1389 21.9311 99.0776 22.236C98.9542 22.4798 98.8928 22.7237 98.7694 23.0286C98.6459 23.3943 98.4611 23.7602 98.215 24.126C98.0302 24.4917 97.7841 24.8576 97.5993 25.2234C97.1677 26.077 96.6746 26.8695 95.9976 27.6621C95.3198 28.4547 94.642 29.1863 93.9029 29.9179C93.5333 30.2837 93.1637 30.5886 92.7942 30.8934C92.4246 31.1982 91.9937 31.5031 91.6241 31.8689C91.7468 31.5641 91.9316 31.2593 92.055 30.9544Z" fill="#777777"/>
<path d="M49.8571 1.387C49.7955 1.32606 49.7955 1.32606 49.8571 1.387C49.7955 1.387 49.7955 1.387 49.7339 1.32606C49.6107 1.14317 48.2555 1.93574 48.3787 1.87481C48.4403 1.81379 48.4403 1.75285 48.4403 1.69184C48.4403 1.6309 48.4403 1.50895 48.5019 1.44801C48.6251 1.26512 48.6867 1.14317 48.7483 0.89927C48.5635 0.960283 48.5019 0.838331 48.4403 0.655442C48.3787 0.411539 48.1939 0.350601 47.9475 0.350601C47.5163 0.289587 47.0235 0.289588 46.5923 0.289588C46.4691 0.167636 46.2843 0.0457603 46.0995 0.0457603C45.6068 -0.0152534 45.1139 -0.0152534 44.5595 0.0457603C44.3131 0.0457603 44.0668 0.106698 43.7588 0.22865C43.0196 0.594428 42.342 1.08216 41.726 1.6309C41.3563 1.93574 40.9868 2.24058 40.6171 2.60636L39.57 3.70385C39.2004 4.13057 38.8308 4.61837 38.4611 5.1061C38.0916 5.59383 37.7836 6.08156 37.414 6.63031C37.106 7.11804 36.798 7.54483 36.49 8.03256C36.182 8.52029 35.3196 9.86161 35.3196 9.86161C35.3812 9.67872 32.2396 15.4097 30.8845 18.641C29.1596 22.9088 27.8045 26.9326 27.5581 27.6643C27.5581 27.6643 26.0181 31.932 25.8949 32.3588C25.7101 32.7246 25.5253 33.3343 25.4021 33.7001C25.3405 33.944 25.2789 34.1268 25.1557 34.3708C25.0941 34.4927 25.0941 34.5536 25.0325 34.6756C24.7861 35.2243 24.4781 35.8339 24.1701 36.3827C23.8621 36.9314 23.5541 37.4801 23.2461 38.0288C22.9997 38.3946 22.8149 38.7604 22.5069 39.1263C22.2605 39.492 22.0141 39.8579 21.7677 40.2237C21.5213 40.5894 21.3365 40.9553 21.0901 41.2601C20.8438 41.565 20.5973 41.8698 20.4125 42.1747C19.9813 42.7233 19.6118 43.2111 19.1805 43.6989C18.7493 44.1866 18.3181 44.6134 17.887 45.0401C17.7021 45.1621 17.579 45.284 17.4558 45.406C17.3326 45.5279 17.1478 45.6498 16.963 45.7108C16.7781 45.8328 16.655 45.8937 16.5318 46.0156C16.4086 46.1376 16.2853 46.2595 16.1006 46.3205C15.9773 46.4424 15.7926 46.5034 15.731 46.5034C15.6078 46.6253 15.423 46.6863 15.2998 46.6863C15.1766 46.7473 14.9918 46.8082 14.8686 46.8691C14.7454 46.9302 14.6838 46.9911 14.5606 46.9911C14.5606 46.9302 14.499 46.8691 14.499 46.8082C14.4374 46.6253 14.4374 46.4424 14.4374 46.1985C14.3142 45.7108 14.3142 45.2231 14.3142 44.6743C14.3142 44.1256 14.3142 43.5769 14.3758 43.0892C14.4374 42.5404 14.499 41.9917 14.499 41.504C14.5606 41.0772 14.6222 40.6505 14.6838 40.2237C14.7454 39.7969 14.807 39.4311 14.9302 39.0043C15.0534 38.6385 15.115 38.2117 15.1766 37.8459C15.2382 37.4801 15.2998 37.0533 15.423 36.6875C15.5462 35.8339 15.731 35.1633 15.9158 34.5536C16.1006 34.0049 16.2238 33.5172 16.347 33.0294C16.4701 32.5417 16.5933 32.054 16.7166 31.5052C16.9013 30.8956 17.1478 30.1639 17.4558 29.4324C17.7638 28.8227 18.0101 28.152 18.2565 27.5423C18.3798 27.2375 18.503 26.8717 18.6878 26.4449C18.9341 25.9572 19.1805 25.4084 19.3653 24.9816C19.6733 24.311 22.4453 17.1778 22.9997 14.1903C23.8005 10.5932 23.7389 7.30093 21.5213 6.26445C21.4597 6.26445 21.4597 6.26445 21.3981 6.26445C21.2133 6.20352 21.0285 6.1425 20.8438 6.08156H20.7821C20.4741 5.95961 20.1661 5.95961 19.8581 5.95961C19.6733 5.95961 19.4885 6.02063 19.2421 6.02063C18.811 6.08156 18.3181 6.1425 17.7638 6.26445C17.4558 6.32547 17.1478 6.44734 16.8398 6.50836C16.655 6.50836 16.4701 6.56929 16.347 6.63031C16.1621 6.75218 15.9158 6.8132 15.731 6.87413C15.6693 6.93515 15.6078 6.93515 15.6078 6.99609C15.5462 7.05702 15.423 7.05702 15.3613 7.11804C15.3613 7.11804 15.3613 7.05702 15.3613 6.99609C15.5462 6.87413 15.731 6.8132 15.9158 6.75218C15.9773 6.69125 16.039 6.69125 16.039 6.69125C16.1006 6.69125 16.1006 6.63031 16.1006 6.50836C15.9158 6.50836 15.731 6.56929 15.5462 6.56929C15.3613 6.56929 15.2382 6.63031 15.0533 6.69125C14.9302 6.8132 14.8686 6.87413 14.8686 6.99609C14.8686 7.05702 14.807 7.05702 14.807 7.05702C14.6838 7.05702 14.5606 7.11804 14.3758 7.17898C14.3142 7.23999 14.2526 7.30093 14.191 7.36187C14.0678 7.36187 14.0062 7.42288 13.883 7.42288C13.6982 7.48382 13.575 7.54483 13.3902 7.60577C13.2054 7.66671 13.0822 7.78866 12.959 7.91061C12.8974 7.97155 12.8358 7.97155 12.7742 7.97155C12.7126 7.97155 12.651 8.03256 12.651 8.15451C12.5894 8.21545 12.5278 8.3374 12.343 8.39834C12.2814 8.45935 12.2814 8.45935 12.2198 8.45935C12.2198 8.45935 12.1582 8.45935 12.1582 8.52029C12.0966 8.52029 12.0966 8.58123 12.035 8.58123L12.0966 8.45935L11.9734 8.39834C11.7886 8.45935 11.6654 8.52029 11.6038 8.58123C11.4806 8.76419 11.3574 8.94708 11.1726 9.00802C10.9878 9.12997 10.803 9.25192 10.6798 9.43481C10.495 9.55676 10.3718 9.73965 10.2486 9.86161C10.0638 9.98356 9.94059 10.1054 9.81745 10.2274C9.69424 10.3493 9.50946 10.5322 9.38624 10.7151L9.26303 10.8371C9.13981 10.959 9.0166 11.02 8.89346 11.1419C8.77024 11.2029 8.64703 11.3248 8.58546 11.4467C8.58546 11.4467 8.58546 11.4467 8.58546 11.5078C8.64703 11.6296 8.64703 11.6296 8.58546 11.6907C8.52381 11.6907 8.52381 11.6907 8.46225 11.6907L8.33903 11.8126C8.33903 11.9345 8.33903 11.9955 8.27746 11.9955C8.21582 11.9955 8.15425 12.0564 8.03103 12.1174C8.03103 12.1784 8.03103 12.1784 8.03103 12.2393C6.98382 13.1538 5.99826 14.1903 5.13583 15.1658C5.13583 15.1658 4.45827 15.8974 4.15027 16.3242C3.7807 16.8119 3.34949 17.3607 2.91828 17.9093L1.68628 19.6775C1.43988 20.0432 1.19349 20.47 0.947087 20.8358C0.700689 21.2017 0.515897 21.6284 0.331098 21.9942C0.269499 22.0552 0.207899 22.1162 0.207899 22.2381C0.0231 22.6039 -0.0384998 22.8478 0.0230999 23.0307C0.0846995 23.1527 0.146299 23.3355 0.331098 23.4575C0.269499 23.6404 0.269499 23.7623 0.269499 23.8842C0.331098 24.0671 0.454297 24.2501 0.700696 24.433C1.37828 24.9816 2.05588 25.2865 2.85671 25.2865C3.41106 25.3475 3.84227 25.2255 4.27348 24.8597C4.45827 24.6768 4.7047 24.372 4.88948 23.9452C5.07426 23.6404 5.25905 23.3355 5.38226 23.0916C5.56705 22.8478 5.69026 22.543 5.87505 22.2991C6.86061 20.7139 8.4006 18.7629 8.4006 18.7629C11.7886 15.1048 16.5318 11.1419 18.195 11.6907C18.7493 11.8735 18.811 12.6661 18.6878 13.8855C18.3798 15.5926 16.963 19.6164 15.6078 23.3355C14.1294 26.8107 12.8358 29.9201 12.651 30.3468C12.5894 30.5298 12.5278 30.7127 12.5278 30.8346C12.4662 30.9565 12.4662 31.1395 12.4046 31.3223C12.2814 31.6881 12.1582 32.054 12.035 32.3588C11.9118 32.6637 11.7886 33.0294 11.6654 33.3343C11.2958 34.1879 11.111 35.0414 10.9878 35.895C10.8646 36.7485 10.6798 37.541 10.3718 38.3946C10.3102 38.6385 10.2486 38.8824 10.187 39.1263C10.1255 39.3701 10.0638 39.614 10.0022 39.8579C9.94059 40.1017 9.87902 40.3456 9.87902 40.6505C9.87902 40.8943 9.81745 41.1991 9.81745 41.443C9.81745 41.565 9.81745 41.7479 9.87902 41.8698C9.87902 41.9917 9.94059 42.1136 10.0022 42.1747C10.1255 42.2965 10.1255 42.4185 10.1255 42.6624C10.0638 42.9062 10.0638 43.1501 10.0638 43.394C10.0638 43.6379 10.0638 43.8818 10.0022 44.1256L9.94059 44.4914C9.94059 44.6134 9.94059 44.6743 9.94059 44.7353C10.0022 44.7353 10.0638 44.8572 10.0022 45.0401L9.94059 45.406C10.0022 45.9546 10.0638 46.4424 10.1255 46.9302C10.187 47.4179 10.3102 47.9056 10.3718 48.3934C10.495 48.7592 10.6182 49.003 10.7414 49.125L10.9878 49.5518C11.0494 49.7347 11.1726 49.9176 11.2342 50.0395C11.2958 50.1615 11.419 50.3444 11.4806 50.5272C11.6038 50.7711 11.7886 50.954 11.9734 51.076C12.1582 51.1979 12.343 51.3808 12.4662 51.6247H12.5278C12.651 51.6247 12.7742 51.6857 12.8974 51.8076C12.959 51.8686 13.0206 51.8686 13.0822 51.9295C13.1438 51.9905 13.2054 52.1125 13.3286 52.2343H13.5134C13.575 52.2343 13.6366 52.2343 13.6982 52.2953C13.7598 52.3563 13.8214 52.4173 13.883 52.4782C14.0062 52.6002 14.0678 52.7221 14.191 52.844C14.3758 53.1489 14.5606 53.3928 14.807 53.5147C14.9302 53.6366 15.0533 53.6976 15.1766 53.8805C15.2382 54.0024 15.3613 54.0024 15.5462 53.9414C15.6078 53.9414 15.6078 54.0024 15.6693 54.0024C15.7926 54.1244 15.9158 54.1853 16.039 54.3073C16.1621 54.4292 16.2853 54.4292 16.4701 54.3682C16.4701 54.4292 16.4701 54.4292 16.5318 54.4292C16.5933 54.4902 16.7166 54.4292 16.9013 54.3682C17.5173 54.0634 18.0718 53.6367 18.7493 53.027C19.3653 52.4782 19.9813 51.9295 20.5358 51.3198C21.1517 50.7101 21.7061 50.0395 22.2605 49.3689C23.4309 47.8447 24.5397 46.1985 25.5253 44.4914C25.8333 43.9427 26.1413 43.394 26.4493 42.8453C26.7573 42.2965 27.0653 41.6869 27.3733 41.1382C27.8661 40.1627 28.3588 39.1872 28.7901 38.1507C29.2828 37.1753 29.7141 36.1388 30.1453 35.1024C30.3916 34.3708 30.638 33.7001 30.8845 33.0294C31.0076 32.7855 31.1308 32.4198 31.254 32.054C31.3773 31.6881 31.5005 31.3223 31.562 31.0175C31.6853 30.7127 31.8085 30.3468 31.9316 29.981C32.1165 29.4933 32.3013 29.0665 32.486 28.5788C32.6708 28.091 32.8556 27.6033 33.0404 27.1765C33.1636 26.8717 33.2868 26.5668 33.41 26.3229C33.5332 26.0181 33.6564 25.7133 33.8412 25.4694C33.9644 25.2865 34.026 25.1036 34.0876 24.9207C34.1492 24.7378 34.2108 24.5549 34.334 24.372C34.4572 24.1891 34.5188 23.9452 34.5804 23.7623C34.642 23.5794 34.7652 23.3965 34.8268 23.1527C35.1348 22.6039 35.3812 22.0552 35.6892 21.5065C35.9356 20.9578 36.2436 20.4091 36.5516 19.8603C36.9828 19.1287 37.3524 18.3971 37.722 17.7265C38.0916 16.9948 38.5228 16.3242 38.954 15.6536C39.262 15.1658 39.57 14.678 39.878 14.1903C40.186 13.7026 40.494 13.2149 40.802 12.727C41.11 12.2393 41.3563 11.7516 41.6643 11.3248C41.9723 10.8981 42.2803 10.4713 42.5268 10.1054C42.65 9.86161 42.7731 9.67872 42.8963 9.49575C43.0196 9.31286 43.1428 9.12997 43.3275 8.94708C43.5123 8.70318 43.7588 8.45935 43.9435 8.27639C44.1283 8.0935 44.3131 7.84967 44.5595 7.60577C44.6828 7.42288 44.8059 7.30093 44.9908 7.11804L45.4219 6.69125C45.6068 6.50836 45.7915 6.3864 45.8531 6.32547L47.1467 5.1061C48.8715 3.64284 49.7339 3.03316 49.7339 3.03316C49.8571 2.97222 49.9803 2.85027 49.9803 2.72831C50.0419 2.60636 49.7339 2.42347 49.7955 2.24058C49.8571 2.17965 49.9187 2.11863 49.9187 2.0577C49.9803 1.99668 50.0419 1.93574 50.0419 1.87481C50.0419 1.50895 50.0419 1.387 49.8571 1.387ZM10.4334 47.0521C10.3102 46.7473 10.2486 46.4424 10.2486 46.1376C10.3102 45.8328 10.3102 45.5279 10.3102 45.2231C10.3718 45.3449 10.4334 45.5889 10.4334 46.0156C10.495 46.5034 10.495 46.8082 10.4334 47.0521Z" fill="#777777"/>
</g>
<defs>
<clipPath id="clip0_4031_2981">
<rect width="105" height="55.5" fill="white"/>
</clipPath>
</defs>
</svg>
