<svg width="70" height="37" viewBox="0 0 70 37" fill="none" xmlns="http://www.w3.org/2000/svg">
<g clip-path="url(#clip0_4016_550)">
<path d="M35.8258 22.4259C36.1953 22.4259 36.3185 22.5885 36.1132 22.9543C36.031 23.1169 35.9489 23.2388 35.9078 23.4014C35.8668 23.564 35.8257 23.6859 35.7436 23.8485C35.6615 24.0111 35.6204 24.133 35.5793 24.2143C35.5383 24.2956 35.4561 24.4175 35.4151 24.5395C35.3329 24.6614 35.2918 24.7427 35.2098 24.824C35.1276 24.9053 35.0865 24.9866 35.0044 25.0678C34.9223 25.1898 34.8812 25.2711 34.7991 25.393C34.7169 25.4743 34.6758 25.5963 34.5938 25.7588C34.5116 25.9214 34.3884 26.084 34.3063 26.2466C34.2241 26.4498 34.101 26.6124 34.0599 26.7343C34.0188 26.775 33.9778 26.8563 33.9778 26.8969C33.9367 26.9376 33.8956 26.9782 33.8956 27.0595C33.6081 27.3846 33.3618 27.6692 33.1153 27.9943C32.869 28.2789 32.5815 28.604 32.3351 28.9292C32.2119 29.0918 32.0887 29.2137 32.0065 29.3763C31.9244 29.5388 31.8012 29.7014 31.678 29.864C31.3906 30.2705 31.1031 30.6363 30.7746 30.9614C30.446 31.2866 30.1175 31.6524 29.7479 32.0182C29.5836 32.2214 29.3783 32.384 29.1319 32.5466C28.8855 32.7092 28.6391 32.8311 28.3106 32.8718C28.1874 32.9124 28.0642 32.9531 27.982 33.0343C27.8999 33.1156 27.8178 33.1563 27.6946 33.2376C27.4071 33.4408 27.0786 33.5221 26.7911 33.5221C26.709 33.4815 26.5858 33.4815 26.5037 33.4815C26.4215 33.4815 26.2983 33.4815 26.2162 33.4408C26.093 33.4002 25.9698 33.4002 25.8466 33.3595C25.7234 33.3189 25.6002 33.3189 25.3949 33.3595C25.1074 33.4002 24.82 33.3595 24.5325 33.2376C24.245 33.1156 23.9165 32.9531 23.629 32.7905C23.3416 32.5873 23.0541 32.384 22.8077 32.1808C22.5613 31.9776 22.3149 31.7743 22.1096 31.6524C21.6989 31.3273 21.4114 30.9614 21.2061 30.555C21.0008 30.1485 20.8776 29.7014 20.8365 29.2543C20.7544 28.6446 20.7133 27.9943 20.7544 27.4253C20.7955 26.8156 20.8776 26.206 21.0418 25.6369C21.3293 24.6208 21.6578 23.6046 22.0685 22.6292C22.4792 21.6537 22.972 20.6781 23.4648 19.7433C23.8343 19.0117 24.245 18.3614 24.6968 17.711C25.1485 17.0607 25.6413 16.4104 26.1341 15.7601C26.8322 14.9065 27.5714 14.1749 28.4338 13.6059C28.557 13.5246 28.6802 13.4433 28.8034 13.3213C28.8855 13.2401 29.0087 13.1181 29.173 13.0369C29.789 12.5897 30.446 12.224 31.1031 11.98C31.3495 11.8987 31.5138 11.8581 31.678 11.8987C31.9655 11.9394 32.294 11.98 32.6225 11.98C32.9511 11.98 33.2385 12.0207 33.526 12.1833C33.6903 12.2646 33.8545 12.3459 34.0599 12.4272C34.2652 12.5084 34.3884 12.6304 34.5527 12.8336C34.6348 12.9962 34.7169 13.1181 34.8401 13.2401C34.9633 13.362 35.0865 13.4839 35.1687 13.6465C35.2508 13.8091 35.3329 13.931 35.374 14.0936C35.415 14.2562 35.4561 14.3782 35.4561 14.5407C35.4972 14.7033 35.4972 14.8659 35.4972 15.0691C35.4972 15.2317 35.4972 15.3943 35.5793 15.5975C35.6204 15.7601 35.5793 15.9227 35.4972 16.1259C35.4151 16.2884 35.374 16.4104 35.374 16.5323C35.374 16.6543 35.3329 16.7762 35.2508 16.9388C35.2508 16.9794 35.2097 17.0607 35.1687 17.1014C34.8812 17.4266 34.6759 17.7923 34.4705 18.1175C34.2652 18.4427 34.0599 18.8085 33.8135 19.1743L33.485 19.1336C33.3618 19.2962 33.1975 19.4182 33.0743 19.5808C32.9511 19.7433 32.8279 19.9059 32.7868 20.1091C32.7458 20.2311 32.7047 20.3124 32.5815 20.3937C32.4993 20.4749 32.3762 20.5562 32.3351 20.6375C32.0476 20.922 31.8012 21.2066 31.5548 21.4911C31.3084 21.7756 31.021 22.0601 30.7746 22.3446C30.446 22.6698 30.1175 22.9543 29.789 23.2795C29.5015 23.564 29.1319 23.8892 28.7623 24.1737C28.598 24.3362 28.3927 24.4582 28.1874 24.5395C27.982 24.6208 27.7767 24.7427 27.5714 24.8646C27.2839 25.0272 26.9965 25.1898 26.709 25.3524C26.4215 25.5556 26.1751 25.7182 25.8877 25.9214C25.8055 25.9621 25.8055 25.9621 25.8055 26.0027C25.8055 26.0027 25.7645 26.0434 25.7234 26.0434C25.1895 26.084 24.9021 26.2872 24.861 26.7343C24.82 27.0595 24.7789 27.344 24.6968 27.6692C24.6146 27.9537 24.6146 28.2789 24.6968 28.604C24.7378 28.7666 24.7378 28.9292 24.7378 29.1324C24.7378 29.295 24.7378 29.4575 24.7378 29.6608C24.7378 29.9047 24.7789 30.1079 24.9021 30.3111V30.3518C24.9842 30.3924 25.0663 30.5144 25.1895 30.6769C25.2717 30.7176 25.2717 30.7582 25.2717 30.7989C25.3128 30.7989 25.3538 30.7989 25.3538 30.8395V30.8801C25.6002 31.0834 25.8466 31.0834 26.1341 30.9208C26.6268 30.6769 27.1608 30.3924 27.6535 30.1079C28.1463 29.8234 28.6391 29.4982 29.0498 29.0918C29.214 28.9292 29.3783 28.8072 29.5426 28.6446C29.7068 28.4821 29.8711 28.3195 30.0354 28.1976C30.2818 27.9537 30.4871 27.7505 30.7335 27.5472C30.9388 27.344 31.1853 27.1001 31.4316 26.8969C31.678 26.6937 31.8833 26.4904 32.1298 26.2872C32.3351 26.084 32.5815 25.8808 32.7868 25.6369C33.0743 25.3117 33.4028 24.9866 33.6903 24.6614C33.9778 24.3362 34.3063 24.0111 34.5938 23.6453C34.7169 23.4827 34.8401 23.3608 34.9633 23.1982C35.0865 23.0356 35.2098 22.873 35.2918 22.7511C35.374 22.5072 35.5793 22.4259 35.8258 22.4259ZM27.4482 20.0278C27.3661 20.2311 27.2839 20.4343 27.2018 20.6375C27.1197 20.8407 26.9965 21.044 26.8733 21.2472C27.1608 21.0033 27.4071 20.8001 27.6535 20.5969C27.8999 20.3937 28.1463 20.1904 28.3927 19.9465C28.8855 19.4588 29.3373 18.9711 29.789 18.4427C30.2407 17.9143 30.5693 17.3859 30.8567 16.8169C30.9799 16.573 31.1442 16.3291 31.2673 16.0852C31.3906 15.8414 31.5138 15.5975 31.637 15.3536C31.7191 15.1911 31.7602 15.0285 31.8423 14.8252C31.9244 14.6627 31.9244 14.5001 31.9244 14.2969H31.7602C31.5959 14.4188 31.4316 14.5001 31.2673 14.622C31.1031 14.7033 30.9799 14.8252 30.8156 14.9878C30.6103 15.1911 30.446 15.3943 30.2818 15.5975C30.1175 15.8007 29.9533 16.004 29.789 16.2072C29.6247 16.451 29.4605 16.6543 29.2962 16.8575C29.1319 17.0607 28.9266 17.264 28.7213 17.5078C28.4338 17.7517 28.2695 18.0769 28.1463 18.4427C28.1053 18.6052 28.0642 18.7272 28.0642 18.8085C28.0231 18.8898 27.9821 19.0117 27.8999 19.1336C27.8178 19.2962 27.7357 19.4182 27.6535 19.5808C27.6125 19.7433 27.5303 19.8652 27.4482 20.0278Z" fill="#777777"/>
<path d="M38.6594 31.693C38.4951 31.6524 38.3309 31.6117 38.1666 31.5305C38.0023 31.4492 37.8792 31.3679 37.7149 31.2866C37.5095 31.124 37.3453 31.0427 37.2221 31.0427C37.1399 31.0021 37.0167 30.9208 36.9346 30.8801C36.8525 30.8395 36.7704 30.7582 36.6882 30.6769C36.5239 30.5143 36.4007 30.3517 36.3186 30.2704C36.2365 30.1892 36.1544 30.0672 36.0722 29.9453C35.9901 29.8233 35.949 29.7014 35.8669 29.5388C35.7847 29.3763 35.7026 29.173 35.6205 28.8885C35.4562 28.482 35.2919 28.0756 35.1687 27.6285C35.0456 27.1814 34.9634 26.7343 34.9634 26.2465C35.0045 25.962 35.0045 25.6775 35.0045 25.393C35.0045 25.1085 34.9634 24.824 34.9224 24.5394C34.9224 24.2143 34.9224 23.9297 34.9634 23.6046C34.9634 23.2794 35.0045 22.9949 35.0456 22.6698C35.1277 22.2227 35.1687 21.7756 35.2509 21.3285C35.333 20.8813 35.4152 20.4343 35.4973 19.9872C35.5794 19.5401 35.7026 19.1336 35.7847 18.7271C35.8669 18.3207 35.9901 17.8736 36.1544 17.4672C36.2365 17.3046 36.2775 17.142 36.3597 16.9388C36.4418 16.7762 36.4829 16.5729 36.565 16.3697C36.6472 16.1259 36.7293 15.9226 36.8114 15.7194C36.8935 15.5162 37.0167 15.313 37.0578 15.0691C37.4274 14.053 37.8381 13.0775 38.2898 12.1426C38.5772 11.6142 38.8237 11.0452 39.1112 10.5168C39.3986 9.98842 39.7271 9.46004 40.0557 8.93161C40.3431 8.48453 40.6306 8.07808 40.918 7.631C41.2055 7.18387 41.534 6.77741 41.9037 6.37096C42.3554 5.84258 42.766 5.35482 43.1356 4.82644C43.2999 4.58259 43.5052 4.37936 43.7106 4.21676C43.9159 4.01353 44.1212 3.85098 44.2855 3.64775C44.4497 3.44453 44.614 3.2413 44.8194 3.0787C45.0247 2.91609 45.1889 2.75354 45.3532 2.55032C45.5175 2.22516 45.7639 2.06256 46.0103 2.06256C46.0924 2.06256 46.1334 2.06256 46.1745 2.02194C46.2156 1.98126 46.2567 1.98126 46.3388 1.94063C46.7905 1.69678 47.2422 1.53418 47.735 1.53418C48.2691 1.53418 48.6796 1.69678 48.9668 1.98126C49.0491 2.06256 49.09 2.14386 49.1723 2.18449C49.2546 2.22516 49.2955 2.30646 49.3778 2.38771C49.5828 2.71287 49.7474 3.03807 49.8297 3.36323C49.9115 3.68838 49.9115 4.05421 49.7883 4.46066C49.7065 4.78582 49.5828 5.15159 49.501 5.51742C49.4187 5.88325 49.2955 6.20841 49.1723 6.53356C49.0491 6.85871 48.926 7.14324 48.8028 7.38709C48.6796 7.631 48.5564 7.91547 48.4332 8.2C48.3509 8.3626 48.31 8.48453 48.2277 8.60646C48.1459 8.72838 48.1045 8.89099 48.0227 9.01291C47.8995 9.33807 47.735 9.70389 47.5297 9.98842C47.3244 10.3136 47.1191 10.6387 46.8727 10.9233C46.7905 11.0452 46.7494 11.1265 46.6673 11.2484C46.5852 11.3297 46.5441 11.4516 46.462 11.6142C46.3799 11.7768 46.2977 11.8581 46.1745 11.8581C46.0513 11.8581 45.9282 11.9394 45.8871 12.1019C45.846 12.3458 45.7639 12.5491 45.6407 12.7116C45.5174 12.9149 45.3532 13.0775 45.23 13.2807C44.9425 13.7278 44.7372 14.1749 44.5319 14.622C44.4087 14.9065 44.2855 15.191 44.1623 15.4349C44.0391 15.6787 43.9159 15.9226 43.7106 16.1665C43.5463 16.4104 43.382 16.6136 43.2588 16.8575C43.1356 17.1013 42.9714 17.3046 42.8482 17.5485C42.6428 17.8736 42.4375 18.1988 42.2322 18.5239C42.0268 18.8491 41.8215 19.2149 41.5751 19.5401C41.493 19.662 41.4519 19.784 41.3698 19.8652C41.2877 19.9872 41.2466 20.0684 41.1644 20.1497C40.877 20.5562 40.6306 20.9626 40.3842 21.3285C40.1378 21.6942 39.8503 22.0601 39.4807 22.4259C39.4397 22.4665 39.3986 22.5478 39.2754 22.6291C39.0701 22.7917 38.9058 22.9136 38.7826 23.1168C38.6594 23.2794 38.5772 23.4827 38.4952 23.7265C38.413 24.0517 38.3309 24.4175 38.3309 24.7427C38.3309 25.0678 38.2898 25.4336 38.2487 25.7588C38.2487 25.9214 38.2487 26.0433 38.2077 26.1652C38.2077 26.2872 38.2077 26.4092 38.2487 26.5717C38.413 27.5065 38.7415 28.3601 39.2343 29.0511C39.3575 29.295 39.6039 29.4575 39.9324 29.5388H40.0967C40.3842 29.6607 40.5895 29.7014 40.7949 29.6201C41.0002 29.5795 41.2055 29.4575 41.4109 29.3356C41.6572 29.2543 41.9037 29.1324 42.1911 28.9291C42.4786 28.6853 42.766 28.4414 43.0535 28.1569C43.3409 27.913 43.5463 27.6285 43.7516 27.344C43.9569 27.0595 44.1623 26.7749 44.4087 26.4904C44.5729 26.2872 44.7372 26.0839 44.8604 25.8401C44.9836 25.5962 45.1479 25.393 45.2711 25.1491C45.3532 25.0272 45.3943 24.9459 45.4764 24.824C45.5585 24.7427 45.6407 24.6614 45.7228 24.5801C45.9282 24.3362 46.0924 24.0517 46.1745 23.8078C46.2567 23.6046 46.3799 23.4014 46.462 23.2388C46.5441 23.0355 46.7084 22.873 46.8727 22.7511L46.9548 22.5885C47.078 22.3446 47.2422 22.1414 47.4476 21.9382C47.6532 21.7349 47.8172 21.5317 47.9813 21.2878C48.4332 20.8407 48.8851 20.4749 49.3778 20.1904C49.5828 20.0278 49.7065 19.9872 49.7883 20.0684C49.8706 20.1091 49.8706 20.2717 49.8706 20.5562C49.7883 20.8001 49.6651 21.0033 49.5419 21.1659C49.4187 21.3691 49.2955 21.5723 49.1723 21.7756C48.9668 22.182 48.7619 22.5885 48.5155 22.9543C48.2691 23.3607 48.0636 23.7265 47.8995 24.133C47.7764 24.4581 47.6118 24.7833 47.4887 25.1085C47.3654 25.393 47.2012 25.7182 46.9959 26.0433V26.0839C46.9137 26.4092 46.7905 26.6936 46.6263 26.9782C46.462 27.2627 46.2567 27.5065 46.0514 27.7911C45.9281 27.9537 45.8049 28.0756 45.6817 28.2381C45.5585 28.4007 45.4354 28.5634 45.3122 28.6853C45.23 28.7666 45.1889 28.8478 45.1068 28.8885C45.0247 28.9291 44.9836 29.0104 44.9015 29.0511C44.7783 29.3356 44.614 29.5795 44.4087 29.7827C44.2034 29.9859 43.9569 30.1892 43.7106 30.3924C43.5052 30.5549 43.2999 30.6769 43.1356 30.7988C42.9303 30.9208 42.7249 31.0833 42.4786 31.2053C41.8626 31.5305 41.2055 31.693 40.5484 31.7337C40.261 31.7743 40.0146 31.8149 39.7271 31.7743C39.2754 31.7743 38.9879 31.7337 38.6594 31.693ZM46.3799 5.59872C46.0103 6.08648 45.6407 6.57418 45.3532 7.02131C45.0247 7.50902 44.6962 7.95615 44.4087 8.44391C44.2034 8.76906 43.998 9.09421 43.8337 9.41937C43.6284 9.74452 43.4231 10.0697 43.1356 10.3542C42.6428 10.8826 42.3143 11.4516 42.109 12.1019C42.0268 12.3865 41.9447 12.671 41.8626 12.9149C41.7804 13.1588 41.6162 13.4433 41.4109 13.6871C41.2466 13.8497 41.1234 13.9717 41.1234 14.0936C41.0412 14.2968 40.918 14.5 40.8359 14.6626C40.7538 14.8252 40.7127 15.0284 40.7127 15.2723C40.6306 15.5568 40.5895 15.8007 40.5074 16.0446C40.4252 16.2072 40.3842 16.3697 40.3021 16.5729C40.2199 16.7355 40.1789 16.8981 40.0967 17.1013C40.0967 17.142 40.0967 17.2233 40.0557 17.2639C40.0146 17.3046 40.0557 17.3859 40.0967 17.4265C40.261 17.3452 40.3842 17.1826 40.5074 16.8981C40.5484 16.8575 40.5484 16.8168 40.5484 16.7762C40.5484 16.7355 40.5484 16.7355 40.5895 16.6949C40.7127 16.6136 40.8359 16.4916 40.877 16.4104C40.918 16.2884 41.0002 16.1665 41.0412 16.0039C41.0412 15.882 41.1234 15.76 41.2466 15.5568C41.5751 15.1504 41.8626 14.7033 42.0679 14.1342L42.2322 13.8904C42.6017 13.362 42.9303 12.7929 43.2588 12.1832C43.5463 11.6142 43.8748 11.0046 44.2444 10.3949C44.4087 10.1103 44.5729 9.82582 44.6962 9.54129C44.8194 9.25681 44.9836 8.97229 45.1479 8.64713C45.23 8.56583 45.2711 8.48453 45.3122 8.44391C45.3532 8.40323 45.3943 8.32193 45.3943 8.2813C45.4764 8.2 45.5175 8.1187 45.5585 8.03745C45.5996 7.95615 45.6407 7.83422 45.6817 7.75292C45.7228 7.59032 45.7639 7.46839 45.846 7.34647C45.9281 7.22454 45.9692 7.10257 46.0514 6.98064C46.1334 6.73679 46.2567 6.49293 46.3799 6.24903C46.5031 6.00518 46.5852 5.76128 46.6673 5.51742C46.5441 5.4768 46.462 5.51742 46.3799 5.59872Z" fill="#777777"/>
<path d="M48.7613 31.693C48.5973 31.6524 48.4332 31.6117 48.2686 31.5305C48.1045 31.4492 47.9813 31.3679 47.8167 31.2866C47.6117 31.124 47.4474 31.0427 47.3241 31.0427C47.242 31.0021 47.1188 30.9208 47.0367 30.8801C46.9545 30.8395 46.8724 30.7582 46.7903 30.6769C46.626 30.5143 46.5028 30.3517 46.4207 30.2704C46.3386 30.1892 46.2564 30.0672 46.1743 29.9453C46.0921 29.8233 46.0511 29.7014 45.9689 29.5388C45.8868 29.3763 45.8047 29.173 45.7226 28.8885C45.5583 28.482 45.394 28.0756 45.2708 27.6285C45.1476 27.1814 45.0655 26.7343 45.0655 26.2465C45.1066 25.962 45.1066 25.6775 45.1066 25.393C45.1066 25.1085 45.0655 24.824 45.0244 24.5394C45.0244 24.2143 45.0244 23.9297 45.0655 23.6046C45.0655 23.2794 45.1066 22.9949 45.1476 22.6698C45.2297 22.2227 45.2708 21.7756 45.3529 21.3285C45.4351 20.8813 45.5172 20.4343 45.5994 19.9872C45.6815 19.5401 45.8047 19.1336 45.8868 18.7271C45.9689 18.3207 46.0921 17.8736 46.2564 17.4672C46.3386 17.3046 46.3796 17.142 46.4617 16.9388C46.5439 16.7762 46.5849 16.5729 46.6671 16.3697C46.7492 16.1259 46.8314 15.9226 46.9135 15.7194C46.9956 15.5162 47.1188 15.313 47.1599 15.0691C47.5294 14.053 47.9399 13.0775 48.3918 12.1426C48.6796 11.6142 48.9259 11.0452 49.2132 10.5168C49.5005 9.98842 49.8291 9.46004 50.1578 8.93161C50.4451 8.48453 50.7329 8.07808 51.0201 7.631C51.3074 7.18387 51.6361 6.77741 52.0057 6.37096C52.4575 5.84258 52.868 5.35482 53.2376 4.82644C53.4021 4.58259 53.6071 4.37936 53.8126 4.21676C54.0181 4.01353 54.2231 3.85098 54.3877 3.64775C54.5517 3.44453 54.7163 3.2413 54.9213 3.0787C55.1268 2.91609 55.2909 2.75354 55.4555 2.55032C55.6195 2.22516 55.8659 2.06256 56.1123 2.06256C56.1946 2.06256 56.2355 2.06256 56.2764 2.02194C56.3178 1.98126 56.3587 1.98126 56.441 1.94063C56.8928 1.69678 57.3442 1.53418 57.837 1.53418C58.3711 1.53418 58.7816 1.69678 59.0694 1.98126C59.1511 2.06256 59.1925 2.14386 59.2743 2.18449C59.3566 2.22516 59.3975 2.30646 59.4798 2.38771C59.6853 2.71287 59.8494 3.03807 59.9317 3.36323C60.0135 3.68838 60.0135 4.05421 59.8903 4.46066C59.8085 4.78582 59.6853 5.15159 59.603 5.51742C59.5207 5.88325 59.3975 6.20841 59.2743 6.53356C59.1511 6.85871 59.028 7.14324 58.9048 7.38709C58.7816 7.631 58.6584 7.91547 58.5352 8.2C58.4529 8.3626 58.412 8.48453 58.3297 8.60646C58.2479 8.72838 58.2065 8.89099 58.1247 9.01291C58.0015 9.33807 57.837 9.70389 57.632 9.98842C57.4265 10.3136 57.221 10.6387 56.9746 10.9233C56.8928 11.0452 56.8514 11.1265 56.7691 11.2484C56.6874 11.3297 56.646 11.4516 56.5642 11.6142C56.4819 11.7768 56.3996 11.8581 56.2764 11.8581C56.1532 11.8581 56.03 11.9394 55.9891 12.1019C55.9482 12.3458 55.8659 12.5491 55.7427 12.7116C55.6196 12.9149 55.4555 13.0775 55.3323 13.2807C55.0445 13.7278 54.8395 14.1749 54.634 14.622C54.5108 14.9065 54.3877 15.191 54.2645 15.4349C54.1413 15.6787 54.0181 15.9226 53.8126 16.1665C53.6485 16.4104 53.4839 16.6136 53.3607 16.8575C53.2376 17.1013 53.0735 17.3046 52.9503 17.5485C52.7448 17.8736 52.5393 18.1988 52.3343 18.5239C52.1289 18.8491 51.9234 19.2149 51.677 19.5401C51.5952 19.662 51.5538 19.784 51.472 19.8652C51.3897 19.9872 51.3488 20.0684 51.2665 20.1497C50.9793 20.5562 50.7329 20.9626 50.4865 21.3285C50.2396 21.7349 49.9523 22.0601 49.5828 22.4259C49.5419 22.4665 49.5005 22.5478 49.3773 22.6291C49.1723 22.7917 49.0077 22.9136 48.8845 23.1168C48.7613 23.2794 48.6796 23.4827 48.5973 23.7265C48.515 24.0517 48.4332 24.4175 48.4332 24.7427C48.4332 25.0678 48.3918 25.4336 48.3509 25.7588C48.3509 25.9214 48.3509 26.0433 48.3095 26.1652C48.3095 26.2872 48.3095 26.4092 48.3509 26.5717C48.515 27.5065 48.8436 28.3601 49.3364 29.0511C49.4596 29.295 49.706 29.4575 50.0346 29.5388H50.1987C50.4865 29.6607 50.6915 29.7014 50.897 29.6201C51.1024 29.5795 51.3074 29.4575 51.5129 29.3356C51.7593 29.2543 52.0057 29.1324 52.2929 28.9291C52.5807 28.6853 52.868 28.4414 53.1558 28.1569C53.443 27.913 53.6485 27.6285 53.8535 27.344C54.059 27.0595 54.2645 26.7749 54.5108 26.4904C54.6749 26.2872 54.8395 26.0839 54.9627 25.8401C55.0859 25.5962 55.25 25.393 55.3732 25.1491C55.4555 25.0272 55.4964 24.9459 55.5787 24.824C55.6604 24.7427 55.7427 24.6614 55.825 24.5801C56.03 24.3362 56.1946 24.0517 56.2764 23.8078C56.3587 23.6046 56.4819 23.4014 56.5642 23.2388C56.646 23.0355 56.8105 22.873 56.9746 22.7511L57.0569 22.5885C57.1801 22.3446 57.3442 22.1414 57.5497 21.9382C57.7552 21.7349 57.9192 21.5317 58.0833 21.2878C58.5352 20.8407 58.9871 20.4749 59.4798 20.1904C59.6853 20.0278 59.8085 19.9872 59.8903 20.0684C59.9726 20.1091 59.9726 20.2717 59.9726 20.5562C59.8903 20.8001 59.7671 21.0033 59.6439 21.1659C59.5207 21.3691 59.3975 21.5723 59.2743 21.7756C59.0694 22.182 58.8639 22.5885 58.6175 22.9543C58.3711 23.3607 58.1656 23.7265 58.0015 24.133C57.8784 24.4581 57.7138 24.7833 57.5906 25.1085C57.4674 25.393 57.3033 25.7182 57.0978 26.0433V26.0839C57.016 26.4092 56.8928 26.6936 56.7283 26.9782C56.5642 27.2627 56.3587 27.5065 56.1532 27.7911C56.03 27.9537 55.9068 28.0756 55.7836 28.2381C55.6604 28.4007 55.5373 28.5634 55.4141 28.6853C55.3323 28.7666 55.2909 28.8478 55.2091 28.8885C55.1268 28.9291 55.0859 29.0104 55.0036 29.0511C54.8804 29.3356 54.7163 29.5795 54.5108 29.7827C54.3054 29.9859 54.059 30.1892 53.8126 30.3924C53.6071 30.5549 53.4021 30.6769 53.2376 30.7988C53.0326 30.9208 52.8271 31.0833 52.5807 31.2053C51.9648 31.5305 51.3074 31.693 50.6506 31.7337C50.3628 31.7743 50.1164 31.8149 49.8292 31.7743C49.3773 31.7743 49.0491 31.7337 48.7613 31.693ZM56.441 5.59872C56.0714 6.08648 55.7018 6.57418 55.4141 7.02131C55.0859 7.50902 54.7572 7.95615 54.4694 8.44391C54.2645 8.76906 54.059 9.09421 53.8949 9.41937C53.6894 9.74452 53.4839 10.0697 53.1967 10.3542C52.7039 10.8826 52.3752 11.4516 52.1697 12.1019C52.088 12.3865 52.0057 12.671 51.9234 12.9149C51.8416 13.1588 51.677 13.4433 51.472 13.6871C51.3074 13.8497 51.1842 13.9717 51.1842 14.0936C51.1024 14.2968 50.9793 14.5 50.897 14.6626C50.8147 14.8252 50.7738 15.0284 50.7738 15.2723C50.6915 15.5568 50.6506 15.8007 50.5683 16.0446C50.4865 16.2072 50.4451 16.3697 50.3628 16.5729C50.281 16.7355 50.2396 16.8981 50.1578 17.1013C50.1578 17.142 50.1578 17.2233 50.1164 17.2639C50.0755 17.3046 50.1164 17.3859 50.1578 17.4265C50.3219 17.3452 50.4451 17.1826 50.5683 16.8981C50.6097 16.8575 50.6097 16.8168 50.6097 16.7762C50.6097 16.7355 50.6097 16.7355 50.6506 16.6949C50.7738 16.6136 50.897 16.4916 50.9379 16.4104C50.9793 16.2884 51.061 16.1665 51.1024 16.0039C51.1024 15.882 51.1842 15.76 51.3074 15.5568C51.6361 15.1504 51.9234 14.7033 52.1289 14.1342L52.2929 13.8904C52.663 13.362 52.9912 12.7929 53.3198 12.1832C53.6071 11.6142 53.9358 11.0046 54.3054 10.3949C54.4694 10.1103 54.634 9.82582 54.7572 9.54129C54.8804 9.25681 55.0445 8.97229 55.2091 8.64713C55.2909 8.56583 55.3323 8.48453 55.3732 8.44391C55.4141 8.40323 55.4555 8.32193 55.4555 8.2813C55.5373 8.2 55.5787 8.1187 55.6195 8.03745C55.6604 7.95615 55.7018 7.83422 55.7427 7.75292C55.7836 7.59032 55.825 7.46839 55.9068 7.34647C55.9891 7.22454 56.03 7.10257 56.1123 6.98064C56.1946 6.73679 56.3178 6.49293 56.441 6.24903C56.5642 6.00518 56.646 5.76128 56.7283 5.51742C56.646 5.4768 56.5642 5.51742 56.441 5.59872Z" fill="#777777"/>
<path d="M61.7805 32.2202C61.4523 32.017 61.7805 31.8137 60.795 31.6918C60.7132 31.6918 60.6718 31.6105 60.7132 31.4886C60.8364 31.1634 60.3022 31.326 59.5222 30.8382V30.7976C59.4808 30.757 59.4399 30.757 59.4399 30.757C59.4399 30.7163 59.399 30.6757 59.3576 30.635C59.2344 30.4724 59.1112 30.3505 59.0703 30.3098V30.2692C58.988 30.066 58.9062 29.8628 58.9062 29.6189V29.0905C58.9062 28.9279 58.9063 28.7653 58.8648 28.5621C58.7831 28.2369 58.7831 27.9524 58.8648 27.6273C58.9471 27.3427 58.988 27.0176 59.0294 26.6924C59.0703 26.2453 59.3576 26.0421 59.8918 26.0014C59.9735 26.0014 59.9735 26.0014 59.9735 25.9608C59.9735 25.9608 60.015 25.9201 60.0558 25.8795C60.3431 25.6763 60.59 25.4731 60.8773 25.3105C61.1645 25.1072 61.4523 24.9447 61.7396 24.8227C61.9451 24.7008 62.1501 24.6195 62.3555 24.4975C62.561 24.4163 62.7665 24.2943 62.9306 24.1318C63.3002 23.8472 63.6288 23.5627 63.957 23.2376C64.2448 22.953 64.5729 22.6279 64.943 22.3027C65.2303 22.0182 65.4767 21.7337 65.7231 21.4492C65.9694 21.1647 66.2567 20.8801 66.5031 20.5956C66.5854 20.5143 66.6677 20.4331 66.75 20.3518C66.8318 20.2705 66.9141 20.1485 66.9549 20.0672C67.0372 19.864 67.1195 19.7014 67.2427 19.5388C67.3659 19.3762 67.53 19.2543 67.6532 19.0917L67.7355 18.9292C67.9819 18.5633 68.1868 18.1976 68.3923 17.8723C68.5978 17.5472 68.8442 17.1814 69.0906 16.8563C69.1729 16.8156 69.1729 16.7343 69.1729 16.6937C69.2546 16.5311 69.2961 16.4091 69.2961 16.2872C69.2961 16.1653 69.3369 16.0434 69.4192 15.8808C69.501 15.6775 69.5424 15.5149 69.501 15.3524C69.4192 15.1898 69.4192 15.0272 69.4192 14.824C69.4192 14.6614 69.4192 14.4988 69.3778 14.2956C69.3369 14.133 69.2961 14.0111 69.2961 13.8485C69.2546 13.6859 69.2138 13.564 69.0906 13.4014C69.0083 13.2388 68.8851 13.1169 68.7619 12.9949C68.6387 12.873 68.5564 12.751 68.4746 12.5885C68.3514 12.4259 68.1868 12.304 67.9819 12.182C67.7764 12.1007 67.6123 12.0194 67.4477 11.9381C67.1604 11.7756 66.8732 11.7349 66.5445 11.7349C66.2158 11.7349 65.8871 11.7349 65.5999 11.6537C65.4767 11.613 65.2712 11.6537 65.0248 11.7349C64.3266 11.9788 63.7106 12.3446 63.0947 12.7917C62.9715 12.873 62.8483 12.9543 62.7251 13.0762C62.6433 13.1575 62.5196 13.2795 62.3555 13.3607C61.4932 13.9298 60.7541 14.6614 60.0558 15.5149C59.5631 16.1653 59.0703 16.8156 58.6185 17.4659C58.1666 18.1163 57.7561 18.8072 57.3866 19.4982C56.8938 20.4331 56.4011 21.4085 55.9901 22.384C55.5796 23.3595 55.2101 24.3756 54.9637 25.3918C54.7996 26.0014 54.6764 26.6111 54.6764 27.1802C54.635 27.7899 54.6764 28.3995 54.7582 29.0092C54.8405 29.4563 54.9637 29.9034 55.1278 30.3098C55.3333 30.7163 55.6205 31.0821 56.0315 31.4073C56.237 31.5699 56.4834 31.7324 56.7297 31.9356C56.9761 32.1389 57.2634 32.3421 57.5507 32.5453C57.8384 32.7486 58.1666 32.8705 58.4544 32.9925C58.7417 33.1144 59.0294 33.155 59.3167 33.1144C59.4808 33.0737 59.6454 33.0737 59.7686 33.1144C59.8918 33.155 60.015 33.155 60.1381 33.1956C60.2199 33.2363 60.3431 33.2363 60.4254 33.2363C60.5077 33.2363 60.6309 33.1144 60.7541 33.155C61.0005 33.155 61.206 33.2363 61.4109 33.1144C62.6842 32.7486 62.1915 32.4234 61.7805 32.2202ZM61.37 20.6363C61.4523 20.4331 61.5341 20.2298 61.6164 20.0266C61.6987 19.864 61.7805 19.7421 61.8628 19.5795C61.9451 19.4169 62.0683 19.2949 62.1092 19.1324C62.1915 19.0105 62.2324 18.9292 62.2733 18.8072C62.3147 18.7259 62.3555 18.604 62.3555 18.4414C62.4378 18.0756 62.6433 17.7504 62.9306 17.5066C63.1361 17.2627 63.3411 17.0595 63.5057 16.8563C63.6697 16.653 63.8338 16.4498 63.9984 16.2059C64.1625 16.0027 64.3266 15.7994 64.4912 15.5962C64.6553 15.393 64.8198 15.1898 65.0248 14.9865C65.148 14.824 65.3126 14.702 65.4767 14.6208C65.6408 14.5395 65.8054 14.4175 65.9694 14.2956H66.1335C66.1335 14.4582 66.0926 14.6208 66.0517 14.824C65.9694 14.9865 65.9285 15.1491 65.8462 15.3524C65.7639 15.5962 65.6408 15.8401 65.4767 16.084C65.3535 16.3278 65.1894 16.5717 65.0662 16.8156C64.7784 17.3846 64.4498 17.913 63.9984 18.4414C63.5465 18.9698 63.0947 19.4575 62.6019 19.9453C62.3555 20.1891 62.1092 20.3924 61.8628 20.5956C61.6164 20.7988 61.3291 21.0021 61.0828 21.246C61.1645 21.0427 61.2877 20.8395 61.37 20.6363Z" fill="#777777"/>
<path d="M33.2381 0.924666C33.197 0.884041 33.197 0.884041 33.2381 0.924666C33.197 0.924666 33.197 0.924666 33.1559 0.884041C33.0738 0.762115 32.1704 1.2905 32.2525 1.24987C32.2935 1.20919 32.2935 1.16857 32.2935 1.12789C32.2935 1.08727 32.2935 1.00597 32.3346 0.965342C32.4167 0.843416 32.4578 0.762115 32.4989 0.599513C32.3757 0.640189 32.3346 0.558888 32.2935 0.436961C32.2525 0.274359 32.1293 0.233734 31.965 0.233734C31.6775 0.193058 31.349 0.193059 31.0615 0.193059C30.9794 0.111758 30.8562 0.0305069 30.733 0.0305069C30.4045 -0.0101689 30.0759 -0.0101689 29.7064 0.0305069C29.5421 0.0305069 29.3778 0.0711322 29.1725 0.152433C28.6797 0.396286 28.228 0.721439 27.8173 1.08727C27.5709 1.2905 27.3245 1.49372 27.0781 1.73758L26.38 2.46923C26.1336 2.75371 25.8872 3.07892 25.6408 3.40407C25.3944 3.72922 25.1891 4.05438 24.9427 4.42021C24.7373 4.74536 24.532 5.02989 24.3267 5.35504C24.1213 5.68019 23.5464 6.5744 23.5464 6.5744C23.5875 6.45248 21.4931 10.2731 20.5897 12.4273C19.4398 15.2725 18.5363 17.9551 18.372 18.4428C18.372 18.4428 17.3454 21.288 17.2632 21.5725C17.1401 21.8164 17.0169 22.2229 16.9347 22.4667C16.8937 22.6293 16.8526 22.7512 16.7705 22.9138C16.7294 22.9951 16.7294 23.0358 16.6883 23.1171C16.5241 23.4828 16.3187 23.8893 16.1134 24.2551C15.9081 24.6209 15.7027 24.9867 15.4974 25.3526C15.3332 25.5964 15.2099 25.8403 15.0046 26.0842C14.8404 26.328 14.6761 26.5719 14.5118 26.8158C14.3475 27.0596 14.2244 27.3035 14.0601 27.5068C13.8958 27.71 13.7315 27.9132 13.6084 28.1164C13.3209 28.4822 13.0745 28.8074 12.787 29.1326C12.4996 29.4577 12.2121 29.7423 11.9247 30.0267C11.8014 30.108 11.7193 30.1893 11.6372 30.2706C11.555 30.3519 11.4318 30.4332 11.3087 30.4739C11.1854 30.5552 11.1033 30.5958 11.0212 30.6771C10.939 30.7584 10.8569 30.8396 10.7337 30.8803C10.6516 30.9616 10.5284 31.0023 10.4873 31.0023C10.4052 31.0836 10.282 31.1242 10.1999 31.1242C10.1177 31.1649 9.99452 31.2055 9.91238 31.2461C9.83024 31.2868 9.78919 31.3274 9.70705 31.3274C9.70705 31.2868 9.666 31.2461 9.666 31.2055C9.6249 31.0835 9.6249 30.9616 9.6249 30.799C9.54281 30.4739 9.54281 30.1487 9.54281 29.7829C9.54281 29.4171 9.54281 29.0513 9.58386 28.7261C9.6249 28.3603 9.666 27.9945 9.666 27.6693C9.70705 27.3848 9.74814 27.1003 9.78919 26.8158C9.83023 26.5313 9.87133 26.2874 9.95348 26.0029C10.0356 25.759 10.0767 25.4745 10.1177 25.2306C10.1588 24.9867 10.1999 24.7022 10.282 24.4584C10.3641 23.8893 10.4873 23.4422 10.6105 23.0358C10.7337 22.6699 10.8159 22.3448 10.898 22.0196C10.9801 21.6945 11.0622 21.3693 11.1444 21.0035C11.2676 20.597 11.4318 20.1093 11.6372 19.6216C11.8425 19.2151 12.0067 18.768 12.171 18.3615C12.2532 18.1583 12.3353 17.9145 12.4585 17.6299C12.6227 17.3048 12.787 16.9389 12.9102 16.6544C13.1156 16.2073 14.9635 11.4519 15.3332 9.46021C15.867 7.06216 15.8259 4.86728 14.3475 4.1763C14.3065 4.1763 14.3065 4.1763 14.2654 4.1763C14.1422 4.13568 14.019 4.095 13.8958 4.05438H13.8547C13.6494 3.97308 13.4441 3.97308 13.2387 3.97308C13.1156 3.97308 12.9924 4.01375 12.8281 4.01375C12.5407 4.05438 12.2121 4.095 11.8425 4.1763C11.6372 4.21698 11.4318 4.29823 11.2265 4.3389C11.1033 4.3389 10.9801 4.37953 10.898 4.42021C10.7748 4.50146 10.6105 4.54213 10.4873 4.58276C10.4462 4.62343 10.4052 4.62343 10.4052 4.66406C10.3641 4.70468 10.282 4.70468 10.2409 4.74536C10.2409 4.74536 10.2409 4.70468 10.2409 4.66406C10.3641 4.58276 10.4873 4.54213 10.6105 4.50146C10.6516 4.46083 10.6927 4.46083 10.6927 4.46083C10.7337 4.46083 10.7337 4.42021 10.7337 4.3389C10.6105 4.3389 10.4873 4.37953 10.3641 4.37953C10.2409 4.37953 10.1588 4.42021 10.0356 4.46083C9.95348 4.54213 9.91238 4.58276 9.91238 4.66406C9.91238 4.70468 9.87133 4.70468 9.87133 4.70468C9.78919 4.70468 9.70705 4.74536 9.58386 4.78598C9.54281 4.82666 9.50171 4.86729 9.46067 4.90791C9.37853 4.90791 9.33748 4.94859 9.25534 4.94859C9.13215 4.98921 9.05 5.02989 8.92681 5.07051C8.80357 5.11114 8.72148 5.19244 8.63934 5.27374C8.59824 5.31437 8.5572 5.31436 8.51615 5.31436C8.47505 5.31436 8.43401 5.35504 8.43401 5.43634C8.39291 5.47697 8.35186 5.55827 8.22867 5.59889C8.18758 5.63957 8.18758 5.63957 8.14653 5.63957C8.14653 5.63957 8.10548 5.63957 8.10548 5.68019C8.06439 5.68019 8.06439 5.72082 8.02334 5.72082L8.06439 5.63957L7.98224 5.59889C7.85905 5.63957 7.77691 5.68019 7.73587 5.72082C7.65372 5.8428 7.57158 5.96472 7.44839 6.00535C7.3252 6.08665 7.20201 6.16795 7.11987 6.28988C6.99668 6.37118 6.91454 6.4931 6.83239 6.5744C6.70921 6.65571 6.62706 6.73696 6.54497 6.81826C6.46283 6.89956 6.33964 7.02148 6.25749 7.14341L6.17535 7.22471C6.09321 7.30601 6.01107 7.34664 5.92897 7.42794C5.84683 7.46861 5.76469 7.54986 5.72364 7.63117C5.72364 7.63117 5.72364 7.63117 5.72364 7.67184C5.76469 7.75309 5.76469 7.75309 5.72364 7.79377C5.68254 7.79377 5.68254 7.79377 5.6415 7.79377L5.55935 7.87507C5.55935 7.95632 5.55935 7.99699 5.51831 7.99699C5.47721 7.99699 5.43617 8.03762 5.35402 8.07825C5.35402 8.11892 5.35402 8.11892 5.35402 8.15955C4.65588 8.76923 3.99884 9.46021 3.42389 10.1105C3.42389 10.1105 2.97218 10.5983 2.76685 10.8828C2.52047 11.208 2.23299 11.5738 1.94552 11.9396L1.12419 13.1183C0.959923 13.3622 0.795657 13.6467 0.631392 13.8905C0.467126 14.1344 0.343931 14.419 0.220732 14.6628C0.179666 14.7034 0.138599 14.7441 0.138599 14.8254C0.0154 15.0693 -0.0256665 15.2319 0.0153999 15.3538C0.0564663 15.4351 0.0975328 15.557 0.220732 15.6383C0.179666 15.7603 0.179666 15.8416 0.179666 15.9228C0.220732 16.0447 0.302865 16.1667 0.467131 16.2886C0.918857 16.6544 1.37059 16.8576 1.90447 16.8576C2.27404 16.8983 2.56151 16.817 2.84899 16.5732C2.97218 16.4512 3.13647 16.248 3.25965 15.9635C3.38284 15.7603 3.50603 15.557 3.58818 15.3944C3.71136 15.2319 3.79351 15.0286 3.9167 14.866C4.57374 13.8093 5.6004 12.5086 5.6004 12.5086C7.85906 10.0699 11.0212 7.42794 12.13 7.79377C12.4996 7.91569 12.5407 8.44407 12.4585 9.25698C12.2532 10.395 11.3087 13.0776 10.4052 15.557C9.41957 17.8738 8.5572 19.9467 8.43401 20.2312C8.39291 20.3532 8.35186 20.4751 8.35186 20.5564C8.31082 20.6377 8.31082 20.7596 8.26972 20.8816C8.18758 21.1254 8.10548 21.3693 8.02334 21.5725C7.9412 21.7758 7.85906 22.0196 7.77691 22.2229C7.53053 22.7919 7.40735 23.3609 7.3252 23.93C7.24306 24.499 7.11987 25.0274 6.91454 25.5964C6.87349 25.759 6.83239 25.9216 6.79135 26.0842C6.7503 26.2467 6.70921 26.4093 6.66816 26.5719C6.62706 26.7345 6.58602 26.8971 6.58602 27.1003C6.58602 27.2629 6.54497 27.4661 6.54497 27.6287C6.54497 27.71 6.54497 27.8319 6.58602 27.9132C6.58602 27.9945 6.62706 28.0758 6.66816 28.1164C6.7503 28.1977 6.7503 28.279 6.7503 28.4416C6.70921 28.6041 6.7092 28.7667 6.7092 28.9294C6.7092 29.0919 6.70921 29.2545 6.66816 29.4171L6.62706 29.661C6.62706 29.7423 6.62706 29.7829 6.62706 29.8235C6.66816 29.8235 6.70921 29.9048 6.66816 30.0267L6.62706 30.2706C6.66816 30.6364 6.70921 30.9616 6.7503 31.2868C6.79135 31.6119 6.87349 31.9371 6.91454 32.2622C6.99668 32.5061 7.07882 32.6687 7.16092 32.75L7.3252 33.0345C7.36625 33.1564 7.44839 33.2784 7.48949 33.3597C7.53053 33.441 7.61268 33.5629 7.65372 33.6848C7.73587 33.8474 7.85905 33.9694 7.98224 34.0507C8.10548 34.132 8.22867 34.2539 8.31082 34.4164H8.35186C8.43401 34.4164 8.51615 34.4571 8.59824 34.5384C8.63934 34.579 8.68039 34.579 8.72148 34.6197C8.76253 34.6603 8.80357 34.7416 8.88572 34.8229H9.00891C9.05 34.8229 9.09105 34.8229 9.13215 34.8636C9.17319 34.9042 9.21424 34.9449 9.25534 34.9855C9.33748 35.0668 9.37853 35.1481 9.46067 35.2293C9.58386 35.4326 9.70705 35.5952 9.87133 35.6765C9.95348 35.7577 10.0356 35.7984 10.1177 35.9203C10.1588 36.0016 10.2409 36.0016 10.3641 35.961C10.4052 35.961 10.4052 36.0016 10.4462 36.0016C10.5284 36.0829 10.6105 36.1236 10.6927 36.2049C10.7748 36.2862 10.8569 36.2862 10.9801 36.2455C10.9801 36.2862 10.9801 36.2862 11.0212 36.2862C11.0622 36.3268 11.1444 36.2862 11.2676 36.2455C11.6782 36.0423 12.0478 35.7578 12.4996 35.3513C12.9102 34.9855 13.3209 34.6197 13.6905 34.2132C14.1012 33.8068 14.4707 33.3597 14.8404 32.9126C15.6206 31.8965 16.3598 30.799 17.0169 29.661C17.2222 29.2951 17.4275 28.9294 17.6329 28.5635C17.8382 28.1977 18.0435 27.7913 18.2489 27.4255C18.5774 26.7752 18.9059 26.1248 19.1934 25.4338C19.5219 24.7835 19.8094 24.0925 20.0968 23.4016C20.2611 22.9138 20.4254 22.4667 20.5897 22.0196C20.6717 21.857 20.7539 21.6132 20.836 21.3693C20.9182 21.1254 21.0003 20.8816 21.0414 20.6783C21.1235 20.4751 21.2056 20.2312 21.2877 19.9874C21.411 19.6622 21.5342 19.3777 21.6574 19.0525C21.7806 18.7274 21.9037 18.4022 22.0269 18.1177C22.1091 17.9145 22.1912 17.7112 22.2734 17.5486C22.3555 17.3454 22.4376 17.1422 22.5608 16.9796C22.6429 16.8576 22.684 16.7357 22.7251 16.6138C22.7662 16.4919 22.8072 16.3699 22.8894 16.248C22.9715 16.126 23.0125 15.9635 23.0536 15.8416C23.0947 15.7196 23.1768 15.5977 23.2179 15.4351C23.4232 15.0693 23.5875 14.7034 23.7928 14.3377C23.9571 13.9718 24.1624 13.6061 24.3677 13.2402C24.6552 12.7525 24.9016 12.2647 25.148 11.8176C25.3944 11.3299 25.6819 10.8828 25.9693 10.4357C26.1747 10.1105 26.38 9.78536 26.5853 9.46021C26.7907 9.13506 26.996 8.8099 27.2013 8.4847C27.4067 8.15955 27.5709 7.83439 27.7762 7.54986C27.9816 7.26539 28.1869 6.98086 28.3512 6.73696C28.4333 6.5744 28.5154 6.45248 28.5976 6.3305C28.6797 6.20857 28.7618 6.08665 28.885 5.96472C29.0082 5.80212 29.1725 5.63957 29.2957 5.51759C29.4189 5.39567 29.5421 5.23311 29.7064 5.07051C29.7885 4.94859 29.8706 4.86728 29.9938 4.74536L30.2813 4.46083C30.4045 4.3389 30.5277 4.2576 30.5687 4.21698L31.4312 3.40407C32.581 2.42856 33.1559 2.0221 33.1559 2.0221C33.2381 1.98148 33.3202 1.90018 33.3202 1.81888C33.3612 1.73758 33.1559 1.61565 33.197 1.49372C33.2381 1.4531 33.2791 1.41242 33.2791 1.3718C33.3202 1.33112 33.3612 1.2905 33.3612 1.24987C33.3612 1.00597 33.3612 0.924666 33.2381 0.924666ZM6.95558 31.3681C6.87349 31.1649 6.83239 30.9616 6.83239 30.7584C6.87349 30.5552 6.87349 30.3519 6.87349 30.1487C6.91454 30.23 6.95558 30.3926 6.95558 30.6771C6.99668 31.0023 6.99668 31.2055 6.95558 31.3681Z" fill="#777777"/>
</g>
<defs>
<clipPath id="clip0_4016_550">
<rect width="70" height="37" fill="white"/>
</clipPath>
</defs>
</svg>
