<svg width="1000" height="1000" viewBox="0 0 1000 1000" fill="none" xmlns="http://www.w3.org/2000/svg">
<style>
path { fill: #2457F5; }
@media (prefers-color-scheme: dark) {
  path { fill: #2457F5; }
}
</style>
<path d="M738.665 1000L786.231 557.173H953.273L1000 1000H906.826L899.831 928.545H840.513L834.357 1000H738.665ZM847.508 857.843H892.276L870.731 632.655H866.254L847.508 857.843Z"/>
<path d="M367.833 1000V557.173H465.764V715.434H512.211V557.173H610.142V1000H512.211V799.219H465.764V1000H367.833Z"/>
<path d="M0 1000V557.173H97.3712V734.556L143.259 557.173H242.309L187.188 759.968L253.781 1000H151.653L97.9308 785.632V1000H0Z"/>
<path d="M869.095 450.88C829.736 450.88 799.611 440.228 778.719 418.926C758.013 397.455 747.661 366.508 747.661 326.083V115.739C747.661 77.8304 757.92 49.0634 778.439 29.438C799.144 9.81268 829.363 0 869.095 0C908.827 0 938.952 9.81268 959.471 29.438C980.176 49.0634 990.529 77.8304 990.529 115.739V326.083C990.529 366.508 980.083 397.455 959.191 418.926C938.486 440.228 908.454 450.88 869.095 450.88ZM869.934 369.359C884.857 369.359 892.318 356.359 892.318 330.36V114.23C892.318 92.4237 885.044 81.5207 870.494 81.5207C854.079 81.5207 845.871 92.6753 845.871 114.984V330.863C845.871 344.618 847.737 354.514 851.467 360.553C855.198 366.424 861.354 369.359 869.934 369.359Z"/>
<path d="M367.833 446.862V4.0332H518.926C544.108 4.0332 563.135 9.23308 576.006 19.6328C588.877 29.8649 597.457 44.2903 601.748 62.9093C606.225 81.3604 608.463 103.083 608.463 128.075C608.463 152.23 605.012 171.52 598.11 185.945C591.395 200.371 578.617 210.351 559.777 215.886C575.26 218.738 586.079 225.699 592.234 236.77C598.577 247.673 601.748 261.847 601.748 279.291V446.862H504.656V273.504C504.656 260.589 501.672 252.621 495.703 249.602C489.92 246.415 480.5 244.821 467.443 244.821V446.862H367.833ZM468.002 168.081H491.785C505.402 168.081 512.211 154.746 512.211 128.075C512.211 110.798 510.719 99.4761 507.734 94.1085C504.75 88.7409 499.154 86.0571 490.946 86.0571H468.002V168.081Z"/>
<path d="M0 446.862V4.0332H130.108C157.342 4.0332 178.887 9.48469 194.742 20.3877C210.784 31.2906 222.256 46.8064 229.158 66.935C236.06 87.0635 239.511 111.05 239.511 138.895C239.511 165.733 236.619 189.132 230.837 209.093C225.054 228.886 214.702 244.234 199.779 255.137C185.043 266.04 164.057 271.492 136.823 271.492H96.8116V446.862H0ZM96.8116 191.984H102.408C120.688 191.984 131.88 187.371 135.984 178.145C140.088 168.92 142.14 155.333 142.14 137.385C142.14 120.611 140.088 107.695 135.984 98.6375C132.067 89.4119 122.647 84.7991 107.724 84.7991H96.8116V191.984Z"/>
</svg>
