<svg width="1120" height="1042" viewBox="0 0 1120 1042" fill="none" xmlns="http://www.w3.org/2000/svg">
<path opacity="0.2" d="M9.375 194V48.5455H72.4432C83.5227 48.5455 92.8267 50.0369 100.355 53.0199C107.931 56.0028 113.636 60.2169 117.472 65.6619C121.354 71.107 123.295 77.5227 123.295 84.9091C123.295 90.2595 122.112 95.1364 119.744 99.5398C117.424 103.943 114.157 107.636 109.943 110.619C105.729 113.555 100.805 115.591 95.1705 116.727V118.148C101.42 118.384 107.102 119.971 112.216 122.906C117.33 125.795 121.402 129.795 124.432 134.909C127.462 139.975 128.977 145.941 128.977 152.807C128.977 160.761 126.894 167.84 122.727 174.043C118.608 180.245 112.737 185.122 105.114 188.673C97.4905 192.224 88.3996 194 77.8409 194H9.375ZM48.8636 162.466H67.3295C73.9583 162.466 78.9299 161.235 82.2443 158.773C85.5587 156.263 87.2159 152.57 87.2159 147.693C87.2159 144.284 86.4347 141.396 84.8722 139.028C83.3097 136.661 81.0843 134.862 78.196 133.631C75.3551 132.4 71.9224 131.784 67.8977 131.784H48.8636V162.466ZM48.8636 107.352H65.0568C68.5133 107.352 71.5672 106.808 74.2188 105.719C76.8703 104.63 78.9299 103.067 80.3977 101.031C81.9129 98.9479 82.6705 96.4148 82.6705 93.4318C82.6705 88.9337 81.0606 85.5009 77.8409 83.1335C74.6212 80.7188 70.5492 79.5114 65.625 79.5114H48.8636V107.352ZM135.537 194V84.9091H173.605V105.648H174.741C176.73 97.9773 179.879 92.3665 184.188 88.8153C188.544 85.2642 193.634 83.4886 199.457 83.4886C201.162 83.4886 202.843 83.6307 204.5 83.9148C206.205 84.1515 207.838 84.5066 209.401 84.9801V118.432C207.459 117.769 205.068 117.272 202.227 116.94C199.386 116.609 196.948 116.443 194.912 116.443C191.077 116.443 187.62 117.319 184.543 119.071C181.512 120.776 179.121 123.19 177.369 126.315C175.617 129.393 174.741 133.015 174.741 137.182V194H135.537ZM260.278 195.989C248.631 195.989 238.593 193.763 230.165 189.312C221.784 184.814 215.321 178.375 210.776 169.994C206.277 161.566 204.028 151.481 204.028 139.739C204.028 128.47 206.301 118.621 210.847 110.193C215.392 101.765 221.808 95.2074 230.094 90.5199C238.38 85.8324 248.157 83.4886 259.426 83.4886C267.665 83.4886 275.122 84.767 281.798 87.3239C288.474 89.8807 294.18 93.5975 298.915 98.4744C303.65 103.304 307.295 109.175 309.852 116.088C312.409 123.001 313.688 130.79 313.688 139.455V148.545H216.244V126.955H277.608C277.561 123.83 276.756 121.083 275.193 118.716C273.678 116.301 271.618 114.431 269.014 113.105C266.457 111.732 263.545 111.045 260.278 111.045C257.106 111.045 254.194 111.732 251.543 113.105C248.891 114.431 246.76 116.277 245.151 118.645C243.588 121.012 242.759 123.782 242.665 126.955V150.25C242.665 153.754 243.399 156.879 244.866 159.625C246.334 162.371 248.441 164.526 251.188 166.088C253.934 167.651 257.248 168.432 261.131 168.432C263.83 168.432 266.292 168.053 268.517 167.295C270.79 166.538 272.731 165.449 274.341 164.028C275.951 162.561 277.134 160.809 277.892 158.773H313.688C312.456 166.348 309.545 172.93 304.952 178.517C300.359 184.057 294.275 188.366 286.699 191.443C279.17 194.473 270.364 195.989 260.278 195.989ZM360.89 132.636V194H321.685V84.9091H358.901V105.648H360.038C362.405 98.7348 366.572 93.3134 372.538 89.3835C378.551 85.4536 385.558 83.4886 393.56 83.4886C401.278 83.4886 407.978 85.2642 413.66 88.8153C419.389 92.3191 423.816 97.1487 426.941 103.304C430.113 109.459 431.676 116.491 431.629 124.398V194H392.424V132.636C392.471 127.239 391.098 123.001 388.305 119.923C385.558 116.846 381.723 115.307 376.799 115.307C373.579 115.307 370.762 116.017 368.347 117.438C365.98 118.811 364.157 120.799 362.879 123.403C361.6 125.96 360.937 129.038 360.89 132.636ZM482.471 195.42C474.706 195.42 467.556 193.384 461.022 189.312C454.535 185.241 449.327 179.062 445.397 170.776C441.514 162.49 439.573 152.049 439.573 139.455C439.573 126.292 441.609 115.591 445.681 107.352C449.8 99.1136 455.103 93.0767 461.59 89.2415C468.124 85.4062 474.99 83.4886 482.187 83.4886C487.585 83.4886 492.319 84.4356 496.391 86.3295C500.463 88.1761 503.872 90.6619 506.619 93.7869C509.365 96.8646 511.448 100.25 512.869 103.943H513.437V48.5455H552.641V194H513.721V176.102H512.869C511.353 179.795 509.175 183.11 506.335 186.045C503.541 188.934 500.132 191.23 496.107 192.935C492.13 194.592 487.585 195.42 482.471 195.42ZM496.96 165.307C500.558 165.307 503.636 164.265 506.192 162.182C508.797 160.051 510.785 157.068 512.158 153.233C513.579 149.35 514.289 144.758 514.289 139.455C514.289 134.057 513.579 129.44 512.158 125.605C510.785 121.723 508.797 118.763 506.192 116.727C503.636 114.644 500.558 113.602 496.96 113.602C493.361 113.602 490.283 114.644 487.727 116.727C485.217 118.763 483.276 121.723 481.903 125.605C480.577 129.44 479.914 134.057 479.914 139.455C479.914 144.852 480.577 149.492 481.903 153.375C483.276 157.21 485.217 160.17 487.727 162.253C490.283 164.289 493.361 165.307 496.96 165.307ZM616.445 195.989C604.608 195.989 594.476 193.645 586.048 188.957C577.62 184.223 571.156 177.641 566.658 169.213C562.16 160.738 559.911 150.913 559.911 139.739C559.911 128.564 562.16 118.763 566.658 110.335C571.156 101.86 577.62 95.2784 586.048 90.5909C594.476 85.8561 604.608 83.4886 616.445 83.4886C627.146 83.4886 636.403 85.4299 644.215 89.3125C652.075 93.1477 658.159 98.5928 662.468 105.648C666.777 112.655 668.955 120.894 669.002 130.364H632.638C632.118 124.634 630.46 120.278 627.667 117.295C624.921 114.265 621.37 112.75 617.013 112.75C613.604 112.75 610.621 113.744 608.065 115.733C605.508 117.674 603.519 120.634 602.099 124.611C600.678 128.541 599.968 133.489 599.968 139.455C599.968 145.42 600.678 150.392 602.099 154.369C603.519 158.299 605.508 161.259 608.065 163.247C610.621 165.188 613.604 166.159 617.013 166.159C619.902 166.159 622.459 165.496 624.684 164.17C626.909 162.797 628.709 160.809 630.082 158.205C631.502 155.553 632.354 152.333 632.638 148.545H669.002C668.86 158.157 666.658 166.538 662.397 173.688C658.136 180.79 652.099 186.282 644.286 190.165C636.521 194.047 627.241 195.989 616.445 195.989ZM729.734 195.989C717.897 195.989 707.765 193.645 699.337 188.957C690.909 184.223 684.446 177.641 679.947 169.213C675.449 160.738 673.2 150.913 673.2 139.739C673.2 128.564 675.449 118.763 679.947 110.335C684.446 101.86 690.909 95.2784 699.337 90.5909C707.765 85.8561 717.897 83.4886 729.734 83.4886C741.571 83.4886 751.704 85.8561 760.132 90.5909C768.56 95.2784 775.023 101.86 779.521 110.335C784.019 118.763 786.268 128.564 786.268 139.739C786.268 150.913 784.019 160.738 779.521 169.213C775.023 177.641 768.56 184.223 760.132 188.957C751.704 193.645 741.571 195.989 729.734 195.989ZM730.018 167.011C733.333 167.011 736.197 165.899 738.612 163.673C741.027 161.448 742.897 158.276 744.223 154.156C745.549 150.037 746.212 145.136 746.212 139.455C746.212 133.725 745.549 128.825 744.223 124.753C742.897 120.634 741.027 117.461 738.612 115.236C736.197 113.01 733.333 111.898 730.018 111.898C726.515 111.898 723.508 113.01 720.999 115.236C718.489 117.461 716.571 120.634 715.246 124.753C713.92 128.825 713.257 133.725 713.257 139.455C713.257 145.136 713.92 150.037 715.246 154.156C716.571 158.276 718.489 161.448 720.999 163.673C723.508 165.899 726.515 167.011 730.018 167.011ZM833.382 48.5455V194H794.178V48.5455H833.382ZM897.914 195.989C886.077 195.989 875.944 193.645 867.516 188.957C859.088 184.223 852.625 177.641 848.127 169.213C843.629 160.738 841.38 150.913 841.38 139.739C841.38 128.564 843.629 118.763 848.127 110.335C852.625 101.86 859.088 95.2784 867.516 90.5909C875.944 85.8561 886.077 83.4886 897.914 83.4886C909.751 83.4886 919.884 85.8561 928.312 90.5909C936.74 95.2784 943.203 101.86 947.701 110.335C952.199 118.763 954.448 128.564 954.448 139.739C954.448 150.913 952.199 160.738 947.701 169.213C943.203 177.641 936.74 184.223 928.312 188.957C919.884 193.645 909.751 195.989 897.914 195.989ZM898.198 167.011C901.513 167.011 904.377 165.899 906.792 163.673C909.207 161.448 911.077 158.276 912.403 154.156C913.728 150.037 914.391 145.136 914.391 139.455C914.391 133.725 913.728 128.825 912.403 124.753C911.077 120.634 909.207 117.461 906.792 115.236C904.377 113.01 901.513 111.898 898.198 111.898C894.694 111.898 891.688 113.01 889.178 115.236C886.669 117.461 884.751 120.634 883.425 124.753C882.1 128.825 881.437 133.725 881.437 139.455C881.437 145.136 882.1 150.037 883.425 154.156C884.751 158.276 886.669 161.448 889.178 163.673C891.688 165.899 894.694 167.011 898.198 167.011ZM962.357 194V84.9091H1000.43V105.648H1001.56C1003.55 97.9773 1006.7 92.3665 1011.01 88.8153C1015.36 85.2642 1020.45 83.4886 1026.28 83.4886C1027.98 83.4886 1029.66 83.6307 1031.32 83.9148C1033.02 84.1515 1034.66 84.5066 1036.22 84.9801V118.432C1034.28 117.769 1031.89 117.272 1029.05 116.94C1026.21 116.609 1023.77 116.443 1021.73 116.443C1017.9 116.443 1014.44 117.319 1011.36 119.071C1008.33 120.776 1005.94 123.19 1004.19 126.315C1002.44 129.393 1001.56 133.015 1001.56 137.182V194H962.357Z" fill="#3C3C3C"/>
<path d="M2.27557 347V320.818H19.6108V325.382H7.81108V331.621H18.4602V336.185H7.81108V347H2.27557ZM28.3352 347.371C27.0824 347.371 25.9659 347.153 24.9858 346.719C24.0057 346.276 23.2301 345.624 22.6591 344.763C22.0966 343.893 21.8153 342.811 21.8153 341.516C21.8153 340.425 22.0156 339.509 22.4162 338.767C22.8168 338.026 23.3622 337.429 24.0526 336.977C24.7429 336.526 25.527 336.185 26.4048 335.955C27.2912 335.724 28.2202 335.562 29.1918 335.469C30.3338 335.349 31.2543 335.239 31.9531 335.136C32.652 335.026 33.1591 334.864 33.4744 334.651C33.7898 334.437 33.9474 334.122 33.9474 333.705V333.628C33.9474 332.818 33.6918 332.192 33.1804 331.749C32.6776 331.305 31.9616 331.084 31.0327 331.084C30.0526 331.084 29.2727 331.301 28.6932 331.736C28.1136 332.162 27.7301 332.699 27.5426 333.347L22.5057 332.938C22.7614 331.744 23.2642 330.713 24.0142 329.844C24.7642 328.966 25.7315 328.293 26.9162 327.824C28.1094 327.347 29.4901 327.108 31.0582 327.108C32.1491 327.108 33.1932 327.236 34.1903 327.491C35.196 327.747 36.0866 328.143 36.8622 328.68C37.6463 329.217 38.2642 329.908 38.7159 330.751C39.1676 331.587 39.3935 332.588 39.3935 333.756V347H34.2287V344.277H34.0753C33.7599 344.891 33.3381 345.432 32.8097 345.901C32.2812 346.361 31.6463 346.723 30.9048 346.987C30.1634 347.243 29.3068 347.371 28.3352 347.371ZM29.8949 343.612C30.696 343.612 31.4034 343.455 32.017 343.139C32.6307 342.815 33.1122 342.381 33.4616 341.835C33.8111 341.29 33.9858 340.672 33.9858 339.982V337.898C33.8153 338.009 33.581 338.111 33.2827 338.205C32.9929 338.29 32.6648 338.371 32.2983 338.447C31.9318 338.516 31.5653 338.58 31.1989 338.639C30.8324 338.69 30.5 338.737 30.2017 338.78C29.5625 338.874 29.0043 339.023 28.527 339.227C28.0497 339.432 27.679 339.709 27.4148 340.058C27.1506 340.399 27.0185 340.825 27.0185 341.337C27.0185 342.078 27.2869 342.645 27.8239 343.037C28.3693 343.42 29.0597 343.612 29.8949 343.612ZM43.3686 347V327.364H48.6484V330.79H48.853C49.2109 329.571 49.8118 328.651 50.6555 328.028C51.4993 327.398 52.4709 327.082 53.5703 327.082C53.843 327.082 54.1371 327.099 54.4524 327.134C54.7678 327.168 55.0447 327.214 55.2834 327.274V332.107C55.0277 332.03 54.674 331.962 54.2223 331.902C53.7706 331.842 53.3572 331.812 52.9822 331.812C52.1811 331.812 51.4652 331.987 50.8345 332.337C50.2124 332.678 49.718 333.155 49.3516 333.768C48.9936 334.382 48.8146 335.089 48.8146 335.891V347H43.3686ZM57.9513 347V320.818H63.3974V330.662H63.5636C63.8022 330.134 64.1474 329.597 64.5991 329.051C65.0593 328.497 65.6559 328.037 66.3889 327.67C67.1303 327.295 68.0508 327.108 69.1502 327.108C70.582 327.108 71.9031 327.483 73.1133 328.233C74.3235 328.974 75.2908 330.095 76.0153 331.595C76.7397 333.087 77.1019 334.957 77.1019 337.207C77.1019 339.398 76.7482 341.247 76.0408 342.756C75.342 344.256 74.3874 345.393 73.1772 346.169C71.9755 346.936 70.6289 347.32 69.1374 347.32C68.0806 347.32 67.1815 347.145 66.44 346.795C65.707 346.446 65.1062 346.007 64.6374 345.479C64.1687 344.942 63.8107 344.401 63.5636 343.855H63.3207V347H57.9513ZM63.2823 337.182C63.2823 338.349 63.4442 339.368 63.7681 340.237C64.092 341.107 64.5607 341.784 65.1744 342.27C65.788 342.747 66.5337 342.986 67.4116 342.986C68.2979 342.986 69.0479 342.743 69.6616 342.257C70.2752 341.763 70.7397 341.081 71.055 340.212C71.3789 339.334 71.5408 338.324 71.5408 337.182C71.5408 336.048 71.3832 335.051 71.0678 334.19C70.7525 333.33 70.288 332.656 69.6744 332.17C69.0607 331.685 68.3065 331.442 67.4116 331.442C66.5252 331.442 65.7752 331.676 65.1616 332.145C64.5565 332.614 64.092 333.278 63.7681 334.139C63.4442 335 63.2823 336.014 63.2823 337.182ZM89.4347 347.384C87.4148 347.384 85.6761 346.974 84.2188 346.156C82.7699 345.33 81.6534 344.162 80.8693 342.653C80.0852 341.136 79.6932 339.342 79.6932 337.271C79.6932 335.251 80.0852 333.479 80.8693 331.953C81.6534 330.428 82.7571 329.239 84.1804 328.386C85.6122 327.534 87.2912 327.108 89.2173 327.108C90.5128 327.108 91.7188 327.317 92.8352 327.734C93.9602 328.143 94.9403 328.761 95.7756 329.588C96.6193 330.415 97.2756 331.455 97.7443 332.707C98.2131 333.952 98.4474 335.409 98.4474 337.08V338.575H81.8665V335.2H93.321C93.321 334.416 93.1506 333.722 92.8097 333.116C92.4688 332.511 91.9957 332.038 91.3906 331.697C90.794 331.348 90.0994 331.173 89.3068 331.173C88.4801 331.173 87.7472 331.365 87.108 331.749C86.4773 332.124 85.983 332.631 85.625 333.27C85.267 333.901 85.0838 334.604 85.0753 335.379V338.588C85.0753 339.56 85.2543 340.399 85.6122 341.107C85.9787 341.814 86.4943 342.359 87.1591 342.743C87.8239 343.126 88.6122 343.318 89.5241 343.318C90.1293 343.318 90.6832 343.233 91.1861 343.062C91.6889 342.892 92.1193 342.636 92.4773 342.295C92.8352 341.955 93.108 341.537 93.2955 341.043L98.3324 341.375C98.0767 342.585 97.5526 343.642 96.7599 344.545C95.9759 345.44 94.9616 346.139 93.7173 346.642C92.4815 347.136 91.054 347.384 89.4347 347.384ZM107.197 335.648V347H101.751V327.364H106.942V330.828H107.172C107.607 329.686 108.335 328.783 109.358 328.118C110.381 327.445 111.621 327.108 113.078 327.108C114.442 327.108 115.631 327.406 116.645 328.003C117.659 328.599 118.447 329.452 119.01 330.56C119.572 331.659 119.854 332.972 119.854 334.497V347H114.408V335.469C114.416 334.267 114.109 333.33 113.487 332.656C112.865 331.974 112.009 331.634 110.918 331.634C110.185 331.634 109.537 331.791 108.974 332.107C108.42 332.422 107.986 332.882 107.67 333.487C107.364 334.084 107.206 334.804 107.197 335.648Z" fill="#3C3C3C"/>
<path d="M1040 382L-1.09673e-05 382" stroke="#AFDA6C" stroke-width="3"/>
<rect width="200" height="200" transform="translate(0 442)" fill="#AFDA6C"/>
<path d="M54.5256 551H50.571L56.5966 533.545H61.3523L67.3693 551H63.4148L59.0426 537.534H58.9062L54.5256 551ZM54.2784 544.139H63.6193V547.02H54.2784V544.139ZM69.2202 551V533.545H80.777V536.588H72.9105V540.747H80.0099V543.79H72.9105V551H69.2202ZM89.1967 551H83.0092V533.545H89.2479C91.0036 533.545 92.5149 533.895 93.782 534.594C95.049 535.287 96.0234 536.284 96.7053 537.585C97.3928 538.886 97.7365 540.443 97.7365 542.256C97.7365 544.074 97.3928 545.636 96.7053 546.943C96.0234 548.25 95.0433 549.253 93.7649 549.952C92.4922 550.651 90.9695 551 89.1967 551ZM86.6996 547.838H89.0433C90.1342 547.838 91.0518 547.645 91.7962 547.259C92.5462 546.866 93.1087 546.261 93.4837 545.443C93.8643 544.619 94.0547 543.557 94.0547 542.256C94.0547 540.966 93.8643 539.912 93.4837 539.094C93.1087 538.276 92.549 537.673 91.8047 537.287C91.0604 536.901 90.1428 536.707 89.0518 536.707H86.6996V547.838ZM102.244 551H98.2898L104.315 533.545H109.071L115.088 551H111.134L106.761 537.534H106.625L102.244 551ZM101.997 544.139H111.338V547.02H101.997V544.139ZM123.536 551.239C122.638 551.233 121.771 551.082 120.936 550.787C120.107 550.491 119.362 550.011 118.703 549.347C118.044 548.682 117.521 547.801 117.135 546.705C116.754 545.608 116.564 544.261 116.564 542.665C116.57 541.199 116.737 539.889 117.067 538.736C117.402 537.577 117.879 536.594 118.499 535.787C119.124 534.98 119.871 534.366 120.74 533.946C121.609 533.52 122.584 533.307 123.663 533.307C124.828 533.307 125.857 533.534 126.749 533.989C127.641 534.437 128.357 535.048 128.896 535.821C129.442 536.594 129.771 537.46 129.885 538.42H126.246C126.104 537.812 125.805 537.335 125.351 536.989C124.896 536.642 124.334 536.469 123.663 536.469C122.527 536.469 121.663 536.963 121.072 537.952C120.487 538.94 120.189 540.284 120.178 541.983H120.297C120.558 541.466 120.911 541.026 121.354 540.662C121.803 540.293 122.311 540.011 122.879 539.818C123.453 539.619 124.058 539.52 124.695 539.52C125.729 539.52 126.649 539.764 127.456 540.253C128.263 540.736 128.899 541.401 129.365 542.247C129.831 543.094 130.064 544.062 130.064 545.153C130.064 546.335 129.788 547.386 129.237 548.307C128.692 549.227 127.928 549.949 126.945 550.472C125.967 550.989 124.831 551.244 123.536 551.239ZM123.518 548.341C124.087 548.341 124.595 548.205 125.044 547.932C125.493 547.659 125.845 547.29 126.101 546.824C126.357 546.358 126.484 545.835 126.484 545.256C126.484 544.676 126.357 544.156 126.101 543.696C125.851 543.236 125.504 542.869 125.061 542.597C124.618 542.324 124.112 542.188 123.544 542.188C123.118 542.188 122.723 542.267 122.359 542.426C122.001 542.585 121.686 542.807 121.413 543.091C121.146 543.375 120.936 543.705 120.783 544.08C120.629 544.449 120.553 544.844 120.553 545.264C120.553 545.827 120.68 546.341 120.936 546.807C121.197 547.273 121.55 547.645 121.993 547.923C122.442 548.202 122.95 548.341 123.518 548.341ZM147.933 539.656H144.2C144.132 539.173 143.993 538.744 143.783 538.369C143.572 537.989 143.303 537.665 142.973 537.398C142.643 537.131 142.263 536.926 141.831 536.784C141.405 536.642 140.942 536.571 140.442 536.571C139.538 536.571 138.751 536.795 138.081 537.244C137.411 537.687 136.891 538.335 136.521 539.188C136.152 540.034 135.967 541.062 135.967 542.273C135.967 543.517 136.152 544.562 136.521 545.409C136.896 546.256 137.419 546.895 138.089 547.327C138.76 547.759 139.536 547.974 140.416 547.974C140.911 547.974 141.368 547.909 141.788 547.778C142.214 547.648 142.592 547.457 142.922 547.207C143.251 546.952 143.524 546.642 143.74 546.278C143.962 545.915 144.115 545.5 144.2 545.034L147.933 545.051C147.837 545.852 147.595 546.625 147.209 547.369C146.828 548.108 146.314 548.77 145.666 549.355C145.024 549.935 144.257 550.395 143.365 550.736C142.479 551.071 141.476 551.239 140.357 551.239C138.8 551.239 137.408 550.886 136.18 550.182C134.959 549.477 133.993 548.457 133.283 547.122C132.578 545.787 132.226 544.17 132.226 542.273C132.226 540.369 132.584 538.75 133.3 537.415C134.016 536.08 134.987 535.062 136.214 534.364C137.442 533.659 138.822 533.307 140.357 533.307C141.368 533.307 142.305 533.449 143.169 533.733C144.038 534.017 144.808 534.432 145.479 534.977C146.149 535.517 146.695 536.179 147.115 536.963C147.541 537.747 147.814 538.645 147.933 539.656Z" fill="#3C3C3C"/>
<rect width="200" height="200" transform="translate(230 442)" fill="#3692F5"/>
<path d="M292.366 551.239C291.094 551.239 289.96 551.02 288.966 550.582C287.977 550.139 287.196 549.531 286.622 548.759C286.054 547.98 285.761 547.082 285.744 546.065H289.46C289.483 546.491 289.622 546.866 289.878 547.19C290.139 547.509 290.486 547.756 290.918 547.932C291.349 548.108 291.835 548.196 292.375 548.196C292.938 548.196 293.435 548.097 293.866 547.898C294.298 547.699 294.636 547.423 294.881 547.071C295.125 546.719 295.247 546.312 295.247 545.852C295.247 545.386 295.116 544.974 294.855 544.616C294.599 544.253 294.23 543.969 293.747 543.764C293.27 543.56 292.702 543.457 292.043 543.457H290.415V540.747H292.043C292.599 540.747 293.091 540.651 293.517 540.457C293.949 540.264 294.284 539.997 294.523 539.656C294.761 539.31 294.881 538.906 294.881 538.446C294.881 538.009 294.776 537.625 294.565 537.295C294.361 536.96 294.071 536.699 293.696 536.511C293.327 536.324 292.895 536.23 292.401 536.23C291.901 536.23 291.443 536.321 291.028 536.503C290.614 536.679 290.281 536.932 290.031 537.261C289.781 537.591 289.648 537.977 289.631 538.42H286.094C286.111 537.415 286.398 536.528 286.955 535.761C287.511 534.994 288.261 534.395 289.205 533.963C290.153 533.526 291.224 533.307 292.418 533.307C293.622 533.307 294.676 533.526 295.58 533.963C296.483 534.401 297.185 534.991 297.685 535.736C298.19 536.474 298.44 537.304 298.435 538.224C298.44 539.202 298.136 540.017 297.523 540.67C296.915 541.324 296.122 541.739 295.145 541.915V542.051C296.429 542.216 297.406 542.662 298.077 543.389C298.753 544.111 299.088 545.014 299.082 546.099C299.088 547.094 298.801 547.977 298.222 548.75C297.648 549.523 296.855 550.131 295.844 550.574C294.832 551.017 293.673 551.239 292.366 551.239ZM308.184 551.239C307.286 551.233 306.42 551.082 305.585 550.787C304.755 550.491 304.011 550.011 303.352 549.347C302.692 548.682 302.17 547.801 301.783 546.705C301.403 545.608 301.212 544.261 301.212 542.665C301.218 541.199 301.386 539.889 301.715 538.736C302.05 537.577 302.528 536.594 303.147 535.787C303.772 534.98 304.519 534.366 305.388 533.946C306.258 533.52 307.232 533.307 308.312 533.307C309.477 533.307 310.505 533.534 311.397 533.989C312.289 534.437 313.005 535.048 313.545 535.821C314.09 536.594 314.42 537.46 314.533 538.42H310.894C310.752 537.812 310.454 537.335 309.999 536.989C309.545 536.642 308.982 536.469 308.312 536.469C307.175 536.469 306.312 536.963 305.721 537.952C305.136 538.94 304.837 540.284 304.826 541.983H304.945C305.207 541.466 305.559 541.026 306.002 540.662C306.451 540.293 306.96 540.011 307.528 539.818C308.102 539.619 308.707 539.52 309.343 539.52C310.377 539.52 311.298 539.764 312.104 540.253C312.911 540.736 313.548 541.401 314.013 542.247C314.479 543.094 314.712 544.062 314.712 545.153C314.712 546.335 314.437 547.386 313.886 548.307C313.34 549.227 312.576 549.949 311.593 550.472C310.616 550.989 309.479 551.244 308.184 551.239ZM308.167 548.341C308.735 548.341 309.244 548.205 309.692 547.932C310.141 547.659 310.494 547.29 310.749 546.824C311.005 546.358 311.133 545.835 311.133 545.256C311.133 544.676 311.005 544.156 310.749 543.696C310.499 543.236 310.153 542.869 309.71 542.597C309.266 542.324 308.761 542.188 308.192 542.188C307.766 542.188 307.371 542.267 307.008 542.426C306.65 542.585 306.335 542.807 306.062 543.091C305.795 543.375 305.585 543.705 305.431 544.08C305.278 544.449 305.201 544.844 305.201 545.264C305.201 545.827 305.329 546.341 305.585 546.807C305.846 547.273 306.198 547.645 306.641 547.923C307.09 548.202 307.599 548.341 308.167 548.341ZM323.394 533.307C324.292 533.307 325.156 533.457 325.985 533.759C326.82 534.06 327.565 534.54 328.218 535.199C328.877 535.858 329.397 536.733 329.778 537.824C330.164 538.909 330.36 540.241 330.366 541.821C330.366 543.304 330.198 544.628 329.863 545.793C329.533 546.952 329.059 547.938 328.44 548.75C327.82 549.562 327.073 550.182 326.198 550.608C325.323 551.028 324.346 551.239 323.266 551.239C322.102 551.239 321.073 551.014 320.181 550.565C319.289 550.111 318.57 549.494 318.025 548.716C317.485 547.932 317.158 547.051 317.045 546.074H320.684C320.826 546.71 321.124 547.205 321.579 547.557C322.033 547.903 322.596 548.077 323.266 548.077C324.403 548.077 325.266 547.582 325.857 546.594C326.448 545.599 326.746 544.239 326.752 542.511H326.633C326.371 543.023 326.019 543.463 325.576 543.832C325.133 544.196 324.624 544.477 324.05 544.676C323.482 544.875 322.877 544.974 322.235 544.974C321.207 544.974 320.289 544.733 319.482 544.25C318.675 543.767 318.039 543.102 317.573 542.256C317.107 541.409 316.874 540.443 316.874 539.358C316.869 538.188 317.138 537.145 317.684 536.23C318.229 535.315 318.991 534.599 319.968 534.082C320.951 533.56 322.093 533.301 323.394 533.307ZM323.42 536.205C322.846 536.205 322.335 536.341 321.886 536.614C321.442 536.886 321.09 537.253 320.829 537.713C320.573 538.173 320.448 538.687 320.454 539.256C320.454 539.83 320.579 540.347 320.829 540.807C321.085 541.261 321.431 541.625 321.869 541.898C322.312 542.165 322.817 542.298 323.386 542.298C323.812 542.298 324.207 542.219 324.57 542.06C324.934 541.901 325.249 541.682 325.516 541.403C325.789 541.119 326.002 540.793 326.156 540.423C326.309 540.054 326.386 539.662 326.386 539.247C326.38 538.696 326.249 538.19 325.994 537.73C325.738 537.27 325.386 536.901 324.937 536.622C324.488 536.344 323.982 536.205 323.42 536.205ZM332.673 551V548.341L338.886 542.588C339.414 542.077 339.857 541.616 340.215 541.207C340.579 540.798 340.854 540.398 341.042 540.006C341.229 539.608 341.323 539.179 341.323 538.719C341.323 538.207 341.207 537.767 340.974 537.398C340.741 537.023 340.423 536.736 340.019 536.537C339.616 536.332 339.158 536.23 338.647 536.23C338.113 536.23 337.647 536.338 337.249 536.554C336.852 536.77 336.545 537.08 336.329 537.483C336.113 537.886 336.005 538.366 336.005 538.923H332.502C332.502 537.781 332.761 536.79 333.278 535.949C333.795 535.108 334.519 534.457 335.451 533.997C336.383 533.537 337.457 533.307 338.673 533.307C339.923 533.307 341.011 533.528 341.937 533.972C342.869 534.409 343.593 535.017 344.11 535.795C344.627 536.574 344.886 537.466 344.886 538.472C344.886 539.131 344.755 539.781 344.494 540.423C344.238 541.065 343.781 541.778 343.121 542.562C342.462 543.341 341.533 544.276 340.335 545.366L337.786 547.864V547.983H345.116V551H332.673ZM347.642 551V533.545H359.199V536.588H351.332V540.747H358.432V543.79H351.332V551H347.642ZM367.704 551.239C366.499 551.239 365.425 551.017 364.482 550.574C363.545 550.131 362.8 549.52 362.249 548.741C361.698 547.963 361.411 547.071 361.388 546.065H364.968C365.008 546.741 365.292 547.29 365.82 547.71C366.349 548.131 366.977 548.341 367.704 548.341C368.283 548.341 368.795 548.213 369.238 547.957C369.687 547.696 370.036 547.335 370.286 546.875C370.542 546.409 370.67 545.875 370.67 545.273C370.67 544.659 370.539 544.119 370.278 543.653C370.022 543.187 369.667 542.824 369.212 542.562C368.758 542.301 368.238 542.168 367.653 542.162C367.141 542.162 366.644 542.267 366.161 542.477C365.684 542.687 365.312 542.974 365.045 543.338L361.763 542.75L362.59 533.545H373.261V536.562H365.633L365.181 540.935H365.283C365.59 540.503 366.053 540.145 366.673 539.861C367.292 539.577 367.985 539.435 368.752 539.435C369.803 539.435 370.741 539.682 371.565 540.176C372.388 540.67 373.039 541.349 373.516 542.213C373.994 543.071 374.229 544.06 374.224 545.179C374.229 546.355 373.957 547.401 373.406 548.315C372.86 549.224 372.096 549.94 371.113 550.463C370.136 550.98 368.999 551.239 367.704 551.239Z" fill="white"/>
<rect width="200" height="200" transform="translate(460 442)" fill="#3C3C3C"/>
<path d="M517.366 551.239C516.094 551.239 514.96 551.02 513.966 550.582C512.977 550.139 512.196 549.531 511.622 548.759C511.054 547.98 510.761 547.082 510.744 546.065H514.46C514.483 546.491 514.622 546.866 514.878 547.19C515.139 547.509 515.486 547.756 515.918 547.932C516.349 548.108 516.835 548.196 517.375 548.196C517.938 548.196 518.435 548.097 518.866 547.898C519.298 547.699 519.636 547.423 519.881 547.071C520.125 546.719 520.247 546.312 520.247 545.852C520.247 545.386 520.116 544.974 519.855 544.616C519.599 544.253 519.23 543.969 518.747 543.764C518.27 543.56 517.702 543.457 517.043 543.457H515.415V540.747H517.043C517.599 540.747 518.091 540.651 518.517 540.457C518.949 540.264 519.284 539.997 519.523 539.656C519.761 539.31 519.881 538.906 519.881 538.446C519.881 538.009 519.776 537.625 519.565 537.295C519.361 536.96 519.071 536.699 518.696 536.511C518.327 536.324 517.895 536.23 517.401 536.23C516.901 536.23 516.443 536.321 516.028 536.503C515.614 536.679 515.281 536.932 515.031 537.261C514.781 537.591 514.648 537.977 514.631 538.42H511.094C511.111 537.415 511.398 536.528 511.955 535.761C512.511 534.994 513.261 534.395 514.205 533.963C515.153 533.526 516.224 533.307 517.418 533.307C518.622 533.307 519.676 533.526 520.58 533.963C521.483 534.401 522.185 534.991 522.685 535.736C523.19 536.474 523.44 537.304 523.435 538.224C523.44 539.202 523.136 540.017 522.523 540.67C521.915 541.324 521.122 541.739 520.145 541.915V542.051C521.429 542.216 522.406 542.662 523.077 543.389C523.753 544.111 524.088 545.014 524.082 546.099C524.088 547.094 523.801 547.977 523.222 548.75C522.648 549.523 521.855 550.131 520.844 550.574C519.832 551.017 518.673 551.239 517.366 551.239ZM541.988 539.656H538.255C538.187 539.173 538.048 538.744 537.837 538.369C537.627 537.989 537.357 537.665 537.028 537.398C536.698 537.131 536.317 536.926 535.886 536.784C535.46 536.642 534.996 536.571 534.496 536.571C533.593 536.571 532.806 536.795 532.136 537.244C531.465 537.687 530.945 538.335 530.576 539.188C530.207 540.034 530.022 541.062 530.022 542.273C530.022 543.517 530.207 544.562 530.576 545.409C530.951 546.256 531.474 546.895 532.144 547.327C532.815 547.759 533.59 547.974 534.471 547.974C534.965 547.974 535.423 547.909 535.843 547.778C536.269 547.648 536.647 547.457 536.977 547.207C537.306 546.952 537.579 546.642 537.795 546.278C538.016 545.915 538.17 545.5 538.255 545.034L541.988 545.051C541.891 545.852 541.65 546.625 541.263 547.369C540.883 548.108 540.369 548.77 539.721 549.355C539.079 549.935 538.312 550.395 537.42 550.736C536.533 551.071 535.531 551.239 534.411 551.239C532.854 551.239 531.462 550.886 530.235 550.182C529.013 549.477 528.048 548.457 527.337 547.122C526.633 545.787 526.281 544.17 526.281 542.273C526.281 540.369 526.638 538.75 527.354 537.415C528.07 536.08 529.042 535.062 530.269 534.364C531.496 533.659 532.877 533.307 534.411 533.307C535.423 533.307 536.36 533.449 537.224 533.733C538.093 534.017 538.863 534.432 539.533 534.977C540.204 535.517 540.749 536.179 541.17 536.963C541.596 537.747 541.869 538.645 541.988 539.656ZM550.734 551.239C549.461 551.239 548.327 551.02 547.333 550.582C546.344 550.139 545.563 549.531 544.989 548.759C544.421 547.98 544.129 547.082 544.112 546.065H547.827C547.85 546.491 547.989 546.866 548.245 547.19C548.506 547.509 548.853 547.756 549.285 547.932C549.717 548.108 550.202 548.196 550.742 548.196C551.305 548.196 551.802 548.097 552.234 547.898C552.665 547.699 553.004 547.423 553.248 547.071C553.492 546.719 553.614 546.312 553.614 545.852C553.614 545.386 553.484 544.974 553.222 544.616C552.967 544.253 552.597 543.969 552.114 543.764C551.637 543.56 551.069 543.457 550.41 543.457H548.782V540.747H550.41C550.967 540.747 551.458 540.651 551.884 540.457C552.316 540.264 552.651 539.997 552.89 539.656C553.129 539.31 553.248 538.906 553.248 538.446C553.248 538.009 553.143 537.625 552.933 537.295C552.728 536.96 552.438 536.699 552.063 536.511C551.694 536.324 551.262 536.23 550.768 536.23C550.268 536.23 549.81 536.321 549.396 536.503C548.981 536.679 548.648 536.932 548.398 537.261C548.148 537.591 548.015 537.977 547.998 538.42H544.461C544.478 537.415 544.765 536.528 545.322 535.761C545.879 534.994 546.629 534.395 547.572 533.963C548.521 533.526 549.592 533.307 550.785 533.307C551.989 533.307 553.043 533.526 553.947 533.963C554.85 534.401 555.552 534.991 556.052 535.736C556.558 536.474 556.808 537.304 556.802 538.224C556.808 539.202 556.504 540.017 555.89 540.67C555.282 541.324 554.489 541.739 553.512 541.915V542.051C554.796 542.216 555.773 542.662 556.444 543.389C557.12 544.111 557.455 545.014 557.45 546.099C557.455 547.094 557.168 547.977 556.589 548.75C556.015 549.523 555.222 550.131 554.211 550.574C553.2 551.017 552.04 551.239 550.734 551.239ZM575.355 539.656H571.622C571.554 539.173 571.415 538.744 571.205 538.369C570.994 537.989 570.724 537.665 570.395 537.398C570.065 537.131 569.685 536.926 569.253 536.784C568.827 536.642 568.364 536.571 567.864 536.571C566.96 536.571 566.173 536.795 565.503 537.244C564.832 537.687 564.313 538.335 563.943 539.188C563.574 540.034 563.389 541.062 563.389 542.273C563.389 543.517 563.574 544.562 563.943 545.409C564.318 546.256 564.841 546.895 565.511 547.327C566.182 547.759 566.957 547.974 567.838 547.974C568.332 547.974 568.79 547.909 569.21 547.778C569.636 547.648 570.014 547.457 570.344 547.207C570.673 546.952 570.946 546.642 571.162 546.278C571.384 545.915 571.537 545.5 571.622 545.034L575.355 545.051C575.259 545.852 575.017 546.625 574.631 547.369C574.25 548.108 573.736 548.77 573.088 549.355C572.446 549.935 571.679 550.395 570.787 550.736C569.901 551.071 568.898 551.239 567.778 551.239C566.222 551.239 564.83 550.886 563.602 550.182C562.381 549.477 561.415 548.457 560.705 547.122C560 545.787 559.648 544.17 559.648 542.273C559.648 540.369 560.006 538.75 560.722 537.415C561.438 536.08 562.409 535.062 563.636 534.364C564.864 533.659 566.244 533.307 567.778 533.307C568.79 533.307 569.727 533.449 570.591 533.733C571.46 534.017 572.23 534.432 572.901 534.977C573.571 535.517 574.116 536.179 574.537 536.963C574.963 537.747 575.236 538.645 575.355 539.656ZM584.101 551.239C582.828 551.239 581.695 551.02 580.7 550.582C579.712 550.139 578.93 549.531 578.357 548.759C577.788 547.98 577.496 547.082 577.479 546.065H581.195C581.217 546.491 581.357 546.866 581.612 547.19C581.874 547.509 582.22 547.756 582.652 547.932C583.084 548.108 583.57 548.196 584.109 548.196C584.672 548.196 585.169 548.097 585.601 547.898C586.033 547.699 586.371 547.423 586.615 547.071C586.859 546.719 586.982 546.312 586.982 545.852C586.982 545.386 586.851 544.974 586.589 544.616C586.334 544.253 585.964 543.969 585.482 543.764C585.004 543.56 584.436 543.457 583.777 543.457H582.149V540.747H583.777C584.334 540.747 584.825 540.651 585.251 540.457C585.683 540.264 586.018 539.997 586.257 539.656C586.496 539.31 586.615 538.906 586.615 538.446C586.615 538.009 586.51 537.625 586.3 537.295C586.095 536.96 585.805 536.699 585.43 536.511C585.061 536.324 584.629 536.23 584.135 536.23C583.635 536.23 583.178 536.321 582.763 536.503C582.348 536.679 582.016 536.932 581.766 537.261C581.516 537.591 581.382 537.977 581.365 538.42H577.828C577.845 537.415 578.132 536.528 578.689 535.761C579.246 534.994 579.996 534.395 580.939 533.963C581.888 533.526 582.959 533.307 584.152 533.307C585.357 533.307 586.411 533.526 587.314 533.963C588.217 534.401 588.919 534.991 589.419 535.736C589.925 536.474 590.175 537.304 590.169 538.224C590.175 539.202 589.871 540.017 589.257 540.67C588.649 541.324 587.857 541.739 586.879 541.915V542.051C588.163 542.216 589.141 542.662 589.811 543.389C590.487 544.111 590.822 545.014 590.817 546.099C590.822 547.094 590.536 547.977 589.956 548.75C589.382 549.523 588.589 550.131 587.578 550.574C586.567 551.017 585.408 551.239 584.101 551.239ZM608.722 539.656H604.989C604.921 539.173 604.782 538.744 604.572 538.369C604.362 537.989 604.092 537.665 603.762 537.398C603.433 537.131 603.052 536.926 602.62 536.784C602.194 536.642 601.731 536.571 601.231 536.571C600.327 536.571 599.54 536.795 598.87 537.244C598.2 537.687 597.68 538.335 597.31 539.188C596.941 540.034 596.756 541.062 596.756 542.273C596.756 543.517 596.941 544.562 597.31 545.409C597.685 546.256 598.208 546.895 598.879 547.327C599.549 547.759 600.325 547.974 601.205 547.974C601.7 547.974 602.157 547.909 602.577 547.778C603.004 547.648 603.381 547.457 603.711 547.207C604.04 546.952 604.313 546.642 604.529 546.278C604.751 545.915 604.904 545.5 604.989 545.034L608.722 545.051C608.626 545.852 608.384 546.625 607.998 547.369C607.617 548.108 607.103 548.77 606.455 549.355C605.813 549.935 605.046 550.395 604.154 550.736C603.268 551.071 602.265 551.239 601.146 551.239C599.589 551.239 598.197 550.886 596.969 550.182C595.748 549.477 594.782 548.457 594.072 547.122C593.367 545.787 593.015 544.17 593.015 542.273C593.015 540.369 593.373 538.75 594.089 537.415C594.805 536.08 595.776 535.062 597.004 534.364C598.231 533.659 599.612 533.307 601.146 533.307C602.157 533.307 603.094 533.449 603.958 533.733C604.827 534.017 605.597 534.432 606.268 534.977C606.938 535.517 607.484 536.179 607.904 536.963C608.33 537.747 608.603 538.645 608.722 539.656Z" fill="white"/>
<path d="M2.27557 747V720.818H19.6108V725.382H7.81108V731.621H18.4602V736.185H7.81108V747H2.27557ZM28.3352 747.371C27.0824 747.371 25.9659 747.153 24.9858 746.719C24.0057 746.276 23.2301 745.624 22.6591 744.763C22.0966 743.893 21.8153 742.811 21.8153 741.516C21.8153 740.425 22.0156 739.509 22.4162 738.767C22.8168 738.026 23.3622 737.429 24.0526 736.977C24.7429 736.526 25.527 736.185 26.4048 735.955C27.2912 735.724 28.2202 735.562 29.1918 735.469C30.3338 735.349 31.2543 735.239 31.9531 735.136C32.652 735.026 33.1591 734.864 33.4744 734.651C33.7898 734.437 33.9474 734.122 33.9474 733.705V733.628C33.9474 732.818 33.6918 732.192 33.1804 731.749C32.6776 731.305 31.9616 731.084 31.0327 731.084C30.0526 731.084 29.2727 731.301 28.6932 731.736C28.1136 732.162 27.7301 732.699 27.5426 733.347L22.5057 732.938C22.7614 731.744 23.2642 730.713 24.0142 729.844C24.7642 728.966 25.7315 728.293 26.9162 727.824C28.1094 727.347 29.4901 727.108 31.0582 727.108C32.1491 727.108 33.1932 727.236 34.1903 727.491C35.196 727.747 36.0866 728.143 36.8622 728.68C37.6463 729.217 38.2642 729.908 38.7159 730.751C39.1676 731.587 39.3935 732.588 39.3935 733.756V747H34.2287V744.277H34.0753C33.7599 744.891 33.3381 745.432 32.8097 745.901C32.2812 746.361 31.6463 746.723 30.9048 746.987C30.1634 747.243 29.3068 747.371 28.3352 747.371ZM29.8949 743.612C30.696 743.612 31.4034 743.455 32.017 743.139C32.6307 742.815 33.1122 742.381 33.4616 741.835C33.8111 741.29 33.9858 740.672 33.9858 739.982V737.898C33.8153 738.009 33.581 738.111 33.2827 738.205C32.9929 738.29 32.6648 738.371 32.2983 738.447C31.9318 738.516 31.5653 738.58 31.1989 738.639C30.8324 738.69 30.5 738.737 30.2017 738.78C29.5625 738.874 29.0043 739.023 28.527 739.227C28.0497 739.432 27.679 739.709 27.4148 740.058C27.1506 740.399 27.0185 740.825 27.0185 741.337C27.0185 742.078 27.2869 742.645 27.8239 743.037C28.3693 743.42 29.0597 743.612 29.8949 743.612ZM43.3686 747V727.364H48.6484V730.79H48.853C49.2109 729.571 49.8118 728.651 50.6555 728.028C51.4993 727.398 52.4709 727.082 53.5703 727.082C53.843 727.082 54.1371 727.099 54.4524 727.134C54.7678 727.168 55.0447 727.214 55.2834 727.274V732.107C55.0277 732.03 54.674 731.962 54.2223 731.902C53.7706 731.842 53.3572 731.812 52.9822 731.812C52.1811 731.812 51.4652 731.987 50.8345 732.337C50.2124 732.678 49.718 733.155 49.3516 733.768C48.9936 734.382 48.8146 735.089 48.8146 735.891V747H43.3686ZM57.9513 747V720.818H63.3974V730.662H63.5636C63.8022 730.134 64.1474 729.597 64.5991 729.051C65.0593 728.497 65.6559 728.037 66.3889 727.67C67.1303 727.295 68.0508 727.108 69.1502 727.108C70.582 727.108 71.9031 727.483 73.1133 728.233C74.3235 728.974 75.2908 730.095 76.0153 731.595C76.7397 733.087 77.1019 734.957 77.1019 737.207C77.1019 739.398 76.7482 741.247 76.0408 742.756C75.342 744.256 74.3874 745.393 73.1772 746.169C71.9755 746.936 70.6289 747.32 69.1374 747.32C68.0806 747.32 67.1815 747.145 66.44 746.795C65.707 746.446 65.1062 746.007 64.6374 745.479C64.1687 744.942 63.8107 744.401 63.5636 743.855H63.3207V747H57.9513ZM63.2823 737.182C63.2823 738.349 63.4442 739.368 63.7681 740.237C64.092 741.107 64.5607 741.784 65.1744 742.27C65.788 742.747 66.5337 742.986 67.4116 742.986C68.2979 742.986 69.0479 742.743 69.6616 742.257C70.2752 741.763 70.7397 741.081 71.055 740.212C71.3789 739.334 71.5408 738.324 71.5408 737.182C71.5408 736.048 71.3832 735.051 71.0678 734.19C70.7525 733.33 70.288 732.656 69.6744 732.17C69.0607 731.685 68.3065 731.442 67.4116 731.442C66.5252 731.442 65.7752 731.676 65.1616 732.145C64.5565 732.614 64.092 733.278 63.7681 734.139C63.4442 735 63.2823 736.014 63.2823 737.182ZM89.4347 747.384C87.4148 747.384 85.6761 746.974 84.2188 746.156C82.7699 745.33 81.6534 744.162 80.8693 742.653C80.0852 741.136 79.6932 739.342 79.6932 737.271C79.6932 735.251 80.0852 733.479 80.8693 731.953C81.6534 730.428 82.7571 729.239 84.1804 728.386C85.6122 727.534 87.2912 727.108 89.2173 727.108C90.5128 727.108 91.7188 727.317 92.8352 727.734C93.9602 728.143 94.9403 728.761 95.7756 729.588C96.6193 730.415 97.2756 731.455 97.7443 732.707C98.2131 733.952 98.4474 735.409 98.4474 737.08V738.575H81.8665V735.2H93.321C93.321 734.416 93.1506 733.722 92.8097 733.116C92.4688 732.511 91.9957 732.038 91.3906 731.697C90.794 731.348 90.0994 731.173 89.3068 731.173C88.4801 731.173 87.7472 731.365 87.108 731.749C86.4773 732.124 85.983 732.631 85.625 733.27C85.267 733.901 85.0838 734.604 85.0753 735.379V738.588C85.0753 739.56 85.2543 740.399 85.6122 741.107C85.9787 741.814 86.4943 742.359 87.1591 742.743C87.8239 743.126 88.6122 743.318 89.5241 743.318C90.1293 743.318 90.6832 743.233 91.1861 743.062C91.6889 742.892 92.1193 742.636 92.4773 742.295C92.8352 741.955 93.108 741.537 93.2955 741.043L98.3324 741.375C98.0767 742.585 97.5526 743.642 96.7599 744.545C95.9759 745.44 94.9616 746.139 93.7173 746.642C92.4815 747.136 91.054 747.384 89.4347 747.384ZM107.197 735.648V747H101.751V727.364H106.942V730.828H107.172C107.607 729.686 108.335 728.783 109.358 728.118C110.381 727.445 111.621 727.108 113.078 727.108C114.442 727.108 115.631 727.406 116.645 728.003C117.659 728.599 118.447 729.452 119.01 730.56C119.572 731.659 119.854 732.972 119.854 734.497V747H114.408V735.469C114.416 734.267 114.109 733.33 113.487 732.656C112.865 731.974 112.009 731.634 110.918 731.634C110.185 731.634 109.537 731.791 108.974 732.107C108.42 732.422 107.986 732.882 107.67 733.487C107.364 734.084 107.206 734.804 107.197 735.648Z" fill="#3C3C3C"/>
<path d="M1040 782L-1.09673e-05 782" stroke="#AFDA6C" stroke-width="3"/>
<rect width="200" height="200" transform="translate(0 842)" fill="white"/>
<path d="M60.017 951V933.545H71.5739V936.588H63.7074V940.747H70.8068V943.79H63.7074V951H60.017ZM73.8061 951V933.545H85.3629V936.588H77.4964V940.747H84.5959V943.79H77.4964V951H73.8061ZM87.5952 951V933.545H99.152V936.588H91.2855V940.747H98.3849V943.79H91.2855V951H87.5952ZM101.384 951V933.545H112.941V936.588H105.075V940.747H112.174V943.79H105.075V951H101.384ZM115.173 951V933.545H126.73V936.588H118.864V940.747H125.963V943.79H118.864V951H115.173ZM128.962 951V933.545H140.519V936.588H132.653V940.747H139.752V943.79H132.653V951H128.962Z" fill="#3C3C3C"/>
<rect width="200" height="200" transform="translate(230 842)" fill="black"/>
<path d="M292.259 951.384C290.793 951.378 289.531 951.017 288.474 950.301C287.423 949.585 286.614 948.548 286.045 947.19C285.483 945.832 285.205 944.199 285.21 942.29C285.21 940.386 285.491 938.764 286.054 937.423C286.622 936.082 287.432 935.062 288.483 934.364C289.54 933.659 290.798 933.307 292.259 933.307C293.719 933.307 294.974 933.659 296.026 934.364C297.082 935.068 297.895 936.091 298.463 937.432C299.031 938.767 299.313 940.386 299.307 942.29C299.307 944.205 299.023 945.841 298.455 947.199C297.892 948.557 297.085 949.594 296.034 950.31C294.983 951.026 293.724 951.384 292.259 951.384ZM292.259 948.324C293.259 948.324 294.057 947.821 294.653 946.815C295.25 945.81 295.545 944.301 295.54 942.29C295.54 940.966 295.403 939.864 295.131 938.983C294.864 938.102 294.483 937.44 293.989 936.997C293.5 936.554 292.923 936.332 292.259 936.332C291.264 936.332 290.469 936.83 289.872 937.824C289.276 938.818 288.974 940.307 288.969 942.29C288.969 943.631 289.102 944.75 289.369 945.648C289.642 946.54 290.026 947.21 290.52 947.659C291.014 948.102 291.594 948.324 292.259 948.324ZM308.532 951.384C307.066 951.378 305.805 951.017 304.748 950.301C303.697 949.585 302.887 948.548 302.319 947.19C301.756 945.832 301.478 944.199 301.484 942.29C301.484 940.386 301.765 938.764 302.327 937.423C302.896 936.082 303.705 935.062 304.756 934.364C305.813 933.659 307.072 933.307 308.532 933.307C309.992 933.307 311.248 933.659 312.299 934.364C313.356 935.068 314.168 936.091 314.737 937.432C315.305 938.767 315.586 940.386 315.58 942.29C315.58 944.205 315.296 945.841 314.728 947.199C314.165 948.557 313.359 949.594 312.308 950.31C311.256 951.026 309.998 951.384 308.532 951.384ZM308.532 948.324C309.532 948.324 310.33 947.821 310.927 946.815C311.523 945.81 311.819 944.301 311.813 942.29C311.813 940.966 311.677 939.864 311.404 938.983C311.137 938.102 310.756 937.44 310.262 936.997C309.773 936.554 309.197 936.332 308.532 936.332C307.538 936.332 306.742 936.83 306.146 937.824C305.549 938.818 305.248 940.307 305.242 942.29C305.242 943.631 305.376 944.75 305.643 945.648C305.915 946.54 306.299 947.21 306.793 947.659C307.288 948.102 307.867 948.324 308.532 948.324ZM324.661 951.239C323.763 951.233 322.896 951.082 322.061 950.787C321.232 950.491 320.487 950.011 319.828 949.347C319.169 948.682 318.646 947.801 318.26 946.705C317.879 945.608 317.689 944.261 317.689 942.665C317.695 941.199 317.862 939.889 318.192 938.736C318.527 937.577 319.004 936.594 319.624 935.787C320.249 934.98 320.996 934.366 321.865 933.946C322.734 933.52 323.709 933.307 324.788 933.307C325.953 933.307 326.982 933.534 327.874 933.989C328.766 934.437 329.482 935.048 330.021 935.821C330.567 936.594 330.896 937.46 331.01 938.42H327.371C327.229 937.812 326.93 937.335 326.476 936.989C326.021 936.642 325.459 936.469 324.788 936.469C323.652 936.469 322.788 936.963 322.197 937.952C321.612 938.94 321.314 940.284 321.303 941.983H321.422C321.683 941.466 322.036 941.026 322.479 940.662C322.928 940.293 323.436 940.011 324.004 939.818C324.578 939.619 325.183 939.52 325.82 939.52C326.854 939.52 327.774 939.764 328.581 940.253C329.388 940.736 330.024 941.401 330.49 942.247C330.956 943.094 331.189 944.062 331.189 945.153C331.189 946.335 330.913 947.386 330.362 948.307C329.817 949.227 329.053 949.949 328.07 950.472C327.092 950.989 325.956 951.244 324.661 951.239ZM324.643 948.341C325.212 948.341 325.72 948.205 326.169 947.932C326.618 947.659 326.97 947.29 327.226 946.824C327.482 946.358 327.609 945.835 327.609 945.256C327.609 944.676 327.482 944.156 327.226 943.696C326.976 943.236 326.629 942.869 326.186 942.597C325.743 942.324 325.237 942.188 324.669 942.188C324.243 942.188 323.848 942.267 323.484 942.426C323.126 942.585 322.811 942.807 322.538 943.091C322.271 943.375 322.061 943.705 321.908 944.08C321.754 944.449 321.678 944.844 321.678 945.264C321.678 945.827 321.805 946.341 322.061 946.807C322.322 947.273 322.675 947.645 323.118 947.923C323.567 948.202 324.075 948.341 324.643 948.341ZM340.254 951.239C339.357 951.233 338.49 951.082 337.655 950.787C336.825 950.491 336.081 950.011 335.422 949.347C334.763 948.682 334.24 947.801 333.854 946.705C333.473 945.608 333.283 944.261 333.283 942.665C333.288 941.199 333.456 939.889 333.786 938.736C334.121 937.577 334.598 936.594 335.217 935.787C335.842 934.98 336.589 934.366 337.459 933.946C338.328 933.52 339.303 933.307 340.382 933.307C341.547 933.307 342.575 933.534 343.467 933.989C344.359 934.437 345.075 935.048 345.615 935.821C346.161 936.594 346.49 937.46 346.604 938.42H342.964C342.822 937.812 342.524 937.335 342.07 936.989C341.615 936.642 341.053 936.469 340.382 936.469C339.246 936.469 338.382 936.963 337.791 937.952C337.206 938.94 336.908 940.284 336.896 941.983H337.016C337.277 941.466 337.629 941.026 338.072 940.662C338.521 940.293 339.03 940.011 339.598 939.818C340.172 939.619 340.777 939.52 341.413 939.52C342.447 939.52 343.368 939.764 344.175 940.253C344.982 940.736 345.618 941.401 346.084 942.247C346.55 943.094 346.783 944.062 346.783 945.153C346.783 946.335 346.507 947.386 345.956 948.307C345.411 949.227 344.646 949.949 343.663 950.472C342.686 950.989 341.55 951.244 340.254 951.239ZM340.237 948.341C340.805 948.341 341.314 948.205 341.763 947.932C342.212 947.659 342.564 947.29 342.82 946.824C343.075 946.358 343.203 945.835 343.203 945.256C343.203 944.676 343.075 944.156 342.82 943.696C342.57 943.236 342.223 942.869 341.78 942.597C341.337 942.324 340.831 942.188 340.263 942.188C339.837 942.188 339.442 942.267 339.078 942.426C338.72 942.585 338.405 942.807 338.132 943.091C337.865 943.375 337.655 943.705 337.501 944.08C337.348 944.449 337.271 944.844 337.271 945.264C337.271 945.827 337.399 946.341 337.655 946.807C337.916 947.273 338.268 947.645 338.712 947.923C339.161 948.202 339.669 948.341 340.237 948.341ZM349.251 951V933.545H360.808V936.588H352.942V940.747H360.041V943.79H352.942V951H349.251ZM363.04 951V933.545H374.597V936.588H366.731V940.747H373.83V943.79H366.731V951H363.04Z" fill="white"/>
<rect width="200" height="200" transform="translate(460 842)" fill="url(#paint0_linear_310_12028)"/>
<path d="M522.204 927.239C520.999 927.239 519.925 927.017 518.982 926.574C518.045 926.131 517.3 925.52 516.749 924.741C516.198 923.963 515.911 923.071 515.888 922.065H519.468C519.508 922.741 519.792 923.29 520.32 923.71C520.849 924.131 521.477 924.341 522.204 924.341C522.783 924.341 523.295 924.213 523.738 923.957C524.187 923.696 524.536 923.335 524.786 922.875C525.042 922.409 525.17 921.875 525.17 921.273C525.17 920.659 525.039 920.119 524.778 919.653C524.522 919.187 524.167 918.824 523.712 918.562C523.258 918.301 522.738 918.168 522.153 918.162C521.641 918.162 521.144 918.267 520.661 918.477C520.184 918.687 519.812 918.974 519.545 919.338L516.263 918.75L517.09 909.545H527.761V912.562H520.133L519.681 916.935H519.783C520.09 916.503 520.553 916.145 521.173 915.861C521.792 915.577 522.485 915.435 523.252 915.435C524.303 915.435 525.241 915.682 526.065 916.176C526.888 916.67 527.539 917.349 528.016 918.213C528.494 919.071 528.729 920.06 528.724 921.179C528.729 922.355 528.457 923.401 527.906 924.315C527.36 925.224 526.596 925.94 525.613 926.463C524.636 926.98 523.499 927.239 522.204 927.239ZM538.141 927.384C536.675 927.378 535.414 927.017 534.357 926.301C533.306 925.585 532.496 924.548 531.928 923.19C531.366 921.832 531.087 920.199 531.093 918.29C531.093 916.386 531.374 914.764 531.937 913.423C532.505 912.082 533.315 911.062 534.366 910.364C535.423 909.659 536.681 909.307 538.141 909.307C539.602 909.307 540.857 909.659 541.908 910.364C542.965 911.068 543.778 912.091 544.346 913.432C544.914 914.767 545.195 916.386 545.19 918.29C545.19 920.205 544.906 921.841 544.337 923.199C543.775 924.557 542.968 925.594 541.917 926.31C540.866 927.026 539.607 927.384 538.141 927.384ZM538.141 924.324C539.141 924.324 539.94 923.821 540.536 922.815C541.133 921.81 541.428 920.301 541.423 918.29C541.423 916.966 541.286 915.864 541.013 914.983C540.746 914.102 540.366 913.44 539.871 912.997C539.383 912.554 538.806 912.332 538.141 912.332C537.147 912.332 536.352 912.83 535.755 913.824C535.158 914.818 534.857 916.307 534.852 918.29C534.852 919.631 534.985 920.75 535.252 921.648C535.525 922.54 535.908 923.21 536.403 923.659C536.897 924.102 537.477 924.324 538.141 924.324ZM550.932 927H546.977L553.003 909.545H557.759L563.776 927H559.821L555.449 913.534H555.312L550.932 927ZM550.685 920.139H560.026V923.02H550.685V920.139ZM572.548 909.545V927H568.857V913.048H568.755L564.758 915.554V912.281L569.079 909.545H572.548ZM576.798 927V909.545H588.355V912.588H580.489V916.747H587.588V919.79H580.489V927H576.798ZM590.471 923.932V921.026L597.758 909.545H600.263V913.568H598.781L594.187 920.838V920.974H604.542V923.932H590.471ZM598.849 927V923.045L598.917 921.759V909.545H602.377V927H598.849ZM564.375 932.727L558.75 953.625H555.623L561.248 932.727H564.375ZM519.837 975.239C518.632 975.239 517.558 975.017 516.615 974.574C515.678 974.131 514.933 973.52 514.382 972.741C513.831 971.963 513.544 971.071 513.521 970.065H517.101C517.141 970.741 517.425 971.29 517.953 971.71C518.482 972.131 519.109 972.341 519.837 972.341C520.416 972.341 520.928 972.213 521.371 971.957C521.82 971.696 522.169 971.335 522.419 970.875C522.675 970.409 522.803 969.875 522.803 969.273C522.803 968.659 522.672 968.119 522.411 967.653C522.155 967.187 521.8 966.824 521.345 966.562C520.891 966.301 520.371 966.168 519.786 966.162C519.274 966.162 518.777 966.267 518.294 966.477C517.817 966.687 517.445 966.974 517.178 967.338L513.896 966.75L514.723 957.545H525.393V960.562H517.766L517.314 964.935H517.416C517.723 964.503 518.186 964.145 518.805 963.861C519.425 963.577 520.118 963.435 520.885 963.435C521.936 963.435 522.874 963.682 523.697 964.176C524.521 964.67 525.172 965.349 525.649 966.213C526.126 967.071 526.362 968.06 526.357 969.179C526.362 970.355 526.089 971.401 525.538 972.315C524.993 973.224 524.229 973.94 523.246 974.463C522.268 974.98 521.132 975.239 519.837 975.239ZM532.041 975H528.087L534.112 957.545H538.868L544.885 975H540.93L536.558 961.534H536.422L532.041 975ZM531.794 968.139H541.135V971.02H531.794V968.139ZM546.986 975V957.545H558.543V960.588H550.676V964.747H557.776V967.79H550.676V975H546.986ZM560.923 975V972.341L567.136 966.588C567.664 966.077 568.107 965.616 568.465 965.207C568.829 964.798 569.104 964.398 569.292 964.006C569.479 963.608 569.573 963.179 569.573 962.719C569.573 962.207 569.457 961.767 569.224 961.398C568.991 961.023 568.673 960.736 568.269 960.537C567.866 960.332 567.408 960.23 566.897 960.23C566.363 960.23 565.897 960.338 565.499 960.554C565.102 960.77 564.795 961.08 564.579 961.483C564.363 961.886 564.255 962.366 564.255 962.923H560.752C560.752 961.781 561.011 960.79 561.528 959.949C562.045 959.108 562.769 958.457 563.701 957.997C564.633 957.537 565.707 957.307 566.923 957.307C568.173 957.307 569.261 957.528 570.187 957.972C571.119 958.409 571.843 959.017 572.36 959.795C572.877 960.574 573.136 961.466 573.136 962.472C573.136 963.131 573.005 963.781 572.744 964.423C572.488 965.065 572.031 965.778 571.371 966.562C570.712 967.341 569.783 968.276 568.585 969.366L566.036 971.864V971.983H573.366V975H560.923ZM582.33 975H576.142V957.545H582.381C584.136 957.545 585.648 957.895 586.915 958.594C588.182 959.287 589.156 960.284 589.838 961.585C590.526 962.886 590.869 964.443 590.869 966.256C590.869 968.074 590.526 969.636 589.838 970.943C589.156 972.25 588.176 973.253 586.898 973.952C585.625 974.651 584.102 975 582.33 975ZM579.832 971.838H582.176C583.267 971.838 584.185 971.645 584.929 971.259C585.679 970.866 586.241 970.261 586.616 969.443C586.997 968.619 587.188 967.557 587.188 966.256C587.188 964.966 586.997 963.912 586.616 963.094C586.241 962.276 585.682 961.673 584.938 961.287C584.193 960.901 583.276 960.707 582.185 960.707H579.832V971.838ZM600.012 975.239C598.7 975.239 597.532 975.026 596.509 974.599C595.492 974.168 594.694 973.58 594.114 972.835C593.535 972.091 593.245 971.247 593.245 970.304C593.245 969.577 593.41 968.909 593.739 968.301C594.075 967.688 594.529 967.179 595.103 966.776C595.677 966.366 596.319 966.105 597.029 965.991V965.872C596.097 965.685 595.342 965.233 594.762 964.517C594.183 963.795 593.893 962.957 593.893 962.003C593.893 961.099 594.157 960.295 594.685 959.591C595.214 958.881 595.938 958.324 596.859 957.92C597.785 957.511 598.836 957.307 600.012 957.307C601.188 957.307 602.237 957.511 603.157 957.92C604.083 958.33 604.81 958.889 605.339 959.599C605.867 960.304 606.134 961.105 606.14 962.003C606.134 962.963 605.839 963.801 605.254 964.517C604.668 965.233 603.918 965.685 603.004 965.872V965.991C603.702 966.105 604.336 966.366 604.904 966.776C605.478 967.179 605.933 967.688 606.268 968.301C606.609 968.909 606.782 969.577 606.788 970.304C606.782 971.247 606.489 972.091 605.91 972.835C605.33 973.58 604.529 974.168 603.506 974.599C602.489 975.026 601.325 975.239 600.012 975.239ZM600.012 972.528C600.597 972.528 601.109 972.423 601.546 972.213C601.984 971.997 602.325 971.702 602.569 971.327C602.819 970.946 602.944 970.509 602.944 970.014C602.944 969.509 602.816 969.062 602.56 968.676C602.305 968.284 601.958 967.977 601.521 967.756C601.083 967.528 600.58 967.415 600.012 967.415C599.45 967.415 598.947 967.528 598.504 967.756C598.06 967.977 597.711 968.284 597.455 968.676C597.205 969.062 597.08 969.509 597.08 970.014C597.08 970.509 597.202 970.946 597.447 971.327C597.691 971.702 598.035 971.997 598.478 972.213C598.921 972.423 599.433 972.528 600.012 972.528ZM600.012 964.73C600.501 964.73 600.935 964.631 601.316 964.432C601.697 964.233 601.995 963.957 602.211 963.605C602.427 963.253 602.535 962.847 602.535 962.386C602.535 961.932 602.427 961.534 602.211 961.193C601.995 960.847 601.7 960.577 601.325 960.384C600.95 960.185 600.512 960.085 600.012 960.085C599.518 960.085 599.08 960.185 598.7 960.384C598.319 960.577 598.021 960.847 597.805 961.193C597.594 961.534 597.489 961.932 597.489 962.386C597.489 962.847 597.597 963.253 597.813 963.605C598.029 963.957 598.327 964.233 598.708 964.432C599.089 964.631 599.523 964.73 600.012 964.73Z" fill="white"/>
<rect width="200" height="200" transform="translate(690 842)" fill="url(#paint1_linear_310_12028)"/>
<path d="M747.366 951.239C746.094 951.239 744.96 951.02 743.966 950.582C742.977 950.139 742.196 949.531 741.622 948.759C741.054 947.98 740.761 947.082 740.744 946.065H744.46C744.483 946.491 744.622 946.866 744.878 947.19C745.139 947.509 745.486 947.756 745.918 947.932C746.349 948.108 746.835 948.196 747.375 948.196C747.938 948.196 748.435 948.097 748.866 947.898C749.298 947.699 749.636 947.423 749.881 947.071C750.125 946.719 750.247 946.312 750.247 945.852C750.247 945.386 750.116 944.974 749.855 944.616C749.599 944.253 749.23 943.969 748.747 943.764C748.27 943.56 747.702 943.457 747.043 943.457H745.415V940.747H747.043C747.599 940.747 748.091 940.651 748.517 940.457C748.949 940.264 749.284 939.997 749.523 939.656C749.761 939.31 749.881 938.906 749.881 938.446C749.881 938.009 749.776 937.625 749.565 937.295C749.361 936.96 749.071 936.699 748.696 936.511C748.327 936.324 747.895 936.23 747.401 936.23C746.901 936.23 746.443 936.321 746.028 936.503C745.614 936.679 745.281 936.932 745.031 937.261C744.781 937.591 744.648 937.977 744.631 938.42H741.094C741.111 937.415 741.398 936.528 741.955 935.761C742.511 934.994 743.261 934.395 744.205 933.963C745.153 933.526 746.224 933.307 747.418 933.307C748.622 933.307 749.676 933.526 750.58 933.963C751.483 934.401 752.185 934.991 752.685 935.736C753.19 936.474 753.44 937.304 753.435 938.224C753.44 939.202 753.136 940.017 752.523 940.67C751.915 941.324 751.122 941.739 750.145 941.915V942.051C751.429 942.216 752.406 942.662 753.077 943.389C753.753 944.111 754.088 945.014 754.082 946.099C754.088 947.094 753.801 947.977 753.222 948.75C752.648 949.523 751.855 950.131 750.844 950.574C749.832 951.017 748.673 951.239 747.366 951.239ZM771.988 939.656H768.255C768.187 939.173 768.048 938.744 767.837 938.369C767.627 937.989 767.357 937.665 767.028 937.398C766.698 937.131 766.317 936.926 765.886 936.784C765.46 936.642 764.996 936.571 764.496 936.571C763.593 936.571 762.806 936.795 762.136 937.244C761.465 937.687 760.945 938.335 760.576 939.188C760.207 940.034 760.022 941.062 760.022 942.273C760.022 943.517 760.207 944.562 760.576 945.409C760.951 946.256 761.474 946.895 762.144 947.327C762.815 947.759 763.59 947.974 764.471 947.974C764.965 947.974 765.423 947.909 765.843 947.778C766.269 947.648 766.647 947.457 766.977 947.207C767.306 946.952 767.579 946.642 767.795 946.278C768.016 945.915 768.17 945.5 768.255 945.034L771.988 945.051C771.891 945.852 771.65 946.625 771.263 947.369C770.883 948.108 770.369 948.77 769.721 949.355C769.079 949.935 768.312 950.395 767.42 950.736C766.533 951.071 765.531 951.239 764.411 951.239C762.854 951.239 761.462 950.886 760.235 950.182C759.013 949.477 758.048 948.457 757.337 947.122C756.633 945.787 756.281 944.17 756.281 942.273C756.281 940.369 756.638 938.75 757.354 937.415C758.07 936.08 759.042 935.062 760.269 934.364C761.496 933.659 762.877 933.307 764.411 933.307C765.423 933.307 766.36 933.449 767.224 933.733C768.093 934.017 768.863 934.432 769.533 934.977C770.204 935.517 770.749 936.179 771.17 936.963C771.596 937.747 771.869 938.645 771.988 939.656ZM780.734 951.239C779.461 951.239 778.327 951.02 777.333 950.582C776.344 950.139 775.563 949.531 774.989 948.759C774.421 947.98 774.129 947.082 774.112 946.065H777.827C777.85 946.491 777.989 946.866 778.245 947.19C778.506 947.509 778.853 947.756 779.285 947.932C779.717 948.108 780.202 948.196 780.742 948.196C781.305 948.196 781.802 948.097 782.234 947.898C782.665 947.699 783.004 947.423 783.248 947.071C783.492 946.719 783.614 946.312 783.614 945.852C783.614 945.386 783.484 944.974 783.222 944.616C782.967 944.253 782.597 943.969 782.114 943.764C781.637 943.56 781.069 943.457 780.41 943.457H778.782V940.747H780.41C780.967 940.747 781.458 940.651 781.884 940.457C782.316 940.264 782.651 939.997 782.89 939.656C783.129 939.31 783.248 938.906 783.248 938.446C783.248 938.009 783.143 937.625 782.933 937.295C782.728 936.96 782.438 936.699 782.063 936.511C781.694 936.324 781.262 936.23 780.768 936.23C780.268 936.23 779.81 936.321 779.396 936.503C778.981 936.679 778.648 936.932 778.398 937.261C778.148 937.591 778.015 937.977 777.998 938.42H774.461C774.478 937.415 774.765 936.528 775.322 935.761C775.879 934.994 776.629 934.395 777.572 933.963C778.521 933.526 779.592 933.307 780.785 933.307C781.989 933.307 783.043 933.526 783.947 933.963C784.85 934.401 785.552 934.991 786.052 935.736C786.558 936.474 786.808 937.304 786.802 938.224C786.808 939.202 786.504 940.017 785.89 940.67C785.282 941.324 784.489 941.739 783.512 941.915V942.051C784.796 942.216 785.773 942.662 786.444 943.389C787.12 944.111 787.455 945.014 787.45 946.099C787.455 947.094 787.168 947.977 786.589 948.75C786.015 949.523 785.222 950.131 784.211 950.574C783.2 951.017 782.04 951.239 780.734 951.239ZM805.355 939.656H801.622C801.554 939.173 801.415 938.744 801.205 938.369C800.994 937.989 800.724 937.665 800.395 937.398C800.065 937.131 799.685 936.926 799.253 936.784C798.827 936.642 798.364 936.571 797.864 936.571C796.96 936.571 796.173 936.795 795.503 937.244C794.832 937.687 794.313 938.335 793.943 939.188C793.574 940.034 793.389 941.062 793.389 942.273C793.389 943.517 793.574 944.562 793.943 945.409C794.318 946.256 794.841 946.895 795.511 947.327C796.182 947.759 796.957 947.974 797.838 947.974C798.332 947.974 798.79 947.909 799.21 947.778C799.636 947.648 800.014 947.457 800.344 947.207C800.673 946.952 800.946 946.642 801.162 946.278C801.384 945.915 801.537 945.5 801.622 945.034L805.355 945.051C805.259 945.852 805.017 946.625 804.631 947.369C804.25 948.108 803.736 948.77 803.088 949.355C802.446 949.935 801.679 950.395 800.787 950.736C799.901 951.071 798.898 951.239 797.778 951.239C796.222 951.239 794.83 950.886 793.602 950.182C792.381 949.477 791.415 948.457 790.705 947.122C790 945.787 789.648 944.17 789.648 942.273C789.648 940.369 790.006 938.75 790.722 937.415C791.438 936.08 792.409 935.062 793.636 934.364C794.864 933.659 796.244 933.307 797.778 933.307C798.79 933.307 799.727 933.449 800.591 933.733C801.46 934.017 802.23 934.432 802.901 934.977C803.571 935.517 804.116 936.179 804.537 936.963C804.963 937.747 805.236 938.645 805.355 939.656ZM814.101 951.239C812.828 951.239 811.695 951.02 810.7 950.582C809.712 950.139 808.93 949.531 808.357 948.759C807.788 947.98 807.496 947.082 807.479 946.065H811.195C811.217 946.491 811.357 946.866 811.612 947.19C811.874 947.509 812.22 947.756 812.652 947.932C813.084 948.108 813.57 948.196 814.109 948.196C814.672 948.196 815.169 948.097 815.601 947.898C816.033 947.699 816.371 947.423 816.615 947.071C816.859 946.719 816.982 946.312 816.982 945.852C816.982 945.386 816.851 944.974 816.589 944.616C816.334 944.253 815.964 943.969 815.482 943.764C815.004 943.56 814.436 943.457 813.777 943.457H812.149V940.747H813.777C814.334 940.747 814.825 940.651 815.251 940.457C815.683 940.264 816.018 939.997 816.257 939.656C816.496 939.31 816.615 938.906 816.615 938.446C816.615 938.009 816.51 937.625 816.3 937.295C816.095 936.96 815.805 936.699 815.43 936.511C815.061 936.324 814.629 936.23 814.135 936.23C813.635 936.23 813.178 936.321 812.763 936.503C812.348 936.679 812.016 936.932 811.766 937.261C811.516 937.591 811.382 937.977 811.365 938.42H807.828C807.845 937.415 808.132 936.528 808.689 935.761C809.246 934.994 809.996 934.395 810.939 933.963C811.888 933.526 812.959 933.307 814.152 933.307C815.357 933.307 816.411 933.526 817.314 933.963C818.217 934.401 818.919 934.991 819.419 935.736C819.925 936.474 820.175 937.304 820.169 938.224C820.175 939.202 819.871 940.017 819.257 940.67C818.649 941.324 817.857 941.739 816.879 941.915V942.051C818.163 942.216 819.141 942.662 819.811 943.389C820.487 944.111 820.822 945.014 820.817 946.099C820.822 947.094 820.536 947.977 819.956 948.75C819.382 949.523 818.589 950.131 817.578 950.574C816.567 951.017 815.408 951.239 814.101 951.239ZM838.722 939.656H834.989C834.921 939.173 834.782 938.744 834.572 938.369C834.362 937.989 834.092 937.665 833.762 937.398C833.433 937.131 833.052 936.926 832.62 936.784C832.194 936.642 831.731 936.571 831.231 936.571C830.327 936.571 829.54 936.795 828.87 937.244C828.2 937.687 827.68 938.335 827.31 939.188C826.941 940.034 826.756 941.062 826.756 942.273C826.756 943.517 826.941 944.562 827.31 945.409C827.685 946.256 828.208 946.895 828.879 947.327C829.549 947.759 830.325 947.974 831.205 947.974C831.7 947.974 832.157 947.909 832.577 947.778C833.004 947.648 833.381 947.457 833.711 947.207C834.04 946.952 834.313 946.642 834.529 946.278C834.751 945.915 834.904 945.5 834.989 945.034L838.722 945.051C838.626 945.852 838.384 946.625 837.998 947.369C837.617 948.108 837.103 948.77 836.455 949.355C835.813 949.935 835.046 950.395 834.154 950.736C833.268 951.071 832.265 951.239 831.146 951.239C829.589 951.239 828.197 950.886 826.969 950.182C825.748 949.477 824.782 948.457 824.072 947.122C823.367 945.787 823.015 944.17 823.015 942.273C823.015 940.369 823.373 938.75 824.089 937.415C824.805 936.08 825.776 935.062 827.004 934.364C828.231 933.659 829.612 933.307 831.146 933.307C832.157 933.307 833.094 933.449 833.958 933.733C834.827 934.017 835.597 934.432 836.268 934.977C836.938 935.517 837.484 936.179 837.904 936.963C838.33 937.747 838.603 938.645 838.722 939.656Z" fill="white"/>
<rect width="200" height="200" transform="translate(920 842)" fill="#3C3C3C"/>
<path d="M977.366 951.239C976.094 951.239 974.96 951.02 973.966 950.582C972.977 950.139 972.196 949.531 971.622 948.759C971.054 947.98 970.761 947.082 970.744 946.065H974.46C974.483 946.491 974.622 946.866 974.878 947.19C975.139 947.509 975.486 947.756 975.918 947.932C976.349 948.108 976.835 948.196 977.375 948.196C977.938 948.196 978.435 948.097 978.866 947.898C979.298 947.699 979.636 947.423 979.881 947.071C980.125 946.719 980.247 946.312 980.247 945.852C980.247 945.386 980.116 944.974 979.855 944.616C979.599 944.253 979.23 943.969 978.747 943.764C978.27 943.56 977.702 943.457 977.043 943.457H975.415V940.747H977.043C977.599 940.747 978.091 940.651 978.517 940.457C978.949 940.264 979.284 939.997 979.523 939.656C979.761 939.31 979.881 938.906 979.881 938.446C979.881 938.009 979.776 937.625 979.565 937.295C979.361 936.96 979.071 936.699 978.696 936.511C978.327 936.324 977.895 936.23 977.401 936.23C976.901 936.23 976.443 936.321 976.028 936.503C975.614 936.679 975.281 936.932 975.031 937.261C974.781 937.591 974.648 937.977 974.631 938.42H971.094C971.111 937.415 971.398 936.528 971.955 935.761C972.511 934.994 973.261 934.395 974.205 933.963C975.153 933.526 976.224 933.307 977.418 933.307C978.622 933.307 979.676 933.526 980.58 933.963C981.483 934.401 982.185 934.991 982.685 935.736C983.19 936.474 983.44 937.304 983.435 938.224C983.44 939.202 983.136 940.017 982.523 940.67C981.915 941.324 981.122 941.739 980.145 941.915V942.051C981.429 942.216 982.406 942.662 983.077 943.389C983.753 944.111 984.088 945.014 984.082 946.099C984.088 947.094 983.801 947.977 983.222 948.75C982.648 949.523 981.855 950.131 980.844 950.574C979.832 951.017 978.673 951.239 977.366 951.239ZM1001.99 939.656H998.255C998.187 939.173 998.048 938.744 997.837 938.369C997.627 937.989 997.357 937.665 997.028 937.398C996.698 937.131 996.317 936.926 995.886 936.784C995.46 936.642 994.996 936.571 994.496 936.571C993.593 936.571 992.806 936.795 992.136 937.244C991.465 937.687 990.945 938.335 990.576 939.188C990.207 940.034 990.022 941.062 990.022 942.273C990.022 943.517 990.207 944.562 990.576 945.409C990.951 946.256 991.474 946.895 992.144 947.327C992.815 947.759 993.59 947.974 994.471 947.974C994.965 947.974 995.423 947.909 995.843 947.778C996.269 947.648 996.647 947.457 996.977 947.207C997.306 946.952 997.579 946.642 997.795 946.278C998.016 945.915 998.17 945.5 998.255 945.034L1001.99 945.051C1001.89 945.852 1001.65 946.625 1001.26 947.369C1000.88 948.108 1000.37 948.77 999.721 949.355C999.079 949.935 998.312 950.395 997.42 950.736C996.533 951.071 995.531 951.239 994.411 951.239C992.854 951.239 991.462 950.886 990.235 950.182C989.013 949.477 988.048 948.457 987.337 947.122C986.633 945.787 986.281 944.17 986.281 942.273C986.281 940.369 986.638 938.75 987.354 937.415C988.07 936.08 989.042 935.062 990.269 934.364C991.496 933.659 992.877 933.307 994.411 933.307C995.423 933.307 996.36 933.449 997.224 933.733C998.093 934.017 998.863 934.432 999.533 934.977C1000.2 935.517 1000.75 936.179 1001.17 936.963C1001.6 937.747 1001.87 938.645 1001.99 939.656ZM1010.73 951.239C1009.46 951.239 1008.33 951.02 1007.33 950.582C1006.34 950.139 1005.56 949.531 1004.99 948.759C1004.42 947.98 1004.13 947.082 1004.11 946.065H1007.83C1007.85 946.491 1007.99 946.866 1008.25 947.19C1008.51 947.509 1008.85 947.756 1009.28 947.932C1009.72 948.108 1010.2 948.196 1010.74 948.196C1011.3 948.196 1011.8 948.097 1012.23 947.898C1012.67 947.699 1013 947.423 1013.25 947.071C1013.49 946.719 1013.61 946.312 1013.61 945.852C1013.61 945.386 1013.48 944.974 1013.22 944.616C1012.97 944.253 1012.6 943.969 1012.11 943.764C1011.64 943.56 1011.07 943.457 1010.41 943.457H1008.78V940.747H1010.41C1010.97 940.747 1011.46 940.651 1011.88 940.457C1012.32 940.264 1012.65 939.997 1012.89 939.656C1013.13 939.31 1013.25 938.906 1013.25 938.446C1013.25 938.009 1013.14 937.625 1012.93 937.295C1012.73 936.96 1012.44 936.699 1012.06 936.511C1011.69 936.324 1011.26 936.23 1010.77 936.23C1010.27 936.23 1009.81 936.321 1009.4 936.503C1008.98 936.679 1008.65 936.932 1008.4 937.261C1008.15 937.591 1008.01 937.977 1008 938.42H1004.46C1004.48 937.415 1004.76 936.528 1005.32 935.761C1005.88 934.994 1006.63 934.395 1007.57 933.963C1008.52 933.526 1009.59 933.307 1010.78 933.307C1011.99 933.307 1013.04 933.526 1013.95 933.963C1014.85 934.401 1015.55 934.991 1016.05 935.736C1016.56 936.474 1016.81 937.304 1016.8 938.224C1016.81 939.202 1016.5 940.017 1015.89 940.67C1015.28 941.324 1014.49 941.739 1013.51 941.915V942.051C1014.8 942.216 1015.77 942.662 1016.44 943.389C1017.12 944.111 1017.46 945.014 1017.45 946.099C1017.46 947.094 1017.17 947.977 1016.59 948.75C1016.01 949.523 1015.22 950.131 1014.21 950.574C1013.2 951.017 1012.04 951.239 1010.73 951.239ZM1035.36 939.656H1031.62C1031.55 939.173 1031.41 938.744 1031.2 938.369C1030.99 937.989 1030.72 937.665 1030.39 937.398C1030.07 937.131 1029.68 936.926 1029.25 936.784C1028.83 936.642 1028.36 936.571 1027.86 936.571C1026.96 936.571 1026.17 936.795 1025.5 937.244C1024.83 937.687 1024.31 938.335 1023.94 939.188C1023.57 940.034 1023.39 941.062 1023.39 942.273C1023.39 943.517 1023.57 944.562 1023.94 945.409C1024.32 946.256 1024.84 946.895 1025.51 947.327C1026.18 947.759 1026.96 947.974 1027.84 947.974C1028.33 947.974 1028.79 947.909 1029.21 947.778C1029.64 947.648 1030.01 947.457 1030.34 947.207C1030.67 946.952 1030.95 946.642 1031.16 946.278C1031.38 945.915 1031.54 945.5 1031.62 945.034L1035.36 945.051C1035.26 945.852 1035.02 946.625 1034.63 947.369C1034.25 948.108 1033.74 948.77 1033.09 949.355C1032.45 949.935 1031.68 950.395 1030.79 950.736C1029.9 951.071 1028.9 951.239 1027.78 951.239C1026.22 951.239 1024.83 950.886 1023.6 950.182C1022.38 949.477 1021.41 948.457 1020.7 947.122C1020 945.787 1019.65 944.17 1019.65 942.273C1019.65 940.369 1020.01 938.75 1020.72 937.415C1021.44 936.08 1022.41 935.062 1023.64 934.364C1024.86 933.659 1026.24 933.307 1027.78 933.307C1028.79 933.307 1029.73 933.449 1030.59 933.733C1031.46 934.017 1032.23 934.432 1032.9 934.977C1033.57 935.517 1034.12 936.179 1034.54 936.963C1034.96 937.747 1035.24 938.645 1035.36 939.656ZM1044.1 951.239C1042.83 951.239 1041.69 951.02 1040.7 950.582C1039.71 950.139 1038.93 949.531 1038.36 948.759C1037.79 947.98 1037.5 947.082 1037.48 946.065H1041.19C1041.22 946.491 1041.36 946.866 1041.61 947.19C1041.87 947.509 1042.22 947.756 1042.65 947.932C1043.08 948.108 1043.57 948.196 1044.11 948.196C1044.67 948.196 1045.17 948.097 1045.6 947.898C1046.03 947.699 1046.37 947.423 1046.62 947.071C1046.86 946.719 1046.98 946.312 1046.98 945.852C1046.98 945.386 1046.85 944.974 1046.59 944.616C1046.33 944.253 1045.96 943.969 1045.48 943.764C1045 943.56 1044.44 943.457 1043.78 943.457H1042.15V940.747H1043.78C1044.33 940.747 1044.83 940.651 1045.25 940.457C1045.68 940.264 1046.02 939.997 1046.26 939.656C1046.5 939.31 1046.62 938.906 1046.62 938.446C1046.62 938.009 1046.51 937.625 1046.3 937.295C1046.1 936.96 1045.81 936.699 1045.43 936.511C1045.06 936.324 1044.63 936.23 1044.13 936.23C1043.63 936.23 1043.18 936.321 1042.76 936.503C1042.35 936.679 1042.02 936.932 1041.77 937.261C1041.52 937.591 1041.38 937.977 1041.37 938.42H1037.83C1037.85 937.415 1038.13 936.528 1038.69 935.761C1039.25 934.994 1040 934.395 1040.94 933.963C1041.89 933.526 1042.96 933.307 1044.15 933.307C1045.36 933.307 1046.41 933.526 1047.31 933.963C1048.22 934.401 1048.92 934.991 1049.42 935.736C1049.92 936.474 1050.17 937.304 1050.17 938.224C1050.17 939.202 1049.87 940.017 1049.26 940.67C1048.65 941.324 1047.86 941.739 1046.88 941.915V942.051C1048.16 942.216 1049.14 942.662 1049.81 943.389C1050.49 944.111 1050.82 945.014 1050.82 946.099C1050.82 947.094 1050.54 947.977 1049.96 948.75C1049.38 949.523 1048.59 950.131 1047.58 950.574C1046.57 951.017 1045.41 951.239 1044.1 951.239ZM1068.72 939.656H1064.99C1064.92 939.173 1064.78 938.744 1064.57 938.369C1064.36 937.989 1064.09 937.665 1063.76 937.398C1063.43 937.131 1063.05 936.926 1062.62 936.784C1062.19 936.642 1061.73 936.571 1061.23 936.571C1060.33 936.571 1059.54 936.795 1058.87 937.244C1058.2 937.687 1057.68 938.335 1057.31 939.188C1056.94 940.034 1056.76 941.062 1056.76 942.273C1056.76 943.517 1056.94 944.562 1057.31 945.409C1057.69 946.256 1058.21 946.895 1058.88 947.327C1059.55 947.759 1060.32 947.974 1061.21 947.974C1061.7 947.974 1062.16 947.909 1062.58 947.778C1063 947.648 1063.38 947.457 1063.71 947.207C1064.04 946.952 1064.31 946.642 1064.53 946.278C1064.75 945.915 1064.9 945.5 1064.99 945.034L1068.72 945.051C1068.63 945.852 1068.38 946.625 1068 947.369C1067.62 948.108 1067.1 948.77 1066.46 949.355C1065.81 949.935 1065.05 950.395 1064.15 950.736C1063.27 951.071 1062.26 951.239 1061.15 951.239C1059.59 951.239 1058.2 950.886 1056.97 950.182C1055.75 949.477 1054.78 948.457 1054.07 947.122C1053.37 945.787 1053.01 944.17 1053.01 942.273C1053.01 940.369 1053.37 938.75 1054.09 937.415C1054.8 936.08 1055.78 935.062 1057 934.364C1058.23 933.659 1059.61 933.307 1061.15 933.307C1062.16 933.307 1063.09 933.449 1063.96 933.733C1064.83 934.017 1065.6 934.432 1066.27 934.977C1066.94 935.517 1067.48 936.179 1067.9 936.963C1068.33 937.747 1068.6 938.645 1068.72 939.656Z" fill="white"/>
<defs>
<linearGradient id="paint0_linear_310_12028" x1="200" y1="0" x2="0" y2="200" gradientUnits="userSpaceOnUse">
<stop stop-color="#50A1F4"/>
<stop offset="1" stop-color="#E55AF2"/>
</linearGradient>
<linearGradient id="paint1_linear_310_12028" x1="200" y1="0" x2="0" y2="200" gradientUnits="userSpaceOnUse">
<stop stop-color="#50A1F4"/>
<stop offset="1" stop-color="#5AF2D8"/>
</linearGradient>
</defs>
</svg>
