<svg width="3914" height="806" viewBox="0 0 3914 806" fill="none" xmlns="http://www.w3.org/2000/svg">
<g clip-path="url(#clip0_310_6897)">
<path fill-rule="evenodd" clip-rule="evenodd" d="M382.431 7.35591L661.423 168.441L533.15 242.583C501.535 260.831 465.336 260.831 433.817 242.583L369.251 205.321C360.846 200.448 351.199 200.448 342.698 205.321L191.407 292.743C183.002 297.615 178.13 306.023 178.13 315.768V490.612C178.13 500.357 183.002 508.765 191.407 513.638L342.698 601.06C351.103 605.932 360.846 605.932 369.251 601.06L520.542 513.638C528.947 508.765 533.818 500.357 533.818 490.612V462.713L711.758 359.909V578.129C711.758 597.62 702.111 614.34 685.205 624.085L382.431 798.929C365.526 808.674 346.232 808.674 329.327 798.929L26.5524 623.894C9.64675 614.149 0 597.429 0 577.938V228.156C0 208.665 9.64675 191.945 26.5524 182.199L329.327 7.35591C346.232 -2.38947 365.526 -2.38947 382.431 7.35591Z" fill="#3692F5"/>
<path fill-rule="evenodd" clip-rule="evenodd" d="M571.451 263.316L711.759 330.865L487.687 464.052C473.551 472.459 457.219 473.033 443.083 464.72L324.934 395.643C321.496 393.637 319.49 390.101 319.585 386.089C319.585 382.076 321.782 378.636 325.316 376.725L534.106 264.749C546.141 258.348 559.321 257.297 571.642 263.22" fill="#AFDA6C"/>
<path fill-rule="evenodd" clip-rule="evenodd" d="M2794.6 551.76H2535.66C2503.76 551.76 2477.69 577.843 2477.69 609.754C2477.69 641.666 2503.76 667.749 2535.66 667.749H2794.6C2826.5 667.749 2852.57 641.666 2852.57 609.754C2852.57 577.843 2826.5 551.76 2794.6 551.76Z" fill="#3692F5"/>
<path fill-rule="evenodd" clip-rule="evenodd" d="M2794.6 345.006H2535.66C2503.76 345.006 2477.69 371.089 2477.69 403C2477.69 434.912 2503.76 460.995 2535.66 460.995H2794.6C2826.5 460.995 2852.57 434.912 2852.57 403C2852.57 371.089 2826.5 345.006 2794.6 345.006Z" fill="#3692F5"/>
<path fill-rule="evenodd" clip-rule="evenodd" d="M2794.6 138.25H2535.66C2503.76 138.25 2477.69 164.333 2477.69 196.245C2477.69 228.156 2503.76 254.239 2535.66 254.239H2794.6C2826.5 254.239 2852.57 228.156 2852.57 196.245C2852.57 164.333 2826.5 138.25 2794.6 138.25Z" fill="#3692F5"/>
<path d="M3719.16 480.39L3674.55 339.082L3626.99 480.39H3719.16ZM3914 667.845H3824.12C3796.14 667.845 3772.45 650.36 3764.14 623.704L3753.35 589.022H3590.5L3578.75 624.755C3570.06 650.934 3546.66 667.845 3519.15 667.845H3428.51L3606.07 179.621C3615.24 154.302 3638.16 138.25 3665.1 138.25H3721.45L3914 667.845ZM3215.61 346.152C3226.03 335.451 3231.28 322.935 3231.28 308.603C3231.28 294.272 3226.03 281.66 3215.61 271.055C3205.2 260.354 3191.55 255.099 3174.74 255.099H3101.09V362.203H3174.74C3191.55 362.203 3205.2 356.853 3215.61 346.247V346.152ZM3389.54 667.845H3278.27C3253.44 667.845 3232.23 654.373 3221.54 632.016L3144.94 470.74H3101.09V667.845H3033.76C2999.18 667.845 2970.91 639.66 2970.91 604.978V138.25H3180.56C3236.53 138.25 3280.66 154.97 3312.94 188.41C3345.13 221.85 3361.27 261.883 3361.27 308.508C3361.27 341.757 3352.87 370.133 3335.96 393.637C3319.05 417.236 3298.81 434.911 3275.02 446.854L3389.54 667.749V667.845ZM2359.25 667.845H2291.91C2257.34 667.845 2229.07 639.66 2229.07 604.978V414.178L2172.05 513.543C2160.59 533.607 2140.72 545.072 2117.6 545.072H2107.1C2083.98 545.072 2064.12 533.607 2052.66 513.543L1995.64 414.178V667.845H1928.3C1893.72 667.845 1865.45 639.66 1865.45 604.978V138.25H1954.85C1979.11 138.25 1999.84 150.958 2010.82 172.55L2112.35 371.757L2213.88 172.55C2224.86 150.958 2245.59 138.25 2269.85 138.25H2359.25V667.845ZM1785.79 138.25L1625.91 452.109V667.845H1558.57C1524 667.845 1495.72 639.66 1495.72 604.978V452.109L1335.84 138.25H1437.65C1462.77 138.25 1484.26 152.009 1494.67 174.843L1561.15 319.304L1627.24 176.181C1637.94 152.964 1659.24 138.346 1684.84 138.346H1785.6L1785.79 138.25ZM1280.63 436.535C1280.63 480.198 1276.62 515.358 1268.69 542.11C1260.76 568.862 1246.91 592.461 1227.05 612.812C1188.84 652.462 1137.55 672.335 1073.08 672.335C1014.63 672.335 965.535 652.462 925.897 612.812C915.009 601.92 905.935 589.5 898.772 575.646C891.608 561.792 886.259 549.658 882.821 539.244C879.383 528.83 876.708 513.734 874.989 493.861C873.27 473.988 872.41 460.039 872.41 451.822V354.368C872.41 346.152 873.27 332.203 874.989 312.33C876.708 292.457 879.287 277.361 882.821 266.947C886.259 256.533 891.608 244.399 898.772 230.545C905.935 216.691 915.009 204.271 925.897 193.379C965.535 153.728 1014.63 133.855 1073.08 133.855C1136.02 133.855 1184.35 150.671 1218.07 184.398C1251.79 218.124 1272.32 259.781 1279.77 309.368H1190.18C1167.83 309.368 1148.63 298.667 1136.79 279.654C1132.87 273.348 1128.38 268.093 1123.32 263.985C1111.67 254.526 1094.95 249.845 1073.08 249.845C1051.21 249.845 1033.64 257.488 1021.79 272.87C1014.82 281.756 1009.85 294.559 1006.89 311.183C1003.93 327.808 1002.4 358.381 1002.4 403C1002.4 447.618 1003.93 478.383 1006.89 495.199C1009.85 512.014 1014.82 524.913 1021.79 533.894C1033.16 548.798 1050.25 556.251 1073.08 556.251C1098.87 556.251 1118.16 549.276 1131.06 535.422C1144.43 522.046 1151.12 503.224 1151.12 478.861V471.409H1135.83C1101.26 471.409 1072.99 443.223 1072.99 408.541V362.776H1280.44V436.44L1280.63 436.535Z" fill="#3C3C3C"/>
</g>
<defs>
<clipPath id="clip0_310_6897">
<rect width="3914" height="806" fill="white"/>
</clipPath>
</defs>
</svg>
