<svg width="661" height="731" viewBox="0 0 661 731" fill="none" xmlns="http://www.w3.org/2000/svg">
<rect width="661" height="731" fill="black"/>
<g filter="url(#filter0_d_915_11727)">
<path fill-rule="evenodd" clip-rule="evenodd" d="M361.532 28.2284L598.286 165.498L489.433 228.678C462.604 244.229 431.886 244.229 405.138 228.678L350.347 196.925C343.215 192.773 335.028 192.773 327.815 196.925L199.428 271.422C192.296 275.574 188.162 282.739 188.162 291.044V440.038C188.162 448.342 192.296 455.507 199.428 459.659L327.815 534.156C334.947 538.308 343.215 538.308 350.347 534.156L478.734 459.659C485.866 455.507 490 448.342 490 440.038V416.264L641 328.659V514.616C641 531.225 632.814 545.473 618.468 553.778L361.532 702.772C347.186 711.076 330.814 711.076 316.468 702.772L59.5325 553.615C45.1863 545.31 37 531.062 37 514.453V216.384C37 199.775 45.1863 185.527 59.5325 177.222L316.468 28.2284C330.814 19.9239 347.186 19.9239 361.532 28.2284Z" fill="#D9D9D9" fill-opacity="0.08" shape-rendering="crispEdges"/>
<path fill-rule="evenodd" clip-rule="evenodd" d="M521.864 246.41L641 303.938L450.739 417.368C438.736 424.529 424.868 425.017 412.865 417.938L312.544 359.107C309.625 357.398 307.922 354.388 308.003 350.97C308.003 347.552 309.868 344.623 312.869 342.996L490.154 247.63C500.372 242.178 511.564 241.283 522.026 246.328" fill="#D9D9D9" fill-opacity="0.08" shape-rendering="crispEdges"/>
</g>
<mask id="mask0_915_11727" style="mask-type:alpha" maskUnits="userSpaceOnUse" x="37" y="22" width="604" height="687">
<path fill-rule="evenodd" clip-rule="evenodd" d="M361.532 28.2284L598.286 165.498L489.433 228.678C462.604 244.229 431.886 244.229 405.138 228.678L350.347 196.925C343.215 192.773 335.028 192.773 327.815 196.925L199.428 271.422C192.296 275.574 188.162 282.739 188.162 291.044V440.038C188.162 448.342 192.296 455.507 199.428 459.659L327.815 534.156C334.947 538.308 343.215 538.308 350.347 534.156L478.734 459.659C485.866 455.507 490 448.342 490 440.038V416.264L641 328.659V514.616C641 531.225 632.814 545.473 618.468 553.778L361.532 702.772C347.186 711.076 330.814 711.076 316.468 702.772L59.5325 553.615C45.1863 545.31 37 531.062 37 514.453V216.384C37 199.775 45.1863 185.527 59.5325 177.222L316.468 28.2284C330.814 19.9239 347.186 19.9239 361.532 28.2284Z" fill="#D9D9D9"/>
<path fill-rule="evenodd" clip-rule="evenodd" d="M521.864 246.41L641 303.938L450.739 417.368C438.736 424.529 424.868 425.017 412.865 417.938L312.544 359.107C309.625 357.398 307.922 354.388 308.003 350.97C308.003 347.552 309.868 344.623 312.869 342.996L490.154 247.63C500.372 242.178 511.564 241.283 522.026 246.328" fill="#D9D9D9"/>
</mask>
<g mask="url(#mask0_915_11727)">
<g filter="url(#filter1_f_915_11727)">
<path fill-rule="evenodd" clip-rule="evenodd" d="M282.05 344.741L298.47 350.801L287.06 334.061L267.27 304.641L228.89 312.601L207 317.041L224.12 323.361L221.85 330.251L220.13 337.081L218.64 343.991L217.48 350.761L217.02 357.781L216.64 364.571L216.74 371.531L217.16 378.351L218.13 385.101L219.42 391.711L221.03 398.171L222.88 404.711L225.37 410.961L227.86 417.211L231 423.161L234.13 429.121L246.63 391.631L282.78 388.981L280.97 383.781L279.48 378.431L278.55 373.021L278.25 367.321L278.19 361.701L278.92 356.111L280.21 350.451L282.05 344.741Z" fill="#AFDA6C"/>
<path fill-rule="evenodd" clip-rule="evenodd" d="M329.019 305.58L331.949 322.91L340.749 304.84L356.319 272.75L330.119 243.36L315.379 227L318.599 244.97L311.759 246.18L305.219 248.03L298.819 250.2L292.429 252.37L286.319 255.18L280.139 258.23L274.329 261.68L268.679 265.45L263.169 269.55L258.039 274.05L252.909 278.56L248.079 283.7L243.719 289.02L239.599 294.43L235.529 300.39L231.939 306.52L270.629 298.42L291.039 328.34L294.729 324.1L298.899 320.04L303.119 316.54L307.959 313.53L312.719 310.75L318.089 308.47L323.439 306.98L329.019 305.58Z" fill="#3692F5"/>
<path fill-rule="evenodd" clip-rule="evenodd" d="M440.75 296.711L447.66 275.811L433.53 287.381L428.49 281.531L422.82 275.971L416.97 270.881L410.56 265.851L403.9 261.531L396.83 257.581L389.43 253.791L381.78 250.701L376.3 248.941L370.58 247.101L365.16 245.901L359.42 244.851L353.83 244.121L348.24 243.381L342.71 243.211L337.09 243.271L363.28 272.651L347.54 305.221L350.76 305.871L353.98 306.531L357.35 307.501L360.49 308.401L364.39 310.101L367.97 311.961L371.55 313.811L374.72 316.051L377.8 318.521L380.89 320.991L383.57 323.841L386.24 326.691L372.76 337.971L392.97 336.641L428.33 333.961L440.75 296.711Z" fill="#9747FF"/>
<path fill-rule="evenodd" clip-rule="evenodd" d="M449.67 419.12L471.56 414.67L454.44 408.35L456.72 401.47L458.44 394.64L459.92 387.73L461.17 380.73L461.78 374.02L462.01 366.91L461.83 360.18L461.41 353.37L460.44 346.61L459.14 340.01L457.53 333.55L455.68 327L453.43 320.84L450.7 314.51L447.8 308.64L444.43 302.6L431.93 340.09L395.78 342.74L397.59 347.94L399.08 353.28L400.02 358.69L400.31 364.4L400.37 370.01L399.64 375.61L398.35 381.26L396.74 387.06L380.09 380.92L391.5 397.65L411.29 427.07L449.67 419.12Z" fill="#FF2727"/>
<path fill-rule="evenodd" clip-rule="evenodd" d="M360.2 486.83L366.89 485.3L373.35 483.69L379.98 481.6L386.23 479.11L392.33 476.3L398.51 473.26L404.32 469.8L409.98 466.03L415.48 461.93L420.76 457.75L425.74 452.92L430.48 448.01L434.84 442.69L439.05 437.05L443.03 431.33L446.63 425.19L407.93 433.29L387.61 403.15L383.83 407.61L379.99 411.52L375.44 415.18L370.84 418.27L365.85 420.96L360.56 423.01L355.13 424.73L349.63 425.91L346.62 408.8L337.82 426.87L322.33 458.73L348.53 488.12L363.19 504.72L360.2 486.83Z" fill="#F8971D"/>
<path fill-rule="evenodd" clip-rule="evenodd" d="M292.32 405.02L305.81 393.74L285.83 395.17L250.32 397.52L237.9 434.77L230.91 455.91L245.04 444.33L250.07 450.19L255.75 455.75L261.83 460.92L268.09 465.63L274.67 470.19L281.74 474.13L289.22 477.69L296.87 480.78L302.5 482.86L308.07 484.38L313.4 485.82L319.14 486.87L324.74 487.6L330.41 488.1L335.86 488.51L341.48 488.45L315.28 459.06L331.03 426.5L327.81 425.84L324.58 425.19L321.45 424.3L318.16 423.09L314.41 421.7L310.6 419.76L307.1 417.67L303.85 415.67L300.76 413.2L297.67 410.73L295 407.87L292.32 405.02Z" fill="#FFD662"/>
</g>
</g>
<g filter="url(#filter2_f_915_11727)">
<path fill-rule="evenodd" clip-rule="evenodd" d="M282.05 344.741L298.47 350.801L287.06 334.061L267.27 304.641L228.89 312.601L207 317.041L224.12 323.361L221.85 330.251L220.13 337.081L218.64 343.991L217.48 350.761L217.02 357.781L216.64 364.571L216.74 371.531L217.16 378.351L218.13 385.101L219.42 391.711L221.03 398.171L222.88 404.711L225.37 410.961L227.86 417.211L231 423.161L234.13 429.121L246.63 391.631L282.78 388.981L280.97 383.781L279.48 378.431L278.55 373.021L278.25 367.321L278.19 361.701L278.92 356.111L280.21 350.451L282.05 344.741Z" fill="#AFDA6C"/>
<path fill-rule="evenodd" clip-rule="evenodd" d="M329.019 305.58L331.949 322.91L340.749 304.84L356.319 272.75L330.119 243.36L315.379 227L318.599 244.97L311.759 246.18L305.219 248.03L298.819 250.2L292.429 252.37L286.319 255.18L280.139 258.23L274.329 261.68L268.679 265.45L263.169 269.55L258.039 274.05L252.909 278.56L248.079 283.7L243.719 289.02L239.599 294.43L235.529 300.39L231.939 306.52L270.629 298.42L291.039 328.34L294.729 324.1L298.899 320.04L303.119 316.54L307.959 313.53L312.719 310.75L318.089 308.47L323.439 306.98L329.019 305.58Z" fill="#3692F5"/>
<path fill-rule="evenodd" clip-rule="evenodd" d="M440.75 296.711L447.66 275.811L433.53 287.381L428.49 281.531L422.82 275.971L416.97 270.881L410.56 265.851L403.9 261.531L396.83 257.581L389.43 253.791L381.78 250.701L376.3 248.941L370.58 247.101L365.16 245.901L359.42 244.851L353.83 244.121L348.24 243.381L342.71 243.211L337.09 243.271L363.28 272.651L347.54 305.221L350.76 305.871L353.98 306.531L357.35 307.501L360.49 308.401L364.39 310.101L367.97 311.961L371.55 313.811L374.72 316.051L377.8 318.521L380.89 320.991L383.57 323.841L386.24 326.691L372.76 337.971L392.97 336.641L428.33 333.961L440.75 296.711Z" fill="#9747FF"/>
<g filter="url(#filter3_d_915_11727)">
<path fill-rule="evenodd" clip-rule="evenodd" d="M449.67 419.12L471.56 414.67L454.44 408.35L456.72 401.47L458.44 394.64L459.92 387.73L461.17 380.73L461.78 374.02L462.01 366.91L461.83 360.18L461.41 353.37L460.44 346.61L459.14 340.01L457.53 333.55L455.68 327L453.43 320.84L450.7 314.51L447.8 308.64L444.43 302.6L431.93 340.09L395.78 342.74L397.59 347.94L399.08 353.28L400.02 358.69L400.31 364.4L400.37 370.01L399.64 375.61L398.35 381.26L396.74 387.06L380.09 380.92L391.5 397.65L411.29 427.07L449.67 419.12Z" fill="#FF2727"/>
</g>
<path fill-rule="evenodd" clip-rule="evenodd" d="M360.2 486.83L366.89 485.3L373.35 483.69L379.98 481.6L386.23 479.11L392.33 476.3L398.51 473.26L404.32 469.8L409.98 466.03L415.48 461.93L420.76 457.75L425.74 452.92L430.48 448.01L434.84 442.69L439.05 437.05L443.03 431.33L446.63 425.19L407.93 433.29L387.61 403.15L383.83 407.61L379.99 411.52L375.44 415.18L370.84 418.27L365.85 420.96L360.56 423.01L355.13 424.73L349.63 425.91L346.62 408.8L337.82 426.87L322.33 458.73L348.53 488.12L363.19 504.72L360.2 486.83Z" fill="#F8971D"/>
<path fill-rule="evenodd" clip-rule="evenodd" d="M292.32 405.02L305.81 393.74L285.83 395.17L250.32 397.52L237.9 434.77L230.91 455.91L245.04 444.33L250.07 450.19L255.75 455.75L261.83 460.92L268.09 465.63L274.67 470.19L281.74 474.13L289.22 477.69L296.87 480.78L302.5 482.86L308.07 484.38L313.4 485.82L319.14 486.87L324.74 487.6L330.41 488.1L335.86 488.51L341.48 488.45L315.28 459.06L331.03 426.5L327.81 425.84L324.58 425.19L321.45 424.3L318.16 423.09L314.41 421.7L310.6 419.76L307.1 417.67L303.85 415.67L300.76 413.2L297.67 410.73L295 407.87L292.32 405.02Z" fill="#FFD662"/>
</g>
<path fill-rule="evenodd" clip-rule="evenodd" d="M282.05 344.741L298.47 350.801L287.06 334.061L267.27 304.641L228.89 312.601L207 317.041L224.12 323.361L221.85 330.251L220.13 337.081L218.64 343.991L217.48 350.761L217.02 357.781L216.64 364.571L216.74 371.531L217.16 378.351L218.13 385.101L219.42 391.711L221.03 398.171L222.88 404.711L225.37 410.961L227.86 417.211L231 423.161L234.13 429.121L246.63 391.631L282.78 388.981L280.97 383.781L279.48 378.431L278.55 373.021L278.25 367.321L278.19 361.701L278.92 356.111L280.21 350.451L282.05 344.741Z" fill="#AFDA6C"/>
<path fill-rule="evenodd" clip-rule="evenodd" d="M329.019 305.58L331.949 322.91L340.749 304.84L356.319 272.75L330.119 243.36L315.379 227L318.599 244.97L311.759 246.18L305.219 248.03L298.819 250.2L292.429 252.37L286.319 255.18L280.139 258.23L274.329 261.68L268.679 265.45L263.169 269.55L258.039 274.05L252.909 278.56L248.079 283.7L243.719 289.02L239.599 294.43L235.529 300.39L231.939 306.52L270.629 298.42L291.039 328.34L294.729 324.1L298.899 320.04L303.119 316.54L307.959 313.53L312.719 310.75L318.089 308.47L323.439 306.98L329.019 305.58Z" fill="#3692F5"/>
<path fill-rule="evenodd" clip-rule="evenodd" d="M440.75 296.711L447.66 275.811L433.53 287.381L428.49 281.531L422.82 275.971L416.97 270.881L410.56 265.851L403.9 261.531L396.83 257.581L389.43 253.791L381.78 250.701L376.3 248.941L370.58 247.101L365.16 245.901L359.42 244.851L353.83 244.121L348.24 243.381L342.71 243.211L337.09 243.271L363.28 272.651L347.54 305.221L350.76 305.871L353.98 306.531L357.35 307.501L360.49 308.401L364.39 310.101L367.97 311.961L371.55 313.811L374.72 316.051L377.8 318.521L380.89 320.991L383.57 323.841L386.24 326.691L372.76 337.971L392.97 336.641L428.33 333.961L440.75 296.711Z" fill="#9747FF"/>
<g filter="url(#filter4_d_915_11727)">
<path fill-rule="evenodd" clip-rule="evenodd" d="M449.67 419.12L471.56 414.67L454.44 408.35L456.72 401.47L458.44 394.64L459.92 387.73L461.17 380.73L461.78 374.02L462.01 366.91L461.83 360.18L461.41 353.37L460.44 346.61L459.14 340.01L457.53 333.55L455.68 327L453.43 320.84L450.7 314.51L447.8 308.64L444.43 302.6L431.93 340.09L395.78 342.74L397.59 347.94L399.08 353.28L400.02 358.69L400.31 364.4L400.37 370.01L399.64 375.61L398.35 381.26L396.74 387.06L380.09 380.92L391.5 397.65L411.29 427.07L449.67 419.12Z" fill="#FF2727"/>
</g>
<g filter="url(#filter5_d_915_11727)">
<path fill-rule="evenodd" clip-rule="evenodd" d="M341.343 345.872L355.454 354.064L348.966 357.834C347.367 358.763 345.536 358.763 343.942 357.834L340.676 355.939C340.251 355.692 339.763 355.692 339.333 355.939L331.681 360.385C331.256 360.633 331.01 361.061 331.01 361.556V370.448C331.01 370.944 331.256 371.372 331.681 371.619L339.333 376.065C339.758 376.313 340.251 376.313 340.676 376.065L348.329 371.619C348.754 371.372 349 370.944 349 370.448V369.03L358 363.801V374.899C358 375.89 357.512 376.741 356.657 377.236L341.343 386.128C340.488 386.624 339.512 386.624 338.657 386.128L323.343 377.227C322.488 376.731 322 375.881 322 374.889V357.101C322 356.11 322.488 355.259 323.343 354.764L338.657 345.872C339.512 345.376 340.488 345.376 341.343 345.872Z" fill="white"/>
<path fill-rule="evenodd" clip-rule="evenodd" d="M350.899 358.893L358 362.326L346.66 369.095C345.945 369.523 345.118 369.552 344.403 369.129L338.423 365.618C338.249 365.516 338.148 365.337 338.152 365.133C338.152 364.929 338.264 364.754 338.443 364.657L349.009 358.966C349.618 358.64 350.285 358.587 350.909 358.888" fill="white"/>
</g>
<path fill-rule="evenodd" clip-rule="evenodd" d="M360.2 486.83L366.89 485.3L373.35 483.69L379.98 481.6L386.23 479.11L392.33 476.3L398.51 473.26L404.32 469.8L409.98 466.03L415.48 461.93L420.76 457.75L425.74 452.92L430.48 448.01L434.84 442.69L439.05 437.05L443.03 431.33L446.63 425.19L407.93 433.29L387.61 403.15L383.83 407.61L379.99 411.52L375.44 415.18L370.84 418.27L365.85 420.96L360.56 423.01L355.13 424.73L349.63 425.91L346.62 408.8L337.82 426.87L322.33 458.73L348.53 488.12L363.19 504.72L360.2 486.83Z" fill="#F8971D"/>
<path fill-rule="evenodd" clip-rule="evenodd" d="M292.32 405.02L305.81 393.74L285.83 395.17L250.32 397.52L237.9 434.77L230.91 455.91L245.04 444.33L250.07 450.19L255.75 455.75L261.83 460.92L268.09 465.63L274.67 470.19L281.74 474.13L289.22 477.69L296.87 480.78L302.5 482.86L308.07 484.38L313.4 485.82L319.14 486.87L324.74 487.6L330.41 488.1L335.86 488.51L341.48 488.45L315.28 459.06L331.03 426.5L327.81 425.84L324.58 425.19L321.45 424.3L318.16 423.09L314.41 421.7L310.6 419.76L307.1 417.67L303.85 415.67L300.76 413.2L297.67 410.73L295 407.87L292.32 405.02Z" fill="#FFD662"/>
<path d="M291.333 286C291.333 287.473 292.527 288.667 294 288.667C295.473 288.667 296.667 287.473 296.667 286C296.667 284.527 295.473 283.333 294 283.333C292.527 283.333 291.333 284.527 291.333 286ZM202.803 247.46L205.647 248.678L206.041 247.759L203.197 246.54L202.803 247.46ZM211.334 251.116L217.022 253.553L217.416 252.634L211.728 250.197L211.334 251.116ZM222.709 255.991L228.397 258.428L228.791 257.509L223.103 255.072L222.709 255.991ZM234.084 260.866L239.772 263.303L240.166 262.384L234.478 259.947L234.084 260.866ZM245.459 265.741L251.147 268.178L251.541 267.259L245.853 264.822L245.459 265.741ZM256.834 270.616L262.522 273.053L262.916 272.134L257.228 269.697L256.834 270.616ZM268.209 275.491L273.897 277.928L274.291 277.009L268.603 274.572L268.209 275.491ZM279.584 280.366L285.272 282.803L285.666 281.884L279.978 279.447L279.584 280.366ZM290.959 285.241L293.803 286.46L294.197 285.54L291.353 284.322L290.959 285.241Z" fill="white"/>
<path d="M291.333 286C291.333 287.473 292.527 288.667 294 288.667C295.473 288.667 296.667 287.473 296.667 286C296.667 284.527 295.473 283.333 294 283.333C292.527 283.333 291.333 284.527 291.333 286ZM202.803 247.46L205.647 248.678L206.041 247.759L203.197 246.54L202.803 247.46ZM211.334 251.116L217.022 253.553L217.416 252.634L211.728 250.197L211.334 251.116ZM222.709 255.991L228.397 258.428L228.791 257.509L223.103 255.072L222.709 255.991ZM234.084 260.866L239.772 263.303L240.166 262.384L234.478 259.947L234.084 260.866ZM245.459 265.741L251.147 268.178L251.541 267.259L245.853 264.822L245.459 265.741ZM256.834 270.616L262.522 273.053L262.916 272.134L257.228 269.697L256.834 270.616ZM268.209 275.491L273.897 277.928L274.291 277.009L268.603 274.572L268.209 275.491ZM279.584 280.366L285.272 282.803L285.666 281.884L279.978 279.447L279.584 280.366ZM290.959 285.241L293.803 286.46L294.197 285.54L291.353 284.322L290.959 285.241Z" fill="white"/>
<path d="M291.333 441C291.333 442.473 292.527 443.667 294 443.667C295.473 443.667 296.667 442.473 296.667 441C296.667 439.527 295.473 438.333 294 438.333C292.527 438.333 291.333 439.527 291.333 441ZM229.854 505.854L231.869 503.838L231.162 503.131L229.146 505.146L229.854 505.854ZM235.9 499.807L239.932 495.775L239.225 495.068L235.193 499.1L235.9 499.807ZM243.963 491.744L247.994 487.713L247.287 487.006L243.256 491.037L243.963 491.744ZM252.025 483.682L256.057 479.65L255.35 478.943L251.318 482.975L252.025 483.682ZM260.088 475.619L264.119 471.588L263.412 470.881L259.381 474.912L260.088 475.619ZM268.15 467.557L272.182 463.525L271.475 462.818L267.443 466.85L268.15 467.557ZM276.213 459.494L280.244 455.463L279.537 454.756L275.506 458.787L276.213 459.494ZM284.275 451.432L288.307 447.4L287.6 446.693L283.568 450.725L284.275 451.432ZM292.338 443.369L294.354 441.354L293.646 440.646L291.631 442.662L292.338 443.369Z" fill="white"/>
<path d="M245.833 362C245.833 363.473 247.027 364.667 248.5 364.667C249.973 364.667 251.167 363.473 251.167 362C251.167 360.527 249.973 359.333 248.5 359.333C247.027 359.333 245.833 360.527 245.833 362ZM161.5 362.5H164.607V361.5H161.5V362.5ZM170.821 362.5H177.036V361.5H170.821V362.5ZM183.25 362.5H189.464V361.5H183.25V362.5ZM195.679 362.5H201.893V361.5H195.679V362.5ZM208.107 362.5H214.321V361.5H208.107V362.5ZM220.536 362.5H226.75V361.5H220.536V362.5ZM232.964 362.5H239.179V361.5H232.964V362.5ZM245.393 362.5H248.5V361.5H245.393V362.5Z" fill="white"/>
<path d="M431.667 362C431.667 363.473 430.473 364.667 429 364.667C427.527 364.667 426.333 363.473 426.333 362C426.333 360.527 427.527 359.333 429 359.333C430.473 359.333 431.667 360.527 431.667 362ZM516 362.5H512.893V361.5H516V362.5ZM506.679 362.5H500.464V361.5H506.679V362.5ZM494.25 362.5H488.036V361.5H494.25V362.5ZM481.821 362.5H475.607V361.5H481.821V362.5ZM469.393 362.5H463.179V361.5H469.393V362.5ZM456.964 362.5H450.75V361.5H456.964V362.5ZM444.536 362.5H438.321V361.5H444.536V362.5ZM432.107 362.5H429V361.5H432.107V362.5Z" fill="white"/>
<path d="M386.667 286C386.667 287.473 385.473 288.667 384 288.667C382.527 288.667 381.333 287.473 381.333 286C381.333 284.527 382.527 283.333 384 283.333C385.473 283.333 386.667 284.527 386.667 286ZM444.841 229.865L442.681 231.883L441.998 231.152L444.159 229.135L444.841 229.865ZM438.359 235.919L434.038 239.955L433.355 239.224L437.677 235.188L438.359 235.919ZM429.716 243.99L425.395 248.026L424.712 247.295L429.034 243.26L429.716 243.99ZM421.073 252.062L416.752 256.098L416.069 255.367L420.391 251.331L421.073 252.062ZM412.431 260.133L408.109 264.169L407.427 263.438L411.748 259.402L412.431 260.133ZM403.788 268.205L399.466 272.24L398.784 271.51L403.105 267.474L403.788 268.205ZM395.145 276.276L390.823 280.312L390.141 279.581L394.462 275.545L395.145 276.276ZM386.502 284.348L384.341 286.365L383.659 285.635L385.819 283.617L386.502 284.348Z" fill="white"/>
<path d="M386.667 286C386.667 287.473 385.473 288.667 384 288.667C382.527 288.667 381.333 287.473 381.333 286C381.333 284.527 382.527 283.333 384 283.333C385.473 283.333 386.667 284.527 386.667 286ZM444.841 229.865L442.681 231.883L441.998 231.152L444.159 229.135L444.841 229.865ZM438.359 235.919L434.038 239.955L433.355 239.224L437.677 235.188L438.359 235.919ZM429.716 243.99L425.395 248.026L424.712 247.295L429.034 243.26L429.716 243.99ZM421.073 252.062L416.752 256.098L416.069 255.367L420.391 251.331L421.073 252.062ZM412.431 260.133L408.109 264.169L407.427 263.438L411.748 259.402L412.431 260.133ZM403.788 268.205L399.466 272.24L398.784 271.51L403.105 267.474L403.788 268.205ZM395.145 276.276L390.823 280.312L390.141 279.581L394.462 275.545L395.145 276.276ZM386.502 284.348L384.341 286.365L383.659 285.635L385.819 283.617L386.502 284.348Z" fill="white"/>
<path d="M386.667 445.5C386.667 446.973 385.473 448.167 384 448.167C382.527 448.167 381.333 446.973 381.333 445.5C381.333 444.027 382.527 442.833 384 442.833C385.473 442.833 386.667 444.027 386.667 445.5ZM440.146 502.354L438.129 500.336L438.836 499.629L440.854 501.646L440.146 502.354ZM434.093 496.3L430.057 492.264L430.764 491.557L434.8 495.593L434.093 496.3ZM426.021 488.229L421.986 484.193L422.693 483.486L426.729 487.521L426.021 488.229ZM417.95 480.157L413.914 476.121L414.621 475.414L418.657 479.45L417.95 480.157ZM409.879 472.086L405.843 468.05L406.55 467.343L410.586 471.379L409.879 472.086ZM401.807 464.014L397.771 459.979L398.479 459.271L402.514 463.307L401.807 464.014ZM393.736 455.943L389.7 451.907L390.407 451.2L394.443 455.236L393.736 455.943ZM385.664 447.871L383.646 445.854L384.354 445.146L386.371 447.164L385.664 447.871Z" fill="white"/>
<path d="M102.722 203V185.545H105.884V193.565H106.097L112.906 185.545H116.767L110.017 193.378L116.827 203H113.026L107.818 195.517L105.884 197.801V203H102.722ZM125.871 197.494V189.909H128.956V203H125.965V200.673H125.828C125.533 201.406 125.047 202.006 124.371 202.472C123.7 202.937 122.874 203.17 121.891 203.17C121.033 203.17 120.274 202.98 119.615 202.599C118.962 202.213 118.45 201.653 118.081 200.92C117.712 200.182 117.527 199.29 117.527 198.244V189.909H120.612V197.767C120.612 198.597 120.84 199.256 121.294 199.744C121.749 200.233 122.345 200.477 123.084 200.477C123.538 200.477 123.979 200.366 124.405 200.145C124.831 199.923 125.181 199.594 125.453 199.156C125.732 198.713 125.871 198.159 125.871 197.494ZM120.706 187.983C120.257 187.983 119.868 187.824 119.538 187.506C119.215 187.187 119.053 186.812 119.053 186.381C119.053 185.926 119.215 185.545 119.538 185.239C119.868 184.926 120.257 184.77 120.706 184.77C121.166 184.77 121.553 184.926 121.865 185.239C122.183 185.545 122.342 185.926 122.342 186.381C122.342 186.812 122.183 187.187 121.865 187.506C121.553 187.824 121.166 187.983 120.706 187.983ZM125.82 187.983C125.371 187.983 124.982 187.824 124.652 187.506C124.328 187.187 124.166 186.812 124.166 186.381C124.166 185.926 124.328 185.545 124.652 185.239C124.982 184.926 125.371 184.77 125.82 184.77C126.28 184.77 126.666 184.926 126.979 185.239C127.297 185.545 127.456 185.926 127.456 186.381C127.456 186.812 127.297 187.187 126.979 187.506C126.666 187.824 126.28 187.983 125.82 187.983ZM134.734 195.33V203H131.649V189.909H134.598V192.134H134.751C135.052 191.401 135.532 190.818 136.191 190.386C136.856 189.955 137.677 189.739 138.654 189.739C139.558 189.739 140.345 189.932 141.015 190.318C141.691 190.705 142.214 191.264 142.583 191.997C142.958 192.73 143.143 193.619 143.137 194.665V203H140.052V195.142C140.052 194.267 139.825 193.582 139.37 193.088C138.921 192.594 138.299 192.347 137.504 192.347C136.964 192.347 136.484 192.466 136.063 192.705C135.649 192.937 135.322 193.276 135.083 193.719C134.85 194.162 134.734 194.699 134.734 195.33ZM156.14 193.369L153.328 193.676C153.248 193.392 153.109 193.125 152.91 192.875C152.717 192.625 152.456 192.423 152.126 192.27C151.797 192.116 151.393 192.04 150.916 192.04C150.274 192.04 149.734 192.179 149.297 192.457C148.865 192.736 148.652 193.097 148.657 193.54C148.652 193.92 148.791 194.23 149.075 194.469C149.365 194.707 149.842 194.903 150.507 195.057L152.74 195.534C153.978 195.801 154.899 196.224 155.501 196.804C156.109 197.384 156.416 198.142 156.422 199.08C156.416 199.903 156.174 200.631 155.697 201.261C155.225 201.886 154.569 202.375 153.728 202.727C152.887 203.08 151.922 203.256 150.831 203.256C149.228 203.256 147.939 202.92 146.961 202.25C145.984 201.574 145.402 200.634 145.214 199.429L148.223 199.139C148.359 199.73 148.649 200.176 149.092 200.477C149.535 200.778 150.112 200.929 150.822 200.929C151.555 200.929 152.143 200.778 152.586 200.477C153.035 200.176 153.26 199.804 153.26 199.361C153.26 198.986 153.115 198.676 152.825 198.432C152.541 198.187 152.098 198 151.495 197.869L149.262 197.401C148.007 197.139 147.078 196.699 146.475 196.08C145.873 195.455 145.575 194.665 145.581 193.71C145.575 192.903 145.794 192.205 146.237 191.614C146.686 191.017 147.308 190.557 148.103 190.233C148.904 189.903 149.828 189.739 150.873 189.739C152.407 189.739 153.615 190.065 154.495 190.719C155.382 191.372 155.93 192.256 156.14 193.369ZM165.022 189.909V192.295H157.497V189.909H165.022ZM159.355 186.773H162.44V199.062C162.44 199.477 162.503 199.795 162.628 200.017C162.758 200.233 162.929 200.381 163.139 200.46C163.349 200.54 163.582 200.58 163.838 200.58C164.031 200.58 164.207 200.565 164.366 200.537C164.531 200.509 164.656 200.483 164.741 200.46L165.261 202.872C165.096 202.929 164.861 202.991 164.554 203.06C164.253 203.128 163.883 203.168 163.446 203.179C162.673 203.202 161.977 203.085 161.358 202.83C160.738 202.568 160.247 202.165 159.883 201.619C159.525 201.074 159.349 200.392 159.355 199.574V186.773ZM170.489 185.545V203H167.404V185.545H170.489ZM173.182 203V189.909H176.267V203H173.182ZM174.733 188.051C174.244 188.051 173.824 187.889 173.472 187.565C173.119 187.236 172.943 186.841 172.943 186.381C172.943 185.915 173.119 185.52 173.472 185.196C173.824 184.866 174.244 184.702 174.733 184.702C175.227 184.702 175.648 184.866 175.994 185.196C176.347 185.52 176.523 185.915 176.523 186.381C176.523 186.841 176.347 187.236 175.994 187.565C175.648 187.889 175.227 188.051 174.733 188.051ZM184.67 203.256C183.363 203.256 182.241 202.969 181.303 202.395C180.372 201.821 179.653 201.028 179.147 200.017C178.647 199 178.397 197.83 178.397 196.506C178.397 195.176 178.653 194.003 179.164 192.986C179.676 191.963 180.397 191.168 181.329 190.599C182.266 190.026 183.374 189.739 184.653 189.739C185.715 189.739 186.656 189.935 187.474 190.327C188.298 190.713 188.954 191.261 189.443 191.972C189.931 192.676 190.21 193.5 190.278 194.443H187.329C187.21 193.812 186.926 193.287 186.477 192.866C186.033 192.44 185.44 192.227 184.695 192.227C184.065 192.227 183.511 192.398 183.033 192.739C182.556 193.074 182.184 193.557 181.917 194.188C181.656 194.818 181.525 195.574 181.525 196.455C181.525 197.347 181.656 198.114 181.917 198.756C182.178 199.392 182.545 199.884 183.016 200.23C183.494 200.571 184.053 200.741 184.695 200.741C185.15 200.741 185.556 200.656 185.914 200.486C186.278 200.31 186.582 200.057 186.826 199.727C187.07 199.398 187.238 198.997 187.329 198.526H190.278C190.204 199.452 189.931 200.273 189.46 200.989C188.988 201.699 188.346 202.256 187.533 202.659C186.721 203.057 185.766 203.256 184.67 203.256ZM195.416 195.33V203H192.331V185.545H195.348V192.134H195.502C195.808 191.395 196.283 190.812 196.925 190.386C197.573 189.955 198.397 189.739 199.397 189.739C200.306 189.739 201.098 189.929 201.774 190.31C202.45 190.69 202.973 191.247 203.343 191.98C203.718 192.713 203.905 193.608 203.905 194.665V203H200.82V195.142C200.82 194.261 200.593 193.577 200.138 193.088C199.689 192.594 199.058 192.347 198.246 192.347C197.7 192.347 197.212 192.466 196.78 192.705C196.354 192.937 196.019 193.276 195.774 193.719C195.536 194.162 195.416 194.699 195.416 195.33ZM212.365 203.256C211.053 203.256 209.919 202.983 208.965 202.438C208.016 201.886 207.286 201.108 206.774 200.102C206.263 199.091 206.007 197.901 206.007 196.531C206.007 195.185 206.263 194.003 206.774 192.986C207.292 191.963 208.013 191.168 208.939 190.599C209.865 190.026 210.953 189.739 212.203 189.739C213.01 189.739 213.772 189.869 214.488 190.131C215.209 190.386 215.845 190.784 216.397 191.324C216.953 191.864 217.391 192.551 217.709 193.386C218.027 194.216 218.186 195.205 218.186 196.352V197.298H207.456V195.219H215.229C215.223 194.628 215.095 194.102 214.845 193.642C214.595 193.176 214.246 192.81 213.797 192.543C213.354 192.276 212.837 192.142 212.246 192.142C211.615 192.142 211.061 192.295 210.584 192.602C210.107 192.903 209.735 193.301 209.468 193.795C209.206 194.284 209.073 194.821 209.067 195.406V197.222C209.067 197.983 209.206 198.636 209.485 199.182C209.763 199.722 210.152 200.136 210.652 200.426C211.152 200.71 211.738 200.852 212.408 200.852C212.857 200.852 213.263 200.79 213.627 200.665C213.99 200.534 214.306 200.344 214.573 200.094C214.84 199.844 215.042 199.534 215.178 199.165L218.059 199.489C217.877 200.25 217.53 200.915 217.019 201.483C216.513 202.045 215.865 202.483 215.076 202.795C214.286 203.102 213.382 203.256 212.365 203.256ZM105.884 209.545V227H102.722V209.545H105.884ZM111.776 219.33V227H108.691V213.909H111.64V216.134H111.793C112.095 215.401 112.575 214.818 113.234 214.386C113.899 213.955 114.72 213.739 115.697 213.739C116.6 213.739 117.387 213.932 118.058 214.318C118.734 214.705 119.257 215.264 119.626 215.997C120.001 216.73 120.185 217.619 120.18 218.665V227H117.095V219.142C117.095 218.267 116.867 217.582 116.413 217.088C115.964 216.594 115.342 216.347 114.546 216.347C114.007 216.347 113.526 216.466 113.106 216.705C112.691 216.937 112.364 217.276 112.126 217.719C111.893 218.162 111.776 218.699 111.776 219.33ZM129.373 213.909V216.295H121.848V213.909H129.373ZM123.705 210.773H126.791V223.062C126.791 223.477 126.853 223.795 126.978 224.017C127.109 224.233 127.279 224.381 127.49 224.46C127.7 224.54 127.933 224.58 128.188 224.58C128.382 224.58 128.558 224.565 128.717 224.537C128.882 224.509 129.007 224.483 129.092 224.46L129.612 226.872C129.447 226.929 129.211 226.991 128.904 227.06C128.603 227.128 128.234 227.168 127.796 227.179C127.024 227.202 126.328 227.085 125.708 226.83C125.089 226.568 124.598 226.165 124.234 225.619C123.876 225.074 123.7 224.392 123.705 223.574V210.773ZM137.128 227.256C135.816 227.256 134.682 226.983 133.728 226.438C132.779 225.886 132.049 225.108 131.537 224.102C131.026 223.091 130.77 221.901 130.77 220.531C130.77 219.185 131.026 218.003 131.537 216.986C132.054 215.963 132.776 215.168 133.702 214.599C134.628 214.026 135.716 213.739 136.966 213.739C137.773 213.739 138.534 213.869 139.25 214.131C139.972 214.386 140.608 214.784 141.159 215.324C141.716 215.864 142.154 216.551 142.472 217.386C142.79 218.216 142.949 219.205 142.949 220.352V221.298H132.219V219.219H139.992C139.986 218.628 139.858 218.102 139.608 217.642C139.358 217.176 139.009 216.81 138.56 216.543C138.117 216.276 137.6 216.142 137.009 216.142C136.378 216.142 135.824 216.295 135.347 216.602C134.87 216.903 134.497 217.301 134.23 217.795C133.969 218.284 133.836 218.821 133.83 219.406V221.222C133.83 221.983 133.969 222.636 134.247 223.182C134.526 223.722 134.915 224.136 135.415 224.426C135.915 224.71 136.5 224.852 137.171 224.852C137.62 224.852 138.026 224.79 138.39 224.665C138.753 224.534 139.069 224.344 139.336 224.094C139.603 223.844 139.804 223.534 139.941 223.165L142.821 223.489C142.64 224.25 142.293 224.915 141.782 225.483C141.276 226.045 140.628 226.483 139.838 226.795C139.049 227.102 138.145 227.256 137.128 227.256ZM148.165 209.545V227H145.079V209.545H148.165ZM153.942 209.545V227H150.857V209.545H153.942ZM156.635 227V213.909H159.72V227H156.635ZM158.186 212.051C157.697 212.051 157.277 211.889 156.925 211.565C156.572 211.236 156.396 210.841 156.396 210.381C156.396 209.915 156.572 209.52 156.925 209.196C157.277 208.866 157.697 208.702 158.186 208.702C158.68 208.702 159.101 208.866 159.447 209.196C159.8 209.52 159.976 209.915 159.976 210.381C159.976 210.841 159.8 211.236 159.447 211.565C159.101 211.889 158.68 212.051 158.186 212.051ZM168.106 232.182C166.998 232.182 166.046 232.031 165.251 231.73C164.455 231.435 163.816 231.037 163.333 230.537C162.85 230.037 162.515 229.483 162.327 228.875L165.106 228.202C165.231 228.457 165.413 228.71 165.651 228.96C165.89 229.216 166.211 229.426 166.614 229.591C167.024 229.761 167.538 229.847 168.157 229.847C169.032 229.847 169.756 229.634 170.33 229.207C170.904 228.787 171.191 228.094 171.191 227.128V224.648H171.038C170.879 224.966 170.646 225.293 170.339 225.628C170.038 225.963 169.637 226.244 169.137 226.472C168.643 226.699 168.021 226.812 167.271 226.812C166.265 226.812 165.353 226.577 164.535 226.105C163.722 225.628 163.075 224.918 162.592 223.974C162.114 223.026 161.876 221.838 161.876 220.412C161.876 218.974 162.114 217.761 162.592 216.773C163.075 215.778 163.725 215.026 164.543 214.514C165.362 213.997 166.274 213.739 167.279 213.739C168.046 213.739 168.677 213.869 169.171 214.131C169.671 214.386 170.069 214.696 170.364 215.06C170.66 215.418 170.884 215.756 171.038 216.074H171.208V213.909H174.251V227.213C174.251 228.332 173.984 229.259 173.45 229.991C172.916 230.724 172.185 231.273 171.259 231.636C170.333 232 169.282 232.182 168.106 232.182ZM168.131 224.392C168.785 224.392 169.342 224.233 169.802 223.915C170.262 223.597 170.612 223.139 170.85 222.543C171.089 221.946 171.208 221.23 171.208 220.395C171.208 219.571 171.089 218.849 170.85 218.23C170.617 217.611 170.271 217.131 169.81 216.79C169.356 216.443 168.796 216.27 168.131 216.27C167.444 216.27 166.87 216.449 166.41 216.807C165.95 217.165 165.603 217.656 165.37 218.281C165.137 218.901 165.021 219.605 165.021 220.395C165.021 221.196 165.137 221.898 165.37 222.5C165.609 223.097 165.958 223.562 166.418 223.898C166.884 224.227 167.455 224.392 168.131 224.392ZM182.728 227.256C181.416 227.256 180.282 226.983 179.328 226.438C178.379 225.886 177.649 225.108 177.137 224.102C176.626 223.091 176.37 221.901 176.37 220.531C176.37 219.185 176.626 218.003 177.137 216.986C177.654 215.963 178.376 215.168 179.302 214.599C180.228 214.026 181.316 213.739 182.566 213.739C183.373 213.739 184.134 213.869 184.85 214.131C185.572 214.386 186.208 214.784 186.759 215.324C187.316 215.864 187.754 216.551 188.072 217.386C188.39 218.216 188.549 219.205 188.549 220.352V221.298H177.819V219.219H185.592C185.586 218.628 185.458 218.102 185.208 217.642C184.958 217.176 184.609 216.81 184.16 216.543C183.717 216.276 183.2 216.142 182.609 216.142C181.978 216.142 181.424 216.295 180.947 216.602C180.47 216.903 180.098 217.301 179.83 217.795C179.569 218.284 179.436 218.821 179.43 219.406V221.222C179.43 221.983 179.569 222.636 179.848 223.182C180.126 223.722 180.515 224.136 181.015 224.426C181.515 224.71 182.1 224.852 182.771 224.852C183.22 224.852 183.626 224.79 183.99 224.665C184.353 224.534 184.669 224.344 184.936 224.094C185.203 223.844 185.404 223.534 185.541 223.165L188.421 223.489C188.24 224.25 187.893 224.915 187.382 225.483C186.876 226.045 186.228 226.483 185.438 226.795C184.649 227.102 183.745 227.256 182.728 227.256ZM193.765 219.33V227H190.679V213.909H193.628V216.134H193.782C194.083 215.401 194.563 214.818 195.222 214.386C195.887 213.955 196.708 213.739 197.685 213.739C198.588 213.739 199.375 213.932 200.046 214.318C200.722 214.705 201.245 215.264 201.614 215.997C201.989 216.73 202.174 217.619 202.168 218.665V227H199.083V219.142C199.083 218.267 198.855 217.582 198.401 217.088C197.952 216.594 197.33 216.347 196.534 216.347C195.995 216.347 195.515 216.466 195.094 216.705C194.679 216.937 194.353 217.276 194.114 217.719C193.881 218.162 193.765 218.699 193.765 219.33ZM204.654 227V225.04L211.404 216.577V216.466H204.875V213.909H215.179V216.014L208.753 224.332V224.443H215.401V227H204.654Z" fill="white"/>
<path d="M21.7216 369V351.545H33.0739V354.196H24.8835V358.935H32.4858V361.585H24.8835V366.349H33.142V369H21.7216ZM41.3936 369.256C40.0868 369.256 38.9646 368.969 38.0271 368.395C37.0953 367.821 36.3765 367.028 35.8709 366.017C35.3709 365 35.1209 363.83 35.1209 362.506C35.1209 361.176 35.3765 360.003 35.8879 358.986C36.3993 357.963 37.1209 357.168 38.0527 356.599C38.9902 356.026 40.0981 355.739 41.3765 355.739C42.439 355.739 43.3794 355.935 44.1976 356.327C45.0214 356.713 45.6777 357.261 46.1663 357.972C46.6549 358.676 46.9334 359.5 47.0015 360.443H44.0527C43.9334 359.812 43.6493 359.287 43.2004 358.866C42.7572 358.44 42.1635 358.227 41.4191 358.227C40.7885 358.227 40.2345 358.398 39.7572 358.739C39.2799 359.074 38.9078 359.557 38.6407 360.188C38.3794 360.818 38.2487 361.574 38.2487 362.455C38.2487 363.347 38.3794 364.114 38.6407 364.756C38.9021 365.392 39.2686 365.884 39.7402 366.23C40.2174 366.571 40.7771 366.741 41.4191 366.741C41.8737 366.741 42.2799 366.656 42.6379 366.486C43.0015 366.31 43.3055 366.057 43.5498 365.727C43.7941 365.398 43.9618 364.997 44.0527 364.526H47.0015C46.9277 365.452 46.6549 366.273 46.1834 366.989C45.7118 367.699 45.0697 368.256 44.2572 368.659C43.4447 369.057 42.4902 369.256 41.3936 369.256ZM54.7651 369.256C53.4867 369.256 52.3788 368.974 51.4413 368.412C50.5038 367.849 49.7765 367.062 49.2595 366.051C48.7481 365.04 48.4924 363.858 48.4924 362.506C48.4924 361.153 48.7481 359.969 49.2595 358.952C49.7765 357.935 50.5038 357.145 51.4413 356.582C52.3788 356.02 53.4867 355.739 54.7651 355.739C56.0436 355.739 57.1515 356.02 58.089 356.582C59.0265 357.145 59.7509 357.935 60.2623 358.952C60.7793 359.969 61.0379 361.153 61.0379 362.506C61.0379 363.858 60.7793 365.04 60.2623 366.051C59.7509 367.062 59.0265 367.849 58.089 368.412C57.1515 368.974 56.0436 369.256 54.7651 369.256ZM54.7822 366.784C55.4754 366.784 56.0549 366.594 56.5208 366.213C56.9867 365.827 57.3333 365.31 57.5606 364.662C57.7936 364.014 57.91 363.293 57.91 362.497C57.91 361.696 57.7936 360.972 57.5606 360.324C57.3333 359.67 56.9867 359.151 56.5208 358.764C56.0549 358.378 55.4754 358.185 54.7822 358.185C54.072 358.185 53.4811 358.378 53.0095 358.764C52.5436 359.151 52.1941 359.67 51.9612 360.324C51.7339 360.972 51.6203 361.696 51.6203 362.497C51.6203 363.293 51.7339 364.014 51.9612 364.662C52.1941 365.31 52.5436 365.827 53.0095 366.213C53.4811 366.594 54.072 366.784 54.7822 366.784ZM73.5231 359.369L70.7106 359.676C70.631 359.392 70.4918 359.125 70.293 358.875C70.0998 358.625 69.8384 358.423 69.5089 358.27C69.1793 358.116 68.7759 358.04 68.2986 358.04C67.6566 358.04 67.1168 358.179 66.6793 358.457C66.2475 358.736 66.0344 359.097 66.0401 359.54C66.0344 359.92 66.1736 360.23 66.4577 360.469C66.7475 360.707 67.2248 360.903 67.8895 361.057L70.1225 361.534C71.3611 361.801 72.2816 362.224 72.8839 362.804C73.4918 363.384 73.7986 364.142 73.8043 365.08C73.7986 365.903 73.5572 366.631 73.0799 367.261C72.6083 367.886 71.952 368.375 71.1111 368.727C70.2702 369.08 69.3043 369.256 68.2134 369.256C66.6111 369.256 65.3214 368.92 64.3441 368.25C63.3668 367.574 62.7844 366.634 62.5969 365.429L65.6055 365.139C65.7418 365.73 66.0316 366.176 66.4748 366.477C66.918 366.778 67.4947 366.929 68.2049 366.929C68.9378 366.929 69.5259 366.778 69.9691 366.477C70.418 366.176 70.6424 365.804 70.6424 365.361C70.6424 364.986 70.4975 364.676 70.2077 364.432C69.9236 364.187 69.4805 364 68.8782 363.869L66.6452 363.401C65.3895 363.139 64.4606 362.699 63.8583 362.08C63.256 361.455 62.9577 360.665 62.9634 359.71C62.9577 358.903 63.1765 358.205 63.6197 357.614C64.0685 357.017 64.6907 356.557 65.4861 356.233C66.2873 355.903 67.2106 355.739 68.256 355.739C69.7901 355.739 70.9975 356.065 71.8782 356.719C72.7645 357.372 73.3128 358.256 73.5231 359.369ZM77.786 373.909C77.3655 373.909 76.9763 373.875 76.6184 373.807C76.2661 373.744 75.9848 373.67 75.7746 373.585L76.4905 371.182C76.9394 371.313 77.3399 371.375 77.6922 371.369C78.0445 371.364 78.3541 371.253 78.6212 371.037C78.8939 370.827 79.124 370.474 79.3115 369.98L79.5757 369.273L74.8286 355.909H78.1013L81.1184 365.795H81.2547L84.2803 355.909H87.5615L82.3201 370.585C82.0757 371.278 81.7519 371.872 81.3485 372.366C80.9451 372.866 80.4507 373.247 79.8655 373.509C79.286 373.776 78.5928 373.909 77.786 373.909ZM99.5631 359.369L96.7506 359.676C96.671 359.392 96.5318 359.125 96.333 358.875C96.1398 358.625 95.8784 358.423 95.5489 358.27C95.2193 358.116 94.8159 358.04 94.3386 358.04C93.6966 358.04 93.1568 358.179 92.7193 358.457C92.2875 358.736 92.0744 359.097 92.0801 359.54C92.0744 359.92 92.2136 360.23 92.4977 360.469C92.7875 360.707 93.2648 360.903 93.9295 361.057L96.1625 361.534C97.4011 361.801 98.3216 362.224 98.9239 362.804C99.5318 363.384 99.8386 364.142 99.8443 365.08C99.8386 365.903 99.5972 366.631 99.1199 367.261C98.6483 367.886 97.992 368.375 97.1511 368.727C96.3102 369.08 95.3443 369.256 94.2534 369.256C92.6511 369.256 91.3614 368.92 90.3841 368.25C89.4068 367.574 88.8244 366.634 88.6369 365.429L91.6455 365.139C91.7818 365.73 92.0716 366.176 92.5148 366.477C92.958 366.778 93.5347 366.929 94.2449 366.929C94.9778 366.929 95.5659 366.778 96.0091 366.477C96.458 366.176 96.6824 365.804 96.6824 365.361C96.6824 364.986 96.5375 364.676 96.2477 364.432C95.9636 364.187 95.5205 364 94.9182 363.869L92.6852 363.401C91.4295 363.139 90.5006 362.699 89.8983 362.08C89.296 361.455 88.9977 360.665 89.0034 359.71C88.9977 358.903 89.2165 358.205 89.6597 357.614C90.1085 357.017 90.7307 356.557 91.5261 356.233C92.3273 355.903 93.2506 355.739 94.296 355.739C95.8301 355.739 97.0375 356.065 97.9182 356.719C98.8045 357.372 99.3528 358.256 99.5631 359.369ZM108.445 355.909V358.295H100.92V355.909H108.445ZM102.778 352.773H105.863V365.062C105.863 365.477 105.925 365.795 106.05 366.017C106.181 366.233 106.352 366.381 106.562 366.46C106.772 366.54 107.005 366.58 107.261 366.58C107.454 366.58 107.63 366.565 107.789 366.537C107.954 366.509 108.079 366.483 108.164 366.46L108.684 368.872C108.519 368.929 108.283 368.991 107.977 369.06C107.675 369.128 107.306 369.168 106.869 369.179C106.096 369.202 105.4 369.085 104.781 368.83C104.161 368.568 103.67 368.165 103.306 367.619C102.948 367.074 102.772 366.392 102.778 365.574V352.773ZM116.2 369.256C114.888 369.256 113.754 368.983 112.8 368.438C111.851 367.886 111.121 367.108 110.609 366.102C110.098 365.091 109.842 363.901 109.842 362.531C109.842 361.185 110.098 360.003 110.609 358.986C111.127 357.963 111.848 357.168 112.774 356.599C113.7 356.026 114.788 355.739 116.038 355.739C116.845 355.739 117.607 355.869 118.323 356.131C119.044 356.386 119.68 356.784 120.232 357.324C120.788 357.864 121.226 358.551 121.544 359.386C121.862 360.216 122.021 361.205 122.021 362.352V363.298H111.291V361.219H119.064C119.058 360.628 118.93 360.102 118.68 359.642C118.43 359.176 118.081 358.81 117.632 358.543C117.189 358.276 116.672 358.142 116.081 358.142C115.45 358.142 114.896 358.295 114.419 358.602C113.942 358.903 113.57 359.301 113.303 359.795C113.041 360.284 112.908 360.821 112.902 361.406V363.222C112.902 363.983 113.041 364.636 113.32 365.182C113.598 365.722 113.987 366.136 114.487 366.426C114.987 366.71 115.573 366.852 116.243 366.852C116.692 366.852 117.098 366.79 117.462 366.665C117.825 366.534 118.141 366.344 118.408 366.094C118.675 365.844 118.877 365.534 119.013 365.165L121.894 365.489C121.712 366.25 121.365 366.915 120.854 367.483C120.348 368.045 119.7 368.483 118.911 368.795C118.121 369.102 117.217 369.256 116.2 369.256ZM124.151 369V355.909H127.1V358.134H127.254C127.526 357.384 127.978 356.798 128.609 356.378C129.24 355.952 129.992 355.739 130.867 355.739C131.754 355.739 132.501 355.955 133.109 356.386C133.723 356.812 134.154 357.395 134.404 358.134H134.541C134.83 357.406 135.319 356.827 136.007 356.395C136.7 355.957 137.521 355.739 138.47 355.739C139.674 355.739 140.657 356.119 141.419 356.881C142.18 357.642 142.561 358.753 142.561 360.213V369H139.467V360.69C139.467 359.878 139.251 359.284 138.819 358.909C138.387 358.528 137.859 358.338 137.234 358.338C136.49 358.338 135.907 358.571 135.487 359.037C135.072 359.497 134.865 360.097 134.865 360.835V369H131.839V360.562C131.839 359.886 131.634 359.347 131.225 358.943C130.822 358.54 130.294 358.338 129.64 358.338C129.197 358.338 128.794 358.452 128.43 358.679C128.066 358.901 127.776 359.216 127.561 359.625C127.345 360.028 127.237 360.5 127.237 361.04V369H124.151Z" fill="white"/>
<path d="M163.207 522.344C163.128 521.599 162.793 521.02 162.202 520.605C161.616 520.19 160.855 519.983 159.918 519.983C159.259 519.983 158.693 520.082 158.222 520.281C157.75 520.48 157.389 520.75 157.139 521.091C156.889 521.432 156.761 521.821 156.756 522.259C156.756 522.622 156.838 522.937 157.003 523.205C157.173 523.472 157.403 523.699 157.693 523.886C157.983 524.068 158.304 524.222 158.656 524.347C159.009 524.472 159.364 524.577 159.722 524.662L161.358 525.071C162.017 525.224 162.651 525.432 163.259 525.693C163.872 525.955 164.42 526.284 164.903 526.682C165.392 527.08 165.778 527.56 166.062 528.122C166.347 528.685 166.489 529.344 166.489 530.099C166.489 531.122 166.227 532.023 165.705 532.801C165.182 533.574 164.426 534.179 163.438 534.616C162.455 535.048 161.264 535.264 159.866 535.264C158.509 535.264 157.33 535.054 156.33 534.634C155.335 534.213 154.557 533.599 153.994 532.793C153.438 531.986 153.136 531.003 153.091 529.844H156.202C156.247 530.452 156.435 530.957 156.764 531.361C157.094 531.764 157.523 532.065 158.051 532.264C158.585 532.463 159.182 532.562 159.841 532.562C160.528 532.562 161.131 532.46 161.648 532.256C162.17 532.045 162.58 531.756 162.875 531.386C163.17 531.011 163.321 530.574 163.327 530.074C163.321 529.619 163.188 529.244 162.926 528.949C162.665 528.648 162.298 528.398 161.827 528.199C161.361 527.994 160.815 527.812 160.19 527.653L158.205 527.142C156.767 526.773 155.631 526.213 154.795 525.463C153.966 524.707 153.551 523.705 153.551 522.455C153.551 521.426 153.83 520.526 154.386 519.753C154.949 518.98 155.713 518.381 156.679 517.955C157.645 517.523 158.739 517.307 159.96 517.307C161.199 517.307 162.284 517.523 163.216 517.955C164.153 518.381 164.889 518.974 165.423 519.736C165.957 520.491 166.233 521.361 166.25 522.344H163.207ZM174.401 535.256C173.123 535.256 172.015 534.974 171.078 534.412C170.14 533.849 169.413 533.062 168.896 532.051C168.384 531.04 168.129 529.858 168.129 528.506C168.129 527.153 168.384 525.969 168.896 524.952C169.413 523.935 170.14 523.145 171.078 522.582C172.015 522.02 173.123 521.739 174.401 521.739C175.68 521.739 176.788 522.02 177.725 522.582C178.663 523.145 179.387 523.935 179.899 524.952C180.416 525.969 180.674 527.153 180.674 528.506C180.674 529.858 180.416 531.04 179.899 532.051C179.387 533.062 178.663 533.849 177.725 534.412C176.788 534.974 175.68 535.256 174.401 535.256ZM174.418 532.784C175.112 532.784 175.691 532.594 176.157 532.213C176.623 531.827 176.97 531.31 177.197 530.662C177.43 530.014 177.546 529.293 177.546 528.497C177.546 527.696 177.43 526.972 177.197 526.324C176.97 525.67 176.623 525.151 176.157 524.764C175.691 524.378 175.112 524.185 174.418 524.185C173.708 524.185 173.117 524.378 172.646 524.764C172.18 525.151 171.83 525.67 171.597 526.324C171.37 526.972 171.257 527.696 171.257 528.497C171.257 529.293 171.37 530.014 171.597 530.662C171.83 531.31 172.18 531.827 172.646 532.213C173.117 532.594 173.708 532.784 174.418 532.784ZM188.523 535.256C187.216 535.256 186.094 534.969 185.156 534.395C184.225 533.821 183.506 533.028 183 532.017C182.5 531 182.25 529.83 182.25 528.506C182.25 527.176 182.506 526.003 183.017 524.986C183.529 523.963 184.25 523.168 185.182 522.599C186.12 522.026 187.228 521.739 188.506 521.739C189.568 521.739 190.509 521.935 191.327 522.327C192.151 522.713 192.807 523.261 193.296 523.972C193.784 524.676 194.063 525.5 194.131 526.443H191.182C191.063 525.812 190.779 525.287 190.33 524.866C189.887 524.44 189.293 524.227 188.549 524.227C187.918 524.227 187.364 524.398 186.887 524.739C186.409 525.074 186.037 525.557 185.77 526.188C185.509 526.818 185.378 527.574 185.378 528.455C185.378 529.347 185.509 530.114 185.77 530.756C186.031 531.392 186.398 531.884 186.87 532.23C187.347 532.571 187.906 532.741 188.549 532.741C189.003 532.741 189.409 532.656 189.767 532.486C190.131 532.31 190.435 532.057 190.679 531.727C190.924 531.398 191.091 530.997 191.182 530.526H194.131C194.057 531.452 193.784 532.273 193.313 532.989C192.841 533.699 192.199 534.256 191.387 534.659C190.574 535.057 189.62 535.256 188.523 535.256ZM196.184 535V521.909H199.27V535H196.184ZM197.735 520.051C197.247 520.051 196.826 519.889 196.474 519.565C196.122 519.236 195.946 518.841 195.946 518.381C195.946 517.915 196.122 517.52 196.474 517.196C196.826 516.866 197.247 516.702 197.735 516.702C198.23 516.702 198.65 516.866 198.997 517.196C199.349 517.52 199.525 517.915 199.525 518.381C199.525 518.841 199.349 519.236 198.997 519.565C198.65 519.889 198.23 520.051 197.735 520.051ZM205.729 535.264C204.9 535.264 204.152 535.116 203.488 534.821C202.829 534.52 202.306 534.077 201.919 533.491C201.539 532.906 201.348 532.185 201.348 531.327C201.348 530.588 201.485 529.977 201.758 529.494C202.03 529.011 202.402 528.625 202.874 528.335C203.346 528.045 203.877 527.827 204.468 527.679C205.064 527.526 205.681 527.415 206.317 527.347C207.084 527.267 207.706 527.196 208.184 527.134C208.661 527.065 209.008 526.963 209.223 526.827C209.445 526.685 209.556 526.466 209.556 526.17V526.119C209.556 525.477 209.366 524.98 208.985 524.628C208.604 524.276 208.056 524.099 207.34 524.099C206.584 524.099 205.985 524.264 205.542 524.594C205.104 524.923 204.809 525.312 204.655 525.761L201.775 525.352C202.002 524.557 202.377 523.892 202.9 523.358C203.422 522.818 204.062 522.415 204.817 522.148C205.573 521.875 206.408 521.739 207.323 521.739C207.954 521.739 208.581 521.812 209.206 521.96C209.831 522.108 210.402 522.352 210.919 522.693C211.437 523.028 211.851 523.486 212.164 524.065C212.482 524.645 212.641 525.369 212.641 526.239V535H209.675V533.202H209.573C209.385 533.565 209.121 533.906 208.78 534.224C208.445 534.537 208.022 534.79 207.51 534.983C207.005 535.17 206.411 535.264 205.729 535.264ZM206.53 532.997C207.15 532.997 207.687 532.875 208.141 532.631C208.596 532.381 208.945 532.051 209.189 531.642C209.439 531.233 209.564 530.787 209.564 530.304V528.761C209.468 528.841 209.303 528.915 209.07 528.983C208.843 529.051 208.587 529.111 208.303 529.162C208.019 529.213 207.738 529.259 207.459 529.298C207.181 529.338 206.939 529.372 206.735 529.401C206.275 529.463 205.863 529.565 205.499 529.707C205.135 529.849 204.848 530.048 204.638 530.304C204.428 530.554 204.323 530.878 204.323 531.276C204.323 531.844 204.53 532.273 204.945 532.562C205.36 532.852 205.888 532.997 206.53 532.997ZM218.349 517.545V535H215.263V517.545H218.349Z" fill="white"/>
<path d="M427.722 203V185.545H430.884V192.935H438.972V185.545H442.142V203H438.972V195.585H430.884V203H427.722ZM448.732 203.264C447.902 203.264 447.155 203.116 446.49 202.821C445.831 202.52 445.308 202.077 444.922 201.491C444.541 200.906 444.351 200.185 444.351 199.327C444.351 198.588 444.487 197.977 444.76 197.494C445.033 197.011 445.405 196.625 445.877 196.335C446.348 196.045 446.879 195.827 447.47 195.679C448.067 195.526 448.683 195.415 449.32 195.347C450.087 195.267 450.709 195.196 451.186 195.134C451.663 195.065 452.01 194.963 452.226 194.827C452.448 194.685 452.558 194.466 452.558 194.17V194.119C452.558 193.477 452.368 192.98 451.987 192.628C451.607 192.276 451.058 192.099 450.342 192.099C449.587 192.099 448.987 192.264 448.544 192.594C448.107 192.923 447.811 193.312 447.658 193.761L444.777 193.352C445.004 192.557 445.379 191.892 445.902 191.358C446.425 190.818 447.064 190.415 447.82 190.148C448.575 189.875 449.411 189.739 450.325 189.739C450.956 189.739 451.584 189.812 452.209 189.96C452.834 190.108 453.405 190.352 453.922 190.693C454.439 191.028 454.854 191.486 455.166 192.065C455.484 192.645 455.644 193.369 455.644 194.239V203H452.678V201.202H452.575C452.388 201.565 452.124 201.906 451.783 202.224C451.448 202.537 451.024 202.79 450.513 202.983C450.007 203.17 449.413 203.264 448.732 203.264ZM449.533 200.997C450.152 200.997 450.689 200.875 451.144 200.631C451.598 200.381 451.948 200.051 452.192 199.642C452.442 199.233 452.567 198.787 452.567 198.304V196.761C452.47 196.841 452.306 196.915 452.073 196.983C451.845 197.051 451.59 197.111 451.306 197.162C451.021 197.213 450.74 197.259 450.462 197.298C450.183 197.338 449.942 197.372 449.737 197.401C449.277 197.463 448.865 197.565 448.502 197.707C448.138 197.849 447.851 198.048 447.641 198.304C447.431 198.554 447.325 198.878 447.325 199.276C447.325 199.844 447.533 200.273 447.948 200.562C448.362 200.852 448.891 200.997 449.533 200.997ZM458.266 203V189.909H461.257V192.091H461.394C461.632 191.335 462.041 190.753 462.621 190.344C463.206 189.929 463.874 189.722 464.624 189.722C464.794 189.722 464.985 189.73 465.195 189.747C465.411 189.759 465.59 189.778 465.732 189.807V192.645C465.601 192.599 465.394 192.56 465.11 192.526C464.831 192.486 464.561 192.466 464.3 192.466C463.737 192.466 463.232 192.588 462.783 192.832C462.34 193.071 461.99 193.403 461.735 193.83C461.479 194.256 461.351 194.747 461.351 195.304V203H458.266ZM471.62 203.23C470.592 203.23 469.672 202.966 468.859 202.438C468.047 201.909 467.404 201.142 466.933 200.136C466.461 199.131 466.225 197.909 466.225 196.472C466.225 195.017 466.464 193.79 466.941 192.79C467.424 191.784 468.075 191.026 468.893 190.514C469.711 189.997 470.623 189.739 471.629 189.739C472.396 189.739 473.027 189.869 473.521 190.131C474.015 190.386 474.407 190.696 474.697 191.06C474.987 191.418 475.211 191.756 475.37 192.074H475.498V185.545H478.592V203H475.558V200.938H475.37C475.211 201.256 474.981 201.594 474.68 201.952C474.379 202.304 473.981 202.605 473.487 202.855C472.993 203.105 472.37 203.23 471.62 203.23ZM472.481 200.699C473.135 200.699 473.691 200.523 474.152 200.17C474.612 199.812 474.961 199.315 475.2 198.679C475.439 198.043 475.558 197.301 475.558 196.455C475.558 195.608 475.439 194.872 475.2 194.247C474.967 193.622 474.62 193.136 474.16 192.79C473.706 192.443 473.146 192.27 472.481 192.27C471.794 192.27 471.22 192.449 470.76 192.807C470.299 193.165 469.953 193.659 469.72 194.29C469.487 194.92 469.37 195.642 469.37 196.455C469.37 197.273 469.487 198.003 469.72 198.645C469.958 199.281 470.308 199.784 470.768 200.153C471.234 200.517 471.805 200.699 472.481 200.699ZM484.101 203L480.402 189.909H483.547L485.848 199.114H485.968L488.32 189.909H491.431L493.783 199.062H493.911L496.178 189.909H499.331L495.624 203H492.411L489.956 194.153H489.777L487.323 203H484.101ZM504.773 203.264C503.943 203.264 503.196 203.116 502.531 202.821C501.872 202.52 501.349 202.077 500.963 201.491C500.582 200.906 500.392 200.185 500.392 199.327C500.392 198.588 500.528 197.977 500.801 197.494C501.074 197.011 501.446 196.625 501.917 196.335C502.389 196.045 502.92 195.827 503.511 195.679C504.108 195.526 504.724 195.415 505.361 195.347C506.128 195.267 506.75 195.196 507.227 195.134C507.704 195.065 508.051 194.963 508.267 194.827C508.488 194.685 508.599 194.466 508.599 194.17V194.119C508.599 193.477 508.409 192.98 508.028 192.628C507.648 192.276 507.099 192.099 506.383 192.099C505.628 192.099 505.028 192.264 504.585 192.594C504.148 192.923 503.852 193.312 503.699 193.761L500.818 193.352C501.045 192.557 501.42 191.892 501.943 191.358C502.466 190.818 503.105 190.415 503.861 190.148C504.616 189.875 505.452 189.739 506.366 189.739C506.997 189.739 507.625 189.812 508.25 189.96C508.875 190.108 509.446 190.352 509.963 190.693C510.48 191.028 510.895 191.486 511.207 192.065C511.525 192.645 511.685 193.369 511.685 194.239V203H508.719V201.202H508.616C508.429 201.565 508.165 201.906 507.824 202.224C507.488 202.537 507.065 202.79 506.554 202.983C506.048 203.17 505.454 203.264 504.773 203.264ZM505.574 200.997C506.193 200.997 506.73 200.875 507.185 200.631C507.639 200.381 507.988 200.051 508.233 199.642C508.483 199.233 508.608 198.787 508.608 198.304V196.761C508.511 196.841 508.346 196.915 508.113 196.983C507.886 197.051 507.631 197.111 507.346 197.162C507.062 197.213 506.781 197.259 506.503 197.298C506.224 197.338 505.983 197.372 505.778 197.401C505.318 197.463 504.906 197.565 504.542 197.707C504.179 197.849 503.892 198.048 503.682 198.304C503.471 198.554 503.366 198.878 503.366 199.276C503.366 199.844 503.574 200.273 503.988 200.562C504.403 200.852 504.932 200.997 505.574 200.997ZM514.307 203V189.909H517.298V192.091H517.435C517.673 191.335 518.082 190.753 518.662 190.344C519.247 189.929 519.915 189.722 520.665 189.722C520.835 189.722 521.026 189.73 521.236 189.747C521.452 189.759 521.631 189.778 521.773 189.807V192.645C521.642 192.599 521.435 192.56 521.151 192.526C520.872 192.486 520.602 192.466 520.341 192.466C519.778 192.466 519.273 192.588 518.824 192.832C518.381 193.071 518.031 193.403 517.776 193.83C517.52 194.256 517.392 194.747 517.392 195.304V203H514.307ZM528.599 203.256C527.286 203.256 526.153 202.983 525.198 202.438C524.249 201.886 523.519 201.108 523.008 200.102C522.497 199.091 522.241 197.901 522.241 196.531C522.241 195.185 522.497 194.003 523.008 192.986C523.525 191.963 524.247 191.168 525.173 190.599C526.099 190.026 527.187 189.739 528.437 189.739C529.244 189.739 530.005 189.869 530.721 190.131C531.443 190.386 532.079 190.784 532.63 191.324C533.187 191.864 533.624 192.551 533.943 193.386C534.261 194.216 534.42 195.205 534.42 196.352V197.298H523.69V195.219H531.462C531.457 194.628 531.329 194.102 531.079 193.642C530.829 193.176 530.479 192.81 530.031 192.543C529.587 192.276 529.07 192.142 528.479 192.142C527.849 192.142 527.295 192.295 526.818 192.602C526.34 192.903 525.968 193.301 525.701 193.795C525.44 194.284 525.306 194.821 525.301 195.406V197.222C525.301 197.983 525.44 198.636 525.718 199.182C525.997 199.722 526.386 200.136 526.886 200.426C527.386 200.71 527.971 200.852 528.641 200.852C529.09 200.852 529.497 200.79 529.86 200.665C530.224 200.534 530.539 200.344 530.806 200.094C531.073 199.844 531.275 199.534 531.411 199.165L534.292 199.489C534.11 200.25 533.764 200.915 533.252 201.483C532.747 202.045 532.099 202.483 531.309 202.795C530.519 203.102 529.616 203.256 528.599 203.256Z" fill="white"/>
<path d="M550.662 357.435H547.474C547.384 356.912 547.216 356.449 546.972 356.045C546.727 355.636 546.423 355.29 546.06 355.006C545.696 354.722 545.281 354.509 544.815 354.366C544.355 354.219 543.858 354.145 543.324 354.145C542.375 354.145 541.534 354.384 540.801 354.861C540.068 355.332 539.494 356.026 539.08 356.94C538.665 357.849 538.457 358.96 538.457 360.273C538.457 361.608 538.665 362.733 539.08 363.648C539.5 364.557 540.074 365.244 540.801 365.71C541.534 366.17 542.372 366.401 543.315 366.401C543.838 366.401 544.327 366.332 544.781 366.196C545.241 366.054 545.653 365.847 546.017 365.574C546.386 365.301 546.696 364.966 546.946 364.568C547.202 364.17 547.378 363.716 547.474 363.205L550.662 363.222C550.543 364.051 550.284 364.83 549.886 365.557C549.494 366.284 548.98 366.926 548.344 367.483C547.707 368.034 546.963 368.466 546.111 368.778C545.259 369.085 544.313 369.239 543.273 369.239C541.739 369.239 540.369 368.884 539.165 368.173C537.96 367.463 537.011 366.438 536.318 365.097C535.625 363.756 535.278 362.148 535.278 360.273C535.278 358.392 535.628 356.784 536.327 355.449C537.026 354.108 537.977 353.082 539.182 352.372C540.386 351.662 541.75 351.307 543.273 351.307C544.244 351.307 545.148 351.443 545.983 351.716C546.818 351.989 547.563 352.389 548.216 352.918C548.869 353.44 549.406 354.082 549.827 354.844C550.253 355.599 550.531 356.463 550.662 357.435ZM558.651 369.256C557.373 369.256 556.265 368.974 555.328 368.412C554.39 367.849 553.663 367.062 553.146 366.051C552.634 365.04 552.379 363.858 552.379 362.506C552.379 361.153 552.634 359.969 553.146 358.952C553.663 357.935 554.39 357.145 555.328 356.582C556.265 356.02 557.373 355.739 558.651 355.739C559.93 355.739 561.038 356.02 561.975 356.582C562.913 357.145 563.637 357.935 564.149 358.952C564.666 359.969 564.924 361.153 564.924 362.506C564.924 363.858 564.666 365.04 564.149 366.051C563.637 367.062 562.913 367.849 561.975 368.412C561.038 368.974 559.93 369.256 558.651 369.256ZM558.668 366.784C559.362 366.784 559.941 366.594 560.407 366.213C560.873 365.827 561.22 365.31 561.447 364.662C561.68 364.014 561.796 363.293 561.796 362.497C561.796 361.696 561.68 360.972 561.447 360.324C561.22 359.67 560.873 359.151 560.407 358.764C559.941 358.378 559.362 358.185 558.668 358.185C557.958 358.185 557.367 358.378 556.896 358.764C556.43 359.151 556.08 359.67 555.847 360.324C555.62 360.972 555.507 361.696 555.507 362.497C555.507 363.293 555.62 364.014 555.847 364.662C556.08 365.31 556.43 365.827 556.896 366.213C557.367 366.594 557.958 366.784 558.668 366.784ZM570.148 361.33V369H567.063V355.909H570.012V358.134H570.165C570.466 357.401 570.946 356.818 571.605 356.386C572.27 355.955 573.091 355.739 574.068 355.739C574.972 355.739 575.759 355.932 576.429 356.318C577.105 356.705 577.628 357.264 577.997 357.997C578.372 358.73 578.557 359.619 578.551 360.665V369H575.466V361.142C575.466 360.267 575.239 359.582 574.784 359.088C574.335 358.594 573.713 358.347 572.918 358.347C572.378 358.347 571.898 358.466 571.478 358.705C571.063 358.937 570.736 359.276 570.497 359.719C570.264 360.162 570.148 360.699 570.148 361.33ZM587.745 355.909V358.295H580.219V355.909H587.745ZM582.077 352.773H585.162V365.062C585.162 365.477 585.225 365.795 585.35 366.017C585.48 366.233 585.651 366.381 585.861 366.46C586.071 366.54 586.304 366.58 586.56 366.58C586.753 366.58 586.929 366.565 587.088 366.537C587.253 366.509 587.378 366.483 587.463 366.46L587.983 368.872C587.819 368.929 587.583 368.991 587.276 369.06C586.975 369.128 586.605 369.168 586.168 369.179C585.395 369.202 584.699 369.085 584.08 368.83C583.461 368.568 582.969 368.165 582.605 367.619C582.248 367.074 582.071 366.392 582.077 365.574V352.773ZM595.5 369.256C594.187 369.256 593.054 368.983 592.099 368.438C591.15 367.886 590.42 367.108 589.909 366.102C589.397 365.091 589.142 363.901 589.142 362.531C589.142 361.185 589.397 360.003 589.909 358.986C590.426 357.963 591.147 357.168 592.074 356.599C593 356.026 594.088 355.739 595.338 355.739C596.145 355.739 596.906 355.869 597.622 356.131C598.343 356.386 598.98 356.784 599.531 357.324C600.088 357.864 600.525 358.551 600.843 359.386C601.162 360.216 601.321 361.205 601.321 362.352V363.298H590.591V361.219H598.363C598.358 360.628 598.23 360.102 597.98 359.642C597.73 359.176 597.38 358.81 596.932 358.543C596.488 358.276 595.971 358.142 595.38 358.142C594.75 358.142 594.196 358.295 593.718 358.602C593.241 358.903 592.869 359.301 592.602 359.795C592.341 360.284 592.207 360.821 592.201 361.406V363.222C592.201 363.983 592.341 364.636 592.619 365.182C592.897 365.722 593.287 366.136 593.787 366.426C594.287 366.71 594.872 366.852 595.542 366.852C595.991 366.852 596.397 366.79 596.761 366.665C597.125 366.534 597.44 366.344 597.707 366.094C597.974 365.844 598.176 365.534 598.312 365.165L601.193 365.489C601.011 366.25 600.665 366.915 600.153 367.483C599.647 368.045 599 368.483 598.21 368.795C597.42 369.102 596.517 369.256 595.5 369.256ZM606.536 361.33V369H603.451V355.909H606.4V358.134H606.553C606.854 357.401 607.334 356.818 607.993 356.386C608.658 355.955 609.479 355.739 610.457 355.739C611.36 355.739 612.147 355.932 612.817 356.318C613.493 356.705 614.016 357.264 614.386 357.997C614.761 358.73 614.945 359.619 614.939 360.665V369H611.854V361.142C611.854 360.267 611.627 359.582 611.172 359.088C610.724 358.594 610.101 358.347 609.306 358.347C608.766 358.347 608.286 358.466 607.866 358.705C607.451 358.937 607.124 359.276 606.886 359.719C606.653 360.162 606.536 360.699 606.536 361.33ZM624.133 355.909V358.295H616.607V355.909H624.133ZM618.465 352.773H621.55V365.062C621.55 365.477 621.613 365.795 621.738 366.017C621.869 366.233 622.039 366.381 622.249 366.46C622.459 366.54 622.692 366.58 622.948 366.58C623.141 366.58 623.317 366.565 623.477 366.537C623.641 366.509 623.766 366.483 623.852 366.46L624.371 368.872C624.207 368.929 623.971 368.991 623.664 369.06C623.363 369.128 622.994 369.168 622.556 369.179C621.783 369.202 621.087 369.085 620.468 368.83C619.849 368.568 619.357 368.165 618.994 367.619C618.636 367.074 618.459 366.392 618.465 365.574V352.773Z" fill="white"/>
<path d="M437.207 522.344C437.128 521.599 436.793 521.02 436.202 520.605C435.616 520.19 434.855 519.983 433.918 519.983C433.259 519.983 432.693 520.082 432.222 520.281C431.75 520.48 431.389 520.75 431.139 521.091C430.889 521.432 430.761 521.821 430.756 522.259C430.756 522.622 430.838 522.937 431.003 523.205C431.173 523.472 431.403 523.699 431.693 523.886C431.983 524.068 432.304 524.222 432.656 524.347C433.009 524.472 433.364 524.577 433.722 524.662L435.358 525.071C436.017 525.224 436.651 525.432 437.259 525.693C437.872 525.955 438.42 526.284 438.903 526.682C439.392 527.08 439.778 527.56 440.062 528.122C440.347 528.685 440.489 529.344 440.489 530.099C440.489 531.122 440.227 532.023 439.705 532.801C439.182 533.574 438.426 534.179 437.438 534.616C436.455 535.048 435.264 535.264 433.866 535.264C432.509 535.264 431.33 535.054 430.33 534.634C429.335 534.213 428.557 533.599 427.994 532.793C427.438 531.986 427.136 531.003 427.091 529.844H430.202C430.247 530.452 430.435 530.957 430.764 531.361C431.094 531.764 431.523 532.065 432.051 532.264C432.585 532.463 433.182 532.562 433.841 532.562C434.528 532.562 435.131 532.46 435.648 532.256C436.17 532.045 436.58 531.756 436.875 531.386C437.17 531.011 437.321 530.574 437.327 530.074C437.321 529.619 437.188 529.244 436.926 528.949C436.665 528.648 436.298 528.398 435.827 528.199C435.361 527.994 434.815 527.812 434.19 527.653L432.205 527.142C430.767 526.773 429.631 526.213 428.795 525.463C427.966 524.707 427.551 523.705 427.551 522.455C427.551 521.426 427.83 520.526 428.386 519.753C428.949 518.98 429.713 518.381 430.679 517.955C431.645 517.523 432.739 517.307 433.96 517.307C435.199 517.307 436.284 517.523 437.216 517.955C438.153 518.381 438.889 518.974 439.423 519.736C439.957 520.491 440.233 521.361 440.25 522.344H437.207ZM448.487 535.256C447.174 535.256 446.041 534.983 445.086 534.438C444.137 533.886 443.407 533.108 442.896 532.102C442.384 531.091 442.129 529.901 442.129 528.531C442.129 527.185 442.384 526.003 442.896 524.986C443.413 523.963 444.134 523.168 445.06 522.599C445.987 522.026 447.075 521.739 448.325 521.739C449.132 521.739 449.893 521.869 450.609 522.131C451.33 522.386 451.967 522.784 452.518 523.324C453.075 523.864 453.512 524.551 453.83 525.386C454.149 526.216 454.308 527.205 454.308 528.352V529.298H443.578V527.219H451.35C451.345 526.628 451.217 526.102 450.967 525.642C450.717 525.176 450.367 524.81 449.918 524.543C449.475 524.276 448.958 524.142 448.367 524.142C447.737 524.142 447.183 524.295 446.705 524.602C446.228 524.903 445.856 525.301 445.589 525.795C445.328 526.284 445.194 526.821 445.188 527.406V529.222C445.188 529.983 445.328 530.636 445.606 531.182C445.884 531.722 446.274 532.136 446.774 532.426C447.274 532.71 447.859 532.852 448.529 532.852C448.978 532.852 449.384 532.79 449.748 532.665C450.112 532.534 450.427 532.344 450.694 532.094C450.961 531.844 451.163 531.534 451.299 531.165L454.18 531.489C453.998 532.25 453.651 532.915 453.14 533.483C452.634 534.045 451.987 534.483 451.197 534.795C450.407 535.102 449.504 535.256 448.487 535.256ZM456.438 535V521.909H459.429V524.091H459.566C459.804 523.335 460.213 522.753 460.793 522.344C461.378 521.929 462.046 521.722 462.796 521.722C462.966 521.722 463.156 521.73 463.367 521.747C463.583 521.759 463.762 521.778 463.904 521.807V524.645C463.773 524.599 463.566 524.56 463.281 524.526C463.003 524.486 462.733 524.466 462.472 524.466C461.909 524.466 461.404 524.588 460.955 524.832C460.512 525.071 460.162 525.403 459.906 525.83C459.651 526.256 459.523 526.747 459.523 527.304V535H456.438ZM477.565 521.909L472.903 535H469.494L464.832 521.909H468.122L471.13 531.634H471.267L474.284 521.909H477.565ZM479.22 535V521.909H482.305V535H479.22ZM480.771 520.051C480.282 520.051 479.862 519.889 479.51 519.565C479.157 519.236 478.981 518.841 478.981 518.381C478.981 517.915 479.157 517.52 479.51 517.196C479.862 516.866 480.282 516.702 480.771 516.702C481.265 516.702 481.686 516.866 482.032 517.196C482.385 517.52 482.561 517.915 482.561 518.381C482.561 518.841 482.385 519.236 482.032 519.565C481.686 519.889 481.265 520.051 480.771 520.051ZM490.708 535.256C489.401 535.256 488.279 534.969 487.341 534.395C486.41 533.821 485.691 533.028 485.185 532.017C484.685 531 484.435 529.83 484.435 528.506C484.435 527.176 484.691 526.003 485.202 524.986C485.714 523.963 486.435 523.168 487.367 522.599C488.305 522.026 489.412 521.739 490.691 521.739C491.753 521.739 492.694 521.935 493.512 522.327C494.336 522.713 494.992 523.261 495.481 523.972C495.969 524.676 496.248 525.5 496.316 526.443H493.367C493.248 525.812 492.964 525.287 492.515 524.866C492.072 524.44 491.478 524.227 490.734 524.227C490.103 524.227 489.549 524.398 489.072 524.739C488.594 525.074 488.222 525.557 487.955 526.188C487.694 526.818 487.563 527.574 487.563 528.455C487.563 529.347 487.694 530.114 487.955 530.756C488.216 531.392 488.583 531.884 489.055 532.23C489.532 532.571 490.091 532.741 490.734 532.741C491.188 532.741 491.594 532.656 491.952 532.486C492.316 532.31 492.62 532.057 492.864 531.727C493.109 531.398 493.276 530.997 493.367 530.526H496.316C496.242 531.452 495.969 532.273 495.498 532.989C495.026 533.699 494.384 534.256 493.572 534.659C492.759 535.057 491.805 535.256 490.708 535.256ZM504.165 535.256C502.852 535.256 501.719 534.983 500.764 534.438C499.815 533.886 499.085 533.108 498.574 532.102C498.062 531.091 497.807 529.901 497.807 528.531C497.807 527.185 498.062 526.003 498.574 524.986C499.091 523.963 499.812 523.168 500.739 522.599C501.665 522.026 502.753 521.739 504.003 521.739C504.81 521.739 505.571 521.869 506.287 522.131C507.008 522.386 507.645 522.784 508.196 523.324C508.753 523.864 509.19 524.551 509.508 525.386C509.827 526.216 509.986 527.205 509.986 528.352V529.298H499.256V527.219H507.028C507.023 526.628 506.895 526.102 506.645 525.642C506.395 525.176 506.045 524.81 505.597 524.543C505.153 524.276 504.636 524.142 504.045 524.142C503.415 524.142 502.861 524.295 502.383 524.602C501.906 524.903 501.534 525.301 501.267 525.795C501.006 526.284 500.872 526.821 500.866 527.406V529.222C500.866 529.983 501.006 530.636 501.284 531.182C501.562 531.722 501.952 532.136 502.452 532.426C502.952 532.71 503.537 532.852 504.207 532.852C504.656 532.852 505.062 532.79 505.426 532.665C505.79 532.534 506.105 532.344 506.372 532.094C506.639 531.844 506.841 531.534 506.977 531.165L509.858 531.489C509.676 532.25 509.33 532.915 508.818 533.483C508.312 534.045 507.665 534.483 506.875 534.795C506.085 535.102 505.182 535.256 504.165 535.256Z" fill="white"/>
<defs>
<filter id="filter0_d_915_11727" x="33" y="22" width="612" height="695" filterUnits="userSpaceOnUse" color-interpolation-filters="sRGB">
<feFlood flood-opacity="0" result="BackgroundImageFix"/>
<feColorMatrix in="SourceAlpha" type="matrix" values="0 0 0 0 0 0 0 0 0 0 0 0 0 0 0 0 0 0 127 0" result="hardAlpha"/>
<feOffset dy="4"/>
<feGaussianBlur stdDeviation="2"/>
<feComposite in2="hardAlpha" operator="out"/>
<feColorMatrix type="matrix" values="0 0 0 0 0 0 0 0 0 0 0 0 0 0 0 0 0 0 0.25 0"/>
<feBlend mode="normal" in2="BackgroundImageFix" result="effect1_dropShadow_915_11727"/>
<feBlend mode="normal" in="SourceGraphic" in2="effect1_dropShadow_915_11727" result="shape"/>
</filter>
<filter id="filter1_f_915_11727" x="-21.7" y="-1.7" width="721.961" height="735.121" filterUnits="userSpaceOnUse" color-interpolation-filters="sRGB">
<feFlood flood-opacity="0" result="BackgroundImageFix"/>
<feBlend mode="normal" in="SourceGraphic" in2="BackgroundImageFix" result="shape"/>
<feGaussianBlur stdDeviation="114.35" result="effect1_foregroundBlur_915_11727"/>
</filter>
<filter id="filter2_f_915_11727" x="-38.9" y="-53.9" width="756.8" height="839.8" filterUnits="userSpaceOnUse" color-interpolation-filters="sRGB">
<feFlood flood-opacity="0" result="BackgroundImageFix"/>
<feBlend mode="normal" in="SourceGraphic" in2="BackgroundImageFix" result="shape"/>
<feGaussianBlur stdDeviation="38.45" result="effect1_foregroundBlur_915_11727"/>
</filter>
<filter id="filter3_d_915_11727" x="376.09" y="302.6" width="99.4707" height="132.471" filterUnits="userSpaceOnUse" color-interpolation-filters="sRGB">
<feFlood flood-opacity="0" result="BackgroundImageFix"/>
<feColorMatrix in="SourceAlpha" type="matrix" values="0 0 0 0 0 0 0 0 0 0 0 0 0 0 0 0 0 0 127 0" result="hardAlpha"/>
<feOffset dy="4"/>
<feGaussianBlur stdDeviation="2"/>
<feComposite in2="hardAlpha" operator="out"/>
<feColorMatrix type="matrix" values="0 0 0 0 0 0 0 0 0 0 0 0 0 0 0 0 0 0 0.25 0"/>
<feBlend mode="normal" in2="BackgroundImageFix" result="effect1_dropShadow_915_11727"/>
<feBlend mode="normal" in="SourceGraphic" in2="effect1_dropShadow_915_11727" result="shape"/>
</filter>
<filter id="filter4_d_915_11727" x="376.09" y="302.6" width="99.4707" height="132.471" filterUnits="userSpaceOnUse" color-interpolation-filters="sRGB">
<feFlood flood-opacity="0" result="BackgroundImageFix"/>
<feColorMatrix in="SourceAlpha" type="matrix" values="0 0 0 0 0 0 0 0 0 0 0 0 0 0 0 0 0 0 127 0" result="hardAlpha"/>
<feOffset dy="4"/>
<feGaussianBlur stdDeviation="2"/>
<feComposite in2="hardAlpha" operator="out"/>
<feColorMatrix type="matrix" values="0 0 0 0 0 0 0 0 0 0 0 0 0 0 0 0 0 0 0.25 0"/>
<feBlend mode="normal" in2="BackgroundImageFix" result="effect1_dropShadow_915_11727"/>
<feBlend mode="normal" in="SourceGraphic" in2="effect1_dropShadow_915_11727" result="shape"/>
</filter>
<filter id="filter5_d_915_11727" x="318" y="341.5" width="44" height="49" filterUnits="userSpaceOnUse" color-interpolation-filters="sRGB">
<feFlood flood-opacity="0" result="BackgroundImageFix"/>
<feColorMatrix in="SourceAlpha" type="matrix" values="0 0 0 0 0 0 0 0 0 0 0 0 0 0 0 0 0 0 127 0" result="hardAlpha"/>
<feOffset/>
<feGaussianBlur stdDeviation="2"/>
<feComposite in2="hardAlpha" operator="out"/>
<feColorMatrix type="matrix" values="0 0 0 0 1 0 0 0 0 1 0 0 0 0 1 0 0 0 0.25 0"/>
<feBlend mode="normal" in2="BackgroundImageFix" result="effect1_dropShadow_915_11727"/>
<feBlend mode="normal" in="SourceGraphic" in2="effect1_dropShadow_915_11727" result="shape"/>
</filter>
</defs>
</svg>
