<svg width="152" height="24" viewBox="0 0 152 24" fill="none" xmlns="http://www.w3.org/2000/svg">
<g clip-path="url(#clip0_4031_2786)">
<path d="M36.1222 21.7275C36.0368 20.3931 35.9798 19.274 35.9513 17.9397C35.9513 16.1892 35.9513 14.7257 35.9513 12.9753C35.9454 12.0798 35.8306 11.1884 35.6095 10.321C35.4763 9.74707 35.2232 9.20836 34.8671 8.74076C34.5109 8.27316 34.0599 7.88741 33.5441 7.60922C32.9278 7.25603 32.2594 7.00417 31.5643 6.86313C29.3744 6.36143 27.1056 6.31748 24.8982 6.734C24.2775 6.8354 23.6705 7.00873 23.0893 7.25052C22.4091 7.52257 21.7992 7.9468 21.3057 8.49115C20.8122 9.0355 20.448 9.68573 20.2406 10.3927C20.0572 10.9071 19.9844 11.4548 20.0269 11.9997C20.0355 12.1048 20.0645 12.2071 20.1124 12.301L25.4965 12.4301C25.4787 12.1032 25.5271 11.7762 25.6389 11.4688C25.7182 11.2304 25.8505 11.0133 26.0258 10.8343C26.2011 10.6552 26.4146 10.5189 26.6502 10.4357C27.3455 10.185 28.1057 10.185 28.801 10.4357C29.0325 10.5046 29.2428 10.6315 29.4122 10.8047C29.5817 10.9779 29.7046 11.1916 29.7696 11.4257C29.8169 11.5693 29.83 11.722 29.8078 11.8716C29.7855 12.0212 29.7285 12.1634 29.6414 12.2866C29.4933 12.5101 29.2789 12.6808 29.0289 12.7744L28.5589 12.9323C27.8182 13.1331 27.1345 13.2623 26.4081 13.4057C25.6816 13.5492 25.2971 13.5923 24.6988 13.707C23.9237 13.864 23.158 14.0652 22.4056 14.3097C21.7211 14.5328 21.0937 14.9051 20.5682 15.4001C19.8602 16.0287 19.4044 16.896 19.2862 17.8392C19.1887 18.4645 19.2129 19.1028 19.3575 19.7188C19.5235 20.5258 19.9082 21.2707 20.4689 21.8709C21.0295 22.4711 21.7442 22.9032 22.5338 23.1192C24.2685 23.6486 26.1322 23.5522 27.8039 22.8466C28.6246 22.5375 29.3512 22.0182 29.912 21.3401L29.5274 18.571C29.2806 18.981 28.9118 19.3023 28.4734 19.4892C28.0592 19.6759 27.6156 19.7877 27.163 19.8192C26.8188 19.8476 26.4722 19.8186 26.1374 19.7331C25.8439 19.6644 25.5796 19.5036 25.3825 19.274C25.2087 19.0911 25.0902 18.8622 25.0407 18.614C24.9963 18.419 25.0061 18.2154 25.0689 18.0256C25.1317 17.8358 25.2451 17.6671 25.3968 17.5379C25.5947 17.3765 25.8156 17.246 26.052 17.1505C26.6787 16.921 27.22 16.7344 27.8609 16.5623C28.5929 16.357 29.3073 16.0932 29.9975 15.7731C30.0829 16.3246 30.0829 16.886 29.9975 17.4375C29.9431 17.8455 29.8022 18.237 29.5844 18.5853L29.912 21.3544C30.0402 21.7562 30.1399 22.0862 30.2681 22.4736C30.3408 22.6752 30.4521 22.8604 30.5957 23.0188H36.5211C36.2779 22.6311 36.1403 22.1857 36.1222 21.7275Z" fill="#777777"/>
<path d="M72.0158 21.7275C71.9161 20.3931 71.8734 19.274 71.8449 17.9397C71.8449 16.1892 71.8449 14.7257 71.8449 12.9753C71.8462 12.0793 71.7313 11.187 71.5031 10.321C71.3592 9.74961 71.1004 9.21411 70.7427 8.74765C70.385 8.28119 69.936 7.89371 69.4235 7.60922C68.8082 7.25376 68.1395 7.00175 67.4436 6.86313C65.2538 6.36143 62.985 6.31748 60.7776 6.734C60.1615 6.83547 59.5592 7.00881 58.9829 7.25052C58.301 7.51979 57.6896 7.9431 57.1957 8.48786C56.7018 9.03262 56.3387 9.68429 56.1342 10.3927C55.946 10.906 55.8683 11.4538 55.9063 11.9997C55.9214 12.1034 55.9502 12.2048 55.9917 12.301L61.3758 12.4301C61.358 12.1032 61.4065 11.7762 61.5183 11.4688C61.6155 11.2558 61.7556 11.0655 61.9297 10.9099C62.1038 10.7543 62.3081 10.6368 62.5296 10.5649C63.2249 10.3141 63.985 10.3141 64.6804 10.5649C64.9118 10.6337 65.1222 10.7607 65.2916 10.9338C65.461 11.107 65.584 11.3207 65.6489 11.5549C65.6999 11.6978 65.7149 11.8513 65.6925 12.0016C65.6702 12.1518 65.6111 12.2941 65.5207 12.4157C65.3726 12.6392 65.1583 12.8099 64.9083 12.9036L64.4382 13.0614C63.6975 13.2623 63.0138 13.3914 62.2874 13.5349C61.561 13.6783 61.1764 13.7214 60.5782 13.8362C59.8077 13.9931 59.0468 14.1943 58.2992 14.4388C57.608 14.6565 56.9749 15.0293 56.4475 15.5292C55.729 16.1532 55.2627 17.0211 55.1371 17.9683C55.0161 18.5889 55.0161 19.2273 55.1371 19.8479C55.3264 20.6472 55.7312 21.3782 56.3068 21.9605C56.8823 22.5428 57.6063 22.9537 58.3989 23.1479C60.1288 23.6775 61.9881 23.5811 63.6548 22.8753C64.4775 22.5632 65.201 22.0328 65.7486 21.3401L65.3783 18.571C65.1221 18.9784 64.7497 19.2984 64.31 19.4892C63.9068 19.6642 63.4792 19.7755 63.0423 19.8192C62.6699 19.8623 62.2928 19.833 61.9313 19.7331C61.6423 19.6458 61.3817 19.4823 61.1764 19.2597C60.997 19.0809 60.8774 18.8502 60.8346 18.5997C60.7914 18.4068 60.8018 18.2057 60.8646 18.0184C60.9274 17.8311 61.0402 17.6649 61.1907 17.5379C61.3882 17.3722 61.609 17.2368 61.8459 17.1362C62.4726 16.9066 63.0138 16.7344 63.6548 16.5623C64.3872 16.3524 65.1016 16.0837 65.7914 15.7588C65.8626 16.316 65.8626 16.8802 65.7914 17.4375C65.7441 17.8495 65.5974 18.2436 65.3641 18.5853L65.7486 21.3544C65.8626 21.7418 65.9765 22.0718 66.1047 22.4592C66.1774 22.6608 66.2887 22.8461 66.4323 23.0044H72.3577C72.1256 22.6201 72.007 22.1772 72.0158 21.7275Z" fill="#777777"/>
<path d="M100.048 6.59106C98.849 6.40454 97.6288 6.40454 96.4299 6.59106C94.6692 6.83986 93.0355 7.65515 91.7722 8.91541C90.3765 10.2329 89.5225 12.0301 89.3793 13.9515C89.2755 15.1165 89.3964 16.2906 89.7354 17.4093C90.1736 19.1474 91.1764 20.6878 92.5841 21.7854C93.5155 22.5008 94.5972 22.9916 95.7462 23.2202C97.376 23.5646 99.059 23.5646 100.689 23.2202C101.838 22.9916 102.92 22.5008 103.851 21.7854L100.418 18.0119C100.287 18.3023 100.101 18.5639 99.87 18.7816C99.6389 18.9994 99.3673 19.1691 99.071 19.2811C98.7746 19.393 98.4593 19.445 98.143 19.434C97.8266 19.4231 97.5156 19.3494 97.2276 19.2172C96.6863 18.9855 96.2532 18.5544 96.0169 18.0119C95.8027 17.5161 95.6497 16.9957 95.561 16.4624C95.376 15.3895 95.376 14.2926 95.561 13.2198C95.661 12.6606 95.8744 12.1282 96.1878 11.6558C96.5302 11.1371 97.0629 10.7763 97.669 10.6526C98.2751 10.5289 98.9052 10.6523 99.4211 10.9958C99.6834 11.1667 99.9067 11.3916 100.076 11.6558C100.404 12.1233 100.628 12.6569 100.732 13.2198C100.931 14.2913 100.931 15.3908 100.732 16.4624C100.655 16.9966 100.506 17.5179 100.29 18.0119L103.723 21.7854C105.132 20.6893 106.135 19.1483 106.571 17.4093C106.896 16.2877 107.002 15.1137 106.885 13.9515C106.742 12.0301 105.888 10.2329 104.492 8.91541C103.286 7.69463 101.733 6.88226 100.048 6.59106Z" fill="#777777"/>
<path d="M10.8964 16.0602H6.79423V10.7515H9.4293C9.94208 10.7515 10.3694 10.7515 10.8537 10.7515C11.1903 10.7377 11.5194 10.6465 11.8157 10.4849C12.1119 10.3232 12.3675 10.0954 12.5629 9.81887C12.7731 9.53144 12.9101 9.19642 12.9617 8.84322C12.9902 8.54739 12.9902 8.24949 12.9617 7.95366C12.9086 7.38913 12.6487 6.86475 12.2326 6.48278C11.8166 6.1008 11.2742 5.88861 10.7112 5.88757H6.76574V22.9902H0V0.521484H11.1101C11.5516 0.521484 11.9219 0.521484 12.3635 0.521484C13.3898 0.581865 14.3941 0.845488 15.3192 1.29727C16.2442 1.74905 17.0717 2.38013 17.7543 3.15439C18.437 3.92865 18.9614 4.8309 19.2975 5.80952C19.6336 6.78813 19.7749 7.8239 19.7132 8.85757C19.7208 9.00573 19.7208 9.15419 19.7132 9.30235C19.569 10.8604 18.9298 12.3301 17.8906 13.4932C16.8514 14.6563 15.4676 15.4508 13.9445 15.7589C12.9432 15.9759 11.9205 16.077 10.8964 16.0602Z" fill="#777777"/>
<path d="M80.8751 17.0932C81.3107 17.1611 81.7396 17.2667 82.1571 17.4089C82.3332 17.4649 82.491 17.5678 82.6138 17.7067C82.7367 17.8456 82.82 18.0153 82.855 18.198C82.8982 18.3939 82.8922 18.5975 82.8374 18.7904C82.7827 18.9833 82.6811 19.1595 82.5417 19.3028C82.256 19.5996 81.8799 19.7915 81.4734 19.848C80.9385 19.945 80.3875 19.8954 79.8781 19.7045C79.6351 19.6074 79.4091 19.4718 79.2086 19.3028C78.9469 19.0859 78.7538 18.7966 78.6531 18.4706C78.5664 18.1924 78.5278 17.9011 78.5392 17.6097H72.6423V17.9541C72.6325 18.4787 72.7244 19.0002 72.9129 19.4893C73.1916 20.2379 73.6461 20.9075 74.2376 21.4406C74.9858 22.1707 75.908 22.6945 76.9154 22.9615C78.9713 23.5742 81.1379 23.7115 83.2538 23.3632C84.2497 23.2202 85.2135 22.9047 86.1026 22.4306C86.4977 22.2291 86.8661 21.9784 87.1993 21.6845C87.9756 21.0571 88.5412 20.2039 88.819 19.2412C89.0968 18.2785 89.0733 17.2529 88.7519 16.3041C88.5379 15.5922 88.122 14.9589 87.5554 14.4819C86.7913 13.816 85.892 13.3264 84.9203 13.0471L84.2651 12.8749C83.0783 12.5332 81.8695 12.2743 80.6472 12.1002C80.3165 12.0499 79.9885 11.9828 79.6644 11.8993C79.5157 11.8733 79.3716 11.8249 79.2371 11.7558C79.0655 11.6772 78.9309 11.5345 78.8617 11.3578C78.7926 11.1811 78.7944 10.9843 78.8668 10.8089C78.9554 10.6447 79.0773 10.5011 79.2245 10.3874C79.3717 10.2737 79.541 10.1925 79.7214 10.1489C80.3592 9.9334 81.0493 9.9334 81.687 10.1489C81.9872 10.2436 82.2477 10.4357 82.4281 10.6952C82.6085 10.9548 82.6985 11.2672 82.6841 11.5836H88.3816C88.3841 10.9179 88.2683 10.257 88.0397 9.63234C87.8182 8.99915 87.417 8.44539 86.886 8.03973C86.4322 7.66882 85.9225 7.37335 85.3761 7.16451C84.8475 6.95781 84.2983 6.8087 83.7381 6.71973C82.4282 6.47624 81.0937 6.39434 79.7641 6.47581C78.9908 6.51915 78.2232 6.63442 77.4709 6.82016C76.4317 7.02886 75.4558 7.48106 74.6222 8.14016C73.9136 8.68346 73.3828 9.42805 73.0981 10.278C72.7618 11.3124 72.8124 12.4351 73.2405 13.4345C73.4535 13.998 73.7817 14.5102 74.2037 14.9378C74.6258 15.3654 75.1323 15.6989 75.6905 15.9167C76.2524 16.1433 76.8342 16.3162 77.4282 16.4332L80.8751 17.0932Z" fill="#777777"/>
<path d="M43.201 8.59966C43.9441 7.94023 44.7791 7.394 45.6794 6.97836C47.1556 6.26463 48.8456 6.14157 50.4083 6.63401C51.2499 6.86134 52.0193 7.3027 52.6429 7.91573C53.2664 8.52877 53.7231 9.29292 53.9692 10.1349C54.2251 10.937 54.3549 11.7745 54.3538 12.6171V23.0049H48.0011V13.6644C48.0095 13.3674 47.9662 13.0712 47.8729 12.7892C47.8005 12.5299 47.6705 12.2906 47.4929 12.0893C47.3152 11.888 47.0945 11.7299 46.8474 11.6271C46.3076 11.3941 45.7017 11.3691 45.1449 11.557C44.5881 11.7448 44.1193 12.1323 43.8277 12.6457C43.5643 13.0764 43.4307 13.5748 43.4431 14.0805V23.0479H37.3184V6.89227H43.087L43.201 8.59966Z" fill="#777777"/>
<path d="M113.949 8.59998C114.695 7.93734 115.535 7.39086 116.442 6.97868C117.888 6.28671 119.539 6.1639 121.071 6.63433C121.912 6.86167 122.682 7.30302 123.305 7.91605C123.929 8.52909 124.386 9.29324 124.632 10.1352C124.894 10.9357 125.024 11.7743 125.016 12.6174V23.0052H118.706V13.6648C118.709 13.3681 118.665 13.0729 118.578 12.7895C118.506 12.5303 118.376 12.2909 118.198 12.0896C118.02 11.8883 117.8 11.7303 117.553 11.6274C117.01 11.3967 116.403 11.3729 115.845 11.5604C115.287 11.7479 114.815 12.1339 114.519 12.6461C114.266 13.0807 114.138 13.5773 114.148 14.0809V23.0482H108.009V6.89259H113.707L113.949 8.59998Z" fill="#777777"/>
<path d="M132.267 6.90674H126.284V23.0193H132.267V6.90674Z" fill="#777777"/>
<path d="M132.267 0.464355H126.284V4.72566H132.267V0.464355Z" fill="#777777"/>
<path d="M148.319 20.9095C147.186 22.1479 145.688 22.9877 144.046 23.3056C142.941 23.5373 141.806 23.5906 140.685 23.4635C139.192 23.3353 137.768 22.7775 136.582 21.8565C135.597 21.1432 134.772 20.229 134.161 19.1735C133.682 18.361 133.359 17.4656 133.207 16.5335C132.98 15.2293 133.048 13.8905 133.406 12.6165C133.766 11.1395 134.54 9.79797 135.636 8.75227C136.732 7.70656 138.104 7.00088 139.588 6.71955C141.248 6.348 142.974 6.38739 144.616 6.83433C145.8 7.12101 146.886 7.72026 147.764 8.57042C148.345 9.07929 148.828 9.69223 149.188 10.3782C149.616 11.1833 149.813 12.0924 149.758 13.0039H144.288C144.238 12.6502 144.118 12.3103 143.934 12.0046C143.751 11.6989 143.508 11.4336 143.22 11.2248C142.857 10.9513 142.42 10.7952 141.968 10.7773C141.515 10.7593 141.067 10.8804 140.685 11.1243C140.156 11.4539 139.762 11.9627 139.574 12.5591C139.125 14.0024 139.125 15.5493 139.574 16.9926C139.732 17.6053 140.063 18.1585 140.528 18.5852C140.783 18.8387 141.094 19.028 141.436 19.1377C141.777 19.2474 142.14 19.2744 142.493 19.2165C142.946 19.1572 143.362 18.9325 143.661 18.5852C143.974 18.2348 144.182 17.8018 144.26 17.3369C144.26 17.0213 144.345 16.7056 144.374 16.3756H150.071C150.121 17.2139 149.99 18.0531 149.688 18.8357C149.385 19.6182 148.918 20.3257 148.319 20.9095Z" fill="#777777"/>
</g>
<defs>
<clipPath id="clip0_4031_2786">
<rect width="151.5" height="24" fill="white"/>
</clipPath>
</defs>
</svg>
