<svg width="120" height="30" viewBox="0 0 120 30" fill="none" xmlns="http://www.w3.org/2000/svg">
<g clip-path="url(#clip0_4031_3082)">
<path d="M99.6421 24.9772C96.5731 24.9772 94.7829 22.8147 94.7829 18.9632C94.7829 15.112 96.5228 12.9928 99.6421 12.9928C102.663 12.9928 104.452 15.1541 104.452 18.9192C104.452 22.8147 102.713 24.9772 99.6421 24.9772ZM104.452 8.5435V9.67014C102.681 8.46491 100.487 7.97447 99.3029 7.97447C92.6798 7.97447 88.119 12.4298 88.119 18.9632C88.119 25.4124 92.6798 30 99.1733 30C101.493 30 103.538 29.1213 105.239 28.1452C106.363 29.4121 107.989 29.9503 110.954 30V29.4242L110.958 8.5435H104.452ZM84.1524 8.52261V0.571523C81.0478 0.623503 79.3996 1.20149 78.2732 2.59946C77.4416 3.6664 77.2028 4.65998 77.1794 7.5258V8.52261H71.0279V0.571523C67.9258 0.623503 66.2801 1.20149 65.1515 2.59946C64.3223 3.66566 64.0808 4.66844 64.0582 7.5258L64.0569 8.52261L59.6262 8.5251C59.6647 10.8077 60.0893 12.0187 61.1194 12.8491C61.8116 13.3885 62.462 13.5895 64.0559 13.6407V22.5558C64.0559 25.8014 64.2748 26.839 65.1515 27.9651C66.2801 29.3621 67.9258 29.9398 71.0279 29.9913V13.6424H77.1764V22.556C77.1764 25.8014 77.3963 26.839 78.2732 27.9648C79.3999 29.3621 81.0478 29.9396 84.1524 29.9913V13.6407C85.7439 13.5895 86.3928 13.3885 87.0864 12.8491C88.1168 12.0187 88.5413 10.8077 88.5796 8.52535L84.1524 8.52261ZM116.563 4.75648H115.616V3.5617H116.703C117.319 3.5617 117.56 3.73132 117.56 4.14914C117.56 4.59681 117.3 4.75648 116.563 4.75648ZM118.126 6.16116C118.066 5.35486 117.999 5.19494 117.609 5.00593C117.999 4.81666 118.178 4.52742 118.178 4.09965C118.178 3.71042 117.999 3.40327 117.668 3.21302C117.458 3.09289 117.241 3.0439 116.862 3.0439H114.999V6.85803H115.616V5.24468H116.624C117.371 5.24468 117.479 5.37376 117.528 6.36982C117.541 6.59988 117.58 6.75905 117.66 6.85803H118.395L118.266 6.72895C118.197 6.62947 118.158 6.4805 118.126 6.16116ZM116.534 7.93443C114.921 7.93443 113.596 6.59988 113.596 4.95644C113.596 3.2829 114.909 1.96875 116.572 1.96875C118.158 1.96875 119.47 3.32344 119.47 4.94698C119.47 6.59988 118.158 7.93443 116.534 7.93443ZM116.583 1.48054C114.62 1.48054 113.067 3.0143 113.067 4.95644C113.067 6.86848 114.62 8.42139 116.534 8.42139C118.444 8.42139 120 6.86848 120 4.95644C120 3.0531 118.444 1.48054 116.583 1.48054ZM13.6431 23.5083H7.63157V16.8433H13.4662C16.537 16.8433 17.941 17.8814 17.941 20.1759C17.941 22.4677 16.5823 23.5083 13.6431 23.5083ZM7.63157 6.32829H12.8967C15.6593 6.32829 16.8879 7.19428 16.8879 9.14164C16.8879 10.9602 15.5275 11.9122 13.0728 11.9122H7.63157V6.32829ZM14.9585 29.4337C17.9832 29.4337 20.0463 28.9569 21.7996 27.9191C24.3442 26.4027 25.7043 23.895 25.7043 20.7823C25.7043 18.2273 24.7826 16.2344 22.9855 14.8977C22.2386 14.3338 21.9767 14.2053 20.4852 13.6424C23.029 12.344 24.3034 10.3966 24.3034 7.79938C24.3034 5.16187 22.8512 2.78052 20.528 1.65538C18.9925 0.920207 17.0628 0.574259 14.0353 0.574259H0V21.9939C0 25.2386 0.220105 26.2766 1.09555 27.4025C2.28188 28.8716 4.039 29.4337 7.45772 29.4337H14.9585ZM35.1082 8.53554H28.1354V21.9939C28.1354 25.2386 28.3543 26.839 29.2312 27.9648C30.3596 29.3621 32.0036 29.9396 35.1042 29.9913L35.1082 8.53554ZM48.8928 24.9774C46.2602 24.9774 44.7252 22.8147 44.7252 18.963C44.7252 15.1123 46.2179 12.9928 48.8928 12.9928C51.4786 12.9928 53.0143 15.1541 53.0143 18.9197C53.0143 22.8147 51.5231 24.9774 48.8928 24.9774ZM48.8467 7.97447C42.2242 7.97447 37.6641 12.4305 37.6641 18.963C37.6641 25.4119 42.2242 29.9995 48.7159 29.9995C55.5593 29.9995 60.0766 25.5415 60.0766 18.8774C60.0766 12.3872 55.5593 7.97447 48.8467 7.97447ZM31.6519 7.00054C29.5404 7.00054 27.8268 5.43171 27.8268 3.50126C27.8268 1.56634 29.5404 0 31.6519 0C33.7624 0 35.477 1.56609 35.477 3.50151C35.477 5.43171 33.7624 7.00054 31.6519 7.00054Z" fill="#777777"/>
</g>
<defs>
<clipPath id="clip0_4031_3082">
<rect width="120" height="30" fill="white"/>
</clipPath>
</defs>
</svg>
