<svg width="90" height="59" viewBox="0 0 90 59" fill="none" xmlns="http://www.w3.org/2000/svg">
<g clip-path="url(#clip0_4031_2824)">
<path d="M44.9998 1.53662C59.3749 1.53664 72.5953 5.56212 77.9558 8.27393C82.8164 10.7298 88.1936 13.3225 88.659 20.3491C89.176 28.041 88.8486 36.0565 86.6941 39.3481C84.7809 42.2817 82.3336 46.5798 70.2166 52.481C58.1167 58.3821 44.9477 58.1772 44.9822 58.1431C45.0167 58.1772 31.8659 58.382 19.7488 52.481C7.64888 46.5798 5.18353 42.2817 3.27029 39.3481C1.13318 36.0563 0.788409 28.0408 1.30545 20.3491C1.78805 13.3225 7.16562 10.7298 12.0261 8.27393C17.4039 5.56212 30.6247 1.53662 44.9998 1.53662ZM44.9998 12.8423C30.6247 12.8423 14.9733 15.1107 10.7332 16.9868C6.63129 18.8117 6.18283 20.7731 5.95877 23.7065C5.71748 27.0149 6.04505 31.7729 6.88943 33.2231C7.64782 34.5193 8.61347 37.2145 16.3006 40.8472C21.0578 43.0985 25.9538 44.2757 29.2976 44.9067C29.4525 44.941 29.5554 45.0601 29.5554 45.2134V45.52C29.5554 51.1994 36.4845 55.8046 45.0164 55.8218C53.5656 55.8047 60.4773 51.1995 60.4773 45.52V45.2134C60.4773 45.0599 60.5986 44.9233 60.7537 44.8892C64.0803 44.2581 68.9585 43.0818 73.7156 40.8306C81.3857 37.1978 82.3683 34.5198 83.1267 33.2065C83.954 31.7568 84.2983 27.0157 84.0398 23.6899C83.8157 20.7564 83.3677 18.8112 79.2654 16.9692C75.0251 15.0932 59.3919 12.8423 44.9998 12.8423Z" fill="#777777"/>
<path d="M35.1406 19.1206C31.4865 19.1206 30.0731 21.7559 29.8318 25.2126C29.7974 25.5891 29.7974 25.9827 29.7974 26.3763C29.7974 27.4715 29.9008 28.4982 30.1076 29.4223H33.1929C33.0206 28.5667 33.0033 27.5228 33.0033 26.3763C33.0033 25.9656 33.0033 25.5891 33.0206 25.2126C33.1067 22.9538 33.5032 21.2768 35.1406 21.2768C36.6574 21.2768 37.1573 22.9538 37.2607 25.2126C37.2779 25.5891 37.2779 25.9827 37.2779 26.3763C37.2779 27.5228 37.209 28.5667 37.0194 29.4223C36.7436 30.6715 36.1748 31.4929 35.1234 31.4929C33.9513 31.4929 33.417 30.6886 33.1757 29.4223H30.0904C30.6764 31.9036 32.1587 33.6148 35.1234 33.6148C38.0536 33.6148 39.5531 31.9036 40.1564 29.4223C40.3805 28.4982 40.4839 27.4715 40.4839 26.3763C40.4839 25.9827 40.4667 25.5891 40.4322 25.2126C40.2081 21.7559 38.7775 19.1206 35.1406 19.1206ZM57.2204 19.4457V25.2126V29.4223V33.2555H59.9782V30.141L60.5298 29.4223L60.9607 28.8747L61.2537 29.4223L63.2531 33.2555H66.2867L64.1839 29.4223L62.736 26.8041L63.9081 25.2126L65.8386 22.5944H62.805L60.9607 25.2126L59.9955 26.5816V25.2126V19.4457H57.2204ZM10.6133 19.5142V25.2126V29.4223V33.2555H15.405C18.4041 33.2555 19.8003 32.0405 20.3174 29.4223H17.0942C16.7667 30.4662 16.1289 30.8768 14.9051 30.8768H13.5779V29.4223V25.2126V21.7388H14.8362C16.8356 21.7388 17.2838 22.9196 17.3699 25.2126H20.5414C20.4035 21.7217 19.4555 19.5142 15.5774 19.5142H10.6133ZM20.5587 25.2126H17.3872C17.4044 25.5207 17.4044 25.8458 17.4044 26.188C17.4044 27.6426 17.3355 28.6865 17.1114 29.4052H20.3346C20.507 28.4982 20.5931 27.4373 20.5931 26.188C20.5759 25.8629 20.5759 25.5378 20.5587 25.2126ZM52.0667 20.3698V22.4746H50.6706V24.3399H52.0667V25.2126V29.4223V30.4319C52.0667 32.5881 52.4632 33.2555 54.6177 33.2555C55.2555 33.2555 55.807 33.187 56.4103 33.1357V31.2362C56.2207 31.2533 56.0139 31.2704 55.7898 31.2704C54.9969 31.2704 54.8073 30.9282 54.8073 30.1068V29.4223V25.2126V24.3399H56.4103V22.4746H54.8073V20.3698H52.0667ZM45.8789 21.9955C45.1722 21.9955 44.5344 22.1324 43.9484 22.4062C43.3796 22.68 42.8798 23.0736 42.4661 23.587C42.1041 24.0319 41.8111 24.5795 41.6043 25.2126C41.5698 25.2982 41.5526 25.4009 41.5181 25.4864C41.294 26.2223 41.1906 27.0266 41.1906 27.9164C41.1906 28.4469 41.2251 28.9431 41.3112 29.4223C41.4147 29.987 41.5526 30.4833 41.7594 30.9453C42.1386 31.8009 42.6902 32.4512 43.4141 32.9303C44.138 33.3924 44.9826 33.632 45.9651 33.632C46.8096 33.632 47.5508 33.4779 48.2058 33.1528C48.8608 32.8277 49.3779 32.3827 49.7743 31.8009C50.188 31.2191 50.4293 30.5517 50.4982 29.7988H47.6025C47.4819 30.2779 47.275 30.6544 46.9648 30.9282C46.6545 31.202 46.3098 31.3389 45.8961 31.3389C45.3446 31.3389 44.8964 31.0993 44.5517 30.6373C44.3104 30.3121 44.1552 29.9186 44.0691 29.4394C44.0346 29.2341 44.0174 29.0116 44.0174 28.7891V28.6693H50.5844V28.2244C50.5844 27.1977 50.481 26.3078 50.2914 25.572C50.2569 25.4522 50.2224 25.3495 50.188 25.2297C49.9984 24.6308 49.7054 24.1003 49.3606 23.6212C49.1021 23.2789 48.7918 22.988 48.4126 22.7484C48.0507 22.5089 47.637 22.3206 47.2061 22.2008C46.7924 22.0639 46.3443 21.9955 45.8789 21.9955ZM70.3545 21.9955C69.6478 21.9955 68.9928 22.1324 68.424 22.4062C67.8552 22.68 67.3726 23.0736 66.9417 23.587C66.5798 24.0319 66.2867 24.5795 66.0799 25.2126C66.0454 25.2982 66.0282 25.4009 65.9937 25.4864C65.7696 26.2223 65.6662 27.0266 65.6662 27.9164C65.6662 28.4469 65.7007 28.9431 65.7869 29.4223C65.8731 29.987 66.0282 30.4833 66.235 30.9453C66.6142 31.8009 67.1658 32.4512 67.8725 32.9303C68.5964 33.3924 69.4582 33.632 70.4235 33.632C71.268 33.632 72.0092 33.4779 72.6642 33.1528C73.3192 32.8277 73.8535 32.3827 74.2499 31.8009C74.6636 31.2191 74.8877 30.5517 74.9566 29.7988H72.0782C71.9575 30.2779 71.7507 30.6544 71.4404 30.9282C71.1302 31.202 70.7682 31.3389 70.3718 31.3389C69.8202 31.3389 69.372 31.0993 69.0273 30.6373C68.786 30.3121 68.6136 29.9186 68.5447 29.4394C68.5102 29.2341 68.493 29.0116 68.493 28.7891V28.6693H75.06V28.2244C75.06 27.1977 74.9566 26.3078 74.767 25.572C74.7326 25.4522 74.6981 25.3495 74.6636 25.2297C74.474 24.6308 74.181 24.1003 73.819 23.6212C73.5605 23.2789 73.2502 22.988 72.871 22.7484C72.5091 22.5089 72.0954 22.3206 71.6645 22.2008C71.268 22.0639 70.8199 21.9955 70.3545 21.9955ZM26.8844 22.3206C25.7468 22.3206 24.9712 22.988 24.4196 24.0148H24.3679V22.5944H21.7307V25.2126H25.3676C25.7123 25.0244 26.126 24.9388 26.5224 24.9388C26.7982 24.9388 27.0912 24.9559 27.3843 24.9731V22.3549C27.2291 22.3377 27.0395 22.3206 26.8844 22.3206ZM21.7307 25.2126V29.4223V33.2555H24.4886V29.4223V26.8554C24.4886 26.0169 24.8678 25.4864 25.3848 25.2126H21.7307ZM81.179 22.3206C80.0414 22.3206 79.2657 22.988 78.7142 24.0148H78.6624V22.5944H76.0253V25.2126H79.6622C80.0069 25.0244 80.4206 24.9388 80.817 24.9388C81.0928 24.9388 81.3858 24.9559 81.6788 24.9731V22.3549C81.5064 22.3377 81.3341 22.3206 81.179 22.3206ZM76.0253 25.2126V29.4223V33.2555H78.7831V29.4223V26.8554C78.7831 26.0169 79.1623 25.4864 79.6622 25.2126H76.0253ZM45.9134 24.203C46.4132 24.203 46.8096 24.3912 47.0854 24.7677C47.1888 24.8875 47.275 25.0415 47.344 25.2126C47.4991 25.5549 47.6025 25.9656 47.6715 26.479H44.0518C44.1035 25.9827 44.2242 25.5549 44.3966 25.2126C44.4655 25.0586 44.5689 24.9217 44.6723 24.7848C44.9826 24.3912 45.4135 24.203 45.9134 24.203ZM70.389 24.203C70.8888 24.203 71.2853 24.3912 71.5611 24.7677C71.6645 24.8875 71.7507 25.0415 71.8196 25.2126C71.9747 25.5549 72.0782 25.9656 72.1471 26.479H68.5275C68.5792 25.9827 68.6826 25.5549 68.855 25.2126C68.9239 25.0586 69.0273 24.9217 69.1307 24.7848C69.4755 24.3912 69.8891 24.203 70.389 24.203ZM25.4193 30.9111V33.2555H27.7807V30.9111H25.4193Z" fill="#454545"/>
<path d="M44.7762 39.8019C44.5349 39.819 44.2591 39.8703 44.0867 39.8361C43.9316 39.819 43.7593 39.8361 43.6041 39.8019C43.4835 39.7848 43.3628 39.7848 43.2422 39.819C43.0526 39.8361 42.8974 39.9046 42.7595 39.9901C42.6217 40.0928 42.2425 40.5891 42.1563 40.6575C42.0873 40.726 41.8288 40.9313 41.7081 41.0511C41.5702 41.188 41.4496 41.4789 41.4151 41.6329C41.3979 41.7869 41.3979 42.095 41.4151 42.1805C41.4323 42.249 41.4151 42.3688 41.3979 42.4543C41.3806 42.5399 41.3117 42.8308 41.2945 42.865C41.26 42.8992 41.2427 43.1046 41.2427 43.3955C41.2427 43.6864 41.26 43.8575 41.2255 44.0458C41.191 44.234 41.1738 44.4394 40.8118 44.833C40.4499 45.2265 40.4671 45.295 40.4326 45.3805C40.3982 45.4661 40.3809 45.5346 40.4671 45.6715C40.5705 45.8084 40.6222 45.8084 40.7084 45.8768C40.7774 45.9453 41.0531 45.9966 40.967 46.3046C40.8635 46.6298 41.0531 46.6469 41.0531 46.7667C41.0531 46.8864 41.0187 46.9207 41.0359 47.0233C41.0531 47.126 41.1393 47.2629 41.1393 47.3485C41.1393 47.5025 41.1566 47.6052 41.1049 47.9988C41.1049 47.9988 41.0531 48.4779 41.7254 48.649C42.3976 48.8202 42.863 49.0255 43.0181 49.2651C43.1732 49.5046 43.1905 49.8298 43.1043 50.1207C43.0181 50.4116 42.8285 50.7196 42.3631 51.0277C41.8805 51.3699 41.0531 51.6437 40.0534 52.1913C39.0537 52.7389 38.8814 53.0127 38.7262 53.218C38.6056 53.3721 38.4332 53.6972 38.3987 53.9025C38.3815 54.0737 38.3298 54.3475 38.6401 54.4844C38.9848 54.6384 39.2089 54.587 39.2089 54.587H51.1709C51.1709 54.587 51.6707 54.6555 51.9293 54.3475C52.1878 54.0223 51.9638 53.4063 51.9121 53.2694C51.8431 53.0983 51.5846 52.7902 51.326 52.5849C51.0502 52.3453 50.1539 51.7977 49.6713 51.541C49.2749 51.3357 47.9649 50.5998 47.4478 49.9838C46.9825 49.4362 46.7929 48.7688 46.9308 48.3923C47.0859 48.0159 47.3789 47.9816 47.5857 47.9988C47.7581 48.0159 48.2062 48.1185 48.3786 48.0843C48.5854 48.033 48.775 47.9645 48.9646 47.6394C49.1542 47.3143 49.6886 47.2116 49.8092 47.126C49.9299 47.0576 50.5159 46.6811 50.5504 46.1164C50.6021 45.3634 50.3091 45.3634 50.2057 44.5763C50.1195 43.7891 49.9643 43.6693 49.6713 43.3271C49.43 43.0533 49.2404 42.4372 49.137 42.1976C48.9474 41.7356 48.5337 41.4789 48.3441 41.4276C48.1545 41.3762 47.603 41.1196 47.3617 40.8458C47.1548 40.6233 46.8101 40.281 46.4998 40.2126C46.2068 40.1441 45.6725 40.127 45.5001 40.0415C45.3105 39.9388 45.0003 39.8361 44.9486 39.8532C44.9141 39.8361 45.0175 39.8019 44.7762 39.8019ZM30.6079 47.9645C30.6079 42.7795 37.0543 38.5869 45.0175 38.5869C52.9807 38.5869 59.4271 42.7966 59.4271 47.9645C59.4271 53.1496 52.9807 57.3421 45.0175 57.3421C37.0543 57.3421 30.6079 53.1496 30.6079 47.9645Z" fill="#777777"/>
</g>
<defs>
<clipPath id="clip0_4031_2824">
<rect width="90" height="58.5" fill="white"/>
</clipPath>
</defs>
</svg>
