<svg width="250" height="250" viewBox="0 0 250 250" fill="none" xmlns="http://www.w3.org/2000/svg">
<rect width="250" height="250" rx="125" fill="#E12229"/>
<path d="M86.1701 133.5V116.7H98.4341V119.316H89.2901V130.884H98.7701V133.5H86.1701ZM89.0501 126.252V123.684H97.4021V126.252H89.0501ZM103.736 133.5V117.9L105.104 119.316H100.184V116.7H106.856V133.5H103.736ZM109.973 133.5V131.412L116.645 125.076C117.205 124.548 117.621 124.084 117.893 123.684C118.165 123.284 118.341 122.916 118.421 122.58C118.517 122.228 118.565 121.9 118.565 121.596C118.565 120.828 118.301 120.236 117.773 119.82C117.245 119.388 116.469 119.172 115.445 119.172C114.629 119.172 113.885 119.316 113.213 119.604C112.557 119.892 111.989 120.332 111.509 120.924L109.325 119.244C109.981 118.364 110.861 117.684 111.965 117.204C113.085 116.708 114.333 116.46 115.709 116.46C116.925 116.46 117.981 116.66 118.877 117.06C119.789 117.444 120.485 117.996 120.965 118.716C121.461 119.436 121.709 120.292 121.709 121.284C121.709 121.828 121.637 122.372 121.493 122.916C121.349 123.444 121.077 124.004 120.677 124.596C120.277 125.188 119.693 125.852 118.925 126.588L113.189 132.036L112.541 130.86H122.357V133.5H109.973ZM123.942 133.5V131.412L130.614 125.076C131.174 124.548 131.59 124.084 131.862 123.684C132.134 123.284 132.31 122.916 132.39 122.58C132.486 122.228 132.534 121.9 132.534 121.596C132.534 120.828 132.27 120.236 131.742 119.82C131.214 119.388 130.438 119.172 129.414 119.172C128.598 119.172 127.854 119.316 127.182 119.604C126.526 119.892 125.958 120.332 125.478 120.924L123.294 119.244C123.95 118.364 124.83 117.684 125.934 117.204C127.054 116.708 128.302 116.46 129.678 116.46C130.894 116.46 131.95 116.66 132.846 117.06C133.758 117.444 134.454 117.996 134.934 118.716C135.43 119.436 135.678 120.292 135.678 121.284C135.678 121.828 135.606 122.372 135.462 122.916C135.318 123.444 135.046 124.004 134.646 124.596C134.246 125.188 133.662 125.852 132.894 126.588L127.158 132.036L126.51 130.86H136.326V133.5H123.942ZM137.91 133.5V131.412L144.582 125.076C145.142 124.548 145.558 124.084 145.83 123.684C146.102 123.284 146.278 122.916 146.358 122.58C146.454 122.228 146.502 121.9 146.502 121.596C146.502 120.828 146.238 120.236 145.71 119.82C145.182 119.388 144.406 119.172 143.382 119.172C142.566 119.172 141.822 119.316 141.15 119.604C140.494 119.892 139.926 120.332 139.446 120.924L137.262 119.244C137.918 118.364 138.798 117.684 139.902 117.204C141.022 116.708 142.27 116.46 143.646 116.46C144.862 116.46 145.918 116.66 146.814 117.06C147.726 117.444 148.422 117.996 148.902 118.716C149.398 119.436 149.646 120.292 149.646 121.284C149.646 121.828 149.574 122.372 149.43 122.916C149.286 123.444 149.014 124.004 148.614 124.596C148.214 125.188 147.63 125.852 146.862 126.588L141.126 132.036L140.478 130.86H150.294V133.5H137.91ZM156.799 133.74C155.951 133.74 155.143 133.652 154.375 133.476C153.607 133.3 152.943 133.028 152.383 132.66L153.535 130.308C153.999 130.612 154.503 130.828 155.047 130.956C155.591 131.068 156.151 131.124 156.727 131.124C158.311 131.124 159.567 130.636 160.495 129.66C161.423 128.684 161.887 127.244 161.887 125.34C161.887 125.036 161.879 124.684 161.863 124.284C161.847 123.868 161.791 123.452 161.695 123.036L162.655 124.092C162.383 124.748 161.991 125.3 161.479 125.748C160.967 126.18 160.367 126.508 159.679 126.732C158.991 126.956 158.231 127.068 157.399 127.068C156.311 127.068 155.327 126.86 154.447 126.444C153.583 126.012 152.895 125.412 152.383 124.644C151.871 123.86 151.615 122.948 151.615 121.908C151.615 120.788 151.887 119.828 152.431 119.028C152.975 118.212 153.711 117.58 154.639 117.132C155.583 116.684 156.623 116.46 157.759 116.46C159.295 116.46 160.599 116.788 161.671 117.444C162.759 118.084 163.591 119.02 164.167 120.252C164.743 121.484 165.031 123.004 165.031 124.812C165.031 126.732 164.679 128.356 163.975 129.684C163.287 131.012 162.327 132.02 161.095 132.708C159.863 133.396 158.431 133.74 156.799 133.74ZM157.999 124.62C158.671 124.62 159.263 124.5 159.775 124.26C160.287 124.004 160.687 123.66 160.975 123.228C161.263 122.78 161.407 122.284 161.407 121.74C161.407 121.212 161.271 120.74 160.999 120.324C160.727 119.892 160.335 119.548 159.823 119.292C159.311 119.036 158.679 118.908 157.927 118.908C157.287 118.908 156.719 119.028 156.223 119.268C155.727 119.492 155.335 119.82 155.047 120.252C154.775 120.668 154.639 121.172 154.639 121.764C154.639 122.644 154.943 123.34 155.551 123.852C156.159 124.364 156.975 124.62 157.999 124.62Z" fill="#FEE934"/>
</svg>
