<svg width="250" height="250" viewBox="0 0 250 250" fill="none" xmlns="http://www.w3.org/2000/svg">
<rect width="250" height="250" rx="125" fill="#5E2A2C"/>
<path d="M85.0537 133.74C83.8697 133.74 82.7097 133.572 81.5737 133.236C80.4537 132.884 79.5097 132.404 78.7417 131.796L80.0617 129.372C80.6697 129.868 81.4057 130.268 82.2697 130.572C83.1497 130.876 84.0617 131.028 85.0057 131.028C86.1097 131.028 86.9737 130.796 87.5977 130.332C88.2377 129.868 88.5577 129.244 88.5577 128.46C88.5577 127.932 88.4217 127.468 88.1497 127.068C87.8937 126.668 87.4297 126.364 86.7577 126.156C86.1017 125.948 85.1977 125.844 84.0457 125.844H79.9897L80.8537 116.7H90.7177V119.316H82.0057L83.6377 117.828L82.9897 124.668L81.3577 123.204H84.7417C86.4057 123.204 87.7417 123.428 88.7497 123.876C89.7737 124.308 90.5177 124.916 90.9817 125.7C91.4617 126.468 91.7017 127.348 91.7017 128.34C91.7017 129.316 91.4617 130.212 90.9817 131.028C90.5017 131.844 89.7657 132.5 88.7737 132.996C87.7977 133.492 86.5577 133.74 85.0537 133.74ZM94.7013 133.5V116.7H106.965V119.316H97.8213V130.884H107.301V133.5H94.7013ZM97.5813 126.252V123.684H105.933V126.252H97.5813ZM109.246 133.5V131.412L115.918 125.076C116.478 124.548 116.894 124.084 117.166 123.684C117.438 123.284 117.614 122.916 117.694 122.58C117.79 122.228 117.838 121.9 117.838 121.596C117.838 120.828 117.574 120.236 117.046 119.82C116.518 119.388 115.742 119.172 114.718 119.172C113.902 119.172 113.158 119.316 112.486 119.604C111.83 119.892 111.262 120.332 110.782 120.924L108.598 119.244C109.254 118.364 110.134 117.684 111.238 117.204C112.358 116.708 113.606 116.46 114.982 116.46C116.198 116.46 117.254 116.66 118.15 117.06C119.062 117.444 119.758 117.996 120.238 118.716C120.734 119.436 120.982 120.292 120.982 121.284C120.982 121.828 120.91 122.372 120.766 122.916C120.622 123.444 120.35 124.004 119.95 124.596C119.55 125.188 118.966 125.852 118.198 126.588L112.462 132.036L111.814 130.86H121.63V133.5H109.246ZM122.278 133.5L129.838 116.7H132.91L140.494 133.5H137.23L130.726 118.356H131.974L125.494 133.5H122.278ZM125.758 129.612L126.598 127.164H135.67L136.51 129.612H125.758ZM141.215 133.5V131.412L147.887 125.076C148.447 124.548 148.863 124.084 149.135 123.684C149.407 123.284 149.583 122.916 149.663 122.58C149.759 122.228 149.807 121.9 149.807 121.596C149.807 120.828 149.543 120.236 149.015 119.82C148.487 119.388 147.711 119.172 146.687 119.172C145.871 119.172 145.127 119.316 144.455 119.604C143.799 119.892 143.231 120.332 142.751 120.924L140.567 119.244C141.223 118.364 142.103 117.684 143.207 117.204C144.327 116.708 145.575 116.46 146.951 116.46C148.167 116.46 149.223 116.66 150.119 117.06C151.031 117.444 151.727 117.996 152.207 118.716C152.703 119.436 152.951 120.292 152.951 121.284C152.951 121.828 152.879 122.372 152.735 122.916C152.591 123.444 152.319 124.004 151.919 124.596C151.519 125.188 150.935 125.852 150.167 126.588L144.431 132.036L143.783 130.86H153.599V133.5H141.215ZM164.376 133.74C163.096 133.74 161.904 133.532 160.8 133.116C159.712 132.684 158.76 132.084 157.944 131.316C157.144 130.532 156.52 129.612 156.072 128.556C155.624 127.5 155.4 126.348 155.4 125.1C155.4 123.852 155.624 122.7 156.072 121.644C156.52 120.588 157.152 119.676 157.968 118.908C158.784 118.124 159.736 117.524 160.824 117.108C161.912 116.676 163.104 116.46 164.4 116.46C165.776 116.46 167.032 116.7 168.168 117.18C169.304 117.644 170.264 118.34 171.048 119.268L169.032 121.164C168.424 120.508 167.744 120.02 166.992 119.7C166.24 119.364 165.424 119.196 164.544 119.196C163.664 119.196 162.856 119.34 162.12 119.628C161.4 119.916 160.768 120.324 160.224 120.852C159.696 121.38 159.28 122.004 158.976 122.724C158.688 123.444 158.544 124.236 158.544 125.1C158.544 125.964 158.688 126.756 158.976 127.476C159.28 128.196 159.696 128.82 160.224 129.348C160.768 129.876 161.4 130.284 162.12 130.572C162.856 130.86 163.664 131.004 164.544 131.004C165.424 131.004 166.24 130.844 166.992 130.524C167.744 130.188 168.424 129.684 169.032 129.012L171.048 130.932C170.264 131.844 169.304 132.54 168.168 133.02C167.032 133.5 165.768 133.74 164.376 133.74Z" fill="#00A717"/>
</svg>
