<svg width="250" height="250" viewBox="0 0 250 250" fill="none" xmlns="http://www.w3.org/2000/svg">
<rect width="250" height="250" rx="125" fill="#FEE934"/>
<path d="M81.0021 133.5V116.7H93.2661V119.316H84.1221V133.5H81.0021ZM83.8581 127.068V124.428H92.2341V127.068H83.8581ZM96.2833 133.5V116.7H108.547V119.316H99.4033V130.884H108.883V133.5H96.2833ZM99.1633 126.252V123.684H107.515V126.252H99.1633ZM112.361 133.5V116.7H124.625V119.316H115.481V130.884H124.961V133.5H112.361ZM115.241 126.252V123.684H123.593V126.252H115.241ZM131.944 133.74C131.096 133.74 130.288 133.652 129.52 133.476C128.752 133.3 128.088 133.028 127.528 132.66L128.68 130.308C129.144 130.612 129.648 130.828 130.192 130.956C130.736 131.068 131.296 131.124 131.872 131.124C133.456 131.124 134.712 130.636 135.64 129.66C136.568 128.684 137.032 127.244 137.032 125.34C137.032 125.036 137.024 124.684 137.008 124.284C136.992 123.868 136.936 123.452 136.84 123.036L137.8 124.092C137.528 124.748 137.136 125.3 136.624 125.748C136.112 126.18 135.512 126.508 134.824 126.732C134.136 126.956 133.376 127.068 132.544 127.068C131.456 127.068 130.472 126.86 129.592 126.444C128.728 126.012 128.04 125.412 127.528 124.644C127.016 123.86 126.76 122.948 126.76 121.908C126.76 120.788 127.032 119.828 127.576 119.028C128.12 118.212 128.856 117.58 129.784 117.132C130.728 116.684 131.768 116.46 132.904 116.46C134.44 116.46 135.744 116.788 136.816 117.444C137.904 118.084 138.736 119.02 139.312 120.252C139.888 121.484 140.176 123.004 140.176 124.812C140.176 126.732 139.824 128.356 139.12 129.684C138.432 131.012 137.472 132.02 136.24 132.708C135.008 133.396 133.576 133.74 131.944 133.74ZM133.144 124.62C133.816 124.62 134.408 124.5 134.92 124.26C135.432 124.004 135.832 123.66 136.12 123.228C136.408 122.78 136.552 122.284 136.552 121.74C136.552 121.212 136.416 120.74 136.144 120.324C135.872 119.892 135.48 119.548 134.968 119.292C134.456 119.036 133.824 118.908 133.072 118.908C132.432 118.908 131.864 119.028 131.368 119.268C130.872 119.492 130.48 119.82 130.192 120.252C129.92 120.668 129.784 121.172 129.784 121.764C129.784 122.644 130.088 123.34 130.696 123.852C131.304 124.364 132.12 124.62 133.144 124.62ZM147.332 133.74C146.148 133.74 144.988 133.572 143.852 133.236C142.732 132.884 141.788 132.404 141.02 131.796L142.364 129.372C142.972 129.868 143.708 130.268 144.572 130.572C145.436 130.876 146.34 131.028 147.284 131.028C148.404 131.028 149.276 130.804 149.9 130.356C150.524 129.892 150.836 129.268 150.836 128.484C150.836 127.716 150.548 127.108 149.972 126.66C149.396 126.212 148.468 125.988 147.188 125.988H145.652V123.852L150.452 118.14L150.86 119.316H141.836V116.7H153.284V118.788L148.484 124.5L146.852 123.54H147.788C149.852 123.54 151.396 124.004 152.42 124.932C153.46 125.844 153.98 127.02 153.98 128.46C153.98 129.404 153.74 130.276 153.26 131.076C152.78 131.876 152.044 132.524 151.052 133.02C150.076 133.5 148.836 133.74 147.332 133.74ZM155.781 129.684V127.524L164.061 116.7H167.397L159.237 127.524L157.677 127.044H170.997V129.684H155.781ZM164.997 133.5V129.684L165.093 127.044V123.66H168.021V133.5H164.997Z" fill="#5E2A2C"/>
</svg>
