<svg width="250" height="250" viewBox="0 0 250 250" fill="none" xmlns="http://www.w3.org/2000/svg">
<rect width="250" height="250" rx="125" fill="#00A717"/>
<path d="M89.3531 133.74C88.0251 133.74 86.8251 133.404 85.7531 132.732C84.6971 132.06 83.8651 131.084 83.2571 129.804C82.6491 128.508 82.3451 126.94 82.3451 125.1C82.3451 123.26 82.6491 121.7 83.2571 120.42C83.8651 119.124 84.6971 118.14 85.7531 117.468C86.8251 116.796 88.0251 116.46 89.3531 116.46C90.6971 116.46 91.8971 116.796 92.9531 117.468C94.0091 118.14 94.8411 119.124 95.4491 120.42C96.0731 121.7 96.3851 123.26 96.3851 125.1C96.3851 126.94 96.0731 128.508 95.4491 129.804C94.8411 131.084 94.0091 132.06 92.9531 132.732C91.8971 133.404 90.6971 133.74 89.3531 133.74ZM89.3531 131.028C90.1371 131.028 90.8171 130.82 91.3931 130.404C91.9691 129.972 92.4171 129.316 92.7371 128.436C93.0731 127.556 93.2411 126.444 93.2411 125.1C93.2411 123.74 93.0731 122.628 92.7371 121.764C92.4171 120.884 91.9691 120.236 91.3931 119.82C90.8171 119.388 90.1371 119.172 89.3531 119.172C88.6011 119.172 87.9291 119.388 87.3371 119.82C86.7611 120.236 86.3051 120.884 85.9691 121.764C85.6491 122.628 85.4891 123.74 85.4891 125.1C85.4891 126.444 85.6491 127.556 85.9691 128.436C86.3051 129.316 86.7611 129.972 87.3371 130.404C87.9291 130.82 88.6011 131.028 89.3531 131.028ZM105.502 133.74C104.174 133.74 102.974 133.404 101.902 132.732C100.846 132.06 100.014 131.084 99.4055 129.804C98.7975 128.508 98.4935 126.94 98.4935 125.1C98.4935 123.26 98.7975 121.7 99.4055 120.42C100.014 119.124 100.846 118.14 101.902 117.468C102.974 116.796 104.174 116.46 105.502 116.46C106.846 116.46 108.046 116.796 109.102 117.468C110.158 118.14 110.99 119.124 111.598 120.42C112.222 121.7 112.534 123.26 112.534 125.1C112.534 126.94 112.222 128.508 111.598 129.804C110.99 131.084 110.158 132.06 109.102 132.732C108.046 133.404 106.846 133.74 105.502 133.74ZM105.502 131.028C106.286 131.028 106.966 130.82 107.542 130.404C108.118 129.972 108.566 129.316 108.886 128.436C109.222 127.556 109.39 126.444 109.39 125.1C109.39 123.74 109.222 122.628 108.886 121.764C108.566 120.884 108.118 120.236 107.542 119.82C106.966 119.388 106.286 119.172 105.502 119.172C104.75 119.172 104.078 119.388 103.486 119.82C102.91 120.236 102.454 120.884 102.118 121.764C101.798 122.628 101.638 123.74 101.638 125.1C101.638 126.444 101.798 127.556 102.118 128.436C102.454 129.316 102.91 129.972 103.486 130.404C104.078 130.82 104.75 131.028 105.502 131.028ZM113.232 133.5L120.792 116.7H123.864L131.448 133.5H128.184L121.68 118.356H122.928L116.448 133.5H113.232ZM116.712 129.612L117.552 127.164H126.624L127.464 129.612H116.712ZM133.997 133.5L140.933 117.948L141.749 119.34H132.221L133.709 117.828V122.196H130.805V116.7H143.861V118.788L137.333 133.5H133.997ZM148.713 133.5V117.9L150.081 119.316H145.161V116.7H151.833V133.5H148.713ZM157.973 133.5L164.909 117.948L165.725 119.34H156.197L157.685 117.828V122.196H154.781V116.7H167.837V118.788L161.309 133.5H157.973Z" fill="#FEE934"/>
</svg>
