<svg width="113" height="38" viewBox="0 0 113 38" fill="none" xmlns="http://www.w3.org/2000/svg">
<rect x="0.5" y="0.5" width="112" height="37" rx="18.5" stroke="#00A717"/>
<path d="M27.596 24V14.2H31.824C32.916 14.2 33.7607 14.4193 34.358 14.858C34.9647 15.2967 35.268 15.9173 35.268 16.72C35.268 17.252 35.142 17.7 34.89 18.064C34.6473 18.428 34.3113 18.7033 33.882 18.89C33.462 19.0767 33 19.17 32.496 19.17L32.734 18.834C33.3593 18.834 33.896 18.932 34.344 19.128C34.8013 19.3147 35.156 19.5993 35.408 19.982C35.66 20.3553 35.786 20.822 35.786 21.382C35.786 22.2127 35.478 22.8567 34.862 23.314C34.2553 23.7713 33.336 24 32.104 24H27.596ZM28.632 23.146H32.09C32.9487 23.146 33.6067 23.0013 34.064 22.712C34.5213 22.4133 34.75 21.942 34.75 21.298C34.75 20.6633 34.5213 20.2013 34.064 19.912C33.6067 19.6133 32.9487 19.464 32.09 19.464H28.52V18.61H31.754C32.538 18.61 33.1447 18.4607 33.574 18.162C34.0127 17.8633 34.232 17.42 34.232 16.832C34.232 16.2347 34.0127 15.7913 33.574 15.502C33.1447 15.2033 32.538 15.054 31.754 15.054H28.632V23.146ZM42.0987 24.084C40.848 24.084 39.8634 23.7247 39.1447 23.006C38.426 22.2873 38.0667 21.2233 38.0667 19.814V14.2H39.1027V19.772C39.1027 20.9293 39.364 21.7833 39.8867 22.334C40.4094 22.8847 41.1467 23.16 42.0987 23.16C43.06 23.16 43.802 22.8847 44.3247 22.334C44.8474 21.7833 45.1087 20.9293 45.1087 19.772V14.2H46.1167V19.814C46.1167 21.2233 45.7574 22.2873 45.0387 23.006C44.3294 23.7247 43.3494 24.084 42.0987 24.084ZM50.9512 24V15.096H47.5072V14.2H55.4312V15.096H51.9872V24H50.9512ZM59.127 24V15.096H55.683V14.2H63.607V15.096H60.163V24H59.127ZM69.4093 24.084C68.672 24.084 67.986 23.9627 67.3513 23.72C66.726 23.468 66.18 23.118 65.7133 22.67C65.256 22.2127 64.8966 21.6853 64.6353 21.088C64.3833 20.4813 64.2573 19.8187 64.2573 19.1C64.2573 18.3813 64.3833 17.7233 64.6353 17.126C64.8966 16.5193 65.256 15.992 65.7133 15.544C66.18 15.0867 66.726 14.7367 67.3513 14.494C67.9766 14.242 68.6626 14.116 69.4093 14.116C70.1466 14.116 70.828 14.242 71.4533 14.494C72.0786 14.7367 72.62 15.082 73.0773 15.53C73.544 15.978 73.9033 16.5053 74.1553 17.112C74.4166 17.7187 74.5473 18.3813 74.5473 19.1C74.5473 19.8187 74.4166 20.4813 74.1553 21.088C73.9033 21.6947 73.544 22.222 73.0773 22.67C72.62 23.118 72.0786 23.468 71.4533 23.72C70.828 23.9627 70.1466 24.084 69.4093 24.084ZM69.4093 23.16C69.9973 23.16 70.5386 23.062 71.0333 22.866C71.5373 22.6607 71.9713 22.376 72.3353 22.012C72.7086 21.6387 72.998 21.2093 73.2033 20.724C73.4086 20.2293 73.5113 19.688 73.5113 19.1C73.5113 18.512 73.4086 17.9753 73.2033 17.49C72.998 16.9953 72.7086 16.566 72.3353 16.202C71.9713 15.8287 71.5373 15.544 71.0333 15.348C70.5386 15.1427 69.9973 15.04 69.4093 15.04C68.8213 15.04 68.2753 15.1427 67.7713 15.348C67.2673 15.544 66.8286 15.8287 66.4553 16.202C66.0913 16.566 65.802 16.9953 65.5873 17.49C65.382 17.9753 65.2793 18.512 65.2793 19.1C65.2793 19.6787 65.382 20.2153 65.5873 20.71C65.802 21.2047 66.0913 21.6387 66.4553 22.012C66.8286 22.376 67.2673 22.6607 67.7713 22.866C68.2753 23.062 68.8213 23.16 69.4093 23.16ZM76.8694 24V14.2H77.7234L84.4854 22.712H84.0374V14.2H85.0594V24H84.2054L77.4574 15.488H77.9054V24H76.8694Z" fill="#00A717"/>
</svg>
