<svg width="313" height="18" viewBox="0 0 313 18" fill="none" xmlns="http://www.w3.org/2000/svg">
<path d="M0.000140727 17.04V0.240038H2.56814L9.91214 12.504H8.56814L15.7921 0.240038H18.3601L18.3841 17.04H15.4321L15.4081 4.87204H16.0321L9.88814 15.12H8.49614L2.25614 4.87204H2.97614V17.04H0.000140727ZM30.794 17.28C29.482 17.28 28.274 17.064 27.17 16.632C26.066 16.2 25.106 15.6 24.29 14.832C23.474 14.048 22.842 13.136 22.394 12.096C21.946 11.04 21.722 9.88804 21.722 8.64004C21.722 7.39204 21.946 6.24804 22.394 5.20804C22.842 4.15204 23.474 3.24004 24.29 2.47204C25.106 1.68804 26.066 1.08004 27.17 0.648038C28.274 0.216038 29.474 3.8147e-05 30.77 3.8147e-05C32.082 3.8147e-05 33.282 0.216038 34.37 0.648038C35.474 1.08004 36.434 1.68804 37.25 2.47204C38.066 3.24004 38.698 4.15204 39.146 5.20804C39.594 6.24804 39.818 7.39204 39.818 8.64004C39.818 9.88804 39.594 11.04 39.146 12.096C38.698 13.152 38.066 14.064 37.25 14.832C36.434 15.6 35.474 16.2 34.37 16.632C33.282 17.064 32.09 17.28 30.794 17.28ZM30.77 14.544C31.618 14.544 32.402 14.4 33.122 14.112C33.842 13.824 34.466 13.416 34.994 12.888C35.522 12.344 35.93 11.72 36.218 11.016C36.522 10.296 36.674 9.50404 36.674 8.64004C36.674 7.77604 36.522 6.99204 36.218 6.28804C35.93 5.56804 35.522 4.94404 34.994 4.41604C34.466 3.87204 33.842 3.45604 33.122 3.16804C32.402 2.88004 31.618 2.73604 30.77 2.73604C29.922 2.73604 29.138 2.88004 28.418 3.16804C27.714 3.45604 27.09 3.87204 26.546 4.41604C26.018 4.94404 25.602 5.56804 25.298 6.28804C25.01 6.99204 24.866 7.77604 24.866 8.64004C24.866 9.48804 25.01 10.272 25.298 10.992C25.602 11.712 26.018 12.344 26.546 12.888C27.074 13.416 27.698 13.824 28.418 14.112C29.138 14.4 29.922 14.544 30.77 14.544ZM43.1251 17.04V0.240038H45.6931L56.2291 13.176H54.9571V0.240038H58.0531V17.04H55.4851L44.9491 4.10404H46.2211V17.04H43.1251ZM65.9628 17.04V2.88004H60.3948V0.240038H74.6508V2.88004H69.0828V17.04H65.9628ZM82.0363 17.28C80.7243 17.28 79.4683 17.096 78.2683 16.728C77.0683 16.344 76.1163 15.856 75.4123 15.264L76.4923 12.84C77.1643 13.368 77.9963 13.808 78.9883 14.16C79.9803 14.512 80.9963 14.688 82.0363 14.688C82.9163 14.688 83.6283 14.592 84.1723 14.4C84.7163 14.208 85.1163 13.952 85.3723 13.632C85.6283 13.296 85.7563 12.92 85.7563 12.504C85.7563 11.992 85.5723 11.584 85.2043 11.28C84.8363 10.96 84.3563 10.712 83.7643 10.536C83.1883 10.344 82.5403 10.168 81.8203 10.008C81.1163 9.84804 80.4043 9.66404 79.6843 9.45604C78.9803 9.23204 78.3323 8.95204 77.7403 8.61604C77.1643 8.26404 76.6923 7.80004 76.3243 7.22404C75.9563 6.64804 75.7723 5.91204 75.7723 5.01604C75.7723 4.10404 76.0123 3.27204 76.4923 2.52004C76.9883 1.75204 77.7323 1.14404 78.7243 0.696038C79.7323 0.232038 81.0043 3.8147e-05 82.5403 3.8147e-05C83.5483 3.8147e-05 84.5483 0.128038 85.5403 0.384039C86.5323 0.640038 87.3963 1.00804 88.1323 1.48804L87.1483 3.91204C86.3963 3.46404 85.6203 3.13604 84.8203 2.92804C84.0203 2.70404 83.2523 2.59204 82.5163 2.59204C81.6523 2.59204 80.9483 2.69604 80.4043 2.90404C79.8763 3.11204 79.4843 3.38404 79.2283 3.72004C78.9883 4.05604 78.8683 4.44004 78.8683 4.87204C78.8683 5.38404 79.0443 5.80004 79.3963 6.12004C79.7643 6.42404 80.2363 6.66404 80.8123 6.84004C81.4043 7.01604 82.0603 7.19204 82.7803 7.36804C83.5003 7.52804 84.2123 7.71204 84.9163 7.92004C85.6363 8.12804 86.2843 8.40004 86.8603 8.73604C87.4523 9.07204 87.9243 9.52804 88.2763 10.104C88.6443 10.68 88.8283 11.408 88.8283 12.288C88.8283 13.184 88.5803 14.016 88.0843 14.784C87.6043 15.536 86.8603 16.144 85.8523 16.608C84.8443 17.056 83.5723 17.28 82.0363 17.28ZM91.922 17.04V0.240038H104.186V2.85604H95.042V14.424H104.522V17.04H91.922ZM94.802 9.79204V7.22404H103.154V9.79204H94.802ZM108 17.04V0.240038H114.888C117.128 0.240038 118.88 0.768038 120.144 1.82404C121.424 2.88004 122.064 4.34404 122.064 6.21604C122.064 7.44804 121.776 8.51204 121.2 9.40804C120.624 10.288 119.8 10.968 118.728 11.448C117.672 11.912 116.4 12.144 114.912 12.144H109.728L111.12 10.728V17.04H108ZM118.992 17.04L114.744 10.944H118.08L122.352 17.04H118.992ZM111.12 11.064L109.728 9.57604H114.768C116.144 9.57604 117.176 9.28004 117.864 8.68804C118.568 8.09604 118.92 7.27204 118.92 6.21604C118.92 5.14404 118.568 4.32004 117.864 3.74404C117.176 3.16804 116.144 2.88004 114.768 2.88004H109.728L111.12 1.34404V11.064ZM125.555 17.04V0.240038H132.443C134.683 0.240038 136.435 0.768038 137.699 1.82404C138.979 2.88004 139.619 4.34404 139.619 6.21604C139.619 7.44804 139.331 8.51204 138.755 9.40804C138.179 10.288 137.355 10.968 136.283 11.448C135.227 11.912 133.955 12.144 132.467 12.144H127.283L128.675 10.728V17.04H125.555ZM136.547 17.04L132.299 10.944H135.635L139.907 17.04H136.547ZM128.675 11.064L127.283 9.57604H132.323C133.699 9.57604 134.731 9.28004 135.419 8.68804C136.123 8.09604 136.475 7.27204 136.475 6.21604C136.475 5.14404 136.123 4.32004 135.419 3.74404C134.731 3.16804 133.699 2.88004 132.323 2.88004H127.283L128.675 1.34404V11.064ZM140.734 17.04L148.294 0.240038H151.366L158.95 17.04H155.686L149.182 1.89604H150.43L143.95 17.04H140.734ZM144.214 13.152L145.054 10.704H154.126L154.966 13.152H144.214ZM163.65 17.04V2.88004H158.082V0.240038H172.338V2.88004H166.77V17.04H163.65ZM186.521 17.28C185.209 17.28 183.953 17.096 182.753 16.728C181.553 16.344 180.601 15.856 179.897 15.264L180.977 12.84C181.649 13.368 182.481 13.808 183.473 14.16C184.465 14.512 185.481 14.688 186.521 14.688C187.401 14.688 188.113 14.592 188.657 14.4C189.201 14.208 189.601 13.952 189.857 13.632C190.113 13.296 190.241 12.92 190.241 12.504C190.241 11.992 190.057 11.584 189.689 11.28C189.321 10.96 188.841 10.712 188.249 10.536C187.673 10.344 187.025 10.168 186.305 10.008C185.601 9.84804 184.889 9.66404 184.169 9.45604C183.465 9.23204 182.817 8.95204 182.225 8.61604C181.649 8.26404 181.177 7.80004 180.809 7.22404C180.441 6.64804 180.257 5.91204 180.257 5.01604C180.257 4.10404 180.497 3.27204 180.977 2.52004C181.473 1.75204 182.217 1.14404 183.209 0.696038C184.217 0.232038 185.489 3.8147e-05 187.025 3.8147e-05C188.033 3.8147e-05 189.033 0.128038 190.025 0.384039C191.017 0.640038 191.881 1.00804 192.617 1.48804L191.633 3.91204C190.881 3.46404 190.105 3.13604 189.305 2.92804C188.505 2.70404 187.737 2.59204 187.001 2.59204C186.137 2.59204 185.433 2.69604 184.889 2.90404C184.361 3.11204 183.969 3.38404 183.713 3.72004C183.473 4.05604 183.353 4.44004 183.353 4.87204C183.353 5.38404 183.529 5.80004 183.881 6.12004C184.249 6.42404 184.721 6.66404 185.297 6.84004C185.889 7.01604 186.545 7.19204 187.265 7.36804C187.985 7.52804 188.697 7.71204 189.401 7.92004C190.121 8.12804 190.769 8.40004 191.345 8.73604C191.937 9.07204 192.409 9.52804 192.761 10.104C193.129 10.68 193.313 11.408 193.313 12.288C193.313 13.184 193.065 14.016 192.569 14.784C192.089 15.536 191.345 16.144 190.337 16.608C189.329 17.056 188.057 17.28 186.521 17.28ZM196.406 17.04V0.240038H208.67V2.85604H199.526V14.424H209.006V17.04H196.406ZM199.286 9.79204V7.22404H207.638V9.79204H199.286ZM212.485 17.04V0.240038H215.053L222.397 12.504H221.053L228.277 0.240038H230.845L230.869 17.04H227.917L227.893 4.87204H228.517L222.373 15.12H220.981L214.741 4.87204H215.461V17.04H212.485ZM235.406 17.04V0.240038H238.526V17.04H235.406ZM243.07 17.04V0.240038H250.942C252.958 0.240038 254.494 0.640038 255.55 1.44004C256.606 2.22404 257.134 3.28004 257.134 4.60804C257.134 5.50404 256.926 6.27204 256.51 6.91204C256.094 7.53604 255.534 8.02404 254.83 8.37604C254.142 8.71204 253.39 8.88004 252.574 8.88004L253.006 8.01604C253.95 8.01604 254.798 8.19204 255.55 8.54404C256.302 8.88004 256.894 9.37604 257.326 10.032C257.774 10.688 257.998 11.504 257.998 12.48C257.998 13.92 257.446 15.04 256.342 15.84C255.238 16.64 253.598 17.04 251.422 17.04H243.07ZM246.19 14.592H251.23C252.398 14.592 253.294 14.4 253.918 14.016C254.542 13.632 254.854 13.016 254.854 12.168C254.854 11.336 254.542 10.728 253.918 10.344C253.294 9.94404 252.398 9.74404 251.23 9.74404H245.95V7.32004H250.606C251.694 7.32004 252.526 7.12804 253.102 6.74404C253.694 6.36004 253.99 5.78404 253.99 5.01604C253.99 4.23204 253.694 3.64804 253.102 3.26404C252.526 2.88004 251.694 2.68804 250.606 2.68804H246.19V14.592ZM269.2 17.28C267.888 17.28 266.68 17.064 265.576 16.632C264.472 16.2 263.512 15.6 262.696 14.832C261.88 14.048 261.248 13.136 260.8 12.096C260.352 11.04 260.128 9.88804 260.128 8.64004C260.128 7.39204 260.352 6.24804 260.8 5.20804C261.248 4.15204 261.88 3.24004 262.696 2.47204C263.512 1.68804 264.472 1.08004 265.576 0.648038C266.68 0.216038 267.88 3.8147e-05 269.176 3.8147e-05C270.488 3.8147e-05 271.688 0.216038 272.776 0.648038C273.88 1.08004 274.84 1.68804 275.656 2.47204C276.472 3.24004 277.104 4.15204 277.552 5.20804C278 6.24804 278.224 7.39204 278.224 8.64004C278.224 9.88804 278 11.04 277.552 12.096C277.104 13.152 276.472 14.064 275.656 14.832C274.84 15.6 273.88 16.2 272.776 16.632C271.688 17.064 270.496 17.28 269.2 17.28ZM269.176 14.544C270.024 14.544 270.808 14.4 271.528 14.112C272.248 13.824 272.872 13.416 273.4 12.888C273.928 12.344 274.336 11.72 274.624 11.016C274.928 10.296 275.08 9.50404 275.08 8.64004C275.08 7.77604 274.928 6.99204 274.624 6.28804C274.336 5.56804 273.928 4.94404 273.4 4.41604C272.872 3.87204 272.248 3.45604 271.528 3.16804C270.808 2.88004 270.024 2.73604 269.176 2.73604C268.328 2.73604 267.544 2.88004 266.824 3.16804C266.12 3.45604 265.496 3.87204 264.952 4.41604C264.424 4.94404 264.008 5.56804 263.704 6.28804C263.416 6.99204 263.272 7.77604 263.272 8.64004C263.272 9.48804 263.416 10.272 263.704 10.992C264.008 11.712 264.424 12.344 264.952 12.888C265.48 13.416 266.104 13.824 266.824 14.112C267.544 14.4 268.328 14.544 269.176 14.544ZM281.531 17.04V0.240038H284.651V14.4H293.435V17.04H281.531ZM295.899 17.04V0.240038H303.243C305.067 0.240038 306.667 0.592038 308.043 1.29604C309.419 2.00004 310.491 2.97604 311.259 4.22404C312.027 5.47204 312.411 6.94404 312.411 8.64004C312.411 10.32 312.027 11.792 311.259 13.056C310.491 14.304 309.419 15.28 308.043 15.984C306.667 16.688 305.067 17.04 303.243 17.04H295.899ZM299.019 14.4H303.099C304.347 14.4 305.435 14.16 306.363 13.68C307.291 13.2 308.003 12.528 308.499 11.664C309.011 10.8 309.267 9.79204 309.267 8.64004C309.267 7.47204 309.011 6.46404 308.499 5.61604C308.003 4.75204 307.291 4.08004 306.363 3.60004C305.435 3.12004 304.347 2.88004 303.099 2.88004H299.019V14.4Z" fill="#282828"/>
</svg>
