<svg width="297" height="57" viewBox="0 0 297 57" fill="none" xmlns="http://www.w3.org/2000/svg">
<path d="M16.8701 54.25C16.1234 54.25 15.5634 54.11 15.1901 53.83C14.8634 53.55 14.7001 53.0833 14.7001 52.43V43.26C14.0934 42.84 12.9501 42.4667 11.2701 42.14C9.59006 41.8133 8.00339 41.6033 6.51006 41.51C5.99673 42.49 5.62339 43.68 5.39006 45.08L5.11006 46.48C5.06339 46.8067 4.92339 47.53 4.69006 48.65C4.45673 49.77 4.20006 50.75 3.92006 51.59C3.64006 52.3833 3.36006 53.0133 3.08006 53.48C1.30673 53.48 0.280059 53.0133 5.86584e-05 52.08C0.513392 51.3333 1.09673 49.14 1.75006 45.5L4.06006 32.69C5.08673 26.6233 6.02006 21.4433 6.86006 17.15C7.74673 12.8567 8.68006 9.26333 9.66006 6.37C10.7334 3.15 11.7601 1.54 12.7401 1.54C13.7201 1.54 14.4667 1.72666 14.9801 2.1C14.9801 3.96666 15.4234 8.47 16.3101 15.61C17.2434 22.61 17.7101 27.3933 17.7101 29.96C17.7101 32.4333 17.9667 35.98 18.4801 40.6C18.9467 45.3133 19.1801 49.07 19.1801 51.87C19.1801 53.4567 18.4101 54.25 16.8701 54.25ZM13.2301 39.2C13.6034 39.2 14.0701 39.13 14.6301 38.99C14.4901 36.9367 14.2567 34.3933 13.9301 31.36C12.8567 20.8133 12.3201 14.35 12.3201 11.97V11.41C11.8534 11.8767 11.2001 14 10.3601 17.78C9.56673 21.5133 8.82006 25.5267 8.12006 29.82C7.42006 34.1133 7.04673 36.96 7.00006 38.36C8.96006 38.92 11.0367 39.2 13.2301 39.2ZM47.6427 56.07C47.1761 56.07 46.8027 55.8367 46.5227 55.37C46.2427 54.9033 46.1027 54.2267 46.1027 53.34L46.0327 42.98C45.986 42.0933 45.9627 40.6233 45.9627 38.57C45.8694 34.23 45.8227 29.33 45.8227 23.87V20.3C45.4027 22.54 44.6794 25.69 43.6527 29.75C42.626 33.95 41.9027 37.4033 41.4827 40.11V40.53L41.2727 41.86C41.1794 42.8867 40.946 43.9367 40.5727 45.01C40.106 46.13 39.3827 46.69 38.4027 46.69C36.7227 46.69 35.8827 44.4967 35.8827 40.11C35.8827 37.6833 35.626 35.0933 35.1127 32.34C34.646 29.54 33.876 26.11 32.8027 22.05L30.7027 14.21L30.5627 22.61C30.5627 25.13 30.6794 29.9367 30.9127 37.03L31.0527 41.79L31.1927 51.38C31.1927 52.36 30.8427 53.2467 30.1427 54.04C28.976 54.04 28.1594 53.69 27.6927 52.99C27.2727 52.2433 27.0627 51.17 27.0627 49.77L27.2027 44.03C27.3427 41.51 27.4127 39.62 27.4127 38.36L27.2727 24.85L27.1327 11.27C27.1327 9.26333 27.1794 6.25333 27.2727 2.24L29.1627 1.12C29.536 1.16666 29.9094 1.44667 30.2827 1.96C30.656 2.42666 31.076 3.19666 31.5427 4.27C32.7094 7.16333 34.226 12.95 36.0927 21.63C36.3727 22.8433 36.5594 23.8467 36.6527 24.64C37.2127 27.3467 37.6094 29.4 37.8427 30.8L38.8927 36.19L39.3827 33.88L40.7127 28.14C41.4594 24.78 42.066 21.84 42.5327 19.32C43.046 16.8 43.536 14.07 44.0027 11.13C44.516 7.63 44.8427 4.71333 44.9827 2.38V1.96C45.076 1.35333 45.356 0.886664 45.8227 0.559999C46.2894 0.186665 46.8494 -2.5034e-06 47.5027 -2.5034e-06C47.9227 -2.5034e-06 48.296 0.186665 48.6227 0.559999C48.9494 0.93333 49.1127 1.33 49.1127 1.75C49.1127 7.35 49.3227 15.7267 49.7427 26.88C49.976 32.34 50.1394 37.6833 50.2327 42.91C50.326 45.29 50.3727 48.3 50.3727 51.94C50.3727 53.0133 50.0927 53.97 49.5327 54.81C48.9727 55.65 48.3427 56.07 47.6427 56.07ZM73.0615 54.25C72.3148 54.25 71.7548 54.11 71.3815 53.83C71.0548 53.55 70.8915 53.0833 70.8915 52.43V43.26C70.2848 42.84 69.1415 42.4667 67.4615 42.14C65.7815 41.8133 64.1948 41.6033 62.7015 41.51C62.1881 42.49 61.8148 43.68 61.5815 45.08L61.3015 46.48C61.2548 46.8067 61.1148 47.53 60.8815 48.65C60.6481 49.77 60.3915 50.75 60.1115 51.59C59.8315 52.3833 59.5515 53.0133 59.2715 53.48C57.4981 53.48 56.4715 53.0133 56.1915 52.08C56.7048 51.3333 57.2881 49.14 57.9415 45.5L60.2515 32.69C61.2781 26.6233 62.2115 21.4433 63.0515 17.15C63.9381 12.8567 64.8715 9.26333 65.8515 6.37C66.9248 3.15 67.9515 1.54 68.9315 1.54C69.9115 1.54 70.6581 1.72666 71.1715 2.1C71.1715 3.96666 71.6148 8.47 72.5015 15.61C73.4348 22.61 73.9015 27.3933 73.9015 29.96C73.9015 32.4333 74.1581 35.98 74.6715 40.6C75.1381 45.3133 75.3715 49.07 75.3715 51.87C75.3715 53.4567 74.6015 54.25 73.0615 54.25ZM69.4215 39.2C69.7948 39.2 70.2615 39.13 70.8215 38.99C70.6815 36.9367 70.4481 34.3933 70.1215 31.36C69.0481 20.8133 68.5115 14.35 68.5115 11.97V11.41C68.0448 11.8767 67.3915 14 66.5515 17.78C65.7581 21.5133 65.0115 25.5267 64.3115 29.82C63.6115 34.1133 63.2381 36.96 63.1915 38.36C65.1515 38.92 67.2281 39.2 69.4215 39.2ZM88.9241 54.74C88.2241 54.74 87.6641 54.4133 87.2441 53.76C86.8708 53.06 86.6841 52.22 86.6841 51.24C86.6841 49.7 86.7775 47.81 86.9641 45.57L87.1041 43.75L87.2441 40.04C87.2441 38.4067 87.0808 34.7667 86.7541 29.12C86.4275 23.4733 86.2641 19.8333 86.2641 18.2C86.2641 18.06 86.2641 17.8033 86.2641 17.43C86.3108 17.01 86.3341 16.38 86.3341 15.54C86.3808 14.6067 86.4041 13.4633 86.4041 12.11C86.4041 8.70333 86.1708 6.53333 85.7041 5.6C85.4241 5.6 84.8175 5.67 83.8841 5.81L81.9241 5.95C81.3175 5.95 80.7808 5.78666 80.3141 5.46C79.8475 5.08666 79.6141 4.62 79.6141 4.06C79.6141 3.5 80.1741 3.01 81.2941 2.59C82.9275 2.03 85.7041 1.63333 89.6241 1.4C91.2108 1.30666 92.1675 1.26 92.4941 1.26C93.0541 1.26 93.5675 1.44667 94.0341 1.82C94.5008 2.19333 94.7341 2.66 94.7341 3.22C94.7341 3.78 94.5241 4.24667 94.1041 4.62C93.7308 4.94666 93.2408 5.11 92.6341 5.11L91.3741 5.04C91.0008 4.99333 90.5808 4.97 90.1141 4.97H89.4141C89.7408 8.14333 89.9041 11.0133 89.9041 13.58L89.8341 18.06C89.7875 19.4133 89.7641 20.93 89.7641 22.61C89.7641 24.85 89.8575 27.5333 90.0441 30.66C90.2775 34.5333 90.3941 37.2167 90.3941 38.71C90.3941 40.4833 90.4875 42.5833 90.6741 45.01C90.8608 47.4833 90.9541 49.5833 90.9541 51.31C90.9541 53.5967 90.2775 54.74 88.9241 54.74ZM106.404 54.18C102.391 54.18 100.384 53.48 100.384 52.08C100.384 50.96 101.084 50.4 102.484 50.4H103.324C103.511 50.4467 103.721 50.47 103.954 50.47C104.328 50.47 104.584 50.3533 104.724 50.12C104.911 49.8867 105.004 49.4667 105.004 48.86C105.004 44.8933 104.771 39.48 104.304 32.62C103.884 25.48 103.674 20.09 103.674 16.45C103.674 15.1433 103.698 13.9533 103.744 12.88L103.814 9.31C103.814 7.77 103.744 6.48667 103.604 5.46C103.091 5.64667 102.554 5.74 101.994 5.74C100.921 5.74 100.384 5.18 100.384 4.06C100.384 3.5 100.711 3.01 101.364 2.59C102.064 2.17 102.951 1.86666 104.024 1.68C105.984 1.35333 107.641 1.19 108.994 1.19C109.554 1.19 110.021 1.37666 110.394 1.75C110.814 2.12333 111.024 2.56666 111.024 3.08C111.024 3.59333 110.861 4.03667 110.534 4.41C110.254 4.78333 109.881 4.97 109.414 4.97C109.134 4.97 108.901 4.94666 108.714 4.9H108.154C107.688 4.9 107.338 5.01666 107.104 5.25C106.918 5.43666 106.824 5.81 106.824 6.37C106.824 11.3167 107.128 18.13 107.734 26.81C108.294 35.91 108.574 42.7467 108.574 47.32V49.98C108.901 49.9333 109.368 49.91 109.974 49.91C111.934 49.91 112.914 50.7267 112.914 52.36V52.78L111.164 53.97C111.118 53.97 110.978 53.9933 110.744 54.04C110.511 54.04 110.044 54.04 109.344 54.04C107.758 54.1333 106.778 54.18 106.404 54.18ZM129.633 55.37C128.326 55.37 127.113 55.0667 125.993 54.46C124.92 53.8533 123.986 53.0367 123.193 52.01C122.493 51.03 121.863 49.7933 121.303 48.3C120.743 46.76 120.323 45.1733 120.043 43.54C119.483 40.7867 119.11 37.17 118.923 32.69C118.876 31.6167 118.853 29.7733 118.853 27.16V22.75C118.9 21.49 118.923 20.1833 118.923 18.83C118.923 16.0767 119.086 13.9067 119.413 12.32C119.273 11.62 119.203 10.8967 119.203 10.15C119.203 7.35 120.253 5.08666 122.353 3.36C124.453 1.63333 127.113 0.769996 130.333 0.769996C131.546 0.769996 132.666 1.09666 133.693 1.75C134.72 2.40333 135.233 3.22 135.233 4.2C135.233 4.66666 135.046 5.04 134.673 5.32C134.3 5.6 133.833 5.74 133.273 5.74C132.806 5.74 132.293 5.67 131.733 5.53C131.22 5.39 130.893 5.18 130.753 4.9H129.843V4.76C128.116 4.76 126.67 5.13333 125.503 5.88C124.663 6.48666 124.01 7.49 123.543 8.89C123.356 9.40333 123.216 10.0567 123.123 10.85C123.03 11.6433 122.983 12.3667 122.983 13.02C122.936 13.3933 122.913 14.14 122.913 15.26L123.053 17.71L123.123 20.09C123.123 20.79 123.03 21.6067 122.843 22.54C122.61 23.7067 122.493 24.5233 122.493 24.99V26.67C122.493 28.49 122.563 30.9867 122.703 34.16C122.75 36.82 123.053 39.48 123.613 42.14C124.033 44.6133 124.826 46.7133 125.993 48.44C127.113 50.2133 128.63 51.1 130.543 51.1C131.336 51.1 132.316 50.68 133.483 49.84C134.743 49 135.63 48.58 136.143 48.58C136.796 48.58 137.473 48.93 138.173 49.63C138.173 51.3567 137.52 52.6867 136.213 53.62C135 54.46 133.553 54.9967 131.873 55.23C130.94 55.3233 130.193 55.37 129.633 55.37ZM160.33 55.79C158.65 55.79 157.203 55.4867 155.99 54.88C155.243 54.46 154.87 53.97 154.87 53.41C154.87 52.85 155.01 52.4067 155.29 52.08C155.57 51.7067 155.967 51.52 156.48 51.52C156.947 51.52 157.623 51.7067 158.51 52.08C159.49 52.4533 160.097 52.64 160.33 52.64C161.217 52.64 162.01 52.2667 162.71 51.52C163.457 50.7267 164.04 49.7 164.46 48.44C165.3 46.1067 165.72 44.0067 165.72 42.14C165.72 40.1333 165.393 38.0333 164.74 35.84C164.133 33.6 163.293 31.43 162.22 29.33L161.1 27.09C159.933 24.7567 159.023 22.9133 158.37 21.56C157.763 20.2067 157.227 18.7367 156.76 17.15C156.06 14.91 155.71 12.74 155.71 10.64C155.71 8.96 155.99 7.37333 156.55 5.88C157.157 4.38666 158.043 3.12666 159.21 2.1C160.377 0.979996 161.823 0.419996 163.55 0.419996C164.39 0.419996 165.207 0.676664 166 1.19C166.793 1.65667 167.353 2.26333 167.68 3.01L166.49 4.48C165.277 4.48 164.367 4.24667 163.76 3.78C162.92 3.87333 162.173 4.29333 161.52 5.04C160.913 5.74 160.447 6.55666 160.12 7.49C159.84 8.37666 159.7 9.26333 159.7 10.15C159.7 11.9233 159.933 13.7433 160.4 15.61C160.913 17.43 161.567 19.1567 162.36 20.79L167.26 30.59C168.053 32.27 168.683 34.16 169.15 36.26C169.617 38.36 169.85 40.46 169.85 42.56C169.85 45.64 169.103 48.5333 167.61 51.24C166.817 52.64 165.79 53.7367 164.53 54.53C163.27 55.37 161.87 55.79 160.33 55.79ZM187.465 55.37C186.158 55.37 184.945 55.0667 183.825 54.46C182.752 53.8533 181.818 53.0367 181.025 52.01C180.325 51.03 179.695 49.7933 179.135 48.3C178.575 46.76 178.155 45.1733 177.875 43.54C177.315 40.7867 176.942 37.17 176.755 32.69C176.708 31.6167 176.685 29.7733 176.685 27.16V22.75C176.732 21.49 176.755 20.1833 176.755 18.83C176.755 16.0767 176.918 13.9067 177.245 12.32C177.105 11.62 177.035 10.8967 177.035 10.15C177.035 7.35 178.085 5.08666 180.185 3.36C182.285 1.63333 184.945 0.769996 188.165 0.769996C189.378 0.769996 190.498 1.09666 191.525 1.75C192.552 2.40333 193.065 3.22 193.065 4.2C193.065 4.66666 192.878 5.04 192.505 5.32C192.132 5.6 191.665 5.74 191.105 5.74C190.638 5.74 190.125 5.67 189.565 5.53C189.052 5.39 188.725 5.18 188.585 4.9H187.675V4.76C185.948 4.76 184.502 5.13333 183.335 5.88C182.495 6.48666 181.842 7.49 181.375 8.89C181.188 9.40333 181.048 10.0567 180.955 10.85C180.862 11.6433 180.815 12.3667 180.815 13.02C180.768 13.3933 180.745 14.14 180.745 15.26L180.885 17.71L180.955 20.09C180.955 20.79 180.862 21.6067 180.675 22.54C180.442 23.7067 180.325 24.5233 180.325 24.99V26.67C180.325 28.49 180.395 30.9867 180.535 34.16C180.582 36.82 180.885 39.48 181.445 42.14C181.865 44.6133 182.658 46.7133 183.825 48.44C184.945 50.2133 186.462 51.1 188.375 51.1C189.168 51.1 190.148 50.68 191.315 49.84C192.575 49 193.462 48.58 193.975 48.58C194.628 48.58 195.305 48.93 196.005 49.63C196.005 51.3567 195.352 52.6867 194.045 53.62C192.832 54.46 191.385 54.9967 189.705 55.23C188.772 55.3233 188.025 55.37 187.465 55.37ZM217.462 54.81C215.316 54.81 214.242 54.2267 214.242 53.06L214.382 44.45L214.522 35.84C214.522 32.7133 214.452 27.9767 214.312 21.63C214.172 15.33 214.102 10.5933 214.102 7.42V7C214.102 5.78666 214.219 4.66666 214.452 3.64C214.732 2.38 215.479 1.75 216.692 1.75C219.959 1.75 222.549 2.8 224.462 4.9C226.376 7 227.332 9.77666 227.332 13.23C227.332 15.33 226.772 17.5233 225.652 19.81C224.532 22.0967 223.202 23.8 221.662 24.92C224.369 26.74 226.352 29.0967 227.612 31.99C228.919 34.8367 229.572 37.9867 229.572 41.44C229.572 43.0733 229.012 45.1033 227.892 47.53C226.539 50.4233 224.696 52.5 222.362 53.76C220.962 54.46 219.422 54.81 217.742 54.81H217.462ZM218.162 23.87C219.376 23.59 220.402 22.5867 221.242 20.86C221.942 19.5533 222.596 17.9667 223.202 16.1C223.342 15.5867 223.576 14.9333 223.902 14.14V11.69C223.902 10.29 223.389 8.93667 222.362 7.63C221.336 6.32333 220.169 5.67 218.862 5.67C218.209 5.67 217.882 6.39333 217.882 7.84C217.882 10.92 217.929 13.6733 218.022 16.1L218.162 23.87ZM218.442 51.17C220.729 50.8433 222.549 49.7933 223.902 48.02C225.256 46.2467 225.932 44.1233 225.932 41.65C225.932 39.5033 225.746 37.5433 225.372 35.77C225.046 33.95 224.602 32.5733 224.042 31.64C223.529 30.7533 223.016 30.0067 222.502 29.4C221.989 28.7933 221.546 28.3967 221.172 28.21L220.612 28H218.092C218.326 33.3667 218.442 41.09 218.442 51.17ZM245.354 56.21C244.094 56.21 242.951 55.79 241.924 54.95C240.897 54.11 240.011 52.9667 239.264 51.52C237.911 49 236.907 45.5467 236.254 41.16C235.787 38.1267 235.437 34.6267 235.204 30.66L235.134 26.95V23.17C235.087 21.9567 235.064 20.4867 235.064 18.76C235.064 15.96 235.181 13.4867 235.414 11.34C235.601 9.1 236.067 6.88333 236.814 4.69C237.561 2.77667 238.634 1.42333 240.034 0.629998C240.874 0.256664 241.714 0.0699966 242.554 0.0699966C245.027 0.0699966 246.987 1.05 248.434 3.01C250.021 5.20333 251.071 7.65333 251.584 10.36C252.331 13.6267 252.751 16.7533 252.844 19.74C253.031 23.0533 253.124 26.18 253.124 29.12V33.11C253.124 33.9033 253.007 35.3967 252.774 37.59C252.587 39.3167 252.494 40.7867 252.494 42V42.28C252.214 43.5867 252.074 45.1267 252.074 46.9C252.074 48.2067 251.794 49.56 251.234 50.96C250.674 52.36 249.881 53.55 248.854 54.53C247.827 55.65 246.661 56.21 245.354 56.21ZM245.494 52.36C246.427 52.36 247.221 51.4967 247.874 49.77C248.434 48.23 248.831 46.3633 249.064 44.17C249.344 41.93 249.577 39.41 249.764 36.61C249.857 35.3967 249.904 33.8333 249.904 31.92L249.834 25.48C249.741 22.96 249.461 19.81 248.994 16.03C248.621 12.81 247.921 9.96333 246.894 7.49C246.427 6.32333 245.844 5.41333 245.144 4.76C244.444 4.10667 243.697 3.78 242.904 3.78C241.737 3.78 240.874 4.69 240.314 6.51C239.614 8.42333 239.147 10.5233 238.914 12.81C238.634 15.2833 238.471 17.64 238.424 19.88L238.354 22.19C238.307 22.8433 238.284 23.73 238.284 24.85V25.13C238.284 28.2567 238.611 32.1067 239.264 36.68C240.011 42.8867 241.107 47.2967 242.554 49.91C243.487 51.5433 244.467 52.36 245.494 52.36ZM264.287 55.02C263.68 55.02 263.12 54.7867 262.607 54.32C262.14 53.9 261.907 53.3867 261.907 52.78C261.907 52.36 262 51.8467 262.187 51.24C262.327 50.5867 262.397 50.0967 262.397 49.77C262.397 45.6167 262.163 37.6367 261.697 25.83C261.23 15.75 260.997 7.79333 260.997 1.96C260.997 1.54 261.16 1.21333 261.487 0.979997C261.813 0.699998 262.21 0.559999 262.677 0.559999C263.237 0.559999 263.727 0.769999 264.147 1.19C264.567 1.56333 264.777 2.03 264.777 2.59C264.777 5.39 264.917 9.59 265.197 15.19C265.43 21.3967 265.547 25.5967 265.547 27.79L265.617 28.63V29.47V29.96V30.31C265.757 34.37 265.827 40.4367 265.827 48.51V50.33H271.217C272.197 51.03 272.687 51.73 272.687 52.43C272.687 52.9433 272.5 53.41 272.127 53.83C271.8 54.2033 271.403 54.39 270.937 54.39C270.797 54.39 270.54 54.3433 270.167 54.25L269.887 54.18C269.607 54.2267 269.163 54.25 268.557 54.25H267.367C267.04 54.2033 266.667 54.18 266.247 54.18C265.78 54.74 265.127 55.02 264.287 55.02ZM282.137 54.39C281.203 54.39 280.387 54.18 279.687 53.76C279.033 53.34 278.707 52.7567 278.707 52.01C279.733 50.9833 280.247 48.2533 280.247 43.82C280.247 41.16 280.037 37.2867 279.617 32.2C279.15 27.3467 278.917 23.52 278.917 20.72L279.057 16.87C279.103 15.75 279.127 14.4667 279.127 13.02C279.127 11.7133 278.893 10.0567 278.427 8.05C277.867 5.95 277.587 4.48 277.587 3.64C277.587 2.00666 279.383 1.19 282.977 1.19H284.027C286.547 1.19 288.74 1.96 290.607 3.5C292.1 4.80666 293.36 6.69666 294.387 9.17C295.087 10.85 295.693 13.1833 296.207 16.17C296.487 18.7833 296.627 20.8367 296.627 22.33V24.57V27.86C296.533 28.0467 296.487 28.2333 296.487 28.42C296.487 28.7933 296.51 29.0733 296.557 29.26C296.603 29.4467 296.627 29.68 296.627 29.96C296.627 31.4533 296.393 33.25 295.927 35.35C295.507 37.4033 294.877 39.5033 294.037 41.65C291.937 46.7833 289.58 50.4233 286.967 52.57C285.427 53.7833 283.817 54.39 282.137 54.39ZM283.607 50.33C285.333 49.2567 286.85 47.7167 288.157 45.71C289.463 43.6567 290.467 41.3933 291.167 38.92C292.427 34.3467 293.057 29.7267 293.057 25.06C293.057 22.54 292.823 19.7867 292.357 16.8C291.843 13.9067 290.747 11.2933 289.067 8.96C288.273 7.84 287.27 6.97667 286.057 6.37C284.843 5.71667 283.467 5.39 281.927 5.39V5.46C281.927 9.66 282.207 16.0067 282.767 24.5C283.327 32.9467 283.607 39.34 283.607 43.68V50.33Z" fill="#5E2A2C"/>
</svg>
