<svg width="86" height="76" viewBox="0 0 86 76" fill="none" xmlns="http://www.w3.org/2000/svg">
<g clip-path="url(#clip0_4031_3107)">
<path d="M22.5 25.4174C22.5 13.7359 31.9204 4.23193 43.4998 4.23193C55.0793 4.23193 64.4997 13.7351 64.4997 25.4174C64.4997 37.0989 55.0793 46.6029 43.4998 46.6029C31.9204 46.6029 22.5 37.0989 22.5 25.4174Z" fill="#777777"/>
<path d="M61.7375 25.4172C61.7375 35.4613 53.6665 43.604 43.7097 43.604C33.7538 43.604 25.6827 35.4613 25.6827 25.4172C25.6827 15.3731 33.7538 7.23047 43.7105 7.23047C53.6673 7.23047 61.7375 15.3731 61.7375 25.4172Z" fill="#BBBBBB"/>
<mask id="mask0_4031_3107" style="mask-type:luminance" maskUnits="userSpaceOnUse" x="25" y="0" width="37" height="44">
<path d="M25.6827 0V25.4181C25.6827 35.4614 33.7538 43.6032 43.7105 43.6032C53.6665 43.6032 61.7375 35.4614 61.7375 25.4173V0H25.6836H25.6827Z" fill="white"/>
</mask>
<g mask="url(#mask0_4031_3107)">
<path d="M37.37 35.4789C37.3894 35.4356 37.3981 35.3883 37.3951 35.3409C37.3922 35.2935 37.3778 35.2476 37.3531 35.2071C37.2224 35.3566 37.2258 35.4237 37.37 35.4789ZM37.5547 33.895C37.472 33.9188 37.4619 33.9681 37.4897 34.0292C37.494 34.0385 37.5319 34.0445 37.5429 34.0368C37.5935 34.0003 37.5968 33.9536 37.5547 33.895ZM37.4164 34.4793C37.4113 34.5022 37.4037 34.5269 37.4029 34.5506C37.4029 34.5702 37.4113 34.5889 37.4467 34.6092L37.4577 34.481L37.4155 34.4785L37.4164 34.4793ZM39.8857 34.6109L39.8849 34.6084V34.6101L39.8857 34.6109Z" fill="#454545"/>
<path fill-rule="evenodd" clip-rule="evenodd" d="M16.8063 36.0679L22.3126 34.3745C22.3126 34.3745 30.0353 32.0713 31.5795 31.3936C33.1246 30.7159 35.0449 28.0009 36.0654 28.0034C36.8472 28.0051 40.5403 29.0404 42.2236 29.5236C43.9062 29.0404 47.5993 28.0051 48.3811 28.0034C49.4024 28.0009 51.3227 30.7159 52.8678 31.3936C54.4111 32.0713 62.537 34.0348 62.537 34.0348L67.0363 37.9652L67.2387 44.2649H17.2077L16.8063 36.0679Z" fill="white"/>
<path fill-rule="evenodd" clip-rule="evenodd" d="M51.3905 30.3783C51.3905 30.3783 54.2107 41.6904 54.4114 42.7069C54.6138 43.7235 55.2177 44.0615 55.3518 43.7235C55.4867 43.3838 53.0553 31.9647 52.6657 31.4603C52.1959 30.8505 51.3905 30.3766 51.3905 30.3766V30.3783ZM32.9958 30.4462C32.9958 30.4462 30.2093 41.8262 30.0078 42.8419C29.8054 43.8585 29.2015 44.1974 29.0674 43.8585C28.9333 43.5197 31.3993 32.1269 31.7535 31.5961C32.2511 30.8513 32.9958 30.4446 32.9958 30.4446V30.4462ZM48.3679 28.0063C49.3082 28.4811 49.8454 32.4106 47.2934 37.7626C44.7414 43.1137 44.9429 43.1816 44.4732 43.3167C44.0034 43.4526 46.6221 38.6424 46.4888 37.9655C46.3539 37.2878 44.7414 34.8488 44.4057 35.3906C44.0701 35.9324 43.8213 36.5091 43.4763 36.729C43.1305 36.9498 42.4921 37.6207 42.3074 36.8785C42.1227 36.1362 42.1893 33.3583 42.1893 33.3583C42.1893 33.3583 45.0104 34.6458 46.0182 32.9524C47.0252 31.2581 48.3679 28.0063 48.3679 28.0063ZM35.6094 28.1422C34.8031 28.752 33.9235 32.4106 36.4755 37.7617C39.0267 43.1137 38.826 43.1816 39.2958 43.3175C39.7664 43.4534 37.2885 38.9133 37.4218 38.2364C37.5567 37.5587 39.5041 35.0517 39.8397 35.5944C40.1754 36.1362 39.9477 36.5091 40.2935 36.729C40.6392 36.9498 41.2768 37.6207 41.4615 36.8785C41.6471 36.1362 41.5796 33.3583 41.5796 33.3583C41.5796 33.3583 38.7585 34.6458 37.7507 32.9524C36.7446 31.2581 35.6094 28.1422 35.6094 28.1422Z" fill="#BBBBBB"/>
<path fill-rule="evenodd" clip-rule="evenodd" d="M48.1788 27.8017C48.2336 27.7346 50.2484 29.4289 46.8235 37.7617L43.2645 32.6127C43.2645 32.6127 45.3527 31.2361 48.1788 27.8017Z" fill="white"/>
<path fill-rule="evenodd" clip-rule="evenodd" d="M43.2635 32.6125C42.7271 32.5446 40.5107 32.7484 40.5107 32.7484L39.3697 34.6448L40.9139 36.5411C40.9139 36.5411 39.7053 38.0995 39.3697 43.7224C39.0332 49.3462 45.0101 46.9071 44.7419 43.3836C44.472 39.8609 43.3984 36.4741 43.3984 36.4741L44.6744 34.6448L43.2635 32.6125Z" fill="#454545"/>
<path fill-rule="evenodd" clip-rule="evenodd" d="M42.5933 36.8812C41.7196 36.8812 41.8545 36.8133 41.5863 36.9492C41.3165 37.0842 40.2429 43.9946 40.7126 44.3326C41.1824 44.6723 42.2577 44.6723 42.4584 44.5364C42.6608 44.4005 42.5933 36.8812 42.5933 36.8812Z" fill="#2A2A2A"/>
<path fill-rule="evenodd" clip-rule="evenodd" d="M35.811 27.9383C35.7553 27.8703 33.6612 29.7667 37.0861 38.0996L40.5574 32.8155C40.5574 32.8155 38.6363 31.3718 35.8101 27.9383H35.811Z" fill="white"/>
<path fill-rule="evenodd" clip-rule="evenodd" d="M49.1066 14.6602C49.6438 15.2062 49.0391 15.4848 49.1066 17.0321C49.174 18.5778 48.6368 23.0338 48.0329 24.0342C47.4283 25.0346 46.3614 25.799 45.8832 25.8389C45.0778 25.9068 38.0264 26.1268 37.4892 25.6716C36.952 25.2172 35.1387 23.1476 35.0046 20.4189C34.8697 17.6894 34.3333 15.365 34.9372 14.7281C35.5418 14.0912 43.3986 14.1183 44.6747 14.1183C45.9507 14.1183 49.1066 14.6602 49.1066 14.6602Z" fill="#D6D6D6"/>
<path fill-rule="evenodd" clip-rule="evenodd" d="M33.0574 17.9118C33.1249 18.7254 33.1249 19.2672 33.3265 19.8761C33.5272 20.4859 33.5272 20.5538 33.6621 21.1636C33.7929 21.7589 33.8637 22.2481 34.0644 22.3831C34.266 22.519 34.3976 22.5768 34.535 22.6549C34.6716 22.7313 34.8707 21.2316 34.7357 20.2158C34.6016 19.1993 34.6615 18.311 34.3292 17.3666C33.9978 16.4214 33.8629 15.8804 33.5947 15.8804C33.3265 15.8804 32.882 15.7921 33.0574 17.9118Z" fill="#ACACAC"/>
<path fill-rule="evenodd" clip-rule="evenodd" d="M34.3578 18.498C33.9976 18.5889 33.9302 18.6569 33.9302 18.9957C33.9302 19.3346 33.9976 20.0123 34.3333 20.2823C34.669 20.5541 35.0046 20.8242 34.938 20.4861C34.8705 20.1473 34.3586 18.4989 34.3586 18.4989L34.3578 18.498Z" fill="#909090"/>
<path fill-rule="evenodd" clip-rule="evenodd" d="M34.3883 18.1261C34.3309 18.3783 33.9303 18.2501 33.7962 18.521C33.6613 18.7928 33.5938 19.1987 33.6613 19.4696C33.7288 19.7414 34.266 20.2824 34.266 20.7571C34.266 21.231 34.1319 21.096 34.266 21.366C34.4009 21.6378 35.0048 22.1117 34.7366 22.3826C34.4667 22.6535 34.266 22.7894 34.1319 22.1787C33.997 21.5698 33.9303 20.8921 33.7288 20.4862C33.5272 20.0785 33.4606 19.8085 33.4606 19.2658C33.4606 18.724 33.3257 17.9113 33.5281 17.5724C33.7288 17.2335 33.9978 17.3015 33.9978 17.0306C33.9978 16.7597 33.8629 16.4217 33.6613 16.7597C33.4606 17.0994 33.4606 17.7762 33.3931 17.5053C33.3257 17.2335 33.2582 16.1499 33.7288 16.1499C34.1994 16.1499 34.4676 17.7762 34.3883 18.1261Z" fill="#909090"/>
<path fill-rule="evenodd" clip-rule="evenodd" d="M51.0588 17.9118C50.9914 18.7254 50.9914 19.2672 50.7898 19.8761C50.5891 20.4859 50.5891 20.5538 50.455 21.1636C50.3234 21.7589 50.2526 22.2481 50.0519 22.3831C49.8503 22.519 49.7187 22.5768 49.5813 22.6549C49.4446 22.7313 49.2465 21.2316 49.3797 20.2158C49.5146 19.1993 49.4556 18.311 49.7871 17.3666C50.1185 16.4214 50.2534 15.8804 50.5216 15.8804C50.7907 15.8804 51.2343 15.7921 51.0588 17.9118Z" fill="#ACACAC"/>
<path fill-rule="evenodd" clip-rule="evenodd" d="M49.8284 18.498C50.1902 18.5889 50.2568 18.6569 50.2568 18.9957C50.2568 19.3346 50.1893 20.0123 49.8537 20.2823C49.518 20.5541 49.1823 20.8242 49.2498 20.4861C49.3173 20.1473 49.8284 18.4989 49.8284 18.4989V18.498Z" fill="#909090"/>
<path fill-rule="evenodd" clip-rule="evenodd" d="M49.7441 18.1261C49.8014 18.3783 50.202 18.2501 50.3361 18.521C50.4711 18.7928 50.5377 19.1987 50.4711 19.4696C50.4036 19.7414 49.8664 20.2824 49.8664 20.7571C49.8664 21.231 50.0005 21.096 49.8664 21.366C49.7314 21.6378 49.1276 22.1117 49.3958 22.3826C49.6648 22.6535 49.8664 22.7894 50.0005 22.1787C50.1346 21.5698 50.202 20.8921 50.4036 20.4862C50.6052 20.0785 50.6718 19.8085 50.6718 19.2658C50.6718 18.724 50.7856 18.1822 50.5841 17.8442C50.3825 17.5045 50.1346 17.3015 50.1346 17.0306C50.1346 16.7597 50.2695 16.4217 50.4702 16.7597C50.6718 17.0994 50.6718 17.7762 50.7384 17.5053C50.8059 17.2335 50.8733 16.1499 50.4036 16.1499C49.933 16.1499 49.6648 17.7762 49.7441 18.1261Z" fill="#909090"/>
<path fill-rule="evenodd" clip-rule="evenodd" d="M35.9322 26.7793C36.1877 27.1538 36.5023 27.4621 37.0193 27.8715C37.9588 28.6171 38.3619 29.3619 38.9 29.8366C39.4363 30.3105 39.3697 30.3105 39.9069 30.6494C40.4433 30.9874 41.4512 31.0553 42.5256 30.9203C43.6001 30.7844 43.8311 30.4243 44.2714 30.1067C44.742 29.7687 44.9435 29.4298 45.883 28.8201C46.7677 28.2468 47.6963 27.0587 48.0994 26.7199C48.1525 26.6749 48.1964 26.6298 48.2335 26.584L48.166 28.0744C48.166 28.0744 48.6316 29.4162 46.8976 30.8702C46.1673 31.4842 45.0447 32.1186 43.3319 32.6816C39.1488 34.0557 35.8107 29.7687 35.7432 29.023C35.6758 28.2782 35.9322 26.7793 35.9322 26.7793Z" fill="#ACACAC"/>
<mask id="mask1_4031_3107" style="mask-type:luminance" maskUnits="userSpaceOnUse" x="36" y="27" width="6" height="5">
<path d="M36.2369 27.1006H41.8622V31.3587H36.2369V27.1006Z" fill="white"/>
</mask>
<g mask="url(#mask1_4031_3107)">
<path opacity="0.62" fill-rule="evenodd" clip-rule="evenodd" d="M41.8547 30.9862C41.1826 32.0027 39.2352 30.6482 38.698 30.3764C38.3581 30.2048 38.2637 31.5458 37.8766 31.1985C37.4886 30.8503 36.6672 30.525 36.474 29.7734C36.2801 29.0218 36.0085 26.9573 36.5812 27.1085C37.1538 27.2596 42.0782 30.6482 41.8547 30.9862Z" fill="#909090"/>
</g>
<mask id="mask2_4031_3107" style="mask-type:luminance" maskUnits="userSpaceOnUse" x="42" y="27" width="6" height="5">
<path d="M42.7889 27.3066H47.8314V31.4824H42.7881L42.7889 27.3066Z" fill="white"/>
</mask>
<g mask="url(#mask2_4031_3107)">
<path opacity="0.62" fill-rule="evenodd" clip-rule="evenodd" d="M42.7939 29.9718C43.1296 30.6495 45.1005 30.3115 45.3696 30.5816C45.6378 30.8534 45.8039 31.7519 46.191 31.4037C46.579 31.0563 47.4004 30.7302 47.5935 29.9786C47.7875 29.227 48.0591 27.1634 47.4864 27.3145C46.9138 27.4657 42.6143 29.6084 42.7939 29.9718Z" fill="#909090"/>
</g>
<path d="M29.6585 9.5803C29.8263 8.40154 30.2143 7.29751 30.8029 6.26821C31.6809 4.73616 32.8818 3.52003 34.3476 2.57227C36.316 1.29839 38.4801 0.638516 40.801 0.534058C41.7716 0.486415 42.744 0.491802 43.714 0.550194C44.1695 0.579068 44.6207 0.638516 45.0693 0.718346C46.159 0.913674 47.2123 1.23384 48.2218 1.69753C49.9018 2.46866 51.3549 3.54636 52.512 5.01557C53.6008 6.39815 54.2924 7.95908 54.5209 9.72382C54.6896 11.0291 54.5656 12.3073 54.1802 13.5607C54.1684 13.5973 53.9694 14.0669 53.9474 14.1187C53.7349 14.517 53.2854 15.8886 51.1129 18.2919C50.8978 18.5297 51.5725 15.7442 50.4972 15.8665C50.2999 15.8886 50.2206 16.3149 50.1599 16.3055C50.1599 16.2376 49.26 15.1344 49.1731 15.1344C49.1504 15.0953 49.3958 11.7204 49.3756 11.6797C49.131 11.2041 48.2286 9.0164 46.5553 7.75016C46.2855 7.54719 44.5878 7.34422 44.5878 7.34422C44.6687 7.00452 44.7016 6.65632 44.6864 6.30218C44.6476 5.3799 44.355 4.55952 43.7014 3.89115C43.3934 3.57209 43.0047 3.3439 42.5772 3.23129C42.2639 3.147 41.9358 3.13538 41.6174 3.19732C40.828 3.35273 40.2689 3.82661 39.8548 4.50007C39.6018 4.91281 39.4584 5.36631 39.38 5.84189C39.3462 6.04146 39.3462 6.24698 39.337 6.38116C39.3395 6.55526 39.3623 6.72341 39.3682 6.88817C39.369 6.93742 39.3758 7.07925 39.369 7.07331C39.3083 7.09029 39.1582 7.12511 39.1008 7.14125C38.8647 7.20664 38.0677 7.37904 37.8256 7.4801C37.4234 7.6457 37.1265 7.91407 36.8178 8.22489C36.5935 8.44994 34.7727 11.6703 34.6689 11.8835C34.6462 11.9293 34.2472 12.0635 34.1983 12.0864C33.7834 12.2818 33.2032 12.8992 33.1913 12.8992C33.0606 13.4393 33.215 13.5743 33.4604 14.1866C33.5363 14.3786 33.4132 15.7408 33.4604 15.8801C33.4604 15.8801 33.1913 16.0839 33.1247 16.2198C32.8675 16.737 33.1036 18.2282 33.0573 18.1832C32.7005 17.8418 32.3691 17.5548 32.0494 17.1743C31.7602 16.8312 31.4549 16.5026 31.2145 16.1187C31.0652 15.8792 30.8856 15.6567 30.7574 15.4053C30.556 15.0126 30.3733 14.6105 30.21 14.2002C29.6216 12.737 29.4312 11.1423 29.6585 9.5803Z" fill="white"/>
<path d="M33.2361 13.6598C33.2479 13.8899 33.344 14.0717 33.4832 14.3961C33.4845 14.3255 33.4768 14.255 33.4604 14.1863C33.3693 13.9604 33.2918 13.7999 33.2361 13.6598ZM29.7462 9.94685C29.9149 8.76809 30.3029 7.66406 30.8915 6.63477C31.7686 5.10272 32.9704 3.88659 34.4354 2.93882C36.4038 1.66494 38.5679 1.00507 40.8896 0.900612C41.8602 0.852972 42.8326 0.858359 43.8026 0.916747C44.258 0.945622 44.7092 1.00507 45.1579 1.0849C46.2475 1.28023 47.3001 1.6004 48.3104 2.06409C49.9904 2.83521 51.4435 3.91291 52.6006 5.38212C53.4128 6.41311 54.0032 7.54432 54.3464 8.78508C54.0234 7.40079 53.4035 6.1473 52.5121 5.01524C51.355 3.54604 49.9019 2.46748 48.2227 1.69721C47.2165 1.23813 46.1567 0.90912 45.0685 0.718022C44.6203 0.636087 44.1678 0.579664 43.7132 0.549021C42.7435 0.490893 41.7714 0.485507 40.8011 0.532885C38.4801 0.639042 36.3161 1.29806 34.3476 2.57109C32.8819 3.51971 31.6809 4.73499 30.803 6.26874C30.2141 7.28835 29.8256 8.41253 29.6585 9.57998C29.4814 10.8224 29.5666 12.0343 29.8896 13.2148C29.64 12.144 29.5913 11.0356 29.7462 9.94685Z" fill="#BBBBBB"/>
<path d="M44.7334 7.36253C44.7655 7.13323 44.784 6.90308 44.7747 6.66869C44.7588 6.3535 44.707 6.0412 44.6204 5.73791C44.7237 6.26942 44.7125 6.81708 44.5875 7.34384L44.7334 7.36253ZM49.463 12.0462C49.4312 11.9826 49.4002 11.9187 49.3702 11.8542C49.3365 12.5498 49.1535 15.1001 49.1737 15.134C49.1872 15.134 49.2243 15.168 49.2716 15.213C49.3154 14.3935 49.4799 12.0793 49.463 12.0462ZM51.0983 16.5795C51.202 17.3497 50.9743 18.4444 51.1126 18.2916C51.1363 18.2661 51.1531 18.2432 51.1767 18.2177C51.2138 17.7429 51.2695 17.0117 51.0983 16.5795ZM39.2355 4.58887C39.2355 4.58887 39.0331 5.44661 38.0261 6.12432C37.0191 6.80202 34.8028 9.57908 34.3322 10.0538C33.8633 10.5277 33.7283 10.2568 33.9974 9.24107C34.2655 8.22452 34.9369 7.41094 34.333 7.75064C33.7283 8.08864 32.8554 10.5277 32.788 12.0861C32.7205 13.6445 33.1911 15.8117 33.2586 15.8797C33.326 15.9476 32.9229 16.7604 33.9299 14.0504C34.9369 11.3413 36.5848 7.98418 37.9772 7.42622C39.3688 6.86911 38.9403 7.9103 39.357 6.64491C39.7719 5.37952 39.2355 4.58887 39.2355 4.58887Z" fill="#BBBBBB"/>
<path d="M44.678 4.58887C44.678 4.58887 44.8804 5.44661 45.8874 6.12432C46.8952 6.80202 49.1107 9.57908 49.5813 10.0538C50.0511 10.5277 50.1852 10.2568 49.917 9.24107C49.648 8.22452 48.9766 7.41094 49.5813 7.75064C50.1852 8.08864 51.0589 10.5277 51.1255 12.0861C51.193 13.6445 50.7224 15.8117 50.6558 15.8797C50.5883 15.9476 50.9914 16.7604 49.9836 14.0504C48.9766 11.3413 47.3295 7.98418 45.9371 7.42622C44.5447 6.86911 44.9732 7.9103 44.5574 6.64491C44.1416 5.37952 44.678 4.58887 44.678 4.58887Z" fill="#BBBBBB"/>
<path fill-rule="evenodd" clip-rule="evenodd" d="M42.9287 18.8608C42.9962 19.3346 42.9287 19.5385 43.2643 19.8773C43.6 20.2153 43.6169 20.2374 43.7341 20.5542C43.9365 21.0968 43.5325 21.7058 43.3984 21.7737C43.1707 21.8883 43.1218 21.7542 43.0037 21.7032C42.9329 21.6726 42.8359 21.6726 42.6596 21.7737C42.1899 22.0446 42.3282 22.0446 41.7201 22.0446C41.1829 22.0446 40.9813 21.5028 40.7123 21.6387C40.4441 21.7745 40.2426 21.8425 40.041 21.5028C39.8394 21.1639 39.8926 21.0187 39.9735 20.69C40.1085 20.1482 40.3598 20.2145 40.5108 19.8094C40.7123 19.2667 40.8464 18.1151 40.9814 18.1831C41.1154 18.251 41.3162 18.9966 41.2495 19.5385C41.1821 20.0803 40.892 20.7198 41.2495 20.961C41.6527 21.2327 41.6527 21.299 42.2574 21.1648C42.5846 21.0909 42.7937 20.893 42.7271 20.2833C42.6596 19.6735 42.5256 18.6569 42.7271 18.6569C42.9287 18.6569 42.9287 18.8608 42.9287 18.8608Z" fill="#ACACAC"/>
<path fill-rule="evenodd" clip-rule="evenodd" d="M43.0629 21.3677C42.9279 21.3677 42.8613 21.3677 42.7272 21.5036C42.556 21.6751 42.4911 21.7354 42.3241 21.9095C42.2052 22.0335 42.7542 21.7006 42.8613 21.7057C42.9692 21.7116 42.9288 21.7736 43.0629 21.7057C43.2332 21.6208 43.148 21.3677 43.0629 21.3677ZM40.6593 21.4356C40.7942 21.4356 40.8617 21.4356 40.9949 21.5706C41.167 21.743 41.2311 21.8025 41.3981 21.9766C41.5178 22.1014 40.9679 21.7685 40.8608 21.7736C40.7529 21.7787 40.7934 21.8416 40.6593 21.7736C40.4897 21.6887 40.5749 21.4356 40.6593 21.4356Z" fill="#909090"/>
<path fill-rule="evenodd" clip-rule="evenodd" d="M47.4948 15.3366C46.5545 14.7948 45.749 14.7268 45.0777 14.6589C44.4064 14.591 42.7273 14.8627 41.7194 14.9307C40.7125 14.9986 39.5823 14.7948 38.7651 14.7948C37.8922 14.7948 36.5488 14.9307 36.2806 15.2007C36.138 15.3451 35.2736 14.6589 35.6759 14.591C36.079 14.523 40.9815 13.7782 42.3241 13.8462C43.6668 13.9141 44.8087 14.1171 45.8831 14.3201C46.9576 14.5239 47.4948 15.3366 47.4948 15.3366Z" fill="#ACACAC"/>
<path fill-rule="evenodd" clip-rule="evenodd" d="M49.1743 15.1345L50.1602 16.3056C50.1602 16.3056 49.913 17.0997 49.8456 17.6415C49.7781 18.1842 49.7781 18.5901 49.7781 19.4708C49.7781 20.3515 49.2409 20.5544 49.3084 21.0292C49.3758 21.503 49.7031 21.8844 49.644 22.6546C49.5641 23.5662 49.3374 24.4585 48.9727 25.2967C48.637 26.0423 48.5029 26.3812 48.0998 26.7192C47.6967 27.0589 46.7673 28.247 45.8834 28.8194C44.9431 29.4291 44.7424 29.768 44.2726 30.1068C43.8315 30.4244 43.6004 30.7845 42.5268 30.9196C41.4515 31.0554 40.4437 30.9875 39.9073 30.6486C39.3693 30.3106 39.4367 30.3106 38.8995 29.8359C38.3623 29.3612 37.96 28.6164 37.0188 27.8707C36.0793 27.1259 35.8111 26.72 35.3405 25.6355C34.8708 24.5519 34.8708 24.6189 34.6017 23.1294C34.3335 21.6389 34.8708 20.4865 34.7367 20.2164C34.6017 19.9447 34.3335 19.2678 34.3335 18.861C34.3335 18.4542 34.5351 17.6415 34.1986 17.0317C33.8638 16.422 33.4598 15.9481 33.4598 15.8122C33.4598 15.6763 33.1916 13.9838 33.9304 14.0508C34.6692 14.1188 35.2064 13.8479 35.1389 14.3226C35.0715 14.7965 34.6017 21.9098 37.2887 22.8576C38.1203 23.1523 39.3937 22.0805 40.7128 22.1128C42.2384 22.151 44.4067 21.774 45.6153 22.8584C46.6155 23.7553 46.9579 22.7905 47.4285 22.0449C48.6286 20.1425 48.7045 18.2504 49.1743 15.1345Z" fill="#4F4F4F"/>
<path d="M49.9792 14.1856C49.8451 14.4565 49.5904 14.5916 48.9056 14.5916C47.8977 14.5916 44.0705 13.7788 42.7271 13.8468C41.3844 13.9147 39.9068 13.8468 38.8315 14.0506C37.7579 14.2527 36.0122 14.5916 35.1384 14.5916C34.2656 14.5916 34.0168 14.4056 33.8388 14.296C33.6617 14.1856 33.3058 14.0761 33.2485 13.6905C33.1911 13.305 32.9238 13.012 33.5605 12.5491C34.1981 12.0854 34.4671 12.0854 34.7353 11.6786C35.0043 11.2718 35.9784 9.54446 36.2635 9.05359C36.5486 8.56188 37.4889 7.20732 38.9665 7.07144C40.4441 6.93641 45.0775 6.29267 46.8233 8.00307C48.5691 9.71431 48.9722 11.6107 49.1737 11.7466C49.3753 11.8825 50.1141 12.2994 50.147 12.4633C50.1807 12.6273 50.3157 13.034 50.1807 13.372C50.0466 13.7117 49.9792 14.1856 49.9792 14.1856Z" fill="#454545"/>
<path d="M41.7373 12.5498C41.5492 12.5549 41.0913 12.7783 41.0626 12.8581C40.9867 13.0636 40.9125 13.2683 40.8391 13.4746C40.8096 13.5552 40.7837 13.6371 40.7615 13.7201C40.7413 13.7965 40.6915 13.8279 40.6207 13.8347C40.4461 13.85 39.7748 13.9027 39.6078 13.9154C39.4653 13.4959 39.3919 13.0645 39.138 12.678C39.0267 12.7035 38.9019 12.7205 38.7855 12.7604C38.4313 12.881 38.4372 12.8878 38.266 13.2301C38.1775 13.4059 37.8738 13.918 37.83 14.008C37.7844 14.1014 37.7009 14.1354 37.6107 14.1489C37.3813 14.1863 37.1519 14.2152 36.9234 14.2517C36.7943 14.2721 36.1382 14.3698 35.9366 14.3723C35.4669 14.3782 34.9971 14.374 34.5265 14.374C34.4869 14.374 34.4456 14.3723 34.4059 14.3757C34.2752 14.3859 34.2507 14.4156 34.2575 14.5787C34.3148 14.5914 34.3772 14.6075 34.4397 14.6177C34.7382 14.6644 35.0359 14.7307 35.337 14.7485C35.6381 14.7672 35.9417 14.7434 36.2445 14.7256C36.3634 14.7188 37.8165 14.4895 37.8941 14.4844C38.08 14.4774 38.2649 14.4535 38.4465 14.4131C38.7047 14.3442 38.9682 14.297 39.2342 14.2721C39.6711 14.2381 40.1054 14.1693 40.5414 14.1362C40.8737 14.1116 41.2085 14.1192 41.5416 14.1167C41.9051 14.1141 42.2695 14.1201 42.633 14.1167C43.1227 14.1123 43.6122 14.1386 44.0987 14.1957C44.4344 14.2347 44.7709 14.267 45.1057 14.3095C45.4751 14.3562 45.8453 14.4029 46.2122 14.4623C46.4753 14.5056 46.7342 14.5778 46.9965 14.622C47.3499 14.6814 48.5163 14.7553 48.744 14.7613C48.7828 14.7621 49.121 14.7315 49.1741 14.7281C49.18 14.6449 49.1741 14.4564 48.8958 14.4895C48.8148 14.4895 48.7457 14.4861 48.6774 14.4895C48.5222 14.498 47.5304 14.4504 47.193 14.3944C47.0547 14.3715 45.7003 14.0904 45.5847 14.0768C45.3452 14.0479 45.1091 13.9901 44.8713 13.9485C44.7237 13.9222 44.5744 13.901 44.4243 13.8806C44.2303 13.8543 43.5109 13.7744 43.3464 13.7549C43.2022 13.7379 42.1826 13.6853 41.8959 13.6853C41.8722 13.2963 41.8368 12.9192 41.7373 12.5498Z" fill="white"/>
<path d="M38.8528 6.35039C38.8528 8.3886 40.268 10.0412 42.0137 10.0412C43.7586 10.0412 45.173 8.3886 45.173 6.35039C45.173 4.31134 43.7586 2.65869 42.0137 2.65869C40.268 2.65869 38.8536 4.31134 38.8536 6.35039H38.8528Z" fill="#D1D1D1"/>
<path d="M40.5817 7.15562C40.607 7.1896 40.6323 7.21507 40.6458 7.2448C40.7858 7.55902 41.0371 7.7569 41.3273 7.91401C41.5533 8.0363 41.781 8.15435 42.0146 8.27749C42.2946 8.12207 42.5881 7.96666 42.8748 7.79851C43.0941 7.67112 43.2577 7.48598 43.3657 7.25159C43.38 7.22102 43.4028 7.19384 43.4289 7.15478L43.6507 7.27962C43.7933 6.99427 43.7705 6.71826 43.6465 6.40913C43.518 6.64505 43.3301 6.84276 43.1017 6.98238L43.2409 7.05287C43.2999 7.08259 43.3083 7.12335 43.2687 7.17601C43.0503 7.4656 42.7306 7.60658 42.3781 7.53015C42.3179 7.51787 42.264 7.48435 42.2261 7.43562C42.1882 7.38689 42.1688 7.32615 42.1715 7.26433C42.1689 6.78535 42.1689 6.30637 42.1715 5.82654C42.1715 5.7017 42.1866 5.68727 42.3132 5.68727C42.4371 5.68812 42.5619 5.66603 42.6783 5.74671C42.7601 5.80276 42.8394 5.77389 42.9035 5.69576C42.9701 5.61253 42.9685 5.51572 42.8976 5.43079C42.8386 5.35861 42.7399 5.32633 42.6699 5.38408C42.5417 5.48939 42.4 5.43928 42.2626 5.44778C42.1993 5.45202 42.1765 5.41041 42.1715 5.35096C42.1644 5.30366 42.1693 5.25531 42.1859 5.21046C42.2024 5.1656 42.2299 5.1257 42.2659 5.09449C42.4936 4.88217 42.4279 4.53143 42.1571 4.39385C41.9488 4.2877 41.6848 4.44651 41.6342 4.65882C41.6005 4.80489 41.6005 4.96795 41.7287 5.06986C41.8586 5.17347 41.8383 5.29321 41.8248 5.44013C41.6604 5.43844 41.5044 5.49873 41.3542 5.38663C41.2767 5.32888 41.1695 5.35945 41.1122 5.43504C41.0875 5.47329 41.0742 5.51792 41.0741 5.56357C41.0739 5.60922 41.0869 5.65395 41.1114 5.69236C41.1712 5.77389 41.2632 5.80107 41.35 5.74247C41.4976 5.64311 41.6511 5.70425 41.8173 5.68727C41.824 5.75521 41.8333 5.80956 41.8333 5.86391C41.835 6.3327 41.835 6.80149 41.8333 7.27112C41.8333 7.4121 41.7624 7.50297 41.6283 7.53184C41.4566 7.56723 41.2782 7.54866 41.1172 7.47864C40.9563 7.40862 40.8206 7.29053 40.7285 7.14034C40.7243 7.13185 40.7243 7.12081 40.7183 7.09448L40.9098 6.98153C40.6922 6.83546 40.505 6.66985 40.3785 6.41083C40.2351 6.71486 40.2317 6.98832 40.3641 7.28216L40.5817 7.15562ZM39.3799 5.71444C39.4575 5.23886 39.6017 4.78451 39.8556 4.37262C40.2688 3.69917 40.828 3.22528 41.6182 3.06987C41.9363 3.00804 42.2642 3.01965 42.5771 3.10384C43.0098 3.21764 43.3868 3.44184 43.7013 3.76371C44.3549 4.43207 44.6476 5.25245 44.6864 6.17474C44.7104 6.70525 44.6227 7.23487 44.4292 7.72887C44.2284 8.24097 43.94 8.68853 43.5116 9.03247C42.7762 9.6227 41.9682 9.77302 41.0903 9.39341C40.7003 9.21966 40.3601 8.94979 40.101 8.6087C39.5756 7.93948 39.3496 7.16751 39.3369 6.25372C39.347 6.11954 39.3479 5.91402 39.3799 5.71444Z" fill="#454545"/>
<path d="M41.9785 10.2264C41.3713 10.2324 39.2055 10.3224 38.7357 10.4294C38.255 10.5398 36.99 10.8379 36.8373 10.8693C36.4603 10.9458 35.6431 11.3755 35.6212 11.4672C35.5959 11.5759 35.5571 11.6821 35.5368 11.7925C35.52 11.8867 35.5453 11.9165 35.6397 11.9139C35.6988 11.9122 36.295 11.6659 36.5421 11.5801C36.9164 11.4791 37.2926 11.3857 37.6706 11.2999C37.9362 11.2404 39.1018 11.0638 39.4079 10.984C39.9333 10.8489 41.4446 10.8506 41.6664 10.8532C41.9945 10.8566 42.8724 10.8498 42.9821 10.8515C43.2857 10.8557 44.3559 10.9636 44.5879 11.0094C44.8645 11.0655 46.2788 11.3322 46.7106 11.4086C47.1188 11.4825 48.1292 11.9054 48.1781 11.9122C48.3273 11.9351 48.5694 11.4077 47.9453 11.2141C47.6813 11.0867 46.186 10.6383 45.7045 10.5517C45.5012 10.5152 44.4226 10.3105 44.0818 10.2765C43.3818 10.2086 42.6793 10.212 41.9785 10.2264Z" fill="#D1D1D1"/>
<path d="M36.2308 12.4999C36.5867 12.3512 37.888 12.0328 38.1646 11.9555C38.5205 11.8553 41.4774 11.7075 41.7295 11.6965C42.2499 11.6761 42.7669 11.7194 43.2864 11.75C43.4314 11.7585 43.579 11.7568 43.7249 11.7466C43.9366 11.7304 45.5205 11.9105 45.8334 11.9886C46.1015 12.0565 46.3664 12.1415 46.6362 12.2009C46.9812 12.2791 47.3227 12.3623 47.65 12.5007C47.6904 12.5194 48.301 12.8319 48.2445 12.6366C48.3145 12.5381 48.3221 12.4047 48.3449 12.2757C48.3559 12.212 47.8979 11.9886 47.7124 11.9079C47.313 11.7376 46.8969 11.6101 46.4709 11.5275C45.986 11.4289 44.6197 11.2464 44.4258 11.2149C44.3161 11.198 43.5301 11.1461 43.2484 11.1402C42.9254 11.1334 41.9733 11.1113 41.8189 11.1113C41.6376 11.1113 40.8642 11.1478 40.6576 11.1436C40.3647 11.14 40.0719 11.153 39.7805 11.1827C39.5157 11.2081 39.2534 11.2616 38.9894 11.3016C38.8149 11.327 37.6173 11.4842 37.1973 11.5725C36.6482 11.6871 36.1414 11.9088 35.6413 12.1525C35.5207 12.2103 35.5164 12.223 35.5443 12.3546C35.5662 12.4565 35.6758 12.6281 36.2308 12.4999ZM35.4245 12.9041C35.1985 12.4633 35.0863 12.0158 35.2778 11.5385C35.2246 11.4553 35.1496 11.4476 35.0779 11.485C34.9834 11.5351 34.8949 11.6064 34.8755 11.7177C34.7962 12.1525 34.7684 12.5856 34.9775 12.9975C35.0442 13.1292 35.0737 13.1419 35.1943 13.0646C35.2702 13.0162 35.3419 12.9627 35.4245 12.9041ZM34.0692 13.3168C34.0507 13.1359 34.0195 12.9568 33.9115 12.8013C33.8187 12.668 33.6585 12.623 33.5185 12.7003C33.4581 12.7304 33.4049 12.7733 33.3626 12.8261C33.3202 12.8789 33.2897 12.9402 33.2731 13.006C33.2432 13.1214 33.2407 13.2424 33.2659 13.3589C33.2911 13.4755 33.3433 13.5845 33.4181 13.6769C33.5506 13.8485 33.7175 13.8553 33.8719 13.7024C33.914 13.6599 33.952 13.6141 33.9908 13.5699C34.0532 13.4977 34.1004 13.4204 34.0692 13.3168ZM34.2936 12.8684C34.3745 12.7945 34.4454 12.7309 34.5145 12.6646C34.5339 12.6461 34.5459 12.621 34.5483 12.5941C34.5508 12.4226 34.5499 12.2502 34.5499 12.0795C34.4808 12.0362 34.4361 12.0761 34.388 12.1109C34.2893 12.1848 34.1907 12.2595 34.0895 12.3292C33.9528 12.4243 33.9478 12.4727 34.0599 12.5958C34.1384 12.6824 34.2118 12.7733 34.2936 12.8684ZM34.8072 13.3143L34.6107 12.9406C34.5474 12.9856 34.4875 13.0213 34.4361 13.0663C34.3636 13.1283 34.3222 13.2056 34.3399 13.3092C34.3526 13.3839 34.3509 13.4604 34.3602 13.5359C34.3712 13.6268 34.3998 13.643 34.4909 13.6158C34.6132 13.5784 34.7144 13.4841 34.8072 13.3143ZM48.4191 12.9041C48.6451 12.4633 48.7573 12.0158 48.5659 11.5385C48.619 11.4553 48.6941 11.4476 48.7657 11.485C48.8602 11.5351 48.9487 11.6064 48.969 11.7177C49.0474 12.1525 49.0753 12.5856 48.8661 12.9975C48.7995 13.1292 48.77 13.1419 48.6494 13.0646C48.5735 13.0162 48.5018 12.9627 48.4191 12.9041ZM49.5509 12.8684C49.4699 12.7945 49.3974 12.7309 49.3291 12.6646C49.3097 12.6461 49.2977 12.621 49.2954 12.5941C49.2928 12.4226 49.2937 12.2502 49.2937 12.0795C49.3628 12.0362 49.4075 12.0761 49.4556 12.1109C49.5543 12.1848 49.653 12.2595 49.7542 12.3292C49.8908 12.4243 49.8959 12.4727 49.7837 12.5958C49.7052 12.6824 49.6319 12.7733 49.5509 12.8684ZM49.0365 13.3143L49.233 12.9406C49.2962 12.9856 49.3561 13.0213 49.4075 13.0663C49.4801 13.1283 49.5214 13.2056 49.5037 13.3092C49.491 13.3839 49.4927 13.4604 49.4843 13.5359C49.4733 13.6268 49.4438 13.643 49.3527 13.6158C49.2304 13.5784 49.1292 13.4841 49.0365 13.3143Z" fill="#D1D1D1"/>
<path fill-rule="evenodd" clip-rule="evenodd" d="M48.5026 17.4381C48.0783 18.0632 47.5622 17.4381 47.4281 17.574C47.2932 17.7099 46.89 18.1159 46.3537 18.1829C45.8164 18.2509 44.4729 18.0471 44.1373 17.912C43.8252 17.7863 43.1969 17.5732 42.9954 17.912C42.7938 18.2517 42.7938 18.2517 42.7272 17.7762C42.6597 17.3023 42.4581 16.2186 42.7272 15.8798C42.9954 15.5409 44.2714 14.9312 45.1443 14.9312C46.018 14.9312 46.998 15.1052 47.3606 15.3379C48.0994 15.8118 48.85 16.926 48.5026 17.4381ZM35.2254 17.4381C35.6496 18.0632 36.1649 17.4381 36.299 17.574C36.434 17.7099 36.8371 18.1159 37.3743 18.1829C37.9107 18.2509 39.2348 18.0471 39.5713 18.0471C39.907 18.0471 40.5302 17.574 40.7318 17.912C40.9325 18.2517 40.9325 18.2517 41.0008 17.7762C41.0674 17.3023 41.269 16.2186 41.0008 15.8798C40.7309 15.5409 39.4558 14.932 38.5829 14.932C37.71 14.932 36.7292 15.1052 36.3665 15.3379C35.6277 15.8118 34.8771 16.926 35.2254 17.4381Z" fill="#ACACAC"/>
<mask id="mask3_4031_3107" style="mask-type:luminance" maskUnits="userSpaceOnUse" x="44" y="16" width="3" height="2">
<path d="M44.2106 16.4209H46.6226V17.1937H44.2106V16.4209Z" fill="white"/>
</mask>
<g mask="url(#mask3_4031_3107)">
<path fill-rule="evenodd" clip-rule="evenodd" d="M46.622 16.9627C46.5444 17.0154 46.1969 17.13 45.8166 17.1665C45.2093 17.2243 44.4891 17.1818 44.4065 17.0986C44.2715 16.9627 44.1113 16.9041 44.2918 16.8659C44.4731 16.8277 44.7421 16.5568 45.1444 16.4888C45.5475 16.4209 45.9507 16.353 46.2863 16.5568C46.622 16.7598 46.622 16.9627 46.622 16.9627Z" fill="white"/>
</g>
<mask id="mask4_4031_3107" style="mask-type:luminance" maskUnits="userSpaceOnUse" x="37" y="16" width="3" height="2">
<path d="M37.355 16.4463H39.7054V17.1919H37.355V16.4463Z" fill="white"/>
</mask>
<g mask="url(#mask4_4031_3107)">
<path fill-rule="evenodd" clip-rule="evenodd" d="M37.355 16.9608C37.4326 17.0135 37.7193 17.1281 38.0997 17.1646C38.7069 17.2224 39.428 17.1799 39.5106 17.0967C39.6447 16.9608 39.8058 16.9022 39.6245 16.864C39.4432 16.8258 39.1741 16.5549 38.7718 16.4869C38.3687 16.419 38.0263 16.419 37.6906 16.6228C37.355 16.8258 37.355 16.9608 37.355 16.9608Z" fill="white"/>
</g>
<path fill-rule="evenodd" clip-rule="evenodd" d="M44.8088 16.7873C44.8088 17.0642 45.1099 17.2884 45.4802 17.2884C45.8512 17.2884 46.1523 17.0642 46.1523 16.7873C46.1523 16.5113 45.8512 16.2871 45.4802 16.2871C45.1091 16.2871 44.8088 16.5105 44.8088 16.7873Z" fill="#404040"/>
<mask id="mask5_4031_3107" style="mask-type:luminance" maskUnits="userSpaceOnUse" x="44" y="16" width="3" height="2">
<path d="M44.8762 16.2881H46.0848V17.2367H44.8762V16.2881Z" fill="white"/>
</mask>
<g mask="url(#mask5_4031_3107)">
<path opacity="0.51" fill-rule="evenodd" clip-rule="evenodd" d="M44.8762 16.762C44.8762 17.0244 45.1461 17.2367 45.4801 17.2367C45.814 17.2367 46.0848 17.0244 46.0848 16.762C46.0848 16.5004 45.814 16.2881 45.4801 16.2881C45.1469 16.2881 44.8762 16.5004 44.8762 16.762Z" fill="#4F4F4F"/>
</g>
<path fill-rule="evenodd" clip-rule="evenodd" d="M37.7582 16.8032C37.7582 17.0792 38.0584 17.3026 38.4295 17.3026C38.8006 17.3026 39.1008 17.0792 39.1008 16.8032C39.1008 16.528 38.7997 16.3047 38.4295 16.3047C38.0584 16.3047 37.7582 16.528 37.7582 16.8032Z" fill="#404040"/>
<mask id="mask6_4031_3107" style="mask-type:luminance" maskUnits="userSpaceOnUse" x="37" y="16" width="3" height="2">
<path d="M37.8246 16.2881H39.034V17.2367H37.8237L37.8246 16.2881Z" fill="white"/>
</mask>
<g mask="url(#mask6_4031_3107)">
<path opacity="0.51" fill-rule="evenodd" clip-rule="evenodd" d="M37.8248 16.762C37.8248 17.0244 38.0956 17.2367 38.4295 17.2367C38.7627 17.2367 39.0334 17.0244 39.0334 16.762C39.0334 16.5004 38.7635 16.2881 38.4295 16.2881C38.0956 16.2881 37.8248 16.5004 37.8248 16.762Z" fill="#4F4F4F"/>
</g>
<mask id="mask7_4031_3107" style="mask-type:luminance" maskUnits="userSpaceOnUse" x="45" y="16" width="1" height="1">
<path d="M45.3131 16.458H45.6817V16.6245H45.314V16.4589L45.3131 16.458Z" fill="white"/>
</mask>
<g mask="url(#mask7_4031_3107)">
<path opacity="0.89" fill-rule="evenodd" clip-rule="evenodd" d="M45.6816 16.4872C45.6816 16.5552 45.48 16.6231 45.4134 16.6231C45.346 16.6231 45.2414 16.5492 45.3881 16.4872C45.5475 16.4193 45.6816 16.4872 45.6816 16.4872Z" fill="white"/>
</g>
<mask id="mask8_4031_3107" style="mask-type:luminance" maskUnits="userSpaceOnUse" x="44" y="16" width="2" height="2">
<path d="M44.9927 16.7588H45.3469V17.0475H44.9927V16.7588Z" fill="white"/>
</mask>
<g mask="url(#mask8_4031_3107)">
<path opacity="0.89" fill-rule="evenodd" clip-rule="evenodd" d="M45.1442 16.7588C45.2791 16.7588 45.3466 16.8267 45.3466 16.8947C45.3466 16.9626 45.3466 17.0976 45.2116 17.0305C45.0767 16.9626 44.9426 16.8947 45.0092 16.8267C45.0767 16.7588 45.1442 16.7588 45.1442 16.7588Z" fill="white"/>
</g>
<mask id="mask9_4031_3107" style="mask-type:luminance" maskUnits="userSpaceOnUse" x="38" y="16" width="1" height="1">
<path d="M38.3302 16.457H38.6979V16.6235H38.3302V16.4579V16.457Z" fill="white"/>
</mask>
<g mask="url(#mask9_4031_3107)">
<path opacity="0.89" fill-rule="evenodd" clip-rule="evenodd" d="M38.698 16.4872C38.698 16.5552 38.4964 16.6231 38.4298 16.6231C38.3623 16.6231 38.2577 16.5492 38.4045 16.4872C38.5647 16.4193 38.698 16.4872 38.698 16.4872Z" fill="white"/>
</g>
<mask id="mask10_4031_3107" style="mask-type:luminance" maskUnits="userSpaceOnUse" x="37" y="16" width="2" height="2">
<path d="M37.942 16.8281H38.2954V17.1169H37.9412L37.942 16.8281Z" fill="white"/>
</mask>
<g mask="url(#mask10_4031_3107)">
<path opacity="0.89" fill-rule="evenodd" clip-rule="evenodd" d="M38.0937 16.8281C38.2287 16.8281 38.2953 16.8961 38.2953 16.964C38.2953 17.0319 38.2953 17.167 38.1604 17.0999C38.0263 17.0319 37.8922 16.964 37.9588 16.8961C38.0263 16.8281 38.0937 16.8281 38.0937 16.8281Z" fill="white"/>
</g>
<path fill-rule="evenodd" clip-rule="evenodd" d="M45.2795 16.7607C45.2795 16.8541 45.3689 16.9305 45.4811 16.9305C45.5916 16.9305 45.6818 16.8541 45.6818 16.7607C45.6818 16.6673 45.5916 16.5908 45.4811 16.5908C45.3689 16.5908 45.2795 16.6673 45.2795 16.7607Z" fill="#404040"/>
<mask id="mask11_4031_3107" style="mask-type:luminance" maskUnits="userSpaceOnUse" x="44" y="19" width="4" height="2">
<path d="M44.7177 19.4209H47.3979V20.8961H44.7177V19.4209Z" fill="white"/>
</mask>
<g mask="url(#mask11_4031_3107)">
<path fill-rule="evenodd" clip-rule="evenodd" d="M47.3607 19.5381C47.4956 20.012 47.2932 20.9606 46.3529 20.8926C45.4134 20.8247 44.4055 20.5546 44.8095 20.3508C45.2118 20.147 46.3149 20.0977 46.5553 19.674C46.8235 19.1992 47.3607 19.5381 47.3607 19.5381Z" fill="#D6D6D6"/>
</g>
<mask id="mask12_4031_3107" style="mask-type:luminance" maskUnits="userSpaceOnUse" x="36" y="19" width="4" height="2">
<path d="M36.5925 19.4209H39.2727V20.8961H36.5925V19.4209Z" fill="white"/>
</mask>
<g mask="url(#mask12_4031_3107)">
<path fill-rule="evenodd" clip-rule="evenodd" d="M36.6298 19.5381C36.4948 20.012 36.6973 20.9606 37.6368 20.8926C38.5771 20.8247 39.5849 20.5546 39.1818 20.3508C38.7787 20.147 37.6756 20.0977 37.436 19.674C37.1662 19.1992 36.6298 19.5381 36.6298 19.5381Z" fill="#D6D6D6"/>
</g>
<mask id="mask13_4031_3107" style="mask-type:luminance" maskUnits="userSpaceOnUse" x="41" y="19" width="2" height="3">
<path d="M41.4514 19.1161H42.3268V21.0261H41.4514V19.1161Z" fill="white"/>
</mask>
<g mask="url(#mask13_4031_3107)">
<path fill-rule="evenodd" clip-rule="evenodd" d="M42.324 20.5262C42.265 21.0358 41.9884 21.0986 41.7202 20.9712C41.4503 20.8438 41.3837 20.3368 41.5178 19.7016C41.6527 19.0672 41.8543 19.0035 41.9218 19.2566C41.9892 19.5114 42.362 20.1967 42.324 20.5262Z" fill="#D6D6D6"/>
</g>
<mask id="mask14_4031_3107" style="mask-type:luminance" maskUnits="userSpaceOnUse" x="43" y="16" width="5" height="3">
<path d="M43.1301 16.9619H47.4279V18.3836H43.1301V16.9619Z" fill="white"/>
</mask>
<g mask="url(#mask14_4031_3107)">
<path opacity="0.38" fill-rule="evenodd" clip-rule="evenodd" d="M47.4282 17.644C47.1676 17.2661 47.1288 17.1905 46.9214 17.2661C46.713 17.3425 46.3884 17.7196 45.9987 17.644C45.6091 17.5676 44.764 17.644 44.4393 17.4173C44.1146 17.1905 43.6744 16.985 43.5049 16.9748C43.3354 16.9646 43.0748 16.889 43.1405 17.2661C43.2055 17.644 43.1405 17.7952 43.4003 17.7952C43.6601 17.7952 43.9215 17.8377 44.4081 18.0805C44.8947 18.3234 46.1935 18.4746 46.5832 18.3234C46.9728 18.1723 47.4282 17.644 47.4282 17.644Z" fill="#D6D6D6"/>
</g>
<mask id="mask15_4031_3107" style="mask-type:luminance" maskUnits="userSpaceOnUse" x="36" y="16" width="5" height="3">
<path d="M36.4153 16.9619H40.7122V18.3776H36.4153V16.9619Z" fill="white"/>
</mask>
<g mask="url(#mask15_4031_3107)">
<path opacity="0.38" fill-rule="evenodd" clip-rule="evenodd" d="M36.4154 17.644C36.6752 17.2661 36.7139 17.1905 36.9214 17.2661C37.1289 17.3425 37.4544 17.7196 37.8441 17.644C38.2337 17.5684 39.0779 17.644 39.4026 17.4181C39.7281 17.1905 40.1684 16.985 40.3379 16.9748C40.5066 16.9646 40.768 16.889 40.7022 17.2661C40.6373 17.644 40.7022 17.7952 40.4425 17.7952C40.1827 17.7952 40.4602 17.8028 39.9736 18.0457C39.4878 18.2886 37.6492 18.4754 37.2596 18.3243C36.8691 18.1723 36.4146 17.6449 36.4146 17.6449L36.4154 17.644Z" fill="#D6D6D6"/>
</g>
<mask id="mask16_4031_3107" style="mask-type:luminance" maskUnits="userSpaceOnUse" x="42" y="20" width="2" height="2">
<path d="M42.8657 20.0781H43.6366V21.3792H42.8657V20.0781Z" fill="white"/>
</mask>
<g mask="url(#mask16_4031_3107)">
<path fill-rule="evenodd" clip-rule="evenodd" d="M43.2635 20.2146C43.466 20.2825 43.7341 20.4863 43.6001 20.8243C43.4651 21.164 43.3985 21.4341 43.2644 21.3661C43.1295 21.2982 43.1295 21.2303 42.9954 21.0961C42.6631 20.7606 43.0628 20.0116 43.1303 20.0795L43.2644 20.2154L43.2635 20.2146Z" fill="#D6D6D6"/>
</g>
<mask id="mask17_4031_3107" style="mask-type:luminance" maskUnits="userSpaceOnUse" x="40" y="20" width="1" height="2">
<path d="M40.1118 20.0781H40.8827V21.3792H40.1118V20.0781Z" fill="white"/>
</mask>
<g mask="url(#mask17_4031_3107)">
<path fill-rule="evenodd" clip-rule="evenodd" d="M40.4839 20.2146C40.2824 20.2825 40.0142 20.4863 40.1483 20.8243C40.2832 21.164 40.3498 21.4341 40.4839 21.3661C40.6189 21.2982 40.6189 21.2303 40.753 21.0961C41.0853 20.7606 40.6855 20.0116 40.618 20.0795L40.4839 20.2154V20.2146Z" fill="#D6D6D6"/>
</g>
<path fill-rule="evenodd" clip-rule="evenodd" d="M44.6747 24.3486C44.743 24.386 45.2709 24.2407 45.2794 24.3486C45.2979 24.6076 44.5566 25.3762 44.2715 25.5673C43.8684 25.839 43.6669 26.1091 43.2646 25.9749C42.8614 25.839 42.4347 25.4858 42.6489 25.2556C42.8614 25.0263 44.6747 24.3486 44.6747 24.3486ZM39.1329 24.2467C39.0646 24.2841 38.5367 24.1388 38.5291 24.2467C38.5097 24.5066 39.251 25.2743 39.536 25.4662C39.9392 25.7371 40.1407 26.008 40.543 25.873C40.9461 25.7371 41.3729 25.3838 41.1595 25.1545C40.9461 24.9244 39.1329 24.2467 39.1329 24.2467Z" fill="#D6D6D6"/>
<path fill-rule="evenodd" clip-rule="evenodd" d="M38.5635 24.28C38.4201 24.1144 40.7799 23.4673 41.6924 23.7314C42.0728 23.8418 42.4472 23.6991 42.7947 23.6703C43.6313 23.6015 45.5086 24.2333 45.2792 24.348C45.0498 24.4618 38.5635 24.28 38.5635 24.28Z" fill="#D6D6D6"/>
<path fill-rule="evenodd" clip-rule="evenodd" d="M44.5408 24.4162C44.2051 24.6191 43.3322 25.1609 42.9282 25.2289C42.526 25.2968 41.7939 25.2289 41.4524 25.2289C41.115 25.2289 40.7127 25.1609 40.5112 25.093C40.3096 25.0251 39.2351 24.4162 39.2351 24.2803C39.2351 24.1444 39.0412 24.3686 39.5042 24.2803C39.9672 24.1928 41.9213 24.2803 42.4585 24.2803C42.9957 24.2803 44.3392 24.3482 44.6749 24.3482C45.0105 24.3482 44.5399 24.4162 44.5399 24.4162H44.5408Z" fill="#ACACAC"/>
<path fill-rule="evenodd" clip-rule="evenodd" d="M45.2794 24.3472C45.2794 24.4041 45.2035 24.4296 45.0897 24.4355C44.8046 24.4508 44.2817 24.3472 44.1375 24.3472C43.936 24.3472 43.1972 24.3472 42.8615 24.4152C42.5259 24.4831 42.3918 24.6181 42.0561 24.5502C41.7196 24.4823 41.4514 24.4823 41.0483 24.4143C40.646 24.3464 39.9072 24.2784 39.6382 24.3464C39.37 24.4143 38.858 24.3277 38.7653 24.3464C38.4296 24.4143 38.4296 24.2784 38.5637 24.2784C38.6987 24.2784 40.0413 23.8054 40.646 23.8054C41.2498 23.8054 41.4514 23.8733 41.8545 23.9413C42.2568 24.0084 42.3918 23.8054 42.929 23.8054C43.4662 23.8054 45.2794 24.2793 45.2794 24.3472ZM40.5785 16.1494C40.7801 16.2853 40.9808 16.7591 40.8476 16.963C40.7126 17.1651 40.2429 17.0309 39.9738 17.0309C39.7056 17.0309 39.5268 16.805 39.235 16.6233C38.9036 16.4177 37.9599 16.3532 37.6242 16.6233C37.3265 16.8628 37.4218 17.0309 37.0861 17.1659C36.7505 17.3018 36.8846 17.1659 36.8179 17.098C36.7505 17.0301 36.8854 16.6241 37.5559 16.4211C37.8907 16.3192 38.4979 16.2003 38.9668 16.2853C39.4391 16.3702 39.7723 16.6241 39.9738 16.6912C40.2361 16.7804 40.4436 16.7591 40.377 16.4203C40.3095 16.0814 40.0413 15.8785 40.3095 16.0143L40.5785 16.1494Z" fill="#909090"/>
<path fill-rule="evenodd" clip-rule="evenodd" d="M37.0195 17.1936C37.1258 17.2343 37.1258 17.3014 37.2557 17.1664C37.3872 17.0305 37.3974 16.859 37.588 16.7078C37.7065 16.6057 37.845 16.5299 37.9945 16.4853C38.144 16.4407 38.3012 16.4282 38.4558 16.4488C38.8893 16.4887 39.1119 16.5999 39.3025 16.6917C39.5378 16.8046 39.806 17.0619 39.7731 17.0314C39.7158 16.977 39.3363 16.5685 39.0478 16.5286C38.7586 16.4887 38.5629 16.3536 38.1707 16.4207C37.7786 16.4887 37.3864 16.6925 37.3215 16.8275C37.2565 16.9634 37.0195 17.1936 37.0195 17.1936Z" fill="#404040"/>
<path fill-rule="evenodd" clip-rule="evenodd" d="M47.2933 17.099C47.3608 17.2348 47.4282 17.3028 47.1592 17.2348C46.891 17.1669 46.622 16.6251 46.2863 16.5571C45.9507 16.4892 45.7491 16.2854 45.2793 16.4892C44.8087 16.693 44.4056 16.8281 44.2049 16.896C44.0025 16.9639 44.07 17.1669 43.8018 17.0998C43.5336 17.0319 43.2645 16.9639 43.1304 16.8281C42.9955 16.6922 42.8614 16.7601 42.928 16.4213C42.9955 16.0824 42.9955 15.8123 43.1979 15.8794C43.3986 15.9474 43.1979 16.0833 43.332 16.3542C43.4661 16.6251 43.3995 16.7601 43.8018 16.5571C44.2049 16.3533 44.4056 16.2854 44.8762 16.2854C45.346 16.2854 46.2197 16.2174 46.622 16.4213C47.0251 16.6251 47.2933 17.099 47.2933 17.099Z" fill="#909090"/>
<path fill-rule="evenodd" clip-rule="evenodd" d="M47.0674 17.1936C46.9577 17.2343 46.9577 17.3014 46.8236 17.1664C46.6887 17.0305 46.6786 16.859 46.4829 16.7078C46.2864 16.5566 46.0368 16.408 45.5906 16.4488C45.1445 16.4887 44.8991 16.6696 44.6857 16.7146C44.4732 16.7596 44.0624 16.9677 44.1333 16.9311C44.205 16.8955 44.6857 16.5685 44.9826 16.5286C45.2786 16.4887 45.4801 16.3536 45.8833 16.4207C46.2864 16.4887 46.6895 16.6925 46.7562 16.8275C46.8236 16.9634 47.0665 17.1927 47.0665 17.1927L47.0674 17.1936ZM38.228 16.7936C38.228 16.887 38.3183 16.9634 38.4296 16.9634C38.5409 16.9634 38.6303 16.887 38.6303 16.7936C38.6303 16.7001 38.5409 16.6237 38.4296 16.6237C38.3183 16.6237 38.228 16.7001 38.228 16.7936Z" fill="#404040"/>
<mask id="mask18_4031_3107" style="mask-type:luminance" maskUnits="userSpaceOnUse" x="41" y="23" width="2" height="2">
<path d="M41.6891 23.9131H42.5426V24.4906H41.6891V23.9131Z" fill="white"/>
</mask>
<g mask="url(#mask18_4031_3107)">
<path opacity="0.38" fill-rule="evenodd" clip-rule="evenodd" d="M42.5255 23.9433C42.5929 24.1471 42.458 24.4172 42.1898 24.4851C41.9208 24.553 41.5851 24.0112 41.7192 24.0112C41.8542 24.0112 42.2564 24.0112 42.3914 23.9433C42.5255 23.8753 42.5255 23.9433 42.5255 23.9433Z" fill="#D6D6D6"/>
</g>
<path fill-rule="evenodd" clip-rule="evenodd" d="M42.5259 33.3592C42.9956 33.7652 43.5328 34.5779 43.1297 35.1206C42.7274 35.6624 42.4584 36.0684 41.9886 35.7975C41.5189 35.5265 40.7801 33.9002 41.2499 33.7652C41.7196 33.6293 42.5259 33.3592 42.5259 33.3592Z" fill="#2A2A2A"/>
<path fill-rule="evenodd" clip-rule="evenodd" d="M31.647 31.7326C31.2877 31.5993 30.5506 31.5517 30.1095 31.5942L22.0529 34.0332L22.2468 36.136L30.5734 33.494C31.1435 32.9725 31.4623 32.3729 31.6478 31.7326H31.647Z" fill="#454545"/>
<path d="M30.2372 32.3419L28.8254 33.8324L27.3487 33.6965L27.0797 33.9683V34.4421L26.2743 34.646L26.1393 34.1024L26.6765 33.4935L26.0052 33.4256L25.9378 32.8838L26.6765 32.6799L26.8224 32.995L27.2812 33.0188L28.0875 32.2061L30.2372 32.3419ZM25.6712 32.9508L25.9394 34.7801L25.1332 35.0519L24.865 33.2226L25.6712 32.9508Z" fill="#D1D1D1"/>
<path d="M28.9602 32.749L28.5579 33.2238H27.8866L28.3564 32.749H28.9602Z" fill="#454545"/>
<path fill-rule="evenodd" clip-rule="evenodd" d="M52.7406 31.7326C53.0999 31.5993 53.837 31.5517 54.2772 31.5942L62.3356 34.0332L62.1416 36.136L53.8151 33.494C53.2449 32.9725 52.9261 32.3729 52.7406 31.7326Z" fill="#454545"/>
<path d="M54.1517 32.3419L55.5618 33.8324L57.0386 33.6965L57.3076 33.9683V34.4421L58.113 34.646L58.248 34.1024L57.7099 33.4935L58.3821 33.4256L58.4495 32.8838L57.7099 32.6799L57.5648 32.995L57.106 33.0188L56.2998 32.2061L54.1517 32.3419ZM58.7177 32.9508L58.4487 34.7801L59.2549 35.0519L59.5231 33.2226L58.7177 32.9508ZM59.7922 33.2906L59.4565 35.119L60.396 35.3908L60.665 33.5615L59.7922 33.2906ZM60.8666 33.6286L60.5976 35.4578L61.4705 35.7296L61.6729 33.9003L60.8666 33.6286Z" fill="#D1D1D1"/>
<path d="M55.4268 32.749L55.8299 33.2238H56.5012L56.0315 32.749H55.4268Z" fill="#454545"/>
<path fill-rule="evenodd" clip-rule="evenodd" d="M49.2406 20.6219C48.2902 21.5815 49.5105 22.6541 48.8384 23.5348C48.167 24.4155 48.0321 26.0418 47.0926 26.4478C46.1522 26.8554 45.5475 27.6681 45.1444 28.2779C44.7421 28.8868 43.3986 29.8354 42.8614 29.6325C42.3242 29.4286 42.3917 29.1577 42.2567 28.8868C42.1226 28.6159 42.2567 27.2613 41.9219 27.1263C41.5854 26.9904 41.5179 26.4478 41.3172 27.1263C41.1148 27.8032 41.2497 28.7518 40.5784 29.0227C39.9071 29.2936 39.7722 29.8354 39.4365 29.0906C39.1008 28.345 39.369 28.0741 38.5636 27.6681C37.7582 27.2605 36.8179 27.1263 36.5488 26.1098C36.2806 25.0932 35.4744 24.5514 35.3403 23.5348C35.2062 22.5191 35.2728 20.4181 35.0046 20.6219C34.7356 20.8257 34.4674 22.3832 34.7356 23.6028C35.0046 24.8223 35.1994 25.7259 35.6759 26.4478C36.2132 27.2613 37.8923 28.548 37.9598 28.8197C38.0272 29.0906 38.497 29.6325 39.1683 30.1063C39.8396 30.5802 40.3094 30.852 40.9816 30.987C41.6529 31.1229 42.9955 30.987 43.7343 30.5802C44.4731 30.1743 46.0451 28.7925 46.8236 28.007C47.6964 27.1263 48.0321 26.9904 48.4344 26.3127C48.8384 25.6359 49.6438 23.5357 49.6438 22.79C49.6438 22.0444 49.4422 20.4189 49.2406 20.6219Z" fill="#404040"/>
<path fill-rule="evenodd" clip-rule="evenodd" d="M42.9288 25.3639C42.9288 25.0922 40.9806 25.0922 40.7799 25.296C40.5784 25.4998 41.3172 26.0416 41.8544 26.0416C42.3916 26.0416 42.9288 25.7096 42.9288 25.3639ZM45.0103 23.8064C44.2715 23.1287 43.0629 23.1966 42.5932 23.1287C42.1226 23.0608 42.19 22.248 41.7869 22.3831C41.3838 22.5189 41.5179 22.9249 40.914 23.1287C40.3093 23.3325 39.5705 23.4005 39.1683 23.6705C38.7651 23.9423 38.1604 24.1444 38.5636 24.1444C38.9667 24.1444 40.1752 23.7385 40.8466 23.6705C41.5179 23.6026 42.3916 23.6705 42.7947 23.6705C43.197 23.6705 44.204 23.8064 44.608 23.8744C45.0103 23.9423 45.0103 23.8064 45.0103 23.8064ZM48.3348 16.9971C48.2336 17.2349 47.7638 16.8281 47.6298 16.6931C47.4948 16.5572 47.6298 16.2183 47.2266 16.0154C46.8235 15.8115 46.9584 15.6077 46.2196 15.6757C45.4809 15.7436 44.204 15.8115 43.8017 15.9474C43.3986 16.0833 43.197 16.1512 43.1304 15.8795C43.0629 15.6077 42.9955 15.4735 43.2645 15.2697C43.5335 15.0659 45.4134 14.7958 46.0847 14.9317C46.7569 15.0668 47.0723 15.1933 47.5631 15.4837C48.2336 15.8795 48.3348 16.9971 48.3348 16.9971ZM35.4144 16.9971C35.5156 17.2349 35.9449 16.6922 36.079 16.5572C36.2139 16.4213 36.1465 16.1504 36.5496 15.9474C36.9519 15.7436 36.9519 15.6757 37.5296 15.6757C38.2718 15.6757 39.5444 15.8115 39.9475 15.9474C40.3507 16.0833 40.5514 16.1512 40.6188 15.8795C40.6863 15.6077 40.7538 15.4727 40.4839 15.2697C40.2157 15.0659 38.3359 14.7958 37.6637 14.9309C36.9924 15.0667 36.6769 15.1924 36.1861 15.4829C35.5148 15.8795 35.4144 16.9971 35.4144 16.9971Z" fill="#404040"/>
</g>
<path d="M63.379 6.77703L62.9928 6.17576H63.3318L63.7181 6.77703H63.379ZM62.717 6.03309H63.008C63.1193 6.03309 63.2036 6.00761 63.2643 5.9592C63.2944 5.93465 63.3183 5.90333 63.3341 5.86779C63.3499 5.83224 63.3572 5.79344 63.3554 5.75453C63.3576 5.7157 63.3504 5.67691 63.3346 5.64144C63.3187 5.60597 63.2946 5.57486 63.2643 5.55071C63.1891 5.49913 63.0988 5.47433 63.008 5.48022H62.717V6.03309ZM62.3813 6.77703V5.20931H63.0282C63.2331 5.20931 63.3934 5.25772 63.5089 5.35623C63.5662 5.40484 63.6116 5.46601 63.6417 5.53506C63.6719 5.60411 63.6859 5.67919 63.6827 5.75453C63.6827 5.92693 63.6253 6.06026 63.5089 6.15623C63.3934 6.25134 63.2331 6.2989 63.0282 6.2989H62.7204V6.77703H62.3813ZM62.9574 7.17873C63.1128 7.18035 63.267 7.15078 63.4109 7.09172C63.5548 7.03266 63.6856 6.94532 63.7957 6.83478C63.9019 6.72693 63.9837 6.60039 64.0411 6.45432C64.1001 6.30824 64.128 6.15198 64.128 5.98553C64.128 5.81822 64.0993 5.66281 64.0411 5.51929C63.9859 5.37993 63.9036 5.25309 63.799 5.14619C63.6944 5.0393 63.5697 4.9545 63.4322 4.89679C63.2851 4.83578 63.1274 4.80516 62.9683 4.80676C62.8005 4.80676 62.6445 4.83734 62.5019 4.89679C62.3586 4.95623 62.2346 5.04116 62.1309 5.14986C61.9137 5.37534 61.7939 5.67821 61.7977 5.99232C61.7977 6.16047 61.8264 6.31504 61.8846 6.45856C61.942 6.60124 62.0238 6.72777 62.1292 6.83648C62.2338 6.94518 62.3577 7.02926 62.5003 7.08871C62.6419 7.14815 62.7938 7.17873 62.9574 7.17873ZM62.9616 7.39784C62.7634 7.39784 62.5812 7.36132 62.4134 7.28998C62.248 7.22024 62.0979 7.11833 61.9717 6.99009C61.8455 6.86185 61.7457 6.70979 61.678 6.54264C61.6068 6.36809 61.571 6.181 61.5726 5.99232C61.5712 5.80779 61.6061 5.6248 61.6751 5.45385C61.7441 5.28291 61.846 5.12737 61.9748 4.99615C62.1013 4.86876 62.2489 4.76685 62.4185 4.69551C62.5888 4.62417 62.7718 4.58936 62.9692 4.58936C63.1657 4.58936 63.3487 4.62333 63.519 4.69381C63.6877 4.7643 63.8353 4.86366 63.9601 4.99105C64.0886 5.12176 64.1898 5.27697 64.2579 5.4476C64.3259 5.61823 64.3595 5.80082 64.3565 5.98468C64.3565 6.18425 64.3219 6.36854 64.2502 6.54009C64.1116 6.8791 63.8449 7.14881 63.5089 7.28998C63.3403 7.36132 63.1589 7.39784 62.9616 7.39784Z" fill="#777777"/>
<path d="M21.5699 54.9062L19.8303 52.5768L20.7492 52.0025L22.8966 54.9062H21.5699ZM20.858 52.613L19.8017 52.4854L21.571 50.0464H22.7794L20.858 52.613ZM18.9092 52.012H20.5422V52.9587H18.9081L18.9092 52.012ZM18.1159 50.0464H19.243V54.9072H18.1159V50.0464ZM28.3269 54.9062V53.9234L28.2635 53.7138V51.994C28.2635 51.66 28.1653 51.4015 27.9678 51.2164C27.7681 51.0314 27.4671 50.9378 27.0647 50.9378C26.7943 50.9378 26.527 50.9803 26.2661 51.0654C26.0246 51.1396 25.7997 51.2603 25.6038 51.4206L25.1613 50.5931C25.4377 50.3837 25.752 50.2305 26.0866 50.1422C26.4436 50.0422 26.8154 49.9922 27.1999 49.9922C27.897 49.9922 28.4378 50.1602 28.8191 50.4974C29.2005 50.8335 29.3916 51.3536 29.3916 52.0578V54.9062H28.3269ZM26.8122 54.97C26.451 54.97 26.1362 54.9083 25.8647 54.7839C25.6114 54.6736 25.3939 54.4937 25.2373 54.2648C25.0901 54.0427 25.0131 53.7809 25.0166 53.5139C25.0166 53.2405 25.081 52.9948 25.2109 52.7768C25.3398 52.5587 25.5521 52.3854 25.8468 52.2577C26.1415 52.1301 26.5323 52.0663 27.0192 52.0663H28.4178V52.8215H27.1006C26.7161 52.8215 26.4563 52.8842 26.3253 53.0087C26.2613 53.0664 26.2103 53.1373 26.1759 53.2166C26.1414 53.2958 26.1243 53.3816 26.1256 53.4682C26.1256 53.6745 26.207 53.8383 26.3696 53.9596C26.5323 54.0808 26.7573 54.1414 27.0457 54.1414C27.3235 54.1414 27.5717 54.0776 27.7914 53.95C28.01 53.8223 28.1685 53.6351 28.2635 53.3863L28.4537 54.0691C28.3457 54.3536 28.1394 54.5892 27.8727 54.7328C27.5928 54.8913 27.239 54.97 26.8122 54.97ZM32.5943 54.9062V50.0464H37.2123V54.9072H36.0947V50.7474L36.3556 51.0112H33.4604L33.7213 50.7474V54.9062H32.5943ZM40.5406 54.9062V50.0464H41.6687V53.2501L44.3305 50.0464H45.3583V54.9072H44.2302V51.7025L41.5789 54.9062H40.5406ZM49.6795 54.9062V50.7389L49.9414 51.0112H47.9841V50.0464H52.4944V51.0112H50.5456L50.8065 50.7389V54.9062H49.6795ZM58.042 54.9062V53.9234L57.9775 53.7138V51.994C57.9775 51.66 57.8793 51.4015 57.6807 51.2164C57.4822 51.0314 57.1811 50.9378 56.7787 50.9378C56.5083 50.9378 56.241 50.9803 55.9801 51.0654C55.7192 51.1505 55.4974 51.2696 55.3179 51.4206L54.8753 50.5931C55.1515 50.3841 55.4654 50.2309 55.7995 50.1422C56.1576 50.0422 56.5283 49.9922 56.9139 49.9922C57.611 49.9922 58.1518 50.1602 58.5331 50.4974C58.9145 50.8335 59.1056 51.3536 59.1056 52.0578V54.9062H58.042ZM56.5262 54.97C56.165 54.97 55.8492 54.9083 55.5788 54.7839C55.3255 54.6734 55.1081 54.4936 54.9513 54.2648C54.8042 54.0427 54.7272 53.7809 54.7306 53.5139C54.7306 53.2405 54.795 52.9948 54.9249 52.7768C55.0538 52.5587 55.2661 52.3854 55.5608 52.2577C55.8555 52.1301 56.2463 52.0663 56.7333 52.0663H58.1318V52.8215H56.8146C56.4301 52.8215 56.1713 52.8842 56.0393 53.0087C55.9752 53.0663 55.9241 53.1372 55.8897 53.2165C55.8552 53.2958 55.8382 53.3816 55.8397 53.4682C55.8397 53.6745 55.921 53.8383 56.0836 53.9596C56.2463 54.0808 56.4713 54.1414 56.7597 54.1414C57.0375 54.1414 57.2857 54.0776 57.5054 53.95C57.724 53.8223 57.8825 53.6351 57.9775 53.3863L58.1677 54.0691C58.0594 54.3537 57.8527 54.5893 57.5857 54.7328C57.3068 54.8913 56.953 54.97 56.5262 54.97ZM62.3083 54.9062V50.0464H63.4353V52.0216H65.8626V50.0464H66.9897V54.9072H65.8626V52.9863H63.4353V54.9062H62.3083ZM4.06116 71.1607H7.72854C8.49751 71.1607 9.08056 70.999 9.47984 70.6757C9.87805 70.3523 10.0777 69.8524 10.0777 69.1759C10.0777 68.5292 9.87699 68.0485 9.47984 67.7315C9.08162 67.4167 8.49751 67.2582 7.72854 67.2582H4.06116V71.1607ZM4.06116 64.7661H7.17188C7.90071 64.7661 8.44997 64.6087 8.81967 64.2917C9.19147 63.9769 9.37632 63.5099 9.37632 62.892C9.37632 62.2751 9.19148 61.8071 8.82073 61.4922C8.44892 61.1763 7.89965 61.0178 7.17294 61.0178H4.06116V64.7661ZM0.744464 73.807V58.3715H7.46025C9.13655 58.3715 10.4411 58.7172 11.3759 59.4086C12.3096 60.0999 12.7765 61.0838 12.7765 62.3623C12.7765 63.628 12.3371 64.6087 11.4582 65.3064C10.5784 66.0052 9.41119 66.3541 7.95564 66.3541L8.34646 65.4287C9.96678 65.4287 11.2248 65.7734 12.1174 66.4647C13.0099 67.1561 13.4567 68.1548 13.4567 69.4631C13.4567 70.8161 12.9782 71.8776 12.0244 72.6498C11.0695 73.4209 9.67947 73.807 7.85212 73.807H0.744464ZM24.1663 73.807L19.6739 66.3764L22.3738 64.6342L27.9572 73.807H24.1652H24.1663ZM22.6822 66.486L19.6127 66.0893L24.2898 58.3715H27.8125L22.6822 66.486ZM17.1399 64.6119H22.1678V67.589H17.1399V64.6119ZM14.7918 58.3715H18.1085V73.807H14.7918V58.3715Z" fill="#777777"/>
<path d="M29.8561 70.8966C30.6525 71.1476 31.3222 71.2167 31.8651 71.1061C32.408 70.9966 32.8918 70.5881 33.3175 69.8829L34.0178 68.7587L34.3273 68.3832L39.1069 58.3723H42.3834L36.2433 70.5881C35.6941 71.6901 35.0445 72.5356 34.2966 73.1238C33.5467 73.712 32.727 74.046 31.8345 74.1279C30.9419 74.2087 30.0134 74.0354 29.0522 73.6089L29.8561 70.8966ZM34.2649 71.3603L27.7551 58.3733H31.319L36.0997 68.7363L34.2649 71.3603ZM48.4612 74.0726C47.3996 74.0821 46.3463 73.8834 45.36 73.4876C44.4267 73.1125 43.5813 72.5456 42.8778 71.823C42.1712 71.0945 41.6141 70.2328 41.2384 69.2873C40.8476 68.3173 40.6522 67.2515 40.6522 66.09C40.6522 64.9285 40.8476 63.8628 41.2384 62.8927C41.6153 61.9456 42.1758 61.0836 42.8873 60.357C43.594 59.6378 44.439 59.0714 45.3706 58.6924C46.3181 58.3031 47.3553 58.1074 48.4813 58.1074C49.7309 58.1074 50.8611 58.3393 51.8709 58.803C52.8734 59.2605 53.7476 59.961 54.4154 60.842L52.2723 62.9587C51.7779 62.3566 51.2287 61.9046 50.6245 61.6036C50.0091 61.2996 49.3315 61.1448 48.6461 61.1515C47.9732 61.1515 47.3553 61.2685 46.7923 61.5036C46.2382 61.7321 45.7393 62.0778 45.3294 62.5173C44.9096 62.97 44.5839 63.5027 44.3714 64.084C44.1377 64.7262 44.0224 65.4061 44.0312 66.09C44.0312 66.825 44.1443 67.494 44.3714 68.096C44.5974 68.6991 44.9164 69.2214 45.3294 69.6628C45.7413 70.1031 46.2283 70.4413 46.7923 70.6764C47.381 70.9163 48.0111 71.036 48.6461 71.0285C49.3612 71.0285 50.0192 70.8796 50.6245 70.5775C51.2287 70.2765 51.7779 69.817 52.2723 69.199L54.4154 71.3157C53.7462 72.1981 52.8726 72.9021 51.8709 73.3663C50.8611 73.8365 49.7245 74.0726 48.4612 74.0726ZM62.6586 71.0295C63.3029 71.0295 63.8976 70.9115 64.4405 70.6775C64.9835 70.4424 65.4598 70.1031 65.8728 69.6617C66.2848 69.2214 66.6038 68.6991 66.8298 68.096C67.0637 67.4538 67.179 66.774 67.1699 66.09C67.1788 65.4061 67.0636 64.7262 66.8298 64.084C66.6178 63.5052 66.296 62.9734 65.8823 62.5183C65.4825 62.0813 64.9945 61.7354 64.4511 61.5036C63.8835 61.265 63.2737 61.1448 62.6586 61.1505C62.0122 61.1505 61.4185 61.2685 60.8756 61.5036C60.3327 61.7397 59.8563 62.078 59.4444 62.5183C59.0246 62.9707 58.6988 63.503 58.4863 64.084C58.2526 64.7262 58.1373 65.4061 58.1462 66.09C58.1462 66.8101 58.2592 67.4759 58.4863 68.0865C58.7124 68.6959 59.0282 69.2214 59.4338 69.6617C59.8331 70.0997 60.3212 70.4461 60.865 70.6775C61.4143 70.9115 62.0122 71.0295 62.6586 71.0295ZM62.6787 74.0726C61.5379 74.0726 60.4848 73.8737 59.5162 73.477C58.5732 73.0972 57.7176 72.5267 57.0023 71.8007C56.2905 71.0746 55.7303 70.2124 55.3545 69.265C54.9626 68.2949 54.7672 67.2366 54.7672 66.09C54.7672 64.9434 54.9626 63.8851 55.3545 62.9151C55.7318 61.9659 56.2959 61.1034 57.0128 60.3793C57.7306 59.6567 58.5856 59.0869 59.5268 58.7041C60.488 58.3063 61.5316 58.1085 62.6586 58.1085C63.7983 58.1085 64.8451 58.3063 65.8 58.7041C66.7349 59.0875 67.5832 59.6573 68.2938 60.3793C69.0036 61.1045 69.5664 61.9618 69.9511 62.9034C70.3504 63.867 70.549 64.9285 70.549 66.09C70.549 67.2366 70.3504 68.2992 69.9511 69.2767C69.5529 70.2541 69.0005 71.0997 68.2938 71.8124C67.5808 72.5288 66.7329 73.0947 65.8 73.477C64.8451 73.8737 63.8047 74.0726 62.6787 74.0726ZM75.129 71.1614H78.7963C79.5653 71.1614 80.1494 70.9998 80.5476 70.6764C80.9458 70.3531 81.1455 69.8532 81.1455 69.1767C81.1455 68.53 80.9458 68.0492 80.5476 67.7323C80.1494 67.4174 79.5653 67.2589 78.7963 67.2589H75.129V71.1614ZM75.129 64.7668H78.2397C78.9674 64.7668 79.5178 64.6094 79.8885 64.2925C80.2593 63.9776 80.4452 63.5107 80.4452 62.8927C80.4452 62.2758 80.2593 61.8078 79.8885 61.493C79.5178 61.1771 78.9674 61.0186 78.2397 61.0186H75.129V64.7668ZM71.8112 73.8078V58.3723H78.5291C80.2043 58.3723 81.5088 58.7179 82.4436 59.4093C83.3774 60.1007 83.8443 61.0845 83.8443 62.363C83.8443 63.6288 83.4048 64.6094 82.526 65.3072C81.6462 66.006 80.479 66.3549 79.0234 66.3549L79.4153 65.4295C81.0356 65.4295 82.2926 65.7741 83.1852 66.4655C84.0777 67.1568 84.5245 68.1556 84.5245 69.4639C84.5245 70.8168 84.0471 71.8783 83.0922 72.6505C82.1373 73.4217 80.7462 73.8078 78.9199 73.8078H71.8112Z" fill="#777777"/>
</g>
<defs>
<clipPath id="clip0_4031_3107">
<rect width="85.5" height="75.2358" fill="white"/>
</clipPath>
</defs>
</svg>
