<svg width="150" height="57" viewBox="0 0 150 57" fill="none" xmlns="http://www.w3.org/2000/svg">
<path fill-rule="evenodd" clip-rule="evenodd" d="M75.1321 0.0380859L78.6419 1.14551C80.4535 1.71164 83.5868 2.46567 84.8323 2.71729C87.6884 3.30862 98.0928 5.22105 111.856 5.25879C113.193 5.25877 133.092 5.13281 133.092 5.13281C139.105 5.15798 142.904 7.2716 145.03 9.04541C148.263 11.7377 150.012 15.5756 149.987 19.853H150V36.6343C150.025 40.9243 148.264 44.7496 145.043 47.4419C142.917 49.2283 139.118 51.3418 133.105 51.3545C133.105 51.3545 113.188 51.2285 111.867 51.2285C98.117 51.2789 87.6998 53.1913 84.844 53.77C83.5982 54.0217 80.4664 54.7632 78.6551 55.3418C78.6551 55.3418 75.3016 56.4097 75.1453 56.4492C75.0572 56.4744 74.9559 56.4744 74.8552 56.4492C74.711 56.3971 71.3455 55.3418 71.3455 55.3418C69.5341 54.7758 66.4024 54.0218 65.1565 53.77C62.3007 53.1787 51.8961 51.2663 38.1331 51.2285C36.7995 51.2285 16.8958 51.3545 16.8958 51.3545C10.8826 51.3292 7.08337 49.2157 4.9573 47.4419C1.72406 44.7496 -0.0248936 40.9117 0.000267788 36.6343V19.853C-0.0248927 15.5757 1.72367 11.7377 4.94412 9.04541C7.07025 7.25895 10.8705 5.14539 16.8841 5.13281C16.9648 5.13332 36.8007 5.25878 38.1199 5.25879C51.8706 5.20847 62.2875 3.30858 65.1433 2.71729C66.3887 2.4657 69.5206 1.72417 71.3323 1.14551L74.8303 0.0380859L74.9812 0L75.1321 0.0380859ZM73.2322 7.19824C71.0935 7.89012 67.7352 8.67048 66.4016 8.94727C63.3949 9.56372 52.4619 11.577 38.1199 11.6147C28.9932 11.6524 16.9352 11.4895 16.8841 11.4888C12.7702 11.5014 10.3168 12.8221 8.99587 13.9292C7.23459 15.4011 6.31581 17.4269 6.32839 19.8047V36.687C6.30323 39.0648 7.23458 41.1037 8.99587 42.5757C10.3295 43.6827 12.7704 45.0035 16.8841 45.0161L38.1199 44.8901C52.4735 44.9279 63.3932 46.941 66.4134 47.5576C67.7469 47.8218 71.0941 48.6141 73.2454 49.2935L74.9944 49.8091L76.5164 49.3066C78.6799 48.64 82.0884 47.8592 83.3469 47.6074C86.3034 47.0161 97.0611 45.1172 111.189 45.1172C111.309 45.1187 130.556 45.3683 132.903 45.3809H132.979C137.847 45.3808 143.534 43.2166 143.584 37.1528V19.3638C143.534 13.275 137.835 11.1109 132.979 11.1108H132.916C130.538 11.1234 111.176 11.3745 111.176 11.3745C97.048 11.3745 86.2911 9.47557 83.322 8.88428C82.0637 8.6326 78.6551 7.8532 76.4915 7.18652L74.9812 6.68262L73.2322 7.19824Z" fill="#999999"/>
<path d="M12.5176 16.7695H18.2544L18.267 24.167H22.5192V16.7695H28.256V38.2322H22.5192V29.9038H18.267V38.2196L12.5176 38.2322V16.7695ZM80.6923 16.7695H86.1523V38.2322H80.4407V16.7695M38.1318 33.6654C39.3648 33.6654 41.2393 32.9483 41.2267 29.9289C41.2015 26.9096 39.3144 26.2176 38.0941 26.2176C36.8612 26.2302 34.9867 26.9221 35.0118 29.9541C35.0118 32.9735 36.8989 33.678 38.1318 33.6654ZM30.055 30.0044C30.055 23.4121 34.9364 21.4873 38.1067 21.4621C41.277 21.4495 46.1583 23.3492 46.1583 29.9415C46.1583 36.5589 41.3399 38.6725 38.1696 38.6725C34.9867 38.6977 30.055 36.5967 30.055 30.0044ZM102.407 26.6076C102.407 22.3176 98.9972 21.4244 96.0533 21.4244C93.7385 21.437 91.6501 21.7012 89.8888 23.236L89.5365 27.3499C91.7004 26.2302 93.0465 25.4125 95.1349 25.3999C96.0659 25.3873 97.0723 25.5131 97.1101 26.6579C97.1856 28.9728 88.2784 27.7021 88.3162 33.9044C88.3288 37.3515 90.3668 38.6977 93.7259 38.6725C95.8017 38.6725 97.0472 37.2257 97.324 36.9489V38.2196H102.407V26.6076ZM96.6446 34.3573C96.2169 34.6718 95.6759 34.8354 95.0217 34.848C94.4178 34.848 93.4239 34.4328 93.4114 33.4641C93.4114 32.1054 94.8078 31.7154 95.3865 31.5015C96.6572 31.0738 97.8146 30.9605 97.7894 30.5705C97.8272 31.1493 97.8146 31.6651 97.7643 32.118C97.6762 33.2125 97.2988 33.9673 96.6446 34.3573ZM129.631 33.8793C130.713 33.8793 132.386 33.1244 132.374 29.9541C132.349 26.7838 130.663 26.0541 129.593 26.0541C128.499 26.0667 126.662 26.8089 126.687 29.9792C126.7 33.1496 128.549 33.8793 129.631 33.8793ZM132.462 36.9364C131.581 37.9806 130.185 38.6851 128.159 38.6851C123.781 38.6977 121.932 33.9799 121.919 29.4886C121.894 25.9786 123.618 21.4621 128.31 21.437C130.059 21.4244 131.845 21.8899 132.298 22.7831H132.336V16.7821H138.048V38.2448H132.462V36.9364ZM104.709 21.9276H110.458L110.471 23.475H110.446C111.515 21.8018 112.937 21.3992 115.226 21.3866C117.906 21.3741 120.435 23.0473 120.46 26.8467V38.2322H114.723L114.748 29.2621C114.736 27.2115 114.207 26.4692 112.647 26.4692C111.326 26.4818 110.446 27.1989 110.458 29.1993V38.2196H104.709V21.9276ZM72.301 38.2322V29.4131C72.2884 27.3625 71.76 26.6202 70.2 26.6328C68.879 26.6328 68.0613 27.3876 68.0739 29.4005V38.2322H62.3748V16.7695H68.0361L68.0487 23.626H68.0361C69.0929 21.9528 70.5145 21.5376 72.7916 21.5376C75.4713 21.5376 77.9623 23.1983 77.9749 26.9976V38.2322H72.301ZM60.0474 33.3509C59.5567 33.6654 57.8458 34.0806 56.16 34.0931C54.0464 34.0931 53.1783 32.4702 53.1658 30.4699C53.1658 28.0292 54.5496 27.0605 56.2732 26.7838C56.9148 26.6831 59.2548 26.8341 60.0474 27.5386V22.3931C59.1164 21.6634 56.9148 21.4747 55.2667 21.4747C49.9954 21.4747 47.4667 25.0099 47.4793 30.1302C47.517 34.6467 49.3161 38.6977 54.8138 38.6851C55.858 38.6725 59.0661 38.5341 60.0474 38.1064V33.3509Z" fill="#777777"/>
</svg>
