<svg width="150" height="32" viewBox="0 0 150 32" fill="none" xmlns="http://www.w3.org/2000/svg">
<g clip-path="url(#clip0_4031_2830)">
<mask id="mask0_4031_2830" style="mask-type:luminance" maskUnits="userSpaceOnUse" x="-25" y="-38" width="586" height="631">
<path d="M560.938 -37.8003V592.2H-25V-37.8003H560.938Z" fill="white"/>
</mask>
<g mask="url(#mask0_4031_2830)">
<mask id="mask1_4031_2830" style="mask-type:luminance" maskUnits="userSpaceOnUse" x="0" y="21" width="32" height="11">
<path d="M31.2797 21.4951V31.4995H0V21.4951H31.2797Z" fill="white"/>
</mask>
<g mask="url(#mask1_4031_2830)">
<mask id="mask2_4031_2830" style="mask-type:luminance" maskUnits="userSpaceOnUse" x="21" y="21" width="11" height="11">
<path d="M26.3262 21.4951C29.023 21.4951 31.2793 23.7678 31.2793 26.5383C31.2748 27.8606 30.7513 29.1274 29.8233 30.0619C28.8952 30.9965 27.638 31.523 26.3262 31.5263C23.5746 31.5263 21.3184 29.3087 21.3184 26.5383C21.3237 25.2016 21.8532 23.9213 22.7913 22.9765C23.7294 22.0318 25.0001 21.4993 26.3262 21.4951Z" fill="white"/>
</mask>
<g mask="url(#mask2_4031_2830)">
<path d="M21.3184 21.4951H31.2793V31.4995H21.3184V21.4951Z" fill="#BABABA"/>
</g>
<mask id="mask3_4031_2830" style="mask-type:luminance" maskUnits="userSpaceOnUse" x="10" y="21" width="11" height="11">
<path d="M15.6357 21.4951C18.3873 21.4951 20.5889 23.7678 20.5889 26.5383C20.5914 27.1944 20.4649 27.8445 20.2168 28.4512C19.9687 29.0578 19.6039 29.6088 19.1434 30.0726C18.6829 30.5363 18.1358 30.9036 17.5338 31.1531C16.9318 31.4026 16.2867 31.5294 15.6357 31.5263C12.8857 31.5263 10.6279 29.3087 10.6279 26.5383C10.6333 25.2016 11.1628 23.9213 12.1009 22.9765C13.039 22.0318 14.3097 21.4993 15.6357 21.4951Z" fill="white"/>
</mask>
<g mask="url(#mask3_4031_2830)">
<path d="M10.6279 21.4951H20.5889V31.4995H10.6279V21.4951Z" fill="#BABABA"/>
</g>
<mask id="mask4_4031_2830" style="mask-type:luminance" maskUnits="userSpaceOnUse" x="-1" y="21" width="11" height="11">
<path d="M4.87207 21.4951C7.67832 21.4951 9.93457 23.7678 9.93457 26.5383C9.93457 29.3103 7.67832 31.5263 4.87207 31.5263C2.11895 31.5263 -0.0263672 29.3087 -0.0263672 26.5383C-0.0263672 23.7663 2.11895 21.4951 4.87207 21.4951Z" fill="white"/>
</mask>
<g mask="url(#mask4_4031_2830)">
<path d="M0 21.4951H9.93437V31.4995H0V21.4951Z" fill="#BABABA"/>
</g>
</g>
<mask id="mask5_4031_2830" style="mask-type:luminance" maskUnits="userSpaceOnUse" x="21" y="0" width="11" height="11">
<path d="M26.3262 0C29.0231 0 31.2793 2.205 31.2793 4.96125C31.2793 7.77262 29.0231 10.0327 26.3262 10.0327C24.9951 10.029 23.72 9.49272 22.781 8.54176C21.8419 7.59081 21.3159 6.30297 21.3184 4.96125C21.3184 2.205 23.5746 0 26.3262 0Z" fill="white"/>
</mask>
<g mask="url(#mask5_4031_2830)">
<path d="M21.3184 0H31.2793V10.0327H21.3184V0Z" fill="#777777"/>
</g>
<mask id="mask6_4031_2830" style="mask-type:luminance" maskUnits="userSpaceOnUse" x="0" y="0" width="21" height="11">
<path d="M20.6063 0V10.0327H0V0H20.6063Z" fill="white"/>
</mask>
<g mask="url(#mask6_4031_2830)">
<mask id="mask7_4031_2830" style="mask-type:luminance" maskUnits="userSpaceOnUse" x="10" y="0" width="11" height="11">
<path d="M15.6533 0C18.4049 0 20.6065 2.205 20.6065 4.96125C20.6065 7.77105 18.4049 10.0312 15.6533 10.0312C14.3223 10.0274 13.0471 9.49114 12.1081 8.54019C11.1691 7.58923 10.643 6.3014 10.6455 4.95967C10.6455 2.205 12.9018 0 15.6533 0Z" fill="white"/>
</mask>
<g mask="url(#mask7_4031_2830)">
<path d="M10.6455 0H20.6064V10.0312H10.6455V0Z" fill="#777777"/>
</g>
<mask id="mask8_4031_2830" style="mask-type:luminance" maskUnits="userSpaceOnUse" x="-1" y="0" width="11" height="11">
<path d="M4.87207 0C7.67832 0 9.93457 2.205 9.93457 4.96125C9.93438 5.62985 9.80307 6.29181 9.5482 6.90908C9.29333 7.52635 8.91993 8.08675 8.44946 8.55806C7.97899 9.02936 7.42074 9.40228 6.8068 9.65536C6.19286 9.90844 5.53535 10.0367 4.87207 10.0328C2.11895 10.0328 -0.0263672 7.77263 -0.0263672 4.96125C-0.0263672 2.205 2.11895 0 4.87207 0Z" fill="white"/>
</mask>
<g mask="url(#mask8_4031_2830)">
<path d="M0 0H9.93437V10.0327H0V0Z" fill="#777777"/>
</g>
</g>
<mask id="mask9_4031_2830" style="mask-type:luminance" maskUnits="userSpaceOnUse" x="21" y="10" width="11" height="11">
<path d="M26.3262 10.7476C29.0231 10.7476 31.2793 12.9526 31.2793 15.7088C31.2793 18.5202 29.0231 20.7803 26.3262 20.7803C24.9951 20.7766 23.72 20.2403 22.781 19.2893C21.8419 18.3384 21.3159 17.0505 21.3184 15.7088C21.3184 12.9526 23.5746 10.7476 26.3262 10.7476Z" fill="white"/>
</mask>
<g mask="url(#mask9_4031_2830)">
<path d="M21.3184 10.7476H31.2793V20.7803H21.3184V10.7476Z" fill="#999999"/>
</g>
<mask id="mask10_4031_2830" style="mask-type:luminance" maskUnits="userSpaceOnUse" x="0" y="10" width="21" height="11">
<path d="M20.6063 10.7476V20.7803H0V10.7476H20.6063Z" fill="white"/>
</mask>
<g mask="url(#mask10_4031_2830)">
<mask id="mask11_4031_2830" style="mask-type:luminance" maskUnits="userSpaceOnUse" x="10" y="10" width="11" height="11">
<path d="M15.6533 10.7476C18.4049 10.7476 20.6065 12.9526 20.6065 15.7088C20.6065 18.5186 18.4049 20.7787 15.6533 20.7787C14.3223 20.775 13.0471 20.2387 12.1081 19.2877C11.1691 18.3368 10.643 17.049 10.6455 15.7072C10.6455 12.9526 12.9018 10.7476 15.6533 10.7476Z" fill="white"/>
</mask>
<g mask="url(#mask11_4031_2830)">
<path d="M10.6455 10.7476H20.6064V20.7787H10.6455V10.7476Z" fill="#999999"/>
</g>
<mask id="mask12_4031_2830" style="mask-type:luminance" maskUnits="userSpaceOnUse" x="-1" y="10" width="11" height="11">
<path d="M4.87207 10.7476C7.67832 10.7476 9.93457 12.9526 9.93457 15.7088C9.93438 16.3774 9.80307 17.0394 9.5482 17.6566C9.29333 18.2739 8.91993 18.8343 8.44946 19.3056C7.97899 19.7769 7.42074 20.1498 6.8068 20.4029C6.19286 20.656 5.53535 20.7843 4.87207 20.7803C2.11895 20.7803 -0.0263672 18.5202 -0.0263672 15.7088C-0.0263672 12.9526 2.11895 10.7476 4.87207 10.7476Z" fill="white"/>
</mask>
<g mask="url(#mask12_4031_2830)">
<path d="M0 10.7476H9.93437V20.7803H0V10.7476Z" fill="#999999"/>
</g>
</g>
<mask id="mask13_4031_2830" style="mask-type:luminance" maskUnits="userSpaceOnUse" x="37" y="0" width="113" height="32">
<path d="M135.958 0.484863L145.817 24.9509C147.234 28.5167 147.887 29.2302 149.739 29.4507L149.25 31.0414H138.247L138.736 29.3956C140.153 29.3404 140.697 28.7908 140.697 28.0237C140.697 27.6394 140.425 26.7622 140.044 25.8849L138.028 20.8921H128.55L126.806 25.5541C126.48 26.3779 126.153 27.2551 126.153 27.8032C126.153 28.901 126.916 29.3404 128.605 29.4507L128.114 31.0414H119.562L120.053 29.4507C122.069 29.2302 122.831 27.8599 123.975 24.8422L133.181 0.484863H135.958ZM48.8562 0.484863C54.7937 0.484863 58.9343 2.84421 58.9343 8.21969C58.9343 11.1823 56.9733 13.4865 54.739 14.6929C58.0077 15.5167 61.2218 18.2052 61.2218 21.8797C61.2218 27.4756 56.5374 31.0414 49.5108 31.0414H38.2343L38.7249 29.4507C40.1952 29.3404 40.9577 28.2427 40.9577 26.707V4.87281C40.9577 2.78909 39.8687 2.13231 37.853 2.07561L38.3437 0.484863H48.8562ZM73.9687 0.484863C80.0155 0.484863 84.5358 3.17339 84.5358 8.32836C84.5358 12.4438 81.0499 14.967 78.2171 15.7907C78.5983 16.1199 79.1983 16.7782 79.8515 17.9847L82.2483 22.4278C84.8624 27.3103 86.4983 29.2318 88.4577 29.4507L87.9687 31.0414H81.703L81.5936 30.9863C80.0155 29.6696 78.8155 28.4616 76.7468 24.5131L73.5874 18.4241C73.2062 17.7106 72.7155 17.161 71.2437 17.161H70.864V26.6519C70.864 28.7372 71.953 29.3956 73.9687 29.4507L73.478 31.0399H62.639L63.128 29.4491C64.5999 29.3389 65.3624 28.2411 65.3624 26.7055V4.87281C65.3624 2.78909 64.2718 2.13231 62.2562 2.07561L62.7468 0.484863H73.9687ZM100.497 0.484863L100.006 2.07561C98.4811 2.18586 97.7186 3.28206 97.7186 4.81926V26.6519C97.7186 28.7372 98.8077 29.3956 100.823 29.4507L100.333 31.0414H89.4936L89.9827 29.4507C91.4546 29.3404 92.2171 28.2427 92.2171 26.707V4.87281C92.2171 2.78909 91.1265 2.13231 89.1124 2.07561L89.6015 0.484863H100.497ZM125.934 0.484863L124.9 4.26959H123.647C123.32 3.50256 123.048 3.33719 121.414 3.33719H115.695V26.6519C115.695 28.7372 116.62 29.3956 118.364 29.4507L117.873 31.0414H107.033L107.523 29.4507C109.267 29.3404 110.194 28.2427 110.194 26.707V3.33561H105.181C103.873 3.33561 103.111 3.50099 102.403 4.26801H101.042L102.186 0.484863H125.934ZM49.1312 16.2286H46.4593V25.9936C46.4593 27.7497 47.4937 28.627 49.0733 28.627H49.2374C52.6702 28.627 54.9562 26.1589 54.9562 22.1537C54.9562 18.2587 52.778 16.2286 49.128 16.2286H49.1312ZM133.181 8.32994L129.531 18.0949H136.884L133.181 8.32994ZM72.9312 2.78909C71.4062 2.78909 70.8624 3.33719 70.8624 4.76414V14.9119H72.6593C75.7093 14.9119 78.4327 12.332 78.4327 8.82134C78.4327 5.20199 76.364 2.78751 72.9327 2.78751L72.9312 2.78909ZM48.528 2.78909C47.003 2.78909 46.4577 3.33719 46.4577 4.81926V13.9243H48.6374C51.4155 13.9243 53.3218 11.7855 53.3218 8.43861C53.3218 5.03819 51.6874 2.78909 48.528 2.78909Z" fill="white"/>
</mask>
<g mask="url(#mask13_4031_2830)">
<path d="M37.853 0.484863H149.741V31.0399H37.853V0.484863Z" fill="#777777"/>
</g>
</g>
</g>
<defs>
<clipPath id="clip0_4031_2830">
<rect width="150" height="31.5" fill="white"/>
</clipPath>
</defs>
</svg>
